<svg width="114" height="116" viewBox="0 0 114 116" fill="none" xmlns="http://www.w3.org/2000/svg">
<path d="M35 11.0476C35 4.94618 39.9682 0 46.0968 0H78V116H46.0968C39.9682 116 35 111.054 35 104.952V11.0476Z" fill="#43A6A9"/>
<path d="M51.6868 86.71H52.7132V90.8943H55.9729V87.4971H56.9994V90.8943H61.3548V92.151H51.6868V86.71ZM57.2629 77.9422C57.5033 77.9422 57.7577 77.956 58.0258 77.9836V84.0322C58.7748 83.9862 59.362 83.7331 59.7874 83.2727C60.2035 82.8031 60.4116 82.237 60.4116 81.5741C60.4116 81.031 60.2868 80.5798 60.0371 80.2208C59.7781 79.8526 59.4361 79.5948 59.0106 79.4474V78.0941C59.7412 78.2967 60.3377 78.7017 60.8 79.3093C61.2532 79.917 61.4797 80.6719 61.4797 81.5741C61.4797 82.2922 61.3178 82.9367 60.9942 83.5074C60.6706 84.0691 60.2128 84.511 59.621 84.8331C59.0199 85.1555 58.3264 85.3165 57.5403 85.3165C56.7543 85.3165 56.0654 85.16 55.4735 84.847C54.8817 84.534 54.4286 84.0967 54.1142 83.535C53.7906 82.9643 53.6287 82.3107 53.6287 81.5741C53.6287 80.856 53.7859 80.2208 54.1003 79.6684C54.4148 79.116 54.8494 78.6926 55.4042 78.3979C55.9497 78.0941 56.5694 77.9422 57.2629 77.9422ZM56.9994 79.2403C56.5184 79.2403 56.107 79.3462 55.7648 79.5579C55.4135 79.7697 55.1499 80.0597 54.9742 80.4279C54.7893 80.787 54.6968 81.1874 54.6968 81.6293C54.6968 82.2646 54.9003 82.8078 55.3071 83.2589C55.7139 83.7008 56.2781 83.954 56.9994 84.0184V79.2403ZM57.2629 69.0335C57.5033 69.0335 57.7577 69.0473 58.0258 69.075V75.1235C58.7748 75.0774 59.362 74.8243 59.7874 74.364C60.2035 73.8945 60.4116 73.3283 60.4116 72.6654C60.4116 72.1222 60.2868 71.6712 60.0371 71.3121C59.7781 70.9438 59.4361 70.686 59.0106 70.5388V69.1854C59.7412 69.3879 60.3377 69.7931 60.8 70.4007C61.2532 71.0083 61.4797 71.7631 61.4797 72.6654C61.4797 73.3835 61.3178 74.0279 60.9942 74.5988C60.6706 75.1603 60.2128 75.6022 59.621 75.9245C59.0199 76.2467 58.3264 76.4078 57.5403 76.4078C56.7543 76.4078 56.0654 76.2512 55.4735 75.9383C54.8817 75.6252 54.4286 75.1879 54.1142 74.6264C53.7906 74.0555 53.6287 73.4019 53.6287 72.6654C53.6287 71.9473 53.7859 71.3121 54.1003 70.7597C54.4148 70.2073 54.8494 69.7838 55.4042 69.4892C55.9497 69.1854 56.5694 69.0335 57.2629 69.0335ZM56.9994 70.3316C56.5184 70.3316 56.107 70.4374 55.7648 70.6492C55.4135 70.8609 55.1499 71.1509 54.9742 71.5192C54.7893 71.8783 54.6968 72.2788 54.6968 72.7207C54.6968 73.3559 54.9003 73.899 55.3071 74.3502C55.7139 74.7921 56.2781 75.0452 56.9994 75.1097V70.3316ZM57.5265 67.499C56.7497 67.499 56.07 67.3426 55.4874 67.0295C54.8955 66.7164 54.4378 66.2883 54.1142 65.7452C53.7906 65.1928 53.6287 64.576 53.6287 63.8947C53.6287 63.3055 53.7674 62.7578 54.0448 62.2514C54.313 61.745 54.669 61.3583 55.1129 61.0914H51.0903V59.8209H61.3548V61.0914H59.9261C60.3793 61.34 60.7538 61.7083 61.0497 62.1962C61.3364 62.6841 61.4797 63.2549 61.4797 63.9085C61.4797 64.5806 61.3132 65.1928 60.9803 65.7452C60.6474 66.2883 60.1804 66.7164 59.5794 67.0295C58.9783 67.3426 58.2939 67.499 57.5265 67.499ZM57.5403 61.0914C56.967 61.0914 56.4677 61.2064 56.0423 61.4366C55.6168 61.6668 55.2932 61.9798 55.0713 62.3757C54.8401 62.7623 54.7245 63.1904 54.7245 63.66C54.7245 64.1295 54.8355 64.5576 55.0574 64.9443C55.2794 65.3309 55.603 65.6393 56.0284 65.8695C56.4538 66.0997 56.9532 66.2147 57.5265 66.2147C58.109 66.2147 58.6177 66.0997 59.0523 65.8695C59.4777 65.6393 59.8059 65.3309 60.0371 64.9443C60.259 64.5576 60.37 64.1295 60.37 63.66C60.37 63.1904 60.259 62.7623 60.0371 62.3757C59.8059 61.9798 59.4777 61.6668 59.0523 61.4366C58.6177 61.2064 58.1136 61.0914 57.5403 61.0914ZM55.1684 56.0954C54.7152 55.8376 54.3454 55.4602 54.0587 54.963C53.772 54.4659 53.6287 53.8997 53.6287 53.2644C53.6287 52.5831 53.7906 51.9709 54.1142 51.4278C54.4378 50.8845 54.8955 50.4564 55.4874 50.1435C56.07 49.8304 56.7497 49.674 57.5265 49.674C58.2939 49.674 58.9783 49.8304 59.5794 50.1435C60.1804 50.4564 60.6474 50.8892 60.9803 51.4416C61.3132 51.9847 61.4797 52.5923 61.4797 53.2644C61.4797 53.918 61.3364 54.4935 61.0497 54.9906C60.763 55.4785 60.3977 55.8468 59.9539 56.0954H61.3548V57.3521H51.0903V56.0954H55.1684ZM57.5265 50.9582C56.9532 50.9582 56.4538 51.0733 56.0284 51.3035C55.603 51.5336 55.2794 51.8466 55.0574 52.2425C54.8355 52.6292 54.7245 53.0573 54.7245 53.5268C54.7245 53.9871 54.8401 54.4152 55.0713 54.8111C55.2932 55.1978 55.6216 55.5107 56.0561 55.7502C56.4816 55.9802 56.9762 56.0954 57.5403 56.0954C58.1136 56.0954 58.6177 55.9802 59.0523 55.7502C59.4777 55.5107 59.8059 55.1978 60.0371 54.8111C60.259 54.4152 60.37 53.9871 60.37 53.5268C60.37 53.0573 60.259 52.6292 60.0371 52.2425C59.8059 51.8466 59.4777 51.5336 59.0523 51.3035C58.6177 51.0733 58.109 50.9582 57.5265 50.9582ZM57.5265 48.1441C56.7497 48.1441 56.07 47.9875 55.4874 47.6746C54.8955 47.3616 54.4378 46.9335 54.1142 46.3903C53.7906 45.838 53.6287 45.2256 53.6287 44.5537C53.6287 43.8908 53.772 43.3154 54.0587 42.8275C54.3454 42.3394 54.7061 41.9758 55.1406 41.7365H53.7535V40.466H61.3548V41.7365H59.94C60.3839 41.9851 60.7538 42.358 61.0497 42.8551C61.3364 43.343 61.4797 43.9137 61.4797 44.5675C61.4797 45.2394 61.3132 45.8471 60.9803 46.3903C60.6474 46.9335 60.1804 47.3616 59.5794 47.6746C58.9783 47.9875 58.2939 48.1441 57.5265 48.1441ZM57.5403 41.7365C56.967 41.7365 56.4677 41.8516 56.0423 42.0818C55.6168 42.3118 55.2932 42.6249 55.0713 43.0208C54.8401 43.4075 54.7245 43.8356 54.7245 44.3051C54.7245 44.7746 54.8355 45.2027 55.0574 45.5894C55.2794 45.976 55.603 46.2844 56.0284 46.5146C56.4538 46.7447 56.9532 46.8599 57.5265 46.8599C58.109 46.8599 58.6177 46.7447 59.0523 46.5146C59.4777 46.2844 59.8059 45.976 60.0371 45.5894C60.259 45.2027 60.37 44.7746 60.37 44.3051C60.37 43.8356 60.259 43.4075 60.0371 43.0208C59.8059 42.6249 59.4777 42.3118 59.0523 42.0818C58.6177 41.8516 58.1136 41.7365 57.5403 41.7365ZM57.5403 38.4667C56.7543 38.4667 56.07 38.3101 55.4874 37.9972C54.8955 37.6841 54.4378 37.2515 54.1142 36.6991C53.7906 36.1375 53.6287 35.4977 53.6287 34.7796C53.6287 33.8496 53.8552 33.0855 54.3084 32.4872C54.7616 31.8796 55.3903 31.4791 56.1948 31.2858V32.6391C55.7325 32.7679 55.3672 33.0211 55.099 33.3986C54.8309 33.7668 54.6968 34.2272 54.6968 34.7796C54.6968 35.4977 54.9465 36.0777 55.4458 36.5196C55.9359 36.9615 56.6341 37.1824 57.5403 37.1824C58.4558 37.1824 59.1632 36.9615 59.6626 36.5196C60.1619 36.0777 60.4116 35.4977 60.4116 34.7796C60.4116 34.2272 60.2822 33.7668 60.0232 33.3986C59.7643 33.0303 59.3945 32.7772 58.9135 32.6391V31.2858C59.6903 31.4882 60.3145 31.8934 60.7861 32.501C61.2484 33.1086 61.4797 33.8681 61.4797 34.7796C61.4797 35.4977 61.3178 36.1375 60.9942 36.6991C60.6706 37.2515 60.2128 37.6841 59.621 37.9972C59.0291 38.3101 58.3355 38.4667 57.5403 38.4667ZM61.3548 25.0379L57.9981 28.007H61.3548V29.2636H51.0903V28.007H57.1242L53.7535 25.0932V23.3393L57.5403 26.9022L61.3548 23.3255V25.0379Z" fill="white"/>
</svg>
