<svg width="81" height="61" viewBox="0 0 81 61" fill="none" xmlns="http://www.w3.org/2000/svg">
<g clip-path="url(#clip0_715_4134)">
<path d="M80.0476 60.8574V0.857422H0.0476074V60.8574H80.0476Z" fill="#000066"/>
<path d="M71.8602 25.8203C71.8602 33.7828 70.5852 42.3828 60.2352 46.4828C49.9102 42.3828 48.6477 33.7828 48.5977 25.8203H71.8602Z" fill="#8FC5FF" stroke="white" stroke-width="0.5375"/>
<path d="M60.2226 46.4454C64.1571 45.0678 67.4372 42.2735 69.4226 38.6079H68.4476C68.1601 38.5579 58.5226 37.6329 57.3601 37.1454C56.3726 36.7954 52.5601 37.4829 50.8101 38.1204C52.7431 42.0177 56.1268 45.0019 60.2351 46.4329L60.2226 46.4454Z" fill="#366CC9" stroke="black" stroke-width="0.5375"/>
<path d="M52.9976 41.5573H53.5851C53.7226 41.5573 53.7226 41.5573 53.7726 41.4073C53.8226 41.2573 53.9726 41.3073 54.0726 41.3573C54.1601 41.4073 54.3601 41.3573 54.4476 41.2573C54.5601 41.1573 54.5601 41.1573 54.6601 41.2573C54.7476 41.3573 54.7976 41.3073 54.9101 41.2573C54.9476 41.2573 55.1476 41.1573 55.1976 41.0073C55.2351 40.8698 55.3851 40.8198 55.4476 40.9198C55.4851 41.0198 55.5726 41.0198 55.6851 41.0198C55.7726 41.0198 55.7726 41.0573 55.7726 41.2073C55.7726 41.3073 55.7726 41.3573 56.0226 41.1573C56.2226 41.3573 56.2726 41.2573 56.2726 41.0573C56.2726 40.8698 56.2726 40.0823 56.1726 40.0323C56.0726 39.9823 56.0226 39.6448 55.9726 39.4073C55.9726 38.9073 55.9726 38.9073 55.4851 38.6573C55.4851 38.5323 55.3851 38.4698 54.9851 38.4698C55.0476 38.4198 54.9851 38.2823 54.8976 38.2198C54.7976 38.1823 54.7976 38.1323 54.8976 37.9323C54.9976 37.9323 55.1976 37.9323 55.2351 37.7823C55.3351 37.6948 55.6351 37.6948 55.8226 37.7823C56.0226 37.8823 56.2226 37.8823 56.5601 37.7823L57.1476 37.4948C57.3976 37.3448 57.4351 37.2948 57.4351 37.1073C57.4351 36.6073 57.2976 36.1323 57.1851 35.8823C57.0601 35.6323 57.0601 35.3823 56.8476 34.9573C56.6601 34.5573 56.6601 34.4573 56.4726 34.2198C56.3601 34.1198 56.3101 34.0698 56.3101 33.9323C56.2956 33.7393 56.2058 33.5597 56.0601 33.4323C55.6851 33.0948 55.5851 31.9698 55.3851 31.1448C55.2851 30.6448 55.3851 29.5198 55.1976 29.3323C54.8476 29.0823 54.6976 29.1323 54.4476 29.0448C54.2601 28.7948 54.2101 28.3573 54.0226 27.9198C53.7726 27.9698 53.6226 28.2073 53.4851 28.2948C53.3351 28.4073 53.2851 28.4073 53.2851 28.6448C53.2851 28.8448 53.1351 29.1448 52.9476 29.5198C52.7476 29.9198 52.3101 29.7698 51.9601 30.3073C51.2851 29.4823 51.2851 29.2323 51.2351 28.9948C51.2351 28.7448 51.0851 28.6948 50.6976 28.3573V27.6073C50.3476 27.3573 50.1601 27.4198 50.0101 27.6073C49.8601 27.7573 49.7601 27.9948 49.5226 28.1073C49.4226 28.2948 49.0226 28.6823 48.7351 29.2323C49.0351 33.6198 50.0101 38.0198 52.9851 41.5448L52.9976 41.5573Z" fill="#5D3100" stroke="black" stroke-width="0.05"/>
<path d="M71.8602 25.8197C71.8602 22.7822 71.7102 19.8447 71.7602 17.3197C68.0832 15.8899 64.1677 15.1729 60.2227 15.2072C57.6352 15.2072 52.5477 15.5947 48.6977 17.3072C48.7852 19.8447 48.5977 22.7822 48.5977 25.8072L71.8602 25.8197Z" fill="#FFFF00" stroke="white" stroke-width="0.5375"/>
<path d="M49.2351 29.2829C49.3601 29.4829 49.5976 29.8204 49.6101 30.0329C49.7101 29.8329 49.7851 29.7579 49.7976 29.6454C49.7976 29.5204 49.9601 29.3079 49.8976 29.1829C49.8476 29.0579 49.8101 28.9704 49.9476 29.0579C50.0851 29.1454 50.0601 29.3079 50.0351 29.5329C49.9476 30.1579 49.6976 30.2829 49.6601 30.6954C50.0226 31.5704 49.7476 31.8954 50.1601 32.7704C50.2226 32.7954 50.3851 32.7329 50.4351 32.7454C50.6601 32.5954 50.8101 32.6329 51.1226 32.7079C51.4226 32.7704 51.5851 32.9829 51.5851 33.1829C51.5851 33.3829 51.5851 33.4204 51.6601 33.5329C51.7226 33.6329 51.8351 33.8204 51.8226 33.9579C51.7851 34.0829 51.8351 34.1579 51.8851 34.2079C51.9226 34.2704 51.8601 34.4329 51.8351 34.5079C51.7976 34.5829 51.8101 34.7204 51.9601 34.9079C52.1101 35.0954 52.4601 35.8954 52.4601 36.3579C52.4601 36.8454 52.4976 37.0579 52.6851 37.1454C52.8726 37.2329 52.9351 37.3079 52.9101 37.5079C52.8851 37.6954 52.9976 38.7579 53.0226 38.9329C53.0351 39.0954 53.1101 39.0579 53.1976 39.1454C53.2726 39.2329 53.3226 39.3329 53.5726 39.3329C53.8351 39.3329 54.0726 39.3079 54.2226 39.3329C54.4726 39.6454 54.5976 40.0829 54.6601 40.3454C54.7226 40.6204 54.7101 40.9704 54.7851 40.9704C54.8851 40.9704 54.9726 40.9704 54.9476 40.6579C54.9226 40.3329 54.8976 40.2829 54.7851 40.1079C54.6601 39.9454 54.5976 39.8579 54.6601 39.7704C54.7226 39.6704 54.7351 39.5204 54.7226 39.3829C54.6976 39.2579 54.6476 39.0579 54.8726 39.3079L55.2101 39.7204C55.2726 39.7954 55.2976 39.9704 55.2851 40.1329C55.2726 40.2829 55.2851 40.3454 55.3976 40.2579C55.4851 40.1829 55.5851 40.3204 55.5226 40.4829C55.4851 40.6454 55.5601 40.7454 55.7101 40.8079C55.8601 40.8579 55.9226 40.8954 55.9601 41.0079C55.9976 41.1079 56.1226 41.1704 56.1226 40.9329C56.1103 40.6401 56.0598 40.3501 55.9726 40.0704C55.9101 39.9204 55.8601 39.5954 55.8476 39.3954C55.8226 39.2079 55.7976 39.1579 55.7101 39.1329C55.6226 39.0954 55.5351 39.0079 55.5226 38.9329C55.5226 38.8454 55.4351 38.8079 55.3851 38.8079C55.3226 38.8079 55.2726 38.7704 55.2351 38.7079C55.2101 38.6329 55.1726 38.6329 55.1101 38.6329C55.0476 38.6204 54.9476 38.6579 54.9101 38.5579C54.8851 38.4579 54.8351 38.3079 54.7726 38.2329C54.7101 38.1579 54.6601 38.1204 54.6476 37.8329C54.6476 37.5454 54.6476 37.5079 54.5476 37.4079C54.4476 37.3079 54.2976 37.0329 54.2351 36.9329C54.1851 36.8079 54.1101 36.6954 54.1101 36.9329C54.1101 37.1829 54.1101 37.3079 54.2726 37.3954C54.4226 37.4829 54.4601 37.4829 54.3976 37.6204C54.3226 37.7454 54.3976 37.8329 54.4226 37.9204C54.4601 38.0079 54.4976 38.0954 54.4226 38.1704C54.3476 38.2704 54.2726 38.2454 54.2851 38.1079C54.2857 37.9627 54.2468 37.8201 54.1726 37.6954C54.1226 37.5704 54.0601 37.4954 53.9851 37.5704C53.9101 37.6204 53.8476 37.5454 53.8976 37.4954C53.9601 37.4454 53.9351 37.4079 53.8976 37.3704C53.8726 37.3454 53.8476 37.2954 53.9101 37.2204C53.9726 37.1454 53.9726 37.1079 53.9351 36.9329C53.8976 36.7579 53.6226 35.8579 53.4976 35.6579C53.3726 35.4454 53.3851 35.3079 53.5351 35.4954C53.6976 35.6954 53.8476 35.8704 53.8726 36.0454C53.8726 36.2204 53.9101 36.3204 53.9601 36.3704C54.0226 36.4329 54.0476 36.4204 54.0851 36.2704C54.0851 36.1329 54.2101 36.1829 54.0351 35.9204C53.8476 35.6579 53.5226 35.2079 53.3851 34.3954C53.2601 33.5954 53.2101 33.0829 53.0851 32.8704C52.9601 32.6454 52.9226 32.5954 52.9101 32.3954C52.8976 32.1954 52.9101 31.9829 52.8226 31.8329C52.7351 31.6829 52.6726 31.6579 52.6601 31.8829C52.6476 32.1079 52.6601 32.6329 52.7351 32.7079C52.8101 32.7954 52.7601 33.0329 52.7351 33.1454C52.7101 33.2704 52.5226 33.4079 52.9476 33.6579C53.1101 33.7704 53.0726 33.9079 53.0726 33.9829C53.0351 34.0829 53.0101 34.0704 52.9226 33.9329C52.8351 33.7954 52.7476 33.6704 52.6601 33.6079C52.5726 33.5454 52.5476 33.4829 52.5726 33.2954C52.5976 33.1079 52.6101 32.9829 52.5726 32.9204C52.5226 32.8704 52.4976 32.9079 52.4601 33.0204C52.4351 33.1204 52.4226 33.3954 52.3476 33.4704C52.2851 33.5454 52.2851 33.4954 52.2476 33.3329C52.1976 33.1704 52.2601 32.9079 52.3476 32.6204C52.4351 32.3454 52.4976 32.0204 52.4226 31.6454C52.3476 31.2704 52.3726 31.1454 52.0976 30.8329C51.7976 30.5079 51.4601 30.2079 51.3351 29.8204C51.1851 29.4204 51.1601 29.0704 50.9976 28.8954C50.8569 28.7153 50.6881 28.5591 50.4976 28.4329V27.8454C50.4976 27.6954 50.4351 27.6204 50.2726 27.6454C50.1101 27.6704 49.9976 27.8079 49.8976 27.9954C49.7976 28.1954 49.7226 28.1079 49.5726 28.4329C49.4226 28.7579 49.2476 28.9329 49.2476 29.2829H49.2351Z" fill="#CF6200"/>
<path d="M50.1476 32.9946C50.2726 33.0696 50.3601 33.1071 50.5226 33.0321C50.6601 32.9571 50.8351 32.7321 51.0601 32.9571C51.2502 33.1953 51.3557 33.4899 51.3601 33.7946C51.3601 34.0821 51.3601 34.6071 51.6851 34.8946C52.0101 35.1821 52.1726 35.4946 52.1851 35.8696C52.2112 36.2489 52.2698 36.6253 52.3601 36.9946C52.4101 37.1446 52.4851 37.3196 52.5976 37.4321C52.6851 37.5321 52.7726 37.8196 52.7851 38.1196C52.7976 38.4321 52.7476 38.6321 52.7851 38.7946C52.8351 38.9446 52.7851 39.0696 52.6851 39.0071C52.5601 38.9446 52.5351 38.8821 52.4601 38.7571C52.3851 38.6321 52.3351 38.6446 52.3976 38.8446C52.4601 39.0446 52.6476 39.2196 52.8101 39.2196C52.9726 39.2196 53.0226 39.2321 53.1351 39.3446C53.2351 39.4446 53.2476 39.4946 53.4226 39.4946C53.5976 39.4946 53.6226 39.4946 53.7976 39.5446C53.9601 39.5821 53.9601 39.5696 54.0476 39.5446C54.1351 39.5071 54.2226 39.5946 54.2851 39.7571C54.3351 39.9196 54.4976 40.3821 54.4976 40.5071C54.4976 40.6321 54.4976 40.7571 54.5851 40.8821C54.6726 41.0196 54.6476 41.1321 54.5476 41.0696C54.4601 40.9946 54.4476 41.0071 54.3851 41.0321C54.3101 41.0571 54.2601 41.0071 54.1476 40.9321C54.0476 40.8821 54.1101 40.8946 54.0101 40.7446C53.9101 40.5821 53.8476 40.5321 53.8476 40.6571C53.8476 40.7821 53.8226 40.9071 53.7476 40.8321C53.6726 40.7696 53.6351 40.7696 53.5726 40.8321C53.5101 40.9071 53.4851 40.9571 53.4101 40.8321C53.3351 40.7071 53.2476 40.7071 53.1601 40.6696C53.0976 40.6571 53.0976 40.6571 53.0601 40.5446C53.0226 40.4196 52.8976 40.3946 52.8101 40.3946C52.6976 40.3946 52.6476 40.3446 52.6351 40.2696C52.6351 40.1946 52.5601 40.1446 52.5101 40.1071C52.4476 40.0696 52.4851 39.9821 52.4726 39.8946C52.4726 39.8071 52.3851 39.8321 52.3351 39.8196C52.2726 39.7946 52.2476 39.8071 52.2476 39.6696C52.2476 39.5446 52.1851 39.5071 52.1601 39.4196C52.1101 39.3196 52.1601 39.2321 52.1851 39.1446C52.1976 39.0196 52.1851 38.9696 52.1101 38.8946C52.0351 38.7946 52.1101 38.7071 51.8976 38.5196C51.6851 38.3571 51.5851 38.5071 51.5226 38.0946C51.4867 37.6083 51.3858 37.1291 51.2226 36.6696C51.0976 36.5446 51.0351 36.4196 50.9101 36.3821C50.7851 36.3446 50.7351 36.3821 50.7226 36.1321C50.7101 35.8821 50.6351 35.5821 50.4726 35.4321L50.1851 35.1571C50.1101 35.1071 50.0726 34.9821 50.1851 34.7821C50.2976 34.5571 50.2476 34.2571 50.2351 34.1196C50.2226 33.9946 50.1851 33.7946 50.2101 33.6446C50.2351 33.4946 50.2101 33.3071 50.1851 33.2071C50.1476 33.1196 50.0976 33.0821 50.1601 32.9946H50.1476ZM53.2101 29.3946C53.0441 29.6145 52.8461 29.8083 52.6226 29.9696C52.3851 30.1446 52.0851 30.2696 52.2476 30.5571C52.4226 30.8446 52.5601 30.8821 52.5851 31.0946C52.6226 31.3196 52.6851 31.5071 52.8351 31.5571C53.0226 31.6071 53.0851 31.5821 53.0851 31.9321C53.0851 32.2696 53.0851 32.4321 53.2351 32.5571C53.3851 32.6821 53.3601 32.8321 53.4351 33.1446C53.5101 33.4696 53.5101 34.1696 53.7101 34.6446C53.8976 35.1071 54.3726 36.0196 54.3101 36.1946C54.2601 36.3821 54.2101 36.5196 54.3976 36.7446C54.6101 36.9571 54.7351 37.2821 54.7726 37.4696C54.7726 37.6571 54.8101 37.7196 55.0226 37.6571C55.1612 37.6222 55.287 37.5485 55.3851 37.4446C55.4476 37.3571 55.5851 37.3696 55.7726 37.4696C55.9601 37.5821 56.2476 37.6696 56.4226 37.5821C56.5851 37.4696 56.6726 37.3196 56.8226 37.3196C57.0601 37.1446 57.1476 36.7946 57.1976 36.6946C57.2476 36.5946 57.2101 36.5946 57.1101 36.4946C57.0101 36.3946 57.0601 36.2196 57.0476 36.0571C57.0226 35.8821 56.9601 35.6196 56.7601 35.2446C56.5601 34.8696 56.4226 34.4196 56.2976 34.3071C56.1726 34.1821 56.0976 33.8946 56.0851 33.7571C56.0726 33.6321 55.9101 33.5071 55.8101 33.4071C55.6976 33.2946 55.6101 33.1571 55.4851 32.5571C55.3601 31.9696 55.2851 31.5571 55.2851 31.4321C55.2851 31.3321 55.2601 31.3321 55.1601 31.2821C55.0601 31.2446 55.0101 31.0821 55.0601 31.0071C55.0726 30.9196 55.0101 30.8321 54.9726 30.7321C54.9476 30.6321 54.9726 30.4446 55.0476 30.3321C55.1101 30.2321 55.0976 29.9571 55.0351 29.7071C54.9726 29.4821 54.8976 29.2821 54.6226 29.2321C54.3601 29.2071 54.2976 29.1321 54.2101 28.9071C54.0851 28.6946 53.9851 28.3071 53.9601 28.2196C53.9351 28.1321 53.8726 28.1196 53.6726 28.2946C53.4726 28.4571 53.3976 28.5071 53.3976 28.8321C53.3976 29.0446 53.4476 29.1071 53.5101 29.2196C53.5726 29.3446 53.5976 29.3821 53.6351 29.6946C53.6851 30.0071 53.9726 30.5196 53.6101 30.8196C53.2351 31.0946 53.2851 31.1696 53.2976 31.3696C53.3226 31.5821 53.1976 31.7071 53.1351 31.4321C53.0601 31.1321 53.1351 30.9696 53.3351 30.8321C53.5351 30.7071 53.7226 30.5196 53.5851 30.3321C53.4652 30.0721 53.3932 29.7926 53.3726 29.5071C53.3601 29.3071 53.3351 29.2321 53.2101 29.3946V29.3946Z" fill="#CF6200"/>
<path d="M50.1976 33.7073L50.2351 34.1198C50.2351 34.2573 50.2851 34.5573 50.1726 34.7698C50.0726 34.9823 50.0976 35.0948 50.1726 35.1573H50.1851C50.3976 35.0948 50.4351 34.8698 50.3726 34.7573C50.3458 34.6976 50.334 34.6321 50.3384 34.5667C50.3427 34.5013 50.3631 34.438 50.3976 34.3823C50.4601 34.2573 50.4601 34.1948 50.3976 34.1073C50.3351 34.0198 50.3351 34.0198 50.3976 33.7823C50.4726 33.5698 50.3101 33.5698 50.1976 33.7073ZM52.3726 36.9948C52.3351 36.8448 52.1851 36.2448 52.1851 35.8698C52.1726 35.4948 51.9976 35.1823 51.6851 34.8948C51.4351 34.6698 51.3851 34.3073 51.3601 34.0198C51.1726 33.9073 51.1101 33.9573 51.1226 34.1698C51.1226 34.3948 51.3726 34.4948 51.3351 34.8323C51.2976 35.1573 51.2976 35.0823 51.4601 35.2448C51.5976 35.3948 51.6726 35.5698 51.5851 35.6198C51.4976 35.6823 51.4976 35.8073 51.6101 35.8448C51.7351 35.8948 51.7351 36.0198 51.7226 36.1448C51.7101 36.2573 51.8351 36.2823 51.8851 36.3573C51.9601 36.4448 51.9601 36.6573 51.8851 36.7698C51.8351 36.8948 51.8226 37.0823 51.9351 36.9823C52.0601 36.8698 52.1101 36.9823 52.1976 37.1323C52.2726 37.2573 52.3476 37.2198 52.4476 37.1948C52.4117 37.1314 52.3824 37.0643 52.3601 36.9948H52.3726ZM53.9976 39.9448C53.9476 40.0948 53.8601 40.0573 53.7851 39.9823C53.7101 39.9073 53.6226 39.9073 53.6601 39.7573C53.6851 39.6198 53.6601 39.5948 53.5726 39.5198L53.5351 39.4823H53.4351C53.2476 39.4823 53.2351 39.4448 53.1226 39.3323C53.1026 39.3147 53.0818 39.298 53.0601 39.2823V39.3823C53.0601 39.5198 53.0601 39.4823 52.9351 39.5323C52.8101 39.5698 52.8101 39.3948 52.7851 39.2823C52.7832 39.257 52.779 39.2319 52.7726 39.2073C52.6828 39.1873 52.6003 39.1428 52.5341 39.0789C52.468 39.0149 52.4207 38.9339 52.3976 38.8448C52.3351 38.6448 52.3976 38.6323 52.4726 38.7573C52.5476 38.8823 52.5601 38.9198 52.6726 39.0073C52.7726 39.0698 52.8226 38.9448 52.7726 38.7948C52.7658 38.7409 52.7658 38.6863 52.7726 38.6323C52.7539 38.5808 52.7188 38.5369 52.6726 38.5073C52.4476 38.4198 52.5226 38.4073 52.5226 38.2323C52.5476 38.0698 52.5101 38.0698 52.3726 38.1573C52.2476 38.2448 52.2476 38.1573 52.2476 37.8823C52.2476 37.6323 52.0726 37.6323 52.0351 37.8073C51.9976 37.9948 51.9226 37.8698 51.8601 37.6198C51.7976 37.3698 51.6726 37.2948 51.6726 37.5448C51.6726 37.7573 51.5976 37.7948 51.4726 37.6948L51.5226 38.0823C51.5851 38.4948 51.6851 38.3323 51.8976 38.5198C52.0976 38.6948 52.0351 38.7948 52.1101 38.8823C52.1851 38.9698 52.1976 39.0323 52.1851 39.1323C52.1476 39.2323 52.1101 39.3198 52.1476 39.4073C52.1851 39.5073 52.2476 39.5323 52.2476 39.6698C52.2476 39.7948 52.2726 39.7823 52.3351 39.8198H52.4351L52.5226 39.6948C52.6851 39.5448 52.8976 39.6948 52.9851 39.9073C53.0601 40.0948 53.1476 40.1448 53.2726 39.9823C53.3976 39.8323 53.3476 39.8573 53.4726 39.9948C53.5976 40.1448 53.6476 40.1198 53.6476 40.1198C53.6476 40.1198 53.7726 40.0698 53.8726 40.1448C53.9601 40.2198 53.9976 40.2073 54.1726 39.9698C54.3351 39.7198 54.0976 39.7948 54.0226 39.9448H53.9976ZM54.4726 32.9698C54.5226 32.5948 54.4851 32.2323 54.6351 32.0948C54.7976 31.9698 54.9726 31.6823 54.9726 32.2698C54.9476 32.8448 54.9226 32.8073 54.8101 32.9448C54.6851 33.0823 54.5851 33.1198 54.6851 33.3323C54.8226 33.5448 54.8351 33.5823 54.8226 33.9073C54.8101 34.2448 54.8101 34.3948 54.9351 34.5573C55.0726 34.7323 55.1101 34.7323 55.1476 34.9323C55.1869 35.1464 55.2918 35.343 55.4476 35.4948C55.5976 35.6448 55.7726 36.0198 55.7851 36.2948C55.8101 36.5698 56.0351 36.6323 56.2601 36.8323C56.4851 37.0198 56.2101 37.1448 56.0476 37.0573C55.8726 36.9823 55.9351 37.0573 55.8351 37.1823C55.7351 37.3073 55.7101 37.3198 55.6226 37.1073C55.5351 36.9073 55.2476 36.7698 55.1101 36.7198C54.9726 36.6698 54.8601 36.4448 54.7351 36.2198C54.685 36.1313 54.6148 36.0557 54.5301 35.9993C54.4454 35.9428 54.3487 35.9071 54.2476 35.8948C54.2976 36.0323 54.3226 36.1448 54.3101 36.1948C54.2601 36.3823 54.2101 36.5198 54.3976 36.7448C54.6101 36.9573 54.7351 37.2823 54.7726 37.4698C54.7726 37.6573 54.8101 37.7198 55.0226 37.6573C55.1586 37.6161 55.2828 37.5433 55.3851 37.4448C55.4476 37.3573 55.5851 37.3573 55.7726 37.4698C55.9601 37.5698 56.2476 37.6698 56.4226 37.5698C56.5851 37.4573 56.6726 37.3198 56.8226 37.3198C57.0601 37.1448 57.1476 36.7823 57.1976 36.6948C57.2476 36.5698 57.2101 36.5698 57.1101 36.4823C57.0101 36.3823 57.0601 36.2073 57.0351 36.0448C57.0351 35.8698 56.9601 35.6198 56.7601 35.2448C56.5476 34.8698 56.4226 34.4198 56.2976 34.3073C56.1726 34.1823 56.0851 33.8948 56.0851 33.7573C56.0601 33.6323 55.9101 33.5073 55.8101 33.3948C55.6976 33.2948 55.5976 33.1448 55.4851 32.5573C55.3976 32.0948 55.3101 31.7323 55.2976 31.5573C55.1726 31.7448 55.0851 31.8073 55.0476 31.6573C54.9851 31.5073 54.9351 31.4323 54.8601 31.5323C54.7976 31.6323 54.7726 31.4323 54.7726 31.3448C54.7726 31.2573 54.7726 31.2573 54.6601 31.2573C54.5601 31.2573 54.6601 31.1323 54.6226 30.8573C54.5851 30.6073 54.5351 30.5823 54.5101 30.8823C54.4726 31.1823 54.2976 31.3823 54.3726 31.4323C54.4351 31.5073 54.3976 31.6448 54.3351 31.8448C54.2804 31.9898 54.2804 32.1498 54.3351 32.2948C54.3851 32.4198 54.3101 32.6948 54.2851 32.9073C54.2476 33.1198 54.4226 33.3448 54.4726 32.9823V32.9698ZM51.3726 29.9448C51.2476 29.9448 51.1601 30.0698 51.2351 30.4448C51.2851 30.6948 51.1101 30.6448 51.0351 30.5198C50.9726 30.3948 50.9101 30.1448 50.7851 29.9323C50.6476 29.7198 50.7101 30.0698 50.6976 30.2823C50.6726 30.4948 50.8101 30.4948 50.9226 30.6573C51.0476 30.8323 50.9476 30.8948 50.8226 30.8948C50.6976 30.8948 50.7351 31.1698 50.7726 31.3448C50.8101 31.5323 50.7351 31.5698 50.6476 31.4198C50.5226 31.2573 50.6101 31.0448 50.6226 30.7448C50.6476 30.4573 50.6601 30.5198 50.4726 30.4573C50.2851 30.3823 50.3101 30.3448 50.3976 30.1823C50.4601 30.0073 50.5226 29.9323 50.4351 29.8448C50.3601 29.7573 50.3726 29.7073 50.5101 29.6948C50.6351 29.6698 50.5851 29.5698 50.7101 29.5448C50.8351 29.5073 50.8851 29.5448 50.8976 29.3323C50.9101 29.1448 50.9726 29.0448 51.1101 29.0948C51.1976 29.3823 51.2976 29.8198 51.3726 29.9448V29.9448ZM53.0851 31.9448C53.0851 32.2948 53.0851 32.4448 53.2351 32.5698C53.3851 32.6948 53.3601 32.8448 53.4351 33.1573C53.5101 33.4823 53.5101 34.1823 53.7101 34.6573L53.9351 35.1573C54.0409 35.0682 54.1261 34.9574 54.1851 34.8323C54.2226 34.7323 54.0726 34.4823 53.9601 34.2948C53.8351 34.0698 53.9726 34.0073 54.0851 33.7448C54.2101 33.5073 54.0851 33.4948 53.8851 33.4198C53.7101 33.3573 53.7101 33.1698 53.6101 32.9073C53.5101 32.6323 53.5226 32.5198 53.5851 32.3573C53.6476 32.2073 53.6101 32.0948 53.4726 32.0573C53.3351 32.0198 53.3726 31.9323 53.4226 31.7573C53.4726 31.5948 53.5101 31.5573 53.2976 31.5948C53.1476 31.6448 53.1101 31.6823 53.0601 31.7198L53.0851 31.9448Z" fill="#00B800"/>
<path d="M55.0351 32.6447C55.0101 32.8447 55.0101 32.9572 54.9601 33.0197C54.9101 33.0822 54.9476 33.1822 54.9976 33.2947C55.0601 33.3947 55.0726 33.5197 55.0351 33.7197C54.9851 33.9072 55.0601 34.0447 55.1601 34.0947C55.2601 34.1447 55.3101 34.0947 55.2851 34.3447C55.2745 34.4522 55.2881 34.5608 55.3249 34.6625C55.3616 34.7641 55.4207 34.8563 55.4976 34.9322C55.6226 35.0322 55.7101 35.1947 55.6851 35.3072C55.6851 35.4072 55.7726 35.4947 55.8976 35.5572C56.0226 35.6072 55.9976 35.6197 55.9976 35.6822C55.9976 35.7447 56.0476 35.7572 56.1726 35.7947C56.2976 35.8322 56.4226 35.9072 56.5726 36.0947C56.7226 36.2947 56.9476 36.3822 56.9101 36.1822C56.8726 35.9947 56.9101 35.8322 56.7101 35.7447C56.4976 35.6447 56.3476 35.1572 56.2726 34.8197C56.1804 34.4877 56.0088 34.1831 55.7726 33.9322C55.7351 33.6822 55.7726 33.5697 55.6226 33.4572C55.5582 33.4119 55.5054 33.3521 55.4685 33.2826C55.4316 33.2131 55.4116 33.1359 55.4101 33.0572C55.4101 32.9572 55.3351 32.8072 55.2601 32.7572C55.1976 32.7197 55.1601 32.6447 55.1601 32.5322C55.1601 32.4322 55.0601 32.4447 55.0351 32.6572V32.6447Z" fill="#5D3100"/>
<path d="M54.1351 41.7328C54.5527 41.6689 54.9602 41.5513 55.3476 41.3828C55.5601 41.5203 55.9101 41.7078 56.0601 41.7078C55.7726 41.7703 55.5726 41.7453 55.5101 41.6828C55.5476 41.7703 55.6351 41.9203 55.7101 41.9328C55.4226 41.9328 55.1101 41.8578 55.0101 41.7578C54.7601 41.8578 54.3601 41.8828 54.1351 41.7328V41.7328ZM54.6726 42.1078C54.7851 42.1453 55.3226 42.2328 55.3976 42.2328C55.2226 42.3828 55.3726 42.5328 55.6601 42.5078C55.5351 42.5328 55.3601 42.5828 55.4726 42.6078C55.8543 42.6031 56.2316 42.5268 56.5851 42.3828C56.3351 42.6953 55.1601 42.9828 54.6726 42.1078ZM55.1726 42.8703C55.3922 42.8159 55.6231 42.829 55.8351 42.9078C55.6601 42.9828 55.2726 42.9828 55.1601 42.8828L55.1726 42.8703Z" fill="#00D860"/>
<path d="M55.7101 42.8697C55.9601 42.8322 56.7101 42.9947 56.9601 42.8447C56.8726 43.0822 56.4226 43.1197 56.2476 43.0572C56.0851 43.0197 55.9351 42.9572 55.8226 42.9572C55.8976 42.9197 55.7976 42.9197 55.6976 42.8697H55.7101Z" fill="black"/>
<path d="M55.9727 43.2322C56.3524 43.2427 56.7316 43.1964 57.0977 43.0947C57.3102 43.1697 57.7727 43.2947 57.8727 43.2822C57.6602 43.4072 57.2477 43.3322 57.1227 43.2822C56.9389 43.3583 56.7408 43.3933 56.5421 43.3846C56.3435 43.376 56.1491 43.324 55.9727 43.2322V43.2322Z" fill="#00D860"/>
<path d="M56.2976 43.w3447C56.5851 43.4072 56.8351 43.3697 57.1101 43.2822C57.1976 43.3072 57.3976 43.3572 57.5976 43.3572C57.7226 43.4197 57.8851 43.5197 58.0601 43.5447C57.745 43.5878 57.4242 43.5578 57.1226 43.4572C56.7797 43.4475 56.4387 43.5115 56.1226 43.6447C56.1287 43.5853 56.1489 43.5283 56.1815 43.4783C56.2141 43.4283 56.2582 43.3868 56.3101 43.3572L56.2976 43.3447Z" fill="#00D860"/>
<path d="M55.9726 41.9322C56.1851 41.9947 56.9976 41.9572 57.3851 41.7697C57.5601 41.6822 57.6601 41.8197 57.4726 41.8697C56.8226 42.1197 56.2851 42.1947 55.9101 41.9947C55.7601 41.9197 55.7351 41.8447 55.9726 41.9197V41.9322Z" fill="black"/>
<path d="M59.8726 40.832C58.8851 41.2945 58.2476 41.432 56.8851 41.007C56.7601 40.982 56.6726 41.007 56.8101 41.0945C57.1511 41.242 57.5075 41.351 57.8726 41.4195C58.0476 41.432 57.9851 41.507 57.8726 41.5445C57.7726 41.5695 57.7476 41.6445 57.8851 41.5945C58.0226 41.532 58.8601 41.507 59.1976 41.682C59.3351 41.7695 59.3726 41.7445 59.3601 41.682C59.3476 41.632 59.4226 41.5945 59.5351 41.582C59.6351 41.5695 59.7101 41.532 59.6226 41.507C59.5351 41.4695 59.5226 41.4445 59.5851 41.4195C59.6476 41.382 59.6601 41.3445 59.5601 41.332C59.4726 41.307 59.3976 41.282 59.4851 41.2445C59.5885 41.1992 59.698 41.1697 59.8101 41.157C59.8351 41.0945 59.7976 40.907 59.8726 40.832V40.832Z" fill="#00D860"/>
<path d="M58.2476 40.9453C59.0227 40.9567 59.7764 40.6907 60.3726 40.1953C60.5726 40.3203 60.8351 40.4453 60.9851 40.4703C61.1226 40.4953 61.2351 40.6203 61.0226 40.6203C60.8101 40.6203 60.5226 40.5328 60.3726 40.4703C59.7351 40.8607 58.9941 41.0482 58.2476 41.0078C58.1101 41.0078 58.0726 40.9453 58.2476 40.9578V40.9453Z" fill="black"/>
<path d="M56.5851 37.8945C56.7851 38.032 57.1226 38.257 57.5601 38.2195C57.7716 38.3888 58.0134 38.5161 58.2726 38.5945C57.9726 38.6945 57.6476 38.807 57.5726 38.8945C57.4476 38.7695 57.2601 38.7945 57.2226 38.7195C57.0976 38.8445 57.1101 38.882 57.1976 38.9445C57.4814 39.0289 57.7768 39.0669 58.0726 39.057C58.2226 39.007 58.2851 39.1445 58.1476 39.182C57.8101 39.307 57.1476 39.182 56.9226 38.8195C56.6726 38.457 56.4851 38.3195 55.8601 38.657C55.7976 38.4695 55.7976 38.4445 55.6726 38.4445C55.5476 38.4445 55.3226 38.282 55.4976 38.282C55.6726 38.282 56.1726 38.207 56.5851 37.907V37.8945Z" fill="#00D860"/>
<path d="M56.7476 38.7326C56.6226 38.7451 56.3351 38.9076 56.2351 38.9201C56.1226 38.9451 55.9351 39.0951 56.1226 39.0951C56.3351 39.0951 56.5851 38.8826 56.7226 38.8826C56.8601 38.8826 56.8726 38.6951 56.7476 38.7201V38.7326ZM57.3726 39.3576C57.2851 39.3826 56.9601 39.4576 56.8726 39.4576C56.7851 39.4576 56.6851 39.4576 56.6976 39.5326C56.7101 39.5951 56.7351 39.6451 56.5851 39.6201C56.4601 39.5951 56.3476 39.6576 56.3226 39.6951C56.2851 39.7326 56.2601 39.7701 56.3976 39.7826C56.5226 39.7826 56.5976 39.8201 56.7601 39.7326C56.9101 39.6576 57.0476 39.5701 57.2101 39.5576C57.3726 39.5576 57.5351 39.3326 57.3601 39.3701L57.3726 39.3576Z" fill="#00D860"/>
<path d="M56.9101 39.7447C57.0476 39.8572 57.7351 40.0697 57.9726 40.0697C58.2226 40.0572 58.1851 40.1572 57.9976 40.1947C57.7851 40.2261 57.5683 40.2123 57.3615 40.1541C57.1547 40.096 56.9626 39.9948 56.7976 39.8572C56.6476 39.7322 56.7976 39.6822 56.8976 39.7447H56.9101Z" fill="black"/>
<path d="M60.1476 40.1076C59.7321 40.2248 59.2942 40.2376 58.8726 40.1451C58.6601 40.0701 58.4601 40.0701 58.6226 40.2201C58.7476 40.3576 59.2226 40.4451 59.4976 40.3826C58.5476 40.5951 58.2976 40.5826 58.0726 40.5451C57.7823 40.5099 57.4894 40.5015 57.1976 40.5201C57.0581 40.5426 56.9151 40.5253 56.7851 40.4701C56.6976 40.4076 56.6726 40.3326 56.9226 40.3576C57.1726 40.3701 57.2101 40.3326 56.9976 40.2951C56.7726 40.2576 56.4851 40.3451 56.7726 40.5451C57.0726 40.7201 57.6976 40.5201 58.1101 40.6451C58.4706 40.739 58.8485 40.7448 59.2117 40.6622C59.575 40.5795 59.9131 40.4108 60.1976 40.1701C60.2351 40.1451 60.3101 40.0451 60.1476 40.0951V40.1076ZM57.5726 39.3201C57.5976 39.3951 57.5976 39.4451 57.5726 39.4951C57.5476 39.5451 57.5601 39.6076 57.6351 39.5451C57.7101 39.4826 57.7601 39.3951 57.8601 39.4451C57.9476 39.4826 58.1476 39.4826 58.2351 39.4701C58.3351 39.4701 58.3601 39.4326 58.2351 39.3826C58.1205 39.3334 57.9972 39.3079 57.8726 39.3076C57.7976 39.3201 57.6976 39.3076 57.6351 39.2701C57.5726 39.2326 57.5601 39.2701 57.5726 39.3201V39.3201Z" fill="#00D860"/>
<path d="M58.9226 39.5701C58.8226 39.5701 58.6226 39.4951 58.5351 39.4451C58.4351 39.4076 58.2852 39.4076 58.3852 39.5701C58.4977 39.7201 58.9602 39.7826 59.1352 39.7201C59.2977 39.6451 59.2352 39.5701 59.3852 39.6701C59.5602 39.7701 59.7226 39.8326 59.8476 39.8326C59.9726 39.8326 60.0102 39.8326 59.8852 39.7576C59.7602 39.6826 59.6851 39.6701 59.6601 39.6076C59.6351 39.5451 59.6351 39.4951 59.7726 39.5451C59.8976 39.5826 60.0227 39.6451 60.1227 39.5951C60.2227 39.5451 60.3977 39.4326 60.5602 39.4326L60.5851 39.3326C60.3601 39.3326 60.2101 39.3951 60.1476 39.4076C60.0976 39.4326 59.9726 39.4576 59.8476 39.4326C59.7226 39.4076 59.5726 39.3951 59.5351 39.3701C59.4851 39.3326 59.4976 39.3076 59.5976 39.2951C59.6976 39.2701 59.7226 39.2076 59.5976 39.2201C59.4726 39.2451 59.0727 39.2451 58.8727 39.1826C58.6852 39.1201 58.5976 39.1076 58.5226 39.1451C58.4351 39.1701 58.4477 39.2701 58.5602 39.2701C58.6852 39.2701 58.9602 39.3076 59.0602 39.3951C59.1352 39.4826 59.1351 39.4826 59.0351 39.4451C58.9226 39.3951 58.7226 39.4201 58.9226 39.5701V39.5701Z" fill="#00D860"/>
<path d="M60.5851 39.3321L60.5476 39.4321C60.7851 39.4321 61.3476 39.4821 61.5476 39.5946C61.7226 39.4571 61.6851 39.4071 61.7976 39.4446C61.9226 39.4821 62.0976 39.5071 62.1726 39.4821C62.2294 39.4495 62.2967 39.4405 62.3601 39.4571C62.4351 39.4571 62.6101 39.4321 62.6976 39.3821C62.7976 39.3196 62.9976 39.2571 63.1101 39.2571C63.2101 39.2571 63.3601 39.2196 63.1476 39.1821C62.9476 39.1446 62.6226 39.2196 62.5226 39.2571C62.3976 39.2946 62.0851 39.3196 61.8976 39.3196C61.7101 39.3196 61.4476 39.4071 61.2351 39.3571C61.0101 39.3071 60.7101 39.3321 60.5726 39.3321H60.5851Z" fill="#00D860"/>
<path d="M63.5351 39.2323C63.1601 39.5073 62.6851 39.5698 62.1476 39.6073C61.9851 39.6073 62.0351 39.6573 62.1726 39.6698C62.7476 39.7323 63.3976 39.5198 63.6226 39.2948C63.6851 39.2198 63.6726 39.1198 63.5351 39.2198V39.2323Z" fill="black"/>
<path d="M60.9351 39.8822C61.2444 39.9287 61.5495 39.9997 61.8476 40.0947C61.9976 40.0697 62.0351 40.0447 62.0101 39.9822C61.9726 39.9322 61.9601 39.8822 62.2226 39.9072H63.1601C63.2601 39.8697 63.4476 39.7197 63.5351 39.7197C63.3101 39.7197 62.3476 39.7697 62.2351 39.7572C62.1101 39.7572 62.0476 39.7572 61.9726 39.8072C61.8976 39.8447 61.8601 39.8697 61.7601 39.8197C61.6351 39.7822 61.4976 39.7322 61.3851 39.8072C61.3101 39.8572 61.0976 39.8072 60.9351 39.8822Z" fill="#00D860"/>
<path d="M63.1601 39.907C63.2476 39.8695 63.4476 39.7195 63.5351 39.707C63.7101 39.6945 63.8851 39.757 63.9726 39.782C64.0601 39.807 64.1601 39.782 64.0976 39.707C64.0476 39.6445 64.0976 39.507 64.3476 39.5445C64.6226 39.5695 64.7476 39.6195 65.0101 39.5945C65.2726 39.5695 65.3726 39.757 65.8476 39.5695C65.8226 39.757 65.9101 39.7695 65.9976 39.732C66.0851 39.707 66.1851 39.707 66.3351 39.8195C66.4976 39.9445 67.4226 39.9445 67.6351 39.907C67.8601 39.8695 67.9601 39.982 67.7976 40.032C67.6351 40.082 67.5976 40.157 67.6351 40.2195C67.6726 40.2695 67.7101 40.332 67.5101 40.307C67.2976 40.282 67.2601 40.3445 67.1726 40.407C67.0726 40.482 67.0476 40.532 66.7601 40.4695C66.4851 40.4195 66.4226 40.457 66.2726 40.4695C66.1226 40.4945 66.0851 40.507 65.9226 40.457C65.7021 40.3776 65.463 40.3645 65.2351 40.4195C65.0351 40.4945 64.8976 40.5445 64.7101 40.4945C64.5226 40.457 64.5226 40.4695 64.6351 40.3695C64.7351 40.2445 64.7601 40.2445 64.9851 40.232C65.2101 40.207 65.3601 40.1445 65.2226 40.057C65.0601 39.9695 65.0226 39.982 64.8101 40.0695C64.6101 40.1695 64.5101 40.2445 64.2726 40.1195C64.0476 39.9945 63.9476 40.007 63.7726 40.057C63.6226 40.0945 63.3726 39.9945 63.1601 39.907V39.907ZM63.9226 40.282C63.6226 40.332 63.5476 40.1445 63.2476 40.1695C63.1476 40.1945 62.9726 40.3195 63.2101 40.2945C63.4476 40.282 63.7101 40.407 63.9351 40.3945C64.1601 40.382 64.0601 40.2695 63.9351 40.282H63.9226ZM63.5976 40.4945C63.7351 40.4445 64.0476 40.557 64.1976 40.532C64.3351 40.507 64.4476 40.582 64.2976 40.6445C64.1476 40.6945 63.8351 40.557 63.6726 40.5945C63.5351 40.6445 63.3726 40.582 63.5851 40.4945H63.5976ZM60.5476 41.332C60.7601 41.332 61.5226 41.2945 61.8226 40.6695C61.8476 40.6195 61.8601 40.5945 61.9476 40.6695C62.0351 40.732 62.3976 40.932 63.0476 40.9945C63.2351 40.9945 63.4226 41.0945 63.0601 41.082C62.6851 41.057 62.1101 40.957 61.9226 40.832C61.5851 41.3445 60.9976 41.407 60.5476 41.3945C60.2851 41.3945 60.3476 41.3195 60.5476 41.332Z" fill="#00D860"/>
<path d="M62.1852 40.457C62.0852 40.5945 61.7352 40.832 61.5852 40.857C61.4227 40.857 60.9352 40.832 60.8227 40.782C60.6977 40.7445 60.5602 40.7445 60.7227 40.8695C60.9522 40.9938 61.2123 41.0501 61.4727 41.032C61.6727 40.9945 61.8602 40.932 61.9977 41.032C62.1227 41.107 62.3727 41.257 62.5227 41.232C62.6727 41.1945 62.9602 41.1945 63.0602 41.232C63.1602 41.282 63.3227 41.432 63.0727 41.357C62.8227 41.2695 62.6227 41.332 62.5102 41.282C62.6352 41.457 62.9227 41.7445 63.1602 41.7445C63.2227 41.7445 63.2727 41.857 63.1602 41.907C63.2602 41.957 63.5352 42.0195 63.6977 41.8695C63.6477 41.932 63.6727 41.957 63.7352 41.982C63.7977 42.007 63.8727 42.057 63.7602 42.082C63.6352 42.107 63.3852 42.1195 63.3102 42.082C63.5602 42.2445 64.1852 42.507 64.8477 42.3695C64.9727 42.357 65.0477 42.2945 64.8477 42.307C64.4102 42.307 64.3852 42.307 64.3102 42.2695C64.2352 42.2195 64.2602 42.182 64.3852 42.1445C64.5613 42.0991 64.7412 42.0698 64.9227 42.057C65.0477 42.057 65.1852 42.0195 64.9227 42.0195C64.6727 42.0195 64.3477 42.0195 64.2102 41.9695C64.0852 41.932 63.9977 41.857 64.1352 41.7695C64.2602 41.682 64.3977 41.707 64.4602 41.6445C64.0477 41.6445 63.5352 41.3945 63.8102 41.1945C63.8727 41.157 63.8602 41.1445 63.7602 41.132C63.5669 41.094 63.3784 41.0353 63.1977 40.957C63.0727 40.8945 63.1477 40.8195 63.2602 40.7945C63.0102 40.832 62.5102 40.707 62.1852 40.4695V40.457ZM65.9102 40.457C65.6852 40.6195 65.2477 40.707 65.0602 40.707C64.8852 40.707 64.8477 40.757 64.9977 40.7695C65.1477 40.782 65.3102 40.8195 65.3727 40.7945C65.4352 40.7695 65.4852 40.7695 65.5727 40.8195C65.7268 40.871 65.8935 40.871 66.0477 40.8195C66.2352 40.7695 66.5102 40.7445 66.6352 40.7445C66.7602 40.757 66.8852 40.757 66.6352 40.6945C66.4102 40.632 66.0102 40.6695 65.9102 40.6945C65.8227 40.7195 65.5602 40.6945 65.6977 40.6695C65.8352 40.632 65.9477 40.5445 66.0227 40.4945L65.9102 40.457V40.457ZM65.7852 40.957C65.563 41.1226 65.2988 41.2222 65.0227 41.2445C65.2727 41.3445 65.4977 41.6195 65.6727 41.5945C65.5852 41.657 65.4852 41.7195 65.3852 41.7445C65.6179 41.7838 65.857 41.7395 66.0602 41.6195C66.4352 41.7195 66.9352 41.6445 67.0977 41.4945C66.8477 41.4945 66.5602 41.4195 66.4227 41.2945C66.5477 41.2945 66.6602 41.232 66.7102 41.157C66.4227 41.207 65.9602 41.0695 65.7977 40.932L65.7852 40.957Z" fill="#00D860"/>
<path d="M65.3852 41.7325C65.4852 41.7325 65.5977 41.6575 65.6727 41.6075C65.1879 41.6421 64.7041 41.5288 64.2852 41.2825C64.0102 41.045 64.0102 41.2325 64.1977 41.395C64.3558 41.544 64.547 41.6534 64.7556 41.7142C64.9642 41.7751 65.1842 41.7856 65.3977 41.745L65.3852 41.7325ZM66.0602 42.32C65.9477 42.3825 65.3977 42.4325 65.2227 42.3825C65.0352 42.345 64.9727 42.3575 64.9977 42.445C65.0352 42.52 65.0727 42.57 64.9227 42.545C64.7537 42.5375 64.5846 42.5586 64.4227 42.6075C64.2977 42.6325 64.1727 42.7325 64.3977 42.695C64.6352 42.67 64.8352 42.62 65.0227 42.6575C65.1852 42.695 65.7852 42.7075 65.8977 42.6575C66.0227 42.6075 65.9477 42.62 65.8977 42.62C65.8352 42.62 65.8102 42.5825 65.8977 42.5325C65.9852 42.495 66.0352 42.4075 66.0602 42.32V42.32ZM60.7727 41.595C60.3816 41.731 59.9804 41.8355 59.5727 41.9075C59.3227 42.02 59.1227 42.0825 58.9977 42.0825C59.0852 42.1575 59.4352 42.2325 59.5602 42.195C59.4852 42.2825 59.3102 42.3575 59.2477 42.4075C59.4602 42.37 59.6852 42.4325 59.7977 42.445C59.5409 42.582 59.2503 42.6427 58.9602 42.62C59.0352 42.695 59.1227 42.7825 59.2352 42.7825C59.0116 42.8473 58.7754 42.8559 58.5477 42.8075C58.6227 42.9325 58.6727 43.0075 58.7727 43.0325C58.5602 43.045 58.3102 43.0825 58.0977 42.9575C58.2602 43.1825 58.6227 43.245 59.1727 43.1825C59.7227 43.12 60.1727 42.8825 60.2977 42.7825C60.0727 42.8075 59.7602 42.82 59.6227 42.7825C60.0016 42.6815 60.3638 42.5257 60.6977 42.32C60.5722 42.3192 60.4501 42.2799 60.3477 42.2075C60.6841 42.2242 61.0212 42.1905 61.3477 42.1075C61.1711 42.0695 61.0151 41.9669 60.9102 41.82C61.6019 42.0194 62.3329 42.0409 63.0352 41.8825C63.1352 41.8575 63.1352 41.72 62.9477 41.745C62.5977 41.77 61.9102 41.67 61.7227 41.5825C61.8719 41.6887 62.0425 41.7613 62.2227 41.795C61.9102 41.895 61.4477 41.9575 60.7727 41.5825V41.595Z" fill="#00D860"/>
<path d="M59.2476 42.4077C59.3101 42.3577 59.4976 42.2827 59.5601 42.1952C59.4226 42.2327 59.0851 42.1577 58.9976 42.0702C59.1226 42.0702 59.3226 42.0202 59.5726 41.9077C59.1226 41.8952 58.8226 41.8952 58.6351 41.7952C58.4601 41.6952 58.1726 41.7452 58.0476 41.7702C57.9226 41.7827 57.9726 41.9827 58.4601 41.9327C58.1624 42.066 57.8322 42.1094 57.5101 42.0577C57.5601 42.2327 57.5976 42.3952 57.5476 42.4952C57.8101 42.6452 58.5101 42.8327 58.8601 42.8077C58.5476 42.6952 58.3851 42.5702 58.6351 42.5327C58.8851 42.5077 59.0351 42.4577 59.2601 42.4077H59.2476Z" fill="#00D860"/>
<path d="M58.4601 43.2327C59.0601 43.1827 59.8851 43.1702 60.5351 42.6077C60.6976 42.4827 60.8101 42.5327 60.6476 42.6702C60.0721 43.1168 59.3748 43.3783 58.6476 43.4202C58.3101 43.4202 58.1601 43.2577 58.4601 43.2202V43.2327Z" fill="black"/>
<path d="M63.0101 42.2322C62.783 42.3003 62.5471 42.334 62.3101 42.3322C62.1729 42.3018 62.03 42.3104 61.8976 42.3572C61.7976 42.4197 61.7851 42.4822 61.9226 42.4822L62.3351 42.5072C62.2472 42.5525 62.1704 42.6165 62.1101 42.6947C62.3351 42.6447 62.6976 42.7322 62.8101 42.7947C62.7672 42.8037 62.7229 42.8039 62.6799 42.7953C62.637 42.7867 62.5962 42.7695 62.5601 42.7447C62.8976 43.1197 63.9226 43.1197 64.0851 43.0447C64.0101 43.1072 63.9351 43.1697 63.8726 43.1697C64.1476 43.2322 64.4725 43.2197 64.81 43.0447L64.2851 43.0197C64.3551 42.9503 64.4409 42.8989 64.5351 42.8697C64.4101 42.8447 64.0101 42.8572 63.9101 42.9072C63.9472 42.8176 64.0132 42.7428 64.0976 42.6947C63.5976 42.6947 62.9851 42.6947 62.7726 42.5697C63.1101 42.6197 63.5101 42.4072 63.6726 42.4072C63.3976 42.4072 63.0976 42.3447 63.0226 42.2197L63.0101 42.2322ZM61.7476 42.4822C61.4976 42.5447 61.1226 42.6572 61.0101 42.7072C60.9101 42.7697 60.8101 42.7947 61.0226 42.7947C61.0475 42.7905 61.0725 42.7863 61.0976 42.7822C61.0101 42.7822 60.9101 42.7822 61.0851 42.7197C61.2476 42.6697 61.4601 42.5572 61.7351 42.5072L61.7476 42.4822ZM61.2476 43.0947C61.3351 43.0947 61.7101 43.0947 61.8726 42.9697C62.0226 43.0697 62.3351 43.2447 62.5226 43.2447C62.7226 43.2447 62.6976 43.2947 62.5226 43.3197C62.2823 43.312 62.0489 43.2385 61.8476 43.1072C61.6226 43.1947 61.4351 43.1197 61.2226 43.0947H61.2476ZM58.2976 44.8072C58.702 44.9859 59.152 45.0339 59.5851 44.9447C59.8101 45.1322 60.2476 45.1447 60.4851 45.0947C60.7351 45.0447 60.9476 45.0197 61.2226 45.0947C61.4726 45.1947 62.0226 45.2072 62.1851 45.3322L61.6726 45.3447C61.5976 45.3697 61.6351 45.4072 61.7726 45.4697C61.2765 45.465 60.7884 45.5946 60.3601 45.8447C60.4242 45.7003 60.5296 45.5782 60.6631 45.4936C60.7966 45.4091 60.9521 45.366 61.1101 45.3697C60.8851 45.2947 60.1476 45.2822 59.8976 45.4322C59.8311 45.3599 59.7801 45.2749 59.7476 45.1822C59.3601 45.3947 58.5976 45.0697 58.2851 44.8072H58.2976ZM57.2976 44.0822C57.6288 44.0546 57.9453 43.9332 58.2101 43.7322C58.2976 43.8072 58.6476 43.8822 59.0226 43.7697C58.9476 43.8197 58.9351 43.9322 58.9601 43.9822C58.6583 44.0102 58.3629 44.0862 58.0851 44.2072C57.9351 44.2822 57.4601 44.3447 57.3101 44.2572C57.1601 44.1822 57.1601 44.1072 57.2851 44.0822H57.2976Z" fill="#00D860"/>
<path d="M58.9601 43.9951C58.6583 44.0231 58.3629 44.0991 58.0851 44.2201L58.1476 44.4326C58.7686 44.2552 59.4158 44.1875 60.0601 44.2326C59.8601 44.2451 59.4976 44.4576 59.2976 44.4701C59.7976 44.4326 60.2726 44.5326 60.3976 44.5701C60.5226 44.5951 60.5601 44.6951 60.4601 44.7951C60.3601 44.9076 60.3226 44.8826 60.5226 44.9076C60.7226 44.9076 61.1476 44.8701 61.3351 44.6826C61.2476 44.6076 61.0601 44.6451 60.9976 44.5701C61.1238 44.5299 61.2392 44.4615 61.3351 44.3701C61.1427 44.3751 60.9502 44.3626 60.7601 44.3326C60.6601 44.3076 60.5726 44.2701 60.7101 44.1951C60.8046 44.1491 60.8895 44.0855 60.9601 44.0076C60.7101 44.0701 60.3226 44.1326 59.9851 43.8826C60.1101 43.9076 60.3976 43.8826 60.4976 43.8451C60.4147 43.7913 60.3207 43.7571 60.2226 43.7451C60.4726 43.6201 60.9726 43.5076 61.6351 43.7576C61.9318 43.7351 62.2302 43.7519 62.5226 43.8076C62.6476 43.7076 62.8476 43.4576 62.9601 43.4076C62.2101 43.4576 60.8601 43.3326 60.8976 42.9326C60.6476 43.2576 60.0851 43.4326 59.8476 43.3826C59.8226 43.4826 59.9226 43.6326 60.0101 43.7076C59.7601 43.7576 59.3226 43.8076 59.1226 43.7576C59.2476 43.8701 59.4476 43.9701 59.5726 43.9701C59.3226 43.9701 59.1726 44.0201 58.9601 43.9951V43.9951Z" fill="#00D860"/>
<path d="M60.5101 44.8945C60.7351 44.8945 61.1351 44.8695 61.3351 44.682C61.2476 44.607 61.0601 44.6445 60.9976 44.5695C61.1238 44.5293 61.2392 44.4609 61.3351 44.3695C61.8851 44.3195 62.3476 44.3445 62.5851 44.282C62.8101 44.2195 63.3976 44.2445 63.5101 44.2195C62.9976 44.307 62.8976 44.3445 62.8851 44.432C62.8601 44.5195 63.0351 44.5695 63.1601 44.5695C62.9476 44.5695 62.6476 44.807 62.6101 44.907C62.3101 44.732 62.1851 44.932 62.1351 45.007C62.0101 44.957 61.5851 44.9695 61.3726 45.157C61.0976 45.0695 60.9101 45.032 60.6226 45.0695C60.8101 45.032 60.7726 44.907 60.5226 44.8945H60.5101ZM62.9476 43.3945C63.1226 43.3945 63.4976 43.4195 63.6351 43.3945C63.5514 43.4354 63.4753 43.4904 63.4101 43.557C63.8476 43.507 64.4351 43.4695 64.6101 43.507C64.3851 43.4695 64.1726 43.6195 64.0601 43.682C63.9601 43.7445 64.0226 43.7945 64.1726 43.807C64.3226 43.832 64.5101 43.932 64.2476 43.907C63.9976 43.882 63.4476 43.8695 63.3226 43.882C63.1976 43.907 63.1226 43.8445 63.3226 43.807C63.4578 43.7868 63.5887 43.7446 63.7101 43.682C63.5601 43.7195 63.2726 43.7195 63.1726 43.682C63.0726 43.6445 63.0351 43.6195 63.1351 43.582C63.2476 43.5445 63.1726 43.532 63.0601 43.5445C62.9476 43.5445 62.6851 43.6695 62.5226 43.807C62.6851 43.632 62.8476 43.482 62.9476 43.407V43.3945Z" fill="#00D860"/>
<path d="M61.0226 43.6947C61.1277 43.8161 61.2585 43.9127 61.4055 43.9776C61.5525 44.0424 61.712 44.0739 61.8726 44.0697C61.9476 44.0697 62.1226 44.1822 61.9101 44.1947C61.3726 44.2197 61.1101 44.0822 60.8726 43.7447C60.8226 43.6697 60.9101 43.5697 61.0226 43.6947ZM64.2101 39.2447C64.4851 39.3697 65.0476 39.4947 65.4851 39.4822C65.5726 39.4822 65.7101 39.5572 65.5226 39.5697C65.0576 39.6266 64.5863 39.5393 64.1726 39.3197C64.0601 39.2572 64.0976 39.1947 64.2101 39.2447V39.2447Z" fill="black"/>
<path d="M64.4851 39.245C64.9226 39.245 65.2476 39.245 65.3601 39.3575C65.6101 39.295 66.0726 39.245 66.1601 39.27C66.2601 39.295 66.3851 39.2325 66.1476 39.1825C65.8976 39.1325 65.3726 39.1075 65.1976 39.145C65.0226 39.17 64.4851 39.195 64.3226 39.17C64.3851 39.17 64.4351 39.195 64.4851 39.245V39.245ZM66.1601 39.4075C66.3601 39.3075 66.9476 39.4075 67.1226 39.3325C66.9976 39.4825 67.5351 39.495 67.9976 39.3825C67.8226 39.4825 67.4351 39.5075 67.2726 39.5825C67.1101 39.6575 67.0226 39.595 66.8976 39.545C66.6681 39.436 66.4128 39.3927 66.1601 39.42V39.4075Z" fill="#00D860"/>
<path d="M67.9977 39.3824C67.5352 39.4824 66.9977 39.4824 67.1227 39.3324C66.9477 39.4074 66.3727 39.3074 66.1602 39.4074C66.3852 39.2824 66.5352 39.3949 66.6852 39.1324C66.7852 39.1449 67.0102 39.1574 67.0852 39.0574C67.2102 39.0949 67.4602 39.1449 67.5227 39.2199C67.5852 39.2949 67.6852 39.1949 67.6102 39.0949C67.8227 39.0199 67.6852 39.1824 68.1727 39.0574C68.2852 39.0324 68.5227 38.9824 68.6102 38.9824C68.4192 39.1411 68.2092 39.2755 67.9852 39.3824H67.9977Z" fill="#00D860"/>
<path d="M58.9977 37.2453L58.9102 26.3953C58.9102 25.9078 58.6602 26.0203 58.6602 26.3953V37.1453L58.9977 37.2453ZM62.5227 25.8203L62.9102 37.2453L62.8602 37.3453H62.6102L62.3727 25.8203H62.5227ZM65.8477 35.4953L65.6477 26.2078C65.6477 25.9078 65.3977 25.9578 65.3977 26.2578L65.5977 35.4953H65.8477Z" fill="#FFFF00" stroke="black" stroke-width="0.05"/>
<path d="M60.5726 27.7201L57.1476 27.6701C56.9976 28.3576 57.8351 28.2951 58.1226 28.1701C58.5101 28.4076 58.8101 28.4076 58.9976 28.1701C59.2976 28.4076 59.6851 28.3576 59.8351 28.1701C60.2226 28.5076 60.6601 28.1701 60.5726 27.6701V27.7201ZM60.8226 29.3826H57.3851C56.7601 29.9701 57.5351 30.2576 58.2226 29.8701C58.3226 30.0701 58.7101 30.1576 58.9976 30.0201C59.2976 30.2076 59.6851 30.0701 59.8726 29.8701C60.2226 30.0201 60.6601 30.0701 60.8601 29.3701L60.8226 29.3826ZM60.7101 31.5826H57.3851C57.3476 32.1201 58.0226 32.0701 58.2601 31.9201C58.5101 32.3201 59.0976 32.2201 59.2976 31.9701C59.6351 32.2201 59.9226 32.1701 60.0726 31.9701C60.4226 32.2701 60.7601 31.8701 60.7101 31.5826ZM60.9226 33.7326L57.1601 33.6826C56.9601 34.3076 57.5476 34.4201 57.7851 34.2701C57.8976 34.6076 58.3851 34.5201 58.5351 34.2701C58.7226 34.4201 58.9726 34.3201 59.0601 34.1701C59.1101 34.5076 59.5601 34.5576 59.8976 34.2701C60.5851 34.7576 61.2101 34.1701 60.8726 33.7326H60.9226ZM64.1976 32.8576H61.1226C61.2601 33.4326 61.5601 33.5826 62.0476 33.2326C62.4351 33.6326 63.0226 33.4826 63.1726 33.2951C63.8601 33.8326 64.1976 33.1951 64.1976 32.7951V32.8576ZM63.8976 30.7076L60.8726 30.6076C60.9226 31.3826 61.6601 31.3326 62.0476 31.0451C62.2976 31.3826 62.7851 31.2951 63.0226 31.0451C63.3601 31.4326 63.9976 31.1951 63.8976 30.7076ZM64.2976 28.3076H61.0476C61.0476 28.8451 61.7726 29.1326 62.3101 28.6451C62.4601 29.2826 63.0476 29.0826 63.2976 28.8451C63.6726 29.3326 64.5101 28.7451 64.2726 28.3451L64.2976 28.3076ZM64.0976 26.6826L61.1601 26.7451C61.1601 27.2326 61.8476 27.4326 62.0976 27.0326C62.2476 27.2826 62.7226 27.2326 62.8726 27.0326C63.0726 27.3826 63.3726 27.1326 63.4601 27.0326C63.8101 27.2826 64.1476 27.1326 64.0976 26.6951V26.6826ZM67.4726 27.7701L63.9476 27.7201C63.9476 28.0576 64.2976 28.2201 64.5351 28.0576C64.5351 28.4576 65.0351 28.5576 65.3726 28.2576C65.5601 28.5951 66.1976 28.6451 66.4476 28.2576C66.9351 28.6951 67.5226 28.3576 67.4226 27.7576L67.4726 27.7701ZM67.4226 30.6451H63.9976C63.9976 31.1451 64.5351 31.2826 64.8726 31.0451C64.9351 31.4326 65.3726 31.4826 65.6226 31.2451C65.9601 31.5826 66.4476 31.6201 66.7476 31.2451C67.1226 31.3826 67.4726 31.0451 67.4226 30.6576V30.6451ZM67.2226 33.2451H64.4851C64.4851 33.7326 65.0726 33.7326 65.3226 33.4951C65.6101 33.8326 66.0101 33.8326 66.2476 33.5826C66.5851 33.8826 67.1726 33.7826 67.2226 33.2451Z" fill="white" stroke="black" stroke-width="0.05"/>
<path d="M62.8601 37.357C61.3976 37.357 59.8851 37.357 58.8601 37.2445C57.8351 37.157 57.5351 36.957 56.8101 36.5195L54.0476 34.857C53.8101 34.757 53.5726 34.907 53.9101 35.107L56.6476 36.907C57.2711 37.3096 57.8313 37.8025 58.3101 38.3695C58.8976 39.007 59.2851 39.007 59.5726 38.907C59.8726 38.8195 60.2601 38.657 60.6976 38.7695C61.0976 38.857 61.6726 38.907 61.9726 38.857C62.2226 39.107 62.8476 39.057 63.1976 38.957C63.5351 38.857 63.7851 38.857 64.0226 38.907H64.8601C65.1101 38.907 65.7351 38.7695 66.1726 38.8195C66.6726 38.907 67.0976 38.8195 67.3976 38.8195C67.7159 38.7369 68.0476 38.7199 68.3726 38.7695C68.6726 38.5695 68.7601 38.3195 68.8726 38.082C69.1601 38.032 69.2476 37.982 69.2976 37.832L69.5976 37.057H69.6976V36.757L69.4976 36.4695L69.5976 35.9695L69.8476 35.882L69.7476 35.382L65.4476 35.4945C65.2922 35.6366 65.1869 35.8252 65.1476 36.032L63.8726 36.2195C63.7351 36.2695 63.5851 36.2695 63.4351 36.4695L62.8601 37.357Z" fill="black" stroke="black" stroke-width="0.05"/>
<path d="M67.9976 35.4446L68.6226 33.0446C68.7226 32.7946 68.4851 32.7571 68.3851 33.0446L67.7601 35.4446H67.9976Z" fill="black" stroke="black" stroke-width="0.05"/>
<path d="M70.4851 32.7578C69.9476 33.0078 69.6601 33.1453 69.4101 33.0453C69.1601 32.9453 68.8726 32.8953 68.6851 32.9953C68.6868 33.0119 68.6868 33.0287 68.6851 33.0453C68.5084 33.6669 68.3292 34.2877 68.1476 34.9078C68.5226 35.0578 69.2226 35.0578 69.3601 34.9078C69.5601 34.7078 69.9976 34.7578 70.2351 34.7578C70.3851 34.5578 70.4351 34.3203 70.3851 34.2203C70.3351 34.1203 70.3851 33.8828 70.3851 33.7203C70.3851 33.5953 70.5851 33.0453 70.4851 32.7578V32.7578Z" fill="white" stroke="black" stroke-width="0.05"/>
<path d="M58.1726 28.1578C57.2245 30.6269 55.9051 32.9368 54.2601 35.0078M55.2351 35.5953C57.4043 33.8457 59.2856 31.7662 60.8101 29.4328M57.3851 31.5328C57.2476 32.8578 56.8476 35.1953 56.6601 36.4203M57.9226 34.4703C57.4351 34.9578 56.7976 35.7328 56.2726 36.1703M62.4726 31.8203C62.0851 32.2203 61.6476 32.6953 61.1976 32.8078M62.7226 31.9328C63.0807 32.3408 63.5305 32.6578 64.0351 32.8578M62.4726 29.8203C62.0475 30.1966 61.5498 30.4816 61.0101 30.6578M62.6726 29.8578C62.9601 30.1453 63.2976 30.4828 63.7476 30.6953M61.1101 28.2953C61.5969 28.1499 62.0452 27.8979 62.4226 27.5578M62.5726 27.5578C62.9513 27.9078 63.3981 28.1758 63.8851 28.3453M61.1976 26.7203C61.6574 26.643 62.0742 26.4035 62.3726 26.0453M62.5226 25.9453C62.8601 26.2453 63.4976 26.6328 63.8476 26.6828M65.4101 27.0703C65.2101 27.3203 64.6726 27.7078 64.3351 27.7078M65.6476 27.0828C65.7976 27.3203 66.1851 27.7078 66.4351 27.7078M64.0851 30.6453C64.6116 30.4477 65.0831 30.1262 65.4601 29.7078M65.7101 29.7578C65.9419 30.1167 66.2544 30.4163 66.6226 30.6328M64.6226 33.1828C64.8226 33.1828 65.3601 32.8828 65.4976 32.5578M65.7976 32.3953C66.0669 32.7335 66.3977 33.0177 66.7726 33.2328M57.6351 33.6703C58.2601 33.4703 59.4976 32.6953 60.1351 31.9578M58.9601 32.8828C59.4476 33.2328 60.0851 33.6328 60.5226 33.7203M57.4851 31.5203C57.9176 31.3464 58.3155 31.0967 58.6601 30.7828M58.9101 30.7328C59.0476 30.9328 60.0726 31.5703 60.5226 31.5703M58.6601 28.6953C58.287 28.9791 57.8743 29.2065 57.4351 29.3703M58.9101 28.6828C59.2476 28.9328 59.9851 29.3703 60.4101 29.3703M58.6726 26.7328C58.3851 27.0203 57.8976 27.5078 57.4976 27.6578M58.9226 26.7828C59.1101 27.1203 59.6976 27.6078 60.0851 27.6578M63.9976 28.9328C64.9351 30.5453 66.5851 32.5578 68.2476 33.6203M61.3726 27.1203C62.7351 29.0703 65.3726 33.3328 67.9101 34.8953M68.4101 33.2328C67.7552 34.1239 66.9416 34.8866 66.0101 35.4828M68.1976 33.7703C67.3726 32.3953 66.9351 30.6953 66.2476 28.3953M59.4101 34.4578L60.3851 37.3828M59.2101 34.4078L60.1351 37.3328M58.9726 34.2578L59.8476 37.2828M58.8726 34.3078L59.5476 37.2828M59.5476 37.1953H60.3851M60.2851 36.8953H59.5101M60.1851 36.6453H59.4101M60.0851 36.4078H59.2976M59.9226 36.1203H59.2976M59.2476 35.8703H59.8726M59.1976 35.6703H59.8226M59.1476 35.4203H59.7351M59.1101 35.2328H59.6351M59.0476 34.9828H59.5476M58.9976 34.7953H59.4976M58.9601 34.6453H59.4476M58.9476 34.4578H59.3976M58.1226 34.4578L57.5351 36.8953M58.2726 34.4578L57.7726 36.9953M58.4226 34.3578L58.0226 37.0453M58.6101 34.2953L58.3226 37.1453M58.6601 36.9453H57.6851M58.6601 36.6953H57.5351M58.6601 36.4078H57.6351M58.6101 36.1578H57.6851M58.6601 35.9078H57.7351M58.6601 35.6203H57.8351M58.6601 35.3703H57.8351M58.6101 35.1328H57.8851M58.6101 34.8828H57.9851M58.6101 34.6453H58.0226M58.6101 34.4953H58.0726M58.5726 37.1953V34.3078M61.7351 33.3328L59.7976 37.2953M61.8976 33.2953L60.2351 37.3453M61.9976 33.2453L60.6726 37.3453M62.1476 33.3453L61.0726 37.3453M61.1226 37.2078H59.8976M61.2101 36.8078H60.0476M61.2601 36.5203H60.2851M61.4601 36.2203H60.4851M61.5101 35.9328H60.5851M61.6101 35.6328H60.7351M61.6976 35.2953H60.9226M61.7476 35.0453H61.0226M61.8476 34.7578H61.1601M61.9101 34.5578H61.2601M61.9476 34.3703H61.2601M61.8976 34.1703H61.4101M61.9101 34.0203H61.4601M61.9476 33.8328H61.5476M62.0351 33.6328H61.6476M62.0226 33.4828H61.6851M63.3476 33.4328L64.1851 36.1828M63.4976 33.4828L64.5226 36.1328M63.6476 33.4828L64.8726 36.0828M65.1601 35.8328L63.7851 33.4328M65.1601 35.8828H64.1851M65.0601 35.4953H64.0851M64.9226 35.1953H63.9851M64.7226 34.8578H63.8851M64.5226 34.5578H63.7976M64.3351 34.2203H63.6976M64.1851 33.8828H63.5976M63.9851 33.5828H63.4976M65.0601 33.6328L64.1851 36.1703M65.3101 33.5453L64.5226 36.1328M64.8726 36.0828L65.4601 33.6328M65.5976 33.7328L65.1101 36.0328M64.2851 35.8828H65.1101M64.3851 35.5953H65.2101M64.4726 35.2453H65.2601M64.6351 34.9578H65.3601M64.7226 34.6078H65.4101M64.8226 34.3203H65.4476M64.9601 33.9703H65.5476M65.0601 33.6828H65.5601M65.9976 33.7328L66.3726 35.4828M66.1351 33.6328L66.6726 35.4453M66.3351 33.6328L66.9226 35.4453M66.5726 33.7328L67.2101 35.4453M67.1601 35.2953H66.3351M67.0726 35.0453H66.2851M66.9726 34.8078H66.2351M66.8601 34.5078H66.1351M66.7226 34.2578H66.0476M66.6351 34.0203H66.0101M66.5476 33.7703H65.9601" stroke="black" stroke-width="0.05"/>
<path d="M58.4976 38.2575C58.8851 38.0075 59.5601 38.0449 59.9101 38.3074C60.3226 38.0824 61.0601 38.1449 61.3976 38.4574C61.9226 38.0824 62.3601 38.0325 62.8601 38.3825C63.0814 38.2356 63.3421 38.1594 63.6077 38.1638C63.8733 38.1683 64.1313 38.2532 64.3476 38.4074C64.8101 38.1949 65.3101 38.0199 65.7476 38.4824C65.5353 38.3396 65.2818 38.2707 65.0265 38.2865C64.7711 38.3023 64.528 38.402 64.3351 38.57C63.8976 38.1325 63.1226 38.2949 62.8601 38.6074C62.768 38.5076 62.6559 38.4284 62.531 38.375C62.4062 38.3216 62.2715 38.2952 62.1357 38.2975C61.9999 38.2999 61.8662 38.331 61.7433 38.3887C61.6204 38.4464 61.5111 38.5295 61.4226 38.6325C60.9601 38.2575 60.2851 38.2325 59.9226 38.5075C59.7205 38.3586 59.4867 38.2585 59.2394 38.2151C58.9922 38.1717 58.7383 38.1862 58.4976 38.2575V38.2575Z" fill="#00B800"/>
<path d="M65.4351 37.7072C63.4226 38.0572 59.0101 37.8322 58.0601 37.5697C57.7226 37.4947 57.8101 37.3697 58.0976 37.4447C59.2101 37.6947 61.5851 37.6947 62.8851 37.6197L63.6601 36.5572C63.7851 36.3947 63.8351 36.3822 64.0976 36.3447L65.1851 36.1572V36.3072C65.1601 36.3447 65.1351 36.3822 65.0976 36.3947C65.0976 36.6447 65.1476 37.2822 65.2101 37.5197L65.3476 37.4822C65.4351 37.4572 65.5226 37.6947 65.4351 37.7072V37.7072Z" fill="#CF6200"/>
<path d="M68.7476 37.8076H69.0226C69.0976 37.8076 69.2226 37.7451 69.2601 37.6201L69.5351 36.8326L69.3226 36.5201L69.4351 35.8576L69.6851 35.7451C69.7101 35.7076 69.6851 35.5451 69.6351 35.4951L65.6851 35.6201C65.5601 35.6201 65.5101 35.6201 65.4726 35.7826C65.3559 36.3112 65.3876 36.8618 65.564 37.3735C65.7405 37.8853 66.0549 38.3383 66.4726 38.6826C66.5351 38.7326 66.6226 38.6826 66.5101 38.5951C66.2991 38.3835 66.1182 38.1437 65.9726 37.8826H66.6226C66.6726 38.0951 66.8351 38.5326 66.8726 38.6201C66.8976 38.7076 66.9726 38.7076 66.9226 38.5826C66.8476 38.3326 66.7976 38.0201 66.7601 37.8701H67.4226L67.4726 38.5201C67.4726 38.6076 67.5476 38.6076 67.5476 38.5076V37.8576L68.1476 37.8326L68.0976 38.4826C68.0851 38.5951 68.1351 38.6326 68.1601 38.4826L68.2476 37.8326L68.6601 37.8076C68.6601 37.9576 68.5226 38.3576 68.4851 38.4576C68.4476 38.5826 68.5101 38.5826 68.5476 38.4701C68.6335 38.2598 68.7005 38.0423 68.7476 37.8201V37.8076Z" fill="#CF6200"/>
<path d="M65.8601 37.7078C65.7976 37.5703 65.5726 37.0703 65.5601 36.7078H66.4351C66.4601 36.9703 66.5351 37.5578 66.5851 37.6953L65.8601 37.7078ZM66.5851 36.6828C66.5976 36.9078 66.7101 37.6203 66.7351 37.6828H67.4351L67.3851 36.6703L66.5851 36.6828ZM65.5976 35.8078C65.5666 36.0565 65.5582 36.3076 65.5726 36.5578L66.4101 36.5203L66.3351 35.7828L65.5976 35.8078ZM66.5101 35.7828L66.5601 36.5328L67.3851 36.5078L67.3476 35.7578L66.5101 35.7828ZM67.5101 35.7453L67.5351 36.4953L68.2476 36.4828C68.2476 36.3203 68.2851 35.8328 68.2726 35.7203L67.5101 35.7453ZM68.4101 35.7203L68.3851 36.4703L69.1601 36.4453C69.1976 36.2828 69.2726 35.8578 69.2726 35.6953L68.4101 35.7203ZM69.1976 36.6203L68.3726 36.6453L68.2976 37.6453L69.0851 37.6203C69.1958 37.3763 69.2918 37.1258 69.3726 36.8703C69.3101 36.7453 69.2601 36.7078 69.1976 36.6203V36.6203ZM67.5351 36.6703L67.5601 37.6703L68.1601 37.6453L68.2351 36.6453L67.5351 36.6703ZM64.1601 36.4703L63.8351 36.5203C63.5828 36.8942 63.3202 37.261 63.0476 37.6203L64.2101 37.5953L64.1726 36.4703H64.1601ZM64.3101 36.4328L64.3601 37.5828L65.0601 37.5328L64.9351 36.3328L64.3101 36.4328Z" fill="black"/>
<path d="M60.9101 33.7326H57.1476V33.6326L60.8976 33.6826L60.9101 33.7326ZM63.8476 30.7076C63.8851 30.7076 63.8851 30.7076 63.8476 30.7076L60.9101 30.6576C60.8601 30.6576 60.8601 30.6576 60.9101 30.6576H63.8476V30.7076ZM60.7226 31.5326C60.7601 31.5326 60.7601 31.5826 60.7226 31.5826H57.3851C57.3476 31.5826 57.3851 31.5326 57.3851 31.5326H60.7226ZM60.8101 29.3826C60.8601 29.3826 60.8601 29.4326 60.8101 29.4326H57.3476C57.2976 29.4326 57.2976 29.3826 57.3476 29.3826H60.8101ZM60.5601 27.6701C60.6101 27.6701 60.6101 27.7201 60.5601 27.7201H57.1851C57.1476 27.7201 57.1851 27.6201 57.1851 27.6201L60.6101 27.6701H60.5601Z" fill="black" stroke="black" stroke-width="0.05"/>
<path d="M64.0851 26.6953L61.1476 26.7453L64.0851 26.6953Z" fill="white" stroke="black" stroke-width="0.05"/>
<path d="M64.2351 28.3572C64.2851 28.3572 64.2851 28.3572 64.2351 28.3572H61.0476C60.9976 28.3572 60.9976 28.3572 61.0476 28.3572H64.2351ZM67.4101 30.6072V30.6572H63.9851C63.8851 30.6572 63.8851 30.6572 63.9851 30.6572H67.4226L67.4101 30.6072ZM67.4101 27.7197C67.5101 27.7197 67.5101 27.7697 67.4101 27.7697H63.9226C63.8726 27.7697 63.8726 27.7197 63.9226 27.7197H67.4476H67.4101ZM64.1726 32.8072C64.2226 32.8072 64.2226 32.8572 64.1726 32.8572H61.0476V32.8072H64.1726ZM67.1976 33.2447C67.2476 33.2447 67.2476 33.2447 67.1976 33.2447H64.4601H67.1976Z" fill="black" stroke="black" stroke-width="0.05"/>
<path d="M69.7102 33.7328C69.7648 33.5069 69.7648 33.2712 69.7102 33.0453C69.6122 33.0738 69.5081 33.0738 69.4102 33.0453C69.3623 33.0089 69.3122 32.9755 69.2602 32.9453C69.2461 33.2656 69.1829 33.5818 69.0727 33.8828C68.9227 33.8828 68.5727 33.8828 68.4352 33.7828L68.2852 34.2703C68.5281 34.3239 68.7797 34.3239 69.0227 34.2703C69.0227 34.5578 68.9727 34.8078 68.8227 35.0078C69.0727 35.0078 69.3227 35.0078 69.3602 34.8578C69.5102 34.6578 69.5102 34.3578 69.5602 34.2203L69.8102 34.1703L70.0477 34.0703L70.3852 34.0203V33.7328L70.4852 33.5328L69.7102 33.7828V33.7328Z" fill="#EF072D" stroke="black" stroke-width="0.05"/>
<path d="M57.5851 17.2075C57.1976 17.2075 56.3101 17.2075 56.1226 17.3075C55.9726 17.4075 55.9226 17.4575 56.2226 17.5075C56.5101 17.5575 57.0476 17.7575 57.3476 17.895C57.6351 18.095 57.8351 18.395 57.8351 18.87C57.7265 19.4729 57.8091 20.0946 58.0713 20.6482C58.3336 21.2018 58.7623 21.6596 59.2976 21.9575C59.3476 22.0075 59.3976 22.045 59.3476 22.245L59.1976 22.7825C59.1976 22.8825 59.1476 22.9825 59.2976 22.9325C59.1432 23.1986 58.9763 23.4572 58.7976 23.7075C58.0226 23.62 57.3476 23.7075 57.3476 24.5825C57.3476 24.695 57.3476 24.7825 57.4351 24.5825C57.5851 24.395 57.7351 24.2075 58.0726 24.1075C57.8851 24.445 57.7851 24.7325 57.8226 24.9325C57.8226 25.0825 57.9226 25.1825 58.0226 24.9325C58.0726 24.7325 58.2726 24.545 58.4226 24.395C58.5101 24.345 58.5101 24.345 58.4601 24.495C58.4391 24.6868 58.4928 24.8793 58.6101 25.0325C58.7101 25.1325 58.7601 25.0825 58.7101 24.9325C58.7101 24.7325 58.7101 24.395 58.9601 24.3075C59.2476 24.1075 59.5351 24.195 59.6351 24.395C59.7851 24.645 59.8851 24.395 59.7351 24.195C59.5851 24.0075 59.4476 23.7575 59.2476 23.7575L59.7476 22.9325C59.7476 22.8325 59.8351 22.7825 59.9351 22.8325C59.9351 22.8825 60.0351 22.8825 60.0726 22.7325L60.4226 22.045L60.7101 21.9575L61.2101 22.6825V22.9825C61.2101 23.17 61.0101 23.6075 60.9601 23.7575C60.3726 23.7575 60.0851 23.7575 59.8851 24.1075C59.7851 24.245 59.9351 24.295 60.0726 24.245C60.2238 24.1549 60.3966 24.1074 60.5726 24.1075C60.6601 24.1075 60.7101 24.195 60.5726 24.245C60.2226 24.395 59.9851 24.645 59.9851 24.9825C59.9851 25.0825 60.0726 25.1325 60.1226 24.9825C60.2656 24.7425 60.4929 24.5642 60.7601 24.4825C60.7601 24.7325 60.8101 25.1325 61.0101 25.2325C61.1476 25.32 61.1476 25.2325 61.1101 25.0825C61.0101 24.8325 61.1101 24.5825 61.2476 24.445C61.4976 24.1575 62.0851 24.545 62.2351 24.645C62.3226 24.7325 62.4226 24.7825 62.3226 24.495C62.2726 24.1575 61.7851 23.995 61.3476 23.9075L61.9351 21.8575C62.1851 22.0075 62.4351 21.6075 62.8101 21.7575C63.4663 22.0507 64.0905 22.4109 64.6726 22.8325C64.8726 22.9825 64.9226 22.9325 65.0101 22.8325C65.1101 22.7825 65.2601 22.8325 65.4101 22.8325C65.4976 22.8825 65.5976 22.9325 65.4601 22.6325C65.1788 22.1204 64.775 21.6865 64.2851 21.37C64.6726 21.37 65.1601 21.37 65.1601 21.27C65.1601 21.17 64.5726 20.97 64.3351 20.97C64.6226 20.9176 64.8905 20.7879 65.1101 20.595C65.2101 20.4825 65.1101 20.4325 64.7226 20.4325C63.6976 20.4325 63.1601 20.4325 62.6226 20.145C61.7476 19.645 61.1976 19.07 60.7601 18.87C60.5726 18.7325 60.4226 18.4325 60.2726 18.195C60.0226 17.445 60.0226 17.07 59.3976 16.82C58.7601 16.57 57.9226 16.87 57.5851 17.2075V17.2075Z" fill="black" stroke="black" stroke-width="0.05"/>
<path d="M57.6351 17.4072H56.8101C56.8101 17.4072 56.7101 17.4072 56.8101 17.4072L57.5351 17.6072C57.6851 17.6072 57.6351 17.7447 57.5351 17.6947C57.4351 17.6572 57.3476 17.6947 57.4351 17.7947C57.9351 18.1447 58.0226 18.2947 57.9351 19.6072L58.1726 19.8072C58.2726 19.8072 58.2226 19.8947 58.1726 19.8447C58.1226 19.8072 57.9226 19.8447 58.0726 19.9447C58.2226 20.0447 58.3226 20.0447 58.1726 20.0447C58.0226 20.0447 57.8851 20.1447 58.1726 20.0947C58.4226 20.0947 58.5601 20.1947 58.1726 20.2447C57.8851 20.2447 57.9726 20.3447 58.1726 20.3447C58.5101 20.3447 58.4226 20.4322 58.3226 20.4322C58.2226 20.4322 58.1726 20.5322 58.4226 20.5322H58.7601C58.8101 20.5322 58.8601 20.5322 58.7601 20.5822C58.6601 20.5822 58.6601 20.6822 58.8101 20.6822C58.9601 20.6822 59.0601 20.6822 58.9101 20.7322C58.8601 20.7322 58.7601 20.7822 58.9101 20.8322C59.2476 20.8322 59.2851 20.9197 59.1976 20.9697C59.0976 21.0197 59.0476 21.0197 59.1976 21.0197C59.3476 21.0197 59.4976 21.0697 59.3476 21.1197C59.2476 21.1197 59.1976 21.2197 59.3476 21.2197C59.4976 21.2197 59.5976 21.3197 59.4976 21.3697C59.3976 21.4197 59.3476 21.4697 59.4976 21.4697C59.6351 21.4697 59.6851 21.5072 59.5851 21.5572C59.4976 21.6572 59.4476 21.6572 59.3351 21.5572C59.3351 21.4697 59.2476 21.4697 59.2476 21.5572L59.1476 21.4197C59.0976 21.2697 58.9976 21.2697 58.9976 21.4197C58.9976 21.5572 58.9101 21.4697 58.8101 21.4197C59.0467 21.6908 59.3671 21.875 59.7205 21.9429C60.0739 22.0109 60.4398 21.9587 60.7601 21.7947C60.8101 21.7947 60.8601 21.7947 60.9101 21.9572L61.1976 22.4947C61.2476 22.5822 61.3476 22.4947 61.3476 22.3947L61.6476 21.5572C61.6476 21.4197 61.8351 21.3072 61.7851 21.7072C61.9351 21.6072 62.5226 21.5572 63.0101 21.7072C63.4813 21.8956 63.9266 22.1434 64.3351 22.4447C64.3701 22.4717 64.4109 22.4902 64.4542 22.4989C64.4976 22.5076 64.5424 22.5061 64.5851 22.4947C64.7101 22.4947 64.7726 22.4947 64.5226 22.2447C64.2726 21.9947 64.3851 21.9072 64.5226 21.9947C64.6726 22.0947 64.7726 22.0447 64.6226 21.9072L64.1351 21.4697C64.0851 21.4697 64.0851 21.3697 63.8476 21.3697H63.0976C63.0101 21.3697 62.9101 21.3697 63.2101 21.4697C63.4976 21.5572 64.0351 21.9572 64.1851 22.0447C64.3351 22.1447 64.3851 22.3447 64.1351 22.1447C63.5782 21.7743 62.9931 21.4483 62.3851 21.1697C61.0601 21.3197 59.9851 21.4697 59.1976 20.6322C58.8101 20.1947 58.8101 19.2572 59.4476 18.8822C59.3476 18.7697 59.3476 18.6822 59.3976 18.6822V18.3822C59.2976 18.3322 59.1976 18.2322 59.1976 18.1322C59.0476 18.1322 58.9476 17.8947 58.7101 17.9947C58.4601 18.0947 58.4226 17.9947 58.3226 17.9447C58.2726 17.8447 58.2226 17.8447 58.0726 17.8447C57.9226 17.8447 57.8226 17.8447 57.8226 17.7447C57.8226 17.6572 57.9226 17.6572 58.1226 17.7447C58.4601 17.8947 58.7476 17.9947 58.9976 17.6572C59.1976 17.3572 58.9101 17.1197 58.5101 17.0197C58.0726 16.9197 57.7851 17.2697 57.5851 17.4072H57.6351Z" fill="white" stroke="black" stroke-width="0.05"/>
<path d="M59.7851 17.2572C59.6406 17.1271 59.4702 17.0291 59.2851 16.9697C59.1601 16.9697 59.1601 17.0697 59.1976 17.1197V17.4072C59.2976 17.4572 59.3476 17.5572 59.1976 17.5572C59.0976 17.6572 59.1976 17.9947 59.3476 17.8947H59.4476C59.4476 17.8947 59.4476 18.0447 59.5351 18.0447C59.6351 18.0447 59.5351 18.1447 59.5351 18.1947H59.6351C59.7351 18.1947 59.6851 18.3822 59.5851 18.4447C59.7351 18.4447 59.7851 18.4447 59.7851 18.5322C59.8351 18.6322 59.9851 18.6822 59.9851 18.8197C59.9851 18.9697 59.9851 18.9697 59.7851 18.9197C59.5851 18.8697 59.5851 18.9197 59.5351 19.0197C59.4976 19.1197 59.4476 19.1697 59.5351 19.1697C59.6351 19.1697 59.7351 19.2197 59.5851 19.2697C59.4476 19.3072 59.2976 19.2697 59.2476 19.4072C59.2476 19.5572 59.2476 19.6072 59.3476 19.5572L59.6851 19.3572L59.9351 19.4072C60.0351 19.4572 59.9351 19.6572 59.8351 19.5572C59.7351 19.4572 59.6351 19.5572 59.5851 19.6072L59.3351 19.7072C59.2476 19.7072 59.1476 19.7072 59.2101 19.9572C59.2101 20.6322 59.7351 21.1197 60.7101 21.1197H62.3351C62.0351 20.9197 61.8351 20.8322 61.6851 20.8322H61.5476C61.5976 20.7822 61.5476 20.6822 61.4976 20.6822C61.4476 20.6822 61.3476 20.5822 61.2476 20.6822L60.7601 20.9322C60.6601 20.9322 60.5101 20.9322 60.6601 20.8322L61.1101 20.6322C61.1976 20.6322 61.1476 20.5322 61.1476 20.5322C61.1476 20.5322 61.1476 20.3822 61.2976 20.4322C61.5976 20.6322 62.0351 20.8822 62.1726 20.8822C62.3226 20.8822 62.3726 20.7822 62.2726 20.7322C62.1851 20.6822 62.1351 20.5822 62.1351 20.5322C62.1351 20.4822 62.1851 20.4322 62.3851 20.5322C62.5726 20.6822 62.8601 20.7822 63.0101 20.8322C63.1601 20.8822 63.2601 20.8822 63.0101 20.7322L61.8851 19.8947C61.7351 19.7572 61.7351 19.8947 61.7851 19.9947C61.8351 20.0947 61.6476 20.1447 61.5351 20.0447C61.4476 19.9447 61.3976 19.8947 61.5351 19.8447C61.6851 19.8072 61.6476 19.7572 61.4976 19.5947C61.2976 19.4697 61.2476 19.4697 61.2976 19.5947C61.3476 19.7572 61.3476 19.8447 61.1976 19.8072C61.0601 19.7572 60.9101 19.6572 61.0601 19.6072C61.1476 19.5072 61.3101 19.4572 61.0601 19.3072C60.8101 19.1697 60.9601 19.3072 60.9101 19.4072C60.8601 19.5072 60.7101 19.5072 60.6601 19.4072C60.6101 19.3072 60.5226 19.2697 60.5726 19.2197C60.6101 19.1697 60.6101 19.1197 60.7101 19.2197C60.8101 19.3072 60.9101 19.2197 60.7601 19.0697C60.6101 18.9197 60.5726 18.9697 60.6101 19.0697C60.6601 19.1697 60.5226 19.2697 60.3226 19.0697C60.2226 19.0197 60.2226 18.9197 60.3226 18.8697C60.4226 18.8697 60.4226 18.8197 60.3226 18.7322C59.9851 18.1447 60.1226 17.6947 59.7351 17.2572H59.7851Z" fill="white" stroke="black" stroke-width="0.05"/>
<path d="M59.7976 17.3572C59.7726 17.4072 59.7601 17.3947 59.6976 17.4447C59.6351 17.4947 59.6101 17.6322 59.7351 17.6197C59.7696 17.6161 59.803 17.6054 59.8331 17.5881C59.8632 17.5709 59.8894 17.5476 59.9101 17.5197C59.8816 17.4627 59.8481 17.4084 59.8101 17.3572H59.7976ZM59.4226 17.0322C59.3101 17.1322 59.2976 17.1822 59.3476 17.1822C59.4101 17.1822 59.3851 17.1822 59.3476 17.2572C59.2976 17.3197 59.4226 17.3572 59.4726 17.2947C59.5351 17.2447 59.5351 17.2322 59.5601 17.2947C59.5726 17.3572 59.6851 17.2947 59.7226 17.2572C59.6351 17.1697 59.5101 17.0947 59.4101 17.0322H59.4226ZM59.2351 17.5822C59.1101 17.6447 59.1476 17.9822 59.3476 17.8822C59.4101 17.8572 59.4601 17.8822 59.4601 17.9197V18.0072C59.5412 17.9737 59.6138 17.9225 59.6726 17.8572C59.7851 17.7072 59.6726 17.7322 59.4976 17.7322C59.3226 17.7322 59.2851 17.6947 59.4476 17.5947C59.5976 17.4947 59.4851 17.4447 59.2851 17.4697C59.3101 17.5072 59.2976 17.5447 59.2351 17.5822V17.5822ZM59.9726 18.3322C59.8726 18.2197 59.9351 18.1822 60.0351 18.1197C60.0547 18.1117 60.0719 18.0988 60.0851 18.0822L59.9976 17.7572C59.9601 17.7822 59.8976 17.8947 59.8726 17.9447C59.8476 18.0322 59.8226 18.0822 59.7476 18.0697C59.6601 18.0322 59.5851 18.1197 59.5726 18.2072H59.6351C59.6601 18.2197 59.6726 18.2822 59.6601 18.3322C59.8976 18.3322 59.9351 18.4697 59.9726 18.5822C60.0226 18.7072 60.0601 18.6947 60.0976 18.6197C60.1351 18.5447 60.0601 18.4322 59.9726 18.3322Z" fill="#CF6200"/>
<path d="M60.0351 19.6578C59.9851 19.7578 59.9851 19.7453 59.8476 19.7453C59.7226 19.7578 59.5476 19.7828 59.4726 19.8578C59.4351 19.8953 59.1976 19.9203 59.1976 20.0203C59.1976 20.1328 59.1976 20.2078 59.2976 20.2203C59.3976 20.2203 59.4226 20.2453 59.3851 20.3203C59.3351 20.3953 59.3101 20.5078 59.4851 20.5328C59.6601 20.5328 59.7976 20.4953 59.8351 20.5828C59.8851 20.7078 59.8351 20.8453 59.8726 20.9203C59.8976 20.9828 60.0226 21.0078 60.2101 21.0703C60.3351 21.0953 60.8101 21.1328 60.9601 21.1078C61.0851 21.0828 61.0351 21.0078 60.8976 21.0078C60.7476 20.9828 60.6476 20.9578 60.6101 20.8578C60.5726 20.7453 60.5476 20.6953 60.6351 20.6078C60.7101 20.5078 60.7851 20.4453 60.7351 20.2953C60.6976 20.1578 60.6101 19.9828 60.4476 19.9328C60.2851 19.8828 60.3351 19.6453 60.1601 19.6328C60.0976 19.6328 60.0601 19.6328 60.0351 19.6578V19.6578Z" fill="#FFFF00"/>
<path d="M59.2101 21.0324C59.3601 21.0574 59.4726 21.0949 59.3601 21.1324C59.2476 21.1699 59.1726 21.2325 59.3226 21.245C59.4726 21.245 59.6101 21.3199 59.4851 21.3449C59.3601 21.3824 59.3601 21.4699 59.4976 21.4699C59.6351 21.4699 59.7101 21.5199 59.6101 21.5949C59.4976 21.6449 59.4351 21.6824 59.3601 21.5824C59.2976 21.4699 59.2601 21.4574 59.2476 21.5199C59.2226 21.5949 59.1851 21.545 59.1351 21.4325C59.0976 21.3325 58.9851 21.2825 59.0101 21.37C59.0476 21.4575 58.9351 21.4825 58.8226 21.4325C58.9253 21.5525 59.048 21.654 59.1851 21.7324C59.3351 21.6824 59.5101 21.7324 59.5601 21.7324C59.6351 21.7324 59.8226 21.7824 59.9351 21.8449C60.0476 21.8949 60.1226 21.795 60.0726 21.6825C60.0226 21.5575 60.0226 21.595 59.9726 21.6825C59.8976 21.7325 59.8976 21.6449 59.8976 21.5074C59.8976 21.4074 59.8226 21.42 59.8101 21.495C59.7851 21.5575 59.7226 21.4449 59.7476 21.3824C59.7851 21.3199 59.7476 21.2825 59.6976 21.3075C59.6351 21.3325 59.6351 21.3075 59.6226 21.1825C59.6101 21.045 59.5601 21.0575 59.5476 21.12C59.5351 21.17 59.4726 21.095 59.3851 20.995C59.3226 20.92 59.2601 20.9699 59.1226 21.0074L59.2101 21.0324Z" fill="#CF6200"/>
<path d="M60.7475 21.8327C60.06 22.1077 59.56 21.9827 59.185 21.7327C59.335 21.6827 59.51 21.7327 59.5725 21.7327C59.635 21.7327 59.835 21.7827 59.935 21.8452C60.035 21.8952 60.1225 21.7952 60.0725 21.6827C60.16 21.8077 60.235 21.8827 60.3475 21.8702L60.7475 21.8327V21.8327ZM59.2725 18.6077C59.2225 18.4577 59.185 18.4327 59.11 18.4452C59.035 18.4452 58.9975 18.4327 58.91 18.3952C58.835 18.3577 58.7225 18.3952 58.71 18.5577C58.685 18.7202 58.585 18.7827 58.46 18.8827C58.335 18.9702 58.2725 19.0452 58.2725 19.2077C58.2725 19.3577 58.235 19.3827 58.1475 19.5077L58.01 19.6702L58.16 19.7577C58.26 19.8077 58.2225 19.8702 58.135 19.8452C58.0475 19.8202 57.9475 19.8702 58.11 19.8952C58.26 19.9327 58.3225 20.0202 58.185 20.0202C58.0225 19.9827 57.86 20.1202 58.1475 20.0827C58.435 20.0577 58.535 20.1952 58.21 20.1952C57.8725 20.1952 57.9975 20.3077 58.185 20.3077C58.4975 20.3077 58.3975 20.3952 58.31 20.3952C58.235 20.3952 58.1975 20.5202 58.41 20.4827L58.485 20.3577C58.5225 20.2577 58.5475 19.9702 58.6725 19.8827C58.785 19.8077 58.8475 19.6702 58.8475 19.5952C58.8475 19.5202 59.035 19.1327 59.135 19.0452C59.26 18.9577 59.31 18.7577 59.26 18.6202L59.2725 18.6077Z" fill="#FFFF00"/>
<path d="M59.0226 18.6328C58.9101 18.5453 58.7851 18.6078 58.7851 18.7578C58.7851 18.8828 58.7101 18.9453 58.6101 19.0078C58.5541 19.0367 58.505 19.0773 58.4662 19.1269C58.4274 19.1765 58.3997 19.234 58.3851 19.2953C58.3851 19.4203 58.4101 19.4828 58.3351 19.5828C58.2476 19.6703 58.2351 19.7453 58.2851 19.8078C58.3601 19.8578 58.3601 19.8578 58.3726 19.9328C58.4101 20.0078 58.5476 19.9328 58.5476 19.8453C58.5476 19.7578 58.5851 19.7578 58.6726 19.7078C58.7726 19.6578 58.9226 19.4078 58.8851 19.3453C58.8601 19.2828 58.7601 19.2203 58.8851 19.1328C59.0101 19.0328 59.1101 19.0078 59.1101 18.9328C59.1101 18.8328 59.1351 18.8078 59.1726 18.7703C59.2101 18.7328 59.0976 18.6828 59.0226 18.6453V18.6328Z" fill="#CF6200"/>
<path d="M59.0226 18.5075C58.9476 18.4825 58.8976 18.645 59.0101 18.67C59.1226 18.695 59.1351 18.5575 59.0101 18.52L59.0226 18.5075ZM59.0101 18.72C58.9226 18.7325 58.8226 18.845 58.9601 18.845C59.1101 18.82 59.1601 18.72 58.9976 18.72H59.0101ZM58.8351 18.9325C58.7476 18.97 58.7726 19.095 58.8976 19.0075C59.0226 18.92 59.0476 18.82 58.8351 18.9325ZM58.7101 19.1075C58.6226 19.145 58.6226 19.27 58.7601 19.1825C58.8851 19.1075 58.9226 18.995 58.7101 19.1075Z" fill="black"/>
<path d="M58.5351 19.1951C58.4476 19.2326 58.4976 19.3451 58.6226 19.2701C58.7476 19.1951 58.7476 19.0826 58.5351 19.1951ZM58.6351 19.3076C58.5351 19.3451 58.5976 19.4576 58.7226 19.3826C58.8476 19.3076 58.8476 19.1951 58.6226 19.3076H58.6351Z" fill="black"/>
<path d="M58.4726 19.3445C58.3976 19.3945 58.4476 19.4945 58.5851 19.4195C58.7101 19.3445 58.6976 19.232 58.4726 19.3445ZM58.5851 19.4695C58.4851 19.507 58.5351 19.6195 58.6726 19.5445C58.7976 19.457 58.7976 19.357 58.5726 19.4695H58.5851Z" fill="black"/>
<path d="M58.4227 19.5447C58.3477 19.5822 58.3977 19.6947 58.5352 19.6197C58.6602 19.5447 58.6352 19.4322 58.4352 19.5447H58.4227Z" fill="black"/>
<path d="M58.4226 19.6453C58.3601 19.6953 58.4101 19.8203 58.5476 19.7328C58.6726 19.6453 58.6476 19.5453 58.4226 19.6453Z" fill="black"/>
<path d="M58.3726 20.7197C58.2851 20.7197 58.2226 20.8572 58.3351 20.8822C58.4476 20.9072 58.4726 20.9197 58.4726 20.9947C58.4726 21.0697 58.5101 21.2072 58.6226 21.2072C58.7476 21.2072 58.8476 21.0822 58.7476 21.0447C58.6351 21.0072 58.5476 20.9697 58.5351 20.8697C58.5351 20.7822 58.4351 20.7197 58.3726 20.7197Z" fill="#CF6200"/>
<path d="M61.4851 19.9822L61.5476 20.0572C61.6351 20.1197 61.7976 20.0572 61.7601 19.9947C61.7476 19.9447 61.6601 19.7447 61.8851 19.8947L63.0351 20.7072C63.2726 20.8822 63.1101 20.9072 63.0101 20.8447L62.3851 20.5572C62.1976 20.4447 62.1726 20.4947 62.1351 20.5197C62.1351 20.5572 62.1351 20.6322 62.2101 20.6947C62.0976 20.7072 61.9226 20.6947 61.8601 20.5697C61.7976 20.4197 61.6476 20.2447 61.5351 20.1072C61.4976 20.0572 61.4851 20.0197 61.4976 19.9947L61.4851 19.9822Z" fill="#FFFF00"/>
<path d="M67.7976 40.7945C67.6351 40.907 67.4226 41.0945 67.5601 41.357L67.6101 41.3445C68.2198 40.6044 68.7597 39.8093 69.2226 38.9695V38.8945C69.0527 39.0341 68.8632 39.1478 68.6601 39.232C68.7351 39.4445 68.3726 39.707 68.1976 39.782C68.2726 39.907 68.2476 40.107 68.0726 40.1445C68.1101 40.2445 67.9851 40.2445 67.8226 40.3195C67.6851 40.382 67.6101 40.4195 67.5601 40.507C67.6351 40.457 67.7601 40.4195 67.8101 40.4445C67.8601 40.4695 67.8851 40.557 67.7726 40.582C67.6726 40.6195 67.5976 40.6695 67.5476 40.707C67.7101 40.6695 67.9476 40.682 67.7976 40.7945V40.7945Z" fill="#00D860"/>
<path d="M60.2725 19.757C60.0725 19.607 60.0226 19.707 60.0726 19.757C60.1226 19.807 60.0726 19.9445 59.9351 20.007H59.4351C59.3476 20.007 59.1976 20.1945 59.4351 20.132L60.2226 20.007C60.3226 20.007 60.4226 19.8945 60.2226 19.757H60.2725ZM60.6101 20.0445C60.4726 19.8945 60.4226 19.9445 60.4726 20.0445C60.5226 20.1445 60.4226 20.1945 60.3226 20.1945L59.6351 20.382C59.4476 20.382 59.4476 20.532 59.6851 20.532C59.9351 20.532 60.4226 20.282 60.4726 20.282C60.5226 20.282 60.5726 20.1445 60.6101 20.1945C60.6601 20.2445 60.7601 20.1945 60.6101 20.0445ZM60.7601 20.432L60.2725 20.682C60.1225 20.682 60.0225 20.832 60.2725 20.832C60.5225 20.832 60.7726 20.582 60.8601 20.532L61.0601 20.432C61.0601 20.432 61.2476 20.382 61.0601 20.2445C60.8601 20.0945 60.6601 20.2445 60.7601 20.2945C60.8601 20.3445 60.7601 20.432 60.7601 20.432V20.432Z" fill="black" stroke="black" stroke-width="0.05"/>
<path d="M58.7601 17.257C58.4476 17.0445 58.1101 17.4695 58.4476 17.707C58.7476 17.9195 59.0726 17.457 58.7726 17.257H58.7601Z" fill="black"/>
<path d="M58.3726 17.4453H58.4601C58.4601 17.5453 58.5476 17.6953 58.6851 17.6578C58.5726 17.7453 58.3601 17.6328 58.3726 17.4453ZM59.5726 22.0703C59.6726 22.1078 59.9976 22.1328 60.1226 22.1328L59.9726 22.4078C59.9351 22.4953 59.9226 22.5078 59.9101 22.3703C59.9101 22.2453 59.8351 22.1578 59.7726 22.2953L59.6476 22.5453C59.6101 22.5953 59.5601 22.6078 59.5726 22.4703C59.5976 22.3328 59.5851 22.1828 59.5726 22.0703V22.0703Z" fill="white"/>
<path d="M71.8602 25.8197C71.8602 33.7822 70.5852 42.3822 60.2352 46.4822C49.9102 42.3822 48.6477 33.7822 48.5977 25.8197H71.8602ZM71.8602 25.8197C71.8602 22.7822 71.7102 19.8447 71.7602 17.3197C68.0832 15.8899 64.1677 15.1729 60.2227 15.2072C57.6352 15.2072 52.5477 15.5947 48.6977 17.3072C48.7852 19.8447 48.5977 22.7822 48.5977 25.8072L71.8602 25.8197Z" stroke="black" stroke-width="0.15"/>
<path d="M0.0476074 0.857422H40.0476V30.8574H0.0476074V0.857422Z" fill="#012169"/>
<path d="M4.73511 0.857422L19.9851 12.1699L35.1726 0.857422H40.0476V4.73242L25.0476 15.9199L40.0476 27.0449V30.8574H35.0476L20.0476 19.6699L5.11011 30.8574H0.0476074V27.1074L14.9851 15.9824L0.0476074 4.85742V0.857422H4.73511Z" fill="white"/>
<path d="M26.5476 18.4199L40.0476 28.3574V30.8574L23.1101 18.4199H26.5476ZM15.0476 19.6699L15.4226 21.8574L3.42261 30.8574H0.0476074L15.0476 19.6699ZM40.0476 0.857422V1.04492L24.4851 12.7949L24.6101 10.0449L36.9226 0.857422H40.0476ZM0.0476074 0.857422L14.9851 11.8574H11.2351L0.0476074 3.48242V0.857422Z" fill="#C8102E"/>
<path d="M15.1101 0.857422V30.8574H25.1101V0.857422H15.1101ZM0.0476074 10.8574V20.8574H40.0476V10.8574H0.0476074Z" fill="white"/>
<path d="M0.0476074 12.9199V18.9199H40.0476V12.9199H0.0476074ZM17.1101 0.857422V30.8574H23.1101V0.857422H17.1101Z" fill="#C8102E"/>
</g>
<defs>
<clipPath id="clip0_715_4134">
<rect width="80" height="60" fill="white" transform="translate(0.0476074 0.857422)"/>
</clipPath>
</defs>
</svg>
