<?xml version="1.0" standalone="no"?>
<!DOCTYPE svg PUBLIC "-//W3C//DTD SVG 20010904//EN"
 "http://www.w3.org/TR/2001/REC-SVG-20010904/DTD/svg10.dtd">
<svg version="1.0" xmlns="http://www.w3.org/2000/svg"
 width="492.000000pt" height="492.000000pt" viewBox="0 0 492.000000 492.000000"
 preserveAspectRatio="xMidYMid meet">
<metadata>
Created by potrace 1.14, written by Peter Selinger 2001-2017
</metadata>
<g transform="translate(0.000000,492.000000) scale(0.100000,-0.100000)"
fill="#000000" stroke="none">
<path d="M2269 4876 c-2 -2 -38 -6 -80 -9 -439 -32 -941 -239 -1299 -536 -82
-68 -278 -266 -347 -351 -383 -471 -578 -1101 -530 -1710 53 -681 397 -1314
942 -1731 248 -191 554 -339 860 -418 219 -57 374 -76 620 -76 225 0 367 17
560 65 44 11 89 22 99 25 87 21 293 103 428 170 208 104 461 287 623 450 44
44 60 58 35 31 -39 -44 -36 -42 25 14 38 36 76 72 85 80 25 25 144 163 160
185 21 30 -2 6 -50 -50 -64 -76 -162 -176 -167 -171 -3 3 23 38 57 78 135 159
297 434 380 643 28 71 44 119 95 285 15 50 41 180 50 250 3 25 8 52 10 60 16
61 22 358 10 502 -26 329 -144 714 -300 980 -23 38 -30 56 -18 47 11 -9 9 -1
-8 21 -79 107 -175 236 -179 240 -3 3 -18 23 -34 45 -54 73 -299 309 -398 383
-260 195 -541 334 -838 415 -77 22 -236 54 -295 62 -27 3 -66 8 -85 11 -41 6
-405 15 -411 10z m321 -70 c66 -6 129 -14 235 -32 152 -25 387 -101 557 -180
110 -51 341 -184 333 -192 -2 -3 21 -20 52 -38 106 -65 323 -264 438 -404 266
-323 467 -783 511 -1174 3 -28 9 -76 13 -106 13 -100 4 -438 -14 -531 -2 -10
-7 -39 -11 -66 -5 -26 -9 -50 -9 -53 -23 -105 -39 -160 -44 -160 -4 0 -8 7 -8
15 0 8 3 15 7 15 4 0 7 6 7 13 2 39 14 121 19 128 3 5 0 9 -5 9 -6 0 -12 -3
-12 -7 -1 -5 -3 -21 -5 -38 -4 -38 -11 -83 -18 -115 -10 -45 -19 -104 -20
-132 0 -14 -3 -24 -5 -22 -3 2 -15 -32 -28 -77 -28 -96 -110 -273 -181 -391
-248 -410 -614 -735 -1041 -927 -104 -46 -240 -94 -263 -93 -10 0 -18 -4 -18
-9 0 -6 -9 -7 -21 -4 -13 4 -19 3 -16 -3 8 -12 -172 -55 -323 -78 -184 -28
-519 -24 -657 6 -24 6 -49 7 -55 4 -7 -5 -8 -2 -3 5 5 9 -1 11 -24 8 -20 -3
-29 -2 -25 5 4 6 -2 8 -15 3 -15 -4 -27 -2 -34 8 -7 8 -23 18 -37 21 -21 5
-20 4 5 -9 92 -44 -165 25 -325 87 -535 209 -979 609 -1235 1113 -173 339
-259 692 -259 1060 0 371 78 703 243 1040 122 248 249 425 445 621 144 143
251 230 397 322 324 204 713 334 1069 357 58 4 106 8 107 9 5 4 199 -2 273 -8z
m2057 -2965 c0 -11 -5 -18 -9 -15 -4 3 -5 11 -1 19 7 21 12 19 10 -4z"/>
<path d="M2309 4646 c-2 -2 -39 -6 -82 -10 -137 -12 -325 -52 -476 -103 -405
-135 -782 -403 -1048 -743 -260 -333 -432 -773 -460 -1180 -31 -425 37 -787
217 -1155 123 -254 275 -457 497 -667 42 -40 86 -82 97 -93 12 -11 24 -19 28
-18 5 2 8 -4 8 -13 0 -10 6 -14 14 -11 8 3 20 -2 28 -11 12 -15 11 -16 -4 -3
-10 7 -18 11 -18 8 0 -3 37 -35 83 -71 45 -36 88 -71 95 -77 7 -6 16 -9 19 -6
3 3 -12 17 -34 31 -21 13 -54 38 -73 55 -29 26 -31 30 -13 28 12 0 20 -4 17
-9 -5 -8 36 -34 49 -30 5 1 6 -1 3 -6 -2 -4 21 -21 52 -37 31 -16 59 -32 62
-36 11 -14 53 -30 66 -25 8 3 13 0 11 -7 -1 -7 6 -11 17 -9 10 2 15 -1 12 -6
-3 -5 9 -15 27 -21 17 -7 44 -18 59 -26 19 -10 29 -10 38 -1 8 8 9 6 4 -9 -4
-11 -3 -17 1 -12 5 4 19 0 31 -8 13 -8 31 -16 41 -18 10 -1 23 -6 29 -9 27
-17 65 -28 58 -17 -4 7 -1 10 7 7 8 -3 13 -11 11 -17 -1 -7 2 -10 8 -6 5 3 16
3 22 -1 13 -8 37 -13 76 -16 12 -1 22 -5 22 -9 0 -4 7 -10 16 -13 8 -3 12 -2
9 4 -3 6 -1 10 4 10 6 0 11 -4 11 -10 0 -5 3 -9 8 -9 4 1 9 0 12 -1 21 -8 37
-6 37 6 0 7 -4 11 -9 8 -4 -3 -8 1 -8 8 0 9 -3 9 -10 -2 -8 -12 -10 -12 -10
-1 0 8 -3 12 -6 9 -3 -4 -21 0 -40 8 -19 8 -34 11 -34 8 0 -4 -6 -2 -12 3 -18
14 -59 23 -52 12 3 -5 0 -9 -5 -9 -6 0 -11 5 -11 10 0 15 -43 30 -54 19 -13
-12 -26 -11 -26 2 0 5 5 7 10 4 6 -3 10 -1 10 5 0 7 -8 9 -21 5 -13 -5 -19 -3
-15 3 8 13 -30 22 -42 10 -6 -6 -12 -5 -17 3 -5 8 -4 10 3 5 7 -4 12 -2 12 5
0 7 -10 9 -24 7 -19 -4 -23 -1 -18 11 3 9 1 13 -3 8 -5 -4 -19 0 -32 8 -14 10
-33 13 -46 10 -15 -4 -18 -4 -8 3 10 7 10 11 1 17 -7 4 -16 2 -20 -5 -5 -8 -9
-5 -13 9 -3 13 -13 21 -26 21 -12 0 -21 4 -21 10 0 5 -11 12 -25 16 -14 3 -25
11 -25 17 0 6 -7 2 -15 -9 -14 -19 -14 -18 -9 2 6 22 -18 40 -37 28 -5 -3 -8
-2 -7 3 2 4 -2 8 -7 8 -6 0 -9 -4 -7 -8 1 -5 -2 -6 -7 -2 -6 3 -8 11 -5 18 3
8 -25 33 -68 62 -40 27 -93 65 -116 85 -24 19 -48 34 -54 32 -5 -1 -7 2 -3 7
3 6 -9 20 -27 32 -46 31 -226 227 -299 324 -32 44 -76 112 -96 152 -21 39 -42
69 -47 66 -5 -3 -6 -1 -2 5 4 6 2 19 -4 29 -21 37 -78 192 -108 293 -30 102
-54 215 -68 316 -6 49 -10 61 -18 53 -3 -3 18 -136 39 -244 10 -48 61 -214 89
-289 36 -95 32 -95 -13 -1 -82 171 -152 399 -180 580 -6 39 -13 88 -17 110 -9
64 -12 333 -3 418 12 127 19 166 45 287 128 571 475 1059 979 1375 128 80 407
212 389 184 -3 -5 2 -6 10 -3 9 3 16 10 16 15 0 5 3 8 8 7 4 -1 50 12 102 29
103 34 272 69 384 81 91 9 359 9 456 0 323 -31 686 -161 963 -345 61 -41 117
-75 124 -76 7 0 10 -3 8 -7 -2 -4 14 -20 35 -36 22 -16 40 -32 40 -36 0 -5 4
-8 9 -8 5 0 40 -29 77 -65 38 -35 72 -65 77 -65 4 0 7 -5 7 -11 0 -6 22 -33
50 -60 28 -27 50 -52 50 -54 0 -5 24 -36 46 -59 6 -6 18 -23 28 -38 10 -16 26
-28 35 -28 14 0 14 -2 1 -10 -10 -6 -11 -10 -2 -10 6 0 12 -7 12 -15 0 -7 8
-19 18 -24 9 -6 13 -11 9 -11 -10 0 24 -35 34 -35 4 0 11 -4 16 -9 5 -5 3 -6
-4 -2 -16 9 -16 4 -1 -29 6 -14 15 -25 20 -25 4 0 7 -3 6 -7 -5 -15 45 -92 55
-86 6 4 8 0 4 -10 -4 -10 -1 -28 5 -42 13 -28 31 -34 21 -7 -5 14 -3 15 7 5
11 -10 11 -15 -1 -29 -12 -16 -12 -17 5 -11 16 6 17 5 6 -8 -10 -12 -10 -15 4
-15 19 0 21 19 4 55 -6 14 -17 24 -24 21 -8 -3 -16 -1 -19 5 -4 5 -1 8 6 7 6
-2 14 3 17 11 3 9 0 11 -8 6 -10 -6 -12 -4 -7 8 3 10 2 17 -3 17 -6 0 -10 6
-10 14 0 14 -37 84 -50 96 -3 3 -12 19 -20 35 -44 88 -177 268 -192 259 -7 -4
-8 -2 -4 4 4 7 -3 22 -15 34 -11 13 -33 38 -47 56 -14 19 -31 31 -39 28 -8 -4
-11 -1 -7 5 8 14 -46 70 -59 62 -6 -3 -7 -1 -4 4 9 14 -19 37 -34 27 -8 -4 -9
-3 -5 5 5 7 -2 20 -16 32 -12 11 -36 32 -52 46 -34 30 -243 183 -251 183 -2 0
-28 15 -57 34 -167 106 -468 221 -679 260 -127 24 -131 24 -169 26 -27 1 -30
3 -16 9 11 4 -75 8 -191 9 -116 1 -212 0 -214 -2z m1912 -893 c12 -16 12 -17
-2 -6 -9 7 -19 10 -22 6 -4 -3 -7 -1 -7 5 0 17 16 15 31 -5z m102 -143 c9 -11
13 -20 7 -20 -5 0 -14 9 -20 20 -6 11 -9 20 -8 20 2 0 11 -9 21 -20z m64 -132
c-3 -8 -6 -5 -6 6 -1 11 2 17 5 13 3 -3 4 -12 1 -19z m27 -16 c3 -5 -1 -9 -9
-9 -8 0 -12 4 -9 9 3 4 7 8 9 8 2 0 6 -4 9 -8z m-3248 -2837 c1 -9 -4 -11 -14
-7 -10 4 -12 7 -4 10 7 2 9 9 5 15 -3 7 -2 8 2 4 5 -4 10 -14 11 -22z m709
-325 c3 -6 -1 -7 -9 -4 -18 7 -21 14 -7 14 6 0 13 -4 16 -10z"/>
<path d="M2836 4638 c3 -5 10 -6 15 -3 13 9 11 12 -6 12 -8 0 -12 -4 -9 -9z"/>
<path d="M3038 4613 c7 -3 16 -2 19 1 4 3 -2 6 -13 5 -11 0 -14 -3 -6 -6z"/>
<path d="M3158 4593 c7 -3 16 -2 19 1 4 3 -2 6 -13 5 -11 0 -14 -3 -6 -6z"/>
<path d="M3248 4573 c7 -3 16 -2 19 1 4 3 -2 6 -13 5 -11 0 -14 -3 -6 -6z"/>
<path d="M3318 4553 c7 -3 16 -2 19 1 4 3 -2 6 -13 5 -11 0 -14 -3 -6 -6z"/>
<path d="M3378 4533 c7 -3 16 -2 19 1 4 3 -2 6 -13 5 -11 0 -14 -3 -6 -6z"/>
<path d="M3470 4500 c8 -5 22 -9 30 -9 10 0 8 3 -5 9 -27 12 -43 12 -25 0z"/>
<path d="M3520 4486 c0 -2 7 -7 16 -10 8 -3 12 -2 9 4 -6 10 -25 14 -25 6z"/>
<path d="M3577 4459 c7 -7 15 -10 18 -7 3 3 -2 9 -12 12 -14 6 -15 5 -6 -5z"/>
<path d="M2348 4445 c-2 -2 -39 -6 -83 -9 -44 -4 -102 -11 -130 -16 -27 -5
-63 -12 -80 -15 -16 -2 -66 -14 -110 -26 -345 -90 -653 -263 -907 -507 -48
-46 -93 -89 -101 -96 -25 -19 -185 -241 -234 -323 -85 -143 -197 -406 -218
-512 -2 -9 -10 -44 -19 -78 -18 -68 -52 -281 -61 -383 -4 -36 -8 -80 -10 -97
-2 -21 1 -33 8 -33 8 0 9 -3 2 -8 -15 -10 -18 -72 -5 -72 6 0 8 5 5 10 -3 6
-2 10 3 10 5 0 12 -37 16 -82 3 -46 9 -99 12 -118 5 -33 7 -43 19 -107 12 -61
56 -214 81 -279 107 -288 253 -521 463 -737 74 -77 309 -280 297 -257 -4 8 2
3 14 -13 12 -15 26 -25 31 -22 5 4 41 -14 81 -38 67 -39 141 -77 241 -121 59
-27 269 -94 302 -98 17 -2 33 -7 37 -13 4 -6 8 -2 8 9 0 13 -5 17 -20 13 -11
-3 -20 -1 -20 3 0 5 -9 7 -20 5 -11 -2 -20 0 -20 6 0 5 -13 9 -28 9 -15 0 -32
4 -38 10 -5 5 -18 11 -29 13 -11 2 -33 9 -50 16 -16 6 -61 24 -100 39 -38 14
-71 30 -73 34 -2 5 -9 8 -17 8 -24 0 -285 152 -331 193 -8 7 -25 21 -40 32
-93 71 -266 239 -270 263 -1 6 2 10 7 6 5 -3 7 -10 4 -15 -4 -5 2 -12 11 -16
10 -4 43 -30 73 -59 262 -246 605 -421 956 -488 44 -8 96 -18 115 -22 51 -10
499 -14 505 -4 2 4 23 6 45 5 22 -2 37 1 34 6 -3 5 5 7 18 5 13 -2 29 2 37 8
12 9 13 8 6 -4 -8 -13 -7 -13 8 -1 9 7 17 10 17 6 0 -4 7 -2 15 5 9 7 18 10
22 6 3 -3 0 -6 -7 -6 -7 0 -10 -3 -7 -7 4 -3 17 2 29 13 12 10 18 14 15 7 -8
-13 18 -12 30 2 4 4 2 5 -6 0 -10 -6 -12 -4 -6 4 5 9 10 10 18 2 7 -7 15 -5
24 7 8 9 12 11 8 5 -3 -7 -1 -13 4 -13 6 0 11 4 11 9 0 5 7 12 16 15 14 5 15
4 4 -9 -11 -13 -10 -14 4 -9 9 3 16 9 16 13 0 4 13 6 30 5 16 -1 28 2 25 6 -3
4 2 13 10 20 8 7 15 9 15 5 0 -4 6 -2 14 4 11 9 16 9 22 0 4 -7 3 -9 -4 -5 -6
3 -13 2 -17 -4 -4 -6 -11 -8 -16 -5 -5 4 -9 1 -9 -4 0 -14 13 -14 28 1 7 7 12
9 12 5 0 -4 14 0 31 9 17 8 40 17 52 20 11 2 24 9 27 15 4 6 10 10 14 9 15 -4
66 12 66 21 0 5 6 9 14 9 8 0 18 5 21 10 4 7 -5 9 -26 5 -19 -3 -31 -3 -28 0
12 12 53 14 65 4 9 -7 18 -5 32 8 10 10 25 19 33 21 8 2 16 8 17 13 2 5 8 6
14 3 6 -4 8 2 4 17 -6 20 -5 21 4 7 10 -17 16 -15 68 18 31 20 63 44 70 53 11
13 12 13 7 1 -4 -8 3 -4 15 10 12 14 23 23 24 20 5 -11 106 75 106 90 0 10 3
11 8 3 5 -7 18 0 42 23 19 19 38 34 42 34 4 0 8 5 8 11 0 6 14 22 30 36 17 13
27 30 23 35 -4 7 -1 8 6 3 13 -7 48 32 43 48 -1 5 1 6 6 3 5 -3 15 3 23 12 69
81 138 176 191 263 143 232 219 437 272 734 20 111 27 355 13 490 -65 658
-454 1240 -1038 1554 -120 65 -105 65 28 1 103 -49 238 -135 323 -207 92 -76
268 -261 338 -355 39 -53 72 -98 72 -101 0 -3 16 -29 35 -59 33 -49 137 -251
141 -273 1 -5 10 -28 20 -50 10 -22 18 -42 19 -45 6 -33 31 -100 38 -100 4 0
6 -4 3 -8 -4 -7 18 -117 32 -152 3 -8 6 -17 6 -20 1 -3 5 -11 9 -17 5 -8 4
-13 -2 -13 -7 0 -7 -9 0 -27 6 -16 13 -48 15 -73 8 -88 11 -108 18 -119 4 -6
1 -11 -6 -11 -8 0 -9 -3 -3 -8 7 -4 11 -55 10 -129 0 -66 3 -119 6 -117 4 2 6
29 4 59 -1 31 2 58 7 61 5 3 5 11 1 17 -12 20 -13 68 -1 61 7 -5 8 -2 3 6 -8
14 -14 51 -16 118 -1 23 -6 42 -11 42 -7 0 -6 5 1 13 6 8 8 17 4 21 -4 3 -7
14 -8 24 -6 61 -18 122 -25 122 -4 0 -6 9 -3 20 3 13 0 20 -8 20 -11 0 -11 2
1 10 8 5 10 10 5 10 -6 0 -11 8 -12 18 -1 23 -10 57 -25 101 -7 20 -13 39 -14
44 -1 4 -2 8 -4 10 -1 1 -3 11 -5 22 -2 11 -9 21 -15 23 -5 2 -8 7 -5 12 12
19 -111 270 -201 408 -67 104 -164 223 -251 310 -35 35 -63 66 -63 69 0 4 8
-1 18 -10 10 -10 22 -14 26 -10 4 5 6 3 4 -2 -1 -6 22 -32 52 -60 30 -27 70
-66 90 -85 19 -19 38 -34 42 -32 5 1 8 -3 8 -9 0 -6 11 -24 25 -41 21 -24 26
-27 31 -13 5 11 -22 44 -93 113 -203 198 -357 307 -646 455 -227 117 -495 199
-727 222 -66 7 -327 14 -332 10z m229 -29 c72 -3 155 -10 185 -16 112 -22 208
-43 205 -47 -2 -2 -64 7 -138 19 -179 29 -546 31 -679 4 -47 -10 -93 -18 -102
-17 -10 0 -18 -4 -18 -9 0 -4 -6 -7 -12 -6 -25 2 -137 -27 -133 -34 3 -5 -3
-7 -12 -5 -10 1 -24 -2 -30 -8 -7 -5 -13 -7 -13 -4 0 3 -13 1 -30 -4 -17 -6
-27 -16 -23 -22 3 -6 1 -7 -5 -3 -15 9 -111 -29 -129 -51 -8 -10 -12 -12 -8
-5 8 16 -5 15 -27 -2 -10 -7 -14 -17 -10 -21 4 -5 2 -5 -5 -1 -11 6 -91 -28
-103 -44 -3 -3 -20 -13 -37 -21 -18 -8 -33 -18 -33 -22 0 -5 -4 -6 -9 -2 -6 3
-13 0 -18 -7 -4 -7 -20 -19 -35 -27 -15 -8 -25 -18 -22 -22 3 -5 -3 -6 -12 -2
-12 4 -15 3 -10 -5 4 -7 1 -12 -7 -12 -8 0 -22 -10 -31 -22 -9 -13 -14 -16
-10 -8 7 13 5 13 -9 1 -9 -7 -15 -17 -12 -21 3 -5 0 -12 -6 -16 -8 -5 -9 -3
-4 6 5 8 3 11 -6 8 -8 -3 -13 -11 -11 -17 1 -7 -2 -10 -7 -7 -5 3 -19 -6 -31
-21 -12 -16 -18 -21 -14 -13 5 8 -15 -9 -44 -37 -29 -29 -57 -53 -62 -53 -5 0
-12 -5 -16 -12 -5 -7 -3 -8 7 -3 8 5 -11 -16 -41 -47 -75 -76 -93 -98 -180
-215 -87 -118 -196 -285 -192 -295 1 -5 -2 -8 -8 -8 -5 0 -10 -6 -10 -14 0 -8
-13 -43 -30 -78 -16 -34 -30 -58 -30 -51 0 21 82 203 92 203 5 0 6 5 3 10 -3
6 -1 10 5 10 6 0 8 5 4 12 -5 7 -3 8 6 3 10 -6 12 -4 6 11 -4 10 -4 16 -1 12
4 -4 25 28 47 70 192 364 596 704 1028 865 81 30 253 80 316 91 58 10 94 16
137 22 67 8 220 20 232 18 6 -1 69 -5 142 -8z m430 -72 c-3 -3 -12 -4 -19 -1
-8 3 -5 6 6 6 11 1 17 -2 13 -5z m-554 -18 c-4 -6 1 -5 10 3 14 11 23 12 43 2
30 -13 45 -14 25 -2 -10 6 -2 9 22 8 21 0 37 -5 37 -10 0 -4 -6 -5 -12 -1 -7
4 -9 3 -5 -2 10 -10 58 -14 52 -4 -3 4 7 8 20 8 14 0 25 -4 25 -9 0 -5 -5 -9
-12 -9 -6 0 -8 -3 -5 -6 4 -4 13 -1 22 6 12 10 15 10 15 -1 0 -10 2 -11 8 -2
9 14 92 6 92 -9 0 -5 -5 -6 -12 -2 -7 4 -8 3 -4 -5 4 -6 12 -8 18 -5 6 4 15 0
20 -7 8 -11 9 -10 4 4 -6 18 2 21 28 11 9 -3 13 -10 10 -15 -5 -8 3 -11 22 -8
4 0 10 -5 15 -13 7 -11 10 -10 21 1 8 9 9 11 1 7 -6 -3 -14 -2 -18 4 -4 6 -11
8 -16 5 -5 -4 -9 -1 -9 5 0 7 7 9 15 6 9 -3 42 -13 75 -21 88 -23 232 -80 345
-136 309 -155 584 -409 765 -704 274 -447 357 -965 235 -1473 -45 -186 -129
-392 -224 -545 -23 -38 -38 -73 -35 -79 4 -6 3 -8 -3 -5 -6 4 -16 0 -23 -8 -7
-8 -9 -15 -4 -15 5 0 4 -4 -2 -8 -7 -4 -30 -32 -53 -61 -22 -30 -57 -72 -76
-93 -21 -22 -33 -43 -29 -49 5 -8 3 -9 -5 -5 -14 9 -42 -24 -34 -38 4 -5 1 -6
-4 -3 -13 8 -36 -17 -26 -27 4 -4 0 -4 -10 0 -15 6 -22 -4 -18 -28 0 -4 -6 -5
-14 -2 -8 4 -15 2 -15 -4 0 -5 -18 -22 -40 -37 -22 -15 -40 -32 -40 -37 0 -5
6 -6 13 -2 7 4 9 3 4 -2 -5 -5 -13 -10 -18 -10 -5 -1 -14 -2 -20 -3 -5 0 -7
-5 -4 -11 4 -6 -1 -7 -11 -3 -12 4 -15 3 -10 -6 5 -7 2 -10 -6 -9 -7 2 -12 -4
-10 -12 2 -8 0 -12 -3 -8 -10 10 -47 -11 -40 -23 4 -5 1 -9 -4 -9 -23 0 -8 19
51 66 154 121 337 328 448 509 57 92 141 269 178 376 119 339 137 756 48 1108
-72 282 -217 569 -390 770 -43 51 -233 237 -270 266 -21 17 -44 36 -52 43 -8
7 -14 10 -14 5 0 -4 -5 0 -11 10 -6 9 -14 15 -19 12 -5 -3 -14 3 -19 14 -6 11
-20 23 -31 26 -11 4 -32 17 -47 31 -14 13 -29 21 -33 19 -5 -3 -16 2 -24 11
-9 8 -16 12 -16 7 0 -4 -5 0 -11 10 -6 9 -14 15 -20 12 -5 -4 -9 0 -9 7 0 9
-3 9 -10 -2 -8 -13 -10 -12 -10 3 0 16 -10 21 -39 18 -7 -2 -10 2 -6 8 5 10
-8 15 -19 9 -2 -2 -13 5 -23 15 -11 9 -23 14 -27 10 -4 -4 -11 -2 -15 5 -4 7
-19 14 -32 15 -13 1 -30 7 -37 14 -8 7 -18 11 -23 8 -5 -4 -9 -1 -9 4 0 6 -8
11 -18 11 -10 0 -23 5 -30 12 -9 9 -12 9 -12 -2 0 -13 -2 -13 -11 0 -9 13 -10
13 -6 0 2 -8 12 -15 23 -16 11 -1 30 -6 42 -13 12 -6 22 -9 22 -6 0 4 7 -1 16
-9 8 -9 23 -16 32 -16 10 0 28 -7 40 -16 16 -11 22 -12 22 -3 0 9 4 8 13 -2
21 -26 67 -51 67 -37 0 7 7 2 16 -10 8 -12 19 -22 25 -22 5 0 26 -11 47 -23
20 -13 43 -22 51 -19 8 2 11 1 8 -4 -3 -5 34 -37 83 -72 113 -80 135 -98 244
-208 123 -122 168 -177 253 -306 215 -329 321 -682 321 -1073 -1 -231 -41
-450 -123 -670 -208 -555 -669 -988 -1240 -1164 -164 -50 -284 -70 -480 -77
-60 -2 -118 -6 -127 -8 -10 -2 -18 0 -18 5 0 4 -7 6 -16 2 -9 -3 -20 0 -25 8
-7 11 -9 11 -9 1 0 -11 -13 -12 -57 -8 -123 12 -272 40 -266 49 3 6 1 7 -4 4
-16 -10 -74 4 -66 16 3 6 1 7 -6 3 -15 -10 -73 3 -66 15 4 5 0 6 -8 3 -16 -6
-150 44 -267 99 -278 132 -597 409 -724 630 -26 44 -46 60 -46 36 0 -5 5 -7
12 -3 6 4 8 3 5 -3 -4 -6 12 -37 36 -69 106 -146 118 -164 114 -164 -5 0 -105
130 -142 185 -53 77 -65 102 -51 102 8 0 12 -6 9 -13 -5 -15 13 -28 22 -15 7
13 -33 54 -45 46 -6 -3 -7 1 -4 9 3 9 11 13 16 10 6 -4 5 3 -1 15 -13 24 -19
27 -17 9 0 -7 -3 -14 -9 -15 -5 -1 -9 5 -7 14 2 8 -1 12 -7 8 -7 -4 -8 0 -4
11 4 12 3 15 -5 10 -8 -5 -10 -1 -5 10 4 12 3 15 -5 10 -8 -5 -10 -1 -5 10 4
12 3 15 -5 10 -8 -4 -10 -2 -6 7 3 8 -2 17 -10 20 -9 4 -13 13 -10 22 3 8 1
15 -6 15 -6 0 -9 4 -5 9 3 5 1 12 -5 16 -6 4 -8 11 -5 16 4 5 1 9 -4 9 -6 0
-11 8 -11 18 0 10 -4 22 -9 28 -9 10 -87 251 -95 294 -3 14 -7 35 -10 47 -2
11 -8 43 -12 70 -3 26 -8 57 -11 68 -15 79 -21 332 -9 444 15 146 70 351 95
352 11 0 12 2 4 6 -7 2 -13 9 -13 14 0 6 5 7 12 3 8 -5 9 -2 5 9 -3 10 -3 17
1 17 5 0 14 23 21 50 11 45 104 237 120 250 3 3 12 17 20 32 8 15 21 36 30 46
9 10 17 24 19 32 2 8 8 20 14 25 8 7 8 6 3 -4 -5 -9 -4 -12 3 -7 6 4 9 13 6
21 -4 8 1 18 10 21 9 3 16 13 16 20 0 8 7 17 15 20 8 4 15 10 15 14 0 9 10 22
108 135 267 309 635 539 1015 635 124 31 157 37 267 46 41 4 76 7 77 8 2 1 36
2 77 3 53 0 73 -3 69 -11z m-1912 -1289 c-10 -9 -11 -8 -5 6 3 10 9 15 12 12
3 -3 0 -11 -7 -18z m2957 -2262 c-3 -3 -9 2 -12 12 -6 14 -5 15 5 6 7 -7 10
-15 7 -18z m29 10 c0 -8 -4 -12 -9 -9 -5 3 -6 10 -3 15 9 13 12 11 12 -6z
m-117 -59 c0 -3 -4 -8 -10 -11 -5 -3 -10 -1 -10 4 0 6 5 11 10 11 6 0 10 -2
10 -4z m-33 -22 c-3 -3 -12 -4 -19 -1 -8 3 -5 6 6 6 11 1 17 -2 13 -5z m-27
-24 c0 -5 -4 -10 -10 -10 -5 0 -10 5 -10 10 0 6 5 10 10 10 6 0 10 -4 10 -10z
m-95 -52 c-9 -6 -19 -7 -22 -4 -4 3 -1 6 6 6 7 0 9 4 6 10 -4 6 1 7 11 3 15
-6 15 -7 -1 -15z m-65 -17 c0 -6 -4 -12 -8 -15 -5 -3 -9 1 -9 9 0 8 4 15 9 15
4 0 8 -4 8 -9z m-67 -32 c-8 -8 -13 -7 -18 2 -5 8 -4 10 3 5 7 -4 12 -2 12 5
0 7 3 9 7 6 4 -4 2 -12 -4 -18z"/>
<path d="M2710 4300 c0 -5 5 -10 11 -10 5 0 7 5 4 10 -3 6 -8 10 -11 10 -2 0
-4 -4 -4 -10z"/>
<path d="M2923 4246 c-3 -6 -3 -8 2 -4 4 4 13 3 20 -2 8 -7 12 -5 12 3 0 16
-25 18 -34 3z"/>
<path d="M2287 4234 c-1 -1 -38 -5 -82 -8 -44 -3 -89 -8 -100 -10 -11 -3 -30
-5 -43 -5 -13 -1 -21 -4 -19 -8 3 -5 -11 -9 -31 -9 -51 -2 -80 -10 -215 -55
-805 -268 -1315 -1060 -1234 -1914 32 -333 175 -687 385 -950 173 -217 388
-390 637 -510 108 -53 287 -119 354 -130 19 -3 37 -7 40 -9 8 -5 69 -16 176
-30 108 -15 335 -18 425 -5 36 5 83 12 105 15 204 28 495 141 692 269 385 250
662 636 777 1080 8 33 18 78 21 100 3 22 8 45 10 52 2 6 7 38 10 70 11 109 15
125 31 119 19 -7 16 22 -18 177 -20 92 -37 125 -39 75 -1 -30 -5 -55 -25 -156
-16 -74 -16 -84 -2 -95 16 -12 14 -60 -7 -182 -49 -293 -187 -599 -373 -825
-166 -202 -354 -351 -588 -469 -177 -88 -317 -134 -509 -167 -101 -18 -384
-26 -460 -14 -27 4 -73 10 -102 14 -28 3 -103 19 -165 35 -725 187 -1259 815
-1325 1561 -12 129 -5 373 11 421 3 8 7 30 10 49 47 325 242 698 498 951 214
211 489 372 768 450 25 7 47 13 50 14 3 1 24 5 48 10 23 4 42 10 42 14 0 3 19
7 43 8 23 1 74 6 112 11 39 5 121 9 183 8 61 0 112 3 112 7 0 5 6 5 13 0 14
-9 26 -11 94 -17 29 -2 58 -8 64 -12 8 -5 10 -2 7 8 -4 8 -1 15 7 15 8 0 11
-7 7 -16 -3 -9 -2 -13 2 -9 5 4 19 3 32 -2 44 -17 78 -20 86 -7 5 9 8 8 8 -4
0 -9 6 -16 13 -17 30 -4 54 -10 77 -19 30 -13 53 -6 46 14 -3 8 -1 11 5 8 5
-4 7 -15 4 -26 -5 -14 -2 -19 12 -19 11 0 24 -5 31 -12 7 -7 12 -9 12 -5 0 4
14 1 30 -8 17 -9 30 -13 30 -9 0 4 7 1 15 -6 13 -11 14 -10 9 4 -4 10 -13 15
-21 12 -9 -4 -11 -2 -7 6 5 8 2 9 -10 5 -11 -5 -15 -3 -10 5 5 7 2 9 -7 6 -8
-3 -23 -2 -33 2 -17 6 -18 7 -3 13 9 3 17 2 17 -4 0 -6 4 -7 10 -4 5 3 22 -1
38 -9 16 -8 33 -12 37 -8 5 4 6 3 3 -3 -3 -5 -2 -20 3 -32 6 -17 14 -21 34
-17 20 3 25 1 19 -8 -5 -9 -2 -8 10 1 16 13 17 13 14 -5 -2 -14 3 -19 22 -20
15 0 24 -5 22 -13 -1 -7 2 -10 8 -6 5 3 10 1 10 -5 0 -6 4 -9 9 -6 5 4 11 3
14 -1 2 -5 2 -2 0 6 -2 8 2 11 12 7 8 -3 15 -1 15 5 0 7 -10 9 -27 4 -23 -5
-25 -4 -14 8 19 24 -3 29 -54 12 -18 -6 -18 -5 -2 5 9 6 15 16 12 21 -4 5 -11
7 -16 4 -5 -4 -9 0 -9 7 0 9 -3 9 -10 -2 -8 -13 -10 -13 -10 2 0 9 -5 20 -12
24 -8 5 -9 2 -5 -9 3 -9 1 -19 -5 -23 -7 -4 -8 -3 -4 4 8 14 -28 52 -49 52 -8
0 -23 4 -33 9 -16 9 -52 22 -62 23 -3 0 -13 4 -23 10 -22 12 -56 20 -80 20
-11 -1 -15 4 -11 11 4 7 4 9 0 5 -4 -3 -22 0 -40 7 -26 11 -36 11 -46 2 -10
-9 -11 -9 -6 0 10 18 -37 21 -52 3 -10 -13 -11 -13 -6 2 4 13 -2 18 -30 23
-19 4 -40 4 -47 -1 -7 -4 -10 -3 -5 4 4 6 -1 11 -11 10 -10 0 -42 3 -72 7 -50
6 -279 14 -284 9z m278 -23 c3 -5 2 -12 -3 -15 -5 -3 -9 1 -9 9 0 17 3 19 12
6z m218 -45 c6 -15 -17 -16 -30 -1 -4 4 -2 5 5 1 6 -4 12 -2 12 3 0 15 7 14
13 -3z m77 -11 c12 -14 9 -18 -7 -12 -5 1 -7 6 -5 11 2 5 -4 6 -13 2 -9 -3
-13 -2 -10 4 9 14 21 12 35 -5z m50 -25 c0 -5 -2 -10 -4 -10 -3 0 -8 5 -11 10
-3 6 -1 10 4 10 6 0 11 -4 11 -10z m75 -20 c3 -5 1 -10 -4 -10 -6 0 -11 5 -11
10 0 6 2 10 4 10 3 0 8 -4 11 -10z m148 -55 c4 -8 1 -17 -6 -21 -7 -4 -9 -4
-5 1 4 4 3 14 -3 22 -7 8 -8 13 -1 13 5 0 12 -7 15 -15z m127 -51 c0 -8 -19
-13 -24 -6 -3 5 1 9 9 9 8 0 15 -2 15 -3z"/>
<path d="M3310 3965 c0 -9 -4 -13 -10 -10 -5 3 -10 2 -10 -4 0 -6 11 -13 25
-17 15 -4 22 -11 18 -18 -3 -6 -2 -8 2 -3 5 4 17 0 27 -10 10 -9 18 -14 19
-12 9 49 9 54 -2 36 -8 -14 -14 -16 -25 -6 -20 17 -17 34 4 18 15 -13 16 -12
3 4 -10 12 -17 15 -25 7 -15 -15 -30 -12 -17 4 8 10 9 16 1 21 -5 3 -10 -1
-10 -10z"/>
<path d="M3420 3896 c0 -2 7 -7 16 -10 8 -3 12 -2 9 4 -6 10 -25 14 -25 6z"/>
<path d="M3390 3879 c0 -5 5 -7 10 -4 6 3 10 8 10 11 0 2 -4 4 -10 4 -5 0 -10
-5 -10 -11z"/>
<path d="M3455 3871 c-3 -6 5 -15 17 -21 21 -10 21 -10 6 3 -10 8 -15 17 -11
20 3 4 4 7 0 7 -3 0 -8 -4 -12 -9z"/>
<path d="M3442 3844 c10 -10 20 -16 22 -13 3 3 -5 11 -17 18 -21 13 -21 12 -5
-5z"/>
<path d="M3507 3839 c7 -7 15 -10 18 -7 3 3 -2 9 -12 12 -14 6 -15 5 -6 -5z"/>
<path d="M3493 3815 c0 -8 4 -12 9 -9 5 3 6 10 3 15 -9 13 -12 11 -12 -6z"/>
<path d="M3540 3780 c-9 -6 -10 -10 -3 -10 6 0 15 5 18 10 8 12 4 12 -15 0z"/>
<path d="M3616 3702 c-3 -5 1 -9 9 -9 8 0 12 4 9 9 -3 4 -7 8 -9 8 -2 0 -6 -4
-9 -8z"/>
<path d="M611 3084 c0 -11 3 -14 6 -6 3 7 2 16 -1 19 -3 4 -6 -2 -5 -13z"/>
<path d="M525 2899 c-4 -17 -4 -33 -1 -36 3 -4 6 4 6 16 0 12 4 20 9 17 5 -4
7 3 4 14 -7 27 -10 25 -18 -11z"/>
<path d="M511 2834 c0 -11 3 -14 6 -6 3 7 2 16 -1 19 -3 4 -6 -2 -5 -13z"/>
<path d="M503 2795 c-3 -9 -3 -18 -1 -21 3 -3 8 4 11 16 6 23 -1 27 -10 5z"/>
<path d="M492 2700 c0 -14 2 -19 5 -12 2 6 2 18 0 25 -3 6 -5 1 -5 -13z"/>
<path d="M490 2660 c0 -5 5 -10 11 -10 5 0 7 5 4 10 -3 6 -8 10 -11 10 -2 0
-4 -4 -4 -10z"/>
<path d="M481 2624 c0 -11 3 -14 6 -6 3 7 2 16 -1 19 -3 4 -6 -2 -5 -13z"/>
<path d="M481 2584 c0 -11 3 -14 6 -6 3 7 2 16 -1 19 -3 4 -6 -2 -5 -13z"/>
<path d="M475 2511 c-3 -5 -2 -12 3 -15 5 -3 9 1 9 9 0 17 -3 19 -12 6z"/>
<path d="M501 2084 c0 -11 3 -14 6 -6 3 7 2 16 -1 19 -3 4 -6 -2 -5 -13z"/>
<path d="M511 2014 c0 -11 3 -14 6 -6 3 7 2 16 -1 19 -3 4 -6 -2 -5 -13z"/>
<path d="M522 1970 c0 -14 2 -19 5 -12 2 6 2 18 0 25 -3 6 -5 1 -5 -13z"/>
<path d="M530 1926 c0 -8 4 -17 9 -20 5 -4 7 3 4 14 -6 23 -13 26 -13 6z"/>
<path d="M571 1774 c0 -11 3 -14 6 -6 3 7 2 16 -1 19 -3 4 -6 -2 -5 -13z"/>
<path d="M597 1689 c4 -13 8 -18 11 -10 2 7 -1 18 -6 23 -8 8 -9 4 -5 -13z"/>
<path d="M626 1617 c3 -10 9 -15 12 -12 3 3 0 11 -7 18 -10 9 -11 8 -5 -6z"/>
<path d="M650 1565 c0 -5 5 -17 10 -25 5 -8 10 -10 10 -5 0 6 -5 17 -10 25 -5
8 -10 11 -10 5z"/>
<path d="M670 1511 c0 -6 4 -13 10 -16 6 -3 7 1 4 9 -7 18 -14 21 -14 7z"/>
<path d="M3610 4446 c0 -2 7 -7 16 -10 8 -3 12 -2 9 4 -6 10 -25 14 -25 6z"/>
<path d="M3651 4426 c2 -2 15 -9 29 -15 24 -11 24 -11 6 3 -16 13 -49 24 -35
12z"/>
<path d="M1675 4400 c-3 -6 1 -7 9 -4 18 7 21 14 7 14 -6 0 -13 -4 -16 -10z"/>
<path d="M1626 4375 c-11 -8 -16 -15 -10 -15 5 0 18 7 28 15 11 8 16 15 10 15
-5 0 -18 -7 -28 -15z"/>
<path d="M1563 4339 c-35 -22 -46 -37 -15 -20 22 13 58 40 52 41 -3 0 -20 -10
-37 -21z"/>
<path d="M1489 4289 l-24 -20 28 17 c15 9 27 18 27 20 0 8 -8 4 -31 -17z"/>
<path d="M1412 4240 c-23 -17 -42 -33 -42 -36 0 -4 56 34 85 58 23 20 -6 5
-43 -22z"/>
<path d="M1339 4183 c-13 -16 -12 -17 4 -4 9 7 17 15 17 17 0 8 -8 3 -21 -13z"/>
<path d="M1294 4148 l-19 -23 23 19 c21 18 27 26 19 26 -2 0 -12 -10 -23 -22z"/>
<path d="M1232 4100 c-18 -17 -29 -30 -24 -30 5 0 21 14 37 30 37 38 30 38
-13 0z"/>
<path d="M1130 4003 l-55 -58 58 55 c53 50 62 60 54 60 -1 0 -27 -26 -57 -57z"/>
<path d="M1024 3888 c-74 -82 -87 -98 -82 -98 3 0 31 29 63 65 58 66 73 92 19
33z"/>
<path d="M4150 3626 c0 -9 9 -21 20 -28 11 -7 20 -18 20 -25 0 -6 8 -18 18
-25 9 -7 22 -22 29 -33 6 -11 16 -19 23 -17 6 1 9 -2 6 -7 -3 -5 18 -44 47
-87 29 -44 56 -87 60 -97 4 -10 11 -15 17 -12 6 3 7 -1 4 -9 -3 -9 -1 -16 5
-16 6 0 10 -3 9 -7 -4 -14 13 -53 23 -53 5 0 8 -6 7 -12 -2 -7 3 -12 10 -10 8
1 11 -2 7 -8 -4 -6 2 -30 13 -53 11 -23 28 -63 38 -89 11 -27 23 -48 27 -48 5
0 6 -4 3 -8 -3 -5 7 -42 21 -83 28 -80 59 -200 69 -265 5 -36 9 -41 27 -36 12
3 16 7 9 10 -6 2 -12 12 -12 22 0 10 -6 21 -12 23 -10 4 -10 6 -1 6 7 1 10 8
6 17 -3 9 0 20 8 25 11 7 11 9 -3 9 -9 0 -18 -3 -21 -7 -2 -5 -2 -2 0 5 1 8 3
20 3 28 0 9 5 12 10 9 6 -3 10 -1 10 5 0 7 -8 9 -21 5 -16 -5 -20 -3 -17 6 3
8 14 13 24 11 15 -2 16 -1 4 7 -8 5 -17 8 -21 5 -4 -2 -13 21 -20 51 -7 30
-15 55 -18 55 -4 0 -8 12 -9 26 -1 15 -6 32 -11 38 -4 6 -11 24 -15 40 -11 44
-58 146 -68 146 -5 0 -7 4 -4 8 7 11 -94 207 -115 222 -3 3 -14 20 -23 39 -19
36 -94 140 -120 166 -9 9 -16 21 -16 27 0 5 -6 8 -14 5 -8 -3 -13 1 -12 10 0
9 -5 18 -11 20 -7 3 -13 -2 -13 -11z"/>
<path d="M4480 3280 c-12 -7 -10 -9 8 -7 12 0 22 5 22 9 0 11 -12 10 -30 -2z"/>
<path d="M4485 3260 c-4 -6 1 -10 9 -10 9 0 16 -5 16 -11 0 -5 -4 -7 -10 -4
-5 3 -10 2 -10 -4 0 -5 5 -13 10 -16 6 -3 10 -13 10 -22 0 -9 10 -28 23 -41
17 -20 18 -24 4 -19 -16 6 -16 5 -2 -17 8 -12 13 -25 10 -28 -3 -3 1 -11 9
-17 8 -7 13 -18 10 -26 -3 -7 -1 -16 5 -19 6 -4 9 -12 7 -19 -1 -7 -1 -8 2 -4
2 4 11 0 19 -10 11 -13 11 -11 -1 10 -11 18 -13 27 -5 27 8 0 7 6 -3 18 -9 9
-13 23 -11 30 3 6 0 12 -5 12 -6 0 -9 8 -7 18 1 9 -2 23 -8 30 -5 7 -10 20
-11 30 -5 55 -46 117 -61 92z m55 -82 c0 -5 -4 -8 -8 -8 -5 0 -9 6 -9 13 0 6
-4 21 -7 32 -5 13 -2 12 8 -5 8 -14 15 -28 16 -32z"/>
<path d="M4583 2964 c0 -7 4 -11 9 -8 5 3 7 -6 4 -19 -3 -16 2 -31 14 -42 17
-16 18 -16 15 2 -2 10 -4 19 -5 21 -3 3 -7 20 -9 36 -1 18 -28 28 -28 10z"/>
<path d="M4619 2869 c-6 -28 -3 -46 6 -46 12 0 13 32 2 43 -4 4 -7 5 -8 3z"/>
<path d="M4628 2803 c7 -3 16 -2 19 1 4 3 -2 6 -13 5 -11 0 -14 -3 -6 -6z"/>
<path d="M4635 2580 c-3 -5 -2 -10 3 -10 5 0 9 -8 9 -17 0 -90 4 -124 15 -117
7 5 8 3 3 -6 -8 -12 -8 -137 0 -199 2 -17 0 -33 -6 -36 -5 -4 -7 -11 -3 -16 8
-14 11 -89 3 -89 -3 0 -6 -7 -6 -15 0 -8 5 -15 12 -15 9 0 14 53 16 180 1 73
-9 272 -14 276 -4 4 -2 15 3 25 7 12 7 20 0 24 -6 4 -8 11 -5 16 4 5 -1 9 -9
9 -8 0 -18 -4 -21 -10z"/>
<path d="M4490 2261 c0 -7 -5 -9 -12 -5 -7 5 -8 3 -3 -5 5 -9 10 -10 18 -2 6
6 8 14 4 18 -4 3 -7 1 -7 -6z"/>
<path d="M390 2250 c0 -5 5 -10 10 -10 6 0 10 5 10 10 0 6 -4 10 -10 10 -5 0
-10 -4 -10 -10z"/>
<path d="M392 2185 c0 -25 4 -47 9 -51 6 -3 8 15 7 45 -4 63 -16 68 -16 6z"/>
<path d="M394 2104 c3 -9 6 -31 6 -50 0 -19 4 -34 9 -34 5 0 8 8 6 18 -2 9 -4
32 -4 50 -1 17 -6 32 -12 32 -6 0 -8 -7 -5 -16z"/>
<path d="M4455 2060 c3 -5 8 -10 11 -10 2 0 4 5 4 10 0 6 -5 10 -11 10 -5 0
-7 -4 -4 -10z"/>
<path d="M1350 663 c0 -4 16 -18 35 -31 45 -29 45 -22 0 12 -19 15 -35 23 -35
19z"/>
<path d="M1464 581 c3 -5 22 -18 42 -30 19 -12 33 -17 30 -12 -3 5 -22 18 -42
30 -19 12 -33 17 -30 12z"/>
<path d="M1570 516 c0 -3 14 -12 30 -21 17 -9 30 -13 30 -11 0 3 -13 12 -30
21 -16 9 -30 13 -30 11z"/>
<path d="M1320 482 c0 -9 71 -55 76 -49 2 2 -14 15 -36 30 -22 14 -40 23 -40
19z"/>
<path d="M1667 459 c7 -7 15 -10 18 -7 3 3 -2 9 -12 12 -14 6 -15 5 -6 -5z"/>
<path d="M1410 423 c0 -4 10 -13 23 -19 12 -6 39 -21 60 -33 20 -13 37 -19 37
-14 0 5 -12 14 -27 20 -16 6 -43 21 -60 33 -18 12 -33 18 -33 13z"/>
<path d="M1740 420 c8 -5 20 -10 25 -10 6 0 3 5 -5 10 -8 5 -19 10 -25 10 -5
0 -3 -5 5 -10z"/>
<path d="M2025 411 c-3 -6 -3 -11 2 -12 4 0 20 -2 36 -4 15 -2 27 1 27 6 0 5
-6 9 -14 9 -8 0 -21 3 -29 6 -8 3 -18 1 -22 -5z"/>
<path d="M1790 400 c8 -5 20 -10 25 -10 6 0 3 5 -5 10 -8 5 -19 10 -25 10 -5
0 -3 -5 5 -10z"/>
<path d="M2100 401 c0 -5 5 -13 10 -16 6 -3 10 -2 10 4 0 5 -4 13 -10 16 -5 3
-10 2 -10 -4z"/>
<path d="M2130 388 c0 -4 9 -8 20 -8 11 0 20 4 20 9 0 6 -9 9 -20 8 -11 -1
-20 -5 -20 -9z"/>
<path d="M1837 379 c7 -7 15 -10 18 -7 3 3 -2 9 -12 12 -14 6 -15 5 -6 -5z"/>
<path d="M2185 380 c3 -6 18 -10 33 -10 62 0 128 -6 140 -13 6 -5 12 -4 12 1
0 5 14 8 30 7 17 -1 28 0 25 3 -3 4 -43 7 -88 9 -45 1 -99 4 -120 8 -25 3 -36
2 -32 -5z"/>
<path d="M2680 380 c-9 -6 -10 -10 -3 -10 6 0 15 5 18 10 8 12 4 12 -15 0z"/>
<path d="M2526 371 c-5 -8 40 -9 47 -1 3 3 -6 6 -19 6 -13 1 -26 -1 -28 -5z"/>
<path d="M2590 369 c0 -5 5 -7 10 -4 6 3 10 8 10 11 0 2 -4 4 -10 4 -5 0 -10
-5 -10 -11z"/>
<path d="M2440 365 c0 -7 30 -13 34 -7 3 4 -4 9 -15 9 -10 1 -19 0 -19 -2z"/>
<path d="M2495 360 c3 -5 8 -10 11 -10 2 0 4 5 4 10 0 6 -5 10 -11 10 -5 0 -7
-4 -4 -10z"/>
<path d="M1900 356 c0 -2 7 -7 16 -10 8 -3 12 -2 9 4 -6 10 -25 14 -25 6z"/>
<path d="M1542 345 c4 -5 27 -17 50 -27 24 -11 39 -15 33 -9 -5 5 -28 17 -50
27 -22 9 -37 13 -33 9z"/>
<path d="M1948 333 c7 -3 16 -2 19 1 4 3 -2 6 -13 5 -11 0 -14 -3 -6 -6z"/>
<path d="M1980 326 c0 -2 7 -7 16 -10 8 -3 12 -2 9 4 -6 10 -25 14 -25 6z"/>
<path d="M1660 285 c14 -8 30 -14 35 -14 6 0 -1 6 -15 14 -14 8 -29 14 -35 14
-5 0 1 -6 15 -14z"/>
<path d="M2078 293 c7 -3 16 -2 19 1 4 3 -2 6 -13 5 -11 0 -14 -3 -6 -6z"/>
<path d="M2020 266 c0 -8 4 -17 9 -20 5 -4 7 3 4 14 -6 23 -13 26 -13 6z"/>
<path d="M1749 249 c24 -11 46 -18 48 -15 4 4 -73 36 -85 35 -4 0 13 -9 37
-20z"/>
<path d="M2060 250 c-8 -5 -7 -9 4 -13 8 -3 18 -2 21 3 4 6 11 10 16 10 6 0 8
-4 5 -9 -4 -5 2 -8 11 -6 10 1 23 -2 29 -6 6 -5 22 -7 35 -5 13 3 27 5 30 5 4
1 10 8 13 17 5 14 4 15 -9 4 -8 -7 -15 -9 -15 -5 0 4 -7 2 -15 -5 -17 -14 -50
-6 -40 10 3 5 1 10 -4 10 -6 0 -11 -5 -11 -11 0 -8 -4 -8 -12 -2 -15 12 -42
13 -58 3z"/>
<path d="M2260 256 c0 -2 7 -9 15 -16 9 -7 15 -8 15 -2 0 5 -7 12 -15 16 -8 3
-15 4 -15 2z"/>
<path d="M2318 232 c17 -19 32 -19 32 -1 0 6 -4 8 -9 4 -5 -3 -12 -1 -16 5 -3
5 -10 10 -16 10 -5 0 -1 -8 9 -18z"/>
<path d="M2246 226 c10 -8 21 -12 24 -10 5 6 -21 24 -34 24 -6 0 -1 -6 10 -14z"/>
<path d="M2364 233 c7 -8 19 -10 91 -17 75 -8 174 -10 180 -4 6 5 11 5 -125
12 -58 3 -116 8 -129 11 -13 2 -21 1 -17 -2z"/>
<path d="M1810 226 c0 -2 7 -6 15 -10 8 -3 15 -1 15 4 0 6 -7 10 -15 10 -8 0
-15 -2 -15 -4z"/>
<path d="M2953 223 c9 -2 23 -2 30 0 6 3 -1 5 -18 5 -16 0 -22 -2 -12 -5z"/>
<path d="M2655 210 c3 -5 8 -10 11 -10 2 0 4 5 4 10 0 6 -5 10 -11 10 -5 0 -7
-4 -4 -10z"/>
<path d="M2798 213 c6 -2 18 -2 25 0 6 3 1 5 -13 5 -14 0 -19 -2 -12 -5z"/>
<path d="M2858 213 c6 -2 18 -2 25 0 6 3 1 5 -13 5 -14 0 -19 -2 -12 -5z"/>
<path d="M4540 3651 c5 -11 15 -23 21 -27 6 -3 3 5 -6 20 -20 30 -30 35 -15 7z"/>
<path d="M4580 3590 c6 -11 13 -20 16 -20 2 0 0 9 -6 20 -6 11 -13 20 -16 20
-2 0 0 -9 6 -20z"/>
<path d="M4620 3520 c6 -11 13 -20 16 -20 2 0 0 9 -6 20 -6 11 -13 20 -16 20
-2 0 0 -9 6 -20z"/>
<path d="M4646 3477 c3 -10 9 -15 12 -12 3 3 0 11 -7 18 -10 9 -11 8 -5 -6z"/>
<path d="M4684 3399 c13 -27 27 -53 31 -57 8 -8 -10 39 -30 78 -25 49 -26 34
-1 -21z"/>
<path d="M4720 3325 c0 -5 5 -17 10 -25 5 -8 10 -10 10 -5 0 6 -5 17 -10 25
-5 8 -10 11 -10 5z"/>
<path d="M4750 3255 c0 -5 5 -17 10 -25 5 -8 10 -10 10 -5 0 6 -5 17 -10 25
-5 8 -10 11 -10 5z"/>
<path d="M4778 3175 c5 -11 12 -27 15 -35 5 -13 6 -13 6 1 1 8 -6 24 -15 35
-15 19 -15 19 -6 -1z"/>
<path d="M4821 3044 c0 -11 3 -14 6 -6 3 7 2 16 -1 19 -3 4 -6 -2 -5 -13z"/>
<path d="M4851 2934 c0 -11 3 -14 6 -6 3 7 2 16 -1 19 -3 4 -6 -2 -5 -13z"/>
<path d="M4862 2890 c0 -14 2 -19 5 -12 2 6 2 18 0 25 -3 6 -5 1 -5 -13z"/>
<path d="M4891 2714 c0 -11 3 -14 6 -6 3 7 2 16 -1 19 -3 4 -6 -2 -5 -13z"/>
<path d="M4901 2634 c0 -11 3 -14 6 -6 3 7 2 16 -1 19 -3 4 -6 -2 -5 -13z"/>
<path d="M4902 2590 c0 -14 2 -19 5 -12 2 6 2 18 0 25 -3 6 -5 1 -5 -13z"/>
<path d="M4912 2440 c0 -14 2 -19 5 -12 2 6 2 18 0 25 -3 6 -5 1 -5 -13z"/>
<path d="M4901 2234 c0 -11 3 -14 6 -6 3 7 2 16 -1 19 -3 4 -6 -2 -5 -13z"/>
<path d="M4891 2154 c0 -11 3 -14 6 -6 3 7 2 16 -1 19 -3 4 -6 -2 -5 -13z"/>
<path d="M4871 2014 c0 -11 3 -14 6 -6 3 7 2 16 -1 19 -3 4 -6 -2 -5 -13z"/>
<path d="M4831 1834 c0 -11 3 -14 6 -6 3 7 2 16 -1 19 -3 4 -6 -2 -5 -13z"/>
<path d="M4776 1675 c-9 -26 -7 -32 5 -12 6 10 9 21 6 23 -2 3 -7 -2 -11 -11z"/>
<path d="M4756 1623 c-6 -14 -5 -15 5 -6 7 7 10 15 7 18 -3 3 -9 -2 -12 -12z"/>
<path d="M4745 1589 c-4 -6 -5 -12 -2 -15 2 -3 7 2 10 11 7 17 1 20 -8 4z"/>
<path d="M4726 1543 c-6 -14 -5 -15 5 -6 7 7 10 15 7 18 -3 3 -9 -2 -12 -12z"/>
<path d="M4701 1493 c-10 -26 -10 -27 4 -9 8 11 15 23 15 28 0 15 -7 8 -19
-19z"/>
<path d="M4655 1399 c-9 -17 -15 -33 -13 -35 3 -2 12 12 21 31 21 43 13 47 -8
4z"/>
<path d="M4622 1338 c-14 -18 -43 -78 -38 -78 2 0 16 20 29 45 25 45 29 57 9
33z"/>
<path d="M4559 1233 c-13 -16 -12 -17 4 -4 9 7 17 15 17 17 0 8 -8 3 -21 -13z"/>
<path d="M4530 1188 c-29 -44 -32 -53 -6 -23 22 26 32 45 23 45 -1 0 -9 -10
-17 -22z"/>
<path d="M4474 1108 l-19 -23 23 19 c21 18 27 26 19 26 -2 0 -12 -10 -23 -22z"/>
</g>
</svg>
