<?xml version="1.0" encoding="UTF-8"?>
<svg width="45px" height="45px" viewBox="0 0 45 45" version="1.1" xmlns="http://www.w3.org/2000/svg" xmlns:xlink="http://www.w3.org/1999/xlink">
    <title>E98906E1-5316-465E-B2EE-F8BC53BD1473</title>
    <g id="onboarding-proccess" stroke="none" stroke-width="1" fill="none" fill-rule="evenodd">
        <g id="onboard/overview" transform="translate(-803.000000, -216.000000)" fill="#43A6A9" fill-rule="nonzero">
            <path d="M826.421818,213.855924 C827.274102,214.295431 826.702448,215.400417 826.43429,216.223455 C825.82314,218.089285 827.22738,220.001712 829.043478,220.001712 C830.859576,220.001712 831.982848,218.277942 831.741714,216.845399 C831.644013,216.260772 831.325966,215.713462 831.211635,215.128835 C831.113934,214.685182 831.034941,214.121287 831.508895,213.855924 C832.036896,213.565684 832.415227,214.01141 832.677148,214.378357 C835.864554,218.852203 838.491672,223.200992 841.64166,227.698334 C842.159267,228.438446 842.057409,229.373434 842.057409,230.244155 C842.057409,238.547099 842.015834,246.850044 842.086511,255.150915 C842.107299,257.317351 841.402605,258.919892 839.529657,260 L818.563455,260 C816.680114,258.924038 815.981656,257.317351 816.000365,255.155061 C816.071042,246.852117 816.050255,238.549173 816.000365,230.246228 C815.988171,228.769767 816.469438,227.331314 817.368178,226.157987 C820.006103,222.517545 821.915103,218.906104 824.550949,215.271882 C825.026981,214.614695 825.469754,213.368735 826.421818,213.855924 Z M828.769786,230.541207 C828.03213,230.541207 827.433452,231.121688 827.433452,231.836923 L827.433452,231.836923 L827.433452,233.293307 C825.134956,233.801227 823.424447,235.560809 823.424447,237.667642 C823.424447,240.168372 825.821832,242.202646 828.769786,242.202646 C830.218373,242.202646 831.442456,243.091506 831.442456,244.146219 C831.442456,245.200931 830.218373,246.089792 828.769786,246.089792 C828.04282,246.089792 827.363962,245.872112 826.858828,245.473031 C826.286876,245.022122 825.447658,245.099865 824.979941,245.659614 C824.512224,246.214181 824.597749,247.030481 825.172373,247.483982 C825.816486,247.991902 826.596906,248.333971 827.433452,248.517963 L827.433452,248.517963 L827.433452,249.976938 C827.433452,250.692173 828.03213,251.272653 828.769786,251.272653 C829.507443,251.272653 830.106121,250.692173 830.106121,249.976938 L830.106121,249.976938 L830.106121,248.520554 C832.404617,248.012633 834.115126,246.253052 834.115126,244.146219 C834.115126,241.645488 831.717741,239.611215 828.769786,239.611215 C827.321199,239.611215 826.097117,238.722354 826.097117,237.667642 C826.097117,236.612929 827.321199,235.724069 828.769786,235.724069 C829.496753,235.724069 830.175611,235.941749 830.680745,236.338238 C831.250024,236.789147 832.091915,236.708812 832.559632,236.151655 C833.027349,235.597089 832.941824,234.780788 832.3672,234.329879 C831.723086,233.821958 830.942667,233.47989 830.106121,233.295898 L830.106121,233.295898 L830.106121,231.836923 C830.106121,231.121688 829.507443,230.541207 828.769786,230.541207 Z M829.01412,210.000055 C829.772053,209.993989 830.400698,210.491804 830.438783,211.128281 C830.532481,212.187658 830.46344,213.2574 830.46344,214.32507 L830.46344,214.32507 L830.497961,214.32507 C830.497961,215.390666 830.564536,216.462482 830.475769,217.523932 C830.409194,218.249533 829.901249,218.805135 828.929744,218.753307 C828.164459,218.730781 827.564826,218.192333 827.588376,217.54881 C827.532486,215.414853 827.541527,213.282278 827.615499,211.151085 C827.639033,210.514111 828.256187,210.006233 829.01412,210.000055 Z" id="pricing" transform="translate(829.043478, 235.000000) rotate(-315.000000) translate(-829.043478, -235.000000) "></path>
        </g>
    </g>
</svg>