<?xml version="1.0" encoding="UTF-8"?>
<svg width="68px" height="36px" viewBox="0 0 68 36" version="1.1" xmlns="http://www.w3.org/2000/svg" xmlns:xlink="http://www.w3.org/1999/xlink">
    <title>86AFFD66-CB89-4331-A7F1-20D11507C358</title>
    <g id="onboarding-proccess" stroke="none" stroke-width="1" fill="none" fill-rule="evenodd">
        <g id="onboard/overview" transform="translate(-383.000000, -222.000000)" fill="#43A6A9" fill-rule="nonzero">
            <g id="team" transform="translate(383.000000, 222.000000)">
                <path d="M15.5833333,36 L15.5833333,33.8822201 C15.5833333,30.3694809 16.5795333,27.0845997 18.3040417,24.2918577 C17.5870667,23.8005655 16.815975,23.3886142 16.0053583,23.0656037 C17.269025,21.903867 18.0625,20.2413794 18.0625,18.3970573 C18.0625,14.8940592 15.202675,12.044141 11.6875,12.044141 C8.17246667,12.044141 5.3125,14.8940592 5.3125,18.3970573 C5.3125,20.2403912 6.10498333,21.9020318 7.367375,23.0636272 C3.05589167,24.7794793 0,28.9805922 0,33.8823612 L0,36 L11.6875,36 L15.5833333,36 L15.5833333,36 Z" id="3"></path>
                <path d="M52.4166667,33.8822201 L52.4166667,35.9998588 L56.3125,35.9998588 L68,35.9998588 L68,33.8822201 C68,28.9805922 64.94425,24.7793381 60.632625,23.063486 C61.8950167,21.9018906 62.6875,20.24025 62.6875,18.3969161 C62.6875,14.8939181 59.827675,12.0439998 56.3125,12.0439998 C52.7971833,12.0439998 49.9375,14.8940592 49.9375,18.3969161 C49.9375,20.2412383 50.7308333,21.903867 51.9946417,23.0654625 C51.1828917,23.3890377 50.4119417,23.8012714 49.6959583,24.2917165 C51.4204667,27.0844585 52.4166667,30.3694809 52.4166667,33.8822201 L52.4166667,33.8822201 Z" id="2"></path>
                <path d="M48.165675,33.8822201 L48.1666667,33.8822201 C48.1666667,27.8422908 44.3600833,22.6892287 39.0074917,20.6730954 C42.5494417,18.855879 44.9791667,15.177117 44.9791667,10.9411336 C44.9791667,4.90840428 40.0538417,0 34,0 C27.9461583,0 23.0208333,4.90840428 23.0208333,10.9411336 C23.0208333,15.177117 25.4505583,18.855879 28.9925083,20.6730954 C23.6399167,22.6892287 19.8333333,27.8422908 19.8333333,33.8822201 L19.8333333,35.9998588 L48.165675,35.9998588 L48.165675,33.8822201 Z" id="1"></path>
            </g>
        </g>
    </g>
</svg>