<svg width="220" height="50" viewBox="0 0 220 50" fill="none" xmlns="http://www.w3.org/2000/svg">
<path d="M30.2279 2C33.9619 2.1368 37.4173 3.14252 40.5942 5.01717C40.8778 5.18451 41.1879 5.38904 41.5246 5.63076C42.2179 6.12781 42.953 6.62686 43.5486 7.18766C43.8999 7.51902 44.2479 7.8484 44.5925 8.17578C44.6106 8.19303 44.6234 8.21509 44.6292 8.23931C44.635 8.26352 44.6337 8.28886 44.6254 8.31225C44.1154 9.74396 43.4377 11.0236 42.5924 12.1512C38.7056 17.3349 32.1404 19.8849 25.7823 18.3798C23.1041 17.7462 20.7593 16.4948 18.7479 14.6255C18.7278 14.6069 18.7157 14.5814 18.7138 14.554C18.712 14.5266 18.7206 14.4995 18.7379 14.4781C20.0169 12.8823 21.6405 11.6551 23.5371 10.7427C26.8661 9.14199 30.8813 8.94975 34.3607 10.3363C34.3651 10.3381 34.3687 10.3412 34.3712 10.3452C34.3737 10.3493 34.3747 10.354 34.3743 10.3587C34.3738 10.3634 34.3719 10.3679 34.3687 10.3714C34.3655 10.3749 34.3613 10.3772 34.3567 10.3781C31.3717 10.8769 28.8323 12.2159 26.7386 14.3954C26.7316 14.4025 26.7267 14.4113 26.7241 14.4209C26.7216 14.4305 26.7216 14.4406 26.7241 14.4502C26.7266 14.4598 26.7315 14.4686 26.7384 14.4758C26.7453 14.4829 26.7539 14.4882 26.7635 14.491C27.2761 14.6491 27.7778 14.75 28.2686 14.7938C31.5577 15.0857 34.4981 14.1772 37.0362 12.1442C37.3987 11.8544 37.7882 11.6073 38.098 11.2557C38.8504 10.4037 39.2319 9.97141 39.2425 9.95879C39.4344 9.72637 39.5868 9.51055 39.6997 9.31133C39.7069 9.29888 39.7093 9.28428 39.7065 9.2702C39.7038 9.25612 39.6961 9.24349 39.6848 9.23463C38.959 8.66885 38.1608 8.19072 37.2902 7.80025C36.7413 7.55322 35.8478 7.13984 35.1028 6.89182C32.5687 6.04779 30.0014 5.77852 27.401 6.08398C24.8559 6.38281 22.292 7.26934 20.1275 8.72363C19.3877 9.22035 18.8628 9.58392 18.5527 9.81435C18.1602 10.1045 17.5825 10.6464 16.8195 11.44C15.7935 12.5065 14.9365 13.6848 14.2485 14.9751C14.2401 14.9915 14.2268 15.0048 14.2104 15.0134C14.194 15.0219 14.1753 15.0253 14.1569 15.0229C12.7896 14.8436 11.3785 14.8181 9.9235 14.9462C9.91579 14.947 9.90802 14.9457 9.90094 14.9426C9.89386 14.9395 9.88771 14.9346 9.88309 14.9283C9.87848 14.9221 9.87555 14.9148 9.87461 14.9071C9.87366 14.8994 9.87472 14.8916 9.87768 14.8845C10.2662 13.9189 10.7499 12.9909 11.329 12.1004C11.8582 11.2876 12.357 10.5744 12.8251 9.96078C13.5164 9.05434 14.4238 8.20068 15.3034 7.39086C18.964 4.01908 23.7752 2.20021 28.7606 2H30.2279Z" fill="#F79800"/>
<path d="M39.0691 33.8541C39.0661 33.8567 39.0624 33.8582 39.0585 33.8585C39.0546 33.8587 39.0507 33.8577 39.0474 33.8556C39.0442 33.8534 39.0417 33.8503 39.0404 33.8466C39.0391 33.8429 39.039 33.8389 39.0402 33.8352C39.9665 31.08 39.9944 28.0608 39.0023 25.3086C38.9983 25.2971 38.9914 25.2868 38.9822 25.2788C38.9731 25.2707 38.962 25.2652 38.9501 25.2627C38.9382 25.2602 38.9258 25.2608 38.9142 25.2645C38.9026 25.2682 38.8921 25.2748 38.8838 25.2837C36.9122 27.3357 35.8211 29.7917 35.6106 32.6518C35.5336 33.6871 35.5857 34.635 35.767 35.4957C35.9662 36.4439 36.2033 37.287 36.4782 38.0247C36.6363 38.4504 36.8458 38.8532 37.1068 39.233C37.1179 39.249 37.1344 39.2604 37.1532 39.2651C37.1721 39.2699 37.192 39.2677 37.2094 39.2589C43.2786 36.2557 47.1962 29.9843 47.0607 23.2417C47.0381 22.1181 46.8612 20.8185 46.5298 19.343C46.235 18.0301 45.7379 16.784 45.1821 15.6953C44.7491 14.8473 44.5214 14.4004 44.4988 14.3546C44.4913 14.3399 44.4881 14.3235 44.4895 14.3071C44.4909 14.2907 44.4969 14.2751 44.5067 14.2619C45.3601 13.1031 46.1095 11.8876 46.7549 10.6152C46.7561 10.6125 46.7581 10.6103 46.7605 10.6086C46.7629 10.6069 46.7658 10.606 46.7688 10.6058C46.7718 10.6056 46.7749 10.6061 46.7777 10.6074C46.7805 10.6088 46.7829 10.6108 46.7848 10.6132C47.5551 11.6897 48.1989 12.7525 48.7162 13.8017C48.7886 13.9478 49.0257 14.4731 49.4274 15.3776C49.6466 15.8716 49.8441 16.4118 50.0201 16.9982C50.3538 18.1118 50.6586 19.2165 50.7801 20.3391C50.8306 20.8073 50.8741 21.1652 50.9106 21.4129C51.0571 22.4179 51.0371 23.4818 51.0252 24.4878C51.0139 25.4593 50.8778 26.4614 50.6168 27.494C50.4508 28.1508 50.209 28.9859 49.8916 29.9992C48.2481 35.2426 44.5227 39.9054 39.6179 42.4952C39.2739 42.6765 38.7779 42.896 38.1298 43.1536C37.0254 43.5926 36.2252 43.906 35.7292 44.0939C35.7017 44.1044 35.6716 44.1062 35.6429 44.0988C35.6142 44.0915 35.5883 44.0756 35.5688 44.0531C35.1006 43.5125 34.657 42.9119 34.238 42.2512C33.9561 41.8059 33.6374 41.3706 33.4611 40.8935C33.402 40.7334 33.3163 40.5425 33.2041 40.3207C32.0918 38.13 31.5658 35.7732 31.6263 33.2505C31.7252 29.1373 33.1523 25.5819 35.9075 22.5843C36.4248 22.0205 37.0789 21.4195 37.8698 20.7814C39.2972 19.6279 40.9029 18.824 42.6241 18.2513C42.6363 18.2473 42.6495 18.2481 42.6611 18.2534C42.6726 18.2588 42.6815 18.2684 42.6859 18.2802C42.998 19.0996 43.2454 19.9417 43.428 20.8063C43.4844 21.0719 43.5229 21.4796 43.5435 22.0295C43.5448 22.0659 43.5499 22.1019 43.5585 22.137C43.6355 22.4571 43.679 22.7337 43.6889 22.9668C43.8752 27.1026 42.138 31.1118 39.0691 33.8541Z" fill="#0074FF"/>
<path d="M113.892 13.0417H110.141C110.115 13.0417 110.094 13.0626 110.094 13.0885V32.7574C110.094 32.7832 110.115 32.8042 110.141 32.8042H113.892C113.918 32.8042 113.939 32.7832 113.939 32.7574V13.0885C113.939 13.0626 113.918 13.0417 113.892 13.0417Z" fill="#000E3F"/>
<path d="M196.124 13.0367H192.389C192.359 13.0367 192.334 13.0613 192.334 13.0915V16.5699C192.334 16.6001 192.359 16.6247 192.389 16.6247H196.124C196.154 16.6247 196.179 16.6001 196.179 16.5699V13.0915C196.179 13.0613 196.154 13.0367 196.124 13.0367Z" fill="#000E3F"/>
<path d="M65.4408 32.8002H61.6397C61.6331 32.8 61.6267 32.7977 61.6215 32.7935C61.6163 32.7894 61.6126 32.7837 61.6108 32.7773L56.0985 13.3027C56.0972 13.2981 56.0971 13.2933 56.098 13.2886C56.0989 13.284 56.1009 13.2796 56.1038 13.2759C56.1067 13.2721 56.1104 13.2691 56.1147 13.267C56.1189 13.2649 56.1236 13.2638 56.1283 13.2638H60.4404C60.4472 13.2638 60.4539 13.266 60.4593 13.2702C60.4647 13.2743 60.4686 13.2801 60.4703 13.2867L63.6269 25.7369C63.6283 25.744 63.6322 25.7504 63.6378 25.7549C63.6435 25.7595 63.6505 25.7619 63.6577 25.7618C63.665 25.7617 63.6719 25.759 63.6774 25.7543C63.6829 25.7495 63.6865 25.743 63.6877 25.7359L66.3493 13.2877C66.3506 13.2808 66.3543 13.2745 66.3598 13.27C66.3652 13.2654 66.3721 13.2629 66.3791 13.2628H70.6205C70.6274 13.2629 70.6342 13.2652 70.6396 13.2696C70.645 13.2739 70.6488 13.28 70.6504 13.2867L73.6048 25.704C73.6065 25.7106 73.6104 25.7165 73.6158 25.7207C73.6212 25.7249 73.6279 25.7271 73.6347 25.7271C73.6415 25.7271 73.6482 25.7249 73.6536 25.7207C73.659 25.7165 73.6628 25.7106 73.6646 25.704L76.7823 13.2857C76.7841 13.2791 76.788 13.2733 76.7934 13.2692C76.7988 13.265 76.8054 13.2628 76.8122 13.2628H80.948C80.9528 13.2628 80.9574 13.2639 80.9617 13.266C80.9659 13.2681 80.9696 13.2711 80.9725 13.2749C80.9754 13.2786 80.9774 13.283 80.9783 13.2876C80.9793 13.2923 80.9791 13.2971 80.9779 13.3017L75.5213 32.7773C75.5195 32.7839 75.5156 32.7897 75.5102 32.7938C75.5048 32.798 75.4982 32.8002 75.4914 32.8002H71.5738C71.5668 32.8002 71.5601 32.7978 71.5547 32.7934C71.5493 32.7891 71.5455 32.7831 71.5439 32.7763L68.5686 20.2743C68.5668 20.2677 68.563 20.2618 68.5576 20.2577C68.5521 20.2535 68.5455 20.2512 68.5387 20.2512C68.5318 20.2512 68.5252 20.2535 68.5198 20.2577C68.5144 20.2618 68.5105 20.2677 68.5088 20.2743L65.4707 32.7763C65.4691 32.7831 65.4653 32.7891 65.4599 32.7934C65.4545 32.7978 65.4478 32.8002 65.4408 32.8002Z" fill="#000E3F"/>
<path d="M94.2559 32.7514V13.2987C94.2559 13.29 94.2593 13.2816 94.2655 13.2754C94.2717 13.2693 94.28 13.2658 94.2887 13.2658C97.6157 13.2612 100.536 13.2618 103.049 13.2678C103.83 13.2688 104.785 13.4451 105.518 13.7708C108.168 14.9462 109.431 17.6287 109.099 20.4566C108.773 23.2347 106.901 25.1552 104.149 25.6333C103.774 25.6984 103.227 25.7299 102.509 25.7279C101.478 25.7246 100.116 25.7233 98.4235 25.724C98.4087 25.724 98.3945 25.7299 98.3841 25.7406C98.3736 25.7512 98.3677 25.7657 98.3677 25.7807V32.7424C98.3677 32.7578 98.3616 32.7724 98.3508 32.7833C98.34 32.7941 98.3253 32.8002 98.31 32.8002H94.3047C94.2917 32.8002 94.2793 32.7951 94.2702 32.7859C94.261 32.7768 94.2559 32.7643 94.2559 32.7514ZM98.3657 16.7382V22.3223C98.3657 22.3376 98.3718 22.3523 98.3827 22.3631C98.3935 22.374 98.4082 22.3801 98.4235 22.3801H102.741C103.48 22.3801 104.189 22.1035 104.711 21.6113C105.234 21.1191 105.528 20.4515 105.528 19.7554V19.3051C105.528 18.609 105.234 17.9414 104.711 17.4492C104.189 16.9569 103.48 16.6804 102.741 16.6804H98.4235C98.4082 16.6804 98.3935 16.6865 98.3827 16.6973C98.3718 16.7082 98.3657 16.7229 98.3657 16.7382Z" fill="#000E3F"/>
<path d="M150.94 13.2628H155.64C155.647 13.2628 155.653 13.265 155.659 13.2689C155.665 13.2728 155.669 13.2783 155.671 13.2847L162.532 32.7564C162.534 32.7614 162.534 32.7668 162.534 32.7721C162.533 32.7773 162.531 32.7824 162.528 32.7867C162.525 32.791 162.52 32.7945 162.516 32.7968C162.511 32.7992 162.506 32.8003 162.5 32.8002H158.104C158.098 32.8001 158.091 32.7978 158.085 32.7937C158.08 32.7896 158.076 32.7839 158.074 32.7773L156.857 28.8059C156.855 28.7993 156.851 28.7935 156.846 28.7894C156.84 28.7853 156.833 28.783 156.826 28.783H149.72C149.714 28.783 149.707 28.7851 149.701 28.789C149.696 28.7929 149.692 28.7985 149.689 28.8049L148.271 32.7783C148.269 32.7847 148.265 32.7902 148.259 32.7941C148.254 32.7981 148.247 32.8002 148.24 32.8002H143.99C143.985 32.8002 143.979 32.7989 143.975 32.7965C143.97 32.7941 143.966 32.7906 143.963 32.7863C143.96 32.782 143.958 32.777 143.957 32.7718C143.957 32.7666 143.957 32.7613 143.959 32.7564L150.909 13.2847C150.911 13.2783 150.915 13.2728 150.921 13.2689C150.926 13.265 150.933 13.2628 150.94 13.2628ZM150.754 25.3524C150.753 25.3569 150.753 25.3617 150.753 25.3664C150.754 25.371 150.756 25.3754 150.759 25.3792C150.762 25.383 150.765 25.3861 150.77 25.3882C150.774 25.3903 150.778 25.3913 150.783 25.3913L155.624 25.4082C155.629 25.4082 155.634 25.4072 155.638 25.4051C155.642 25.403 155.646 25.3999 155.649 25.3961C155.651 25.3923 155.653 25.3879 155.654 25.3833C155.655 25.3786 155.654 25.3738 155.653 25.3693L153.258 17.7512C153.256 17.7452 153.253 17.74 153.248 17.7363C153.242 17.7327 153.236 17.7307 153.23 17.7307C153.224 17.7307 153.218 17.7327 153.213 17.7363C153.207 17.74 153.204 17.7452 153.202 17.7512L150.754 25.3524Z" fill="#000E3F"/>
<path d="M92.8432 28.53C92.8496 28.53 92.8558 28.5315 92.8615 28.5344C92.8672 28.5373 92.8721 28.5415 92.8759 28.5466C92.8797 28.5517 92.8822 28.5577 92.8833 28.564C92.8843 28.5702 92.8839 28.5767 92.882 28.5828C92.1343 30.9302 90.6226 32.3981 88.3468 32.9865C87.0957 33.3102 85.498 33.2485 84.2828 32.9706C81.8198 32.4068 80.2748 30.8887 79.6479 28.4164C79.3006 27.0471 79.202 25.6131 79.3521 24.1143C79.4769 22.8751 79.8634 21.7462 80.5116 20.7276C82.0944 18.2413 85.2928 17.566 88.0111 18.1058C92.1031 18.9187 93.147 22.9249 93.0793 26.5169C93.079 26.5344 93.072 26.5511 93.0597 26.5634C93.0474 26.5757 93.0308 26.5826 93.0135 26.5826H83.2239C83.2131 26.5826 83.2024 26.5848 83.1925 26.589C83.1825 26.5933 83.1736 26.5995 83.1661 26.6073C83.1587 26.6152 83.1529 26.6244 83.1491 26.6346C83.1454 26.6447 83.1437 26.6555 83.1442 26.6663C83.2498 28.5678 84.3296 30.1247 86.3666 30.1387C87.4244 30.1456 88.5719 29.6645 88.9116 28.5997C88.918 28.5794 88.9306 28.5617 88.9476 28.5492C88.9647 28.5366 88.9852 28.5299 89.0062 28.53H92.8432ZM83.3285 24.1462H89.0979C89.1074 24.1462 89.1165 24.1424 89.1232 24.1357C89.13 24.1289 89.1337 24.1198 89.1337 24.1103V24.0575C89.1337 23.243 88.826 22.4619 88.2783 21.886C87.7306 21.3101 86.9878 20.9865 86.2132 20.9865C85.4386 20.9865 84.6958 21.3101 84.1481 21.886C83.6004 22.4619 83.2927 23.243 83.2927 24.0575V24.1103C83.2927 24.1198 83.2964 24.1289 83.3032 24.1357C83.3099 24.1424 83.319 24.1462 83.3285 24.1462Z" fill="#000E3F"/>
<path d="M124.358 31.6188C124.357 31.6139 124.354 31.6094 124.351 31.6056C124.348 31.6019 124.343 31.5991 124.339 31.5975C124.334 31.596 124.329 31.5958 124.324 31.5969C124.319 31.598 124.315 31.6004 124.312 31.6039C123.019 32.8918 121.235 33.2953 119.406 33.1847C117.719 33.0831 116.168 32.5083 115.471 30.8598C115.264 30.3664 115.16 29.8066 115.162 29.1804C115.163 27.9164 115.415 26.731 116.336 25.8186C117.227 24.936 118.55 24.5645 119.796 24.3543C120.745 24.1943 121.669 24.0425 122.571 23.8991C122.81 23.8613 123.109 23.7709 123.467 23.6282C124.02 23.4097 124.278 22.9704 124.24 22.3103C124.151 20.7803 121.691 20.7863 120.694 21.0483C119.832 21.2764 119.34 22.1689 119.227 22.9927C119.224 23.0097 119.216 23.0254 119.203 23.0367C119.19 23.0481 119.173 23.0543 119.156 23.0544L115.691 23.0554C115.682 23.0554 115.674 23.0538 115.667 23.0505C115.659 23.0473 115.652 23.0425 115.647 23.0366C115.641 23.0306 115.636 23.0236 115.634 23.0158C115.631 23.0081 115.629 22.9999 115.63 22.9917C115.68 21.9986 115.882 20.9566 116.411 20.1478C117.335 18.7324 119.002 18.1646 120.622 18.0072C122.48 17.8269 124.641 17.9196 126.212 18.9415C127.737 19.9347 128.17 21.8103 128.176 23.5136C128.184 26.1573 128.187 29.2305 128.184 32.7335C128.184 32.7506 128.177 32.7671 128.165 32.7792C128.152 32.7914 128.136 32.7982 128.119 32.7982L124.611 32.7992C124.599 32.7992 124.587 32.7951 124.578 32.7877C124.569 32.7802 124.563 32.7699 124.561 32.7584L124.358 31.6188ZM124.297 25.7997C123.934 26.0447 123.527 26.2183 123.077 26.3206C122.747 26.3957 122.135 26.5301 121.242 26.724C119.954 27.0029 118.87 27.5797 119.022 29.0539C119.098 29.7883 119.476 30.221 120.156 30.3518C121.934 30.6955 123.703 29.78 124.216 27.9911C124.283 27.76 124.315 27.3994 124.314 26.9093C124.314 26.6822 124.321 26.3196 124.336 25.8216C124.336 25.8169 124.335 25.8123 124.333 25.8083C124.33 25.8042 124.327 25.8009 124.323 25.7986C124.319 25.7963 124.314 25.7952 124.31 25.7954C124.305 25.7956 124.301 25.7971 124.297 25.7997Z" fill="#000E3F"/>
<path d="M172.422 19.9964C172.426 20.0016 172.431 20.0055 172.437 20.0075C172.443 20.0095 172.45 20.0096 172.456 20.0078C172.462 20.0059 172.468 20.0022 172.471 19.9971C172.475 19.9921 172.478 19.9859 172.478 19.9795V18.3967C172.478 18.3803 172.484 18.3646 172.496 18.353C172.508 18.3415 172.523 18.3349 172.54 18.3349H176.243C176.262 18.3349 176.281 18.3426 176.295 18.3562C176.308 18.3699 176.316 18.3884 176.316 18.4077C176.319 18.9522 176.319 23.8839 176.317 33.2026C176.316 33.6456 176.26 34.1293 176.148 34.654C175.275 38.722 171.055 40.1793 167.374 39.5049C164.415 38.9621 162.037 36.8135 162.117 33.6399C162.117 33.624 162.123 33.6088 162.135 33.5976C162.146 33.5864 162.161 33.5802 162.177 33.5802H165.633C165.64 33.5802 165.648 33.5817 165.655 33.5847C165.662 33.5876 165.669 33.592 165.674 33.5974C165.679 33.6029 165.684 33.6094 165.686 33.6165C165.689 33.6236 165.691 33.6313 165.691 33.6389C165.682 36.1929 168.491 36.7916 170.436 36.0634C171.069 35.8264 171.58 35.4498 171.97 34.9339C172.368 34.4079 172.479 33.7545 172.482 32.9974C172.485 32.1335 172.483 31.4628 172.475 30.9853C172.476 30.9806 172.474 30.9759 172.472 30.972C172.469 30.9682 172.465 30.9655 172.46 30.9645C172.456 30.9635 172.451 30.9642 172.447 30.9666C172.443 30.969 172.439 30.9728 172.438 30.9774C171.379 33.2843 167.532 33.2843 165.606 32.345C162.741 30.9495 161.959 27.749 162.123 24.8096C162.325 21.1987 164.704 17.8668 168.617 17.9465C170.259 17.9803 171.528 18.6637 172.422 19.9964ZM169.263 21.2864C167.315 21.3242 166.361 22.647 166.167 24.4709C165.998 26.0527 166.069 27.5677 167.022 28.769C167.61 29.5081 168.48 29.9305 169.429 29.9115C170.378 29.8936 171.231 29.4384 171.789 28.6774C172.695 27.4402 172.708 25.9232 172.478 24.3484C172.214 22.5345 171.209 21.2495 169.263 21.2864Z" fill="#000E3F"/>
<path d="M186.749 31.6049C185.456 32.8918 183.672 33.2953 181.843 33.1837C180.156 33.0811 178.605 32.5064 177.91 30.8578C177.702 30.3644 177.599 29.8046 177.6 29.1784C177.602 27.9144 177.854 26.729 178.775 25.8166C179.667 24.9341 180.991 24.5635 182.237 24.3533C183.185 24.194 184.11 24.0426 185.011 23.8991C185.251 23.8613 185.549 23.7713 185.907 23.6292C186.46 23.4107 186.718 22.9714 186.68 22.3113C186.593 20.7813 184.132 20.7863 183.135 21.0483C182.274 21.2754 181.781 22.1679 181.667 22.9917C181.665 23.0088 181.656 23.0244 181.643 23.0357C181.63 23.0471 181.613 23.0534 181.596 23.0534H178.131C178.123 23.0534 178.114 23.0518 178.107 23.0485C178.099 23.0453 178.092 23.0406 178.087 23.0346C178.081 23.0286 178.077 23.0216 178.074 23.0139C178.071 23.0061 178.07 22.9979 178.07 22.9897C178.121 21.9966 178.323 20.9547 178.852 20.1458C179.777 18.7314 181.444 18.1636 183.064 18.0072C184.922 17.8269 187.084 17.9206 188.655 18.9435C190.179 19.9367 190.611 21.8123 190.616 23.5156C190.624 26.1593 190.625 29.2325 190.621 32.7355C190.621 32.7526 190.614 32.7691 190.602 32.7812C190.59 32.7934 190.573 32.8002 190.556 32.8002H187.048C187.036 32.8002 187.025 32.7961 187.016 32.7887C187.007 32.7812 187 32.7709 186.998 32.7594L186.795 31.6198C186.794 31.6149 186.791 31.6104 186.788 31.6066C186.785 31.6029 186.781 31.6001 186.776 31.5985C186.771 31.597 186.766 31.5968 186.761 31.5979C186.757 31.599 186.752 31.6014 186.749 31.6049ZM186.737 25.7967C186.374 26.0424 185.967 26.2164 185.517 26.3186C185.187 26.3937 184.575 26.5285 183.681 26.723C182.393 27.0029 181.309 27.5797 181.462 29.0549C181.538 29.7893 181.916 30.222 182.596 30.3528C184.375 30.6955 186.144 29.7791 186.657 27.9891C186.724 27.758 186.756 27.3974 186.755 26.9073C186.755 26.6802 186.762 26.3173 186.776 25.8186C186.776 25.814 186.775 25.8094 186.773 25.8053C186.771 25.8012 186.767 25.7979 186.763 25.7956C186.759 25.7933 186.755 25.7922 186.75 25.7924C186.745 25.7926 186.741 25.7941 186.737 25.7967Z" fill="#000E3F"/>
<path d="M201.662 20.3132C202.387 19.0581 203.457 18.307 204.872 18.06C207.744 17.56 210.393 18.581 210.983 21.6788C211.049 22.0241 211.076 22.5199 211.064 23.166C211.062 23.2204 211.062 26.4209 211.063 32.7673C211.063 32.7761 211.059 32.7844 211.053 32.7906C211.047 32.7967 211.039 32.8002 211.031 32.8002H207.264C207.25 32.8002 207.236 32.7942 207.225 32.7836C207.215 32.7729 207.209 32.7585 207.209 32.7434C207.209 32.2739 207.209 29.4059 207.209 24.1392C207.209 23.6053 207.158 23.1039 207.057 22.6351C206.902 21.9119 206.466 21.4703 205.748 21.3103C204.845 21.1084 204.017 21.1675 203.266 21.4876C202.155 21.9617 201.789 23.2527 201.789 24.4151C201.789 28.2208 201.789 30.996 201.789 32.7404C201.789 32.7563 201.783 32.7715 201.771 32.7827C201.76 32.7939 201.745 32.8002 201.729 32.8002H198.004C197.988 32.8002 197.974 32.794 197.963 32.783C197.952 32.772 197.946 32.757 197.946 32.7414V18.3937C197.946 18.3779 197.952 18.3627 197.963 18.3514C197.974 18.3402 197.989 18.3339 198.005 18.3339H201.548C201.565 18.3339 201.582 18.3407 201.594 18.3526C201.606 18.3646 201.613 18.3808 201.613 18.3977V20.3002C201.613 20.306 201.615 20.3115 201.619 20.316C201.622 20.3205 201.627 20.3237 201.633 20.3252C201.638 20.3266 201.644 20.3262 201.65 20.3241C201.655 20.3219 201.659 20.3181 201.662 20.3132Z" fill="#000E3F"/>
<path d="M15.9936 27.2171C16.4458 27.6089 16.737 27.8589 16.8671 27.9671C18.7046 29.4945 20.7708 30.5029 23.0658 30.9923C23.0877 30.9969 23.1013 30.9979 23.1067 30.9953C23.1233 30.9874 23.1366 30.9739 23.1441 30.957C23.1516 30.9402 23.1528 30.9213 23.1475 30.9036C21.8854 26.7639 18.7219 23.7865 14.5213 22.6191C14.101 22.5026 13.6169 22.4687 13.2224 22.3542C13.1802 22.3423 13.1361 22.3376 13.0919 22.3402C12.9272 22.3508 12.6686 22.3186 12.316 22.2436C12.2872 22.2374 12.2574 22.2371 12.2284 22.2426C12.1995 22.2482 12.1719 22.2595 12.1475 22.276C12.123 22.2925 12.1021 22.3137 12.0861 22.3384C12.07 22.3631 12.0591 22.3909 12.054 22.4199C12.0374 22.5129 12.0264 22.6623 12.0211 22.8681C11.9328 26.3704 12.7752 29.5908 14.5482 32.5292C17.3024 37.0963 22.001 40.1683 27.2893 40.8934C28.2654 41.0269 29.1041 41.0369 30.1411 41.0209C30.162 41.0207 30.1825 41.0267 30.2001 41.0383C30.2176 41.0498 30.2314 41.0663 30.2397 41.0857C30.7909 42.3939 31.4848 43.6324 32.3215 44.8011C32.3239 44.8041 32.3254 44.8077 32.3259 44.8115C32.3264 44.8152 32.3258 44.8191 32.3243 44.8226C32.3227 44.8261 32.3203 44.8291 32.3172 44.8312C32.314 44.8334 32.3104 44.8347 32.3066 44.835C30.9194 44.9784 29.5574 45.0276 28.2206 44.9824C27.2046 44.9485 26.4127 44.7892 25.2752 44.5571C23.9175 44.2802 22.8108 43.9614 21.6304 43.5062C20.9133 43.2293 20.3056 42.8428 19.6183 42.5041C19.2498 42.3228 18.9237 42.1482 18.6402 41.9802C12.3369 38.2518 8.46209 31.8858 8.06365 24.5625C8.00654 23.5106 8.03244 22.5149 8.14134 21.5752C8.26818 20.4822 8.42722 19.4983 8.61847 18.6238C8.62752 18.5822 8.64889 18.5442 8.67981 18.5149C8.71072 18.4856 8.74974 18.4663 8.79179 18.4594C10.0867 18.2512 11.553 18.1427 12.9266 18.315C14.1518 18.4684 14.7813 18.579 15.9039 18.8429C16.4518 18.9717 16.8768 19.0973 17.1789 19.2194C20.9402 20.7388 23.7757 23.239 25.6855 26.72C27.0011 29.118 27.6498 31.7848 27.6319 34.7207C27.6259 35.6102 27.4506 36.6162 27.3082 37.3922C27.3063 37.403 27.3006 37.4129 27.2922 37.4198C27.2837 37.4268 27.2732 37.4304 27.2624 37.43C26.9954 37.4287 26.7258 37.3882 26.4535 37.3085C25.6875 37.0864 24.9046 36.927 24.1735 36.5774C23.1704 36.0973 22.3297 35.6669 21.4173 35.0324C18.7245 33.1618 16.8953 30.5703 15.9298 27.2579C15.9277 27.2498 15.9282 27.2412 15.9313 27.2334C15.9344 27.2256 15.9398 27.2189 15.9469 27.2144C15.954 27.2099 15.9623 27.2077 15.9707 27.2082C15.979 27.2087 15.987 27.2118 15.9936 27.2171Z" fill="#7EE523"/>
<path d="M139.006 31.0441C139.005 31.0419 139.003 31.04 139.001 31.0388C138.998 31.0376 138.996 31.037 138.993 31.0371C138.99 31.0372 138.988 31.038 138.986 31.0394C138.983 31.0408 138.982 31.0427 138.98 31.0451C138.587 31.7344 138.019 32.2331 137.275 32.5412C136.028 33.0592 134.524 33.094 133.24 32.6777C131.572 32.1358 130.397 30.8528 129.966 29.1435C129.855 28.7033 129.803 28.0345 129.81 27.1374C129.818 26.1758 129.819 23.4326 129.815 18.9077C129.815 18.6872 129.823 18.5129 129.837 18.3847C129.839 18.3709 129.845 18.3582 129.856 18.349C129.866 18.3399 129.879 18.3348 129.893 18.3349H133.582C133.602 18.3349 133.62 18.3427 133.634 18.3565C133.648 18.3703 133.655 18.3891 133.655 18.4086C133.659 19.0634 133.661 22.0852 133.662 27.4741C133.663 27.8161 133.757 28.2195 133.946 28.6843C134.553 30.1815 136.946 30.0878 138.014 29.2461C138.674 28.7268 139.008 28.0199 139.015 27.1254C139.019 26.6261 139.021 23.7059 139.02 18.3648C139.02 18.3566 139.023 18.3488 139.029 18.343C139.035 18.3372 139.043 18.3339 139.051 18.3339H142.787C142.805 18.3339 142.822 18.3409 142.834 18.3532C142.846 18.3655 142.853 18.3822 142.853 18.3997C142.854 20.9756 142.854 25.9348 142.854 33.2773C142.853 35.6779 141.729 37.7468 139.656 38.8425C138.151 39.6384 136.411 39.8067 134.72 39.5617C132.635 39.2599 131.024 38.2379 130.272 36.2855C129.938 35.4143 129.788 34.5234 129.824 33.613C129.825 33.6041 129.829 33.5957 129.835 33.5896C129.842 33.5835 129.85 33.5801 129.859 33.5801H133.321C133.332 33.5801 133.343 33.5823 133.353 33.5864C133.362 33.5905 133.371 33.5965 133.379 33.6041C133.386 33.6117 133.392 33.6207 133.396 33.6306C133.4 33.6405 133.402 33.6511 133.402 33.6618C133.394 34.134 133.487 34.5696 133.682 34.9687C134.154 35.9339 135.057 36.2676 136.101 36.3423C137.91 36.4718 138.989 34.9249 139.013 33.2753C139.02 32.7514 139.021 32.0163 139.014 31.07C139.014 31.0659 139.014 31.0622 139.013 31.0593C139.013 31.0563 139.012 31.0542 139.011 31.053C139.01 31.0504 139.008 31.0474 139.006 31.0441Z" fill="#000E3F"/>
<path d="M196.136 18.335H192.377C192.353 18.335 192.334 18.3541 192.334 18.3778V32.7594C192.334 32.783 192.353 32.8022 192.377 32.8022H196.136C196.16 32.8022 196.179 32.783 196.179 32.7594V18.3778C196.179 18.3541 196.16 18.335 196.136 18.335Z" fill="#000E3F"/>
<path d="M190.133 40.514C190.141 40.514 190.149 40.5158 190.157 40.5193C190.164 40.5227 190.171 40.5277 190.176 40.534C190.181 40.5402 190.185 40.5475 190.188 40.5554C190.19 40.5633 190.191 40.5716 190.19 40.5797C190.036 41.6488 189.507 42.4719 188.603 43.049C187.451 43.7841 185.787 43.823 184.612 43.1407C183.523 42.5081 182.975 41.2023 182.906 39.9561C182.838 38.7459 182.907 37.6183 183.576 36.6033C184.34 35.4438 185.872 35.1271 187.157 35.2675C188.854 35.4528 190.07 36.5395 190.204 38.2668C190.204 38.2734 190.203 38.28 190.201 38.2863C190.199 38.2925 190.195 38.2983 190.191 38.3032C190.186 38.308 190.181 38.3119 190.174 38.3146C190.168 38.3172 190.161 38.3186 190.155 38.3186H188.138C188.12 38.3186 188.102 38.3123 188.089 38.3008C188.075 38.2893 188.066 38.2734 188.063 38.2558C187.919 37.4101 187.267 36.9489 186.427 37.0167C184.848 37.1462 184.86 39.219 185.082 40.3486C185.267 41.2909 185.987 42.0848 187.028 41.769C187.624 41.5884 187.966 41.186 188.052 40.5618C188.054 40.5486 188.06 40.5365 188.07 40.5277C188.081 40.5189 188.093 40.5141 188.107 40.514H190.133Z" fill="#7EE523"/>
<path d="M198.66 39.9224C198.66 40.4053 198.564 40.8834 198.378 41.3292C198.192 41.7751 197.921 42.18 197.579 42.5209C197.237 42.8618 196.831 43.132 196.384 43.316C195.938 43.5001 195.459 43.5944 194.976 43.5935L194.271 43.5923C193.788 43.5915 193.31 43.4955 192.864 43.3099C192.419 43.1243 192.014 42.8527 191.673 42.5106C191.332 42.1685 191.062 41.7626 190.878 41.3161C190.694 40.8696 190.599 40.3913 190.6 39.9083L190.602 38.9421C190.603 38.4591 190.699 37.9811 190.884 37.5352C191.07 37.0894 191.341 36.6844 191.683 36.3435C192.026 36.0026 192.431 35.7325 192.878 35.5484C193.324 35.3644 193.803 35.2701 194.286 35.2709L194.991 35.2722C195.474 35.273 195.952 35.369 196.398 35.5546C196.844 35.7402 197.249 36.0118 197.59 36.3538C197.93 36.6959 198.201 37.1018 198.385 37.5483C198.569 37.9948 198.663 38.4732 198.662 38.9562L198.66 39.9224ZM192.743 39.4382C192.741 40.7092 193.173 41.8418 194.651 41.8438C196.129 41.8458 196.564 40.7132 196.566 39.4432C196.567 38.1722 196.134 37.0396 194.657 37.0376C193.179 37.0356 192.744 38.1672 192.743 39.4382Z" fill="#7EE523"/>
<path d="M201.457 36.4479C201.457 36.4543 201.459 36.4605 201.463 36.4656C201.467 36.4707 201.472 36.4744 201.479 36.4761C201.485 36.4778 201.491 36.4774 201.497 36.475C201.503 36.4726 201.508 36.4683 201.511 36.4629C201.995 35.6182 202.705 35.2476 203.672 35.2397C204.435 35.2327 205.038 35.3542 205.534 35.916C205.735 36.1418 205.868 36.3058 205.933 36.4081C205.937 36.4146 205.942 36.4201 205.949 36.4243C205.955 36.4284 205.963 36.431 205.97 36.432C205.978 36.4329 205.986 36.4322 205.993 36.4298C206 36.4274 206.007 36.4233 206.013 36.418C206.013 36.4174 206.069 36.3261 206.181 36.1441C206.497 35.6261 207.11 35.3313 207.721 35.2636C209.081 35.1112 210.296 35.7377 210.732 37.0705C210.818 37.3321 210.86 37.8295 210.858 38.5626C210.852 41.6286 210.85 43.223 210.852 43.3459C210.852 43.353 210.85 43.3601 210.848 43.3668C210.845 43.3734 210.841 43.3794 210.836 43.3845C210.831 43.3896 210.825 43.3937 210.819 43.3965C210.812 43.3992 210.805 43.4007 210.798 43.4007H208.825C208.813 43.4007 208.801 43.3959 208.793 43.3875C208.784 43.3791 208.78 43.3677 208.78 43.3558C208.782 42.4932 208.782 40.8852 208.78 38.5317C208.779 37.8434 208.447 37.0854 207.687 36.9848C206.758 36.8603 206.227 37.7926 206.221 38.6324C206.213 39.7553 206.212 41.3271 206.218 43.3479C206.218 43.3619 206.212 43.3753 206.203 43.3852C206.193 43.3951 206.18 43.4007 206.166 43.4007H204.14C204.13 43.4007 204.121 43.3968 204.114 43.3899C204.107 43.3829 204.103 43.3736 204.103 43.3638C204.1 41.78 204.103 40.178 204.11 38.5576C204.112 38.0417 204.053 37.2707 203.393 37.1063C202.917 36.9878 202.321 37.0007 201.967 37.3603C201.658 37.6751 201.594 38.1154 201.595 38.6015C201.598 41.1322 201.596 42.7153 201.589 43.3508C201.589 43.3641 201.584 43.3767 201.574 43.3861C201.565 43.3954 201.552 43.4007 201.539 43.4007H199.525C199.51 43.4007 199.495 43.3945 199.484 43.3834C199.473 43.3724 199.467 43.3575 199.467 43.3419V35.4907C199.467 35.4793 199.472 35.4684 199.48 35.4604C199.487 35.4524 199.498 35.4478 199.509 35.4478H201.403C201.417 35.4478 201.431 35.4535 201.441 35.4636C201.452 35.4737 201.457 35.4874 201.457 35.5016V36.4479Z" fill="#7EE523"/>
<path d="M182.144 41.2181L180.012 41.2143C179.975 41.2143 179.946 41.2441 179.945 41.281L179.942 43.3309C179.942 43.3678 179.972 43.3977 180.008 43.3978L182.14 43.4015C182.177 43.4016 182.207 43.3717 182.207 43.3349L182.211 41.2849C182.211 41.2481 182.181 41.2181 182.144 41.2181Z" fill="#7EE523"/>
</svg>
