<svg width="355" height="51" viewBox="0 0 355 51" fill="none" xmlns="http://www.w3.org/2000/svg">
<g clip-path="url(#clip0_7596_32203)">
<path d="M35.1082 14C36.9743 14.0684 38.7012 14.571 40.2888 15.5078C40.4305 15.5915 40.5855 15.6937 40.7537 15.8145C41.1002 16.0629 41.4676 16.3123 41.7653 16.5925C41.9408 16.7581 42.1147 16.9227 42.287 17.0863C42.296 17.095 42.3024 17.106 42.3053 17.1181C42.3082 17.1302 42.3075 17.1429 42.3034 17.1545C42.0485 17.87 41.7099 18.5095 41.2874 19.0731C39.345 21.6636 36.064 22.938 32.8866 22.1858C31.5481 21.8692 30.3763 21.2438 29.3711 20.3096C29.3611 20.3003 29.355 20.2875 29.3541 20.2739C29.3532 20.2602 29.3575 20.2466 29.3661 20.2359C30.0053 19.4384 30.8167 18.8251 31.7645 18.3692C33.4282 17.5692 35.4348 17.4731 37.1736 18.1661C37.1758 18.1669 37.1776 18.1685 37.1789 18.1705C37.1801 18.1726 37.1806 18.1749 37.1804 18.1773C37.1802 18.1796 37.1792 18.1818 37.1776 18.1836C37.176 18.1853 37.1739 18.1865 37.1716 18.187C35.6799 18.4362 34.4108 19.1054 33.3644 20.1946C33.361 20.1981 33.3585 20.2025 33.3572 20.2073C33.356 20.2121 33.356 20.2172 33.3572 20.222C33.3585 20.2268 33.3609 20.2312 33.3644 20.2348C33.3678 20.2383 33.3721 20.241 33.3769 20.2424C33.6331 20.3214 33.8838 20.3718 34.1291 20.3937C35.7728 20.5396 37.2423 20.0856 38.5107 19.0696C38.6919 18.9247 38.8865 18.8013 39.0413 18.6255C39.4173 18.1997 39.608 17.9837 39.6133 17.9774C39.7092 17.8612 39.7854 17.7534 39.8418 17.6538C39.8453 17.6476 39.8466 17.6403 39.8452 17.6333C39.8438 17.6262 39.84 17.6199 39.8343 17.6155C39.4716 17.3328 39.0727 17.0938 38.6376 16.8987C38.3633 16.7752 37.9168 16.5686 37.5444 16.4447C36.2781 16.0229 34.9951 15.8883 33.6955 16.041C32.4236 16.1903 31.1423 16.6333 30.0606 17.3601C29.6909 17.6084 29.4285 17.7901 29.2735 17.9052C29.0774 18.0502 28.7887 18.321 28.4074 18.7176C27.8946 19.2506 27.4664 19.8395 27.1226 20.4843C27.1184 20.4925 27.1117 20.4992 27.1035 20.5034C27.0953 20.5077 27.086 20.5094 27.0768 20.5082C26.3935 20.4186 25.6882 20.4058 24.9611 20.4699C24.9573 20.4703 24.9534 20.4696 24.9499 20.4681C24.9463 20.4665 24.9432 20.464 24.9409 20.4609C24.9386 20.4578 24.9372 20.4542 24.9367 20.4503C24.9362 20.4465 24.9367 20.4426 24.9382 20.439C25.1324 19.9565 25.3741 19.4927 25.6635 19.0477C25.928 18.6415 26.1772 18.285 26.4112 17.9784C26.7567 17.5254 27.2102 17.0988 27.6497 16.6941C29.4791 15.009 31.8835 14.1001 34.375 14H35.1082Z" fill="#F79800"/>
<path d="M39.5266 29.9191C39.5251 29.9204 39.5232 29.9212 39.5213 29.9213C39.5193 29.9215 39.5174 29.921 39.5158 29.9199C39.5141 29.9188 39.5129 29.9172 39.5122 29.9154C39.5116 29.9136 39.5115 29.9116 39.5121 29.9097C39.9751 28.5328 39.989 27.024 39.4932 25.6485C39.4912 25.6428 39.4877 25.6377 39.4832 25.6336C39.4786 25.6296 39.4731 25.6268 39.4671 25.6256C39.4611 25.6243 39.455 25.6247 39.4492 25.6265C39.4434 25.6283 39.4381 25.6316 39.434 25.6361C38.4487 26.6616 37.9034 27.889 37.7982 29.3183C37.7597 29.8357 37.7858 30.3094 37.8764 30.7395C37.9759 31.2134 38.0944 31.6347 38.2318 32.0034C38.3108 32.2162 38.4155 32.4174 38.5459 32.6073C38.5515 32.6152 38.5597 32.6209 38.5691 32.6233C38.5785 32.6257 38.5885 32.6246 38.5972 32.6202C41.6303 31.1193 43.5881 27.9852 43.5204 24.6156C43.5091 24.0541 43.4207 23.4046 43.2551 22.6672C43.1077 22.0111 42.8593 21.3884 42.5815 20.8443C42.3652 20.4205 42.2513 20.1972 42.2401 20.1743C42.2363 20.167 42.2347 20.1587 42.2354 20.1505C42.2361 20.1424 42.2391 20.1345 42.244 20.128C42.6705 19.5489 43.045 18.9414 43.3676 18.3055C43.3682 18.3042 43.3691 18.3031 43.3704 18.3022C43.3716 18.3014 43.373 18.3009 43.3745 18.3008C43.376 18.3007 43.3775 18.301 43.3789 18.3016C43.3803 18.3023 43.3816 18.3033 43.3825 18.3045C43.7675 18.8425 44.0892 19.3736 44.3477 19.898C44.3839 19.971 44.5024 20.2335 44.7032 20.6855C44.8127 20.9324 44.9114 21.2024 44.9993 21.4954C45.1661 22.052 45.3184 22.604 45.3792 23.165C45.4044 23.399 45.4261 23.5779 45.4444 23.7017C45.5176 24.2039 45.5076 24.7356 45.5016 25.2384C45.496 25.7239 45.428 26.2247 45.2975 26.7407C45.2146 27.0689 45.0938 27.4862 44.9351 27.9927C44.1138 30.6131 42.252 32.9433 39.8009 34.2375C39.6289 34.3281 39.381 34.4378 39.0571 34.5666C38.5053 34.7859 38.1054 34.9426 37.8574 35.0365C37.8437 35.0418 37.8287 35.0426 37.8143 35.039C37.8 35.0353 37.7871 35.0273 37.7773 35.0161C37.5433 34.746 37.3217 34.4458 37.1122 34.1156C36.9714 33.8931 36.8121 33.6755 36.724 33.4371C36.6944 33.3571 36.6516 33.2617 36.5955 33.1508C36.0397 32.056 35.7768 30.8782 35.807 29.6175C35.8565 27.5619 36.5696 25.7851 37.9466 24.2871C38.2051 24.0053 38.532 23.705 38.9272 23.3861C39.6406 22.8096 40.443 22.4079 41.3032 22.1217C41.3093 22.1197 41.3159 22.12 41.3217 22.1227C41.3274 22.1254 41.3319 22.1302 41.3341 22.1361C41.49 22.5456 41.6137 22.9664 41.7049 23.3985C41.7331 23.5312 41.7524 23.735 41.7627 24.0098C41.7633 24.028 41.7658 24.046 41.7701 24.0636C41.8086 24.2235 41.8304 24.3617 41.8353 24.4782C41.9284 26.5451 41.0603 28.5487 39.5266 29.9191Z" fill="#0074FF"/>
<path d="M76.9196 19.5181H75.0449C75.032 19.5181 75.0215 19.5285 75.0215 19.5415V29.371C75.0215 29.3839 75.032 29.3944 75.0449 29.3944H76.9196C76.9325 29.3944 76.943 29.3839 76.943 29.371V19.5415C76.943 19.5285 76.9325 19.5181 76.9196 19.5181Z" fill="#000E3F"/>
<path d="M118.015 19.5156H116.148C116.133 19.5156 116.121 19.5279 116.121 19.543V21.2813C116.121 21.2964 116.133 21.3087 116.148 21.3087H118.015C118.03 21.3087 118.043 21.2964 118.043 21.2813V19.543C118.043 19.5279 118.03 19.5156 118.015 19.5156Z" fill="#000E3F"/>
<path d="M52.7055 29.3925H50.8059C50.8026 29.3924 50.7994 29.3912 50.7968 29.3891C50.7942 29.3871 50.7923 29.3842 50.7915 29.381L48.0367 19.6486C48.036 19.6463 48.036 19.6439 48.0364 19.6416C48.0369 19.6392 48.0379 19.6371 48.0393 19.6352C48.0408 19.6333 48.0426 19.6318 48.0448 19.6307C48.0469 19.6297 48.0492 19.6292 48.0516 19.6292H50.2066C50.21 19.6292 50.2133 19.6303 50.216 19.6323C50.2187 19.6344 50.2206 19.6373 50.2215 19.6406L51.799 25.8626C51.7997 25.8661 51.8016 25.8693 51.8045 25.8716C51.8073 25.8739 51.8108 25.8751 51.8144 25.875C51.818 25.875 51.8215 25.8736 51.8242 25.8713C51.827 25.8689 51.8288 25.8656 51.8294 25.8621L53.1595 19.6411C53.1602 19.6376 53.162 19.6345 53.1647 19.6322C53.1675 19.63 53.1709 19.6287 53.1744 19.6287H55.294C55.2975 19.6287 55.3009 19.6299 55.3036 19.632C55.3063 19.6342 55.3082 19.6372 55.309 19.6406L56.7854 25.8462C56.7863 25.8495 56.7882 25.8524 56.7909 25.8545C56.7936 25.8566 56.797 25.8577 56.8004 25.8577C56.8038 25.8577 56.8071 25.8566 56.8098 25.8545C56.8125 25.8524 56.8144 25.8495 56.8153 25.8462L58.3734 19.6401C58.3743 19.6368 58.3762 19.6339 58.3789 19.6318C58.3816 19.6298 58.3849 19.6287 58.3884 19.6287H60.4552C60.4576 19.6287 60.4599 19.6292 60.462 19.6302C60.4642 19.6313 60.466 19.6328 60.4675 19.6347C60.4689 19.6366 60.4699 19.6387 60.4704 19.6411C60.4708 19.6434 60.4708 19.6458 60.4701 19.6481L57.7432 29.381C57.7423 29.3843 57.7404 29.3872 57.7377 29.3893C57.735 29.3913 57.7317 29.3925 57.7283 29.3925H55.7704C55.767 29.3924 55.7636 29.3912 55.7609 29.3891C55.7582 29.3869 55.7563 29.3839 55.7555 29.3805L54.2686 23.1327C54.2677 23.1294 54.2658 23.1264 54.2631 23.1243C54.2604 23.1222 54.2571 23.1211 54.2536 23.1211C54.2502 23.1211 54.2469 23.1222 54.2442 23.1243C54.2415 23.1264 54.2396 23.1294 54.2387 23.1327L52.7204 29.3805C52.7196 29.3839 52.7177 29.3869 52.715 29.3891C52.7123 29.3912 52.709 29.3924 52.7055 29.3925Z" fill="#000E3F"/>
<path d="M67.1064 29.3681V19.6466C67.1064 19.6423 67.1082 19.6381 67.1113 19.635C67.1143 19.6319 67.1185 19.6302 67.1229 19.6302C68.7855 19.6279 70.2449 19.6282 71.501 19.6312C71.8913 19.6317 72.3682 19.7198 72.7345 19.8826C74.0592 20.47 74.6904 21.8105 74.5241 23.2238C74.3613 24.6121 73.426 25.5719 72.0506 25.8108C71.8631 25.8434 71.5899 25.8591 71.2312 25.8581C70.7155 25.8565 70.0348 25.8558 69.1892 25.8561C69.1818 25.8561 69.1747 25.8591 69.1695 25.8644C69.1643 25.8698 69.1614 25.877 69.1614 25.8845V29.3636C69.1614 29.3713 69.1583 29.3786 69.1529 29.384C69.1475 29.3894 69.1401 29.3925 69.1325 29.3925H67.1308C67.1244 29.3925 67.1182 29.3899 67.1136 29.3853C67.109 29.3808 67.1064 29.3746 67.1064 29.3681ZM69.1604 21.3655V24.1562C69.1604 24.1638 69.1634 24.1712 69.1688 24.1766C69.1742 24.182 69.1816 24.185 69.1892 24.185H71.3467C71.7161 24.185 72.0704 24.0468 72.3316 23.8008C72.5928 23.5549 72.7395 23.2212 72.7395 22.8733V22.6483C72.7395 22.3004 72.5928 21.9668 72.3316 21.7208C72.0704 21.4748 71.7161 21.3366 71.3467 21.3366H69.1892C69.1816 21.3366 69.1742 21.3397 69.1688 21.3451C69.1634 21.3505 69.1604 21.3579 69.1604 21.3655Z" fill="#000E3F"/>
<path d="M95.4338 19.6287H97.7829C97.7863 19.6287 97.7896 19.6297 97.7924 19.6317C97.7952 19.6337 97.7972 19.6364 97.7984 19.6396L101.227 29.3706C101.228 29.3731 101.228 29.3758 101.228 29.3784C101.228 29.381 101.227 29.3835 101.225 29.3857C101.223 29.3879 101.221 29.3896 101.219 29.3908C101.217 29.392 101.214 29.3925 101.211 29.3925H99.0145C99.0111 29.3924 99.0077 29.3913 99.0049 29.3892C99.0022 29.3872 99.0001 29.3843 98.9991 29.381L98.3913 27.3963C98.3902 27.393 98.3882 27.3901 98.3854 27.3881C98.3826 27.386 98.3793 27.3849 98.3758 27.3848H94.8245C94.8211 27.3849 94.8179 27.3859 94.8151 27.3879C94.8123 27.3898 94.8102 27.3926 94.8091 27.3958L94.1002 29.3815C94.0991 29.3847 94.097 29.3875 94.0943 29.3894C94.0915 29.3914 94.0882 29.3924 94.0848 29.3925H91.9607C91.9581 29.3924 91.9555 29.3918 91.9532 29.3906C91.9509 29.3894 91.9488 29.3876 91.9473 29.3855C91.9458 29.3833 91.9448 29.3809 91.9445 29.3783C91.9441 29.3757 91.9444 29.373 91.9453 29.3706L95.4184 19.6396C95.4195 19.6364 95.4216 19.6337 95.4244 19.6317C95.4272 19.6297 95.4305 19.6287 95.4338 19.6287ZM95.3413 25.6704C95.3405 25.6727 95.3404 25.6751 95.3408 25.6774C95.3412 25.6797 95.3421 25.6819 95.3435 25.6838C95.3449 25.6857 95.3468 25.6872 95.3489 25.6883C95.351 25.6893 95.3533 25.6899 95.3557 25.6898L97.775 25.6983C97.7773 25.6983 97.7797 25.6978 97.7818 25.6968C97.7839 25.6957 97.7857 25.6942 97.7872 25.6923C97.7886 25.6904 97.7895 25.6882 97.7899 25.6859C97.7903 25.6835 97.7901 25.6811 97.7894 25.6789L96.5927 21.8717C96.5917 21.8687 96.5898 21.8661 96.5873 21.8643C96.5847 21.8625 96.5817 21.8615 96.5785 21.8615C96.5754 21.8615 96.5723 21.8625 96.5698 21.8643C96.5672 21.8661 96.5653 21.8687 96.5643 21.8717L95.3413 25.6704Z" fill="#000E3F"/>
<path d="M66.4001 27.2582C66.4033 27.2583 66.4065 27.259 66.4093 27.2605C66.4121 27.2619 66.4146 27.264 66.4165 27.2666C66.4184 27.2691 66.4196 27.2721 66.4202 27.2752C66.4207 27.2784 66.4205 27.2816 66.4196 27.2846C66.0459 28.4578 65.2904 29.1914 64.1531 29.4854C63.5278 29.6472 62.7294 29.6163 62.1221 29.4774C60.8912 29.1957 60.1191 28.437 59.8058 27.2015C59.6322 26.5172 59.583 25.8005 59.658 25.0515C59.7204 24.4322 59.9135 23.8681 60.2374 23.359C61.0284 22.1165 62.6268 21.779 63.9853 22.0488C66.0303 22.455 66.552 24.4571 66.5181 26.2522C66.518 26.2609 66.5145 26.2693 66.5083 26.2755C66.5022 26.2816 66.4939 26.285 66.4853 26.285H61.5929C61.5875 26.285 61.5822 26.2861 61.5772 26.2883C61.5722 26.2904 61.5677 26.2935 61.564 26.2974C61.5603 26.3013 61.5574 26.3059 61.5555 26.311C61.5536 26.3161 61.5528 26.3215 61.5531 26.3269C61.6059 27.2772 62.1455 28.0552 63.1635 28.0622C63.6921 28.0657 64.2656 27.8252 64.4353 27.2931C64.4385 27.283 64.4448 27.2741 64.4533 27.2678C64.4618 27.2616 64.4721 27.2582 64.4826 27.2582H66.4001ZM61.6452 25.0674H64.5284C64.5332 25.0674 64.5377 25.0655 64.5411 25.0622C64.5445 25.0588 64.5463 25.0543 64.5463 25.0495V25.0231C64.5463 24.6161 64.3926 24.2257 64.1188 23.9379C63.8451 23.6501 63.4739 23.4884 63.0868 23.4884C62.6997 23.4884 62.3285 23.6501 62.0547 23.9379C61.781 24.2257 61.6273 24.6161 61.6273 25.0231V25.0495C61.6273 25.0543 61.6291 25.0588 61.6325 25.0622C61.6359 25.0655 61.6404 25.0674 61.6452 25.0674Z" fill="#000E3F"/>
<path d="M82.1494 28.8019C82.1489 28.7995 82.1477 28.7972 82.146 28.7953C82.1444 28.7934 82.1423 28.7921 82.1399 28.7913C82.1376 28.7905 82.1351 28.7904 82.1327 28.791C82.1304 28.7915 82.1282 28.7927 82.1265 28.7945C81.4803 29.4381 80.5888 29.6397 79.6748 29.5845C78.8316 29.5337 78.0565 29.2465 77.7085 28.4226C77.6047 28.176 77.5531 27.8963 77.5537 27.5833C77.5542 26.9516 77.6802 26.3592 78.1406 25.9033C78.5857 25.4622 79.2472 25.2765 79.87 25.1715C80.3439 25.0915 80.806 25.0157 81.2563 24.944C81.3761 24.9251 81.5255 24.88 81.7044 24.8086C81.9808 24.6994 82.1096 24.4799 82.0906 24.15C82.0463 23.3854 80.8168 23.3884 80.3185 23.5193C79.8879 23.6333 79.642 24.0793 79.5852 24.491C79.584 24.4995 79.5798 24.5074 79.5733 24.513C79.5668 24.5187 79.5585 24.5218 79.5499 24.5219L77.8181 24.5224C77.8139 24.5224 77.8099 24.5215 77.8061 24.5199C77.8023 24.5183 77.7989 24.5159 77.796 24.513C77.7932 24.51 77.791 24.5064 77.7896 24.5026C77.7881 24.4987 77.7875 24.4946 77.7877 24.4905C77.8126 23.9942 77.9136 23.4735 78.178 23.0693C78.6399 22.3619 79.4727 22.0782 80.2826 21.9995C81.211 21.9094 82.2913 21.9557 83.0763 22.4665C83.8384 22.9628 84.0545 23.9001 84.0574 24.7514C84.0618 26.0725 84.0631 27.6084 84.0614 29.359C84.0614 29.3675 84.058 29.3758 84.0519 29.3818C84.0459 29.3879 84.0377 29.3913 84.0291 29.3913L82.2758 29.3918C82.27 29.3918 82.2643 29.3898 82.2597 29.3861C82.2552 29.3823 82.2521 29.3772 82.2509 29.3714L82.1494 28.8019ZM82.119 25.8938C81.9375 26.0163 81.7342 26.103 81.5092 26.1541C81.3443 26.1916 81.0386 26.2588 80.5923 26.3558C79.9486 26.4951 79.407 26.7834 79.4832 27.5201C79.521 27.8871 79.7098 28.1034 80.0497 28.1687C80.9382 28.3405 81.8223 27.883 82.0787 26.989C82.1119 26.8735 82.1281 26.6933 82.1275 26.4483C82.1275 26.3348 82.1311 26.1536 82.1384 25.9047C82.1386 25.9024 82.138 25.9001 82.1369 25.8981C82.1358 25.8961 82.1341 25.8944 82.1321 25.8933C82.1301 25.8921 82.1278 25.8916 82.1255 25.8917C82.1232 25.8918 82.1209 25.8925 82.119 25.8938Z" fill="#000E3F"/>
<path d="M106.17 22.9937C106.172 22.9963 106.175 22.9982 106.178 22.9992C106.181 23.0002 106.184 23.0003 106.187 22.9993C106.19 22.9984 106.193 22.9965 106.195 22.994C106.197 22.9915 106.198 22.9884 106.198 22.9852V22.1942C106.198 22.186 106.201 22.1782 106.207 22.1724C106.213 22.1666 106.221 22.1633 106.229 22.1633H108.08C108.089 22.1633 108.099 22.1672 108.105 22.174C108.112 22.1808 108.116 22.19 108.116 22.1997C108.117 22.4718 108.118 24.9364 108.117 29.5935C108.116 29.8148 108.088 30.0566 108.032 30.3188C107.596 32.3518 105.487 33.08 103.647 32.743C102.168 32.4717 100.98 31.398 101.02 29.812C101.02 29.804 101.023 29.7964 101.029 29.7909C101.035 29.7853 101.042 29.7821 101.05 29.7821H102.777C102.781 29.7821 102.785 29.7829 102.788 29.7844C102.792 29.7859 102.795 29.788 102.798 29.7908C102.8 29.7935 102.803 29.7967 102.804 29.8003C102.805 29.8039 102.806 29.8077 102.806 29.8115C102.802 31.0879 104.205 31.387 105.178 31.0231C105.494 30.9047 105.749 30.7165 105.944 30.4586C106.143 30.1958 106.199 29.8693 106.2 29.4909C106.202 29.0592 106.201 28.724 106.197 28.4854C106.197 28.483 106.196 28.4807 106.195 28.4787C106.194 28.4768 106.191 28.4754 106.189 28.4749C106.187 28.4744 106.184 28.4748 106.182 28.476C106.18 28.4772 106.179 28.4791 106.178 28.4814C105.649 29.6343 103.726 29.6343 102.764 29.1649C101.332 28.4675 100.941 26.868 101.023 25.399C101.124 23.5945 102.313 21.9294 104.269 21.9692C105.089 21.9861 105.723 22.3276 106.17 22.9937ZM104.591 23.6383C103.618 23.6572 103.141 24.3183 103.044 25.2298C102.96 26.0203 102.995 26.7774 103.472 27.3778C103.765 27.7471 104.2 27.9582 104.674 27.9487C105.149 27.9398 105.575 27.7123 105.854 27.332C106.307 26.7137 106.313 25.9556 106.198 25.1686C106.066 24.2621 105.564 23.6199 104.591 23.6383Z" fill="#000E3F"/>
<path d="M113.33 28.7951C112.684 29.4383 111.792 29.6399 110.878 29.5841C110.035 29.5329 109.26 29.2456 108.913 28.4218C108.809 28.1752 108.757 27.8954 108.758 27.5825C108.759 26.9508 108.885 26.3584 109.345 25.9024C109.791 25.4614 110.452 25.2762 111.075 25.1712C111.549 25.0915 112.011 25.0158 112.461 24.9442C112.581 24.9252 112.731 24.8803 112.909 24.8093C113.186 24.7001 113.315 24.4805 113.296 24.1507C113.252 23.3861 112.022 23.3885 111.524 23.5195C111.093 23.633 110.848 24.079 110.79 24.4907C110.789 24.4992 110.785 24.507 110.778 24.5127C110.772 24.5184 110.764 24.5215 110.755 24.5215H109.023C109.019 24.5215 109.015 24.5207 109.011 24.5191C109.007 24.5175 109.004 24.5151 109.001 24.5121C108.998 24.5091 108.996 24.5056 108.995 24.5017C108.993 24.4979 108.993 24.4938 108.993 24.4897C109.018 23.9934 109.119 23.4727 109.384 23.0685C109.846 22.3616 110.679 22.0778 111.489 21.9997C112.417 21.9096 113.497 21.9564 114.282 22.4676C115.044 22.9639 115.26 23.9013 115.263 24.7525C115.267 26.0737 115.267 27.6095 115.265 29.3601C115.265 29.3687 115.262 29.3769 115.256 29.383C115.249 29.3891 115.241 29.3925 115.233 29.3925H113.479C113.474 29.3925 113.468 29.3904 113.463 29.3867C113.459 29.383 113.456 29.3778 113.455 29.3721L113.353 28.8026C113.352 28.8001 113.351 28.7978 113.35 28.796C113.348 28.7941 113.346 28.7927 113.344 28.7919C113.341 28.7912 113.339 28.7911 113.336 28.7916C113.334 28.7922 113.332 28.7934 113.33 28.7951ZM113.324 25.8925C113.143 26.0153 112.939 26.1022 112.714 26.1533C112.549 26.1908 112.244 26.2582 111.797 26.3554C111.153 26.4953 110.612 26.7835 110.688 27.5208C110.726 27.8878 110.915 28.104 111.255 28.1694C112.144 28.3406 113.028 27.8827 113.284 26.9881C113.317 26.8726 113.334 26.6924 113.333 26.4475C113.333 26.334 113.337 26.1526 113.344 25.9034C113.344 25.9011 113.343 25.8988 113.342 25.8968C113.341 25.8947 113.339 25.8931 113.337 25.8919C113.335 25.8908 113.333 25.8902 113.331 25.8903C113.328 25.8904 113.326 25.8912 113.324 25.8925Z" fill="#000E3F"/>
<path d="M120.783 23.152C121.145 22.5248 121.68 22.1495 122.387 22.026C123.822 21.7761 125.146 22.2864 125.441 23.8345C125.474 24.0071 125.487 24.2548 125.481 24.5777C125.481 24.6049 125.48 26.2044 125.481 29.376C125.481 29.3803 125.479 29.3845 125.476 29.3876C125.473 29.3907 125.469 29.3924 125.465 29.3924H123.583C123.575 29.3924 123.568 29.3894 123.563 29.3841C123.558 29.3788 123.555 29.3716 123.555 29.364C123.555 29.1294 123.555 27.6961 123.555 25.0641C123.555 24.7972 123.53 24.5467 123.479 24.3124C123.401 23.951 123.183 23.7303 122.825 23.6503C122.373 23.5494 121.96 23.579 121.585 23.7389C121.029 23.9759 120.846 24.621 120.846 25.202C120.846 27.1039 120.846 28.4907 120.846 29.3625C120.846 29.3705 120.843 29.3781 120.838 29.3837C120.832 29.3893 120.824 29.3924 120.816 29.3924H118.955C118.947 29.3924 118.94 29.3893 118.934 29.3838C118.929 29.3783 118.926 29.3708 118.926 29.363V22.1928C118.926 22.1849 118.929 22.1773 118.934 22.1717C118.94 22.1661 118.947 22.1629 118.955 22.1629H120.726C120.734 22.1629 120.743 22.1663 120.749 22.1722C120.755 22.1782 120.758 22.1863 120.758 22.1948V23.1456C120.758 23.1484 120.759 23.1512 120.761 23.1534C120.763 23.1557 120.765 23.1573 120.768 23.158C120.771 23.1587 120.774 23.1585 120.777 23.1575C120.779 23.1564 120.782 23.1545 120.783 23.152Z" fill="#000E3F"/>
<path d="M27.9953 26.6021C28.2213 26.7979 28.3668 26.9229 28.4318 26.977C29.3501 27.7403 30.3827 28.2442 31.5296 28.4888C31.5406 28.4911 31.5474 28.4916 31.55 28.4903C31.5584 28.4864 31.565 28.4796 31.5688 28.4712C31.5725 28.4628 31.5731 28.4533 31.5705 28.4445C30.9397 26.3756 29.3587 24.8877 27.2595 24.3043C27.0495 24.2461 26.8075 24.2291 26.6104 24.1719C26.5893 24.166 26.5673 24.1636 26.5452 24.1649C26.4629 24.1702 26.3336 24.1541 26.1574 24.1166C26.143 24.1135 26.1281 24.1134 26.1136 24.1162C26.0992 24.1189 26.0854 24.1246 26.0732 24.1328C26.061 24.1411 26.0505 24.1517 26.0425 24.164C26.0345 24.1764 26.029 24.1902 26.0265 24.2047C26.0182 24.2512 26.0127 24.3259 26.0101 24.4288C25.9659 26.179 26.3869 27.7884 27.273 29.2569C28.6494 31.5393 30.9975 33.0745 33.6403 33.4369C34.1281 33.5036 34.5473 33.5086 35.0655 33.5006C35.0759 33.5005 35.0862 33.5035 35.095 33.5093C35.1037 33.515 35.1106 33.5233 35.1148 33.533C35.3902 34.1867 35.737 34.8057 36.1552 35.3898C36.1563 35.3912 36.1571 35.393 36.1573 35.3949C36.1576 35.3968 36.1573 35.3987 36.1565 35.4005C36.1558 35.4022 36.1545 35.4037 36.153 35.4048C36.1514 35.4059 36.1496 35.4065 36.1477 35.4067C35.4544 35.4784 34.7738 35.5029 34.1057 35.4804C33.598 35.4634 33.2022 35.3838 32.6337 35.2678C31.9552 35.1294 31.4022 34.9701 30.8123 34.7426C30.4539 34.6042 30.1502 34.4111 29.8068 34.2418C29.6226 34.1512 29.4596 34.064 29.3179 33.98C26.1679 32.1167 24.2314 28.9353 24.0323 25.2755C24.0038 24.7498 24.0167 24.2522 24.0711 23.7826C24.1345 23.2364 24.214 22.7447 24.3096 22.3076C24.3141 22.2868 24.3248 22.2679 24.3402 22.2532C24.3557 22.2386 24.3752 22.2289 24.3962 22.2255C25.0433 22.1215 25.7761 22.0672 26.4626 22.1533C27.0748 22.23 27.3895 22.2852 27.9505 22.4172C28.2243 22.4815 28.4367 22.5443 28.5876 22.6053C30.4673 23.3646 31.8844 24.6141 32.8388 26.3537C33.4963 27.5521 33.8205 28.8849 33.8115 30.352C33.8085 30.7966 33.7209 31.2994 33.6498 31.6871C33.6488 31.6926 33.6459 31.6975 33.6417 31.701C33.6375 31.7044 33.6322 31.7062 33.6269 31.7061C33.4934 31.7054 33.3587 31.6851 33.2226 31.6453C32.8398 31.5343 32.4486 31.4547 32.0832 31.2799C31.5819 31.04 31.1618 30.825 30.7058 30.5079C29.3601 29.573 28.4459 28.2779 27.9634 26.6225C27.9624 26.6185 27.9626 26.6142 27.9642 26.6103C27.9657 26.6064 27.9684 26.6031 27.972 26.6008C27.9755 26.5985 27.9796 26.5975 27.9838 26.5977C27.988 26.5979 27.992 26.5995 27.9953 26.6021Z" fill="#7EE523"/>
<path d="M89.47 28.5147C89.4693 28.5136 89.4683 28.5127 89.4672 28.5121C89.466 28.5115 89.4647 28.5112 89.4634 28.5112C89.4621 28.5113 89.4608 28.5117 89.4597 28.5124C89.4586 28.5131 89.4577 28.5141 89.4571 28.5152C89.2606 28.8597 88.9765 29.1089 88.6049 29.2629C87.9816 29.5218 87.2299 29.5392 86.5883 29.3311C85.755 29.0603 85.1676 28.4192 84.952 27.5649C84.8966 27.3449 84.8707 27.0107 84.8744 26.5624C84.878 26.0818 84.8788 24.7109 84.8769 22.4496C84.8769 22.3394 84.8805 22.2523 84.8878 22.1882C84.8887 22.1813 84.892 22.175 84.8971 22.1704C84.9022 22.1658 84.9088 22.1633 84.9157 22.1633H86.7595C86.7692 22.1633 86.7784 22.1672 86.7852 22.1741C86.792 22.181 86.7959 22.1904 86.7959 22.2002C86.7978 22.5274 86.799 24.0375 86.7993 26.7306C86.7997 26.9015 86.847 27.1031 86.9412 27.3355C87.2444 28.0836 88.4406 28.0369 88.9742 27.6162C89.3041 27.3567 89.4709 27.0034 89.4745 26.5564C89.4765 26.3068 89.4773 24.8475 89.477 22.1783C89.477 22.1742 89.4786 22.1703 89.4815 22.1674C89.4844 22.1645 89.4883 22.1628 89.4924 22.1628H91.3597C91.3684 22.1628 91.3767 22.1663 91.3829 22.1725C91.3891 22.1786 91.3925 22.187 91.3925 22.1957C91.3928 23.483 91.393 25.9614 91.393 29.6308C91.3925 30.8305 90.8305 31.8644 89.7946 32.412C89.0424 32.8097 88.1733 32.8939 87.328 32.7714C86.2861 32.6206 85.4812 32.1098 85.1053 31.1341C84.9381 30.6987 84.8634 30.2535 84.8813 29.7986C84.8816 29.7941 84.8835 29.7899 84.8868 29.7869C84.89 29.7838 84.8943 29.7821 84.8988 29.7821H86.6291C86.6344 29.7821 86.6397 29.7832 86.6446 29.7852C86.6496 29.7873 86.654 29.7903 86.6578 29.7941C86.6615 29.7979 86.6645 29.8024 86.6665 29.8074C86.6685 29.8123 86.6695 29.8176 86.6694 29.8229C86.6651 30.0589 86.7117 30.2766 86.8093 30.4761C87.0453 30.9584 87.4963 31.1252 88.018 31.1625C88.9225 31.2272 89.4616 30.4542 89.4735 29.6298C89.4772 29.368 89.4773 29.0006 89.474 28.5277C89.474 28.5257 89.4739 28.5238 89.4736 28.5223C89.4733 28.5208 89.473 28.5198 89.4725 28.5192C89.4719 28.5179 89.471 28.5164 89.47 28.5147Z" fill="#000E3F"/>
<path d="M118.021 22.1633H116.143C116.131 22.1633 116.121 22.1729 116.121 22.1847V29.3719C116.121 29.3838 116.131 29.3933 116.143 29.3933H118.021C118.033 29.3933 118.043 29.3838 118.043 29.3719V22.1847C118.043 22.1729 118.033 22.1633 118.021 22.1633Z" fill="#000E3F"/>
<path d="M115.02 33.2473C115.024 33.2473 115.028 33.2482 115.032 33.25C115.036 33.2517 115.039 33.2542 115.042 33.2573C115.045 33.2604 115.047 33.2641 115.048 33.268C115.049 33.2719 115.049 33.2761 115.049 33.2801C114.972 33.8145 114.708 34.2258 114.256 34.5142C113.68 34.8816 112.848 34.901 112.261 34.56C111.717 34.2439 111.443 33.5913 111.409 32.9685C111.375 32.3637 111.409 31.8002 111.743 31.2929C112.125 30.7135 112.891 30.5552 113.533 30.6254C114.381 30.718 114.989 31.2611 115.056 32.1243C115.056 32.1276 115.055 32.1309 115.054 32.134C115.053 32.1371 115.052 32.14 115.049 32.1424C115.047 32.1449 115.044 32.1468 115.041 32.1481C115.038 32.1495 115.035 32.1502 115.031 32.1501H114.023C114.014 32.1502 114.006 32.147 113.999 32.1413C113.992 32.1355 113.987 32.1276 113.986 32.1188C113.914 31.6962 113.588 31.4657 113.168 31.4995C112.379 31.5642 112.385 32.6002 112.496 33.1647C112.589 33.6356 112.948 34.0323 113.469 33.8745C113.767 33.7843 113.937 33.5831 113.98 33.2712C113.981 33.2646 113.985 33.2586 113.99 33.2542C113.995 33.2498 114.001 33.2473 114.008 33.2473H115.02Z" fill="#7EE523"/>
<path d="M119.282 32.9518C119.282 33.1931 119.234 33.432 119.141 33.6548C119.048 33.8776 118.912 34.08 118.742 34.2504C118.571 34.4207 118.368 34.5558 118.145 34.6477C117.921 34.7397 117.682 34.7868 117.441 34.7864L117.089 34.7858C116.847 34.7854 116.608 34.7374 116.385 34.6447C116.163 34.5519 115.96 34.4162 115.79 34.2452C115.62 34.0743 115.485 33.8714 115.393 33.6483C115.301 33.4251 115.253 33.1861 115.254 32.9447L115.255 32.4619C115.255 32.2205 115.303 31.9816 115.396 31.7588C115.489 31.536 115.624 31.3336 115.795 31.1632C115.966 30.9929 116.169 30.8578 116.392 30.7659C116.615 30.6739 116.854 30.6268 117.096 30.6272L117.448 30.6278C117.69 30.6282 117.929 30.6762 118.151 30.7689C118.374 30.8617 118.577 30.9974 118.747 31.1684C118.917 31.3393 119.052 31.5422 119.144 31.7653C119.236 31.9885 119.283 32.2275 119.283 32.4689L119.282 32.9518ZM116.325 32.7098C116.324 33.345 116.54 33.911 117.278 33.912C118.017 33.913 118.234 33.347 118.235 32.7123C118.236 32.0771 118.02 31.5111 117.281 31.5101C116.543 31.5091 116.325 32.0746 116.325 32.7098Z" fill="#7EE523"/>
<path d="M120.68 31.2153C120.68 31.2185 120.681 31.2216 120.683 31.2241C120.685 31.2267 120.688 31.2285 120.691 31.2294C120.694 31.2302 120.697 31.23 120.7 31.2288C120.703 31.2276 120.705 31.2255 120.707 31.2228C120.949 30.8006 121.303 30.6154 121.787 30.6115C122.168 30.608 122.47 30.6687 122.718 30.9495C122.818 31.0623 122.884 31.1443 122.917 31.1954C122.919 31.1986 122.922 31.2014 122.925 31.2035C122.928 31.2055 122.932 31.2069 122.935 31.2073C122.939 31.2078 122.943 31.2074 122.947 31.2062C122.95 31.205 122.954 31.203 122.957 31.2004C122.957 31.2 122.985 31.1544 123.041 31.0635C123.198 30.8046 123.505 30.6573 123.81 30.6234C124.49 30.5473 125.097 30.8604 125.315 31.5264C125.358 31.6572 125.379 31.9057 125.378 32.2721C125.375 33.8043 125.374 34.6011 125.375 34.6625C125.375 34.6661 125.374 34.6697 125.373 34.673C125.372 34.6763 125.37 34.6793 125.367 34.6819C125.365 34.6844 125.362 34.6864 125.358 34.6878C125.355 34.6892 125.352 34.6899 125.348 34.6899H124.362C124.356 34.6899 124.35 34.6876 124.346 34.6834C124.342 34.6792 124.339 34.6735 124.339 34.6675C124.34 34.2364 124.34 33.4328 124.339 32.2567C124.339 31.9127 124.173 31.5339 123.793 31.4836C123.329 31.4214 123.064 31.8873 123.061 32.307C123.057 32.8681 123.056 33.6537 123.059 34.6635C123.059 34.6705 123.056 34.6772 123.052 34.6822C123.047 34.6871 123.04 34.6899 123.033 34.6899H122.021C122.016 34.6899 122.011 34.688 122.008 34.6845C122.004 34.6811 122.002 34.6764 122.002 34.6715C122.001 33.88 122.002 33.0794 122.006 32.2696C122.007 32.0118 121.977 31.6265 121.647 31.5443C121.409 31.4851 121.112 31.4916 120.935 31.6713C120.78 31.8286 120.748 32.0486 120.749 32.2915C120.75 33.5563 120.749 34.3474 120.746 34.665C120.746 34.6716 120.743 34.678 120.739 34.6826C120.734 34.6873 120.728 34.6899 120.721 34.6899H119.714C119.707 34.6899 119.699 34.6868 119.694 34.6813C119.689 34.6758 119.686 34.6683 119.686 34.6606V30.7369C119.686 30.7312 119.688 30.7258 119.692 30.7218C119.696 30.7178 119.701 30.7155 119.706 30.7155H120.653C120.66 30.7155 120.667 30.7183 120.672 30.7234C120.677 30.7284 120.68 30.7353 120.68 30.7424V31.2153Z" fill="#7EE523"/>
<path d="M111.028 33.5993L109.963 33.5975C109.945 33.5974 109.93 33.6123 109.93 33.6308L109.928 34.6552C109.928 34.6736 109.943 34.6886 109.961 34.6886L111.026 34.6905C111.045 34.6905 111.06 34.6756 111.06 34.6572L111.062 33.6327C111.062 33.6143 111.047 33.5994 111.028 33.5993Z" fill="#7EE523"/>
</g>
<path d="M139.98 25.3H214.406" stroke="#B0B0B0" stroke-width="0.57031" stroke-dasharray="3.42 3.42"/>
<rect x="165.645" y="13.8938" width="22.8124" height="22.8124" rx="11.4062" fill="#3EA76A"/>
<path d="M174.194 24.7297L171.918 27.011L174.194 29.2922V27.5813H178.191V26.4407H174.194V24.7297ZM182.184 23.5891L179.908 21.3079V23.0188H175.91V24.1594H179.908V25.8703L182.184 23.5891Z" fill="white"/>
<path d="M233.734 31.7187C235.223 32.5277 236.706 33.3482 238.184 34.1803C238.826 34.5411 239.246 34.3189 239.825 34C242.941 32.2824 246.053 30.5556 249.16 28.8197C249.164 28.8174 249.168 28.8156 249.173 28.8143L249.179 28.8135L249.185 28.8129C249.189 28.8129 249.193 28.8133 249.197 28.814C249.201 28.8149 249.207 28.8167 249.211 28.8192C249.215 28.8217 249.22 28.8249 249.224 28.8286C249.226 28.8311 249.228 28.8339 249.231 28.8369C249.236 28.8445 249.238 28.853 249.239 28.8617C249.242 28.9334 249.247 29.0053 249.251 29.077C249.308 30.0537 249.364 31.0206 248.341 31.5875C245.46 33.1849 242.576 34.7799 239.692 36.3722C239.143 36.6759 238.591 36.6759 238.037 36.3722C235.114 34.7736 232.198 33.1667 229.287 31.551C228.731 31.2437 228.452 30.7724 228.45 30.1371C228.437 26.8307 228.435 23.5243 228.443 20.2177C228.443 19.6567 228.887 19.243 229.414 18.9515C232.091 17.4659 234.77 15.9822 237.448 14.5001C238.809 13.7458 239.132 13.9044 240.362 14.5786C244.914 17.0686 247.669 18.5955 248.628 19.1592C249.354 19.5873 249.318 20.861 249.208 21.7428C249.205 21.7711 249.194 21.7983 249.178 21.822C249.162 21.8458 249.139 21.8654 249.114 21.8795L239.308 27.3585C239.001 27.5286 238.697 27.5292 238.394 27.3603L233.757 24.7675C233.747 24.7626 233.738 24.7599 233.727 24.7596C233.716 24.7594 233.706 24.7615 233.697 24.7659C233.691 24.7688 233.686 24.7727 233.682 24.7773C233.68 24.7797 233.677 24.7822 233.675 24.7848C233.671 24.7928 233.668 24.8019 233.668 24.8111L233.662 26.9631C233.662 26.9902 233.67 27.0175 233.685 27.0421L233.691 27.0524C233.699 27.0617 233.706 27.0703 233.715 27.078C233.725 27.0877 233.737 27.0962 233.75 27.1033C235.29 27.9731 236.832 28.8312 238.377 29.6781C238.756 29.884 239.301 29.6907 239.705 29.4647C242.859 27.7095 246.009 25.9464 249.153 24.1754C249.209 24.1437 249.237 24.1591 249.237 24.2209L249.245 26.3528C249.245 26.3803 249.237 26.4076 249.222 26.4317C249.207 26.4557 249.186 26.4756 249.161 26.4894C245.899 28.3029 242.636 30.114 239.374 31.9227C238.931 32.1688 238.54 32.0468 238.09 31.7988C236.654 31.0031 235.213 30.2162 233.767 29.4375C233.757 29.4327 233.747 29.43 233.737 29.43C233.726 29.4298 233.716 29.4322 233.708 29.4368C233.703 29.4388 233.7 29.4409 233.697 29.4434C233.695 29.4453 233.692 29.4475 233.69 29.4497L233.685 29.4562C233.681 29.4642 233.677 29.4734 233.677 29.4831L233.647 31.5839C233.647 31.6103 233.655 31.6368 233.67 31.6607C233.685 31.6844 233.708 31.7043 233.734 31.7187Z" fill="#164DFF"/>
<path d="M327.725 23.6012C327.702 24.9289 327.704 26.2918 327.729 27.69C327.758 29.1793 328.919 29.1644 329.991 29.1507C330.192 29.148 330.391 29.1456 330.577 29.153C330.604 29.1541 330.63 29.1646 330.649 29.1821C330.657 29.1905 330.664 29.2003 330.669 29.2109C330.67 29.2148 330.672 29.2186 330.673 29.2227C330.674 29.2268 330.675 29.2309 330.675 29.235L330.677 29.2382V29.2478L330.669 31.0571C330.669 31.0826 330.658 31.1069 330.639 31.1256C330.621 31.1442 330.595 31.1555 330.567 31.1573C327.821 31.3778 325.345 30.9441 325.343 27.7227C325.342 24.8779 325.347 22.033 325.36 19.1882C325.36 19.1626 325.37 19.138 325.388 19.1199C325.395 19.1125 325.403 19.1065 325.412 19.1019C325.425 19.0951 325.44 19.0916 325.455 19.0916L327.612 19.0752C327.636 19.0752 327.661 19.0852 327.678 19.103C327.687 19.1117 327.694 19.1218 327.699 19.1331C327.703 19.1446 327.706 19.1571 327.706 19.1699L327.723 21.0777C327.723 21.1378 327.749 21.1955 327.793 21.2382C327.839 21.2807 327.899 21.305 327.961 21.3055L330.576 21.3164C330.602 21.3164 330.628 21.3259 330.647 21.3431C330.666 21.3601 330.677 21.3832 330.677 21.4074L330.674 23.195C330.674 23.219 330.665 23.2423 330.645 23.2594C330.627 23.2764 330.602 23.2861 330.576 23.2861L328.046 23.3006C327.962 23.3011 327.882 23.3327 327.821 23.3889C327.761 23.4452 327.727 23.5213 327.725 23.6012Z" fill="#061340"/>
<path fill-rule="evenodd" clip-rule="evenodd" d="M263.491 29.0096C263.49 28.9974 263.487 28.9857 263.481 28.9748C263.478 28.9677 263.474 28.9609 263.469 28.9546C263.466 28.9506 263.463 28.9471 263.46 28.9435L263.457 28.9402C263.454 28.9375 263.451 28.9348 263.448 28.9325L261.951 27.761C261.932 27.7457 261.907 27.7382 261.882 27.7403C261.856 27.7423 261.833 27.7537 261.815 27.7719C260.864 28.7686 260.028 29.4116 258.521 29.2533C257.193 29.1137 256.315 28.4407 255.888 27.2344C255.883 27.2215 255.88 27.2081 255.88 27.1946C255.879 27.185 255.88 27.1753 255.881 27.166C255.883 27.1543 255.887 27.1431 255.891 27.1325C255.895 27.1218 255.901 27.1115 255.908 27.102C255.913 27.0951 255.919 27.0887 255.925 27.0829C255.936 27.0725 255.948 27.0638 255.962 27.0573C255.983 27.0465 256.007 27.0412 256.032 27.0412L263.819 27.0394C263.854 27.0393 263.887 27.0269 263.914 27.0049C263.94 26.9827 263.957 26.9522 263.96 26.9192C264.389 23.3771 261.885 20.6184 258.039 21.1104C252.098 21.8702 251.837 30.5086 258.02 31.2594C260.301 31.5374 262.118 30.816 263.467 29.0948C263.486 29.0702 263.495 29.0398 263.491 29.0096ZM258.379 23.0892C259.753 22.9051 261.216 23.665 261.529 25.0133C261.536 25.0377 261.536 25.0628 261.529 25.0871C261.524 25.1113 261.512 25.1341 261.496 25.1535C261.48 25.1729 261.459 25.1886 261.435 25.1994C261.425 25.2047 261.412 25.2086 261.4 25.2113C261.387 25.2142 261.374 25.2156 261.361 25.2156H256.329C256.014 25.2156 255.924 25.0783 256.062 24.8038C256.563 23.8017 257.336 23.2301 258.379 23.0892Z" fill="#061340"/>
<path fill-rule="evenodd" clip-rule="evenodd" d="M273.096 30.3793C273.081 30.2384 273.014 30.2172 272.895 30.3156C271.247 31.6948 268.853 31.6493 267.111 30.4868C264.959 29.0473 264.387 26.2178 265.389 23.9474C266.584 21.2453 270.379 20.0117 272.872 22.0597C272.9 22.0825 272.932 22.098 272.962 22.1034C272.973 22.1054 272.984 22.106 272.995 22.1049C273.005 22.1039 273.013 22.1012 273.021 22.0973C273.025 22.095 273.029 22.0921 273.034 22.089C273.11 22.0197 273.13 21.8423 273.094 21.5569C273.09 21.5263 273.093 21.4951 273.101 21.4656C273.106 21.4523 273.11 21.4395 273.116 21.4272C273.125 21.4123 273.135 21.3984 273.146 21.3857C273.166 21.3628 273.191 21.3442 273.219 21.3316C273.247 21.319 273.277 21.3126 273.308 21.3128L275.44 21.3236C275.446 21.3238 275.453 21.3245 275.459 21.3259C275.463 21.3268 275.467 21.3279 275.471 21.3293C275.484 21.3341 275.497 21.3418 275.507 21.3521C275.511 21.3567 275.515 21.3619 275.52 21.3672C275.529 21.3823 275.535 21.4001 275.535 21.4185V30.9733C275.535 30.9886 275.53 31.0037 275.524 31.0171C275.519 31.0256 275.513 31.0334 275.507 31.0404C275.488 31.0582 275.464 31.0682 275.438 31.0682L273.256 31.0789C273.253 31.0789 273.249 31.0788 273.246 31.0783C273.238 31.0772 273.229 31.0751 273.222 31.072C273.211 31.0672 273.2 31.0603 273.192 31.0514C273.174 31.034 273.163 31.01 273.16 30.9843L273.096 30.3793ZM272.52 28.2603C273.825 26.5784 273.223 23.3679 270.661 23.1512C269.479 23.0503 268.589 23.3899 267.992 24.1697C266.946 25.5345 267.153 28.0927 268.82 28.9471C270.021 29.5612 271.673 29.3553 272.52 28.2603Z" fill="#061340"/>
<path d="M280.727 27.555C281.408 27.8549 281.611 28.265 281.339 28.7849C281.192 29.0667 280.955 29.2223 280.628 29.2513C279.503 29.3497 278.486 29.1408 277.578 28.6245C277.567 28.6182 277.555 28.6141 277.543 28.6123C277.53 28.6107 277.519 28.6112 277.506 28.6144C277.494 28.6174 277.483 28.6229 277.473 28.6302C277.465 28.6378 277.457 28.6468 277.452 28.6574L276.591 30.3299C276.585 30.339 276.583 30.3486 276.581 30.3584C276.58 30.3655 276.58 30.3728 276.58 30.3799C276.581 30.3873 276.582 30.3949 276.584 30.4022C276.593 30.4262 276.609 30.4466 276.632 30.4592C278.491 31.5125 282.524 32.0609 283.572 29.561C284.678 26.9191 282.469 25.8539 280.461 24.8865L280.302 24.8094L280.094 24.7089C279.521 24.4301 278.848 23.9564 279.459 23.3388C279.698 23.0957 279.991 22.9938 280.337 23.0325C281.06 23.1115 281.738 23.3144 282.37 23.6411C282.382 23.6471 282.394 23.6509 282.405 23.6525C282.411 23.6531 282.415 23.6532 282.419 23.6531C282.428 23.6529 282.436 23.6518 282.442 23.6498C282.454 23.6464 282.466 23.6409 282.474 23.6336C282.484 23.6262 282.492 23.6169 282.497 23.6066L283.318 22.0377C283.331 22.0135 283.334 21.9852 283.326 21.9585C283.322 21.9468 283.317 21.9358 283.309 21.9256C283.3 21.913 283.288 21.9021 283.275 21.8938C281.124 20.6093 276.644 20.5564 276.898 24.1313C277.026 25.9488 278.907 26.7648 280.417 27.4201C280.522 27.4658 280.625 27.5107 280.727 27.555Z" fill="#061340"/>
<path fill-rule="evenodd" clip-rule="evenodd" d="M296.921 30.3449C296.762 30.221 296.684 30.2575 296.684 30.4543L296.674 35.5305C296.674 35.5561 296.665 35.5807 296.646 35.5988C296.628 35.6169 296.604 35.627 296.578 35.627L294.382 35.6253C294.369 35.6253 294.357 35.6228 294.345 35.618C294.333 35.6134 294.324 35.6063 294.315 35.5976C294.306 35.5886 294.299 35.5783 294.295 35.5668C294.289 35.5554 294.287 35.5429 294.287 35.5305C294.261 31.2111 294.261 28.0813 294.285 26.1415C294.33 22.5138 297.191 20.4528 300.784 21.2073C304.403 21.967 305.874 25.5876 304.343 28.6741C303.014 31.3508 299.314 32.2125 296.921 30.3449ZM299.968 23.1477C295.133 22.5027 295.783 30.7877 300.632 29.0878C303.372 28.1294 303.038 23.5559 299.968 23.1477Z" fill="#061340"/>
<path fill-rule="evenodd" clip-rule="evenodd" d="M309.828 21.1997C304.758 22.2346 304.359 29.4829 309.258 31.0515C313.954 32.5548 317.974 28.4334 316.077 24.0385C315.03 21.617 312.444 20.6657 309.828 21.1997ZM308.662 27.8795C307.423 25.5873 309.027 22.4095 311.999 23.2186C313.918 23.7396 314.415 25.7695 313.849 27.4566C313.102 29.6869 309.79 29.9638 308.662 27.8795Z" fill="#061340"/>
<path d="M317.914 22.2001C319.215 20.5109 322.075 20.9191 323.712 21.8956C323.734 21.909 323.751 21.9298 323.757 21.9542C323.765 21.9786 323.762 22.0046 323.75 22.0269L322.934 23.6085C322.929 23.619 322.922 23.6282 322.913 23.6359C322.909 23.6389 322.905 23.6418 322.901 23.6442C322.894 23.6478 322.888 23.6506 322.88 23.6527C322.869 23.6563 322.856 23.6576 322.843 23.6567C322.83 23.6557 322.818 23.6522 322.806 23.6467C322.095 23.3077 320.178 22.519 319.735 23.5612C319.537 24.0312 319.854 24.372 320.291 24.5887C320.381 24.6336 320.473 24.6784 320.567 24.7235C320.686 24.7807 320.808 24.8384 320.931 24.8969C322.587 25.6794 324.538 26.6019 324.259 28.7047C323.812 32.0775 319.237 31.6621 317.075 30.4704C317.052 30.4576 317.035 30.4375 317.026 30.4138C317.022 30.4015 317.021 30.389 317.021 30.3765C317.022 30.3648 317.025 30.3535 317.03 30.3428L317.883 28.663C317.889 28.6523 317.897 28.643 317.906 28.6355C317.916 28.6281 317.927 28.6225 317.938 28.6194C317.951 28.6159 317.964 28.6153 317.977 28.6167C317.99 28.6183 318.002 28.6222 318.014 28.6282C318.969 29.1257 319.987 29.4318 321.067 29.2114C321.977 29.0274 322.172 28.2057 321.366 27.679C320.962 27.4152 320.507 27.2112 320.051 27.0064C319.033 26.5489 318.006 26.0878 317.512 24.9514C317.1 23.9991 317.234 23.0819 317.914 22.2001Z" fill="#061340"/>
<path d="M291.827 21.4003L289.425 27.9907C289.418 28.0117 289.407 28.0311 289.394 28.048C289.389 28.0546 289.383 28.0608 289.378 28.0665C289.356 28.0872 289.333 28.1017 289.306 28.1092C289.151 28.1529 289.042 28.0971 288.981 27.9416C288.608 27.0221 287.784 24.8368 286.505 21.3857C286.497 21.3608 286.48 21.3391 286.457 21.3237C286.434 21.3085 286.409 21.3001 286.381 21.3001L283.963 21.2983L283.954 21.2989C283.946 21.2997 283.94 21.3019 283.933 21.3051C283.924 21.3099 283.916 21.3166 283.91 21.325C283.906 21.3293 283.904 21.3337 283.902 21.3386C283.901 21.3433 283.899 21.3484 283.899 21.3535C283.898 21.3638 283.899 21.3741 283.902 21.3839L287.826 31.0281C287.844 31.0727 287.852 31.1204 287.848 31.168C287.846 31.1923 287.842 31.2163 287.834 31.2397C287.828 31.2617 287.819 31.283 287.808 31.3034C287.229 32.3236 285.676 33.1947 284.621 33.6847C284.601 33.6941 284.583 33.7073 284.568 33.7235C284.553 33.7397 284.541 33.7585 284.534 33.7792C284.527 33.7998 284.524 33.8216 284.525 33.8431C284.527 33.8647 284.534 33.8859 284.543 33.9052L285.439 35.5943C285.447 35.6114 285.461 35.6256 285.479 35.6354C285.484 35.6384 285.489 35.6409 285.495 35.6429C285.52 35.6517 285.547 35.6512 285.571 35.6416C287.998 34.6833 289.677 33.2146 290.636 30.8204C291.173 29.4783 292.405 26.337 294.333 21.3967C294.335 21.3915 294.336 21.3864 294.336 21.3811C294.337 21.3763 294.337 21.3713 294.336 21.3665C294.335 21.3563 294.33 21.3466 294.325 21.3382C294.319 21.3299 294.31 21.3229 294.301 21.3182C294.297 21.3161 294.293 21.3145 294.288 21.3133C294.282 21.3119 294.277 21.3109 294.27 21.3109L291.968 21.3019C291.937 21.3021 291.908 21.3115 291.882 21.3291C291.871 21.3373 291.861 21.3471 291.852 21.358C291.841 21.3706 291.834 21.385 291.827 21.4003Z" fill="#061340"/>
<defs>
<clipPath id="clip0_7596_32203">
<rect width="101.949" height="22.6" fill="white" transform="translate(24 14)"/>
</clipPath>
</defs>
</svg>
