<svg width="383" height="51" viewBox="0 0 383 51" fill="none" xmlns="http://www.w3.org/2000/svg">
<g clip-path="url(#clip0_7596_32232)">
<path d="M35.1082 14C36.9743 14.0684 38.7012 14.571 40.2888 15.5078C40.4305 15.5915 40.5855 15.6937 40.7537 15.8145C41.1002 16.0629 41.4676 16.3123 41.7653 16.5925C41.9408 16.7581 42.1147 16.9227 42.287 17.0863C42.296 17.095 42.3024 17.106 42.3053 17.1181C42.3082 17.1302 42.3075 17.1429 42.3034 17.1545C42.0485 17.87 41.7099 18.5095 41.2874 19.0731C39.345 21.6636 36.064 22.938 32.8866 22.1858C31.5481 21.8692 30.3763 21.2438 29.3711 20.3096C29.3611 20.3003 29.355 20.2875 29.3541 20.2739C29.3532 20.2602 29.3575 20.2466 29.3661 20.2359C30.0053 19.4384 30.8167 18.8251 31.7645 18.3692C33.4282 17.5692 35.4348 17.4731 37.1736 18.1661C37.1758 18.1669 37.1776 18.1685 37.1789 18.1705C37.1801 18.1726 37.1806 18.1749 37.1804 18.1773C37.1802 18.1796 37.1792 18.1818 37.1776 18.1836C37.176 18.1853 37.1739 18.1865 37.1716 18.187C35.6799 18.4362 34.4108 19.1054 33.3644 20.1946C33.361 20.1981 33.3585 20.2025 33.3572 20.2073C33.356 20.2121 33.356 20.2172 33.3572 20.222C33.3585 20.2268 33.3609 20.2312 33.3644 20.2348C33.3678 20.2383 33.3721 20.241 33.3769 20.2424C33.6331 20.3214 33.8838 20.3718 34.1291 20.3937C35.7728 20.5396 37.2423 20.0856 38.5107 19.0696C38.6919 18.9247 38.8865 18.8013 39.0413 18.6255C39.4173 18.1997 39.608 17.9837 39.6133 17.9774C39.7092 17.8612 39.7854 17.7534 39.8418 17.6538C39.8453 17.6476 39.8466 17.6403 39.8452 17.6333C39.8438 17.6262 39.84 17.6199 39.8343 17.6155C39.4716 17.3328 39.0727 17.0938 38.6376 16.8987C38.3633 16.7752 37.9168 16.5686 37.5444 16.4447C36.2781 16.0229 34.9951 15.8883 33.6955 16.041C32.4236 16.1903 31.1423 16.6333 30.0606 17.3601C29.6909 17.6084 29.4285 17.7901 29.2735 17.9052C29.0774 18.0502 28.7887 18.321 28.4074 18.7176C27.8946 19.2506 27.4664 19.8395 27.1226 20.4843C27.1184 20.4925 27.1117 20.4992 27.1035 20.5034C27.0953 20.5077 27.086 20.5094 27.0768 20.5082C26.3935 20.4186 25.6882 20.4058 24.9611 20.4699C24.9573 20.4703 24.9534 20.4696 24.9499 20.4681C24.9463 20.4665 24.9432 20.464 24.9409 20.4609C24.9386 20.4578 24.9372 20.4542 24.9367 20.4503C24.9362 20.4465 24.9367 20.4426 24.9382 20.439C25.1324 19.9565 25.3741 19.4927 25.6635 19.0477C25.928 18.6415 26.1772 18.285 26.4112 17.9784C26.7567 17.5254 27.2102 17.0988 27.6497 16.6941C29.4791 15.009 31.8835 14.1001 34.375 14H35.1082Z" fill="#F79800"/>
<path d="M39.5266 29.9191C39.5251 29.9204 39.5232 29.9212 39.5213 29.9213C39.5193 29.9215 39.5174 29.921 39.5158 29.9199C39.5141 29.9188 39.5129 29.9172 39.5122 29.9154C39.5116 29.9136 39.5115 29.9116 39.5121 29.9097C39.9751 28.5328 39.989 27.024 39.4932 25.6485C39.4912 25.6428 39.4877 25.6377 39.4832 25.6336C39.4786 25.6296 39.4731 25.6268 39.4671 25.6256C39.4611 25.6243 39.455 25.6247 39.4492 25.6265C39.4434 25.6283 39.4381 25.6316 39.434 25.6361C38.4487 26.6616 37.9034 27.889 37.7982 29.3183C37.7597 29.8357 37.7858 30.3094 37.8764 30.7395C37.9759 31.2134 38.0944 31.6347 38.2318 32.0034C38.3108 32.2162 38.4155 32.4174 38.5459 32.6073C38.5515 32.6152 38.5597 32.6209 38.5691 32.6233C38.5785 32.6257 38.5885 32.6246 38.5972 32.6202C41.6303 31.1193 43.5881 27.9852 43.5204 24.6156C43.5091 24.0541 43.4207 23.4046 43.2551 22.6672C43.1077 22.0111 42.8593 21.3884 42.5815 20.8443C42.3652 20.4205 42.2513 20.1972 42.2401 20.1743C42.2363 20.167 42.2347 20.1587 42.2354 20.1505C42.2361 20.1424 42.2391 20.1345 42.244 20.128C42.6705 19.5489 43.045 18.9414 43.3676 18.3055C43.3682 18.3042 43.3691 18.3031 43.3704 18.3022C43.3716 18.3014 43.373 18.3009 43.3745 18.3008C43.376 18.3007 43.3775 18.301 43.3789 18.3016C43.3803 18.3023 43.3816 18.3033 43.3825 18.3045C43.7675 18.8425 44.0892 19.3736 44.3477 19.898C44.3839 19.971 44.5024 20.2335 44.7032 20.6855C44.8127 20.9324 44.9114 21.2024 44.9993 21.4954C45.1661 22.052 45.3184 22.604 45.3792 23.165C45.4044 23.399 45.4261 23.5779 45.4444 23.7017C45.5176 24.2039 45.5076 24.7356 45.5016 25.2384C45.496 25.7239 45.428 26.2247 45.2975 26.7407C45.2146 27.0689 45.0938 27.4862 44.9351 27.9927C44.1138 30.6131 42.252 32.9433 39.8009 34.2375C39.6289 34.3281 39.381 34.4378 39.0571 34.5666C38.5053 34.7859 38.1054 34.9426 37.8574 35.0365C37.8437 35.0418 37.8287 35.0426 37.8143 35.039C37.8 35.0353 37.7871 35.0273 37.7773 35.0161C37.5433 34.746 37.3217 34.4458 37.1122 34.1156C36.9714 33.8931 36.8121 33.6755 36.724 33.4371C36.6944 33.3571 36.6516 33.2617 36.5955 33.1508C36.0397 32.056 35.7768 30.8782 35.807 29.6175C35.8565 27.5619 36.5696 25.7851 37.9466 24.2871C38.2051 24.0053 38.532 23.705 38.9272 23.3861C39.6406 22.8096 40.443 22.4079 41.3032 22.1217C41.3093 22.1197 41.3159 22.12 41.3217 22.1227C41.3274 22.1254 41.3319 22.1302 41.3341 22.1361C41.49 22.5456 41.6137 22.9664 41.7049 23.3985C41.7331 23.5312 41.7524 23.735 41.7627 24.0098C41.7633 24.028 41.7658 24.046 41.7701 24.0636C41.8086 24.2235 41.8304 24.3617 41.8353 24.4782C41.9284 26.5451 41.0603 28.5487 39.5266 29.9191Z" fill="#0074FF"/>
<path d="M76.9196 19.5181H75.0449C75.032 19.5181 75.0215 19.5285 75.0215 19.5415V29.371C75.0215 29.3839 75.032 29.3944 75.0449 29.3944H76.9196C76.9325 29.3944 76.943 29.3839 76.943 29.371V19.5415C76.943 19.5285 76.9325 19.5181 76.9196 19.5181Z" fill="#000E3F"/>
<path d="M118.015 19.5156H116.148C116.133 19.5156 116.121 19.5279 116.121 19.543V21.2813C116.121 21.2964 116.133 21.3087 116.148 21.3087H118.015C118.03 21.3087 118.043 21.2964 118.043 21.2813V19.543C118.043 19.5279 118.03 19.5156 118.015 19.5156Z" fill="#000E3F"/>
<path d="M52.7055 29.3925H50.8059C50.8026 29.3924 50.7994 29.3912 50.7968 29.3891C50.7942 29.3871 50.7923 29.3842 50.7915 29.381L48.0367 19.6486C48.036 19.6463 48.036 19.6439 48.0364 19.6416C48.0369 19.6392 48.0379 19.6371 48.0393 19.6352C48.0408 19.6333 48.0426 19.6318 48.0448 19.6307C48.0469 19.6297 48.0492 19.6292 48.0516 19.6292H50.2066C50.21 19.6292 50.2133 19.6303 50.216 19.6323C50.2187 19.6344 50.2206 19.6373 50.2215 19.6406L51.799 25.8626C51.7997 25.8661 51.8016 25.8693 51.8045 25.8716C51.8073 25.8739 51.8108 25.8751 51.8144 25.875C51.818 25.875 51.8215 25.8736 51.8242 25.8713C51.827 25.8689 51.8288 25.8656 51.8294 25.8621L53.1595 19.6411C53.1602 19.6376 53.162 19.6345 53.1647 19.6322C53.1675 19.63 53.1709 19.6287 53.1744 19.6287H55.294C55.2975 19.6287 55.3009 19.6299 55.3036 19.632C55.3063 19.6342 55.3082 19.6372 55.309 19.6406L56.7854 25.8462C56.7863 25.8495 56.7882 25.8524 56.7909 25.8545C56.7936 25.8566 56.797 25.8577 56.8004 25.8577C56.8038 25.8577 56.8071 25.8566 56.8098 25.8545C56.8125 25.8524 56.8144 25.8495 56.8153 25.8462L58.3734 19.6401C58.3743 19.6368 58.3762 19.6339 58.3789 19.6318C58.3816 19.6298 58.3849 19.6287 58.3884 19.6287H60.4552C60.4576 19.6287 60.4599 19.6292 60.462 19.6302C60.4642 19.6313 60.466 19.6328 60.4675 19.6347C60.4689 19.6366 60.4699 19.6387 60.4704 19.6411C60.4708 19.6434 60.4708 19.6458 60.4701 19.6481L57.7432 29.381C57.7423 29.3843 57.7404 29.3872 57.7377 29.3893C57.735 29.3913 57.7317 29.3925 57.7283 29.3925H55.7704C55.767 29.3924 55.7636 29.3912 55.7609 29.3891C55.7582 29.3869 55.7563 29.3839 55.7555 29.3805L54.2686 23.1327C54.2677 23.1294 54.2658 23.1264 54.2631 23.1243C54.2604 23.1222 54.2571 23.1211 54.2536 23.1211C54.2502 23.1211 54.2469 23.1222 54.2442 23.1243C54.2415 23.1264 54.2396 23.1294 54.2387 23.1327L52.7204 29.3805C52.7196 29.3839 52.7177 29.3869 52.715 29.3891C52.7123 29.3912 52.709 29.3924 52.7055 29.3925Z" fill="#000E3F"/>
<path d="M67.1064 29.3681V19.6466C67.1064 19.6423 67.1082 19.6381 67.1113 19.635C67.1143 19.6319 67.1185 19.6302 67.1229 19.6302C68.7855 19.6279 70.2449 19.6282 71.501 19.6312C71.8913 19.6317 72.3682 19.7198 72.7345 19.8826C74.0592 20.47 74.6904 21.8105 74.5241 23.2238C74.3613 24.6121 73.426 25.5719 72.0506 25.8108C71.8631 25.8434 71.5899 25.8591 71.2312 25.8581C70.7155 25.8565 70.0348 25.8558 69.1892 25.8561C69.1818 25.8561 69.1747 25.8591 69.1695 25.8644C69.1643 25.8698 69.1614 25.877 69.1614 25.8845V29.3636C69.1614 29.3713 69.1583 29.3786 69.1529 29.384C69.1475 29.3894 69.1401 29.3925 69.1325 29.3925H67.1308C67.1244 29.3925 67.1182 29.3899 67.1136 29.3853C67.109 29.3808 67.1064 29.3746 67.1064 29.3681ZM69.1604 21.3655V24.1562C69.1604 24.1638 69.1634 24.1712 69.1688 24.1766C69.1742 24.182 69.1816 24.185 69.1892 24.185H71.3467C71.7161 24.185 72.0704 24.0468 72.3316 23.8008C72.5928 23.5549 72.7395 23.2212 72.7395 22.8733V22.6483C72.7395 22.3004 72.5928 21.9668 72.3316 21.7208C72.0704 21.4748 71.7161 21.3366 71.3467 21.3366H69.1892C69.1816 21.3366 69.1742 21.3397 69.1688 21.3451C69.1634 21.3505 69.1604 21.3579 69.1604 21.3655Z" fill="#000E3F"/>
<path d="M95.4338 19.6287H97.7829C97.7863 19.6287 97.7896 19.6297 97.7924 19.6317C97.7952 19.6337 97.7972 19.6364 97.7984 19.6396L101.227 29.3706C101.228 29.3731 101.228 29.3758 101.228 29.3784C101.228 29.381 101.227 29.3835 101.225 29.3857C101.223 29.3879 101.221 29.3896 101.219 29.3908C101.217 29.392 101.214 29.3925 101.211 29.3925H99.0145C99.0111 29.3924 99.0077 29.3913 99.0049 29.3892C99.0022 29.3872 99.0001 29.3843 98.9991 29.381L98.3913 27.3963C98.3902 27.393 98.3882 27.3901 98.3854 27.3881C98.3826 27.386 98.3793 27.3849 98.3758 27.3848H94.8245C94.8211 27.3849 94.8179 27.3859 94.8151 27.3879C94.8123 27.3898 94.8102 27.3926 94.8091 27.3958L94.1002 29.3815C94.0991 29.3847 94.097 29.3875 94.0943 29.3894C94.0915 29.3914 94.0882 29.3924 94.0848 29.3925H91.9607C91.9581 29.3924 91.9555 29.3918 91.9532 29.3906C91.9509 29.3894 91.9488 29.3876 91.9473 29.3855C91.9458 29.3833 91.9448 29.3809 91.9445 29.3783C91.9441 29.3757 91.9444 29.373 91.9453 29.3706L95.4184 19.6396C95.4195 19.6364 95.4216 19.6337 95.4244 19.6317C95.4272 19.6297 95.4305 19.6287 95.4338 19.6287ZM95.3413 25.6704C95.3405 25.6727 95.3404 25.6751 95.3408 25.6774C95.3412 25.6797 95.3421 25.6819 95.3435 25.6838C95.3449 25.6857 95.3468 25.6872 95.3489 25.6883C95.351 25.6893 95.3533 25.6899 95.3557 25.6898L97.775 25.6983C97.7773 25.6983 97.7797 25.6978 97.7818 25.6968C97.7839 25.6957 97.7857 25.6942 97.7872 25.6923C97.7886 25.6904 97.7895 25.6882 97.7899 25.6859C97.7903 25.6835 97.7901 25.6811 97.7894 25.6789L96.5927 21.8717C96.5917 21.8687 96.5898 21.8661 96.5873 21.8643C96.5847 21.8625 96.5817 21.8615 96.5785 21.8615C96.5754 21.8615 96.5723 21.8625 96.5698 21.8643C96.5672 21.8661 96.5653 21.8687 96.5643 21.8717L95.3413 25.6704Z" fill="#000E3F"/>
<path d="M66.4001 27.2582C66.4033 27.2583 66.4065 27.259 66.4093 27.2605C66.4121 27.2619 66.4146 27.264 66.4165 27.2666C66.4184 27.2691 66.4196 27.2721 66.4202 27.2752C66.4207 27.2784 66.4205 27.2816 66.4196 27.2846C66.0459 28.4578 65.2904 29.1914 64.1531 29.4854C63.5278 29.6472 62.7294 29.6163 62.1221 29.4774C60.8912 29.1957 60.1191 28.437 59.8058 27.2015C59.6322 26.5172 59.583 25.8005 59.658 25.0515C59.7204 24.4322 59.9135 23.8681 60.2374 23.359C61.0284 22.1165 62.6268 21.779 63.9853 22.0488C66.0303 22.455 66.552 24.4571 66.5181 26.2522C66.518 26.2609 66.5145 26.2693 66.5083 26.2755C66.5022 26.2816 66.4939 26.285 66.4853 26.285H61.5929C61.5875 26.285 61.5822 26.2861 61.5772 26.2883C61.5722 26.2904 61.5677 26.2935 61.564 26.2974C61.5603 26.3013 61.5574 26.3059 61.5555 26.311C61.5536 26.3161 61.5528 26.3215 61.5531 26.3269C61.6059 27.2772 62.1455 28.0552 63.1635 28.0622C63.6921 28.0657 64.2656 27.8252 64.4353 27.2931C64.4385 27.283 64.4448 27.2741 64.4533 27.2678C64.4618 27.2616 64.4721 27.2582 64.4826 27.2582H66.4001ZM61.6452 25.0674H64.5284C64.5332 25.0674 64.5377 25.0655 64.5411 25.0622C64.5445 25.0588 64.5463 25.0543 64.5463 25.0495V25.0231C64.5463 24.6161 64.3926 24.2257 64.1188 23.9379C63.8451 23.6501 63.4739 23.4884 63.0868 23.4884C62.6997 23.4884 62.3285 23.6501 62.0547 23.9379C61.781 24.2257 61.6273 24.6161 61.6273 25.0231V25.0495C61.6273 25.0543 61.6291 25.0588 61.6325 25.0622C61.6359 25.0655 61.6404 25.0674 61.6452 25.0674Z" fill="#000E3F"/>
<path d="M82.1494 28.8019C82.1489 28.7995 82.1477 28.7972 82.146 28.7953C82.1444 28.7934 82.1423 28.7921 82.1399 28.7913C82.1376 28.7905 82.1351 28.7904 82.1327 28.791C82.1304 28.7915 82.1282 28.7927 82.1265 28.7945C81.4803 29.4381 80.5888 29.6397 79.6748 29.5845C78.8316 29.5337 78.0565 29.2465 77.7085 28.4226C77.6047 28.176 77.5531 27.8963 77.5537 27.5833C77.5542 26.9516 77.6802 26.3592 78.1406 25.9033C78.5857 25.4622 79.2472 25.2765 79.87 25.1715C80.3439 25.0915 80.806 25.0157 81.2563 24.944C81.3761 24.9251 81.5255 24.88 81.7044 24.8086C81.9808 24.6994 82.1096 24.4799 82.0906 24.15C82.0463 23.3854 80.8168 23.3884 80.3185 23.5193C79.8879 23.6333 79.642 24.0793 79.5852 24.491C79.584 24.4995 79.5798 24.5074 79.5733 24.513C79.5668 24.5187 79.5585 24.5218 79.5499 24.5219L77.8181 24.5224C77.8139 24.5224 77.8099 24.5215 77.8061 24.5199C77.8023 24.5183 77.7989 24.5159 77.796 24.513C77.7932 24.51 77.791 24.5064 77.7896 24.5026C77.7881 24.4987 77.7875 24.4946 77.7877 24.4905C77.8126 23.9942 77.9136 23.4735 78.178 23.0693C78.6399 22.3619 79.4727 22.0782 80.2826 21.9995C81.211 21.9094 82.2913 21.9557 83.0763 22.4665C83.8384 22.9628 84.0545 23.9001 84.0574 24.7514C84.0618 26.0725 84.0631 27.6084 84.0614 29.359C84.0614 29.3675 84.058 29.3758 84.0519 29.3818C84.0459 29.3879 84.0377 29.3913 84.0291 29.3913L82.2758 29.3918C82.27 29.3918 82.2643 29.3898 82.2597 29.3861C82.2552 29.3823 82.2521 29.3772 82.2509 29.3714L82.1494 28.8019ZM82.119 25.8938C81.9375 26.0163 81.7342 26.103 81.5092 26.1541C81.3443 26.1916 81.0386 26.2588 80.5923 26.3558C79.9486 26.4951 79.407 26.7834 79.4832 27.5201C79.521 27.8871 79.7098 28.1034 80.0497 28.1687C80.9382 28.3405 81.8223 27.883 82.0787 26.989C82.1119 26.8735 82.1281 26.6933 82.1275 26.4483C82.1275 26.3348 82.1311 26.1536 82.1384 25.9047C82.1386 25.9024 82.138 25.9001 82.1369 25.8981C82.1358 25.8961 82.1341 25.8944 82.1321 25.8933C82.1301 25.8921 82.1278 25.8916 82.1255 25.8917C82.1232 25.8918 82.1209 25.8925 82.119 25.8938Z" fill="#000E3F"/>
<path d="M106.17 22.9937C106.172 22.9963 106.175 22.9982 106.178 22.9992C106.181 23.0002 106.184 23.0003 106.187 22.9993C106.19 22.9984 106.193 22.9965 106.195 22.994C106.197 22.9915 106.198 22.9884 106.198 22.9852V22.1942C106.198 22.186 106.201 22.1782 106.207 22.1724C106.213 22.1666 106.221 22.1633 106.229 22.1633H108.08C108.089 22.1633 108.099 22.1672 108.105 22.174C108.112 22.1808 108.116 22.19 108.116 22.1997C108.117 22.4718 108.118 24.9364 108.117 29.5935C108.116 29.8148 108.088 30.0566 108.032 30.3188C107.596 32.3518 105.487 33.08 103.647 32.743C102.168 32.4717 100.98 31.398 101.02 29.812C101.02 29.804 101.023 29.7964 101.029 29.7909C101.035 29.7853 101.042 29.7821 101.05 29.7821H102.777C102.781 29.7821 102.785 29.7829 102.788 29.7844C102.792 29.7859 102.795 29.788 102.798 29.7908C102.8 29.7935 102.803 29.7967 102.804 29.8003C102.805 29.8039 102.806 29.8077 102.806 29.8115C102.802 31.0879 104.205 31.387 105.178 31.0231C105.494 30.9047 105.749 30.7165 105.944 30.4586C106.143 30.1958 106.199 29.8693 106.2 29.4909C106.202 29.0592 106.201 28.724 106.197 28.4854C106.197 28.483 106.196 28.4807 106.195 28.4787C106.194 28.4768 106.191 28.4754 106.189 28.4749C106.187 28.4744 106.184 28.4748 106.182 28.476C106.18 28.4772 106.179 28.4791 106.178 28.4814C105.649 29.6343 103.726 29.6343 102.764 29.1649C101.332 28.4675 100.941 26.868 101.023 25.399C101.124 23.5945 102.313 21.9294 104.269 21.9692C105.089 21.9861 105.723 22.3276 106.17 22.9937ZM104.591 23.6383C103.618 23.6572 103.141 24.3183 103.044 25.2298C102.96 26.0203 102.995 26.7774 103.472 27.3778C103.765 27.7471 104.2 27.9582 104.674 27.9487C105.149 27.9398 105.575 27.7123 105.854 27.332C106.307 26.7137 106.313 25.9556 106.198 25.1686C106.066 24.2621 105.564 23.6199 104.591 23.6383Z" fill="#000E3F"/>
<path d="M113.33 28.7951C112.684 29.4383 111.792 29.6399 110.878 29.5841C110.035 29.5329 109.26 29.2456 108.913 28.4218C108.809 28.1752 108.757 27.8954 108.758 27.5825C108.759 26.9508 108.885 26.3584 109.345 25.9024C109.791 25.4614 110.452 25.2762 111.075 25.1712C111.549 25.0915 112.011 25.0158 112.461 24.9442C112.581 24.9252 112.731 24.8803 112.909 24.8093C113.186 24.7001 113.315 24.4805 113.296 24.1507C113.252 23.3861 112.022 23.3885 111.524 23.5195C111.093 23.633 110.848 24.079 110.79 24.4907C110.789 24.4992 110.785 24.507 110.778 24.5127C110.772 24.5184 110.764 24.5215 110.755 24.5215H109.023C109.019 24.5215 109.015 24.5207 109.011 24.5191C109.007 24.5175 109.004 24.5151 109.001 24.5121C108.998 24.5091 108.996 24.5056 108.995 24.5017C108.993 24.4979 108.993 24.4938 108.993 24.4897C109.018 23.9934 109.119 23.4727 109.384 23.0685C109.846 22.3616 110.679 22.0778 111.489 21.9997C112.417 21.9096 113.497 21.9564 114.282 22.4676C115.044 22.9639 115.26 23.9013 115.263 24.7525C115.267 26.0737 115.267 27.6095 115.265 29.3601C115.265 29.3687 115.262 29.3769 115.256 29.383C115.249 29.3891 115.241 29.3925 115.233 29.3925H113.479C113.474 29.3925 113.468 29.3904 113.463 29.3867C113.459 29.383 113.456 29.3778 113.455 29.3721L113.353 28.8026C113.352 28.8001 113.351 28.7978 113.35 28.796C113.348 28.7941 113.346 28.7927 113.344 28.7919C113.341 28.7912 113.339 28.7911 113.336 28.7916C113.334 28.7922 113.332 28.7934 113.33 28.7951ZM113.324 25.8925C113.143 26.0153 112.939 26.1022 112.714 26.1533C112.549 26.1908 112.244 26.2582 111.797 26.3554C111.153 26.4953 110.612 26.7835 110.688 27.5208C110.726 27.8878 110.915 28.104 111.255 28.1694C112.144 28.3406 113.028 27.8827 113.284 26.9881C113.317 26.8726 113.334 26.6924 113.333 26.4475C113.333 26.334 113.337 26.1526 113.344 25.9034C113.344 25.9011 113.343 25.8988 113.342 25.8968C113.341 25.8947 113.339 25.8931 113.337 25.8919C113.335 25.8908 113.333 25.8902 113.331 25.8903C113.328 25.8904 113.326 25.8912 113.324 25.8925Z" fill="#000E3F"/>
<path d="M120.783 23.152C121.145 22.5248 121.68 22.1495 122.387 22.026C123.822 21.7761 125.146 22.2864 125.441 23.8345C125.474 24.0071 125.487 24.2548 125.481 24.5777C125.481 24.6049 125.48 26.2044 125.481 29.376C125.481 29.3803 125.479 29.3845 125.476 29.3876C125.473 29.3907 125.469 29.3924 125.465 29.3924H123.583C123.575 29.3924 123.568 29.3894 123.563 29.3841C123.558 29.3788 123.555 29.3716 123.555 29.364C123.555 29.1294 123.555 27.6961 123.555 25.0641C123.555 24.7972 123.53 24.5467 123.479 24.3124C123.401 23.951 123.183 23.7303 122.825 23.6503C122.373 23.5494 121.96 23.579 121.585 23.7389C121.029 23.9759 120.846 24.621 120.846 25.202C120.846 27.1039 120.846 28.4907 120.846 29.3625C120.846 29.3705 120.843 29.3781 120.838 29.3837C120.832 29.3893 120.824 29.3924 120.816 29.3924H118.955C118.947 29.3924 118.94 29.3893 118.934 29.3838C118.929 29.3783 118.926 29.3708 118.926 29.363V22.1928C118.926 22.1849 118.929 22.1773 118.934 22.1717C118.94 22.1661 118.947 22.1629 118.955 22.1629H120.726C120.734 22.1629 120.743 22.1663 120.749 22.1722C120.755 22.1782 120.758 22.1863 120.758 22.1948V23.1456C120.758 23.1484 120.759 23.1512 120.761 23.1534C120.763 23.1557 120.765 23.1573 120.768 23.158C120.771 23.1587 120.774 23.1585 120.777 23.1575C120.779 23.1564 120.782 23.1545 120.783 23.152Z" fill="#000E3F"/>
<path d="M27.9953 26.6021C28.2213 26.7979 28.3668 26.9229 28.4318 26.977C29.3501 27.7403 30.3827 28.2442 31.5296 28.4888C31.5406 28.4911 31.5474 28.4916 31.55 28.4903C31.5584 28.4864 31.565 28.4796 31.5688 28.4712C31.5725 28.4628 31.5731 28.4533 31.5705 28.4445C30.9397 26.3756 29.3587 24.8877 27.2595 24.3043C27.0495 24.2461 26.8075 24.2291 26.6104 24.1719C26.5893 24.166 26.5673 24.1636 26.5452 24.1649C26.4629 24.1702 26.3336 24.1541 26.1574 24.1166C26.143 24.1135 26.1281 24.1134 26.1136 24.1162C26.0992 24.1189 26.0854 24.1246 26.0732 24.1328C26.061 24.1411 26.0505 24.1517 26.0425 24.164C26.0345 24.1764 26.029 24.1902 26.0265 24.2047C26.0182 24.2512 26.0127 24.3259 26.0101 24.4288C25.9659 26.179 26.3869 27.7884 27.273 29.2569C28.6494 31.5393 30.9975 33.0745 33.6403 33.4369C34.1281 33.5036 34.5473 33.5086 35.0655 33.5006C35.0759 33.5005 35.0862 33.5035 35.095 33.5093C35.1037 33.515 35.1106 33.5233 35.1148 33.533C35.3902 34.1867 35.737 34.8057 36.1552 35.3898C36.1563 35.3912 36.1571 35.393 36.1573 35.3949C36.1576 35.3968 36.1573 35.3987 36.1565 35.4005C36.1558 35.4022 36.1545 35.4037 36.153 35.4048C36.1514 35.4059 36.1496 35.4065 36.1477 35.4067C35.4544 35.4784 34.7738 35.5029 34.1057 35.4804C33.598 35.4634 33.2022 35.3838 32.6337 35.2678C31.9552 35.1294 31.4022 34.9701 30.8123 34.7426C30.4539 34.6042 30.1502 34.4111 29.8068 34.2418C29.6226 34.1512 29.4596 34.064 29.3179 33.98C26.1679 32.1167 24.2314 28.9353 24.0323 25.2755C24.0038 24.7498 24.0167 24.2522 24.0711 23.7826C24.1345 23.2364 24.214 22.7447 24.3096 22.3076C24.3141 22.2868 24.3248 22.2679 24.3402 22.2532C24.3557 22.2386 24.3752 22.2289 24.3962 22.2255C25.0433 22.1215 25.7761 22.0672 26.4626 22.1533C27.0748 22.23 27.3895 22.2852 27.9505 22.4172C28.2243 22.4815 28.4367 22.5443 28.5876 22.6053C30.4673 23.3646 31.8844 24.6141 32.8388 26.3537C33.4963 27.5521 33.8205 28.8849 33.8115 30.352C33.8085 30.7966 33.7209 31.2994 33.6498 31.6871C33.6488 31.6926 33.6459 31.6975 33.6417 31.701C33.6375 31.7044 33.6322 31.7062 33.6269 31.7061C33.4934 31.7054 33.3587 31.6851 33.2226 31.6453C32.8398 31.5343 32.4486 31.4547 32.0832 31.2799C31.5819 31.04 31.1618 30.825 30.7058 30.5079C29.3601 29.573 28.4459 28.2779 27.9634 26.6225C27.9624 26.6185 27.9626 26.6142 27.9642 26.6103C27.9657 26.6064 27.9684 26.6031 27.972 26.6008C27.9755 26.5985 27.9796 26.5975 27.9838 26.5977C27.988 26.5979 27.992 26.5995 27.9953 26.6021Z" fill="#7EE523"/>
<path d="M89.47 28.5147C89.4693 28.5136 89.4683 28.5127 89.4672 28.5121C89.466 28.5115 89.4647 28.5112 89.4634 28.5112C89.4621 28.5113 89.4608 28.5117 89.4597 28.5124C89.4586 28.5131 89.4577 28.5141 89.4571 28.5152C89.2606 28.8597 88.9765 29.1089 88.6049 29.2629C87.9816 29.5218 87.2299 29.5392 86.5883 29.3311C85.755 29.0603 85.1676 28.4192 84.952 27.5649C84.8966 27.3449 84.8707 27.0107 84.8744 26.5624C84.878 26.0818 84.8788 24.7109 84.8769 22.4496C84.8769 22.3394 84.8805 22.2523 84.8878 22.1882C84.8887 22.1813 84.892 22.175 84.8971 22.1704C84.9022 22.1658 84.9088 22.1633 84.9157 22.1633H86.7595C86.7692 22.1633 86.7784 22.1672 86.7852 22.1741C86.792 22.181 86.7959 22.1904 86.7959 22.2002C86.7978 22.5274 86.799 24.0375 86.7993 26.7306C86.7997 26.9015 86.847 27.1031 86.9412 27.3355C87.2444 28.0836 88.4406 28.0369 88.9742 27.6162C89.3041 27.3567 89.4709 27.0034 89.4745 26.5564C89.4765 26.3068 89.4773 24.8475 89.477 22.1783C89.477 22.1742 89.4786 22.1703 89.4815 22.1674C89.4844 22.1645 89.4883 22.1628 89.4924 22.1628H91.3597C91.3684 22.1628 91.3767 22.1663 91.3829 22.1725C91.3891 22.1786 91.3925 22.187 91.3925 22.1957C91.3928 23.483 91.393 25.9614 91.393 29.6308C91.3925 30.8305 90.8305 31.8644 89.7946 32.412C89.0424 32.8097 88.1733 32.8939 87.328 32.7714C86.2861 32.6206 85.4812 32.1098 85.1053 31.1341C84.9381 30.6987 84.8634 30.2535 84.8813 29.7986C84.8816 29.7941 84.8835 29.7899 84.8868 29.7869C84.89 29.7838 84.8943 29.7821 84.8988 29.7821H86.6291C86.6344 29.7821 86.6397 29.7832 86.6446 29.7852C86.6496 29.7873 86.654 29.7903 86.6578 29.7941C86.6615 29.7979 86.6645 29.8024 86.6665 29.8074C86.6685 29.8123 86.6695 29.8176 86.6694 29.8229C86.6651 30.0589 86.7117 30.2766 86.8093 30.4761C87.0453 30.9584 87.4963 31.1252 88.018 31.1625C88.9225 31.2272 89.4616 30.4542 89.4735 29.6298C89.4772 29.368 89.4773 29.0006 89.474 28.5277C89.474 28.5257 89.4739 28.5238 89.4736 28.5223C89.4733 28.5208 89.473 28.5198 89.4725 28.5192C89.4719 28.5179 89.471 28.5164 89.47 28.5147Z" fill="#000E3F"/>
<path d="M118.021 22.1633H116.143C116.131 22.1633 116.121 22.1729 116.121 22.1847V29.3719C116.121 29.3838 116.131 29.3933 116.143 29.3933H118.021C118.033 29.3933 118.043 29.3838 118.043 29.3719V22.1847C118.043 22.1729 118.033 22.1633 118.021 22.1633Z" fill="#000E3F"/>
<path d="M115.02 33.2473C115.024 33.2473 115.028 33.2482 115.032 33.25C115.036 33.2517 115.039 33.2542 115.042 33.2573C115.045 33.2604 115.047 33.2641 115.048 33.268C115.049 33.2719 115.049 33.2761 115.049 33.2801C114.972 33.8145 114.708 34.2258 114.256 34.5142C113.68 34.8816 112.848 34.901 112.261 34.56C111.717 34.2439 111.443 33.5913 111.409 32.9685C111.375 32.3637 111.409 31.8002 111.743 31.2929C112.125 30.7135 112.891 30.5552 113.533 30.6254C114.381 30.718 114.989 31.2611 115.056 32.1243C115.056 32.1276 115.055 32.1309 115.054 32.134C115.053 32.1371 115.052 32.14 115.049 32.1424C115.047 32.1449 115.044 32.1468 115.041 32.1481C115.038 32.1495 115.035 32.1502 115.031 32.1501H114.023C114.014 32.1502 114.006 32.147 113.999 32.1413C113.992 32.1355 113.987 32.1276 113.986 32.1188C113.914 31.6962 113.588 31.4657 113.168 31.4995C112.379 31.5642 112.385 32.6002 112.496 33.1647C112.589 33.6356 112.948 34.0323 113.469 33.8745C113.767 33.7843 113.937 33.5831 113.98 33.2712C113.981 33.2646 113.985 33.2586 113.99 33.2542C113.995 33.2498 114.001 33.2473 114.008 33.2473H115.02Z" fill="#7EE523"/>
<path d="M119.282 32.9518C119.282 33.1931 119.234 33.432 119.141 33.6548C119.048 33.8776 118.912 34.08 118.742 34.2504C118.571 34.4207 118.368 34.5558 118.145 34.6477C117.921 34.7397 117.682 34.7868 117.441 34.7864L117.089 34.7858C116.847 34.7854 116.608 34.7374 116.385 34.6447C116.163 34.5519 115.96 34.4162 115.79 34.2452C115.62 34.0743 115.485 33.8714 115.393 33.6483C115.301 33.4251 115.253 33.1861 115.254 32.9447L115.255 32.4619C115.255 32.2205 115.303 31.9816 115.396 31.7588C115.489 31.536 115.624 31.3336 115.795 31.1632C115.966 30.9929 116.169 30.8578 116.392 30.7659C116.615 30.6739 116.854 30.6268 117.096 30.6272L117.448 30.6278C117.69 30.6282 117.929 30.6762 118.151 30.7689C118.374 30.8617 118.577 30.9974 118.747 31.1684C118.917 31.3393 119.052 31.5422 119.144 31.7653C119.236 31.9885 119.283 32.2275 119.283 32.4689L119.282 32.9518ZM116.325 32.7098C116.324 33.345 116.54 33.911 117.278 33.912C118.017 33.913 118.234 33.347 118.235 32.7123C118.236 32.0771 118.02 31.5111 117.281 31.5101C116.543 31.5091 116.325 32.0746 116.325 32.7098Z" fill="#7EE523"/>
<path d="M120.68 31.2153C120.68 31.2185 120.681 31.2216 120.683 31.2241C120.685 31.2267 120.688 31.2285 120.691 31.2294C120.694 31.2302 120.697 31.23 120.7 31.2288C120.703 31.2276 120.705 31.2255 120.707 31.2228C120.949 30.8006 121.303 30.6154 121.787 30.6115C122.168 30.608 122.47 30.6687 122.718 30.9495C122.818 31.0623 122.884 31.1443 122.917 31.1954C122.919 31.1986 122.922 31.2014 122.925 31.2035C122.928 31.2055 122.932 31.2069 122.935 31.2073C122.939 31.2078 122.943 31.2074 122.947 31.2062C122.95 31.205 122.954 31.203 122.957 31.2004C122.957 31.2 122.985 31.1544 123.041 31.0635C123.198 30.8046 123.505 30.6573 123.81 30.6234C124.49 30.5473 125.097 30.8604 125.315 31.5264C125.358 31.6572 125.379 31.9057 125.378 32.2721C125.375 33.8043 125.374 34.6011 125.375 34.6625C125.375 34.6661 125.374 34.6697 125.373 34.673C125.372 34.6763 125.37 34.6793 125.367 34.6819C125.365 34.6844 125.362 34.6864 125.358 34.6878C125.355 34.6892 125.352 34.6899 125.348 34.6899H124.362C124.356 34.6899 124.35 34.6876 124.346 34.6834C124.342 34.6792 124.339 34.6735 124.339 34.6675C124.34 34.2364 124.34 33.4328 124.339 32.2567C124.339 31.9127 124.173 31.5339 123.793 31.4836C123.329 31.4214 123.064 31.8873 123.061 32.307C123.057 32.8681 123.056 33.6537 123.059 34.6635C123.059 34.6705 123.056 34.6772 123.052 34.6822C123.047 34.6871 123.04 34.6899 123.033 34.6899H122.021C122.016 34.6899 122.011 34.688 122.008 34.6845C122.004 34.6811 122.002 34.6764 122.002 34.6715C122.001 33.88 122.002 33.0794 122.006 32.2696C122.007 32.0118 121.977 31.6265 121.647 31.5443C121.409 31.4851 121.112 31.4916 120.935 31.6713C120.78 31.8286 120.748 32.0486 120.749 32.2915C120.75 33.5563 120.749 34.3474 120.746 34.665C120.746 34.6716 120.743 34.678 120.739 34.6826C120.734 34.6873 120.728 34.6899 120.721 34.6899H119.714C119.707 34.6899 119.699 34.6868 119.694 34.6813C119.689 34.6758 119.686 34.6683 119.686 34.6606V30.7369C119.686 30.7312 119.688 30.7258 119.692 30.7218C119.696 30.7178 119.701 30.7155 119.706 30.7155H120.653C120.66 30.7155 120.667 30.7183 120.672 30.7234C120.677 30.7284 120.68 30.7353 120.68 30.7424V31.2153Z" fill="#7EE523"/>
<path d="M111.028 33.5993L109.963 33.5975C109.945 33.5974 109.93 33.6123 109.93 33.6308L109.928 34.6552C109.928 34.6736 109.943 34.6886 109.961 34.6886L111.026 34.6905C111.045 34.6905 111.06 34.6756 111.06 34.6572L111.062 33.6327C111.062 33.6143 111.047 33.5994 111.028 33.5993Z" fill="#7EE523"/>
</g>
<path d="M139.98 25.3H214.406" stroke="#B0B0B0" stroke-width="0.57031" stroke-dasharray="3.42 3.42"/>
<rect x="165.645" y="13.8938" width="22.8124" height="22.8124" rx="11.4062" fill="#3EA76A"/>
<path d="M174.194 24.7297L171.918 27.011L174.194 29.2922V27.5813H178.191V26.4407H174.194V24.7297ZM182.184 23.5891L179.908 21.3079V23.0188H175.91V24.1594H179.908V25.8703L182.184 23.5891Z" fill="white"/>
<path d="M242.169 25.6818C242.169 25.1586 241.973 24.7008 241.58 24.3087C241.187 23.9165 240.73 23.7202 240.207 23.7202C239.684 23.7202 239.226 23.9165 238.834 24.3087C238.441 24.7008 238.245 25.1586 238.245 25.6818C238.245 26.205 238.441 26.6623 238.834 27.0549C239.226 27.4471 239.684 27.6434 240.207 27.6434C240.73 27.6434 241.187 27.4471 241.58 27.0549C241.973 26.6623 242.169 26.205 242.169 25.6818ZM246.092 24.8318V26.5318C246.092 26.5976 246.092 26.6623 246.026 26.7282L245.896 26.8586L244.457 27.0549C244.391 27.3166 244.26 27.5781 244.13 27.7086C244.326 27.9702 244.588 28.297 244.98 28.755C245.046 28.8208 245.046 28.8854 245.046 28.9513C245.046 29.0165 245.046 29.0818 244.98 29.1471C244.849 29.3434 244.588 29.6049 244.26 29.997C243.934 30.3896 243.672 30.5202 243.541 30.5202C243.476 30.5202 243.411 30.5202 243.345 30.4544L242.234 29.6044C242.038 29.736 241.776 29.8013 241.514 29.8666C241.449 30.5855 241.384 31.0434 241.318 31.3049C241.318 31.5008 241.187 31.5665 241.058 31.5665H239.357C239.291 31.5665 239.226 31.5665 239.16 31.5008C239.096 31.4355 239.096 31.3702 239.096 31.3049L238.9 29.8666C238.638 29.8007 238.441 29.6703 238.179 29.6049L237.069 30.455C237.003 30.5207 236.938 30.5207 236.873 30.5207C236.807 30.5207 236.742 30.5207 236.676 30.455C236.023 29.8666 235.63 29.4739 235.434 29.1471C235.368 29.0818 235.368 29.0165 235.368 28.9513C235.368 28.8854 235.368 28.8202 235.434 28.755C235.499 28.6239 235.63 28.4934 235.826 28.2318C236.023 27.9702 236.153 27.8397 236.218 27.7086C236.088 27.4471 235.957 27.1855 235.892 26.9245L234.518 26.7282C234.453 26.7282 234.388 26.6623 234.388 26.6623C234.388 26.6623 234.322 26.5971 234.322 26.5318V24.8318C234.322 24.766 234.322 24.7008 234.388 24.6355L234.518 24.505L235.957 24.3087C236.023 24.0471 236.153 23.8507 236.284 23.5898C236.088 23.3281 235.826 22.9355 235.434 22.5434C235.368 22.4776 235.368 22.4123 235.368 22.3471C235.368 22.2819 235.368 22.2165 235.434 22.1513C235.565 21.955 235.826 21.6934 236.218 21.3013C236.611 20.9087 236.807 20.7781 236.938 20.7781C237.004 20.7781 237.069 20.7781 237.134 20.8434L238.179 21.6934C238.376 21.5624 238.638 21.497 238.9 21.4318C238.966 20.7123 239.03 20.255 239.096 19.9934C239.16 19.8624 239.226 19.7971 239.357 19.7971H241.058C241.123 19.7971 241.187 19.7971 241.253 19.8629C241.319 19.9282 241.319 19.9934 241.319 20.0587L241.514 21.497C241.776 21.5629 241.973 21.6934 242.234 21.7587L243.345 20.9087C243.411 20.8429 243.476 20.8429 243.541 20.8429C243.607 20.8429 243.672 20.8429 243.738 20.9087C244.391 21.497 244.849 21.955 244.98 22.2165C245.046 22.2819 245.046 22.2819 245.046 22.4123C245.046 22.4782 245.046 22.5434 244.98 22.6086C244.915 22.7397 244.784 22.8703 244.588 23.1318C244.391 23.3934 244.26 23.5239 244.196 23.655C244.326 23.9165 244.457 24.1782 244.522 24.3739L245.896 24.5702C245.961 24.5702 246.026 24.636 246.026 24.636C246.026 24.636 246.092 24.7666 246.092 24.8318Z" fill="#45AAF2"/>
<path d="M228.438 25.758V24.7769C228.591 24.7809 228.742 24.7472 228.879 24.6788C229.016 24.6104 229.134 24.5094 229.223 24.3849C229.419 24.1232 229.484 23.7964 229.484 23.4037V19.4159C229.484 18.6317 229.746 17.9775 230.204 17.5201C230.726 16.9965 231.25 16.8 231.904 16.8H233.081V17.9116H231.904C231.577 17.9116 231.251 18.0422 230.989 18.3696C230.727 18.6964 230.596 19.0233 230.596 19.4806V23.6C230.596 24.5158 230.27 25.0385 229.681 25.3C230.27 25.5616 230.596 26.15 230.596 27.0001V31.1842C230.596 31.6422 230.727 32.0342 230.989 32.2963C231.251 32.6232 231.577 32.7537 231.905 32.7537H233.081V33.8H231.904C231.251 33.8 230.662 33.5384 230.204 33.0811C229.681 32.6232 229.485 31.9696 229.485 31.1847V27.1305C229.485 26.7384 229.42 26.4117 229.224 26.15C229.135 26.0252 229.017 25.9242 228.88 25.8558C228.743 25.7875 228.591 25.7538 228.438 25.758ZM247.4 32.6884H248.577C248.903 32.6884 249.23 32.558 249.493 32.2311C249.753 31.9037 249.884 31.5768 249.884 31.1195V27.0001C249.884 26.0843 250.211 25.4964 250.799 25.3C250.211 25.0385 249.884 24.4501 249.884 23.6V19.4806C249.884 19.0233 249.753 18.6306 249.492 18.3696C249.23 18.0422 248.903 17.9116 248.577 17.9116H247.4V16.8H248.577C249.23 16.8 249.818 17.0617 250.277 17.5195C250.734 17.9769 250.996 18.6306 250.996 19.4154V23.4037C250.996 23.7964 251.061 24.1232 251.258 24.3849C251.454 24.6464 251.715 24.7769 251.976 24.7769V25.758C251.715 25.758 251.519 25.8885 251.323 26.15C251.127 26.4117 251.061 26.7384 251.061 27.1305V31.1847C251.061 31.969 250.799 32.558 250.342 33.0806C249.818 33.5384 249.23 33.8 248.577 33.8H247.4V32.6884ZM257.207 28.4384L257.861 27.5885C258.188 27.9811 258.581 28.2421 259.038 28.5043C259.496 28.7653 260.018 28.8312 260.607 28.8312C260.999 28.8312 261.327 28.7653 261.588 28.7001C261.849 28.6343 262.111 28.5037 262.242 28.308C262.438 28.2421 262.569 28.0463 262.635 27.9153C262.7 27.7196 262.765 27.5885 262.765 27.3922C262.765 27.1305 262.7 26.9348 262.569 26.7384C262.451 26.5549 262.295 26.3988 262.111 26.2806C261.915 26.15 261.654 26.0848 261.392 25.9537C261.13 25.8232 260.868 25.758 260.542 25.6922C260.215 25.6269 259.953 25.5616 259.692 25.4311C259.398 25.3508 259.113 25.2411 258.841 25.1037C258.581 24.9733 258.319 24.8422 258.123 24.6464C257.926 24.4501 257.731 24.2538 257.665 23.9921C257.535 23.7311 257.469 23.4037 257.469 23.0769C257.469 22.358 257.731 21.7695 258.319 21.3111C258.907 20.8537 259.627 20.6579 260.477 20.6579C261.785 20.6579 262.83 21.05 263.615 21.9001L262.961 22.6842C262.307 21.9658 261.457 21.6385 260.411 21.6385C259.888 21.6385 259.43 21.7695 259.103 22.0306C258.777 22.2921 258.581 22.619 258.581 23.0116C258.581 23.208 258.646 23.4037 258.777 23.6C258.907 23.7964 259.038 23.8617 259.234 23.9921C259.43 24.1232 259.692 24.1884 259.953 24.2538C260.215 24.3195 260.477 24.3849 260.803 24.5153C261.13 24.6464 261.392 24.7769 261.654 24.8422C261.947 24.9225 262.232 25.0322 262.504 25.1696C262.765 25.3 263.026 25.4306 263.223 25.6269C263.419 25.8232 263.615 26.019 263.681 26.2806C263.746 26.5421 263.876 26.869 263.876 27.1964C263.876 27.4579 263.811 27.7196 263.746 27.9806C263.681 28.2421 263.55 28.4384 263.419 28.7001L262.83 29.2885C262.564 29.496 262.249 29.6312 261.915 29.6805C261.457 29.8116 261.065 29.8769 260.607 29.8769C259.169 29.8769 258.057 29.4196 257.207 28.4384ZM267.604 29.7464V20.9196H268.715V24.6464H273.881V20.8537H274.991V29.6805H273.881V25.6269H268.715V29.6805H267.604V29.7464ZM279.111 29.7464V20.9196H280.222V29.7464H279.111ZM284.407 29.7464V20.9196H287.938C288.788 20.9196 289.441 21.1806 289.965 21.7037C290.488 22.2269 290.684 22.8805 290.684 23.6C290.685 24.299 290.429 24.974 289.965 25.4964C289.441 25.9537 288.788 26.2153 287.938 26.2153H285.453V29.7464H284.407ZM285.518 25.2348H287.807C288.33 25.2348 288.723 25.1037 289.115 24.7769C289.507 24.4501 289.638 24.058 289.638 23.5348C289.638 23.0116 289.441 22.619 289.115 22.2921C288.788 21.9653 288.33 21.8348 287.807 21.8348H285.518V25.2348ZM294.019 29.7464V20.9196H300.491V22.8811H296.307V24.2538H300.426V26.2153H296.307V27.719H300.491V29.6805H294.019V29.7464ZM303.957 29.7464V20.9196H306.246L309.842 25.758V20.9196H312.13V29.7464H309.907L306.18 24.6464V29.7464H303.957ZM315.4 25.3C315.4 24.6464 315.53 23.9921 315.791 23.4037C316.053 22.8153 316.38 22.358 316.838 21.9653C317.296 21.5732 317.753 21.2464 318.342 21.05C318.93 20.8537 319.518 20.7233 320.238 20.7233C320.695 20.7233 321.153 20.789 321.545 20.9196C321.938 21.05 322.33 21.1806 322.591 21.3769C322.918 21.5732 323.18 21.8348 323.377 22.0306L323.965 22.8153L322.068 23.7964C321.876 23.4735 321.607 23.2037 321.284 23.0116C320.957 22.8153 320.564 22.6848 320.173 22.6848C319.454 22.6848 318.865 22.9464 318.407 23.4037C317.949 23.8617 317.688 24.5153 317.688 25.2348C317.688 25.9537 317.949 26.5421 318.407 27.0653C318.865 27.5233 319.454 27.7848 320.173 27.7848C320.5 27.7848 320.761 27.719 321.088 27.6537C321.415 27.5233 321.611 27.3922 321.807 27.2616V26.608H319.846V24.6464H324.096V28.1769C323.049 29.3537 321.741 29.8769 320.173 29.8769C319.518 29.8769 318.865 29.7464 318.277 29.55C317.711 29.364 317.197 29.0507 316.772 28.6343C316.315 28.2421 315.988 27.7843 315.726 27.1964C315.53 26.608 315.4 25.9537 315.4 25.3ZM327.496 29.7464V20.9196H329.784V29.7464H327.496ZM333.446 29.7464V20.9196H335.799L339.396 25.758V20.9196H341.685V29.7464H339.461L335.734 24.6464V29.7464H333.446ZM345.346 29.7464V20.9196H351.819V22.8811H347.634V24.2538H351.753V26.2153H347.634V27.719H351.819V29.6805H345.346V29.7464ZM355.284 22.2269C355.284 21.8348 355.415 21.4428 355.742 21.1806C356.068 20.9196 356.396 20.7233 356.788 20.7233C357.049 20.7233 357.311 20.789 357.573 20.9196C357.834 21.05 357.964 21.2464 358.095 21.4422C358.226 21.6385 358.291 21.9001 358.291 22.2269C358.291 22.619 358.161 23.0111 357.834 23.2733C357.507 23.5348 357.18 23.7311 356.788 23.7311C356.396 23.7311 356.003 23.6 355.742 23.2733C355.48 22.9464 355.284 22.619 355.284 22.2269ZM355.546 22.2269C355.546 22.5538 355.676 22.8805 355.937 23.1427C356.199 23.4037 356.526 23.5348 356.853 23.5348C357.18 23.5348 357.507 23.4037 357.769 23.1422C357.892 23.0232 357.989 22.881 358.056 22.724C358.124 22.5669 358.159 22.3979 358.161 22.2269C358.161 21.8348 358.029 21.5732 357.769 21.3111C357.649 21.1885 357.507 21.0908 357.35 21.0237C357.193 20.9564 357.023 20.9211 356.853 20.9196C356.461 20.9196 356.199 21.05 355.937 21.3117C355.676 21.508 355.546 21.8343 355.546 22.2269ZM356.264 21.3769H356.984C357.114 21.3769 357.245 21.4428 357.376 21.508C357.507 21.5732 357.507 21.7037 357.507 21.9001C357.507 22.0964 357.441 22.2269 357.376 22.2921C357.311 22.358 357.18 22.4232 357.114 22.4232L357.573 23.1422H357.245L356.788 22.4232H356.461V23.1422H356.264V21.3769ZM356.461 22.2269H356.918C356.984 22.2269 357.049 22.2269 357.114 22.1612C357.245 22.0306 357.245 21.9653 357.245 21.9001C357.245 21.8343 357.245 21.7037 357.18 21.6385C357.114 21.5727 357.049 21.5727 356.984 21.5727H356.526V22.2269H356.461Z" fill="#162948"/>
<defs>
<clipPath id="clip0_7596_32232">
<rect width="101.949" height="22.6" fill="white" transform="translate(24 14)"/>
</clipPath>
</defs>
</svg>
