<?xml version="1.0" encoding="UTF-8"?>
<svg width="40px" height="40px" viewBox="0 0 40 40" version="1.1" xmlns="http://www.w3.org/2000/svg" xmlns:xlink="http://www.w3.org/1999/xlink">
    <title>A53C1CE4-26C8-4989-8C7D-5D039A558CC2</title>
    <g id="reports" stroke="none" stroke-width="1" fill="none" fill-rule="evenodd">
        <g id="reports/checkregister" transform="translate(-309.000000, -204.000000)" fill="#0494D0" fill-rule="nonzero">
            <g id="Group-11" transform="translate(262.000000, 177.000000)">
                <g id="calculator" transform="translate(47.000000, 27.000000)">
                    <path d="M15.234375,28.75 C15.234375,21.7455469 20.5903906,15.9691406 27.421875,15.2997656 L27.421875,1.171875 C27.421875,0.5246875 26.8971875,0 26.25,0 L1.171875,0 C0.5246875,0 0,0.5246875 0,1.171875 L0,36.25 C0,36.8971875 0.5246875,37.421875 1.171875,37.421875 L18.3919531,37.421875 C16.4221875,35.0732812 15.234375,32.0479687 15.234375,28.75 Z M5.078125,12.5 L5.078125,6.25 C5.078125,5.6028125 5.6028125,5.078125 6.25,5.078125 L21.25,5.078125 C21.8971875,5.078125 22.421875,5.6028125 22.421875,6.25 L22.421875,12.5 C22.421875,13.1471875 21.8971875,13.671875 21.25,13.671875 L6.25,13.671875 C5.6028125,13.671875 5.078125,13.1471875 5.078125,12.5 Z M8.125,31.171875 L6.875,31.171875 C6.2278125,31.171875 5.703125,30.6471875 5.703125,30 C5.703125,29.3528125 6.2278125,28.828125 6.875,28.828125 L8.125,28.828125 C8.7721875,28.828125 9.296875,29.3528125 9.296875,30 C9.296875,30.6471875 8.7721875,31.171875 8.125,31.171875 Z M8.125,24.921875 L6.875,24.921875 C6.2278125,24.921875 5.703125,24.3971875 5.703125,23.75 C5.703125,23.1028125 6.2278125,22.578125 6.875,22.578125 L8.125,22.578125 C8.7721875,22.578125 9.296875,23.1028125 9.296875,23.75 C9.296875,24.3971875 8.7721875,24.921875 8.125,24.921875 Z M8.125,18.671875 L6.875,18.671875 C6.2278125,18.671875 5.703125,18.1471875 5.703125,17.5 C5.703125,16.8528125 6.2278125,16.328125 6.875,16.328125 L8.125,16.328125 C8.7721875,16.328125 9.296875,16.8528125 9.296875,17.5 C9.296875,18.1471875 8.7721875,18.671875 8.125,18.671875 Z M14.375,18.671875 L13.125,18.671875 C12.4778125,18.671875 11.953125,18.1471875 11.953125,17.5 C11.953125,16.8528125 12.4778125,16.328125 13.125,16.328125 L14.375,16.328125 C15.0221875,16.328125 15.546875,16.8528125 15.546875,17.5 C15.546875,18.1471875 15.0221875,18.671875 14.375,18.671875 Z" id="Shape"></path>
                    <path d="M28.41875,17.5834375 C22.4046094,17.760625 17.578125,22.7071094 17.578125,28.75 C17.578125,34.9092188 22.5920312,40 28.75,40 C34.9102344,40 40,34.9102344 40,28.75 C40,22.4342188 34.6713281,17.3914844 28.41875,17.5834375 Z M29.9234375,33.8234375 L29.9234375,34.0683594 C29.9234375,34.7155469 29.39875,35.2402344 28.7515625,35.2402344 C28.104375,35.2402344 27.5796875,34.7155469 27.5796875,34.0683594 L27.5796875,33.9559375 C27.0397656,33.86125 26.5464844,33.6592188 25.9232813,33.2514844 C25.3816406,32.8971875 25.2298438,32.1708594 25.5841406,31.6292969 C25.9384375,31.0876563 26.6647656,30.9358594 27.2063281,31.2901563 C27.7775781,31.6639063 27.9626562,31.6930469 28.7435938,31.6875781 C29.4975,31.6825781 29.7978906,31.0907813 29.8565625,30.7419531 C29.9092187,30.42875 29.8500781,30.0123438 29.2692969,29.8071094 C28.2963281,29.463125 27.2985937,29.0684375 26.5917969,28.5140625 C24.9823438,27.2517188 25.4682031,24.3685156 27.5797656,23.60125 L27.5797656,23.4315625 C27.5797656,22.784375 28.1044531,22.2596875 28.7516406,22.2596875 C29.3988281,22.2596875 29.9235156,22.784375 29.9235156,23.4315625 L29.9235156,23.4964844 C30.5009375,23.6594531 30.9659375,23.9542188 31.2853906,24.2790625 C31.7392188,24.7405469 31.7329688,25.4825 31.2715625,25.93625 C30.8103125,26.3898438 30.0689063,26.3838281 29.6151563,25.9232031 C29.5497656,25.859375 29.18875,25.5583594 28.4071875,25.79375 C28.0951563,25.8877344 28.0113281,26.2113281 27.9930469,26.3082031 C27.9549219,26.5105469 28.0092188,26.6469531 28.0382813,26.6697656 C28.4803125,27.0164844 29.3035156,27.333125 30.0504688,27.5972656 C33.1390625,28.6890625 32.7628125,32.7969531 29.9234375,33.8234375 L29.9234375,33.8234375 Z" id="Shape"></path>
                    <polygon id="Path" points="7.421875 7.421875 20.078125 7.421875 20.078125 11.328125 7.421875 11.328125"></polygon>
                </g>
            </g>
        </g>
    </g>
</svg>