<svg width="242" height="42" viewBox="0 0 242 42" fill="none" xmlns="http://www.w3.org/2000/svg">
<g clip-path="url(#clip0_1_9)">
<g filter="url(#filter0_dd_1_9)">
<path d="M5.53223 17C5.53223 8.16344 12.6957 1 21.5322 1H220.468C229.304 1 236.468 8.16344 236.468 17C236.468 25.8366 229.304 33 220.468 33H21.5322C12.6957 33 5.53223 25.8366 5.53223 17Z" fill="white"/>
<path d="M28.1989 22.3333V18.3333H30.8656V22.3333H34.1989V17H36.1989L29.5323 11L22.8656 17H24.8656V22.3333H28.1989Z" fill="#424242"/>
<path d="M50.8893 19.8563L53.7456 17L50.8893 14.1374L51.7686 13.2581L55.5106 17L51.7686 20.7419L50.8893 19.8563Z" fill="#424242"/>
<path d="M71.48 21.07C71.02 21.07 70.6067 20.99 70.24 20.83C69.88 20.6633 69.5967 20.4367 69.39 20.15C69.1833 19.8567 69.0767 19.52 69.07 19.14H70.04C70.0733 19.4667 70.2067 19.7433 70.44 19.97C70.68 20.19 71.0267 20.3 71.48 20.3C71.9133 20.3 72.2533 20.1933 72.5 19.98C72.7533 19.76 72.88 19.48 72.88 19.14C72.88 18.8733 72.8067 18.6567 72.66 18.49C72.5133 18.3233 72.33 18.1967 72.11 18.11C71.89 18.0233 71.5933 17.93 71.22 17.83C70.76 17.71 70.39 17.59 70.11 17.47C69.8367 17.35 69.6 17.1633 69.4 16.91C69.2067 16.65 69.11 16.3033 69.11 15.87C69.11 15.49 69.2067 15.1533 69.4 14.86C69.5933 14.5667 69.8633 14.34 70.21 14.18C70.5633 14.02 70.9667 13.94 71.42 13.94C72.0733 13.94 72.6067 14.1033 73.02 14.43C73.44 14.7567 73.6767 15.19 73.73 15.73H72.73C72.6967 15.4633 72.5567 15.23 72.31 15.03C72.0633 14.8233 71.7367 14.72 71.33 14.72C70.95 14.72 70.64 14.82 70.4 15.02C70.16 15.2133 70.04 15.4867 70.04 15.84C70.04 16.0933 70.11 16.3 70.25 16.46C70.3967 16.62 70.5733 16.7433 70.78 16.83C70.9933 16.91 71.29 17.0033 71.67 17.11C72.13 17.2367 72.5 17.3633 72.78 17.49C73.06 17.61 73.3 17.8 73.5 18.06C73.7 18.3133 73.8 18.66 73.8 19.1C73.8 19.44 73.71 19.76 73.53 20.06C73.35 20.36 73.0833 20.6033 72.73 20.79C72.3767 20.9767 71.96 21.07 71.48 21.07ZM80.3891 18.05C80.3891 18.2233 80.3791 18.4067 80.3591 18.6H75.9791C76.0125 19.14 76.1958 19.5633 76.5291 19.87C76.8691 20.17 77.2791 20.32 77.7591 20.32C78.1525 20.32 78.4791 20.23 78.7391 20.05C79.0058 19.8633 79.1925 19.6167 79.2991 19.31H80.2791C80.1325 19.8367 79.8391 20.2667 79.3991 20.6C78.9591 20.9267 78.4125 21.09 77.7591 21.09C77.2391 21.09 76.7725 20.9733 76.3591 20.74C75.9525 20.5067 75.6325 20.1767 75.3991 19.75C75.1658 19.3167 75.0491 18.8167 75.0491 18.25C75.0491 17.6833 75.1625 17.1867 75.3891 16.76C75.6158 16.3333 75.9325 16.0067 76.3391 15.78C76.7525 15.5467 77.2258 15.43 77.7591 15.43C78.2791 15.43 78.7391 15.5433 79.1391 15.77C79.5391 15.9967 79.8458 16.31 80.0591 16.71C80.2791 17.1033 80.3891 17.55 80.3891 18.05ZM79.4491 17.86C79.4491 17.5133 79.3725 17.2167 79.2191 16.97C79.0658 16.7167 78.8558 16.5267 78.5891 16.4C78.3291 16.2667 78.0391 16.2 77.7191 16.2C77.2591 16.2 76.8658 16.3467 76.5391 16.64C76.2191 16.9333 76.0358 17.34 75.9891 17.86H79.4491ZM82.9503 16.27V19.5C82.9503 19.7667 83.007 19.9567 83.1203 20.07C83.2336 20.1767 83.4303 20.23 83.7103 20.23H84.3803V21H83.5603C83.0536 21 82.6736 20.8833 82.4203 20.65C82.167 20.4167 82.0403 20.0333 82.0403 19.5V16.27H81.3303V15.52H82.0403V14.14H82.9503V15.52H84.3803V16.27H82.9503ZM86.8429 16.27V19.5C86.8429 19.7667 86.8996 19.9567 87.0129 20.07C87.1262 20.1767 87.3229 20.23 87.6029 20.23H88.2729V21H87.4529C86.9462 21 86.5662 20.8833 86.3129 20.65C86.0596 20.4167 85.9329 20.0333 85.9329 19.5V16.27H85.2229V15.52H85.9329V14.14H86.8429V15.52H88.2729V16.27H86.8429ZM90.0955 14.63C89.9221 14.63 89.7755 14.57 89.6555 14.45C89.5355 14.33 89.4755 14.1833 89.4755 14.01C89.4755 13.8367 89.5355 13.69 89.6555 13.57C89.7755 13.45 89.9221 13.39 90.0955 13.39C90.2621 13.39 90.4021 13.45 90.5155 13.57C90.6355 13.69 90.6955 13.8367 90.6955 14.01C90.6955 14.1833 90.6355 14.33 90.5155 14.45C90.4021 14.57 90.2621 14.63 90.0955 14.63ZM90.5355 15.52V21H89.6255V15.52H90.5355ZM95.0064 15.42C95.6731 15.42 96.2131 15.6233 96.6264 16.03C97.0397 16.43 97.2464 17.01 97.2464 17.77V21H96.3464V17.9C96.3464 17.3533 96.2097 16.9367 95.9364 16.65C95.6631 16.3567 95.2897 16.21 94.8164 16.21C94.3364 16.21 93.9531 16.36 93.6664 16.66C93.3864 16.96 93.2464 17.3967 93.2464 17.97V21H92.3364V15.52H93.2464V16.3C93.4264 16.02 93.6697 15.8033 93.9764 15.65C94.2897 15.4967 94.6331 15.42 95.0064 15.42ZM101.243 15.43C101.716 15.43 102.13 15.5333 102.483 15.74C102.843 15.9467 103.11 16.2067 103.283 16.52V15.52H104.203V21.12C104.203 21.62 104.096 22.0633 103.883 22.45C103.67 22.8433 103.363 23.15 102.963 23.37C102.57 23.59 102.11 23.7 101.583 23.7C100.863 23.7 100.263 23.53 99.7829 23.19C99.3029 22.85 99.0196 22.3867 98.9329 21.8H99.8329C99.9329 22.1333 100.14 22.4 100.453 22.6C100.766 22.8067 101.143 22.91 101.583 22.91C102.083 22.91 102.49 22.7533 102.803 22.44C103.123 22.1267 103.283 21.6867 103.283 21.12V19.97C103.103 20.29 102.836 20.5567 102.483 20.77C102.13 20.9833 101.716 21.09 101.243 21.09C100.756 21.09 100.313 20.97 99.9129 20.73C99.5196 20.49 99.2096 20.1533 98.9829 19.72C98.7562 19.2867 98.6429 18.7933 98.6429 18.24C98.6429 17.68 98.7562 17.19 98.9829 16.77C99.2096 16.3433 99.5196 16.0133 99.9129 15.78C100.313 15.5467 100.756 15.43 101.243 15.43ZM103.283 18.25C103.283 17.8367 103.2 17.4767 103.033 17.17C102.866 16.8633 102.64 16.63 102.353 16.47C102.073 16.3033 101.763 16.22 101.423 16.22C101.083 16.22 100.773 16.3 100.493 16.46C100.213 16.62 99.9896 16.8533 99.8229 17.16C99.6562 17.4667 99.5729 17.8267 99.5729 18.24C99.5729 18.66 99.6562 19.0267 99.8229 19.34C99.9896 19.6467 100.213 19.8833 100.493 20.05C100.773 20.21 101.083 20.29 101.423 20.29C101.763 20.29 102.073 20.21 102.353 20.05C102.64 19.8833 102.866 19.6467 103.033 19.34C103.2 19.0267 103.283 18.6633 103.283 18.25ZM107.931 21.09C107.511 21.09 107.134 21.02 106.801 20.88C106.467 20.7333 106.204 20.5333 106.011 20.28C105.817 20.02 105.711 19.7233 105.691 19.39H106.631C106.657 19.6633 106.784 19.8867 107.011 20.06C107.244 20.2333 107.547 20.32 107.921 20.32C108.267 20.32 108.541 20.2433 108.741 20.09C108.941 19.9367 109.041 19.7433 109.041 19.51C109.041 19.27 108.934 19.0933 108.721 18.98C108.507 18.86 108.177 18.7433 107.731 18.63C107.324 18.5233 106.991 18.4167 106.731 18.31C106.477 18.1967 106.257 18.0333 106.071 17.82C105.891 17.6 105.801 17.3133 105.801 16.96C105.801 16.68 105.884 16.4233 106.051 16.19C106.217 15.9567 106.454 15.7733 106.761 15.64C107.067 15.5 107.417 15.43 107.811 15.43C108.417 15.43 108.907 15.5833 109.281 15.89C109.654 16.1967 109.854 16.6167 109.881 17.15H108.971C108.951 16.8633 108.834 16.6333 108.621 16.46C108.414 16.2867 108.134 16.2 107.781 16.2C107.454 16.2 107.194 16.27 107.001 16.41C106.807 16.55 106.711 16.7333 106.711 16.96C106.711 17.14 106.767 17.29 106.881 17.41C107.001 17.5233 107.147 17.6167 107.321 17.69C107.501 17.7567 107.747 17.8333 108.061 17.92C108.454 18.0267 108.774 18.1333 109.021 18.24C109.267 18.34 109.477 18.4933 109.651 18.7C109.831 18.9067 109.924 19.1767 109.931 19.51C109.931 19.81 109.847 20.08 109.681 20.32C109.514 20.56 109.277 20.75 108.971 20.89C108.671 21.0233 108.324 21.09 107.931 21.09Z" fill="#424242"/>
<path d="M128.857 19.8563L131.713 17L128.857 14.1374L129.736 13.2581L133.478 17L129.736 20.7419L128.857 19.8563Z" fill="#424242"/>
<path d="M149.408 13.53C150.168 13.53 150.824 13.6733 151.378 13.96C151.938 14.24 152.364 14.6433 152.658 15.17C152.958 15.6967 153.108 16.3167 153.108 17.03C153.108 17.7433 152.958 18.3633 152.658 18.89C152.364 19.41 151.938 19.81 151.378 20.09C150.824 20.3633 150.168 20.5 149.408 20.5H147.238V13.53H149.408ZM149.408 19.75C150.308 19.75 150.994 19.5133 151.468 19.04C151.941 18.56 152.178 17.89 152.178 17.03C152.178 16.1633 151.938 15.4867 151.458 15C150.984 14.5133 150.301 14.27 149.408 14.27H148.148V19.75H149.408ZM159.558 17.55C159.558 17.7233 159.548 17.9067 159.528 18.1H155.148C155.181 18.64 155.365 19.0633 155.698 19.37C156.038 19.67 156.448 19.82 156.928 19.82C157.321 19.82 157.648 19.73 157.908 19.55C158.175 19.3633 158.361 19.1167 158.468 18.81H159.448C159.301 19.3367 159.008 19.7667 158.568 20.1C158.128 20.4267 157.581 20.59 156.928 20.59C156.408 20.59 155.941 20.4733 155.528 20.24C155.121 20.0067 154.801 19.6767 154.568 19.25C154.335 18.8167 154.218 18.3167 154.218 17.75C154.218 17.1833 154.331 16.6867 154.558 16.26C154.785 15.8333 155.101 15.5067 155.508 15.28C155.921 15.0467 156.395 14.93 156.928 14.93C157.448 14.93 157.908 15.0433 158.308 15.27C158.708 15.4967 159.015 15.81 159.228 16.21C159.448 16.6033 159.558 17.05 159.558 17.55ZM158.618 17.36C158.618 17.0133 158.541 16.7167 158.388 16.47C158.235 16.2167 158.025 16.0267 157.758 15.9C157.498 15.7667 157.208 15.7 156.888 15.7C156.428 15.7 156.035 15.8467 155.708 16.14C155.388 16.4333 155.205 16.84 155.158 17.36H158.618ZM163.049 19.66L164.749 15.02H165.719L163.569 20.5H162.509L160.359 15.02H161.339L163.049 19.66ZM167.335 14.13C167.161 14.13 167.015 14.07 166.895 13.95C166.775 13.83 166.715 13.6833 166.715 13.51C166.715 13.3367 166.775 13.19 166.895 13.07C167.015 12.95 167.161 12.89 167.335 12.89C167.501 12.89 167.641 12.95 167.755 13.07C167.875 13.19 167.935 13.3367 167.935 13.51C167.935 13.6833 167.875 13.83 167.755 13.95C167.641 14.07 167.501 14.13 167.335 14.13ZM167.775 15.02V20.5H166.865V15.02H167.775ZM169.236 17.75C169.236 17.1833 169.349 16.69 169.576 16.27C169.802 15.8433 170.116 15.5133 170.516 15.28C170.922 15.0467 171.386 14.93 171.906 14.93C172.579 14.93 173.132 15.0933 173.566 15.42C174.006 15.7467 174.296 16.2 174.436 16.78H173.456C173.362 16.4467 173.179 16.1833 172.906 15.99C172.639 15.7967 172.306 15.7 171.906 15.7C171.386 15.7 170.966 15.88 170.646 16.24C170.326 16.5933 170.166 17.0967 170.166 17.75C170.166 18.41 170.326 18.92 170.646 19.28C170.966 19.64 171.386 19.82 171.906 19.82C172.306 19.82 172.639 19.7267 172.906 19.54C173.172 19.3533 173.356 19.0867 173.456 18.74H174.436C174.289 19.3 173.996 19.75 173.556 20.09C173.116 20.4233 172.566 20.59 171.906 20.59C171.386 20.59 170.922 20.4733 170.516 20.24C170.116 20.0067 169.802 19.6767 169.576 19.25C169.349 18.8233 169.236 18.3233 169.236 17.75ZM180.9 17.55C180.9 17.7233 180.89 17.9067 180.87 18.1H176.49C176.523 18.64 176.707 19.0633 177.04 19.37C177.38 19.67 177.79 19.82 178.27 19.82C178.663 19.82 178.99 19.73 179.25 19.55C179.517 19.3633 179.703 19.1167 179.81 18.81H180.79C180.643 19.3367 180.35 19.7667 179.91 20.1C179.47 20.4267 178.923 20.59 178.27 20.59C177.75 20.59 177.283 20.4733 176.87 20.24C176.463 20.0067 176.143 19.6767 175.91 19.25C175.677 18.8167 175.56 18.3167 175.56 17.75C175.56 17.1833 175.673 16.6867 175.9 16.26C176.127 15.8333 176.443 15.5067 176.85 15.28C177.263 15.0467 177.737 14.93 178.27 14.93C178.79 14.93 179.25 15.0433 179.65 15.27C180.05 15.4967 180.357 15.81 180.57 16.21C180.79 16.6033 180.9 17.05 180.9 17.55ZM179.96 17.36C179.96 17.0133 179.883 16.7167 179.73 16.47C179.577 16.2167 179.367 16.0267 179.1 15.9C178.84 15.7667 178.55 15.7 178.23 15.7C177.77 15.7 177.377 15.8467 177.05 16.14C176.73 16.4333 176.547 16.84 176.5 17.36H179.96ZM189.927 15.57C189.927 16.15 189.727 16.6333 189.327 17.02C188.934 17.4 188.33 17.59 187.517 17.59H186.177V20.5H185.267V13.53H187.517C188.304 13.53 188.9 13.72 189.307 14.1C189.72 14.48 189.927 14.97 189.927 15.57ZM187.517 16.84C188.024 16.84 188.397 16.73 188.637 16.51C188.877 16.29 188.997 15.9767 188.997 15.57C188.997 14.71 188.504 14.28 187.517 14.28H186.177V16.84H187.517ZM192.218 15.91C192.378 15.5967 192.605 15.3533 192.898 15.18C193.198 15.0067 193.561 14.92 193.988 14.92V15.86H193.748C192.728 15.86 192.218 16.4133 192.218 17.52V20.5H191.308V15.02H192.218V15.91ZM195.759 14.13C195.585 14.13 195.439 14.07 195.319 13.95C195.199 13.83 195.139 13.6833 195.139 13.51C195.139 13.3367 195.199 13.19 195.319 13.07C195.439 12.95 195.585 12.89 195.759 12.89C195.925 12.89 196.065 12.95 196.179 13.07C196.299 13.19 196.359 13.3367 196.359 13.51C196.359 13.6833 196.299 13.83 196.179 13.95C196.065 14.07 195.925 14.13 195.759 14.13ZM196.199 15.02V20.5H195.289V15.02H196.199ZM197.659 17.75C197.659 17.1833 197.773 16.69 197.999 16.27C198.226 15.8433 198.539 15.5133 198.939 15.28C199.346 15.0467 199.809 14.93 200.329 14.93C201.003 14.93 201.556 15.0933 201.989 15.42C202.429 15.7467 202.719 16.2 202.859 16.78H201.879C201.786 16.4467 201.603 16.1833 201.329 15.99C201.063 15.7967 200.729 15.7 200.329 15.7C199.809 15.7 199.389 15.88 199.069 16.24C198.749 16.5933 198.589 17.0967 198.589 17.75C198.589 18.41 198.749 18.92 199.069 19.28C199.389 19.64 199.809 19.82 200.329 19.82C200.729 19.82 201.063 19.7267 201.329 19.54C201.596 19.3533 201.779 19.0867 201.879 18.74H202.859C202.713 19.3 202.419 19.75 201.979 20.09C201.539 20.4233 200.989 20.59 200.329 20.59C199.809 20.59 199.346 20.4733 198.939 20.24C198.539 20.0067 198.226 19.6767 197.999 19.25C197.773 18.8233 197.659 18.3233 197.659 17.75ZM204.794 14.13C204.62 14.13 204.474 14.07 204.354 13.95C204.234 13.83 204.174 13.6833 204.174 13.51C204.174 13.3367 204.234 13.19 204.354 13.07C204.474 12.95 204.62 12.89 204.794 12.89C204.96 12.89 205.1 12.95 205.214 13.07C205.334 13.19 205.394 13.3367 205.394 13.51C205.394 13.6833 205.334 13.83 205.214 13.95C205.1 14.07 204.96 14.13 204.794 14.13ZM205.234 15.02V20.5H204.324V15.02H205.234ZM209.705 14.92C210.371 14.92 210.911 15.1233 211.325 15.53C211.738 15.93 211.945 16.51 211.945 17.27V20.5H211.045V17.4C211.045 16.8533 210.908 16.4367 210.635 16.15C210.361 15.8567 209.988 15.71 209.515 15.71C209.035 15.71 208.651 15.86 208.365 16.16C208.085 16.46 207.945 16.8967 207.945 17.47V20.5H207.035V15.02H207.945V15.8C208.125 15.52 208.368 15.3033 208.675 15.15C208.988 14.9967 209.331 14.92 209.705 14.92ZM215.941 14.93C216.414 14.93 216.828 15.0333 217.181 15.24C217.541 15.4467 217.808 15.7067 217.981 16.02V15.02H218.901V20.62C218.901 21.12 218.794 21.5633 218.581 21.95C218.368 22.3433 218.061 22.65 217.661 22.87C217.268 23.09 216.808 23.2 216.281 23.2C215.561 23.2 214.961 23.03 214.481 22.69C214.001 22.35 213.718 21.8867 213.631 21.3H214.531C214.631 21.6333 214.838 21.9 215.151 22.1C215.464 22.3067 215.841 22.41 216.281 22.41C216.781 22.41 217.188 22.2533 217.501 21.94C217.821 21.6267 217.981 21.1867 217.981 20.62V19.47C217.801 19.79 217.534 20.0567 217.181 20.27C216.828 20.4833 216.414 20.59 215.941 20.59C215.454 20.59 215.011 20.47 214.611 20.23C214.218 19.99 213.908 19.6533 213.681 19.22C213.454 18.7867 213.341 18.2933 213.341 17.74C213.341 17.18 213.454 16.69 213.681 16.27C213.908 15.8433 214.218 15.5133 214.611 15.28C215.011 15.0467 215.454 14.93 215.941 14.93ZM217.981 17.75C217.981 17.3367 217.898 16.9767 217.731 16.67C217.564 16.3633 217.338 16.13 217.051 15.97C216.771 15.8033 216.461 15.72 216.121 15.72C215.781 15.72 215.471 15.8 215.191 15.96C214.911 16.12 214.688 16.3533 214.521 16.66C214.354 16.9667 214.271 17.3267 214.271 17.74C214.271 18.16 214.354 18.5267 214.521 18.84C214.688 19.1467 214.911 19.3833 215.191 19.55C215.471 19.71 215.781 19.79 216.121 19.79C216.461 19.79 216.771 19.71 217.051 19.55C217.338 19.3833 217.564 19.1467 217.731 18.84C217.898 18.5267 217.981 18.1633 217.981 17.75Z" fill="#818181"/>
</g>
</g>
<defs>
<filter id="filter0_dd_1_9" x="-0.467773" y="-1" width="242.936" height="44" filterUnits="userSpaceOnUse" color-interpolation-filters="sRGB">
<feFlood flood-opacity="0" result="BackgroundImageFix"/>
<feColorMatrix in="SourceAlpha" type="matrix" values="0 0 0 0 0 0 0 0 0 0 0 0 0 0 0 0 0 0 127 0" result="hardAlpha"/>
<feOffset dy="2"/>
<feGaussianBlur stdDeviation="2"/>
<feColorMatrix type="matrix" values="0 0 0 0 0 0 0 0 0 0 0 0 0 0 0 0 0 0 0.06 0"/>
<feBlend mode="normal" in2="BackgroundImageFix" result="effect1_dropShadow_1_9"/>
<feColorMatrix in="SourceAlpha" type="matrix" values="0 0 0 0 0 0 0 0 0 0 0 0 0 0 0 0 0 0 127 0" result="hardAlpha"/>
<feOffset dy="4"/>
<feGaussianBlur stdDeviation="3"/>
<feColorMatrix type="matrix" values="0 0 0 0 0 0 0 0 0 0 0 0 0 0 0 0 0 0 0.1 0"/>
<feBlend mode="normal" in2="effect1_dropShadow_1_9" result="effect2_dropShadow_1_9"/>
<feBlend mode="normal" in="SourceGraphic" in2="effect2_dropShadow_1_9" result="shape"/>
</filter>
<clipPath id="clip0_1_9">
<rect width="242" height="42" fill="white"/>
</clipPath>
</defs>
</svg>
