<svg xmlns="http://www.w3.org/2000/svg" width="53" height="53" viewBox="0 0 53 53" fill="none">
  <rect width="53" height="53" rx="26.5" fill="#424242"/>
  <path d="M21.0062 36.7947L14.8333 38.1667L16.2053 31.9938C15.302 30.3037 14.8306 28.4164 14.8333 26.5C14.8333 20.0565 20.0565 14.8333 26.5 14.8333C32.9435 14.8333 38.1667 20.0565 38.1667 26.5C38.1667 32.9435 32.9435 38.1667 26.5 38.1667C24.5836 38.1694 22.6963 37.698 21.0062 36.7947ZM21.3445 34.3295L22.1063 34.7378C23.4581 35.4599 24.9675 35.8363 26.5 35.8333C28.3459 35.8333 30.1505 35.286 31.6853 34.2604C33.2202 33.2348 34.4164 31.7772 35.1229 30.0717C35.8293 28.3663 36.0141 26.4897 35.654 24.6792C35.2939 22.8687 34.4049 21.2056 33.0997 19.9003C31.7944 18.5951 30.1313 17.7061 28.3208 17.346C26.5103 16.9859 24.6337 17.1707 22.9283 17.8771C21.2228 18.5836 19.7652 19.7798 18.7396 21.3147C17.714 22.8495 17.1667 24.6541 17.1667 26.5C17.1667 28.0575 17.5458 29.5532 18.2633 30.8937L18.6705 31.6555L17.9063 35.0937L21.3445 34.3295Z" fill="white"/>
</svg>
