<svg width="61" height="60" viewBox="0 0 69 60" fill="none" xmlns="http://www.w3.org/2000/svg">
<mask id="mask0_1_2" style="mask-type:luminance" maskUnits="userSpaceOnUse" x="4" y="0" width="61" height="60">
<path d="M64.5 0H4.5V60H64.5V0Z" fill="white"/>
</mask>
<g mask="url(#mask0_1_2)">
<g filter="url(#filter0_d_1_2)">
<path d="M34.5 60C51.0685 60 64.5 46.5685 64.5 30C64.5 13.4315 51.0685 0 34.5 0C17.9315 0 4.5 13.4315 4.5 30C4.5 46.5685 17.9315 60 34.5 60Z" fill="#424242"/>
<path fill-rule="evenodd" clip-rule="evenodd" d="M20.827 15.638C20.5 16.2798 20.5 17.1198 20.5 18.8V38.2C20.5 39.8802 20.5 40.7202 20.827 41.362C21.1146 41.9265 21.5735 42.3854 22.138 42.673C22.7798 43 23.6198 43 25.3 43H40.5148C40.8827 43 41.0667 43 41.2477 43.0221C41.4086 43.0417 41.5676 43.0744 41.7232 43.1197C41.8983 43.1707 42.0674 43.2432 42.4056 43.3881L48.5 46V43V18.8C48.5 17.1198 48.5 16.2798 48.173 15.638C47.8854 15.0735 47.4265 14.6146 46.862 14.327C46.2202 14 45.3802 14 43.7 14H25.3C23.6198 14 22.7798 14 22.138 14.327C21.5735 14.6146 21.1146 15.0735 20.827 15.638ZM24.803 35.2166C24.8423 35.2535 24.9314 35.3371 24.9821 35.3815C25.0936 35.479 25.2537 35.6122 25.4625 35.7687C25.88 36.0818 26.4933 36.4897 27.3028 36.8944C28.9251 37.7056 31.3272 38.5 34.5 38.5C37.6728 38.5 40.0749 37.7056 41.6972 36.8944C42.5067 36.4897 43.12 36.0818 43.5375 35.7687C43.7463 35.6122 43.9064 35.479 44.0179 35.3815L44.2071 35.2071C44.5976 34.8166 44.5976 34.1834 44.2071 33.7929C43.8168 33.4026 43.1841 33.4024 42.7936 33.7922L42.7009 33.8763C42.6248 33.9429 42.5037 34.0441 42.3375 34.1687C42.005 34.4182 41.4933 34.7603 40.8028 35.1056C39.4251 35.7944 37.3272 36.5 34.5 36.5C31.6728 36.5 29.5749 35.7944 28.1972 35.1056C27.5067 34.7603 26.995 34.4182 26.6625 34.1687C26.4963 34.0441 26.3752 33.9429 26.2991 33.8763L26.2046 33.7904C25.8138 33.403 25.1824 33.4034 24.7929 33.7929C24.4024 34.1834 24.4024 34.8166 24.7929 35.2071L24.803 35.2166Z" fill="white"/>
</g>
</g>
<defs>
<filter id="filter0_d_1_2" x="0.5" y="0" width="68" height="68" filterUnits="userSpaceOnUse" color-interpolation-filters="sRGB">
<feFlood flood-opacity="0" result="BackgroundImageFix"/>
<feColorMatrix in="SourceAlpha" type="matrix" values="0 0 0 0 0 0 0 0 0 0 0 0 0 0 0 0 0 0 127 0" result="hardAlpha"/>
<feOffset dy="4"/>
<feGaussianBlur stdDeviation="2"/>
<feColorMatrix type="matrix" values="0 0 0 0 0 0 0 0 0 0 0 0 0 0 0 0 0 0 0.05 0"/>
<feBlend mode="normal" in2="BackgroundImageFix" result="effect1_dropShadow_1_2"/>
<feBlend mode="normal" in="SourceGraphic" in2="effect1_dropShadow_1_2" result="shape"/>
</filter>
</defs>
</svg>
