<svg width="256" height="42" viewBox="0 0 256 42" fill="none" xmlns="http://www.w3.org/2000/svg">
<g clip-path="url(#clip0_1_17)">
<g filter="url(#filter0_dd_1_17)">
<path d="M5.53223 17C5.53223 8.16344 12.6957 1 21.5322 1H234.468C243.304 1 250.468 8.16344 250.468 17C250.468 25.8366 243.304 33 234.468 33H21.5322C12.6957 33 5.53223 25.8366 5.53223 17Z" fill="white"/>
<path d="M28.1989 22.3333V18.3333H30.8656V22.3333H34.1989V17H36.1989L29.5323 11L22.8656 17H24.8656V22.3333H28.1989Z" fill="#424242"/>
<path d="M50.8893 19.8563L53.7456 17L50.8893 14.1374L51.7686 13.2581L55.5106 17L51.7686 20.7419L50.8893 19.8563Z" fill="#424242"/>
<path d="M71.48 21.07C71.02 21.07 70.6067 20.99 70.24 20.83C69.88 20.6633 69.5967 20.4367 69.39 20.15C69.1833 19.8567 69.0767 19.52 69.07 19.14H70.04C70.0733 19.4667 70.2067 19.7433 70.44 19.97C70.68 20.19 71.0267 20.3 71.48 20.3C71.9133 20.3 72.2533 20.1933 72.5 19.98C72.7533 19.76 72.88 19.48 72.88 19.14C72.88 18.8733 72.8067 18.6567 72.66 18.49C72.5133 18.3233 72.33 18.1967 72.11 18.11C71.89 18.0233 71.5933 17.93 71.22 17.83C70.76 17.71 70.39 17.59 70.11 17.47C69.8367 17.35 69.6 17.1633 69.4 16.91C69.2067 16.65 69.11 16.3033 69.11 15.87C69.11 15.49 69.2067 15.1533 69.4 14.86C69.5933 14.5667 69.8633 14.34 70.21 14.18C70.5633 14.02 70.9667 13.94 71.42 13.94C72.0733 13.94 72.6067 14.1033 73.02 14.43C73.44 14.7567 73.6767 15.19 73.73 15.73H72.73C72.6967 15.4633 72.5567 15.23 72.31 15.03C72.0633 14.8233 71.7367 14.72 71.33 14.72C70.95 14.72 70.64 14.82 70.4 15.02C70.16 15.2133 70.04 15.4867 70.04 15.84C70.04 16.0933 70.11 16.3 70.25 16.46C70.3967 16.62 70.5733 16.7433 70.78 16.83C70.9933 16.91 71.29 17.0033 71.67 17.11C72.13 17.2367 72.5 17.3633 72.78 17.49C73.06 17.61 73.3 17.8 73.5 18.06C73.7 18.3133 73.8 18.66 73.8 19.1C73.8 19.44 73.71 19.76 73.53 20.06C73.35 20.36 73.0833 20.6033 72.73 20.79C72.3767 20.9767 71.96 21.07 71.48 21.07ZM80.3891 18.05C80.3891 18.2233 80.3791 18.4067 80.3591 18.6H75.9791C76.0125 19.14 76.1958 19.5633 76.5291 19.87C76.8691 20.17 77.2791 20.32 77.7591 20.32C78.1525 20.32 78.4791 20.23 78.7391 20.05C79.0058 19.8633 79.1925 19.6167 79.2991 19.31H80.2791C80.1325 19.8367 79.8391 20.2667 79.3991 20.6C78.9591 20.9267 78.4125 21.09 77.7591 21.09C77.2391 21.09 76.7725 20.9733 76.3591 20.74C75.9525 20.5067 75.6325 20.1767 75.3991 19.75C75.1658 19.3167 75.0491 18.8167 75.0491 18.25C75.0491 17.6833 75.1625 17.1867 75.3891 16.76C75.6158 16.3333 75.9325 16.0067 76.3391 15.78C76.7525 15.5467 77.2258 15.43 77.7591 15.43C78.2791 15.43 78.7391 15.5433 79.1391 15.77C79.5391 15.9967 79.8458 16.31 80.0591 16.71C80.2791 17.1033 80.3891 17.55 80.3891 18.05ZM79.4491 17.86C79.4491 17.5133 79.3725 17.2167 79.2191 16.97C79.0658 16.7167 78.8558 16.5267 78.5891 16.4C78.3291 16.2667 78.0391 16.2 77.7191 16.2C77.2591 16.2 76.8658 16.3467 76.5391 16.64C76.2191 16.9333 76.0358 17.34 75.9891 17.86H79.4491ZM82.9503 16.27V19.5C82.9503 19.7667 83.007 19.9567 83.1203 20.07C83.2336 20.1767 83.4303 20.23 83.7103 20.23H84.3803V21H83.5603C83.0536 21 82.6736 20.8833 82.4203 20.65C82.167 20.4167 82.0403 20.0333 82.0403 19.5V16.27H81.3303V15.52H82.0403V14.14H82.9503V15.52H84.3803V16.27H82.9503ZM86.8429 16.27V19.5C86.8429 19.7667 86.8996 19.9567 87.0129 20.07C87.1262 20.1767 87.3229 20.23 87.6029 20.23H88.2729V21H87.4529C86.9462 21 86.5662 20.8833 86.3129 20.65C86.0596 20.4167 85.9329 20.0333 85.9329 19.5V16.27H85.2229V15.52H85.9329V14.14H86.8429V15.52H88.2729V16.27H86.8429ZM90.0955 14.63C89.9221 14.63 89.7755 14.57 89.6555 14.45C89.5355 14.33 89.4755 14.1833 89.4755 14.01C89.4755 13.8367 89.5355 13.69 89.6555 13.57C89.7755 13.45 89.9221 13.39 90.0955 13.39C90.2621 13.39 90.4021 13.45 90.5155 13.57C90.6355 13.69 90.6955 13.8367 90.6955 14.01C90.6955 14.1833 90.6355 14.33 90.5155 14.45C90.4021 14.57 90.2621 14.63 90.0955 14.63ZM90.5355 15.52V21H89.6255V15.52H90.5355ZM95.0064 15.42C95.6731 15.42 96.2131 15.6233 96.6264 16.03C97.0397 16.43 97.2464 17.01 97.2464 17.77V21H96.3464V17.9C96.3464 17.3533 96.2097 16.9367 95.9364 16.65C95.6631 16.3567 95.2897 16.21 94.8164 16.21C94.3364 16.21 93.9531 16.36 93.6664 16.66C93.3864 16.96 93.2464 17.3967 93.2464 17.97V21H92.3364V15.52H93.2464V16.3C93.4264 16.02 93.6697 15.8033 93.9764 15.65C94.2897 15.4967 94.6331 15.42 95.0064 15.42ZM101.243 15.43C101.716 15.43 102.13 15.5333 102.483 15.74C102.843 15.9467 103.11 16.2067 103.283 16.52V15.52H104.203V21.12C104.203 21.62 104.096 22.0633 103.883 22.45C103.67 22.8433 103.363 23.15 102.963 23.37C102.57 23.59 102.11 23.7 101.583 23.7C100.863 23.7 100.263 23.53 99.7829 23.19C99.3029 22.85 99.0196 22.3867 98.9329 21.8H99.8329C99.9329 22.1333 100.14 22.4 100.453 22.6C100.766 22.8067 101.143 22.91 101.583 22.91C102.083 22.91 102.49 22.7533 102.803 22.44C103.123 22.1267 103.283 21.6867 103.283 21.12V19.97C103.103 20.29 102.836 20.5567 102.483 20.77C102.13 20.9833 101.716 21.09 101.243 21.09C100.756 21.09 100.313 20.97 99.9129 20.73C99.5196 20.49 99.2096 20.1533 98.9829 19.72C98.7562 19.2867 98.6429 18.7933 98.6429 18.24C98.6429 17.68 98.7562 17.19 98.9829 16.77C99.2096 16.3433 99.5196 16.0133 99.9129 15.78C100.313 15.5467 100.756 15.43 101.243 15.43ZM103.283 18.25C103.283 17.8367 103.2 17.4767 103.033 17.17C102.866 16.8633 102.64 16.63 102.353 16.47C102.073 16.3033 101.763 16.22 101.423 16.22C101.083 16.22 100.773 16.3 100.493 16.46C100.213 16.62 99.9896 16.8533 99.8229 17.16C99.6562 17.4667 99.5729 17.8267 99.5729 18.24C99.5729 18.66 99.6562 19.0267 99.8229 19.34C99.9896 19.6467 100.213 19.8833 100.493 20.05C100.773 20.21 101.083 20.29 101.423 20.29C101.763 20.29 102.073 20.21 102.353 20.05C102.64 19.8833 102.866 19.6467 103.033 19.34C103.2 19.0267 103.283 18.6633 103.283 18.25ZM107.931 21.09C107.511 21.09 107.134 21.02 106.801 20.88C106.467 20.7333 106.204 20.5333 106.011 20.28C105.817 20.02 105.711 19.7233 105.691 19.39H106.631C106.657 19.6633 106.784 19.8867 107.011 20.06C107.244 20.2333 107.547 20.32 107.921 20.32C108.267 20.32 108.541 20.2433 108.741 20.09C108.941 19.9367 109.041 19.7433 109.041 19.51C109.041 19.27 108.934 19.0933 108.721 18.98C108.507 18.86 108.177 18.7433 107.731 18.63C107.324 18.5233 106.991 18.4167 106.731 18.31C106.477 18.1967 106.257 18.0333 106.071 17.82C105.891 17.6 105.801 17.3133 105.801 16.96C105.801 16.68 105.884 16.4233 106.051 16.19C106.217 15.9567 106.454 15.7733 106.761 15.64C107.067 15.5 107.417 15.43 107.811 15.43C108.417 15.43 108.907 15.5833 109.281 15.89C109.654 16.1967 109.854 16.6167 109.881 17.15H108.971C108.951 16.8633 108.834 16.6333 108.621 16.46C108.414 16.2867 108.134 16.2 107.781 16.2C107.454 16.2 107.194 16.27 107.001 16.41C106.807 16.55 106.711 16.7333 106.711 16.96C106.711 17.14 106.767 17.29 106.881 17.41C107.001 17.5233 107.147 17.6167 107.321 17.69C107.501 17.7567 107.747 17.8333 108.061 17.92C108.454 18.0267 108.774 18.1333 109.021 18.24C109.267 18.34 109.477 18.4933 109.651 18.7C109.831 18.9067 109.924 19.1767 109.931 19.51C109.931 19.81 109.847 20.08 109.681 20.32C109.514 20.56 109.277 20.75 108.971 20.89C108.671 21.0233 108.324 21.09 107.931 21.09Z" fill="#424242"/>
<path d="M128.857 19.8563L131.713 17L128.857 14.1374L129.736 13.2581L133.478 17L129.736 20.7419L128.857 19.8563Z" fill="#424242"/>
<path d="M150.728 16.91C150.981 16.95 151.211 17.0533 151.418 17.22C151.631 17.3867 151.798 17.5933 151.918 17.84C152.044 18.0867 152.108 18.35 152.108 18.63C152.108 18.9833 152.018 19.3033 151.838 19.59C151.658 19.87 151.394 20.0933 151.048 20.26C150.708 20.42 150.304 20.5 149.838 20.5H147.238V13.53H149.738C150.211 13.53 150.614 13.61 150.948 13.77C151.281 13.9233 151.531 14.1333 151.698 14.4C151.864 14.6667 151.948 14.9667 151.948 15.3C151.948 15.7133 151.834 16.0567 151.608 16.33C151.388 16.5967 151.094 16.79 150.728 16.91ZM148.148 16.54H149.678C150.104 16.54 150.434 16.44 150.668 16.24C150.901 16.04 151.018 15.7633 151.018 15.41C151.018 15.0567 150.901 14.78 150.668 14.58C150.434 14.38 150.098 14.28 149.658 14.28H148.148V16.54ZM149.758 19.75C150.211 19.75 150.564 19.6433 150.818 19.43C151.071 19.2167 151.198 18.92 151.198 18.54C151.198 18.1533 151.064 17.85 150.798 17.63C150.531 17.4033 150.174 17.29 149.728 17.29H148.148V19.75H149.758ZM158.481 15.02V20.5H157.571V19.69C157.397 19.97 157.154 20.19 156.841 20.35C156.534 20.5033 156.194 20.58 155.821 20.58C155.394 20.58 155.011 20.4933 154.671 20.32C154.331 20.14 154.061 19.8733 153.861 19.52C153.667 19.1667 153.571 18.7367 153.571 18.23V15.02H154.471V18.11C154.471 18.65 154.607 19.0667 154.881 19.36C155.154 19.6467 155.527 19.79 156.001 19.79C156.487 19.79 156.871 19.64 157.151 19.34C157.431 19.04 157.571 18.6033 157.571 18.03V15.02H158.481ZM164.987 15.02L161.687 23.08H160.747L161.827 20.44L159.617 15.02H160.627L162.347 19.46L164.047 15.02H164.987ZM167.062 16.04C167.249 15.7133 167.522 15.4467 167.882 15.24C168.242 15.0333 168.652 14.93 169.112 14.93C169.605 14.93 170.049 15.0467 170.442 15.28C170.835 15.5133 171.145 15.8433 171.372 16.27C171.599 16.69 171.712 17.18 171.712 17.74C171.712 18.2933 171.599 18.7867 171.372 19.22C171.145 19.6533 170.832 19.99 170.432 20.23C170.039 20.47 169.599 20.59 169.112 20.59C168.639 20.59 168.222 20.4867 167.862 20.28C167.509 20.0733 167.242 19.81 167.062 19.49V20.5H166.152V13.1H167.062V16.04ZM170.782 17.74C170.782 17.3267 170.699 16.9667 170.532 16.66C170.365 16.3533 170.139 16.12 169.852 15.96C169.572 15.8 169.262 15.72 168.922 15.72C168.589 15.72 168.279 15.8033 167.992 15.97C167.712 16.13 167.485 16.3667 167.312 16.68C167.145 16.9867 167.062 17.3433 167.062 17.75C167.062 18.1633 167.145 18.5267 167.312 18.84C167.485 19.1467 167.712 19.3833 167.992 19.55C168.279 19.71 168.589 19.79 168.922 19.79C169.262 19.79 169.572 19.71 169.852 19.55C170.139 19.3833 170.365 19.1467 170.532 18.84C170.699 18.5267 170.782 18.16 170.782 17.74ZM172.82 17.74C172.82 17.18 172.933 16.69 173.16 16.27C173.386 15.8433 173.696 15.5133 174.09 15.28C174.49 15.0467 174.933 14.93 175.42 14.93C175.9 14.93 176.316 15.0333 176.67 15.24C177.023 15.4467 177.286 15.7067 177.46 16.02V15.02H178.38V20.5H177.46V19.48C177.28 19.8 177.01 20.0667 176.65 20.28C176.296 20.4867 175.883 20.59 175.41 20.59C174.923 20.59 174.483 20.47 174.09 20.23C173.696 19.99 173.386 19.6533 173.16 19.22C172.933 18.7867 172.82 18.2933 172.82 17.74ZM177.46 17.75C177.46 17.3367 177.376 16.9767 177.21 16.67C177.043 16.3633 176.816 16.13 176.53 15.97C176.25 15.8033 175.94 15.72 175.6 15.72C175.26 15.72 174.95 15.8 174.67 15.96C174.39 16.12 174.166 16.3533 174 16.66C173.833 16.9667 173.75 17.3267 173.75 17.74C173.75 18.16 173.833 18.5267 174 18.84C174.166 19.1467 174.39 19.3833 174.67 19.55C174.95 19.71 175.26 19.79 175.6 19.79C175.94 19.79 176.25 19.71 176.53 19.55C176.816 19.3833 177.043 19.1467 177.21 18.84C177.376 18.5267 177.46 18.1633 177.46 17.75ZM179.827 17.75C179.827 17.1833 179.941 16.69 180.167 16.27C180.394 15.8433 180.707 15.5133 181.107 15.28C181.514 15.0467 181.977 14.93 182.497 14.93C183.171 14.93 183.724 15.0933 184.157 15.42C184.597 15.7467 184.887 16.2 185.027 16.78H184.047C183.954 16.4467 183.771 16.1833 183.497 15.99C183.231 15.7967 182.897 15.7 182.497 15.7C181.977 15.7 181.557 15.88 181.237 16.24C180.917 16.5933 180.757 17.0967 180.757 17.75C180.757 18.41 180.917 18.92 181.237 19.28C181.557 19.64 181.977 19.82 182.497 19.82C182.897 19.82 183.231 19.7267 183.497 19.54C183.764 19.3533 183.947 19.0867 184.047 18.74H185.027C184.881 19.3 184.587 19.75 184.147 20.09C183.707 20.4233 183.157 20.59 182.497 20.59C181.977 20.59 181.514 20.4733 181.107 20.24C180.707 20.0067 180.394 19.6767 180.167 19.25C179.941 18.8233 179.827 18.3233 179.827 17.75ZM189.552 20.5L187.402 18.08V20.5H186.492V13.1H187.402V17.45L189.512 15.02H190.782L188.202 17.75L190.792 20.5H189.552ZM196.974 13.53C197.734 13.53 198.391 13.6733 198.944 13.96C199.504 14.24 199.931 14.6433 200.224 15.17C200.524 15.6967 200.674 16.3167 200.674 17.03C200.674 17.7433 200.524 18.3633 200.224 18.89C199.931 19.41 199.504 19.81 198.944 20.09C198.391 20.3633 197.734 20.5 196.974 20.5H194.804V13.53H196.974ZM196.974 19.75C197.874 19.75 198.561 19.5133 199.034 19.04C199.508 18.56 199.744 17.89 199.744 17.03C199.744 16.1633 199.504 15.4867 199.024 15C198.551 14.5133 197.868 14.27 196.974 14.27H195.714V19.75H196.974ZM207.124 17.55C207.124 17.7233 207.114 17.9067 207.094 18.1H202.714C202.748 18.64 202.931 19.0633 203.264 19.37C203.604 19.67 204.014 19.82 204.494 19.82C204.888 19.82 205.214 19.73 205.474 19.55C205.741 19.3633 205.928 19.1167 206.034 18.81H207.014C206.868 19.3367 206.574 19.7667 206.134 20.1C205.694 20.4267 205.148 20.59 204.494 20.59C203.974 20.59 203.508 20.4733 203.094 20.24C202.688 20.0067 202.368 19.6767 202.134 19.25C201.901 18.8167 201.784 18.3167 201.784 17.75C201.784 17.1833 201.898 16.6867 202.124 16.26C202.351 15.8333 202.668 15.5067 203.074 15.28C203.488 15.0467 203.961 14.93 204.494 14.93C205.014 14.93 205.474 15.0433 205.874 15.27C206.274 15.4967 206.581 15.81 206.794 16.21C207.014 16.6033 207.124 17.05 207.124 17.55ZM206.184 17.36C206.184 17.0133 206.108 16.7167 205.954 16.47C205.801 16.2167 205.591 16.0267 205.324 15.9C205.064 15.7667 204.774 15.7 204.454 15.7C203.994 15.7 203.601 15.8467 203.274 16.14C202.954 16.4333 202.771 16.84 202.724 17.36H206.184ZM210.616 19.66L212.316 15.02H213.286L211.136 20.5H210.076L207.926 15.02H208.906L210.616 19.66ZM214.901 14.13C214.728 14.13 214.581 14.07 214.461 13.95C214.341 13.83 214.281 13.6833 214.281 13.51C214.281 13.3367 214.341 13.19 214.461 13.07C214.581 12.95 214.728 12.89 214.901 12.89C215.068 12.89 215.208 12.95 215.321 13.07C215.441 13.19 215.501 13.3367 215.501 13.51C215.501 13.6833 215.441 13.83 215.321 13.95C215.208 14.07 215.068 14.13 214.901 14.13ZM215.341 15.02V20.5H214.431V15.02H215.341ZM216.802 17.75C216.802 17.1833 216.915 16.69 217.142 16.27C217.369 15.8433 217.682 15.5133 218.082 15.28C218.489 15.0467 218.952 14.93 219.472 14.93C220.145 14.93 220.699 15.0933 221.132 15.42C221.572 15.7467 221.862 16.2 222.002 16.78H221.022C220.929 16.4467 220.745 16.1833 220.472 15.99C220.205 15.7967 219.872 15.7 219.472 15.7C218.952 15.7 218.532 15.88 218.212 16.24C217.892 16.5933 217.732 17.0967 217.732 17.75C217.732 18.41 217.892 18.92 218.212 19.28C218.532 19.64 218.952 19.82 219.472 19.82C219.872 19.82 220.205 19.7267 220.472 19.54C220.739 19.3533 220.922 19.0867 221.022 18.74H222.002C221.855 19.3 221.562 19.75 221.122 20.09C220.682 20.4233 220.132 20.59 219.472 20.59C218.952 20.59 218.489 20.4733 218.082 20.24C217.682 20.0067 217.369 19.6767 217.142 19.25C216.915 18.8233 216.802 18.3233 216.802 17.75ZM228.466 17.55C228.466 17.7233 228.456 17.9067 228.436 18.1H224.056C224.09 18.64 224.273 19.0633 224.606 19.37C224.946 19.67 225.356 19.82 225.836 19.82C226.23 19.82 226.556 19.73 226.816 19.55C227.083 19.3633 227.27 19.1167 227.376 18.81H228.356C228.21 19.3367 227.916 19.7667 227.476 20.1C227.036 20.4267 226.49 20.59 225.836 20.59C225.316 20.59 224.85 20.4733 224.436 20.24C224.03 20.0067 223.71 19.6767 223.476 19.25C223.243 18.8167 223.126 18.3167 223.126 17.75C223.126 17.1833 223.24 16.6867 223.466 16.26C223.693 15.8333 224.01 15.5067 224.416 15.28C224.83 15.0467 225.303 14.93 225.836 14.93C226.356 14.93 226.816 15.0433 227.216 15.27C227.616 15.4967 227.923 15.81 228.136 16.21C228.356 16.6033 228.466 17.05 228.466 17.55ZM227.526 17.36C227.526 17.0133 227.45 16.7167 227.296 16.47C227.143 16.2167 226.933 16.0267 226.666 15.9C226.406 15.7667 226.116 15.7 225.796 15.7C225.336 15.7 224.943 15.8467 224.616 16.14C224.296 16.4333 224.113 16.84 224.066 17.36H227.526ZM231.857 20.59C231.437 20.59 231.061 20.52 230.727 20.38C230.394 20.2333 230.131 20.0333 229.937 19.78C229.744 19.52 229.637 19.2233 229.617 18.89H230.557C230.584 19.1633 230.711 19.3867 230.937 19.56C231.171 19.7333 231.474 19.82 231.847 19.82C232.194 19.82 232.467 19.7433 232.667 19.59C232.867 19.4367 232.967 19.2433 232.967 19.01C232.967 18.77 232.861 18.5933 232.647 18.48C232.434 18.36 232.104 18.2433 231.657 18.13C231.251 18.0233 230.917 17.9167 230.657 17.81C230.404 17.6967 230.184 17.5333 229.997 17.32C229.817 17.1 229.727 16.8133 229.727 16.46C229.727 16.18 229.811 15.9233 229.977 15.69C230.144 15.4567 230.381 15.2733 230.687 15.14C230.994 15 231.344 14.93 231.737 14.93C232.344 14.93 232.834 15.0833 233.207 15.39C233.581 15.6967 233.781 16.1167 233.807 16.65H232.897C232.877 16.3633 232.761 16.1333 232.547 15.96C232.341 15.7867 232.061 15.7 231.707 15.7C231.381 15.7 231.121 15.77 230.927 15.91C230.734 16.05 230.637 16.2333 230.637 16.46C230.637 16.64 230.694 16.79 230.807 16.91C230.927 17.0233 231.074 17.1167 231.247 17.19C231.427 17.2567 231.674 17.3333 231.987 17.42C232.381 17.5267 232.701 17.6333 232.947 17.74C233.194 17.84 233.404 17.9933 233.577 18.2C233.757 18.4067 233.851 18.6767 233.857 19.01C233.857 19.31 233.774 19.58 233.607 19.82C233.441 20.06 233.204 20.25 232.897 20.39C232.597 20.5233 232.251 20.59 231.857 20.59Z" fill="#818181"/>
</g>
</g>
<defs>
<filter id="filter0_dd_1_17" x="-0.467773" y="-1" width="256.936" height="44" filterUnits="userSpaceOnUse" color-interpolation-filters="sRGB">
<feFlood flood-opacity="0" result="BackgroundImageFix"/>
<feColorMatrix in="SourceAlpha" type="matrix" values="0 0 0 0 0 0 0 0 0 0 0 0 0 0 0 0 0 0 127 0" result="hardAlpha"/>
<feOffset dy="2"/>
<feGaussianBlur stdDeviation="2"/>
<feColorMatrix type="matrix" values="0 0 0 0 0 0 0 0 0 0 0 0 0 0 0 0 0 0 0.06 0"/>
<feBlend mode="normal" in2="BackgroundImageFix" result="effect1_dropShadow_1_17"/>
<feColorMatrix in="SourceAlpha" type="matrix" values="0 0 0 0 0 0 0 0 0 0 0 0 0 0 0 0 0 0 127 0" result="hardAlpha"/>
<feOffset dy="4"/>
<feGaussianBlur stdDeviation="3"/>
<feColorMatrix type="matrix" values="0 0 0 0 0 0 0 0 0 0 0 0 0 0 0 0 0 0 0.1 0"/>
<feBlend mode="normal" in2="effect1_dropShadow_1_17" result="effect2_dropShadow_1_17"/>
<feBlend mode="normal" in="SourceGraphic" in2="effect2_dropShadow_1_17" result="shape"/>
</filter>
<clipPath id="clip0_1_17">
<rect width="256" height="42" fill="white"/>
</clipPath>
</defs>
</svg>
