<svg xmlns="http://www.w3.org/2000/svg" width="100" height="100" viewBox="0 0 100 100" fill="none">
<path fill-rule="evenodd" clip-rule="evenodd" d="M30.0187 13.306C23.4767 15.0673 18.7457 20.1701 16.9647 27.3854C16.0253 31.1918 16.0247 31.8888 16.9525 35.6485C19.2539 44.9759 25.9356 50.3395 35.2528 50.3395C42.8425 50.3395 48.6352 46.8093 51.7688 40.2749C54.3061 34.9841 54.7079 31.8837 53.4778 27.0832C51.6502 19.9494 46.902 15.0093 40.1999 13.271C36.1997 12.2334 33.9749 12.2411 30.0187 13.306ZM17.0654 52.4592C12.7209 53.9615 10.1338 55.9211 8.70793 58.7907C6.97343 62.2814 6.97279 77.0106 8.70729 81.5063C10.3289 85.7099 11.9097 86.2679 24.7737 87.1759C36.6876 88.0164 54.5338 87.137 58.4077 85.5179C61.9264 84.0481 62.992 80.3948 62.992 69.8035C62.992 62.5837 62.7937 60.795 61.7625 58.7174C60.2602 55.6909 56.0993 52.9189 51.5182 51.8935C48.3074 51.1749 48.0115 51.2284 43.8583 53.2728C37.822 56.2444 32.7339 56.2693 26.8143 53.3551C22.0508 51.0097 21.424 50.9523 17.0654 52.4592Z" fill="#737373"/>
<path fill-rule="evenodd" clip-rule="evenodd" d="M72.6151 47.2917V58.3333H79.6984V47.2917H90.7401V40.2083H79.6984V29.1667H72.6151V40.2083H61.5734V47.2917H72.6151Z" fill="#737373"/>
</svg>
