<svg width="101" height="101" viewBox="0 0 101 101" fill="none" xmlns="http://www.w3.org/2000/svg">
<path fill-rule="evenodd" clip-rule="evenodd" d="M65.2624 49.9134C67.4548 46.8178 68.6442 43.3924 68.6606 39.5804C68.6533 38.9939 68.6264 38.4125 68.5659 37.8281C68.092 33.2517 66.2093 29.3928 62.8259 26.2575C57.4595 21.2847 49.3139 20.0783 42.8026 23.3983C38.0006 25.8468 34.9617 29.7758 33.5339 34.951C32.5545 38.4998 32.5381 42.036 33.8661 45.5276C34.5877 47.4243 35.6463 49.1182 36.8144 50.7621C37.1221 51.1951 37.4299 51.628 37.7376 52.061C41.5425 57.4144 45.3474 62.7679 49.1082 68.1518C50.2779 69.8263 51.4188 69.4986 52.3915 68.1138C55.5603 63.602 58.7488 59.104 61.9372 54.6061C63.0459 53.042 64.1546 51.478 65.2624 49.9134ZM50.7352 47.2428C45.991 47.2372 42.6625 43.2832 42.7827 39.2352C42.6637 34.8881 46.4129 31.1468 50.9112 31.235C55.2297 31.3198 58.7915 34.9702 58.734 39.3464C58.6806 43.414 55.4214 47.2485 50.7352 47.2428Z" fill="#737373"/>
<path d="M65.18 58.1895L65.1787 58.1895L62.3568 58.1538L60.9193 60.1679C60.8281 60.2956 60.7789 60.4486 60.7785 60.6055C60.7775 61.0234 61.1154 61.363 61.5333 61.364C62.0907 61.3654 62.5249 61.3661 62.8359 61.3661C63.4242 61.3661 64.012 61.3645 64.6108 61.3602C64.8391 61.3602 64.9054 61.4114 64.9888 61.5651C65.9373 63.3126 66.7232 64.7344 67.4521 66.0209C66.358 66.0117 65.2638 66.0085 64.1697 66.0085C63.0836 66.0085 61.9978 66.0117 60.9115 66.0164L60.8337 66.0167C60.6863 66.0167 60.5553 66.0148 60.439 66.0132L60.4345 66.0132C60.3373 66.0117 60.2499 66.0106 60.1716 66.0106C59.8214 66.0106 59.513 66.0294 59.2845 66.2601C59.0278 66.5185 59.0299 66.8511 59.0339 67.455L59.0341 67.4804C59.0347 67.5987 59.0355 67.7309 59.0346 67.8791C59.0316 68.3744 59.0297 68.7013 59.277 68.9508C59.5239 69.1998 59.8526 69.2001 60.3502 69.2005L60.3676 69.2006C61.9468 69.2017 63.5262 69.2029 65.1056 69.2029C66.3667 69.2029 67.6279 69.2022 68.8944 69.2001C69.2014 69.2001 69.2366 69.2376 69.302 69.3569C70.809 72.1025 72.3233 74.8186 73.4984 76.9207C73.2917 76.9195 73.0852 76.919 72.8787 76.919L71.4619 76.9211L52.5744 76.9216C52.4879 76.9216 52.3822 76.9216 52.299 76.9185C52.296 76.8359 52.2958 76.7302 52.2955 76.6377L52.2955 76.6348C52.295 76.348 52.296 76.0616 52.2972 75.7748L52.2973 75.7386C52.2991 75.2153 52.301 74.692 52.2932 74.1691C52.2899 73.9382 52.2932 73.7443 52.2962 73.5819L52.2963 73.5798C52.3049 73.0855 52.3106 72.7586 52.0623 72.5046C51.8015 72.2377 51.4595 72.2363 50.7787 72.2335C50.643 72.233 50.4902 72.2323 50.3177 72.2297L50.283 72.2295C49.9136 72.2295 49.641 72.3252 49.4498 72.5215C49.1901 72.7879 49.1683 73.1531 49.1746 73.4042C49.1875 73.9358 49.1847 74.4804 49.1819 75.0071C49.1788 75.5751 49.176 76.1623 49.1924 76.7437C49.195 76.8338 49.1892 76.8869 49.1838 76.9157C49.1526 76.9225 49.0928 76.931 48.9871 76.931C43.9739 76.9221 38.9607 76.9218 33.9473 76.9218L27.8972 76.9214C28.3695 76.0191 28.8436 75.1176 29.3177 74.2163L29.4404 73.9831C30.2173 72.5059 30.9941 71.0287 31.7629 69.5474C31.9078 69.2681 32.032 69.1916 32.3524 69.1916C33.6037 69.2017 34.9464 69.2064 36.5765 69.2064C37.5459 69.2064 38.5158 69.2047 39.4853 69.203L40.2516 69.2015L40.8502 69.2038C41.2435 69.2038 41.6152 69.2038 41.8721 68.9433C42.1249 68.6869 42.1208 68.3613 42.114 67.8216C42.1121 67.6785 42.11 67.5115 42.1116 67.3189C42.1161 66.8323 42.1186 66.511 41.874 66.2634C41.6279 66.0146 41.3084 66.0141 40.7797 66.0136C39.8002 66.0127 33.6403 66.0117 33.6403 66.0117C33.8929 65.5289 34.1479 65.0471 34.4029 64.5652L34.409 64.5538C34.9056 63.6154 35.419 62.6454 35.9076 61.6804C36.0494 61.4006 36.1574 61.3532 36.4103 61.3532L36.4344 61.3534C37.0546 61.3638 37.7162 61.3689 38.5166 61.3689C39.0287 61.3689 39.5408 61.3668 40.0529 61.3646L40.1963 61.364C40.3015 61.3636 40.404 61.3309 40.4899 61.2703C40.7212 61.1071 40.7764 60.7874 40.6132 60.5561L38.9253 58.1637C38.6848 58.1674 38.5198 58.1712 38.3739 58.1745C38.0957 58.1808 37.8867 58.1855 37.3553 58.1855C36.6285 58.1855 35.98 58.1766 35.3727 58.1578C35.3413 58.1569 35.3106 58.1564 35.2804 58.1564C34.5252 58.1564 34.0455 58.4585 33.6761 59.1659C31.283 63.7522 28.831 68.406 26.4596 72.9066L24.3922 76.8317L24.0334 77.5152C23.7821 77.9947 23.5306 78.4745 23.2752 78.9523C23.1048 79.2711 23.0872 79.548 23.2232 79.7752C23.357 79.9984 23.5984 80.1116 23.941 80.1116L24.0859 80.1104L24.4344 80.1127L73.2886 80.1144C74.6248 80.1144 75.9607 80.1141 77.2968 80.1116C77.7035 80.1109 78.0876 80.1102 78.2824 79.7846C78.4775 79.4581 78.3016 79.1273 78.0978 78.7443C77.9747 78.5126 77.846 78.2832 77.7175 78.0548L77.5263 77.7126L75.8125 74.6235C72.9008 69.3758 69.9891 64.1281 67.0839 58.8765C66.8197 58.3993 66.4356 58.1672 65.9095 58.1672L65.875 58.1675C65.6439 58.1717 65.4121 58.1806 65.18 58.1895Z" fill="#737373"/>
</svg>
