<svg width="101" height="101" viewBox="0 0 101 101" fill="none" xmlns="http://www.w3.org/2000/svg">
<path d="M45.8351 65.2157C45.8275 64.8558 45.8199 64.496 45.8513 64.1396C45.9101 63.4755 45.6165 63.1815 45.0107 62.9723C41.055 61.6077 37.1056 60.2247 33.1563 58.8418L33.1418 58.8367C32.0851 58.4667 31.0284 58.0966 29.9717 57.727C29.3219 57.5 28.6729 57.2709 28.0261 57.0358C27.651 56.8997 27.3925 56.9375 27.3928 57.4201C27.3934 58.7572 27.394 60.0945 27.3943 61.4318C27.3943 61.897 27.7278 62.0123 28.0714 62.131L28.112 62.145C32.3857 63.6324 36.6587 65.1225 40.9313 66.6124L41.6896 66.8768C42.011 66.9889 42.3328 67.1001 42.6546 67.2112C43.4945 67.5014 44.3344 67.7916 45.1687 68.0976C45.6534 68.2755 45.8599 68.1647 45.8457 67.6302C45.8336 67.1776 45.8365 66.7247 45.8394 66.2718C45.8406 66.0809 45.8418 65.8897 45.8419 65.6989C45.8419 65.5381 45.8385 65.3768 45.8351 65.2157Z" fill="#737373"/>
<path d="M41.1864 54.9165C41.3572 55.1506 41.2732 55.5706 41.2951 56.6844C41.2952 56.8152 41.294 56.9459 41.2928 57.0767C41.2902 57.3672 41.2875 57.6577 41.2989 57.9476C41.3178 58.437 41.179 58.6399 40.6524 58.4546C36.4309 56.971 32.2057 55.4981 27.9793 54.0285C27.5749 53.8879 27.3829 53.6382 27.3879 53.2051C27.3977 52.3879 27.4059 51.5698 27.3832 50.7532C27.3661 50.1291 27.6024 50.0537 28.1473 50.2477C30.0927 50.9398 32.0411 51.6229 33.9894 52.3061C35.8462 52.9571 37.7029 53.6082 39.5568 54.2668C40.5921 54.6344 41.016 54.683 41.1864 54.9165Z" fill="#737373"/>
<path fill-rule="evenodd" clip-rule="evenodd" d="M21.9047 55.7323C21.9047 56.5297 21.9043 57.327 21.904 58.1242C21.9032 60.0262 21.9024 61.9281 21.9062 63.8299C21.9091 65.5224 22.6077 66.5281 24.1799 67.0793C27.623 68.2865 31.0668 69.4919 34.5106 70.6973L34.5163 70.6993C39.0038 72.27 43.4923 73.841 47.9784 75.4158C49.4954 75.9482 50.9776 75.9672 52.5114 75.4253C58.0921 73.4532 63.6784 71.498 69.2648 69.5428C71.6356 68.713 74.0063 67.8832 76.3767 67.0522C77.8801 66.5252 78.5899 65.5051 78.5919 63.8356C78.5963 60.0108 78.5958 56.1861 78.5954 52.3615C78.5952 50.7383 78.595 49.1152 78.5952 47.4921V47.4894C78.5953 46.9856 78.5954 46.7345 78.7202 46.6229C78.8442 46.512 79.0914 46.5388 79.5842 46.5923L79.6284 46.5971C80.1352 46.6521 80.6436 46.6912 81.1521 46.7302C81.5247 46.7588 81.8973 46.7875 82.2693 46.8224C83.1093 46.9013 83.838 46.7041 84.3401 45.9763C84.8733 45.2035 84.8343 44.4045 84.3989 43.5951C83.4558 41.8427 82.5162 40.0883 81.5766 38.3338L81.5757 38.3321L80.8252 36.931C80.6555 36.6141 80.4849 36.2975 80.3144 35.981C79.8989 35.2097 79.4834 34.4384 79.079 33.6611C78.4094 32.3741 77.3966 31.5882 75.9711 31.282C67.7356 29.5121 59.5031 27.7294 51.2741 25.9279C50.1948 25.6913 49.1752 25.9002 48.145 26.1242C43.7946 27.0707 39.4448 28.0197 35.095 28.9687L35.0936 28.9691C31.5508 29.742 28.0082 30.5149 24.4652 31.2865C23.1913 31.5638 22.203 32.2428 21.5789 33.3972C20.4748 35.4386 19.3783 37.4841 18.2818 39.5296C17.557 40.8817 16.8321 42.234 16.1051 43.5849C15.6691 44.3947 15.6237 45.1946 16.1532 45.967C16.669 46.7193 17.4298 46.9132 18.2914 46.8343C18.6001 46.8059 18.9097 46.7837 19.2191 46.7615C19.8656 46.7151 20.5118 46.6688 21.1491 46.5664C21.7892 46.4637 21.9129 46.6948 21.9094 47.2636C21.8977 49.3435 21.8994 51.4238 21.9011 53.504C21.9017 54.2468 21.9023 54.9896 21.9023 55.7323H21.9047ZM20.2022 43.262C20.2133 42.9232 20.3574 42.6816 20.4956 42.4499C20.5337 42.386 20.5714 42.3228 20.6056 42.2586C21.0311 41.4625 21.4604 40.6683 21.8897 39.8742C22.6584 38.4522 23.4271 37.0301 24.174 35.5964C24.5134 34.9451 24.9603 34.615 25.6757 34.4613C29.6145 33.6153 33.5505 32.7563 37.4866 31.8974C40.0729 31.333 42.6597 30.7685 45.2468 30.2077C45.3559 30.1841 45.4649 30.1565 45.5756 30.1286C45.9518 30.0336 46.3465 29.9339 46.8226 29.967L44.6837 33.6526C43.2521 36.1193 41.8359 38.5595 40.4199 41.0002C40.269 41.2609 40.0389 41.3503 39.7479 41.3774C37.9349 41.5462 36.1227 41.7236 34.3109 41.901L33.5975 41.9708C32.5065 42.0776 31.4155 42.1851 30.3246 42.2925C28.5605 42.4663 26.7964 42.6401 25.032 42.8109C23.9276 42.9182 22.8227 43.02 21.7104 43.1225L21.7079 43.1227C21.2077 43.1688 20.706 43.2151 20.2022 43.262ZM53.9835 29.9399C54.1507 29.9638 54.2706 29.9808 54.3888 30.0069C56.1643 30.396 57.9398 30.7855 59.7153 31.175C64.868 32.3054 70.021 33.4359 75.1763 34.5555C75.6958 34.6684 75.977 34.9648 76.2086 35.4006C76.7911 36.496 77.3781 37.5887 77.965 38.6814L77.9658 38.6828C78.4539 39.5916 78.942 40.5003 79.4275 41.4105C79.5125 41.5696 79.6028 41.7263 79.6938 41.8843C79.9349 42.3028 80.1812 42.7304 80.3476 43.2373C80.1522 43.2253 79.9638 43.2156 79.7802 43.2061C79.4024 43.1866 79.0452 43.1682 78.6897 43.1333C76.9705 42.9645 75.2513 42.7942 73.5322 42.6238C69.3948 42.2138 65.2566 41.8037 61.117 41.4158C60.4696 41.3553 60.1074 41.1078 59.8005 40.5605C59.1063 39.3214 58.391 38.0941 57.6757 36.8669C57.3713 36.3446 57.0666 35.8219 56.7639 35.2988C56.0874 34.1295 55.4118 32.9598 54.7085 31.7419L53.6383 29.8889C53.7749 29.9102 53.8871 29.9262 53.9835 29.9399ZM48.4415 33.8604C48.6029 34.0172 48.5952 34.1526 48.5884 34.2742C48.587 34.2982 48.5857 34.3216 48.5857 34.3445C48.5863 37.7299 48.5865 41.1152 48.5866 44.5006C48.5871 53.4237 48.5875 62.3469 48.5969 71.2703C48.5975 71.9552 48.3615 72.0014 47.805 71.7973C46.4357 71.2949 45.0585 70.8145 43.6813 70.3341L42.8694 70.0507C41.8486 69.694 40.828 69.3371 39.8073 68.9802L39.7719 68.9678C35.2358 67.3816 30.6988 65.7951 26.1556 64.2294C25.4748 63.9947 25.204 63.6753 25.2089 62.9127C25.2441 57.6378 25.2406 52.3624 25.2116 47.0875C25.2078 46.3805 25.4535 46.1267 26.1161 46.0665C27.6275 45.9293 29.1382 45.7823 30.6489 45.6352C33.4853 45.3592 36.3224 45.0831 39.1634 44.8716C41.2599 44.7158 42.7391 43.9391 43.7564 41.9976C44.7651 40.0716 45.8761 38.2001 46.9973 36.3113C47.4792 35.4995 47.9631 34.6843 48.4415 33.8604Z" fill="#737373"/>
</svg>
