<svg xmlns="http://www.w3.org/2000/svg" width="100" height="100" viewBox="0 0 100 100" fill="none">
<path fill-rule="evenodd" clip-rule="evenodd" d="M16.6885 23.8107C14.0983 24.2506 11.7746 26.5437 11.2227 29.2081C11.1349 29.633 11.0886 33.2742 11.0812 40.8711C11.081 41.1545 11.0811 41.4436 11.0812 41.7383C11.0812 41.9514 11.0813 42.1675 11.0812 42.3865V56.652C11.0812 57.1722 11.0812 57.6764 11.0812 58.1651C11.0809 63.8398 11.0806 67.4222 11.1272 69.7584L11.1342 73.2307L11.5161 74.179C11.9859 75.3448 12.7802 76.3634 13.7951 77.1328C14.2089 77.464 14.6521 77.75 15.1008 77.9708L16.023 78.424H16.3577L16.5836 78.5093L45.3357 78.4675L55.9585 78.483C55.0554 76.139 54.5603 73.5924 54.5603 70.9301C54.5603 59.3243 63.9686 49.916 75.5744 49.916C76.9478 49.916 78.2904 50.0478 79.5902 50.2993V42.3865C79.5902 42.1669 79.5902 41.9504 79.5903 41.7368C79.5904 41.4426 79.5905 41.154 79.5902 40.8711C79.5829 33.2742 79.5366 29.633 79.4488 29.2081C78.8969 26.5437 76.5731 24.2506 73.983 23.8107C73.5624 23.7404 65.3438 23.6919 55.7194 23.7036C51.1839 23.7087 47.8242 23.7137 45.3359 23.722C42.8475 23.7137 39.4876 23.7087 34.952 23.7036C25.3277 23.6919 17.1091 23.7404 16.6885 23.8107ZM36.0332 48.7172C38.8346 50.4768 41.4363 52.0724 42.9861 52.989C44.2524 53.6965 44.883 53.944 45.3356 53.9775C45.7882 53.944 46.4193 53.6965 47.6856 52.989C49.2355 52.0724 51.8368 50.4768 54.6382 48.7172C58.8712 46.0578 62.5579 43.7479 62.8311 43.584C62.9416 43.5188 63.0289 43.4686 63.1163 43.4335C68.0126 40.3492 71.6507 38.026 71.8159 37.8721C72.4807 37.26 72.6912 36.6645 72.6226 35.5891C72.5766 34.8682 72.4538 34.4584 72.1694 34.072C71.6647 33.3896 70.6339 32.8962 69.7107 32.8962C69.0261 32.8962 68.2277 33.3679 57.3264 40.2154C50.9174 44.2414 45.5847 47.5715 45.476 47.6166C45.4677 47.62 45.4195 47.5982 45.3357 47.5548C45.252 47.5982 45.2038 47.62 45.1955 47.6166C45.0868 47.5715 39.754 44.2414 33.3451 40.2154C22.4438 33.3679 21.6454 32.8962 20.9608 32.8962C20.0376 32.8962 19.0067 33.3896 18.502 34.072C18.2177 34.4584 18.0949 34.8682 18.0489 35.5891C17.9803 36.6645 18.1908 37.26 18.8556 37.8721C19.0209 38.026 22.6605 40.3476 27.5577 43.4335C27.6442 43.4686 27.7309 43.5188 27.8404 43.584C28.1136 43.7479 31.8003 46.0578 36.0332 48.7172Z" fill="#737373"/>
<path d="M61.6115 70.2211H56.7343L64.4192 77.7352L72.1041 70.2211H67.2734C67.627 66.0714 71.1458 62.8125 75.4345 62.8125C77.0673 62.8125 78.5806 63.282 79.8541 64.091L82.9084 59.3917C80.7512 58.0213 78.1824 57.2267 75.4345 57.2267C68.0243 57.2267 61.9743 62.9841 61.6115 70.2211Z" fill="#737373"/>
<path d="M89.5372 71.636H94.4144L86.7295 64.1218L79.0446 71.636H83.8753C83.5218 75.7856 80.0029 79.0445 75.7142 79.0445C74.0814 79.0445 72.5681 78.575 71.2947 77.766L68.2403 82.4653C70.3975 83.8357 72.9663 84.6304 75.7142 84.6304C83.1244 84.6304 89.1744 78.8729 89.5372 71.636Z" fill="#737373"/>
</svg>