<svg xmlns="http://www.w3.org/2000/svg" width="26" height="36" viewBox="0 0 26 36" fill="none">
  <path d="M2.99992 0H3.72739C3.74647 1.72266 3.76811 3.32446 5.54096 4.01353C5.88476 4.14756 6.41053 4.21633 7.11806 4.22007C9.38593 4.2304 11.6544 4.23369 13.924 4.22996C15.4591 4.2271 16.6279 3.49739 16.9753 1.87163C17.0207 1.65806 17.036 1.41921 17.0421 1.17004C17.0449 1.06326 17.0457 0.954492 17.0466 0.845068C17.0489 0.56206 17.0513 0.273779 17.0827 0H17.7953C19.7268 0.306519 20.6023 1.62839 20.6035 3.53804C20.6046 6.05896 20.605 11.1177 20.605 11.1177L20.6035 24.9034C20.6046 27.4467 20.6046 29.9916 20.6035 32.5378C20.6023 34.4333 19.6345 35.73 17.745 36H3.01752C0.910839 35.6667 0.173828 34.2422 0.173828 32.2284C0.176585 22.7457 0.176585 13.2629 0.173828 3.77996C0.173828 1.77056 0.894508 0.34585 2.99992 0Z" fill="#424242"/>
  <path d="M5.81625 0H14.9785C14.9853 0.079541 14.9931 0.159961 15.001 0.24082C15.0901 1.1573 15.1828 2.11201 13.8642 2.11069L6.79505 2.10806C5.67224 2.10806 5.73587 1.20322 5.79398 0.378589C5.8031 0.24917 5.81201 0.121729 5.81625 0Z" fill="#424242"/>
  <path d="M24.0438 16.7142L24.0438 16.7142L22.8364 17.6374C22.8429 17.7623 22.8459 17.89 22.8436 18.0197C22.8413 18.1451 22.834 18.2672 22.8236 18.3856L24.0015 19.3293L24.0025 19.33C24.4362 19.6787 24.514 20.2788 24.2563 20.7377L24.2517 20.7458L24.247 20.7538L22.767 23.245C22.4719 23.7581 21.8697 23.9092 21.4088 23.7399L21.396 23.7352L21.3833 23.73L19.9884 23.1579C19.786 23.2928 19.575 23.4172 19.3505 23.5301L19.1135 25.0368L19.112 25.0466L19.1102 25.0563C19.0117 25.5909 18.5409 25.9865 17.9939 25.9865H15.1176C14.5706 25.9865 14.1142 25.5909 14.0351 25.0563L14.0337 25.0466L14.0325 25.0368L13.8507 23.5335C13.6281 23.4199 13.421 23.2935 13.2249 23.1583L11.8103 23.73L11.7974 23.7352L11.7844 23.7399C11.3173 23.9092 10.7206 23.7581 10.4442 23.2449L9.05613 20.7561C8.7779 20.2639 8.92697 19.6614 9.35116 19.33L9.35217 19.3293L10.5644 18.3856C10.5582 18.2672 10.5554 18.1451 10.5577 18.0197C10.5601 17.89 10.5678 17.7623 10.5788 17.6374L9.40496 16.7142L9.3988 16.7094L9.39882 16.7093C8.98668 16.378 8.85953 15.7755 9.15568 15.2832L10.6344 12.7943C10.9157 12.3055 11.5149 12.103 12.0171 12.3091L13.4146 12.8765C13.6143 12.7441 13.825 12.6188 14.0513 12.5058L14.2878 11.0025L14.2893 10.9928L14.2911 10.983C14.3896 10.4485 14.8604 10.0529 15.4074 10.0529H18.2829H18.2837L18.27 10.8027C18.356 10.8025 18.4387 10.8328 18.5035 10.8883C18.5683 10.9438 18.611 11.0208 18.624 11.1058L24.0438 16.7142ZM24.0438 16.7142L24.0501 16.7093C24.4965 16.3607 24.5962 15.7605 24.3552 15.3017L24.3509 15.2936L24.3464 15.2855L22.957 12.7943L24.0438 16.7142ZM16.6683 19.7957C16.2007 19.7957 15.755 19.6093 15.4295 19.2766C15.104 18.9437 14.9253 18.4917 14.9339 18.0197C14.9425 17.5477 15.1376 17.0957 15.4753 16.7628C15.8129 16.4301 16.2653 16.2436 16.7329 16.2436C17.2006 16.2436 17.6462 16.4301 17.9717 16.7628C18.2973 17.0957 18.4759 17.5477 18.4673 18.0197C18.4588 18.4917 18.2637 18.9437 17.926 19.2766C17.5884 19.6093 17.136 19.7957 16.6683 19.7957Z" fill="#424242" stroke="white" stroke-width="1.5"/>
  <path d="M18.4958 18C18.4958 19.1046 17.6324 20 16.5672 20C15.5021 20 14.6387 19.1046 14.6387 18C14.6387 16.8954 15.5021 16 16.5672 16C17.6324 16 18.4958 16.8954 18.4958 18Z" fill="white"/>
</svg>
