<?xml version="1.0" encoding="UTF-8"?>
<svg width="27px" height="35px" viewBox="0 0 27 35" version="1.1" xmlns="http://www.w3.org/2000/svg" xmlns:xlink="http://www.w3.org/1999/xlink">
    <title>D57EC923-6E8A-4E1F-B0D5-7A707D20AA34</title>
    <g id="settings" stroke="none" stroke-width="1" fill="none" fill-rule="evenodd">
        <g transform="translate(-260.000000, -440.000000)" fill="#A2A2A2" fill-rule="nonzero" id="Group-6">
            <g transform="translate(240.000000, 420.000000)">
                <path d="M37,20 L22.25,20 L22.25,20 C21.01025,20 20,20.9821875 20,22.1875 L20,52.8125 C20,54.02 21.01025,55 22.25,55 L44.75,55 C45.992,55 47,54.02 47,52.8125 L47,30 C47,24.4771525 42.5228475,20 37,20 Z M41.375,50.625 L25.625,50.625 C25.004,50.625 24.5,50.135 24.5,49.53125 C24.5,48.9275 25.004,48.4375 25.625,48.4375 L41.375,48.4375 C41.996,48.4375 42.5,48.9275 42.5,49.53125 C42.5,50.135 41.996,50.625 41.375,50.625 Z M41.375,44.4375 C41.996,44.4375 42.5,44.9275 42.5,45.53125 C42.5,46.135 41.996,46.625 41.375,46.625 L25.625,46.625 C25.004,46.625 24.5,46.135 24.5,45.53125 C24.5,44.9275 25.004,44.4375 25.625,44.4375 L41.375,44.4375 Z M31.8179217,27.0714956 C31.95542,27.1545989 32.0944293,27.2331694 32.2334385,27.3117399 C32.3724478,27.3903103 32.3996453,27.4341285 32.3089871,27.5927804 L31.2150444,29.4830044 C30.9883989,29.8698129 30.760746,30.2561177 30.5320858,30.6419188 C30.5109322,30.6781821 30.4822238,30.7144454 30.5063993,30.7567525 C30.5305748,30.7990597 30.5940356,30.7960378 30.6423866,30.7960378 L35.2024955,30.7960378 C35.2463136,30.7960378 35.2991976,30.8096365 35.3233731,30.7567525 C35.3354609,30.7303105 35.3313057,30.7110457 35.3216733,30.6940473 L35.2871098,30.6449407 L35.2871098,30.6449407 C34.6877582,29.6295686 34.0858883,28.6157074 33.4815001,27.6033572 C33.3772432,27.4250627 33.3817761,27.4129749 33.5630925,27.3102289 C33.7141896,27.2286365 33.8501769,27.1470441 33.9922082,27.0624297 C34.1342394,26.9778154 34.1780575,26.9747935 34.2717377,27.1334454 C34.9410976,28.2742281 35.6134795,29.4134998 36.2767955,30.5573044 C36.3540547,30.7207713 36.5260677,30.81768 36.7059111,30.7990597 C37.5021925,30.7899939 38.298474,30.7990597 39.0947554,30.7990597 C39.3002474,30.7945268 39.3168681,30.8126584 39.2745609,31.0045517 C39.0388495,32.1125967 38.8026345,33.2176198 38.5659158,34.3196209 L37.8315841,37.740458 C37.78189,37.9687824 37.7775622,37.9953457 37.5893811,37.9984298 L28.2293668,37.998834 L28.2293668,37.998834 C28.1670257,38.005117 28.1048044,37.9858261 28.0569513,37.9453789 C28.0090983,37.9049317 27.9797127,37.8467929 27.9755238,37.7842762 C27.8244267,37.0937627 27.6823955,36.4062711 27.5358314,35.7172686 L26.531036,31.0151285 C26.4857069,30.8035926 26.4917508,30.7945268 26.7002647,30.7945268 L29.1314162,30.7945268 L29.1314162,30.7945268 C29.2799835,30.8056165 29.4202176,30.7247122 29.4849833,30.5905458 C30.1528322,29.4432155 30.8237031,28.2978999 31.4975959,27.1545989 C31.6063858,26.9687496 31.6350942,26.9627057 31.8179217,27.0714956 Z" id="buyback"></path>
            </g>
        </g>
    </g>
</svg>