<?xml version="1.0" encoding="UTF-8"?>
<svg width="39px" height="30px" viewBox="0 0 39 30" version="1.1" xmlns="http://www.w3.org/2000/svg" xmlns:xlink="http://www.w3.org/1999/xlink">
    <title>DE37A0C0-3406-4840-BF52-726089E64ED3</title>
    <g id="reports" stroke="none" stroke-width="1" fill="none" fill-rule="evenodd">
        <g transform="translate(-260.000000, -250.000000)" id="Group-2">
            <g transform="translate(240.000000, 227.000000)">
                <g id="check-register" transform="translate(20.000000, 23.000000)">
                    <polygon id="Path" fill="#A2A2A2" fill-rule="nonzero" transform="translate(35.237528, 3.780191) scale(-1, 1) rotate(-90.000000) translate(-35.237528, -3.780191) " points="32.1299645 0.687194256 32.1299645 6.8731884 38.3450921 6.8731884"></polygon>
                    <path d="M25.3163265,4.640625 L25.3163265,-4.5 L7.10869565,-4.5 C5.66795283,-4.5 4.5,-3.33204717 4.5,-1.89130435 L4.5,31.8913043 C4.5,33.3320472 5.66795283,34.5 7.10869565,34.5 L31.8913043,34.5 C33.3320472,34.5 34.5,33.3320472 34.5,31.8913043 L34.5,4.640625 L34.5,4.640625 L25.3163265,4.640625 Z" id="Path" fill="#A2A2A2" fill-rule="nonzero" transform="translate(19.500000, 15.000000) scale(-1, 1) rotate(-90.000000) translate(-19.500000, -15.000000) "></path>
                    <rect id="Rectangle" fill="#FFFFFF" transform="translate(11.800000, 19.870748) scale(-1, 1) rotate(-90.000000) translate(-11.800000, -19.870748) " x="10.9292517" y="12.0707483" width="1.7414966" height="15.6"></rect>
                    <rect id="Rectangle-Copy-8" fill="#FFFFFF" transform="translate(11.800000, 23.353741) scale(-1, 1) rotate(-90.000000) translate(-11.800000, -23.353741) " x="10.9292517" y="15.5537415" width="1.7414966" height="15.6"></rect>
                    <path d="M33.9117187,23.2269528 L33.9117187,24.8571429 L32.0835937,24.8571429 L32.0835937,23.2287938 C31.7029781,23.1188307 31.3510641,22.9479153 31.0579547,22.707738 L30.4125656,22.1793182 L31.7068781,21.1253644 L32.3522672,21.6537843 C32.87895,22.0860237 33.9117187,21.7383215 33.9117187,21.1253644 C33.9117187,20.7135751 33.501975,20.3790087 32.9976562,20.3790087 C31.4855531,20.3790087 30.2554687,19.374613 30.2554687,18.1399417 C30.2554687,17.1681866 31.0219406,16.3474939 32.0835937,16.0383534 L32.0835937,14.4081633 L33.9117187,14.4081633 L33.9117187,16.0365123 C34.2923344,16.1464754 34.6442484,16.3173909 34.9373578,16.5575681 L35.5827469,17.0859879 L34.2884344,18.1399417 L33.6430453,17.6115219 C33.1199578,17.1829644 32.0845078,17.529174 32.0835937,18.1399417 C32.0835937,18.551731 32.4933375,18.8862974 32.9976562,18.8862974 C34.5097594,18.8862974 35.7398437,19.8906931 35.7398437,21.1253644 C35.7398437,22.0971195 34.9733719,22.9178122 33.9117187,23.2269528 Z" id="Path" fill="#FFFFFF" fill-rule="nonzero" transform="translate(32.997656, 19.632653) rotate(-180.000000) translate(-32.997656, -19.632653) "></path>
                </g>
            </g>
        </g>
    </g>
</svg>