<?xml version="1.0" encoding="UTF-8"?>
<svg width="29px" height="29px" viewBox="0 0 29 29" version="1.1" xmlns="http://www.w3.org/2000/svg" xmlns:xlink="http://www.w3.org/1999/xlink">
    <title>devices</title>
    <g id="settings" stroke="none" stroke-width="1" fill="none" fill-rule="evenodd">
        <g transform="translate(-558.000000, -248.000000)" fill="#A2A2A2" fill-rule="nonzero" id="Group-6">
            <g transform="translate(538.000000, 223.000000)">
                <g id="devices" transform="translate(20.000000, 25.000000)">
                    <path d="M28,26 L28,26.75 C28,27.9907 26.9111286,29 25.5726141,29 L25.5726141,29 L17.4273859,29 C16.0888714,29 15,27.9907 15,26.75 L15,26.75 L15,26 L28,26 Z M26.2259587,10 C27.4732445,10 27.9364372,10.8764074 27.9937825,11.9997849 L28,12 L28,25 L15,25 L15,12 C15.0825222,10.8764667 15.6710092,10 16.9183372,10 L16.9183372,10 Z" id="Combined-Shape"></path>
                    <path d="M25.6449318,0 L2.64078245,0 C1.18459632,0 0,1.21592767 0,2.71062842 L0,6 C9.68715293,6 18.2650012,6 28.2857143,6 L28.2857143,2.71062842 C28.2857143,1.21592767 27.101118,0 25.6449318,0 Z" id="Path"></path>
                    <path d="M0,5.14285714 L0,18.8571429 L14,18.6162595 L14,12.9772649 C14,10.5723219 14.9003401,9.04429142 17.3271018,9.04429142 L28.2857143,9.04429142 L28.2857143,5.14285714 C18.2613041,5.14285714 9.68099111,5.14285714 0,5.14285714 Z" id="Path"></path>
                    <path d="M0.871369295,18 L0,18 L0,18.8477237 C0,20.2500848 1.17263071,21.3908948 2.61410788,21.3908948 L9.91780913,21.3908948 L8.24607624,23.8111358 L14,23.8111358 L14,18 L0.871369295,18 Z" id="Path"></path>
                    <path d="M13.9129119,27.4285714 L13.9129119,24.8571429 L7.83166249,24.8571429 C6.40606846,24.8571429 5.25011474,26.0081714 5.25,27.4285714 C5.25,27.9023429 5.63489719,28.2857143 6.11055416,28.2857143 L14,28.2857143 C13.9432608,28.0086286 13.9129119,27.7220571 13.9129119,27.4285714 Z" id="Path"></path>
                </g>
            </g>
        </g>
    </g>
</svg>