<?xml version="1.0" encoding="UTF-8"?>
<svg width="27px" height="35px" viewBox="0 0 27 35" version="1.1" xmlns="http://www.w3.org/2000/svg" xmlns:xlink="http://www.w3.org/1999/xlink">
    <title>billing</title>
    <g id="settings" stroke="none" stroke-width="1" fill="none" fill-rule="evenodd">
        <g transform="translate(-859.000000, -240.000000)" fill="#A2A2A2" fill-rule="nonzero" id="Group-6-Copy">
            <g transform="translate(837.000000, 223.000000)">
                <path d="M39,17 L24.25,17 L24.25,17 C23.01025,17 22,17.9821875 22,19.1875 L22,49.8125 C22,51.02 23.01025,52 24.25,52 L46.75,52 C47.992,52 49,51.02 49,49.8125 L49,27 C49,21.4771525 44.5228475,17 39,17 Z M43.375,47.625 L27.625,47.625 C27.004,47.625 26.5,47.135 26.5,46.53125 C26.5,45.9275 27.004,45.4375 27.625,45.4375 L43.375,45.4375 C43.996,45.4375 44.5,45.9275 44.5,46.53125 C44.5,47.135 43.996,47.625 43.375,47.625 Z M43.375,41.4375 C43.996,41.4375 44.5,41.9275 44.5,42.53125 C44.5,43.135 43.996,43.625 43.375,43.625 L27.625,43.625 C27.004,43.625 26.5,43.135 26.5,42.53125 C26.5,41.9275 27.004,41.4375 27.625,41.4375 L43.375,41.4375 Z M41.7313356,24.23 C42.0568148,23.9045208 42.5845208,23.9045208 42.91,24.23 C43.235848,24.555848 43.235848,25.084152 42.91,25.41 L42.91,25.41 L34.2071068,34.1128932 C33.8165825,34.5034175 33.1834175,34.5034175 32.7928932,34.1128932 L32.7928932,34.1128932 L29.4450214,30.7650214 C29.1211173,30.4411173 29.1188761,29.9166605 29.44,29.59 C29.4416383,29.5883334 29.4432838,29.5866739 29.4449363,29.5850214 C29.7652849,29.2646727 30.2846727,29.2646727 30.6050214,29.5850214 L30.6050214,29.5850214 L32.792092,31.772092 L32.792092,31.772092 L32.8871947,31.8559742 C33.2798311,32.1605546 33.8470304,32.1321827 34.2071059,31.7712907 L34.2071059,31.7712907 L41.7306686,24.2306678 C41.7308908,24.2304451 41.7311131,24.2302225 41.7313356,24.23 Z" id="billing"></path>
            </g>
        </g>
    </g>
</svg>