<?xml version="1.0" encoding="UTF-8"?>
<svg width="35px" height="35px" viewBox="0 0 35 35" version="1.1" xmlns="http://www.w3.org/2000/svg" xmlns:xlink="http://www.w3.org/1999/xlink">
    <title>company</title>
    <g id="settings" stroke="none" stroke-width="1" fill="none" fill-rule="evenodd">
        <g transform="translate(-260.000000, -243.000000)" fill="#A2A2A2" fill-rule="nonzero" id="Group">
            <g transform="translate(240.000000, 223.000000)">
                <g id="company" transform="translate(20.000000, 20.000000)">
                    <path d="M18.8710345,0.0323259045 L2.95448276,0.0323259045 C2.21586207,-0.0852124959 1.46275862,0.120479705 0.897931034,0.605325606 C0.333103448,1.10486381 0,1.82478651 0,2.57409381 L0,33.53077 C0,34.3388465 0.651724138,35 1.44827586,35 L6.15517241,35 L6.15517241,27.2865425 C6.15517241,25.8613894 7.28482759,24.71539 8.68965517,24.71539 L12.3103448,24.71539 C13.7151724,24.71539 14.8448276,25.8613894 14.8448276,27.2865425 L14.8448276,35 L21,35 L21,2.57409381 C21,1.31055601 20.102069,0.238018105 18.8710345,0.0323259045 Z M8.18275862,21.923853 L5.86551724,21.923853 C5.22595862,21.923853 4.70689655,21.3972809 4.70689655,20.748469 C4.70689655,20.099657 5.22595862,19.573085 5.86551724,19.573085 L8.18275862,19.573085 C8.82231724,19.573085 9.34137931,20.099657 9.34137931,20.748469 C9.34137931,21.3972809 8.82231724,21.923853 8.18275862,21.923853 Z M15.1344828,21.923853 L12.8172414,21.923853 C12.1776828,21.923853 11.6586207,21.3972809 11.6586207,20.748469 C11.6586207,20.099657 12.1776828,19.573085 12.8172414,19.573085 L15.1344828,19.573085 C15.7740414,19.573085 16.2931034,20.099657 16.2931034,20.748469 C16.2931034,21.3972809 15.7740414,21.923853 15.1344828,21.923853 Z M8.18275862,17.222317 L5.86551724,17.222317 C5.22595862,17.222317 4.70689655,16.6957449 4.70689655,16.0469329 C4.70689655,15.398121 5.22595862,14.8715489 5.86551724,14.8715489 L8.18275862,14.8715489 C8.82231724,14.8715489 9.34137931,15.398121 9.34137931,16.0469329 C9.34137931,16.6957449 8.82231724,17.222317 8.18275862,17.222317 Z M15.1344828,17.222317 L12.8172414,17.222317 C12.1776828,17.222317 11.6586207,16.6957449 11.6586207,16.0469329 C11.6586207,15.398121 12.1776828,14.8715489 12.8172414,14.8715489 L15.1344828,14.8715489 C15.7740414,14.8715489 16.2931034,15.398121 16.2931034,16.0469329 C16.2931034,16.6957449 15.7740414,17.222317 15.1344828,17.222317 Z M8.18275862,12.5207809 L5.86551724,12.5207809 C5.22595862,12.5207809 4.70689655,11.9942089 4.70689655,11.3453969 C4.70689655,10.696585 5.22595862,10.1700129 5.86551724,10.1700129 L8.18275862,10.1700129 C8.82231724,10.1700129 9.34137931,10.696585 9.34137931,11.3453969 C9.34137931,11.9942089 8.82231724,12.5207809 8.18275862,12.5207809 Z M15.1344828,12.5207809 L12.8172414,12.5207809 C12.1776828,12.5207809 11.6586207,11.9942089 11.6586207,11.3453969 C11.6586207,10.696585 12.1776828,10.1700129 12.8172414,10.1700129 L15.1344828,10.1700129 C15.7740414,10.1700129 16.2931034,10.696585 16.2931034,11.3453969 C16.2931034,11.9942089 15.7740414,12.5207809 15.1344828,12.5207809 Z M8.18275862,7.81924493 L5.86551724,7.81924493 C5.22595862,7.81924493 4.70689655,7.29267289 4.70689655,6.64386092 C4.70689655,5.99504895 5.22595862,5.46847692 5.86551724,5.46847692 L8.18275862,5.46847692 C8.82231724,5.46847692 9.34137931,5.99504895 9.34137931,6.64386092 C9.34137931,7.29267289 8.82231724,7.81924493 8.18275862,7.81924493 Z M15.1344828,7.81924493 L12.8172414,7.81924493 C12.1776828,7.81924493 11.6586207,7.29267289 11.6586207,6.64386092 C11.6586207,5.99504895 12.1776828,5.46847692 12.8172414,5.46847692 L15.1344828,5.46847692 C15.7740414,5.46847692 16.2931034,5.99504895 16.2931034,6.64386092 C16.2931034,7.29267289 15.7740414,7.81924493 15.1344828,7.81924493 Z" id="Shape"></path>
                    <path d="M33.0517647,13 L23,13 L23,35 L32.5294118,35 C33.8917647,35 35,33.8210799 35,32.3718343 L35,15.5680934 C35,14.3275992 34.2051765,13.2718274 33.0517647,13 Z M29.7058824,28.0916786 L27.5882353,28.0916786 C27.0037647,28.0916786 26.5294118,27.5870708 26.5294118,26.9653219 C26.5294118,26.3435729 27.0037647,25.8389651 27.5882353,25.8389651 L29.7058824,25.8389651 C30.2903529,25.8389651 30.7647059,26.3435729 30.7647059,26.9653219 C30.7647059,27.5870708 30.2903529,28.0916786 29.7058824,28.0916786 Z M29.7058824,23.5862516 L27.5882353,23.5862516 C27.0037647,23.5862516 26.5294118,23.0816438 26.5294118,22.4598949 C26.5294118,21.8381459 27.0037647,21.3335381 27.5882353,21.3335381 L29.7058824,21.3335381 C30.2903529,21.3335381 30.7647059,21.8381459 30.7647059,22.4598949 C30.7647059,23.0816438 30.2903529,23.5862516 29.7058824,23.5862516 Z M29.7058824,18.7804628 L27.5882353,18.7804628 C27.0037647,18.7804628 26.5294118,18.275855 26.5294118,17.6541061 C26.5294118,17.0323572 27.0037647,16.5277493 27.5882353,16.5277493 L29.7058824,16.5277493 C30.2903529,16.5277493 30.7647059,17.0323572 30.7647059,17.6541061 C30.7647059,18.275855 30.2903529,18.7804628 29.7058824,18.7804628 Z" id="Shape"></path>
                </g>
            </g>
        </g>
    </g>
</svg>