<svg xmlns="http://www.w3.org/2000/svg" width="29" height="36" viewBox="0 0 29 36" fill="none">
  <path d="M2.93076 0H3.68517C3.70497 1.72266 3.7274 3.32446 5.56592 4.01353C5.92245 4.14756 6.46769 4.21633 7.20142 4.22007C9.55329 4.2304 11.9058 4.23369 14.2594 4.22996C15.8514 4.2271 17.0635 3.49739 17.4238 1.87163C17.4709 1.65806 17.4867 1.41921 17.4931 1.17004C17.4959 1.06326 17.4968 0.954492 17.4977 0.845068C17.5001 0.56206 17.5025 0.273779 17.5351 0H18.2741C20.2771 0.306519 21.1851 1.62839 21.1864 3.53804C21.1875 6.05896 21.1879 11.1177 21.1879 11.1177L21.1864 24.9034C21.1875 27.4467 21.1875 29.9916 21.1864 32.5378C21.1851 34.4333 20.1814 35.73 18.222 36H2.94902C0.764307 35.6667 0 34.2422 0 32.2284C0.00285928 22.7457 0.00285928 13.2629 0 3.77996C0 1.77056 0.747371 0.34585 2.93076 0Z" fill="#424242"/>
  <path d="M5.8514 0H15.353C15.36 0.079541 15.3682 0.159961 15.3763 0.24082C15.4687 1.1573 15.5648 2.11201 14.1974 2.11069L6.86645 2.10806C5.70206 2.10806 5.76804 1.20322 5.82831 0.378589C5.83777 0.24917 5.847 0.121729 5.8514 0Z" fill="#424242"/>
  <path d="M9.5 18.0714C9.5 22.253 12.8898 25.6429 17.0714 25.6429C19.1891 25.6429 21.106 24.7715 22.4784 23.3715C23.8158 22.0073 24.6429 20.1345 24.6429 18.0714C24.6429 13.8898 21.253 10.5 17.0714 10.5C12.8898 10.5 9.5 13.8898 9.5 18.0714Z" stroke="white" stroke-width="3" stroke-linecap="round" stroke-linejoin="round"/>
  <path d="M11 18.0714C11 21.4246 13.7183 24.1429 17.0714 24.1429C18.7698 24.1429 20.3054 23.4455 21.4073 22.3214C22.4809 21.2263 23.1429 19.7262 23.1429 18.0714C23.1429 14.7183 20.4246 12 17.0714 12C13.7183 12 11 14.7183 11 18.0714Z" fill="white"/>
  <path d="M21.4073 22.3214C22.4809 21.2263 23.1429 19.7262 23.1429 18.0714C23.1429 14.7183 20.4246 12 17.0714 12C13.7183 12 11 14.7183 11 18.0714C11 21.4246 13.7183 24.1429 17.0714 24.1429C18.7698 24.1429 20.3054 23.4455 21.4073 22.3214ZM21.4073 22.3214L24.7036 25.6178L28 28.9141" stroke="#424242" stroke-width="2" stroke-linecap="round" stroke-linejoin="round"/>
</svg>