<svg width="64" height="64" viewBox="0 0 64 64" fill="none" xmlns="http://www.w3.org/2000/svg">
<path d="M58.6166 22.4885L55.6 11.45C55.23 10.0938 53.8966 9.14294 52.3666 9.14294H11.6366C10.1066 9.14294 8.77331 10.0938 8.39998 11.45L5.38331 22.4885C5.34998 22.6073 5.33331 22.7323 5.33331 22.8572C5.33331 27.0568 8.88331 30.4763 13.25 30.4763C15.7866 30.4763 18.05 29.3212 19.5 27.5292C20.95 29.3212 23.2133 30.4763 25.75 30.4763C28.2866 30.4763 30.55 29.3212 32 27.5292C33.45 29.3212 35.71 30.4763 38.25 30.4763C40.79 30.4763 43.05 29.3212 44.5 27.5292C45.95 29.3212 48.21 30.4763 50.75 30.4763C55.1166 30.4763 58.6666 27.0568 58.6666 22.8572C58.6666 22.7323 58.65 22.6073 58.6166 22.4885Z" fill="#424242"/>
<path d="M50.5715 32.6523C48.3231 32.6523 46.187 31.8825 44.381 30.4762C40.7691 33.2925 35.612 33.2925 32 30.4762C28.3881 33.2925 23.231 33.2925 19.6191 30.4762C17.8131 31.8825 15.677 32.6523 13.4286 32.6523C11.8075 32.6523 10.2789 32.2267 8.88893 31.5013V51.1563C8.88893 53.1992 10.368 54.8571 12.1905 54.8571H25.3969V40.0539H38.6032V54.8571H51.8096C53.632 54.8571 55.1112 53.1992 55.1112 51.1563V31.5013C53.7212 32.2267 52.1926 32.6523 50.5715 32.6523Z" fill="#424242"/>
</svg>
