<svg width="64" height="64" viewBox="0 0 64 64" fill="none" xmlns="http://www.w3.org/2000/svg">
<path fill-rule="evenodd" clip-rule="evenodd" d="M34.0892 5.38263H9.8354C8.70988 5.20353 7.56229 5.51696 6.7016 6.25577C5.84091 7.01698 5.33333 8.114 5.33333 9.2558V56.4279C5.33333 57.6592 6.32643 58.6667 7.54022 58.6667H14.7126V46.9129C14.7126 44.7412 16.434 42.9949 18.5747 42.9949H24.0919C26.2326 42.9949 27.954 44.7412 27.954 46.9129V58.6667H37.3333V9.2558C37.3333 7.33041 35.9651 5.69607 34.0892 5.38263ZM17.8025 38.7411H14.2714C13.2969 38.7411 12.5059 37.9387 12.5059 36.95C12.5059 35.9613 13.2969 35.159 14.2714 35.159H17.8025C18.777 35.159 19.568 35.9613 19.568 36.95C19.568 37.9387 18.777 38.7411 17.8025 38.7411ZM24.8643 38.7411H28.3953C29.3699 38.7411 30.1608 37.9387 30.1608 36.95C30.1608 35.9613 29.3699 35.159 28.3953 35.159H24.8643C23.8897 35.159 23.0988 35.9613 23.0988 36.95C23.0988 37.9387 23.8897 38.7411 24.8643 38.7411ZM17.8025 31.5769H14.2714C13.2969 31.5769 12.5059 30.7745 12.5059 29.7858C12.5059 28.7972 13.2969 27.9948 14.2714 27.9948H17.8025C18.777 27.9948 19.568 28.7972 19.568 29.7858C19.568 30.7745 18.777 31.5769 17.8025 31.5769ZM24.8643 31.5769H28.3953C29.3699 31.5769 30.1608 30.7745 30.1608 29.7858C30.1608 28.7972 29.3699 27.9948 28.3953 27.9948H24.8643C23.8897 27.9948 23.0988 28.7972 23.0988 29.7858C23.0988 30.7745 23.8897 31.5769 24.8643 31.5769ZM17.8025 24.4125H14.2714C13.2969 24.4125 12.5059 23.6101 12.5059 22.6214C12.5059 21.6327 13.2969 20.8303 14.2714 20.8303H17.8025C18.777 20.8303 19.568 21.6327 19.568 22.6214C19.568 23.6101 18.777 24.4125 17.8025 24.4125ZM24.8643 24.4125H28.3953C29.3699 24.4125 30.1608 23.6101 30.1608 22.6214C30.1608 21.6327 29.3699 20.8303 28.3953 20.8303H24.8643C23.8897 20.8303 23.0988 21.6327 23.0988 22.6214C23.0988 23.6101 23.8897 24.4125 24.8643 24.4125ZM17.8025 17.2483H14.2714C13.2969 17.2483 12.5059 16.4459 12.5059 15.4572C12.5059 14.4686 13.2969 13.6662 14.2714 13.6662H17.8025C18.777 13.6662 19.568 14.4686 19.568 15.4572C19.568 16.4459 18.777 17.2483 17.8025 17.2483ZM24.8643 17.2483H28.3953C29.3699 17.2483 30.1608 16.4459 30.1608 15.4572C30.1608 14.4686 29.3699 13.6662 28.3953 13.6662H24.8643C23.8897 13.6662 23.0988 14.4686 23.0988 15.4572C23.0988 16.4459 23.8897 17.2483 24.8643 17.2483Z" fill="#424242"/>
<path fill-rule="evenodd" clip-rule="evenodd" d="M40.3809 25.1429H55.6979C57.4555 25.5572 58.6667 27.166 58.6667 29.0562V54.6619C58.6667 56.8703 56.9779 58.6668 54.902 58.6668H40.3809V25.1429ZM47.3726 48.1399H50.5995C51.4902 48.1399 52.213 47.371 52.213 46.4235C52.213 45.4761 51.4902 44.7072 50.5995 44.7072H47.3726C46.482 44.7072 45.7592 45.4761 45.7592 46.4235C45.7592 47.371 46.482 48.1399 47.3726 48.1399ZM50.5995 41.2746H47.3726C46.482 41.2746 45.7592 40.5057 45.7592 39.5583C45.7592 38.6109 46.482 37.8419 47.3726 37.8419H50.5995C51.4902 37.8419 52.213 38.6109 52.213 39.5583C52.213 40.5057 51.4902 41.2746 50.5995 41.2746ZM47.3726 33.9512H50.5995C51.4902 33.9512 52.213 33.1823 52.213 32.2349C52.213 31.2875 51.4902 30.5185 50.5995 30.5185H47.3726C46.482 30.5185 45.7592 31.2875 45.7592 32.2349C45.7592 33.1823 46.482 33.9512 47.3726 33.9512Z" fill="#424242"/>
</svg>
