<?xml version="1.0" encoding="UTF-8"?>
<svg width="32px" height="20px" viewBox="0 0 32 20" version="1.1" xmlns="http://www.w3.org/2000/svg" xmlns:xlink="http://www.w3.org/1999/xlink">
    <title>payout</title>
    <g id="settings" stroke="none" stroke-width="1" fill="none" fill-rule="evenodd">
        <g transform="translate(-260.000000, -448.000000)" fill="#A2A2A2" fill-rule="nonzero" id="Group-2">
            <g transform="translate(240.000000, 420.000000)">
                <path d="M35.815525,48 C31.4589007,48 27.103329,48 22.7488099,48 C20.9473211,47.9969074 20,47.0861296 20,45.3310654 C20,40.4581207 20,35.5867223 20,30.7168703 C20,28.9834545 20.9694252,28.0077316 22.7314424,28.0061852 C31.4152187,27.9979383 40.0989951,27.9979383 48.7827714,28.0061852 C50.6063644,28.0061852 51.5789474,28.9896397 51.5789474,30.7462502 C51.5789474,35.5913613 51.5789474,40.4364723 51.5789474,45.2815834 C51.5789474,47.0768517 50.6316263,47.9984537 48.8001389,48 L35.815525,48 Z M35.6460317,43.9378383 C39.3200279,43.9378383 42.994024,43.9007268 46.6533242,43.9579403 C47.9735135,43.9780424 48.4021464,43.6904283 48.2110986,42.9172723 C48.1876514,42.8147162 48.1876514,42.710566 48.2110986,42.6080099 C48.3801024,41.8827895 47.9073816,41.6647595 46.7415001,41.6693985 C39.6531368,41.7003247 32.5623242,41.6848616 25.4715116,41.6864079 C23.3283472,41.6864079 23.3283472,41.6864079 23.3479418,43.0672646 C23.3503904,43.0935292 23.3503904,43.1198619 23.3479418,43.1461265 C23.2107793,43.7739292 23.6565575,43.9625792 24.6289418,43.956394 C28.3053873,43.9208288 31.9744848,43.9378383 35.6460317,43.9378383 Z M48.5644728,34.0491727 L48.5644728,32.4688418 C48.5644728,31.800835 48.2360682,31.4219886 47.541366,31.414257 C46.3587936,31.4018865 45.1730634,31.4003402 43.9920698,31.414257 C43.3810477,31.4235349 43.0447488,31.7683625 43.0447488,32.3652389 C43.0321178,33.5239421 43.0321178,34.6821298 43.0447488,35.8398021 C43.0526431,36.47379 43.4094674,36.8124323 44.0599612,36.8170713 C45.2156929,36.8263492 46.3714245,36.8248028 47.5334717,36.8170713 C48.2265949,36.8170713 48.5676305,36.4552343 48.5707883,35.7825885 C48.5660517,35.2135457 48.5644728,34.6274934 48.5644728,34.0491727 L48.5644728,34.0491727 Z" id="payout"></path>
            </g>
        </g>
    </g>
</svg>