<?xml version="1.0" encoding="UTF-8"?>
<svg width="27px" height="35px" viewBox="0 0 27 35" version="1.1" xmlns="http://www.w3.org/2000/svg" xmlns:xlink="http://www.w3.org/1999/xlink">
    <title>billing</title>
    <g id="settings" stroke="none" stroke-width="1" fill="none" fill-rule="evenodd">
        <g transform="translate(-559.000000, -440.000000)" fill="#A2A2A2" fill-rule="nonzero" id="Group-5">
            <g transform="translate(539.000000, 420.000000)">
                <path d="M37,20 L22.25,20 L22.25,20 C21.01025,20 20,20.9821875 20,22.1875 L20,52.8125 C20,54.02 21.01025,55 22.25,55 L44.75,55 C45.992,55 47,54.02 47,52.8125 L47,30 C47,24.4771525 42.5228475,20 37,20 Z M32.1642857,28.60075 L32.1642857,27.6875 C32.1642857,27.239 32.5386857,26.875 33,26.875 C33.4613143,26.875 33.8357143,27.239 33.8357143,27.6875 L33.8357143,28.602375 C34.3588714,28.71775 34.8469286,28.93225 35.2497429,29.25075 C35.6091,29.5335 35.6625857,30.045375 35.3700857,30.393125 C35.0775857,30.7425 34.5510857,30.792875 34.1950714,30.510125 C33.8791714,30.2615 33.4546286,30.125 33,30.125 C32.0940857,30.125 31.3285714,30.682375 31.3285714,31.34375 C31.3285714,32.005125 32.0940857,32.5625 33,32.5625 C34.8435857,32.5625 36.3428571,33.838125 36.3428571,35.40625 C36.3428571,36.727375 35.2731429,37.83075 33.8357143,38.14925 L33.8357143,39.0625 C33.8357143,39.511 33.4613143,39.875 33,39.875 C32.5386857,39.875 32.1642857,39.511 32.1642857,39.0625 L32.1642857,38.147625 C31.6411286,38.03225 31.1530714,37.81775 30.7502571,37.49925 C30.3909,37.214875 30.3374143,36.703 30.6299143,36.35525 C30.9224143,36.00425 31.4472429,35.9555 31.8049286,36.23825 C32.1208286,36.4885 32.5453714,36.625 33,36.625 C33.9059143,36.625 34.6714286,36.067625 34.6714286,35.40625 C34.6714286,34.744875 33.9059143,34.1875 33,34.1875 C31.1564143,34.1875 29.6571429,32.911875 29.6571429,31.34375 C29.6571429,30.022625 30.7268571,28.91925 32.1642857,28.60075 Z M41.375,50.625 L25.625,50.625 C25.004,50.625 24.5,50.135 24.5,49.53125 C24.5,48.9275 25.004,48.4375 25.625,48.4375 L41.375,48.4375 C41.996,48.4375 42.5,48.9275 42.5,49.53125 C42.5,50.135 41.996,50.625 41.375,50.625 Z M41.375,46.625 L25.625,46.625 C25.004,46.625 24.5,46.135 24.5,45.53125 C24.5,44.9275 25.004,44.4375 25.625,44.4375 L41.375,44.4375 C41.996,44.4375 42.5,44.9275 42.5,45.53125 C42.5,46.135 41.996,46.625 41.375,46.625 Z" id="billing"></path>
            </g>
        </g>
    </g>
</svg>