<svg
  xmlns="http://www.w3.org/2000/svg"
  width="155"
  height="39"
  viewBox="0 0 155 39"
  fill="none">
  <path d="M20.6269 16.399C18.9991 16.3162 17.5856 17.8113 17.5766 19.3743C17.5704 21.0276 19.015 22.3961 20.584 22.4111C22.2485 22.4262 23.6544 20.9954 23.6585 19.4167C23.6627 17.7873 22.2713 16.3429 20.6269 16.399Z" fill="#424242"/>
  <path d="M39.3656 13.756C39.1243 10.9267 38.8817 8.09663 38.5741 5.27345C38.3578 3.29956 36.6305 1.59757 34.6398 1.31881C33.5518 1.16676 32.4521 1.09005 31.3565 0.991427C28.8378 0.764039 26.3052 0.593498 23.792 0.303783C22.1925 0.119544 20.8336 0.509254 19.7139 1.61812C13.9335 7.34392 8.16309 13.0798 2.40257 18.8257C1.45976 19.7647 0.936514 20.8948 0.98559 22.1885C0.9455 23.6316 1.52335 24.7535 2.48758 25.7096C6.30996 29.4994 10.1333 33.2872 13.9575 37.0729C16.1763 39.2646 18.8809 39.3084 21.0949 37.1284C26.7637 31.5441 32.4182 25.9439 38.0585 20.3277C38.8631 19.5304 39.3372 18.5675 39.5411 17.4606C39.7706 16.2121 39.4706 14.9854 39.3656 13.756ZM28.3263 20.8756C28.074 20.99 27.8003 21.0502 27.5397 21.1495C27.1347 21.3023 26.6715 21.8769 26.6598 22.3632C26.6494 22.7919 26.798 23.1426 26.9971 23.4995C27.492 24.3898 27.1277 25.2884 26.2824 25.7644C25.6866 26.1 25.0845 25.948 24.5233 25.6048C24.0187 25.2966 23.4809 25.3076 22.9853 25.572C22.8042 25.6726 22.6468 25.8104 22.5237 25.9761C22.4006 26.1418 22.3146 26.3316 22.2713 26.5329C22.1296 27.1315 21.8393 27.6287 21.2269 27.8164C20.808 27.9511 20.3557 27.9431 19.942 27.7938C19.5148 27.6376 19.2556 27.3144 19.0876 26.9034C18.939 26.5377 18.872 26.1425 18.5727 25.8309C18.1061 25.3439 17.2801 25.2562 16.723 25.5918C16.367 25.8055 15.9945 25.9473 15.5562 25.9343C15.0033 25.9206 14.3121 25.346 14.151 24.9001C14.0771 24.6946 14.0066 24.5015 14.0349 24.2837C13.9893 23.9837 14.113 23.7234 14.2554 23.4755C14.4724 23.0995 14.6155 22.7145 14.5678 22.2687C14.5201 21.8228 14.1531 21.3557 13.7349 21.1619C13.4038 21.0091 13.0292 20.966 12.7202 20.755C12.32 20.4811 12.0532 20.1318 12.0615 19.6297C12.0663 19.3106 12.0055 18.9859 12.1576 18.677C12.3322 18.3178 12.6377 18.0376 13.0126 17.8928C13.3997 17.7319 13.8255 17.6723 14.151 17.3511C14.619 16.8915 14.704 16.0902 14.3757 15.5511C14.1524 15.1833 13.9989 14.8025 14.0238 14.3519C14.0536 13.8183 14.601 13.1725 15.0523 12.9937C15.2732 12.9108 15.5074 12.8679 15.7436 12.867C16.0242 12.8581 16.2661 12.9608 16.497 13.0875C16.8702 13.293 17.2449 13.4341 17.69 13.4101C18.1199 13.3868 18.7109 12.9053 18.8526 12.5684C18.9846 12.254 19.0309 11.9129 19.2252 11.617C19.5293 11.1547 19.9219 10.8972 20.4901 10.915C20.8509 10.926 21.2034 10.8999 21.5345 11.1205C21.9444 11.3944 22.1407 11.7814 22.2679 12.2266C22.4061 12.7019 22.6556 13.0745 23.1346 13.2855C23.7118 13.5396 24.2212 13.3814 24.7279 13.0971C25.6534 12.5766 26.5492 12.9437 27.0344 13.7738C27.38 14.3608 27.23 14.9594 26.8886 15.5183C26.44 16.2532 26.6584 17.1079 27.3676 17.573C27.5112 17.6614 27.6686 17.7255 27.8335 17.7627C28.4327 17.9099 28.8972 18.2072 29.1336 18.8024C29.4336 19.5571 29.0604 20.5393 28.3263 20.8756ZM31.9821 10.3671C30.6619 10.3835 29.5159 9.26508 29.5131 7.95759C29.5131 6.59943 30.561 5.56043 31.9482 5.54878C33.3887 5.53714 34.3709 6.49395 34.3764 7.9165C34.3813 9.29179 33.35 10.3472 31.9821 10.3643V10.3671Z" fill="#424242"/>
  <path d="M47.0495 20.6959C47.0495 18.8392 47.4687 17.1807 48.3071 15.7206C49.1637 14.2424 50.3211 13.0977 51.7792 12.2865C53.2555 11.4573 54.905 11.0427 56.7277 11.0427C58.8601 11.0427 60.7283 11.5835 62.3322 12.6651C63.9362 13.7467 65.0571 15.2429 65.695 17.1537H61.2933C60.8559 16.2524 60.2362 15.5764 59.4343 15.1257C58.6505 14.675 57.7392 14.4497 56.7003 14.4497C55.5885 14.4497 54.5952 14.7111 53.7203 15.2339C52.8637 15.7386 52.1893 16.4597 51.6972 17.3971C51.2233 18.3345 50.9864 19.4341 50.9864 20.6959C50.9864 21.9398 51.2233 23.0394 51.6972 23.9948C52.1893 24.9322 52.8637 25.6623 53.7203 26.1851C54.5952 26.6898 55.5885 26.9422 56.7003 26.9422C57.7392 26.9422 58.6505 26.7169 59.4343 26.2662C60.2362 25.7975 60.8559 25.1125 61.2933 24.2111H65.695C65.0571 26.14 63.9362 27.6452 62.3322 28.7268C60.7466 29.7904 58.8784 30.3222 56.7277 30.3222C54.905 30.3222 53.2555 29.9166 51.7792 29.1054C50.3211 28.2762 49.1637 27.1315 48.3071 25.6713C47.4687 24.2111 47.0495 22.5527 47.0495 20.6959Z" fill="#424242"/>
  <path d="M83.2628 15.1798V30.1599H79.4079V28.2671C78.9158 28.9161 78.2688 29.4299 77.4668 29.8084C76.6831 30.169 75.8264 30.3492 74.8969 30.3492C73.7122 30.3492 72.6642 30.1059 71.7528 29.6191C70.8415 29.1144 70.1216 28.3843 69.593 27.4289C69.0827 26.4555 68.8275 25.3018 68.8275 23.9678V15.1798H72.655V23.427C72.655 24.6167 72.9558 25.5361 73.5573 26.1851C74.1587 26.816 74.9789 27.1315 76.0178 27.1315C77.0749 27.1315 77.9042 26.816 78.5057 26.1851C79.1072 25.5361 79.4079 24.6167 79.4079 23.427V15.1798H83.2628Z" fill="#424242"/>
  <path d="M92.8352 30.4033C91.5958 30.4033 90.484 30.187 89.4998 29.7543C88.5156 29.3037 87.7318 28.6998 87.1486 27.9427C86.5836 27.1855 86.2737 26.3473 86.2191 25.4279H90.0739C90.1468 26.0048 90.4294 26.4825 90.9215 26.8611C91.4318 27.2396 92.0606 27.4289 92.8079 27.4289C93.5369 27.4289 94.102 27.2847 94.5029 26.9963C94.9221 26.7078 95.1317 26.3383 95.1317 25.8876C95.1317 25.4009 94.8766 25.0404 94.3662 24.806C93.8741 24.5537 93.0813 24.2833 91.9877 23.9948C90.8577 23.7244 89.9281 23.445 89.1991 23.1566C88.4882 22.8682 87.8686 22.4265 87.34 21.8316C86.8297 21.2367 86.5745 20.4346 86.5745 19.4251C86.5745 18.5958 86.8114 17.8387 87.2853 17.1537C87.7774 16.4687 88.47 15.9279 89.3631 15.5313C90.2744 15.1347 91.3407 14.9364 92.5618 14.9364C94.3662 14.9364 95.8061 15.3871 96.8815 16.2884C97.9568 17.1717 98.5492 18.3705 98.6585 19.8847H94.995C94.9404 19.2899 94.6852 18.8212 94.2295 18.4787C93.7921 18.1181 93.1998 17.9379 92.4525 17.9379C91.7599 17.9379 91.2222 18.0641 90.8394 18.3164C90.4749 18.5688 90.2927 18.9203 90.2927 19.371C90.2927 19.8757 90.5478 20.2633 91.0582 20.5337C91.5685 20.7861 92.3613 21.0475 93.4367 21.3179C94.5303 21.5883 95.4325 21.8677 96.1433 22.1561C96.8541 22.4445 97.4647 22.8952 97.9751 23.5081C98.5036 24.103 98.777 24.8962 98.7952 25.8876C98.7952 26.7529 98.5492 27.5281 98.0571 28.2131C97.5832 28.8981 96.8906 29.4389 95.9793 29.8355C95.0862 30.214 94.0382 30.4033 92.8352 30.4033Z" fill="#424242"/>
  <path d="M106.393 18.2894V25.5361C106.393 26.0409 106.512 26.4104 106.749 26.6447C107.004 26.8611 107.423 26.9692 108.007 26.9692H109.784V30.1599H107.378C104.152 30.1599 102.539 28.6097 102.539 25.5091V18.2894H100.734V15.1798H102.539V11.4753H106.393V15.1798H109.784V18.2894H106.393Z" fill="#424242"/>
  <path d="M119.262 30.4033C117.804 30.4033 116.492 30.0878 115.325 29.4569C114.159 28.8079 113.238 27.8976 112.564 26.7259C111.908 25.5541 111.58 24.2021 111.58 22.6699C111.58 21.1376 111.917 19.7856 112.591 18.6139C113.284 17.4421 114.222 16.5408 115.407 15.9099C116.592 15.2609 117.913 14.9364 119.371 14.9364C120.83 14.9364 122.151 15.2609 123.336 15.9099C124.52 16.5408 125.45 17.4421 126.124 18.6139C126.817 19.7856 127.163 21.1376 127.163 22.6699C127.163 24.2021 126.808 25.5541 126.097 26.7259C125.404 27.8976 124.457 28.8079 123.254 29.4569C122.069 30.0878 120.738 30.4033 119.262 30.4033ZM119.262 27.1044C119.955 27.1044 120.602 26.9422 121.203 26.6177C121.823 26.2752 122.315 25.7705 122.679 25.1035C123.044 24.4365 123.226 23.6253 123.226 22.6699C123.226 21.2458 122.844 20.1551 122.078 19.398C121.331 18.6229 120.41 18.2353 119.317 18.2353C118.223 18.2353 117.303 18.6229 116.555 19.398C115.826 20.1551 115.462 21.2458 115.462 22.6699C115.462 24.094 115.817 25.1936 116.528 25.9687C117.257 26.7259 118.168 27.1044 119.262 27.1044Z" fill="#424242"/>
  <path d="M148.78 14.9635C150.639 14.9635 152.134 15.5313 153.264 16.667C154.412 17.7846 154.986 19.353 154.986 21.3719V30.1599H151.159V21.8857C151.159 20.714 150.858 19.8217 150.257 19.2087C149.655 18.5778 148.835 18.2623 147.796 18.2623C146.757 18.2623 145.928 18.5778 145.308 19.2087C144.707 19.8217 144.406 20.714 144.406 21.8857V30.1599H140.579V21.8857C140.579 20.714 140.278 19.8217 139.676 19.2087C139.075 18.5778 138.255 18.2623 137.216 18.2623C136.159 18.2623 135.32 18.5778 134.701 19.2087C134.099 19.8217 133.798 20.714 133.798 21.8857V30.1599H129.971V15.1798H133.798V16.9915C134.29 16.3605 134.919 15.8648 135.685 15.5043C136.468 15.1437 137.325 14.9635 138.255 14.9635C139.439 14.9635 140.497 15.2158 141.426 15.7206C142.356 16.2073 143.076 16.9103 143.586 17.8297C144.078 16.9644 144.789 16.2704 145.718 15.7476C146.666 15.2249 147.687 14.9635 148.78 14.9635Z" fill="#424242"/>
</svg>
