<?xml version="1.0" encoding="UTF-8"?>
<svg width="30px" height="30px" viewBox="0 0 30 30" version="1.1" xmlns="http://www.w3.org/2000/svg" xmlns:xlink="http://www.w3.org/1999/xlink">
    <title>pricing</title>
    <g id="settings" stroke="none" stroke-width="1" fill="none" fill-rule="evenodd">
        <g transform="translate(-1157.000000, -244.000000)" fill="#A2A2A2" fill-rule="nonzero" id="Group-4">
            <g transform="translate(1138.000000, 223.000000)">
                <path d="M34.5758306,19.0068047 C35.163907,19.3056692 34.7694655,20.0570598 34.5844366,20.6167259 C34.1627428,21.8854904 35.1316688,23.1859402 36.3847763,23.1859402 C37.6378839,23.1859402 38.4129416,22.0137766 38.2465591,21.0396474 C38.1791454,20.6421012 37.9596925,20.2699302 37.8808042,19.872384 C37.8133906,19.5707 37.7588859,19.1872512 38.0859138,19.0068047 C38.4502343,18.8094413 38.7112828,19.1125351 38.8920088,19.3620587 C41.0913189,22.4042741 42.9040297,25.3614507 45.0775218,28.4196431 C45.4346706,28.9229197 45.3643883,29.5587117 45.3643883,30.1508018 L45.3561409,38.6196287 C45.3550651,41.4424535 45.3600853,44.2651021 45.384469,47.0873983 C45.3988123,48.5605749 44.9125735,49.6503026 43.6202398,50.3847763 L29.1535604,50.3847763 C27.854055,49.6531221 27.3721192,48.5605749 27.3850282,47.0902178 C27.4337955,41.4442157 27.4194522,35.7982136 27.3850282,30.1522115 C27.3766144,29.1482177 27.7086883,28.1700701 28.3288191,27.3722075 C29.0113821,26.4438948 29.6232167,25.5183553 30.2172935,24.5937322 L31.3974652,22.7451576 C31.9914076,21.820931 32.602906,20.8963827 33.2849312,19.969656 C33.6133934,19.5227689 33.9189062,18.6755162 34.5758306,19.0068047 Z M36.1959289,30.3527972 C35.6869457,30.3527972 35.2738579,30.7475239 35.2738579,31.2338836 L35.2738579,31.2338836 L35.2738579,32.2242248 C33.6878958,32.5696107 32.5076449,33.7661261 32.5076449,35.1987727 C32.5076449,36.8992696 34.1618403,38.2825754 36.1959289,38.2825754 C37.1954539,38.2825754 38.0400709,38.8870007 38.0400709,39.6042051 C38.0400709,40.3214095 37.1954539,40.9258348 36.1959289,40.9258348 C35.6943223,40.9258348 35.2259102,40.7778122 34.8773674,40.5064376 C34.482721,40.1998195 33.9036604,40.2526847 33.5809355,40.6333141 C33.2582107,41.0104191 33.3172232,41.5655035 33.7137138,41.8738838 C34.158152,42.2192697 34.6966415,42.4518765 35.2738579,42.5769908 L35.2738579,42.5769908 L35.2738579,43.5690942 C35.2738579,44.0554539 35.6869457,44.4501806 36.1959289,44.4501806 C36.7049121,44.4501806 37.1179999,44.0554539 37.1179999,43.5690942 L37.1179999,43.5690942 L37.1179999,42.578753 C38.7039621,42.2333671 39.8842129,41.0368517 39.8842129,39.6042051 C39.8842129,37.9037082 38.2300176,36.5204024 36.1959289,36.5204024 C35.1964039,36.5204024 34.3517869,35.9159771 34.3517869,35.1987727 C34.3517869,34.4815683 35.1964039,33.877143 36.1959289,33.877143 C36.6975355,33.877143 37.1659476,34.0251656 37.5144905,34.294778 C37.9072927,34.6013961 38.4881974,34.5467687 38.8109223,34.1679016 C39.1336471,33.7907965 39.0746346,33.2357121 38.6781441,32.929094 C38.2337058,32.5837081 37.6952164,32.3511013 37.1179999,32.225987 L37.1179999,32.225987 L37.1179999,31.2338836 C37.1179999,30.7475239 36.7049121,30.3527972 36.1959289,30.3527972 Z M36.364519,16.3848136 C36.8874927,16.3806886 37.3212582,16.7192031 37.3475363,17.1520072 C37.4121883,17.8723835 37.36455,18.5998085 37.36455,19.3258238 L37.36455,19.3258238 L37.3883692,19.3258238 C37.3883692,20.0504293 37.4343061,20.779264 37.3730569,21.5010501 C37.3271199,21.9944585 36.9766383,22.3722684 36.3062995,22.3370249 C35.7782533,22.3217071 35.3645062,21.9555625 35.3807557,21.5179669 C35.3421914,20.0668762 35.3484297,18.6167254 35.3994708,17.1675144 C35.4157088,16.7343718 35.8415453,16.3890146 36.364519,16.3848136 Z" id="pricing" transform="translate(36.384776, 33.384776) rotate(-315.000000) translate(-36.384776, -33.384776) "></path>
            </g>
        </g>
    </g>
</svg>