<?xml version="1.0" encoding="UTF-8"?>
<svg width="31px" height="26px" viewBox="0 0 31 26" version="1.1" xmlns="http://www.w3.org/2000/svg" xmlns:xlink="http://www.w3.org/1999/xlink">
    <title>E445655F-8B53-4548-9DEA-95E1387DB9B9</title>
    <g id="settings" stroke="none" stroke-width="1" fill="none" fill-rule="evenodd">
        <g transform="translate(-1159.000000, -444.000000)" fill="#A2A2A2" fill-rule="nonzero" id="Group-5-Copy-2">
            <g transform="translate(1138.000000, 420.000000)">
                <g id="shipping" transform="translate(21.000000, 24.000000)">
                    <path d="M0.952912016,14 C0.426633242,14 -1.57594043e-16,13.5733668 0,13.047088 L0,12.952912 C-6.44505616e-17,12.4266332 0.426633242,12 0.952912016,12 L4.72,12 L6.10303574,1.77272727 C6.22801919,0.847923445 7.0153257,0.0843444976 7.89212033,0.00652954976 L8.03898314,0 L14.6305659,0 L13.456947,6.93426946 L17.9199973,4.63340235 L21.7730646,6.93426946 L22.9466835,0 L29.5263437,0 C30.4116229,0 31.048692,0.718882273 30.9970749,1.62772439 L30.9831374,1.77272727 L27.9484976,24.2272727 C27.8235142,25.1520766 27.0341776,25.9156555 26.1590925,25.9934705 L26.0125502,26 L4.52518968,26 C3.63776169,26 3.00262644,25.2811177 3.05444237,24.3722756 L3.06839594,24.2272727 L3.3692619,22 L1.09617392,22 C0.569895141,22 0.1432619,21.5733668 0.1432619,21.047088 L0.1432619,20.952912 C0.1432619,20.4266332 0.569895141,20 1.09617392,20 L9.7539912,20 C10.2426786,20 10.6454472,19.6321377 10.7004923,19.1582177 L10.7069032,19.047088 L10.7069032,18.952912 C10.7069032,18.4642246 10.3390409,18.061456 9.86512087,18.0064109 L9.7539912,18 L3.9092619,18 L3.91373912,17.9710766 C3.50055865,17.8667983 3.19474922,17.4926559 3.19474922,17.047088 L3.19474922,16.952912 C3.19474922,16.4266332 3.62138246,16 4.14766123,16 L13.5816991,16 C14.0703866,16 14.4731552,15.6321377 14.5282002,15.1582177 L14.5346112,15.047088 L14.5346112,14.952912 C14.5346112,14.4642246 14.1667488,14.061456 13.6928288,14.0064109 L13.5816991,14 L0.952912016,14 Z" id="Combined-Shape-Copy"></path>
                </g>
            </g>
        </g>
    </g>
</svg>