<?xml version="1.0" encoding="UTF-8"?>
<svg width="30px" height="30px" viewBox="0 0 30 30" version="1.1" xmlns="http://www.w3.org/2000/svg" xmlns:xlink="http://www.w3.org/1999/xlink">
    <title>FE75DB3A-3DDD-40DE-AB00-6061F567076D</title>
    <g id="settings" stroke="none" stroke-width="1" fill="none" fill-rule="evenodd">
        <g transform="translate(-260.000000, -648.000000)" fill="#A2A2A2" id="Group-6-Copy-2">
            <g transform="translate(240.000000, 628.000000)">
                <path d="M20,30 L28.277,30 L28.277,50 L22,50 C20.8954305,50 20,49.1045695 20,48 L20,30 Z M50,30 L50,48 C50,49.1045695 49.1045695,50 48,50 L30.277,50 L30.277,30 L50,30 Z M48,20 C49.1045695,20 50,20.8954305 50,22 L50,28 L20,28 L20,22 C20,20.8954305 20.8954305,20 22,20 L48,20 Z" id="template"></path>
            </g>
        </g>
    </g>
</svg>