<?xml version="1.0" encoding="UTF-8"?>
<svg width="30px" height="29px" viewBox="0 0 30 29" version="1.1" xmlns="http://www.w3.org/2000/svg" xmlns:xlink="http://www.w3.org/1999/xlink">
    <title>850A8537-AE43-46A2-A22A-B11FAFBC2706</title>
    <g id="reports" stroke="none" stroke-width="1" fill="none" fill-rule="evenodd">
        <g transform="translate(-552.000000, -251.000000)" fill="#A2A2A2" fill-rule="nonzero" id="Group-4">
            <g transform="translate(533.000000, 227.000000)">
                <path d="M31.0671032,30.3208038 L34.0671032,29.1001618 L37.0671032,30.3208038 L37.0671032,24 L46.795968,24 C48.0133176,24 49,25.2143698 49,26.7126356 L49,50.7963981 C49,51.960356 48.0972509,52.9137618 46.9533825,52.9944663 L46.795968,53 L21.2040322,53 C20.0396106,53 19.0862345,52.0972011 19.0055334,50.9537523 L19,50.7963981 L19,26.7126356 C19,25.2143698 19.9866824,24 21.2040322,24 L31.0671032,24 L31.0671032,30.3208038 Z M31.5671032,46.6079175 L22.5671032,46.6079175 L22.5671032,48.6079175 L31.5671032,48.6079175 L31.5671032,46.6079175 Z M31.4328968,43.6079175 L22.5671032,43.6079175 L22.5671032,45.6079175 L31.4328968,45.6079175 L31.4328968,43.6079175 Z" id="shippingmodel"></path>
            </g>
        </g>
    </g>
</svg>