<svg width="48" height="48" viewBox="0 0 48 48" fill="none" xmlns="http://www.w3.org/2000/svg">
<path d="M42 4H6C4.93913 4 3.92172 4.42143 3.17157 5.17157C2.42143 5.92172 2 6.93913 2 8V40C2 41.0609 2.42143 42.0783 3.17157 42.8284C3.92172 43.5786 4.93913 44 6 44H42C43.0609 44 44.0783 43.5786 44.8284 42.8284C45.5786 42.0783 46 41.0609 46 40V8C46 6.93913 45.5786 5.92172 44.8284 5.17157C44.0783 4.42143 43.0609 4 42 4ZM22 35L19 38L10 29L19 20L22 23L16 29L22 35ZM29 38L26 35L32 29L26 23L29 20L38 29L29 38ZM42 14H6V8H42V14Z" fill="#8C8C8C"/>
</svg>
