<svg width="401" height="214" viewBox="0 0 401 214" fill="none" xmlns="http://www.w3.org/2000/svg">
<rect width="400" height="214" transform="translate(0.5)" fill="#F1F1F1"/>
<rect x="40.5" y="28.9859" width="320" height="156.606" rx="5.01408" fill="white"/>
<circle cx="153.493" cy="54.6831" r="5.32746" fill="#424242" stroke="#424242" stroke-width="0.626761"/>
<path d="M152.489 55.8974L151.182 54.5906L150.737 55.0325L152.489 56.7843L156.249 53.0237L155.807 52.5818L152.489 55.8974Z" fill="white"/>
<path d="M159.134 54.6831H194.859" stroke="#424242" stroke-width="0.940141"/>
<circle cx="200.5" cy="54.6831" r="5.17077" fill="white" stroke="#424242" stroke-width="0.940141"/>
<circle cx="200.5" cy="54.6831" r="3.29049" fill="#424242" stroke="#424242" stroke-width="0.31338"/>
<path d="M206.141 54.6831H241.866" stroke="#A3A3A3" stroke-width="0.940141"/>
<circle cx="247.507" cy="54.6831" r="5.17077" fill="white" stroke="#A3A3A3" stroke-width="0.940141"/>
<path d="M58.885 74.9484H53.7999L56.1356 72.6127L55.5423 72.0235L52.1996 75.3662L55.5423 78.7089L56.1315 78.1198L53.7999 75.7841H58.885V74.9484Z" fill="black"/>
<path d="M66.0964 74.9298C66.3497 74.975 66.5646 75.1084 66.741 75.3301C66.9174 75.5517 67.0056 75.8028 67.0056 76.0833C67.0056 76.323 66.9423 76.5401 66.8157 76.7346C66.6935 76.9246 66.5148 77.0762 66.2796 77.1893C66.0444 77.2978 65.7707 77.3521 65.4586 77.3521H63.5723V72.6363H65.3704C65.6916 72.6363 65.9675 72.6906 66.1982 72.7992C66.4289 72.9077 66.6031 73.0547 66.7207 73.2402C66.8383 73.4211 66.8971 73.6247 66.8971 73.8509C66.8971 74.1223 66.8247 74.3485 66.68 74.5294C66.5352 74.7104 66.3407 74.8438 66.0964 74.9298ZM64.3458 74.6176H65.3025C65.5559 74.6176 65.7526 74.5611 65.8929 74.448C66.0376 74.3304 66.11 74.163 66.11 73.9459C66.11 73.7333 66.0376 73.5682 65.8929 73.4506C65.7526 73.3284 65.5559 73.2673 65.3025 73.2673H64.3458V74.6176ZM65.3907 76.7211C65.6531 76.7211 65.8589 76.6577 66.0082 76.5311C66.1575 76.4044 66.2321 76.228 66.2321 76.0018C66.2321 75.7711 66.153 75.5879 65.9946 75.4522C65.8363 75.3165 65.626 75.2487 65.3636 75.2487H64.3458V76.7211H65.3907ZM67.5884 75.4658C67.5884 75.0903 67.6653 74.7579 67.8191 74.4684C67.9774 74.1788 68.19 73.9549 68.4569 73.7966C68.7283 73.6338 69.0269 73.5523 69.3526 73.5523C69.6466 73.5523 69.9022 73.6111 70.1193 73.7287C70.341 73.8418 70.5174 73.9843 70.6486 74.1562V73.6134H71.4289V77.3521H70.6486V76.7957C70.5174 76.9721 70.3387 77.1191 70.1125 77.2368C69.8864 77.3544 69.6285 77.4132 69.339 77.4132C69.0178 77.4132 68.7238 77.3318 68.4569 77.1689C68.19 77.0015 67.9774 76.7708 67.8191 76.4768C67.6653 76.1783 67.5884 75.8412 67.5884 75.4658ZM70.6486 75.4794C70.6486 75.2215 70.5943 74.9976 70.4857 74.8076C70.3817 74.6176 70.2437 74.4729 70.0718 74.3734C69.8999 74.2738 69.7145 74.2241 69.5154 74.2241C69.3164 74.2241 69.1309 74.2738 68.959 74.3734C68.7871 74.4684 68.6469 74.6108 68.5383 74.8008C68.4343 74.9863 68.3823 75.208 68.3823 75.4658C68.3823 75.7236 68.4343 75.9498 68.5383 76.1443C68.6469 76.3388 68.7871 76.4881 68.959 76.5922C69.1354 76.6917 69.3209 76.7414 69.5154 76.7414C69.7145 76.7414 69.8999 76.6917 70.0718 76.5922C70.2437 76.4926 70.3817 76.3479 70.4857 76.1579C70.5943 75.9634 70.6486 75.7372 70.6486 75.4794ZM72.187 75.4794C72.187 75.0949 72.2639 74.7579 72.4177 74.4684C72.5761 74.1743 72.7932 73.9481 73.0691 73.7898C73.3451 73.6315 73.6617 73.5523 74.0191 73.5523C74.4714 73.5523 74.8446 73.6609 75.1387 73.878C75.4372 74.0906 75.6385 74.396 75.7425 74.794H74.908C74.8401 74.6086 74.7315 74.4638 74.5823 74.3598C74.433 74.2557 74.2453 74.2037 74.0191 74.2037C73.7024 74.2037 73.4491 74.3168 73.2591 74.543C73.0737 74.7646 72.9809 75.0768 72.9809 75.4794C72.9809 75.882 73.0737 76.1963 73.2591 76.4225C73.4491 76.6487 73.7024 76.7618 74.0191 76.7618C74.4669 76.7618 74.7632 76.565 74.908 76.1715H75.7425C75.634 76.5514 75.4304 76.8545 75.1319 77.0807C74.8333 77.3024 74.4624 77.4132 74.0191 77.4132C73.6617 77.4132 73.3451 77.334 73.0691 77.1757C72.7932 77.0128 72.5761 76.7867 72.4177 76.4972C72.2639 76.2031 72.187 75.8639 72.187 75.4794ZM77.9926 75.4861L79.7161 77.3521H78.6712L77.2869 75.744V77.3521H76.5134V72.331H77.2869V75.2487L78.644 73.6134H79.7161L77.9926 75.4861Z" fill="#1C1C1C"/>
<rect x="50.6849" y="90.5651" width="147.151" height="84.8416" rx="2.35035" fill="white"/>
<rect x="50.6849" y="90.5651" width="147.151" height="84.8416" rx="2.35035" stroke="#E0E0E0" stroke-width="0.31338"/>
<path d="M122.51 121.186C122.507 121.044 122.504 120.901 122.516 120.76C122.539 120.496 122.423 120.38 122.183 120.297C120.614 119.756 119.048 119.207 117.482 118.659L117.476 118.657C117.057 118.51 116.638 118.363 116.219 118.217C115.961 118.127 115.704 118.036 115.447 117.943C115.298 117.889 115.196 117.904 115.196 118.095C115.196 118.625 115.197 119.156 115.197 119.686C115.197 119.87 115.329 119.916 115.465 119.963L115.481 119.969C117.176 120.559 118.871 121.15 120.565 121.74L120.866 121.845C120.993 121.89 121.121 121.934 121.248 121.978C121.582 122.093 121.915 122.208 122.245 122.329C122.438 122.4 122.52 122.356 122.514 122.144C122.509 121.965 122.51 121.785 122.511 121.605C122.512 121.53 122.512 121.454 122.512 121.378C122.512 121.314 122.511 121.25 122.51 121.186Z" fill="#424242"/>
<path d="M120.666 117.102C120.734 117.195 120.701 117.362 120.709 117.803C120.709 117.855 120.709 117.907 120.708 117.959C120.707 118.074 120.706 118.189 120.711 118.304C120.718 118.498 120.663 118.579 120.454 118.505C118.78 117.917 117.105 117.333 115.429 116.75C115.268 116.694 115.192 116.595 115.194 116.423C115.198 116.099 115.201 115.775 115.192 115.451C115.186 115.204 115.279 115.174 115.495 115.251C116.267 115.525 117.039 115.796 117.812 116.067C118.548 116.325 119.285 116.583 120.02 116.844C120.431 116.99 120.599 117.01 120.666 117.102Z" fill="#424242"/>
<path fill-rule="evenodd" clip-rule="evenodd" d="M113.02 117.426C113.02 117.742 113.02 118.058 113.019 118.374C113.019 119.128 113.019 119.883 113.02 120.637C113.021 121.308 113.298 121.707 113.922 121.926C115.287 122.404 116.653 122.882 118.019 123.36L118.021 123.361C119.801 123.984 121.581 124.607 123.36 125.232C123.961 125.443 124.549 125.45 125.157 125.235C127.37 124.453 129.586 123.678 131.801 122.902C132.741 122.573 133.682 122.244 134.622 121.915C135.218 121.706 135.499 121.301 135.5 120.639C135.502 119.122 135.502 117.606 135.501 116.089C135.501 115.445 135.501 114.802 135.501 114.158V114.157C135.501 113.957 135.501 113.857 135.551 113.813C135.6 113.769 135.698 113.78 135.894 113.801L135.911 113.803C136.112 113.825 136.314 113.84 136.515 113.856C136.663 113.867 136.811 113.878 136.958 113.892C137.292 113.924 137.581 113.845 137.78 113.557C137.991 113.25 137.976 112.933 137.803 112.612C137.429 111.917 137.056 111.222 136.684 110.526L136.683 110.525L136.386 109.97C136.318 109.844 136.251 109.718 136.183 109.593C136.018 109.287 135.854 108.981 135.693 108.673C135.428 108.163 135.026 107.851 134.461 107.729C131.195 107.028 127.93 106.321 124.667 105.606C124.239 105.512 123.834 105.595 123.426 105.684C121.701 106.059 119.976 106.436 118.251 106.812L118.25 106.812C116.845 107.119 115.44 107.425 114.035 107.731C113.53 107.841 113.138 108.11 112.891 108.568C112.453 109.378 112.018 110.189 111.583 111C111.296 111.536 111.008 112.073 110.72 112.608C110.547 112.93 110.529 113.247 110.739 113.553C110.943 113.851 111.245 113.928 111.587 113.897C111.709 113.886 111.832 113.877 111.955 113.868C112.211 113.85 112.467 113.831 112.72 113.791C112.974 113.75 113.023 113.842 113.022 114.067C113.017 114.892 113.018 115.717 113.018 116.542C113.019 116.837 113.019 117.131 113.019 117.426H113.02ZM112.345 112.48C112.349 112.346 112.406 112.25 112.461 112.158C112.476 112.133 112.491 112.108 112.505 112.082C112.673 111.767 112.844 111.452 113.014 111.137C113.319 110.573 113.623 110.009 113.92 109.44C114.054 109.182 114.231 109.051 114.515 108.99C116.077 108.655 117.638 108.314 119.199 107.973C120.225 107.75 121.25 107.526 122.276 107.303C122.32 107.294 122.363 107.283 122.407 107.272C122.556 107.234 122.713 107.195 122.901 107.208L122.053 108.67C121.485 109.648 120.924 110.615 120.362 111.583C120.302 111.687 120.211 111.722 120.096 111.733C119.377 111.8 118.658 111.87 117.94 111.941L117.657 111.968C117.224 112.011 116.791 112.053 116.359 112.096C115.659 112.165 114.96 112.234 114.26 112.301C113.822 112.344 113.384 112.384 112.943 112.425L112.942 112.425C112.743 112.443 112.544 112.462 112.345 112.48ZM125.741 107.197C125.807 107.207 125.855 107.213 125.902 107.224C126.606 107.378 127.31 107.533 128.014 107.687C130.058 108.135 132.101 108.584 134.146 109.028C134.352 109.072 134.463 109.19 134.555 109.363C134.786 109.797 135.019 110.23 135.251 110.664L135.252 110.664C135.445 111.025 135.639 111.385 135.831 111.746C135.865 111.809 135.901 111.871 135.937 111.934C136.033 112.1 136.13 112.27 136.196 112.471C136.119 112.466 136.044 112.462 135.971 112.458C135.821 112.45 135.68 112.443 135.539 112.429C134.857 112.362 134.175 112.295 133.494 112.227C131.853 112.065 130.212 111.902 128.57 111.748C128.313 111.724 128.17 111.626 128.048 111.409C127.773 110.918 127.489 110.431 127.205 109.944C127.085 109.737 126.964 109.53 126.844 109.322C126.575 108.859 126.308 108.395 126.029 107.912L125.604 107.177C125.658 107.185 125.703 107.192 125.741 107.197ZM123.543 108.752C123.607 108.814 123.604 108.868 123.602 108.916C123.601 108.926 123.601 108.935 123.601 108.944C123.601 110.286 123.601 111.629 123.601 112.972C123.601 116.51 123.601 120.049 123.605 123.588C123.605 123.859 123.512 123.877 123.291 123.797C122.748 123.597 122.202 123.407 121.656 123.216L121.334 123.104C120.929 122.962 120.524 122.821 120.119 122.679L120.105 122.674C118.306 122.045 116.507 121.416 114.705 120.795C114.436 120.702 114.328 120.576 114.33 120.273C114.344 118.181 114.343 116.089 114.331 113.997C114.33 113.717 114.427 113.616 114.69 113.593C115.289 113.538 115.888 113.48 116.487 113.421C117.612 113.312 118.737 113.203 119.864 113.119C120.695 113.057 121.282 112.749 121.685 111.979C122.085 111.215 122.526 110.473 122.971 109.724C123.162 109.402 123.354 109.079 123.543 108.752Z" fill="#424242"/>
<path d="M116.217 138.975V144.535H115.305V140.727L113.609 144.535H112.977L111.273 140.727V144.535H110.361V138.975H111.345L113.297 143.335L115.241 138.975H116.217ZM117.111 142.311C117.111 141.869 117.202 141.477 117.383 141.135C117.57 140.794 117.821 140.53 118.135 140.343C118.455 140.151 118.807 140.055 119.191 140.055C119.538 140.055 119.839 140.125 120.095 140.263C120.357 140.397 120.565 140.565 120.719 140.767V140.127H121.639V144.535H120.719V143.879C120.565 144.087 120.354 144.261 120.087 144.399C119.821 144.538 119.517 144.607 119.175 144.607C118.797 144.607 118.45 144.511 118.135 144.319C117.821 144.122 117.57 143.85 117.383 143.503C117.202 143.151 117.111 142.754 117.111 142.311ZM120.719 142.327C120.719 142.023 120.655 141.759 120.527 141.535C120.405 141.311 120.242 141.141 120.039 141.023C119.837 140.906 119.618 140.847 119.383 140.847C119.149 140.847 118.93 140.906 118.727 141.023C118.525 141.135 118.359 141.303 118.231 141.527C118.109 141.746 118.047 142.007 118.047 142.311C118.047 142.615 118.109 142.882 118.231 143.111C118.359 143.341 118.525 143.517 118.727 143.639C118.935 143.757 119.154 143.815 119.383 143.815C119.618 143.815 119.837 143.757 120.039 143.639C120.242 143.522 120.405 143.351 120.527 143.127C120.655 142.898 120.719 142.631 120.719 142.327ZM123.301 139.543C123.136 139.543 122.997 139.487 122.885 139.375C122.773 139.263 122.717 139.125 122.717 138.959C122.717 138.794 122.773 138.655 122.885 138.543C122.997 138.431 123.136 138.375 123.301 138.375C123.461 138.375 123.597 138.431 123.709 138.543C123.821 138.655 123.877 138.794 123.877 138.959C123.877 139.125 123.821 139.263 123.709 139.375C123.597 139.487 123.461 139.543 123.301 139.543ZM123.749 140.127V144.535H122.837V140.127H123.749ZM125.858 138.615V144.535H124.946V138.615H125.858ZM130.44 141.255V142.023H127.152V141.255H130.44ZM132.648 138.975V144.535H131.736V138.975H132.648ZM136.069 140.055C136.416 140.055 136.725 140.127 136.997 140.271C137.274 140.415 137.49 140.629 137.645 140.911C137.8 141.194 137.877 141.535 137.877 141.935V144.535H136.973V142.071C136.973 141.677 136.874 141.375 136.677 141.167C136.48 140.954 136.21 140.847 135.869 140.847C135.528 140.847 135.256 140.954 135.053 141.167C134.856 141.375 134.757 141.677 134.757 142.071V144.535H133.845V140.127H134.757V140.631C134.906 140.45 135.096 140.309 135.325 140.207C135.56 140.106 135.808 140.055 136.069 140.055Z" fill="#1C1C1C"/>
<path d="M74.9542 153.575C74.692 153.575 74.4564 153.53 74.2474 153.438C74.0422 153.343 73.8807 153.214 73.7629 153.051C73.6451 152.884 73.5843 152.692 73.5805 152.475H74.1334C74.1524 152.661 74.2284 152.819 74.3614 152.948C74.4982 153.074 74.6958 153.136 74.9542 153.136C75.2012 153.136 75.395 153.075 75.5356 152.954C75.68 152.828 75.7522 152.669 75.7522 152.475C75.7522 152.323 75.7104 152.2 75.6268 152.105C75.5432 152.01 75.4387 151.937 75.3133 151.888C75.1879 151.839 75.0188 151.785 74.806 151.728C74.5438 151.66 74.3329 151.592 74.1733 151.523C74.0175 151.455 73.8826 151.348 73.7686 151.204C73.6584 151.056 73.6033 150.858 73.6033 150.611C73.6033 150.395 73.6584 150.203 73.7686 150.035C73.8788 149.868 74.0327 149.739 74.2303 149.648C74.4317 149.557 74.6616 149.511 74.92 149.511C75.2924 149.511 75.5964 149.604 75.832 149.79C76.0714 149.977 76.2063 150.224 76.2367 150.531H75.6667C75.6477 150.379 75.5679 150.246 75.4273 150.132C75.2867 150.015 75.1005 149.956 74.8687 149.956C74.6521 149.956 74.4754 150.013 74.3386 150.127C74.2018 150.237 74.1334 150.393 74.1334 150.594C74.1334 150.738 74.1733 150.856 74.2531 150.947C74.3367 151.039 74.4374 151.109 74.5552 151.158C74.6768 151.204 74.8459 151.257 75.0625 151.318C75.3247 151.39 75.5356 151.462 75.6952 151.535C75.8548 151.603 75.9916 151.711 76.1056 151.859C76.2196 152.004 76.2766 152.201 76.2766 152.452C76.2766 152.646 76.2253 152.828 76.1227 152.999C76.0201 153.17 75.8681 153.309 75.6667 153.416C75.4653 153.522 75.2278 153.575 74.9542 153.575ZM78.5903 150.355C78.8259 150.355 79.0387 150.406 79.2287 150.509C79.4187 150.607 79.5669 150.757 79.6733 150.959C79.7835 151.16 79.8386 151.405 79.8386 151.694V153.535H79.3256V151.768C79.3256 151.457 79.2477 151.219 79.0919 151.056C78.9361 150.889 78.7233 150.805 78.4535 150.805C78.1799 150.805 77.9614 150.89 77.798 151.061C77.6384 151.232 77.5586 151.481 77.5586 151.808V153.535H77.0399V149.317H77.5586V150.856C77.6612 150.697 77.8018 150.573 77.9804 150.486C78.1628 150.398 78.3661 150.355 78.5903 150.355ZM80.9538 149.904C80.855 149.904 80.7714 149.87 80.703 149.802C80.6346 149.733 80.6004 149.65 80.6004 149.551C80.6004 149.452 80.6346 149.369 80.703 149.3C80.7714 149.232 80.855 149.198 80.9538 149.198C81.0488 149.198 81.1286 149.232 81.1932 149.3C81.2616 149.369 81.2958 149.452 81.2958 149.551C81.2958 149.65 81.2616 149.733 81.1932 149.802C81.1286 149.87 81.0488 149.904 80.9538 149.904ZM81.2046 150.412V153.535H80.6859V150.412H81.2046ZM82.6073 150.987C82.7099 150.809 82.8619 150.661 83.0633 150.543C83.2685 150.421 83.506 150.36 83.7758 150.36C84.0532 150.36 84.304 150.427 84.5282 150.56C84.7562 150.693 84.9348 150.881 85.064 151.124C85.1932 151.364 85.2578 151.643 85.2578 151.962C85.2578 152.277 85.1932 152.559 85.064 152.806C84.9348 153.053 84.7562 153.245 84.5282 153.381C84.304 153.518 84.0532 153.587 83.7758 153.587C83.5098 153.587 83.2742 153.528 83.069 153.41C82.8676 153.288 82.7137 153.138 82.6073 152.96V155.017H82.0886V150.412H82.6073V150.987ZM84.7277 151.962C84.7277 151.726 84.6802 151.521 84.5852 151.346C84.4902 151.172 84.361 151.039 84.1976 150.947C84.038 150.856 83.8613 150.811 83.6675 150.811C83.4775 150.811 83.3008 150.858 83.1374 150.953C82.9778 151.044 82.8486 151.179 82.7498 151.358C82.6548 151.533 82.6073 151.736 82.6073 151.968C82.6073 152.203 82.6548 152.41 82.7498 152.589C82.8486 152.764 82.9778 152.899 83.1374 152.994C83.3008 153.085 83.4775 153.131 83.6675 153.131C83.8613 153.131 84.038 153.085 84.1976 152.994C84.361 152.899 84.4902 152.764 84.5852 152.589C84.6802 152.41 84.7277 152.201 84.7277 151.962ZM90.1506 150.412L88.2696 155.006H87.7338L88.3494 153.501L87.0897 150.412H87.6654L88.6458 152.942L89.6148 150.412H90.1506ZM92.0343 153.587C91.7417 153.587 91.4757 153.52 91.2363 153.387C91.0007 153.254 90.8145 153.066 90.6777 152.823C90.5447 152.576 90.4782 152.291 90.4782 151.968C90.4782 151.649 90.5466 151.367 90.6834 151.124C90.824 150.877 91.014 150.689 91.2534 150.56C91.4928 150.427 91.7607 150.36 92.0571 150.36C92.3535 150.36 92.6214 150.427 92.8608 150.56C93.1002 150.689 93.2883 150.875 93.4251 151.118C93.5657 151.362 93.636 151.645 93.636 151.968C93.636 152.291 93.5638 152.576 93.4194 152.823C93.2788 153.066 93.0869 153.254 92.8437 153.387C92.6005 153.52 92.3307 153.587 92.0343 153.587ZM92.0343 153.131C92.2205 153.131 92.3953 153.087 92.5587 152.999C92.7221 152.912 92.8532 152.781 92.952 152.606C93.0546 152.431 93.1059 152.219 93.1059 151.968C93.1059 151.717 93.0565 151.504 92.9577 151.329C92.8589 151.155 92.7297 151.025 92.5701 150.942C92.4105 150.854 92.2376 150.811 92.0514 150.811C91.8614 150.811 91.6866 150.854 91.527 150.942C91.3712 151.025 91.2458 151.155 91.1508 151.329C91.0558 151.504 91.0083 151.717 91.0083 151.968C91.0083 152.222 91.0539 152.437 91.1451 152.612C91.2401 152.787 91.3655 152.918 91.5213 153.005C91.6771 153.089 91.8481 153.131 92.0343 153.131ZM97.0882 150.412V153.535H96.5695V153.074C96.4707 153.233 96.332 153.359 96.1534 153.45C95.9786 153.537 95.7848 153.581 95.572 153.581C95.3288 153.581 95.1103 153.531 94.9165 153.433C94.7227 153.33 94.5688 153.178 94.4548 152.977C94.3446 152.775 94.2895 152.53 94.2895 152.241V150.412H94.8025V152.173C94.8025 152.481 94.8804 152.718 95.0362 152.885C95.192 153.049 95.4048 153.131 95.6746 153.131C95.952 153.131 96.1705 153.045 96.3301 152.874C96.4897 152.703 96.5695 152.454 96.5695 152.127V150.412H97.0882ZM98.4827 150.919C98.5739 150.74 98.7031 150.602 98.8703 150.503C99.0413 150.404 99.2484 150.355 99.4916 150.355V150.89H99.3548C98.7734 150.89 98.4827 151.206 98.4827 151.837V153.535H97.964V150.412H98.4827V150.919ZM101.416 151.962C101.416 151.643 101.481 151.364 101.61 151.124C101.739 150.881 101.916 150.693 102.14 150.56C102.368 150.427 102.623 150.36 102.904 150.36C103.147 150.36 103.373 150.417 103.582 150.531C103.791 150.642 103.951 150.788 104.061 150.97V149.317H104.585V153.535H104.061V152.948C103.958 153.134 103.806 153.288 103.605 153.41C103.404 153.528 103.168 153.587 102.898 153.587C102.621 153.587 102.368 153.518 102.14 153.381C101.916 153.245 101.739 153.053 101.61 152.806C101.481 152.559 101.416 152.277 101.416 151.962ZM104.061 151.968C104.061 151.732 104.014 151.527 103.919 151.352C103.824 151.177 103.694 151.044 103.531 150.953C103.371 150.858 103.195 150.811 103.001 150.811C102.807 150.811 102.63 150.856 102.471 150.947C102.311 151.039 102.184 151.172 102.089 151.346C101.994 151.521 101.946 151.726 101.946 151.962C101.946 152.201 101.994 152.41 102.089 152.589C102.184 152.764 102.311 152.899 102.471 152.994C102.63 153.085 102.807 153.131 103.001 153.131C103.195 153.131 103.371 153.085 103.531 152.994C103.694 152.899 103.824 152.764 103.919 152.589C104.014 152.41 104.061 152.203 104.061 151.968ZM108.312 151.854C108.312 151.953 108.306 152.057 108.295 152.167H105.798C105.817 152.475 105.922 152.716 106.112 152.891C106.306 153.062 106.539 153.148 106.813 153.148C107.037 153.148 107.223 153.096 107.371 152.994C107.523 152.887 107.63 152.747 107.691 152.572H108.249C108.166 152.872 107.998 153.117 107.748 153.307C107.497 153.493 107.185 153.587 106.813 153.587C106.516 153.587 106.25 153.52 106.015 153.387C105.783 153.254 105.601 153.066 105.468 152.823C105.335 152.576 105.268 152.291 105.268 151.968C105.268 151.645 105.333 151.362 105.462 151.118C105.591 150.875 105.772 150.689 106.003 150.56C106.239 150.427 106.509 150.36 106.813 150.36C107.109 150.36 107.371 150.425 107.599 150.554C107.827 150.683 108.002 150.862 108.124 151.09C108.249 151.314 108.312 151.569 108.312 151.854ZM107.776 151.745C107.776 151.548 107.732 151.379 107.645 151.238C107.558 151.094 107.438 150.985 107.286 150.913C107.138 150.837 106.972 150.799 106.79 150.799C106.528 150.799 106.304 150.883 106.117 151.05C105.935 151.217 105.831 151.449 105.804 151.745H107.776ZM110.159 153.056L111.128 150.412H111.681L110.456 153.535H109.852L108.626 150.412H109.185L110.159 153.056ZM112.46 149.904C112.361 149.904 112.277 149.87 112.209 149.802C112.14 149.733 112.106 149.65 112.106 149.551C112.106 149.452 112.14 149.369 112.209 149.3C112.277 149.232 112.361 149.198 112.46 149.198C112.555 149.198 112.634 149.232 112.699 149.3C112.767 149.369 112.802 149.452 112.802 149.551C112.802 149.65 112.767 149.733 112.699 149.802C112.634 149.87 112.555 149.904 112.46 149.904ZM112.71 150.412V153.535H112.192V150.412H112.71ZM113.401 151.968C113.401 151.645 113.465 151.364 113.594 151.124C113.724 150.881 113.902 150.693 114.13 150.56C114.362 150.427 114.626 150.36 114.923 150.36C115.306 150.36 115.622 150.453 115.869 150.64C116.12 150.826 116.285 151.084 116.365 151.415H115.806C115.753 151.225 115.648 151.075 115.493 150.965C115.341 150.854 115.151 150.799 114.923 150.799C114.626 150.799 114.387 150.902 114.204 151.107C114.022 151.308 113.931 151.595 113.931 151.968C113.931 152.344 114.022 152.635 114.204 152.84C114.387 153.045 114.626 153.148 114.923 153.148C115.151 153.148 115.341 153.094 115.493 152.988C115.645 152.882 115.749 152.73 115.806 152.532H116.365C116.281 152.851 116.114 153.108 115.863 153.302C115.612 153.492 115.299 153.587 114.923 153.587C114.626 153.587 114.362 153.52 114.13 153.387C113.902 153.254 113.724 153.066 113.594 152.823C113.465 152.58 113.401 152.295 113.401 151.968ZM119.907 151.854C119.907 151.953 119.901 152.057 119.89 152.167H117.393C117.412 152.475 117.517 152.716 117.707 152.891C117.9 153.062 118.134 153.148 118.408 153.148C118.632 153.148 118.818 153.096 118.966 152.994C119.118 152.887 119.225 152.747 119.285 152.572H119.844C119.76 152.872 119.593 153.117 119.342 153.307C119.092 153.493 118.78 153.587 118.408 153.587C118.111 153.587 117.845 153.52 117.61 153.387C117.378 153.254 117.195 153.066 117.062 152.823C116.929 152.576 116.863 152.291 116.863 151.968C116.863 151.645 116.928 151.362 117.057 151.118C117.186 150.875 117.366 150.689 117.598 150.56C117.834 150.427 118.104 150.36 118.408 150.36C118.704 150.36 118.966 150.425 119.194 150.554C119.422 150.683 119.597 150.862 119.719 151.09C119.844 151.314 119.907 151.569 119.907 151.854ZM119.371 151.745C119.371 151.548 119.327 151.379 119.24 151.238C119.152 151.094 119.033 150.985 118.881 150.913C118.733 150.837 118.567 150.799 118.385 150.799C118.123 150.799 117.898 150.883 117.712 151.05C117.53 151.217 117.425 151.449 117.399 151.745H119.371ZM124.881 150.412V153.535H124.363V153.074C124.264 153.233 124.125 153.359 123.946 153.45C123.772 153.537 123.578 153.581 123.365 153.581C123.122 153.581 122.903 153.531 122.71 153.433C122.516 153.33 122.362 153.178 122.248 152.977C122.138 152.775 122.083 152.53 122.083 152.241V150.412H122.596V152.173C122.596 152.481 122.673 152.718 122.829 152.885C122.985 153.049 123.198 153.131 123.468 153.131C123.745 153.131 123.964 153.045 124.123 152.874C124.283 152.703 124.363 152.454 124.363 152.127V150.412H124.881ZM126.863 153.587C126.623 153.587 126.409 153.547 126.219 153.467C126.029 153.383 125.879 153.269 125.768 153.125C125.658 152.977 125.597 152.808 125.586 152.618H126.122C126.137 152.773 126.209 152.901 126.338 152.999C126.471 153.098 126.644 153.148 126.857 153.148C127.055 153.148 127.211 153.104 127.325 153.017C127.439 152.929 127.496 152.819 127.496 152.686C127.496 152.549 127.435 152.448 127.313 152.384C127.192 152.315 127.003 152.249 126.749 152.184C126.517 152.124 126.327 152.063 126.179 152.002C126.034 151.937 125.909 151.844 125.803 151.723C125.7 151.597 125.649 151.434 125.649 151.232C125.649 151.073 125.696 150.927 125.791 150.794C125.886 150.661 126.021 150.556 126.196 150.48C126.371 150.4 126.57 150.36 126.794 150.36C127.14 150.36 127.42 150.448 127.632 150.623C127.845 150.797 127.959 151.037 127.974 151.341H127.456C127.444 151.177 127.378 151.046 127.256 150.947C127.138 150.849 126.979 150.799 126.777 150.799C126.591 150.799 126.443 150.839 126.333 150.919C126.223 150.999 126.167 151.103 126.167 151.232C126.167 151.335 126.2 151.421 126.264 151.489C126.333 151.554 126.416 151.607 126.515 151.649C126.618 151.687 126.758 151.73 126.937 151.78C127.161 151.84 127.344 151.901 127.484 151.962C127.625 152.019 127.744 152.106 127.843 152.224C127.946 152.342 127.999 152.496 128.003 152.686C128.003 152.857 127.955 153.011 127.86 153.148C127.765 153.284 127.63 153.393 127.456 153.473C127.285 153.549 127.087 153.587 126.863 153.587ZM129.003 149.904C128.904 149.904 128.821 149.87 128.752 149.802C128.684 149.733 128.65 149.65 128.65 149.551C128.65 149.452 128.684 149.369 128.752 149.3C128.821 149.232 128.904 149.198 129.003 149.198C129.098 149.198 129.178 149.232 129.242 149.3C129.311 149.369 129.345 149.452 129.345 149.551C129.345 149.65 129.311 149.733 129.242 149.802C129.178 149.87 129.098 149.904 129.003 149.904ZM129.254 150.412V153.535H128.735V150.412H129.254ZM131.66 150.355C132.04 150.355 132.348 150.471 132.583 150.702C132.819 150.93 132.937 151.261 132.937 151.694V153.535H132.424V151.768C132.424 151.457 132.346 151.219 132.19 151.056C132.034 150.889 131.821 150.805 131.551 150.805C131.278 150.805 131.059 150.89 130.896 151.061C130.736 151.232 130.657 151.481 130.657 151.808V153.535H130.138V150.412H130.657V150.856C130.759 150.697 130.898 150.573 131.073 150.486C131.251 150.398 131.447 150.355 131.66 150.355ZM135.072 150.36C135.342 150.36 135.577 150.419 135.779 150.537C135.984 150.655 136.136 150.803 136.235 150.982V150.412H136.759V153.604C136.759 153.889 136.698 154.141 136.577 154.362C136.455 154.586 136.28 154.761 136.052 154.886C135.828 155.012 135.566 155.074 135.266 155.074C134.855 155.074 134.513 154.977 134.24 154.784C133.966 154.59 133.805 154.326 133.755 153.991H134.268C134.325 154.181 134.443 154.333 134.622 154.447C134.8 154.565 135.015 154.624 135.266 154.624C135.551 154.624 135.783 154.535 135.961 154.356C136.144 154.177 136.235 153.927 136.235 153.604V152.948C136.132 153.131 135.98 153.283 135.779 153.404C135.577 153.526 135.342 153.587 135.072 153.587C134.795 153.587 134.542 153.518 134.314 153.381C134.09 153.245 133.913 153.053 133.784 152.806C133.655 152.559 133.59 152.277 133.59 151.962C133.59 151.643 133.655 151.364 133.784 151.124C133.913 150.881 134.09 150.693 134.314 150.56C134.542 150.427 134.795 150.36 135.072 150.36ZM136.235 151.968C136.235 151.732 136.187 151.527 136.092 151.352C135.997 151.177 135.868 151.044 135.705 150.953C135.545 150.858 135.368 150.811 135.175 150.811C134.981 150.811 134.804 150.856 134.645 150.947C134.485 151.039 134.358 151.172 134.263 151.346C134.168 151.521 134.12 151.726 134.12 151.962C134.12 152.201 134.168 152.41 134.263 152.589C134.358 152.764 134.485 152.899 134.645 152.994C134.804 153.085 134.981 153.131 135.175 153.131C135.368 153.131 135.545 153.085 135.705 152.994C135.868 152.899 135.997 152.764 136.092 152.589C136.187 152.41 136.235 152.203 136.235 151.968ZM140.518 153.587C140.225 153.587 139.959 153.52 139.72 153.387C139.484 153.254 139.298 153.066 139.161 152.823C139.028 152.576 138.962 152.291 138.962 151.968C138.962 151.649 139.03 151.367 139.167 151.124C139.307 150.877 139.497 150.689 139.737 150.56C139.976 150.427 140.244 150.36 140.541 150.36C140.837 150.36 141.105 150.427 141.344 150.56C141.584 150.689 141.772 150.875 141.909 151.118C142.049 151.362 142.119 151.645 142.119 151.968C142.119 152.291 142.047 152.576 141.903 152.823C141.762 153.066 141.57 153.254 141.327 153.387C141.084 153.52 140.814 153.587 140.518 153.587ZM140.518 153.131C140.704 153.131 140.879 153.087 141.042 152.999C141.206 152.912 141.337 152.781 141.435 152.606C141.538 152.431 141.589 152.219 141.589 151.968C141.589 151.717 141.54 151.504 141.441 151.329C141.342 151.155 141.213 151.025 141.054 150.942C140.894 150.854 140.721 150.811 140.535 150.811C140.345 150.811 140.17 150.854 140.01 150.942C139.855 151.025 139.729 151.155 139.634 151.329C139.539 151.504 139.492 151.717 139.492 151.968C139.492 152.222 139.537 152.437 139.629 152.612C139.724 152.787 139.849 152.918 140.005 153.005C140.161 153.089 140.332 153.131 140.518 153.131ZM145.572 150.412V153.535H145.053V153.074C144.954 153.233 144.815 153.359 144.637 153.45C144.462 153.537 144.268 153.581 144.055 153.581C143.812 153.581 143.594 153.531 143.4 153.433C143.206 153.33 143.052 153.178 142.938 152.977C142.828 152.775 142.773 152.53 142.773 152.241V150.412H143.286V152.173C143.286 152.481 143.364 152.718 143.52 152.885C143.675 153.049 143.888 153.131 144.158 153.131C144.435 153.131 144.654 153.045 144.814 152.874C144.973 152.703 145.053 152.454 145.053 152.127V150.412H145.572ZM146.966 150.919C147.057 150.74 147.187 150.602 147.354 150.503C147.525 150.404 147.732 150.355 147.975 150.355V150.89H147.838C147.257 150.89 146.966 151.206 146.966 151.837V153.535H146.447V150.412H146.966V150.919ZM150.612 150.987C150.715 150.809 150.867 150.661 151.068 150.543C151.273 150.421 151.511 150.36 151.781 150.36C152.058 150.36 152.309 150.427 152.533 150.56C152.761 150.693 152.94 150.881 153.069 151.124C153.198 151.364 153.263 151.643 153.263 151.962C153.263 152.277 153.198 152.559 153.069 152.806C152.94 153.053 152.761 153.245 152.533 153.381C152.309 153.518 152.058 153.587 151.781 153.587C151.515 153.587 151.279 153.528 151.074 153.41C150.872 153.288 150.719 153.138 150.612 152.96V155.017H150.093V150.412H150.612V150.987ZM152.733 151.962C152.733 151.726 152.685 151.521 152.59 151.346C152.495 151.172 152.366 151.039 152.202 150.947C152.043 150.856 151.866 150.811 151.672 150.811C151.482 150.811 151.306 150.858 151.142 150.953C150.983 151.044 150.853 151.179 150.755 151.358C150.66 151.533 150.612 151.736 150.612 151.968C150.612 152.203 150.66 152.41 150.755 152.589C150.853 152.764 150.983 152.899 151.142 152.994C151.306 153.085 151.482 153.131 151.672 153.131C151.866 153.131 152.043 153.085 152.202 152.994C152.366 152.899 152.495 152.764 152.59 152.589C152.685 152.41 152.733 152.201 152.733 151.962ZM154.464 150.919C154.555 150.74 154.684 150.602 154.852 150.503C155.023 150.404 155.23 150.355 155.473 150.355V150.89H155.336C154.755 150.89 154.464 151.206 154.464 151.837V153.535H153.945V150.412H154.464V150.919ZM158.922 151.854C158.922 151.953 158.916 152.057 158.905 152.167H156.408C156.427 152.475 156.532 152.716 156.722 152.891C156.915 153.062 157.149 153.148 157.423 153.148C157.647 153.148 157.833 153.096 157.981 152.994C158.133 152.887 158.24 152.747 158.3 152.572H158.859C158.775 152.872 158.608 153.117 158.357 153.307C158.107 153.493 157.795 153.587 157.423 153.587C157.126 153.587 156.86 153.52 156.625 153.387C156.393 153.254 156.21 153.066 156.077 152.823C155.944 152.576 155.878 152.291 155.878 151.968C155.878 151.645 155.943 151.362 156.072 151.118C156.201 150.875 156.381 150.689 156.613 150.56C156.849 150.427 157.119 150.36 157.423 150.36C157.719 150.36 157.981 150.425 158.209 150.554C158.437 150.683 158.612 150.862 158.734 151.09C158.859 151.314 158.922 151.569 158.922 151.854ZM158.386 151.745C158.386 151.548 158.342 151.379 158.255 151.238C158.167 151.094 158.048 150.985 157.896 150.913C157.748 150.837 157.582 150.799 157.4 150.799C157.138 150.799 156.913 150.883 156.727 151.05C156.545 151.217 156.44 151.449 156.414 151.745H158.386ZM161.772 151.227V151.666H159.498V151.227H161.772ZM163.265 150.987C163.367 150.809 163.519 150.661 163.721 150.543C163.926 150.421 164.163 150.36 164.433 150.36C164.71 150.36 164.961 150.427 165.185 150.56C165.413 150.693 165.592 150.881 165.721 151.124C165.85 151.364 165.915 151.643 165.915 151.962C165.915 152.277 165.85 152.559 165.721 152.806C165.592 153.053 165.413 153.245 165.185 153.381C164.961 153.518 164.71 153.587 164.433 153.587C164.167 153.587 163.931 153.528 163.726 153.41C163.525 153.288 163.371 153.138 163.265 152.96V155.017H162.746V150.412H163.265V150.987ZM165.385 151.962C165.385 151.726 165.337 151.521 165.242 151.346C165.147 151.172 165.018 151.039 164.855 150.947C164.695 150.856 164.519 150.811 164.325 150.811C164.135 150.811 163.958 150.858 163.795 150.953C163.635 151.044 163.506 151.179 163.407 151.358C163.312 151.533 163.265 151.736 163.265 151.968C163.265 152.203 163.312 152.41 163.407 152.589C163.506 152.764 163.635 152.899 163.795 152.994C163.958 153.085 164.135 153.131 164.325 153.131C164.519 153.131 164.695 153.085 164.855 152.994C165.018 152.899 165.147 152.764 165.242 152.589C165.337 152.41 165.385 152.201 165.385 151.962ZM166.404 151.962C166.404 151.643 166.469 151.364 166.598 151.124C166.727 150.881 166.904 150.693 167.128 150.56C167.356 150.427 167.609 150.36 167.886 150.36C168.16 150.36 168.397 150.419 168.599 150.537C168.8 150.655 168.95 150.803 169.049 150.982V150.412H169.573V153.535H169.049V152.954C168.946 153.136 168.792 153.288 168.587 153.41C168.386 153.528 168.15 153.587 167.88 153.587C167.603 153.587 167.352 153.518 167.128 153.381C166.904 153.245 166.727 153.053 166.598 152.806C166.469 152.559 166.404 152.277 166.404 151.962ZM169.049 151.968C169.049 151.732 169.001 151.527 168.906 151.352C168.811 151.177 168.682 151.044 168.519 150.953C168.359 150.858 168.182 150.811 167.989 150.811C167.795 150.811 167.618 150.856 167.459 150.947C167.299 151.039 167.172 151.172 167.077 151.346C166.982 151.521 166.934 151.726 166.934 151.962C166.934 152.201 166.982 152.41 167.077 152.589C167.172 152.764 167.299 152.899 167.459 152.994C167.618 153.085 167.795 153.131 167.989 153.131C168.182 153.131 168.359 153.085 168.519 152.994C168.682 152.899 168.811 152.764 168.906 152.589C169.001 152.41 169.049 152.203 169.049 151.968ZM170.718 149.904C170.619 149.904 170.535 149.87 170.467 149.802C170.398 149.733 170.364 149.65 170.364 149.551C170.364 149.452 170.398 149.369 170.467 149.3C170.535 149.232 170.619 149.198 170.718 149.198C170.813 149.198 170.892 149.232 170.957 149.3C171.025 149.369 171.06 149.452 171.06 149.551C171.06 149.65 171.025 149.733 170.957 149.802C170.892 149.87 170.813 149.904 170.718 149.904ZM170.968 150.412V153.535H170.45V150.412H170.968ZM171.659 151.962C171.659 151.643 171.723 151.364 171.852 151.124C171.982 150.881 172.158 150.693 172.383 150.56C172.611 150.427 172.865 150.36 173.146 150.36C173.39 150.36 173.616 150.417 173.825 150.531C174.034 150.642 174.193 150.788 174.303 150.97V149.317H174.828V153.535H174.303V152.948C174.201 153.134 174.049 153.288 173.847 153.41C173.646 153.528 173.41 153.587 173.141 153.587C172.863 153.587 172.611 153.518 172.383 153.381C172.158 153.245 171.982 153.053 171.852 152.806C171.723 152.559 171.659 152.277 171.659 151.962ZM174.303 151.968C174.303 151.732 174.256 151.527 174.161 151.352C174.066 151.177 173.937 151.044 173.773 150.953C173.614 150.858 173.437 150.811 173.243 150.811C173.049 150.811 172.873 150.856 172.713 150.947C172.554 151.039 172.426 151.172 172.331 151.346C172.236 151.521 172.189 151.726 172.189 151.962C172.189 152.201 172.236 152.41 172.331 152.589C172.426 152.764 172.554 152.899 172.713 152.994C172.873 153.085 173.049 153.131 173.243 153.131C173.437 153.131 173.614 153.085 173.773 152.994C173.937 152.899 174.066 152.764 174.161 152.589C174.256 152.41 174.303 152.203 174.303 151.968ZM105.708 162.587C105.468 162.587 105.254 162.547 105.064 162.467C104.874 162.383 104.724 162.269 104.613 162.125C104.503 161.977 104.442 161.808 104.431 161.618H104.967C104.982 161.773 105.054 161.901 105.183 161.999C105.316 162.098 105.489 162.148 105.702 162.148C105.9 162.148 106.055 162.104 106.169 162.017C106.283 161.929 106.34 161.819 106.34 161.686C106.34 161.549 106.28 161.448 106.158 161.384C106.036 161.315 105.848 161.249 105.594 161.184C105.362 161.124 105.172 161.063 105.024 161.002C104.879 160.937 104.754 160.844 104.648 160.723C104.545 160.597 104.494 160.434 104.494 160.232C104.494 160.073 104.541 159.927 104.636 159.794C104.731 159.661 104.866 159.556 105.041 159.48C105.216 159.4 105.415 159.36 105.639 159.36C105.985 159.36 106.264 159.448 106.477 159.623C106.69 159.797 106.804 160.037 106.819 160.341H106.301C106.289 160.177 106.223 160.046 106.101 159.947C105.983 159.849 105.824 159.799 105.622 159.799C105.436 159.799 105.288 159.839 105.178 159.919C105.067 159.999 105.012 160.103 105.012 160.232C105.012 160.335 105.045 160.421 105.109 160.489C105.178 160.554 105.261 160.607 105.36 160.649C105.463 160.687 105.603 160.73 105.782 160.78C106.006 160.84 106.188 160.901 106.329 160.962C106.47 161.019 106.589 161.106 106.688 161.224C106.791 161.342 106.844 161.496 106.848 161.686C106.848 161.857 106.8 162.011 106.705 162.148C106.61 162.284 106.475 162.393 106.301 162.473C106.13 162.549 105.932 162.587 105.708 162.587ZM109.13 159.355C109.366 159.355 109.579 159.406 109.769 159.509C109.959 159.607 110.107 159.757 110.213 159.959C110.324 160.16 110.379 160.405 110.379 160.694V162.535H109.866V160.768C109.866 160.457 109.788 160.219 109.632 160.056C109.476 159.889 109.263 159.805 108.994 159.805C108.72 159.805 108.501 159.89 108.338 160.061C108.178 160.232 108.099 160.481 108.099 160.808V162.535H107.58V158.317H108.099V159.856C108.201 159.697 108.342 159.573 108.52 159.486C108.703 159.398 108.906 159.355 109.13 159.355ZM111.494 158.904C111.395 158.904 111.311 158.87 111.243 158.802C111.175 158.733 111.14 158.65 111.14 158.551C111.14 158.452 111.175 158.369 111.243 158.3C111.311 158.232 111.395 158.198 111.494 158.198C111.589 158.198 111.669 158.232 111.733 158.3C111.802 158.369 111.836 158.452 111.836 158.551C111.836 158.65 111.802 158.733 111.733 158.802C111.669 158.87 111.589 158.904 111.494 158.904ZM111.745 159.412V162.535H111.226V159.412H111.745ZM113.147 159.987C113.25 159.809 113.402 159.661 113.603 159.543C113.809 159.421 114.046 159.36 114.316 159.36C114.593 159.36 114.844 159.427 115.068 159.56C115.296 159.693 115.475 159.881 115.604 160.124C115.733 160.364 115.798 160.643 115.798 160.962C115.798 161.277 115.733 161.559 115.604 161.806C115.475 162.053 115.296 162.245 115.068 162.381C114.844 162.518 114.593 162.587 114.316 162.587C114.05 162.587 113.814 162.528 113.609 162.41C113.408 162.288 113.254 162.138 113.147 161.96V164.017H112.629V159.412H113.147V159.987ZM115.268 160.962C115.268 160.726 115.22 160.521 115.125 160.346C115.03 160.172 114.901 160.039 114.738 159.947C114.578 159.856 114.401 159.811 114.208 159.811C114.018 159.811 113.841 159.858 113.678 159.953C113.518 160.044 113.389 160.179 113.29 160.358C113.195 160.533 113.147 160.736 113.147 160.968C113.147 161.203 113.195 161.41 113.29 161.589C113.389 161.764 113.518 161.899 113.678 161.994C113.841 162.085 114.018 162.131 114.208 162.131C114.401 162.131 114.578 162.085 114.738 161.994C114.901 161.899 115.03 161.764 115.125 161.589C115.22 161.41 115.268 161.201 115.268 160.962ZM116.999 159.987C117.102 159.809 117.254 159.661 117.455 159.543C117.661 159.421 117.898 159.36 118.168 159.36C118.445 159.36 118.696 159.427 118.92 159.56C119.148 159.693 119.327 159.881 119.456 160.124C119.585 160.364 119.65 160.643 119.65 160.962C119.65 161.277 119.585 161.559 119.456 161.806C119.327 162.053 119.148 162.245 118.92 162.381C118.696 162.518 118.445 162.587 118.168 162.587C117.902 162.587 117.666 162.528 117.461 162.41C117.26 162.288 117.106 162.138 116.999 161.96V164.017H116.481V159.412H116.999V159.987ZM119.12 160.962C119.12 160.726 119.072 160.521 118.977 160.346C118.882 160.172 118.753 160.039 118.59 159.947C118.43 159.856 118.253 159.811 118.06 159.811C117.87 159.811 117.693 159.858 117.529 159.953C117.37 160.044 117.241 160.179 117.142 160.358C117.047 160.533 116.999 160.736 116.999 160.968C116.999 161.203 117.047 161.41 117.142 161.589C117.241 161.764 117.37 161.899 117.529 161.994C117.693 162.085 117.87 162.131 118.06 162.131C118.253 162.131 118.43 162.085 118.59 161.994C118.753 161.899 118.882 161.764 118.977 161.589C119.072 161.41 119.12 161.201 119.12 160.962ZM120.601 158.904C120.502 158.904 120.418 158.87 120.35 158.802C120.281 158.733 120.247 158.65 120.247 158.551C120.247 158.452 120.281 158.369 120.35 158.3C120.418 158.232 120.502 158.198 120.601 158.198C120.696 158.198 120.775 158.232 120.84 158.3C120.908 158.369 120.943 158.452 120.943 158.551C120.943 158.65 120.908 158.733 120.84 158.802C120.775 158.87 120.696 158.904 120.601 158.904ZM120.851 159.412V162.535H120.333V159.412H120.851ZM123.257 159.355C123.637 159.355 123.945 159.471 124.181 159.702C124.416 159.93 124.534 160.261 124.534 160.694V162.535H124.021V160.768C124.021 160.457 123.943 160.219 123.787 160.056C123.632 159.889 123.419 159.805 123.149 159.805C122.875 159.805 122.657 159.89 122.493 160.061C122.334 160.232 122.254 160.481 122.254 160.808V162.535H121.735V159.412H122.254V159.856C122.357 159.697 122.495 159.573 122.67 159.486C122.849 159.398 123.044 159.355 123.257 159.355ZM126.67 159.36C126.939 159.36 127.175 159.419 127.376 159.537C127.582 159.655 127.734 159.803 127.832 159.982V159.412H128.357V162.604C128.357 162.889 128.296 163.141 128.174 163.362C128.053 163.586 127.878 163.761 127.65 163.886C127.426 164.012 127.164 164.074 126.863 164.074C126.453 164.074 126.111 163.977 125.837 163.784C125.564 163.59 125.402 163.326 125.353 162.991H125.866C125.923 163.181 126.041 163.333 126.219 163.447C126.398 163.565 126.613 163.624 126.863 163.624C127.148 163.624 127.38 163.535 127.559 163.356C127.741 163.177 127.832 162.927 127.832 162.604V161.948C127.73 162.131 127.578 162.283 127.376 162.404C127.175 162.526 126.939 162.587 126.67 162.587C126.392 162.587 126.139 162.518 125.911 162.381C125.687 162.245 125.511 162.053 125.381 161.806C125.252 161.559 125.188 161.277 125.188 160.962C125.188 160.643 125.252 160.364 125.381 160.124C125.511 159.881 125.687 159.693 125.911 159.56C126.139 159.427 126.392 159.36 126.67 159.36ZM127.832 160.968C127.832 160.732 127.785 160.527 127.69 160.352C127.595 160.177 127.466 160.044 127.302 159.953C127.143 159.858 126.966 159.811 126.772 159.811C126.578 159.811 126.402 159.856 126.242 159.947C126.082 160.039 125.955 160.172 125.86 160.346C125.765 160.521 125.718 160.726 125.718 160.962C125.718 161.201 125.765 161.41 125.86 161.589C125.955 161.764 126.082 161.899 126.242 161.994C126.402 162.085 126.578 162.131 126.772 162.131C126.966 162.131 127.143 162.085 127.302 161.994C127.466 161.899 127.595 161.764 127.69 161.589C127.785 161.41 127.832 161.203 127.832 160.968ZM131.272 158.317V162.535H130.753V158.317H131.272ZM131.962 160.962C131.962 160.643 132.026 160.364 132.156 160.124C132.285 159.881 132.462 159.693 132.686 159.56C132.914 159.427 133.166 159.36 133.444 159.36C133.717 159.36 133.955 159.419 134.156 159.537C134.358 159.655 134.508 159.803 134.607 159.982V159.412H135.131V162.535H134.607V161.954C134.504 162.136 134.35 162.288 134.145 162.41C133.944 162.528 133.708 162.587 133.438 162.587C133.161 162.587 132.91 162.518 132.686 162.381C132.462 162.245 132.285 162.053 132.156 161.806C132.026 161.559 131.962 161.277 131.962 160.962ZM134.607 160.968C134.607 160.732 134.559 160.527 134.464 160.352C134.369 160.177 134.24 160.044 134.077 159.953C133.917 159.858 133.74 159.811 133.546 159.811C133.353 159.811 133.176 159.856 133.016 159.947C132.857 160.039 132.729 160.172 132.634 160.346C132.539 160.521 132.492 160.726 132.492 160.962C132.492 161.201 132.539 161.41 132.634 161.589C132.729 161.764 132.857 161.899 133.016 161.994C133.176 162.085 133.353 162.131 133.546 162.131C133.74 162.131 133.917 162.085 134.077 161.994C134.24 161.899 134.369 161.764 134.464 161.589C134.559 161.41 134.607 161.203 134.607 160.968ZM136.526 159.993C136.633 159.807 136.789 159.655 136.994 159.537C137.199 159.419 137.433 159.36 137.695 159.36C137.976 159.36 138.229 159.427 138.453 159.56C138.677 159.693 138.854 159.881 138.983 160.124C139.112 160.364 139.177 160.643 139.177 160.962C139.177 161.277 139.112 161.559 138.983 161.806C138.854 162.053 138.675 162.245 138.447 162.381C138.223 162.518 137.972 162.587 137.695 162.587C137.425 162.587 137.188 162.528 136.982 162.41C136.781 162.292 136.629 162.142 136.526 161.96V162.535H136.008V158.317H136.526V159.993ZM138.647 160.962C138.647 160.726 138.599 160.521 138.504 160.346C138.409 160.172 138.28 160.039 138.117 159.947C137.957 159.856 137.78 159.811 137.587 159.811C137.397 159.811 137.22 159.858 137.056 159.953C136.897 160.044 136.768 160.179 136.669 160.358C136.574 160.533 136.526 160.736 136.526 160.968C136.526 161.203 136.574 161.41 136.669 161.589C136.768 161.764 136.897 161.899 137.056 161.994C137.22 162.085 137.397 162.131 137.587 162.131C137.78 162.131 137.957 162.085 138.117 161.994C138.28 161.899 138.409 161.764 138.504 161.589C138.599 161.41 138.647 161.201 138.647 160.962ZM142.71 160.854C142.71 160.953 142.704 161.057 142.692 161.167H140.196C140.215 161.475 140.319 161.716 140.509 161.891C140.703 162.062 140.937 162.148 141.21 162.148C141.435 162.148 141.621 162.096 141.769 161.994C141.921 161.887 142.027 161.747 142.088 161.572H142.647C142.563 161.872 142.396 162.117 142.145 162.307C141.894 162.493 141.583 162.587 141.21 162.587C140.914 162.587 140.648 162.52 140.412 162.387C140.181 162.254 139.998 162.066 139.865 161.823C139.732 161.576 139.666 161.291 139.666 160.968C139.666 160.645 139.73 160.362 139.86 160.118C139.989 159.875 140.169 159.689 140.401 159.56C140.637 159.427 140.906 159.36 141.21 159.36C141.507 159.36 141.769 159.425 141.997 159.554C142.225 159.683 142.4 159.862 142.521 160.09C142.647 160.314 142.71 160.569 142.71 160.854ZM142.174 160.745C142.174 160.548 142.13 160.379 142.043 160.238C141.955 160.094 141.836 159.985 141.684 159.913C141.535 159.837 141.37 159.799 141.188 159.799C140.925 159.799 140.701 159.883 140.515 160.05C140.333 160.217 140.228 160.449 140.202 160.745H142.174ZM143.913 158.317V162.535H143.394V158.317H143.913Z" fill="#1C1C1C"/>
<g filter="url(#filter0_dd_1332_1186)">
<g clip-path="url(#clip0_1332_1186)">
<rect x="203.164" y="90.5651" width="147.151" height="84.8416" rx="2.35035" fill="white"/>
<rect x="203.164" y="90.5651" width="147.151" height="84.8416" rx="2.35035" stroke="#E0E0E0" stroke-width="0.31338"/>
<path fill-rule="evenodd" clip-rule="evenodd" d="M282.668 119.607C283.563 118.342 284.049 116.943 284.056 115.386C284.053 115.146 284.042 114.909 284.017 114.67C283.824 112.801 283.055 111.224 281.672 109.944C279.48 107.912 276.153 107.419 273.493 108.776C271.531 109.776 270.29 111.381 269.707 113.495C269.306 114.945 269.3 116.389 269.842 117.815C270.137 118.59 270.57 119.282 271.047 119.954C271.172 120.131 271.298 120.307 271.424 120.484C272.978 122.671 274.532 124.858 276.069 127.057C276.547 127.742 277.013 127.608 277.41 127.042C278.704 125.199 280.007 123.361 281.309 121.524C281.762 120.885 282.215 120.246 282.668 119.607ZM276.733 118.516C274.795 118.514 273.436 116.899 273.485 115.245C273.436 113.469 274.968 111.941 276.805 111.977C278.569 112.011 280.024 113.503 280.001 115.29C279.979 116.952 278.648 118.518 276.733 118.516Z" fill="#424242"/>
<path d="M282.634 122.988L282.634 122.988L281.481 122.973L280.894 123.796C280.856 123.848 280.836 123.911 280.836 123.975C280.836 124.145 280.974 124.284 281.144 124.285C281.372 124.285 281.549 124.285 281.677 124.285C281.917 124.285 282.157 124.285 282.402 124.283C282.495 124.283 282.522 124.304 282.556 124.367C282.944 125.081 283.265 125.661 283.562 126.187C283.115 126.183 282.668 126.182 282.221 126.182C281.778 126.182 281.334 126.183 280.89 126.185L280.859 126.185C280.798 126.185 280.745 126.185 280.697 126.184L280.696 126.184C280.656 126.183 280.62 126.183 280.588 126.183C280.445 126.183 280.319 126.19 280.226 126.285C280.121 126.39 280.122 126.526 280.123 126.773L280.123 126.783C280.124 126.832 280.124 126.886 280.124 126.946C280.122 127.148 280.122 127.282 280.223 127.384C280.324 127.486 280.458 127.486 280.661 127.486L280.668 127.486C281.313 127.486 281.959 127.487 282.604 127.487C283.119 127.487 283.634 127.487 284.151 127.486C284.277 127.486 284.291 127.501 284.318 127.55C284.934 128.671 285.552 129.781 286.032 130.64C285.948 130.639 285.863 130.639 285.779 130.639L285.2 130.64L277.485 130.64C277.449 130.64 277.406 130.64 277.372 130.639C277.371 130.605 277.371 130.562 277.371 130.524L277.371 130.523C277.371 130.406 277.371 130.289 277.371 130.172L277.371 130.157C277.372 129.943 277.373 129.729 277.37 129.516C277.368 129.421 277.37 129.342 277.371 129.276L277.371 129.275C277.375 129.073 277.377 128.939 277.276 128.836C277.169 128.727 277.029 128.726 276.751 128.725C276.696 128.725 276.633 128.724 276.563 128.723L276.549 128.723C276.398 128.723 276.286 128.762 276.208 128.843C276.102 128.951 276.093 129.101 276.096 129.203C276.101 129.42 276.1 129.643 276.099 129.858C276.098 130.09 276.096 130.33 276.103 130.567C276.104 130.604 276.102 130.626 276.1 130.638C276.087 130.64 276.062 130.644 276.019 130.644C273.971 130.64 271.923 130.64 269.875 130.64L267.404 130.64C267.597 130.271 267.791 129.903 267.984 129.535L268.034 129.44C268.352 128.836 268.669 128.233 268.983 127.628C269.042 127.514 269.093 127.482 269.224 127.482C269.735 127.486 270.284 127.488 270.949 127.488C271.346 127.488 271.742 127.488 272.138 127.487L272.451 127.486L272.695 127.487C272.856 127.487 273.008 127.487 273.113 127.381C273.216 127.276 273.214 127.143 273.212 126.923C273.211 126.864 273.21 126.796 273.211 126.717C273.212 126.518 273.213 126.387 273.114 126.286C273.013 126.184 272.883 126.184 272.667 126.184C272.266 126.184 269.75 126.183 269.75 126.183C269.853 125.986 269.957 125.789 270.062 125.592L270.064 125.588C270.267 125.204 270.477 124.808 270.676 124.414C270.734 124.3 270.778 124.28 270.882 124.28L270.891 124.28C271.145 124.285 271.415 124.287 271.742 124.287C271.951 124.287 272.16 124.286 272.37 124.285L272.428 124.285C272.471 124.284 272.513 124.271 272.548 124.246C272.643 124.18 272.665 124.049 272.599 123.955L271.909 122.977C271.811 122.979 271.743 122.98 271.684 122.982C271.57 122.984 271.485 122.986 271.268 122.986C270.971 122.986 270.706 122.983 270.458 122.975C270.445 122.975 270.432 122.974 270.42 122.974C270.112 122.974 269.916 123.098 269.765 123.387C268.787 125.26 267.785 127.161 266.817 129L265.972 130.603L265.826 130.882C265.723 131.078 265.62 131.274 265.516 131.47C265.446 131.6 265.439 131.713 265.495 131.806C265.549 131.897 265.648 131.943 265.788 131.943L265.847 131.943L265.989 131.944L285.947 131.944C286.492 131.944 287.038 131.944 287.584 131.943C287.75 131.943 287.907 131.943 287.986 131.81C288.066 131.676 287.994 131.541 287.911 131.385C287.861 131.29 287.808 131.196 287.756 131.103L287.678 130.963L286.978 129.701C285.788 127.557 284.599 125.414 283.412 123.268C283.304 123.074 283.147 122.979 282.932 122.979L282.918 122.979C282.824 122.981 282.729 122.984 282.634 122.988Z" fill="#424242"/>
<path d="M261.751 143.475V149.035H260.839V143.475H261.751ZM265.173 144.555C265.519 144.555 265.829 144.627 266.101 144.771C266.378 144.915 266.594 145.129 266.749 145.411C266.903 145.694 266.981 146.035 266.981 146.435V149.035H266.077V146.571C266.077 146.177 265.978 145.875 265.781 145.667C265.583 145.454 265.314 145.347 264.973 145.347C264.631 145.347 264.359 145.454 264.157 145.667C263.959 145.875 263.861 146.177 263.861 146.571V149.035H262.949V144.627H263.861V145.131C264.01 144.95 264.199 144.809 264.429 144.707C264.663 144.606 264.911 144.555 265.173 144.555ZM271.528 145.755V146.523H268.24V145.755H271.528ZM274.656 149.091C274.282 149.091 273.946 149.027 273.648 148.899C273.349 148.766 273.114 148.579 272.944 148.339C272.773 148.099 272.688 147.819 272.688 147.499H273.664C273.685 147.739 273.778 147.937 273.944 148.091C274.114 148.246 274.352 148.323 274.656 148.323C274.97 148.323 275.216 148.249 275.392 148.099C275.568 147.945 275.656 147.747 275.656 147.507C275.656 147.321 275.6 147.169 275.488 147.051C275.381 146.934 275.245 146.843 275.08 146.779C274.92 146.715 274.696 146.646 274.408 146.571C274.045 146.475 273.749 146.379 273.52 146.283C273.296 146.182 273.104 146.027 272.944 145.819C272.784 145.611 272.704 145.334 272.704 144.987C272.704 144.667 272.784 144.387 272.944 144.147C273.104 143.907 273.328 143.723 273.616 143.595C273.904 143.467 274.237 143.403 274.616 143.403C275.154 143.403 275.594 143.539 275.936 143.811C276.282 144.078 276.474 144.446 276.512 144.915H275.504C275.488 144.713 275.392 144.539 275.216 144.395C275.04 144.251 274.808 144.179 274.52 144.179C274.258 144.179 274.045 144.246 273.88 144.379C273.714 144.513 273.632 144.705 273.632 144.955C273.632 145.126 273.682 145.267 273.784 145.379C273.89 145.486 274.024 145.571 274.184 145.635C274.344 145.699 274.562 145.769 274.84 145.843C275.208 145.945 275.506 146.046 275.736 146.147C275.97 146.249 276.168 146.406 276.328 146.619C276.493 146.827 276.576 147.107 276.576 147.459C276.576 147.742 276.498 148.009 276.344 148.259C276.194 148.51 275.973 148.713 275.68 148.867C275.392 149.017 275.05 149.091 274.656 149.091ZM278.716 145.371V147.811C278.716 147.977 278.753 148.097 278.828 148.171C278.908 148.241 279.041 148.275 279.228 148.275H279.788V149.035H279.068C278.657 149.035 278.343 148.939 278.124 148.747C277.905 148.555 277.796 148.243 277.796 147.811V145.371H277.276V144.627H277.796V143.531H278.716V144.627H279.788V145.371H278.716ZM282.541 149.107C282.125 149.107 281.749 149.014 281.413 148.827C281.077 148.635 280.813 148.369 280.621 148.027C280.429 147.681 280.333 147.281 280.333 146.827C280.333 146.379 280.431 145.982 280.629 145.635C280.826 145.289 281.095 145.022 281.437 144.835C281.778 144.649 282.159 144.555 282.581 144.555C283.002 144.555 283.383 144.649 283.725 144.835C284.066 145.022 284.335 145.289 284.533 145.635C284.73 145.982 284.829 146.379 284.829 146.827C284.829 147.275 284.727 147.673 284.525 148.019C284.322 148.366 284.045 148.635 283.693 148.827C283.346 149.014 282.962 149.107 282.541 149.107ZM282.541 148.315C282.775 148.315 282.994 148.259 283.197 148.147C283.405 148.035 283.573 147.867 283.701 147.643C283.829 147.419 283.893 147.147 283.893 146.827C283.893 146.507 283.831 146.238 283.709 146.019C283.586 145.795 283.423 145.627 283.221 145.515C283.018 145.403 282.799 145.347 282.565 145.347C282.33 145.347 282.111 145.403 281.909 145.515C281.711 145.627 281.554 145.795 281.437 146.019C281.319 146.238 281.261 146.507 281.261 146.827C281.261 147.302 281.381 147.67 281.621 147.931C281.866 148.187 282.173 148.315 282.541 148.315ZM286.642 145.267C286.775 145.043 286.951 144.87 287.17 144.747C287.394 144.619 287.658 144.555 287.962 144.555V145.499H287.73C287.373 145.499 287.101 145.59 286.914 145.771C286.733 145.953 286.642 146.267 286.642 146.715V149.035H285.73V144.627H286.642V145.267ZM292.84 146.723C292.84 146.889 292.83 147.038 292.808 147.171H289.44C289.467 147.523 289.598 147.806 289.832 148.019C290.067 148.233 290.355 148.339 290.696 148.339C291.187 148.339 291.534 148.134 291.736 147.723H292.72C292.587 148.129 292.344 148.462 291.992 148.723C291.646 148.979 291.214 149.107 290.696 149.107C290.275 149.107 289.896 149.014 289.56 148.827C289.23 148.635 288.968 148.369 288.776 148.027C288.59 147.681 288.496 147.281 288.496 146.827C288.496 146.374 288.587 145.977 288.768 145.635C288.955 145.289 289.214 145.022 289.544 144.835C289.88 144.649 290.264 144.555 290.696 144.555C291.112 144.555 291.483 144.646 291.808 144.827C292.134 145.009 292.387 145.265 292.568 145.595C292.75 145.921 292.84 146.297 292.84 146.723ZM291.888 146.435C291.883 146.099 291.763 145.83 291.528 145.627C291.294 145.425 291.003 145.323 290.656 145.323C290.342 145.323 290.072 145.425 289.848 145.627C289.624 145.825 289.491 146.094 289.448 146.435H291.888Z" fill="#1C1C1C"/>
<path d="M228.503 154.062V154.484H226.776V155.824H228.178V156.245H226.776V158.035H226.257V154.062H228.503ZM229.397 154.404C229.298 154.404 229.215 154.37 229.146 154.302C229.078 154.233 229.044 154.15 229.044 154.051C229.044 153.952 229.078 153.869 229.146 153.8C229.215 153.732 229.298 153.698 229.397 153.698C229.492 153.698 229.572 153.732 229.636 153.8C229.705 153.869 229.739 153.952 229.739 154.051C229.739 154.15 229.705 154.233 229.636 154.302C229.572 154.37 229.492 154.404 229.397 154.404ZM229.648 154.912V158.035H229.129V154.912H229.648ZM232.054 154.855C232.434 154.855 232.742 154.971 232.977 155.202C233.213 155.43 233.331 155.761 233.331 156.194V158.035H232.818V156.268C232.818 155.957 232.74 155.719 232.584 155.556C232.428 155.389 232.215 155.305 231.945 155.305C231.672 155.305 231.453 155.39 231.29 155.561C231.13 155.732 231.051 155.981 231.051 156.308V158.035H230.532V154.912H231.051V155.356C231.153 155.197 231.292 155.073 231.467 154.986C231.645 154.898 231.841 154.855 232.054 154.855ZM233.984 156.462C233.984 156.143 234.049 155.864 234.178 155.624C234.307 155.381 234.484 155.193 234.708 155.06C234.936 154.927 235.191 154.86 235.472 154.86C235.715 154.86 235.941 154.917 236.15 155.031C236.359 155.142 236.519 155.288 236.629 155.47V153.817H237.153V158.035H236.629V157.448C236.526 157.634 236.374 157.788 236.173 157.91C235.971 158.028 235.736 158.087 235.466 158.087C235.189 158.087 234.936 158.018 234.708 157.881C234.484 157.745 234.307 157.553 234.178 157.306C234.049 157.059 233.984 156.777 233.984 156.462ZM236.629 156.468C236.629 156.232 236.581 156.027 236.486 155.852C236.391 155.677 236.262 155.544 236.099 155.453C235.939 155.358 235.762 155.311 235.569 155.311C235.375 155.311 235.198 155.356 235.039 155.447C234.879 155.539 234.752 155.672 234.657 155.846C234.562 156.021 234.514 156.226 234.514 156.462C234.514 156.701 234.562 156.91 234.657 157.089C234.752 157.264 234.879 157.399 235.039 157.494C235.198 157.585 235.375 157.631 235.569 157.631C235.762 157.631 235.939 157.585 236.099 157.494C236.262 157.399 236.391 157.264 236.486 157.089C236.581 156.91 236.629 156.703 236.629 156.468ZM241.071 154.855C241.451 154.855 241.759 154.971 241.995 155.202C242.23 155.43 242.348 155.761 242.348 156.194V158.035H241.835V156.268C241.835 155.957 241.757 155.719 241.601 155.556C241.446 155.389 241.233 155.305 240.963 155.305C240.689 155.305 240.471 155.39 240.308 155.561C240.148 155.732 240.068 155.981 240.068 156.308V158.035H239.549V154.912H240.068V155.356C240.171 155.197 240.309 155.073 240.484 154.986C240.663 154.898 240.859 154.855 241.071 154.855ZM246.045 156.354C246.045 156.453 246.04 156.557 246.028 156.667H243.532C243.551 156.975 243.655 157.216 243.845 157.391C244.039 157.562 244.273 157.648 244.546 157.648C244.771 157.648 244.957 157.596 245.105 157.494C245.257 157.387 245.363 157.247 245.424 157.072H245.983C245.899 157.372 245.732 157.617 245.481 157.807C245.23 157.993 244.919 158.087 244.546 158.087C244.25 158.087 243.984 158.02 243.748 157.887C243.517 157.754 243.334 157.566 243.201 157.323C243.068 157.076 243.002 156.791 243.002 156.468C243.002 156.145 243.066 155.862 243.195 155.618C243.325 155.375 243.505 155.189 243.737 155.06C243.973 154.927 244.242 154.86 244.546 154.86C244.843 154.86 245.105 154.925 245.333 155.054C245.561 155.183 245.736 155.362 245.857 155.59C245.983 155.814 246.045 156.069 246.045 156.354ZM245.51 156.245C245.51 156.048 245.466 155.879 245.379 155.738C245.291 155.594 245.171 155.485 245.019 155.413C244.871 155.337 244.706 155.299 244.524 155.299C244.261 155.299 244.037 155.383 243.851 155.55C243.669 155.717 243.564 155.949 243.537 156.245H245.51ZM246.536 156.462C246.536 156.143 246.601 155.864 246.73 155.624C246.859 155.381 247.036 155.193 247.26 155.06C247.488 154.927 247.741 154.86 248.018 154.86C248.292 154.86 248.529 154.919 248.731 155.037C248.932 155.155 249.082 155.303 249.181 155.482V154.912H249.705V158.035H249.181V157.454C249.078 157.636 248.925 157.788 248.719 157.91C248.518 158.028 248.282 158.087 248.013 158.087C247.735 158.087 247.484 158.018 247.26 157.881C247.036 157.745 246.859 157.553 246.73 157.306C246.601 157.059 246.536 156.777 246.536 156.462ZM249.181 156.468C249.181 156.232 249.134 156.027 249.039 155.852C248.944 155.677 248.814 155.544 248.651 155.453C248.491 155.358 248.315 155.311 248.121 155.311C247.927 155.311 247.75 155.356 247.591 155.447C247.431 155.539 247.304 155.672 247.209 155.846C247.114 156.021 247.066 156.226 247.066 156.462C247.066 156.701 247.114 156.91 247.209 157.089C247.304 157.264 247.431 157.399 247.591 157.494C247.75 157.585 247.927 157.631 248.121 157.631C248.315 157.631 248.491 157.585 248.651 157.494C248.814 157.399 248.944 157.264 249.039 157.089C249.134 156.91 249.181 156.703 249.181 156.468ZM251.101 155.419C251.192 155.24 251.321 155.102 251.488 155.003C251.659 154.904 251.866 154.855 252.11 154.855V155.39H251.973C251.391 155.39 251.101 155.706 251.101 156.337V158.035H250.582V154.912H251.101V155.419ZM255.558 156.354C255.558 156.453 255.553 156.557 255.541 156.667H253.045C253.064 156.975 253.168 157.216 253.358 157.391C253.552 157.562 253.786 157.648 254.059 157.648C254.284 157.648 254.47 157.596 254.618 157.494C254.77 157.387 254.876 157.247 254.937 157.072H255.496C255.412 157.372 255.245 157.617 254.994 157.807C254.743 157.993 254.432 158.087 254.059 158.087C253.763 158.087 253.497 158.02 253.261 157.887C253.03 157.754 252.847 157.566 252.714 157.323C252.581 157.076 252.515 156.791 252.515 156.468C252.515 156.145 252.579 155.862 252.708 155.618C252.838 155.375 253.018 155.189 253.25 155.06C253.486 154.927 253.755 154.86 254.059 154.86C254.356 154.86 254.618 154.925 254.846 155.054C255.074 155.183 255.249 155.362 255.37 155.59C255.496 155.814 255.558 156.069 255.558 156.354ZM255.023 156.245C255.023 156.048 254.979 155.879 254.892 155.738C254.804 155.594 254.684 155.485 254.532 155.413C254.384 155.337 254.219 155.299 254.037 155.299C253.774 155.299 253.55 155.383 253.364 155.55C253.182 155.717 253.077 155.949 253.05 156.245H255.023ZM257.349 158.087C257.109 158.087 256.895 158.047 256.705 157.967C256.515 157.883 256.365 157.769 256.254 157.625C256.144 157.477 256.083 157.308 256.072 157.118H256.608C256.623 157.273 256.695 157.401 256.824 157.499C256.957 157.598 257.13 157.648 257.343 157.648C257.541 157.648 257.697 157.604 257.811 157.517C257.925 157.429 257.982 157.319 257.982 157.186C257.982 157.049 257.921 156.948 257.799 156.884C257.678 156.815 257.489 156.749 257.235 156.684C257.003 156.624 256.813 156.563 256.665 156.502C256.52 156.437 256.395 156.344 256.289 156.223C256.186 156.097 256.135 155.934 256.135 155.732C256.135 155.573 256.182 155.427 256.277 155.294C256.372 155.161 256.507 155.056 256.682 154.98C256.857 154.9 257.056 154.86 257.28 154.86C257.626 154.86 257.906 154.948 258.118 155.123C258.331 155.297 258.445 155.537 258.46 155.841H257.942C257.93 155.677 257.864 155.546 257.742 155.447C257.624 155.349 257.465 155.299 257.263 155.299C257.077 155.299 256.929 155.339 256.819 155.419C256.709 155.499 256.653 155.603 256.653 155.732C256.653 155.835 256.686 155.921 256.75 155.989C256.819 156.054 256.902 156.107 257.001 156.149C257.104 156.187 257.244 156.23 257.423 156.28C257.647 156.34 257.83 156.401 257.97 156.462C258.111 156.519 258.23 156.606 258.329 156.724C258.432 156.842 258.485 156.996 258.489 157.186C258.489 157.357 258.441 157.511 258.346 157.648C258.251 157.784 258.116 157.893 257.942 157.973C257.771 158.049 257.573 158.087 257.349 158.087ZM259.854 155.339V157.18C259.854 157.332 259.886 157.441 259.951 157.505C260.015 157.566 260.127 157.596 260.287 157.596H260.669V158.035H260.202C259.913 158.035 259.696 157.969 259.552 157.836C259.407 157.703 259.335 157.484 259.335 157.18V155.339H258.93V154.912H259.335V154.125H259.854V154.912H260.669V155.339H259.854ZM263.336 153.817V158.035H262.817V153.817H263.336ZM265.582 158.087C265.289 158.087 265.023 158.02 264.784 157.887C264.548 157.754 264.362 157.566 264.225 157.323C264.092 157.076 264.026 156.791 264.026 156.468C264.026 156.149 264.094 155.867 264.231 155.624C264.372 155.377 264.562 155.189 264.801 155.06C265.041 154.927 265.308 154.86 265.605 154.86C265.901 154.86 266.169 154.927 266.409 155.06C266.648 155.189 266.836 155.375 266.973 155.618C267.113 155.862 267.184 156.145 267.184 156.468C267.184 156.791 267.112 157.076 266.967 157.323C266.827 157.566 266.635 157.754 266.391 157.887C266.148 158.02 265.878 158.087 265.582 158.087ZM265.582 157.631C265.768 157.631 265.943 157.587 266.106 157.499C266.27 157.412 266.401 157.281 266.5 157.106C266.602 156.931 266.654 156.719 266.654 156.468C266.654 156.217 266.604 156.004 266.505 155.829C266.407 155.655 266.277 155.525 266.118 155.442C265.958 155.354 265.785 155.311 265.599 155.311C265.409 155.311 265.234 155.354 265.075 155.442C264.919 155.525 264.794 155.655 264.699 155.829C264.604 156.004 264.556 156.217 264.556 156.468C264.556 156.722 264.602 156.937 264.693 157.112C264.788 157.287 264.913 157.418 265.069 157.505C265.225 157.589 265.396 157.631 265.582 157.631ZM267.672 156.468C267.672 156.145 267.737 155.864 267.866 155.624C267.995 155.381 268.174 155.193 268.402 155.06C268.633 154.927 268.897 154.86 269.194 154.86C269.578 154.86 269.893 154.953 270.14 155.14C270.391 155.326 270.556 155.584 270.636 155.915H270.077C270.024 155.725 269.92 155.575 269.764 155.465C269.612 155.354 269.422 155.299 269.194 155.299C268.897 155.299 268.658 155.402 268.476 155.607C268.293 155.808 268.202 156.095 268.202 156.468C268.202 156.844 268.293 157.135 268.476 157.34C268.658 157.545 268.897 157.648 269.194 157.648C269.422 157.648 269.612 157.594 269.764 157.488C269.916 157.382 270.02 157.23 270.077 157.032H270.636C270.552 157.351 270.385 157.608 270.134 157.802C269.884 157.992 269.57 158.087 269.194 158.087C268.897 158.087 268.633 158.02 268.402 157.887C268.174 157.754 267.995 157.566 267.866 157.323C267.737 157.08 267.672 156.795 267.672 156.468ZM271.134 156.462C271.134 156.143 271.199 155.864 271.328 155.624C271.457 155.381 271.634 155.193 271.858 155.06C272.086 154.927 272.339 154.86 272.616 154.86C272.89 154.86 273.127 154.919 273.329 155.037C273.53 155.155 273.68 155.303 273.779 155.482V154.912H274.303V158.035H273.779V157.454C273.676 157.636 273.523 157.788 273.317 157.91C273.116 158.028 272.88 158.087 272.611 158.087C272.333 158.087 272.082 158.018 271.858 157.881C271.634 157.745 271.457 157.553 271.328 157.306C271.199 157.059 271.134 156.777 271.134 156.462ZM273.779 156.468C273.779 156.232 273.732 156.027 273.637 155.852C273.542 155.677 273.412 155.544 273.249 155.453C273.089 155.358 272.913 155.311 272.719 155.311C272.525 155.311 272.348 155.356 272.189 155.447C272.029 155.539 271.902 155.672 271.807 155.846C271.712 156.021 271.664 156.226 271.664 156.462C271.664 156.701 271.712 156.91 271.807 157.089C271.902 157.264 272.029 157.399 272.189 157.494C272.348 157.585 272.525 157.631 272.719 157.631C272.913 157.631 273.089 157.585 273.249 157.494C273.412 157.399 273.542 157.264 273.637 157.089C273.732 156.91 273.779 156.703 273.779 156.468ZM275.813 155.339V157.18C275.813 157.332 275.845 157.441 275.91 157.505C275.974 157.566 276.086 157.596 276.246 157.596H276.628V158.035H276.16C275.872 158.035 275.655 157.969 275.511 157.836C275.366 157.703 275.294 157.484 275.294 157.18V155.339H274.889V154.912H275.294V154.125H275.813V154.912H276.628V155.339H275.813ZM277.524 154.404C277.425 154.404 277.342 154.37 277.273 154.302C277.205 154.233 277.171 154.15 277.171 154.051C277.171 153.952 277.205 153.869 277.273 153.8C277.342 153.732 277.425 153.698 277.524 153.698C277.619 153.698 277.699 153.732 277.764 153.8C277.832 153.869 277.866 153.952 277.866 154.051C277.866 154.15 277.832 154.233 277.764 154.302C277.699 154.37 277.619 154.404 277.524 154.404ZM277.775 154.912V158.035H277.256V154.912H277.775ZM280.021 158.087C279.729 158.087 279.463 158.02 279.223 157.887C278.988 157.754 278.802 157.566 278.665 157.323C278.532 157.076 278.465 156.791 278.465 156.468C278.465 156.149 278.534 155.867 278.67 155.624C278.811 155.377 279.001 155.189 279.24 155.06C279.48 154.927 279.748 154.86 280.044 154.86C280.341 154.86 280.608 154.927 280.848 155.06C281.087 155.189 281.275 155.375 281.412 155.618C281.553 155.862 281.623 156.145 281.623 156.468C281.623 156.791 281.551 157.076 281.406 157.323C281.266 157.566 281.074 157.754 280.831 157.887C280.588 158.02 280.318 158.087 280.021 158.087ZM280.021 157.631C280.208 157.631 280.382 157.587 280.546 157.499C280.709 157.412 280.84 157.281 280.939 157.106C281.042 156.931 281.093 156.719 281.093 156.468C281.093 156.217 281.044 156.004 280.945 155.829C280.846 155.655 280.717 155.525 280.557 155.442C280.398 155.354 280.225 155.311 280.038 155.311C279.848 155.311 279.674 155.354 279.514 155.442C279.358 155.525 279.233 155.655 279.138 155.829C279.043 156.004 278.995 156.217 278.995 156.468C278.995 156.722 279.041 156.937 279.132 157.112C279.227 157.287 279.353 157.418 279.508 157.505C279.664 157.589 279.835 157.631 280.021 157.631ZM283.827 154.855C284.207 154.855 284.515 154.971 284.75 155.202C284.986 155.43 285.104 155.761 285.104 156.194V158.035H284.591V156.268C284.591 155.957 284.513 155.719 284.357 155.556C284.201 155.389 283.988 155.305 283.719 155.305C283.445 155.305 283.227 155.39 283.063 155.561C282.904 155.732 282.824 155.981 282.824 156.308V158.035H282.305V154.912H282.824V155.356C282.926 155.197 283.065 155.073 283.24 154.986C283.418 154.898 283.614 154.855 283.827 154.855ZM288.103 155.339V157.18C288.103 157.332 288.136 157.441 288.2 157.505C288.265 157.566 288.377 157.596 288.537 157.596H288.918V158.035H288.451C288.162 158.035 287.946 157.969 287.801 157.836C287.657 157.703 287.585 157.484 287.585 157.18V155.339H287.18V154.912H287.585V154.125H288.103V154.912H288.918V155.339H288.103ZM290.909 158.087C290.617 158.087 290.351 158.02 290.111 157.887C289.876 157.754 289.689 157.566 289.553 157.323C289.42 157.076 289.353 156.791 289.353 156.468C289.353 156.149 289.421 155.867 289.558 155.624C289.699 155.377 289.889 155.189 290.128 155.06C290.368 154.927 290.636 154.86 290.932 154.86C291.228 154.86 291.496 154.927 291.736 155.06C291.975 155.189 292.163 155.375 292.3 155.618C292.441 155.862 292.511 156.145 292.511 156.468C292.511 156.791 292.439 157.076 292.294 157.323C292.154 157.566 291.962 157.754 291.719 157.887C291.475 158.02 291.206 158.087 290.909 158.087ZM290.909 157.631C291.095 157.631 291.27 157.587 291.434 157.499C291.597 157.412 291.728 157.281 291.827 157.106C291.929 156.931 291.981 156.719 291.981 156.468C291.981 156.217 291.931 156.004 291.833 155.829C291.734 155.655 291.605 155.525 291.445 155.442C291.285 155.354 291.112 155.311 290.926 155.311C290.736 155.311 290.561 155.354 290.402 155.442C290.246 155.525 290.121 155.655 290.026 155.829C289.931 156.004 289.883 156.217 289.883 156.468C289.883 156.722 289.929 156.937 290.02 157.112C290.115 157.287 290.24 157.418 290.396 157.505C290.552 157.589 290.723 157.631 290.909 157.631ZM295.818 158.087C295.579 158.087 295.364 158.047 295.174 157.967C294.984 157.883 294.834 157.769 294.724 157.625C294.614 157.477 294.553 157.308 294.542 157.118H295.077C295.093 157.273 295.165 157.401 295.294 157.499C295.427 157.598 295.6 157.648 295.813 157.648C296.01 157.648 296.166 157.604 296.28 157.517C296.394 157.429 296.451 157.319 296.451 157.186C296.451 157.049 296.39 156.948 296.269 156.884C296.147 156.815 295.959 156.749 295.704 156.684C295.473 156.624 295.283 156.563 295.134 156.502C294.99 156.437 294.865 156.344 294.758 156.223C294.656 156.097 294.604 155.934 294.604 155.732C294.604 155.573 294.652 155.427 294.747 155.294C294.842 155.161 294.977 155.056 295.151 154.98C295.326 154.9 295.526 154.86 295.75 154.86C296.096 154.86 296.375 154.948 296.588 155.123C296.801 155.297 296.915 155.537 296.93 155.841H296.411C296.4 155.677 296.333 155.546 296.212 155.447C296.094 155.349 295.934 155.299 295.733 155.299C295.547 155.299 295.398 155.339 295.288 155.419C295.178 155.499 295.123 155.603 295.123 155.732C295.123 155.835 295.155 155.921 295.22 155.989C295.288 156.054 295.372 156.107 295.471 156.149C295.573 156.187 295.714 156.23 295.892 156.28C296.117 156.34 296.299 156.401 296.44 156.462C296.58 156.519 296.7 156.606 296.799 156.724C296.901 156.842 296.955 156.996 296.958 157.186C296.958 157.357 296.911 157.511 296.816 157.648C296.721 157.784 296.586 157.893 296.411 157.973C296.24 158.049 296.043 158.087 295.818 158.087ZM300.541 156.354C300.541 156.453 300.535 156.557 300.523 156.667H298.027C298.046 156.975 298.15 157.216 298.34 157.391C298.534 157.562 298.768 157.648 299.041 157.648C299.266 157.648 299.452 157.596 299.6 157.494C299.752 157.387 299.858 157.247 299.919 157.072H300.478C300.394 157.372 300.227 157.617 299.976 157.807C299.725 157.993 299.414 158.087 299.041 158.087C298.745 158.087 298.479 158.02 298.243 157.887C298.012 157.754 297.829 157.566 297.696 157.323C297.563 157.076 297.497 156.791 297.497 156.468C297.497 156.145 297.561 155.862 297.691 155.618C297.82 155.375 298 155.189 298.232 155.06C298.468 154.927 298.737 154.86 299.041 154.86C299.338 154.86 299.6 154.925 299.828 155.054C300.056 155.183 300.231 155.362 300.352 155.59C300.478 155.814 300.541 156.069 300.541 156.354ZM300.005 156.245C300.005 156.048 299.961 155.879 299.874 155.738C299.786 155.594 299.667 155.485 299.515 155.413C299.366 155.337 299.201 155.299 299.019 155.299C298.756 155.299 298.532 155.383 298.346 155.55C298.164 155.717 298.059 155.949 298.033 156.245H300.005ZM301.744 153.817V158.035H301.225V153.817H301.744ZM303.147 153.817V158.035H302.628V153.817H303.147ZM305.818 154.404C305.719 154.404 305.636 154.37 305.567 154.302C305.499 154.233 305.465 154.15 305.465 154.051C305.465 153.952 305.499 153.869 305.567 153.8C305.636 153.732 305.719 153.698 305.818 153.698C305.913 153.698 305.993 153.732 306.058 153.8C306.126 153.869 306.16 153.952 306.16 154.051C306.16 154.15 306.126 154.233 306.058 154.302C305.993 154.37 305.913 154.404 305.818 154.404ZM306.069 154.912V158.035H305.55V154.912H306.069ZM308.475 154.855C308.855 154.855 309.163 154.971 309.398 155.202C309.634 155.43 309.752 155.761 309.752 156.194V158.035H309.239V156.268C309.239 155.957 309.161 155.719 309.005 155.556C308.849 155.389 308.636 155.305 308.367 155.305C308.093 155.305 307.875 155.39 307.711 155.561C307.552 155.732 307.472 155.981 307.472 156.308V158.035H306.953V154.912H307.472V155.356C307.574 155.197 307.713 155.073 307.888 154.986C308.066 154.898 308.262 154.855 308.475 154.855ZM312.765 155.727V156.166H310.491V155.727H312.765ZM314.844 158.087C314.605 158.087 314.39 158.047 314.2 157.967C314.01 157.883 313.86 157.769 313.75 157.625C313.64 157.477 313.579 157.308 313.567 157.118H314.103C314.118 157.273 314.191 157.401 314.32 157.499C314.453 157.598 314.626 157.648 314.839 157.648C315.036 157.648 315.192 157.604 315.306 157.517C315.42 157.429 315.477 157.319 315.477 157.186C315.477 157.049 315.416 156.948 315.295 156.884C315.173 156.815 314.985 156.749 314.73 156.684C314.498 156.624 314.308 156.563 314.16 156.502C314.016 156.437 313.89 156.344 313.784 156.223C313.681 156.097 313.63 155.934 313.63 155.732C313.63 155.573 313.678 155.427 313.773 155.294C313.868 155.161 314.003 155.056 314.177 154.98C314.352 154.9 314.552 154.86 314.776 154.86C315.122 154.86 315.401 154.948 315.614 155.123C315.827 155.297 315.941 155.537 315.956 155.841H315.437C315.426 155.677 315.359 155.546 315.238 155.447C315.12 155.349 314.96 155.299 314.759 155.299C314.573 155.299 314.424 155.339 314.314 155.419C314.204 155.499 314.149 155.603 314.149 155.732C314.149 155.835 314.181 155.921 314.246 155.989C314.314 156.054 314.398 156.107 314.497 156.149C314.599 156.187 314.74 156.23 314.918 156.28C315.143 156.34 315.325 156.401 315.466 156.462C315.606 156.519 315.726 156.606 315.825 156.724C315.927 156.842 315.98 156.996 315.984 157.186C315.984 157.357 315.937 157.511 315.842 157.648C315.747 157.784 315.612 157.893 315.437 157.973C315.266 158.049 315.068 158.087 314.844 158.087ZM317.349 155.339V157.18C317.349 157.332 317.382 157.441 317.446 157.505C317.511 157.566 317.623 157.596 317.782 157.596H318.164V158.035H317.697C317.408 158.035 317.192 157.969 317.047 157.836C316.903 157.703 316.831 157.484 316.831 157.18V155.339H316.426V154.912H316.831V154.125H317.349V154.912H318.164V155.339H317.349ZM320.155 158.087C319.862 158.087 319.596 158.02 319.357 157.887C319.121 157.754 318.935 157.566 318.798 157.323C318.665 157.076 318.599 156.791 318.599 156.468C318.599 156.149 318.667 155.867 318.804 155.624C318.945 155.377 319.135 155.189 319.374 155.06C319.614 154.927 319.881 154.86 320.178 154.86C320.474 154.86 320.742 154.927 320.982 155.06C321.221 155.189 321.409 155.375 321.546 155.618C321.686 155.862 321.757 156.145 321.757 156.468C321.757 156.791 321.685 157.076 321.54 157.323C321.4 157.566 321.208 157.754 320.964 157.887C320.721 158.02 320.451 158.087 320.155 158.087ZM320.155 157.631C320.341 157.631 320.516 157.587 320.679 157.499C320.843 157.412 320.974 157.281 321.073 157.106C321.175 156.931 321.227 156.719 321.227 156.468C321.227 156.217 321.177 156.004 321.078 155.829C320.98 155.655 320.85 155.525 320.691 155.442C320.531 155.354 320.358 155.311 320.172 155.311C319.982 155.311 319.807 155.354 319.648 155.442C319.492 155.525 319.367 155.655 319.272 155.829C319.177 156.004 319.129 156.217 319.129 156.468C319.129 156.722 319.175 156.937 319.266 157.112C319.361 157.287 319.486 157.418 319.642 157.505C319.798 157.589 319.969 157.631 320.155 157.631ZM322.957 155.419C323.049 155.24 323.178 155.102 323.345 155.003C323.516 154.904 323.723 154.855 323.966 154.855V155.39H323.83C323.248 155.39 322.957 155.706 322.957 156.337V158.035H322.439V154.912H322.957V155.419ZM327.415 156.354C327.415 156.453 327.409 156.557 327.398 156.667H324.901C324.92 156.975 325.025 157.216 325.215 157.391C325.409 157.562 325.642 157.648 325.916 157.648C326.14 157.648 326.326 157.596 326.475 157.494C326.627 157.387 326.733 157.247 326.794 157.072H327.352C327.269 157.372 327.102 157.617 326.851 157.807C326.6 157.993 326.288 158.087 325.916 158.087C325.62 158.087 325.354 158.02 325.118 157.887C324.886 157.754 324.704 157.566 324.571 157.323C324.438 157.076 324.371 156.791 324.371 156.468C324.371 156.145 324.436 155.862 324.565 155.618C324.694 155.375 324.875 155.189 325.107 155.06C325.342 154.927 325.612 154.86 325.916 154.86C326.212 154.86 326.475 154.925 326.703 155.054C326.931 155.183 327.105 155.362 327.227 155.59C327.352 155.814 327.415 156.069 327.415 156.354ZM326.879 156.245C326.879 156.048 326.836 155.879 326.748 155.738C326.661 155.594 326.541 155.485 326.389 155.413C326.241 155.337 326.076 155.299 325.893 155.299C325.631 155.299 325.407 155.383 325.221 155.55C325.038 155.717 324.934 155.949 324.907 156.245H326.879Z" fill="#1C1C1C"/>
</g>
<rect x="203.164" y="90.5651" width="147.151" height="84.8416" rx="2.35331" stroke="#424242" stroke-width="0.31338"/>
</g>
<g filter="url(#filter1_d_1332_1186)">
<path fill-rule="evenodd" clip-rule="evenodd" d="M340.375 172.833C340.126 172.519 339.825 171.877 339.287 171.097C338.983 170.656 338.228 169.826 338.003 169.404C337.808 169.031 337.829 168.864 337.875 168.555C337.957 168.006 338.521 167.578 339.122 167.635C339.576 167.678 339.961 167.978 340.308 168.262C340.517 168.433 340.774 168.764 340.929 168.951C341.071 169.123 341.106 169.194 341.259 169.397C341.46 169.665 341.523 169.798 341.446 169.503C341.384 169.069 341.282 168.328 341.135 167.672C341.023 167.175 340.996 167.097 340.889 166.716C340.777 166.31 340.719 166.025 340.613 165.595C340.539 165.29 340.407 164.668 340.371 164.318C340.322 163.84 340.295 163.059 340.602 162.7C340.843 162.42 341.395 162.335 341.737 162.508C342.185 162.735 342.44 163.386 342.556 163.645C342.765 164.113 342.895 164.653 343.008 165.361C343.151 166.263 343.416 167.516 343.424 167.779C343.445 167.456 343.365 166.776 343.421 166.466C343.472 166.186 343.708 165.859 344.004 165.771C344.254 165.696 344.547 165.669 344.805 165.723C345.079 165.779 345.368 165.975 345.475 166.159C345.792 166.705 345.798 167.821 345.811 167.761C345.887 167.432 345.873 166.686 346.06 166.375C346.182 166.171 346.495 165.986 346.661 165.956C346.918 165.911 347.234 165.897 347.504 165.949C347.722 165.992 348.017 166.251 348.097 166.375C348.288 166.676 348.396 167.528 348.428 167.826C348.442 167.95 348.493 167.483 348.685 167.182C349.04 166.623 350.297 166.515 350.346 167.741C350.367 168.314 350.363 168.287 350.363 168.672C350.363 169.125 350.353 169.397 350.328 169.724C350.301 170.074 350.226 170.865 350.116 171.248C350.041 171.512 349.792 172.104 349.546 172.459C349.546 172.459 348.606 173.553 348.504 174.046C348.4 174.537 348.435 174.541 348.414 174.89C348.394 175.238 348.52 175.697 348.52 175.697C348.52 175.697 347.819 175.788 347.441 175.727C347.098 175.672 346.675 174.992 346.566 174.783C346.415 174.496 346.094 174.551 345.969 174.763C345.772 175.098 345.348 175.699 345.049 175.737C344.465 175.811 343.252 175.764 342.303 175.755C342.303 175.755 342.464 174.87 342.104 174.566C341.837 174.34 341.378 173.88 341.103 173.639L340.375 172.833Z" fill="white"/>
<path fill-rule="evenodd" clip-rule="evenodd" d="M340.375 172.833C340.126 172.519 339.825 171.877 339.287 171.097C338.983 170.656 338.228 169.826 338.003 169.404C337.808 169.031 337.829 168.864 337.875 168.555C337.957 168.006 338.521 167.578 339.122 167.635C339.576 167.678 339.961 167.978 340.308 168.262C340.517 168.433 340.774 168.764 340.929 168.951C341.071 169.123 341.106 169.194 341.259 169.397C341.46 169.665 341.523 169.798 341.446 169.503C341.384 169.069 341.282 168.328 341.135 167.672C341.023 167.175 340.996 167.097 340.889 166.716C340.777 166.31 340.719 166.025 340.613 165.595C340.539 165.29 340.407 164.668 340.371 164.318C340.322 163.84 340.295 163.059 340.602 162.7C340.843 162.42 341.395 162.335 341.737 162.508C342.185 162.735 342.44 163.386 342.556 163.645C342.765 164.113 342.895 164.653 343.008 165.361C343.151 166.263 343.416 167.516 343.424 167.779C343.445 167.456 343.365 166.776 343.421 166.466C343.472 166.186 343.708 165.859 344.004 165.771C344.254 165.696 344.547 165.669 344.805 165.723C345.079 165.779 345.368 165.975 345.475 166.159C345.792 166.705 345.798 167.821 345.811 167.761C345.887 167.432 345.873 166.686 346.06 166.375C346.182 166.171 346.495 165.986 346.661 165.956C346.918 165.911 347.234 165.897 347.504 165.949C347.722 165.992 348.017 166.251 348.097 166.375C348.288 166.676 348.396 167.528 348.428 167.826C348.442 167.95 348.493 167.483 348.685 167.182C349.04 166.623 350.297 166.515 350.346 167.741C350.367 168.314 350.363 168.287 350.363 168.672C350.363 169.125 350.353 169.397 350.328 169.724C350.301 170.074 350.226 170.865 350.116 171.248C350.041 171.512 349.792 172.104 349.546 172.459C349.546 172.459 348.606 173.553 348.504 174.046C348.4 174.537 348.435 174.541 348.414 174.89C348.394 175.238 348.52 175.697 348.52 175.697C348.52 175.697 347.819 175.788 347.441 175.727C347.098 175.672 346.675 174.992 346.566 174.783C346.415 174.496 346.094 174.551 345.969 174.763C345.772 175.098 345.348 175.699 345.049 175.737C344.465 175.811 343.252 175.764 342.303 175.755C342.303 175.755 342.464 174.87 342.104 174.566C341.837 174.34 341.378 173.88 341.103 173.639L340.375 172.833Z" stroke="black" stroke-width="0.65625" stroke-linecap="round" stroke-linejoin="round"/>
<path d="M347.58 173.143V170.117" stroke="black" stroke-width="0.65625" stroke-linecap="round"/>
<path d="M345.817 173.153L345.803 170.115" stroke="black" stroke-width="0.65625" stroke-linecap="round"/>
<path d="M344.07 170.142L344.089 173.14" stroke="black" stroke-width="0.65625" stroke-linecap="round"/>
</g>
<defs>
<filter id="filter0_dd_1332_1186" x="201.44" y="90.0951" width="150.599" height="88.2887" filterUnits="userSpaceOnUse" color-interpolation-filters="sRGB">
<feFlood flood-opacity="0" result="BackgroundImageFix"/>
<feColorMatrix in="SourceAlpha" type="matrix" values="0 0 0 0 0 0 0 0 0 0 0 0 0 0 0 0 0 0 127 0" result="hardAlpha"/>
<feMorphology radius="0.31338" operator="erode" in="SourceAlpha" result="effect1_dropShadow_1332_1186"/>
<feOffset dy="0.626761"/>
<feGaussianBlur stdDeviation="0.626761"/>
<feColorMatrix type="matrix" values="0 0 0 0 0 0 0 0 0 0 0 0 0 0 0 0 0 0 0.06 0"/>
<feBlend mode="normal" in2="BackgroundImageFix" result="effect1_dropShadow_1332_1186"/>
<feColorMatrix in="SourceAlpha" type="matrix" values="0 0 0 0 0 0 0 0 0 0 0 0 0 0 0 0 0 0 127 0" result="hardAlpha"/>
<feMorphology radius="0.31338" operator="erode" in="SourceAlpha" result="effect2_dropShadow_1332_1186"/>
<feOffset dy="1.25352"/>
<feGaussianBlur stdDeviation="0.940141"/>
<feColorMatrix type="matrix" values="0 0 0 0 0 0 0 0 0 0 0 0 0 0 0 0 0 0 0.1 0"/>
<feBlend mode="normal" in2="effect1_dropShadow_1332_1186" result="effect2_dropShadow_1332_1186"/>
<feBlend mode="normal" in="SourceGraphic" in2="effect2_dropShadow_1332_1186" result="shape"/>
</filter>
<filter id="filter1_d_1332_1186" x="335.225" y="160.663" width="18.55" height="19.425" filterUnits="userSpaceOnUse" color-interpolation-filters="sRGB">
<feFlood flood-opacity="0" result="BackgroundImageFix"/>
<feColorMatrix in="SourceAlpha" type="matrix" values="0 0 0 0 0 0 0 0 0 0 0 0 0 0 0 0 0 0 127 0" result="hardAlpha"/>
<feOffset dy="0.875"/>
<feGaussianBlur stdDeviation="1.1375"/>
<feColorMatrix type="matrix" values="0 0 0 0 0 0 0 0 0 0 0 0 0 0 0 0 0 0 0.32 0"/>
<feBlend mode="normal" in2="BackgroundImageFix" result="effect1_dropShadow_1332_1186"/>
<feBlend mode="normal" in="SourceGraphic" in2="effect1_dropShadow_1332_1186" result="shape"/>
</filter>
<clipPath id="clip0_1332_1186">
<rect x="203.007" y="90.4084" width="147.465" height="85.1549" rx="2.51" fill="white"/>
</clipPath>
</defs>
</svg>
