<svg width="24" height="24" viewBox="0 0 24 24" fill="none" xmlns="http://www.w3.org/2000/svg">
<path fill-rule="evenodd" clip-rule="evenodd" d="M11.3809 2C15.9833 2 19.7142 5.73096 19.7142 10.3333V20.75C19.7142 21.44 19.1382 22 18.4285 22H5.57136C4.86293 22 4.28564 21.44 4.28564 20.75V3.25C4.28564 2.56125 4.86293 2 5.57136 2H11.3809ZM11.2367 6.39286V6.91471C10.4153 7.09671 9.80403 7.72721 9.80403 8.48214C9.80403 9.37821 10.6608 10.1071 11.7142 10.1071C12.2319 10.1071 12.6693 10.4256 12.6693 10.8036C12.6693 11.1815 12.2319 11.5 11.7142 11.5C11.4544 11.5 11.2118 11.422 11.0313 11.279C10.8269 11.1174 10.527 11.1453 10.3599 11.3459C10.1928 11.5446 10.2233 11.8371 10.4287 11.9996C10.6588 12.1816 10.9377 12.3041 11.2367 12.3701V12.8929C11.2367 13.1491 11.4506 13.3571 11.7142 13.3571C11.9778 13.3571 12.1918 13.1491 12.1918 12.8929V12.371C13.0132 12.189 13.6244 11.5585 13.6244 10.8036C13.6244 9.9075 12.7677 9.17857 11.7142 9.17857C11.1966 9.17857 10.7591 8.86007 10.7591 8.48214C10.7591 8.10421 11.1966 7.78571 11.7142 7.78571C11.974 7.78571 12.2166 7.86371 12.3971 8.00579C12.6006 8.16736 12.9014 8.13857 13.0686 7.93893C13.2357 7.74021 13.2051 7.44771 12.9998 7.28614C12.7696 7.10414 12.4907 6.98157 12.1918 6.91564V6.39286C12.1918 6.13657 11.9778 5.92857 11.7142 5.92857C11.4506 5.92857 11.2367 6.13657 11.2367 6.39286ZM16.4999 19.5H7.49993C7.14507 19.5 6.85707 19.22 6.85707 18.875C6.85707 18.53 7.14507 18.25 7.49993 18.25H16.4999C16.8548 18.25 17.1428 18.53 17.1428 18.875C17.1428 19.22 16.8548 19.5 16.4999 19.5ZM7.49993 17.2143H16.4999C16.8548 17.2143 17.1428 16.9343 17.1428 16.5893C17.1428 16.2443 16.8548 15.9643 16.4999 15.9643H7.49993C7.14507 15.9643 6.85707 16.2443 6.85707 16.5893C6.85707 16.9343 7.14507 17.2143 7.49993 17.2143Z" fill="black"/>
</svg>
