<svg width="25" height="24" viewBox="0 0 25 24" fill="none" xmlns="http://www.w3.org/2000/svg">
<path d="M20.8332 8.89656H14.4142C13.5539 8.89656 13.1481 9.50107 13.0968 10.2759H13.0912V19.2414H22.0567V10.2759H22.0524C22.0129 9.50107 21.6935 8.89656 20.8332 8.89656Z" fill="black"/>
<path d="M13.0912 20.4483V19.931H22.0567V20.4483C22.0567 21.3039 21.3057 22 20.3826 22H14.7652C13.8421 22 13.0912 21.3039 13.0912 20.4483Z" fill="black"/>
<path d="M20.4325 2H4.56757C3.5633 2 2.74634 2.83857 2.74634 3.8694V6.13793C9.42713 6.13793 15.3429 6.13793 22.2537 6.13793V3.8694C22.2537 2.83857 21.4368 2 20.4325 2Z" fill="black"/>
<path d="M2.74634 5.54675V15.0049L12.4015 14.8387V10.9498C12.4015 9.29121 13.0224 8.23739 14.6961 8.23739H22.2537V5.54675C15.3403 5.54675 9.42288 5.54675 2.74634 5.54675Z" fill="black"/>
<path d="M2.74634 14.4138V14.9985C2.74634 15.9656 3.55505 16.7524 4.54917 16.7524H9.5862L8.43328 18.4215H12.4015V14.4138H2.74634Z" fill="black"/>
<path d="M12.3415 20.9162V19.1428H8.1475C7.16433 19.1428 6.36712 19.9366 6.36704 20.9162C6.36704 21.243 6.63249 21.5074 6.96053 21.5074H12.4015C12.3624 21.3163 12.3415 21.1186 12.3415 20.9162Z" fill="black"/>
</svg>
