<svg xmlns="http://www.w3.org/2000/svg" width="65" height="64" viewBox="0 0 65 64" fill="none">
  <path fill-rule="evenodd" clip-rule="evenodd" d="M50.0363 32.0002C50.0363 32.0002 50.0363 32.1602 50.0363 32.2668V52.6935H29.8763V32.1602C29.8763 30.3735 30.8896 29.0135 32.8363 29.0135H37.743C40.3392 31.0894 43.5655 32.2182 46.8896 32.2135C47.9431 32.2525 48.9977 32.181 50.0363 32.0002Z" fill="#737373"/>
  <path fill-rule="evenodd" clip-rule="evenodd" d="M46.9165 5.3335C44.5009 5.3335 42.1396 6.0498 40.1311 7.39181C38.1226 8.73383 36.5572 10.6413 35.6328 12.873C34.7084 15.1047 34.4666 17.5604 34.9378 19.9295C35.4091 22.2987 36.5723 24.4749 38.2803 26.183C39.9884 27.891 42.1646 29.0542 44.5338 29.5255C46.9029 29.9967 49.3586 29.7549 51.5903 28.8305C53.822 27.9061 55.7295 26.3407 57.0715 24.3322C58.4135 22.3237 59.1298 19.9624 59.1298 17.5468C59.1298 14.3077 57.843 11.2011 55.5526 8.9107C53.2621 6.62025 50.1556 5.3335 46.9165 5.3335ZM50.3031 19.0402L52.9698 21.7068C53.0941 21.8311 53.1927 21.9787 53.26 22.1412C53.3273 22.3036 53.3619 22.4777 53.3619 22.6535C53.3619 22.8293 53.3273 23.0034 53.26 23.1658C53.1927 23.3283 53.0941 23.4758 52.9698 23.6002C52.8455 23.7245 52.6979 23.8231 52.5355 23.8904C52.373 23.9577 52.1989 23.9923 52.0231 23.9923C51.8473 23.9923 51.6732 23.9577 51.5108 23.8904C51.3484 23.8231 51.2008 23.7245 51.0765 23.6002L46.9165 19.4402L42.7565 23.6002C42.6321 23.7245 42.4846 23.8231 42.3221 23.8904C42.1597 23.9577 41.9856 23.9923 41.8098 23.9923C41.634 23.9923 41.4599 23.9577 41.2975 23.8904C41.135 23.8231 40.9874 23.7245 40.8631 23.6002C40.7388 23.4758 40.6402 23.3283 40.5729 23.1658C40.5056 23.0034 40.471 22.8293 40.471 22.6535C40.471 22.4777 40.5056 22.3036 40.5729 22.1412C40.6402 21.9787 40.7388 21.8311 40.8631 21.7068L45.0231 17.5468L43.5298 16.0002L40.8631 13.3335C40.7388 13.2092 40.6402 13.0616 40.5729 12.8992C40.5056 12.7367 40.471 12.5626 40.471 12.3868C40.471 12.211 40.5056 12.0369 40.5729 11.8745C40.6402 11.7121 40.7388 11.5645 40.8631 11.4402C40.9874 11.3158 41.135 11.2172 41.2975 11.15C41.4599 11.0827 41.634 11.048 41.8098 11.048C41.9856 11.048 42.1597 11.0827 42.3221 11.15C42.4846 11.2172 42.6321 11.3158 42.7565 11.4402L46.9165 15.6002L51.0765 11.4402C51.2008 11.3106 51.3494 11.2068 51.5138 11.1346C51.6783 11.0625 51.8553 11.0235 52.0348 11.0198C52.2144 11.016 52.3929 11.0477 52.5602 11.113C52.7274 11.1783 52.8802 11.2758 53.0098 11.4002C53.1394 11.5245 53.2432 11.6731 53.3153 11.8375C53.3875 12.002 53.4265 12.179 53.4302 12.3585C53.4339 12.5381 53.4022 12.7166 53.337 12.8839C53.2717 13.0511 53.1741 13.2039 53.0498 13.3335L48.8898 17.4935L50.3031 19.0402Z" fill="#737373"/>
  <path fill-rule="evenodd" clip-rule="evenodd" d="M27.1831 56.4002C27.1853 56.8567 27.2299 57.312 27.3164 57.7602H15.0764C14.8991 57.7602 14.7235 57.7249 14.56 57.6562C14.3964 57.5876 14.2482 57.487 14.1241 57.3603C13.9999 57.2337 13.9023 57.0835 13.8368 56.9186C13.7714 56.7538 13.7396 56.5775 13.7431 56.4002C13.7431 55.3369 14.1637 54.3167 14.913 53.5623C15.6624 52.8079 16.6798 52.3806 17.7431 52.3735H27.1831V56.4002Z" fill="#737373"/>
  <path fill-rule="evenodd" clip-rule="evenodd" d="M32.4898 26.8802C28.2498 26.8802 27.3164 29.5468 27.3164 33.6802V50.6668H18.3831L21.0498 46.8535H9.63643C8.58211 46.8608 7.56697 46.4544 6.80908 45.7214C6.05118 44.9885 5.611 43.9875 5.5831 42.9335V17.5468C5.57588 16.4456 6.00287 15.3858 6.77155 14.5972C7.54022 13.8085 8.58868 13.3545 9.68976 13.3335H32.8898C32.4647 14.6975 32.2489 16.1181 32.2498 17.5468C32.2405 20.9557 33.4298 24.2594 35.6098 26.8802H32.4898Z" fill="#737373"/>
  <path fill-rule="evenodd" clip-rule="evenodd" d="M29.8763 54.1602H50.063V55.3335C50.0492 55.8133 49.9409 56.2857 49.7445 56.7237C49.548 57.1617 49.2671 57.5566 48.918 57.886C48.5688 58.2154 48.1581 58.4727 47.7094 58.6433C47.2607 58.8139 46.7828 58.8944 46.303 58.8802H33.663C32.6913 58.909 31.7478 58.5522 31.0383 57.8876C30.3288 57.2231 29.9111 56.3049 29.8763 55.3335V54.1602Z" fill="#737373"/>
</svg>
