<svg width="31" height="31" viewBox="0 0 31 31" fill="none" xmlns="http://www.w3.org/2000/svg">
<path fill-rule="evenodd" clip-rule="evenodd" d="M14.0035 2.00005H25.0053C26.1406 2.00005 27.0522 2.42225 27.6447 3.44966C27.8806 3.85998 28.0031 4.32762 27.9999 4.8033V19.793C27.9999 20.1203 27.9721 20.1376 27.6748 20.0095C27.4369 19.9068 27.1992 19.8021 26.9614 19.6975C26.4158 19.4577 25.8699 19.218 25.3206 18.9994C24.9994 18.8761 24.9197 18.6818 24.9212 18.3519C24.9282 16.489 24.9259 14.6261 24.9235 12.7627C24.9223 11.8309 24.9212 10.8989 24.9212 9.96682V9.90354C24.9215 9.62069 24.9218 9.49203 24.8583 9.435C24.7895 9.37289 24.6463 9.39458 24.3478 9.39458H3.4872C3.05019 9.39458 3.04901 9.39458 3.04901 9.85006V24.3779C3.04901 24.5875 3.04901 24.7054 3.08947 24.7719C3.14114 24.8576 3.25984 24.8579 3.5306 24.8579C9.20186 24.8579 14.8725 24.8551 20.5428 24.8492C20.9607 24.8492 21.1919 24.9452 21.3437 25.3724C21.5285 25.8945 21.7471 26.404 21.9654 26.9136L22.1377 27.317C22.1828 27.4237 22.2277 27.5306 22.272 27.6379C22.4117 27.9764 22.3925 27.9995 22.0314 27.9995H2.81399C2.15966 28.0123 1.52217 27.7861 1.01608 27.3619C0.509694 26.9379 0.168067 26.3434 0.0520287 25.6849C0.020437 25.4722 0.00891338 25.2572 0.0183652 25.0426C0.0177754 21.796 0.0227962 18.5496 0.023386 15.3033C0.0242631 11.885 0.0204371 8.46671 5.13563e-05 5.04842C-0.00820576 3.54711 0.979169 1.99025 3.00325 2.00005C4.23453 2.006 5.46609 2.00778 6.69767 2.00747C7.91064 2.00747 9.12391 2.00569 10.3369 2.00391C11.5593 2.00183 12.7814 2.00005 14.0035 2.00005ZM8.5118 5.93797C8.51772 5.7909 8.49379 5.64413 8.44154 5.50716C8.38898 5.3699 8.30955 5.24541 8.20768 5.14143C8.10581 5.03713 7.98386 4.95602 7.84981 4.90254C7.77925 4.87432 7.70602 4.85411 7.63132 4.84222C7.56429 4.83153 7.49638 4.82766 7.42817 4.83034C7.28437 4.82469 7.14087 4.84906 7.00682 4.90283C6.87277 4.95632 6.75082 5.03772 6.64895 5.14171C6.54738 5.24571 6.46765 5.3702 6.4151 5.50716C6.36284 5.64443 6.33863 5.7909 6.34452 5.93797C6.33212 6.09039 6.35103 6.24401 6.39974 6.38869C6.44846 6.5334 6.52612 6.6662 6.62769 6.7788C6.72896 6.89141 6.8524 6.98113 6.9894 7.04264C7.06233 7.07533 7.13822 7.09969 7.21616 7.11543C7.25898 7.12405 7.30238 7.1297 7.34608 7.13296C7.37207 7.13504 7.39835 7.13594 7.42463 7.13594C7.57434 7.13594 7.72255 7.10415 7.85955 7.04264C7.99685 6.98113 8.11999 6.89141 8.22157 6.7788C8.28357 6.70987 8.33671 6.63351 8.37983 6.55152C8.40699 6.49922 8.43032 6.44485 8.44921 6.38869C8.45718 6.36464 8.46458 6.34056 8.47106 6.3162C8.47667 6.29392 8.482 6.27163 8.48641 6.24906C8.5068 6.14715 8.513 6.04226 8.50473 5.93797H8.5118ZM2.98996 5.94777C2.99233 6.24757 3.11102 6.53399 3.31977 6.74464C3.52853 6.95529 3.81051 7.07265 4.10372 7.07146C4.39013 7.0569 4.6603 6.93181 4.85962 6.72147C4.94878 6.62758 5.02083 6.51973 5.07368 6.40326C5.13894 6.25856 5.17496 6.10021 5.17762 5.93797C5.17585 5.79151 5.14544 5.6465 5.08844 5.51221C5.03146 5.37763 4.94878 5.2558 4.84543 5.15419C4.7421 5.05259 4.61986 4.97295 4.4861 4.91977C4.40637 4.88827 4.32369 4.86659 4.23955 4.85501C4.18226 4.84699 4.12439 4.84371 4.06623 4.84519C4.02784 4.8449 3.98945 4.84668 3.95137 4.85055C3.84861 4.86094 3.74763 4.88649 3.65166 4.92691C3.52027 4.98187 3.40098 5.06328 3.30058 5.16638C3.2002 5.26917 3.12106 5.39158 3.06792 5.52618C3.01447 5.66078 2.9879 5.80517 2.98996 5.95016V5.94777ZM11.8617 5.76328C11.8496 5.67741 11.8274 5.59303 11.7955 5.51251C11.7418 5.37732 11.662 5.25492 11.5608 5.15241C11.4592 5.0496 11.3387 4.96939 11.2059 4.91591C11.1515 4.89392 11.0957 4.87669 11.039 4.86452C10.9569 4.84668 10.8731 4.83895 10.7886 4.84163C10.5008 4.84253 10.2247 4.95929 10.0201 5.16638C9.81543 5.37376 9.6988 5.65483 9.69555 5.94898C9.69821 6.24994 9.8172 6.53725 10.026 6.7491C10.235 6.96064 10.5173 7.07979 10.8117 7.08008C11.1004 7.07235 11.3745 6.94756 11.5735 6.73335C11.6966 6.60084 11.7849 6.44039 11.8324 6.26718C11.8614 6.16111 11.8752 6.05029 11.8723 5.93797C11.8735 5.87945 11.8699 5.82091 11.8617 5.76328Z" fill="#A2A2A2"/>
<path d="M23.9709 20C24.1241 20.0026 24.2752 20.0403 24.4149 20.1114C26.158 20.9443 27.9013 21.7766 29.6447 22.6077C30.5029 23.0193 30.6386 23.8498 29.9795 24.6037L29.9599 24.6271C29.7677 24.8779 29.3984 25.0644 29.4019 25.3605C29.4019 25.6347 29.7587 25.8302 29.9553 26.0616C30.0687 26.1962 30.1867 26.3272 30.3046 26.458C30.4253 26.5919 30.5464 26.726 30.6628 26.865C30.7682 26.9792 30.8521 27.1161 30.91 27.2671C30.9498 27.3713 30.9768 27.4808 30.9904 27.593C30.9963 27.6432 30.9995 27.6942 30.9999 27.7454C31.0017 27.91 30.9741 28.0733 30.919 28.2258C30.8637 28.3781 30.7825 28.5167 30.6793 28.6337C30.576 28.7501 30.4533 28.8429 30.3181 28.9056C30.183 28.9688 30.038 29.0006 29.8915 29C29.8374 28.9997 29.7835 28.995 29.7301 28.9859C29.6394 28.9706 29.5505 28.9426 29.4656 28.9023C29.3308 28.8378 29.2085 28.7445 29.1062 28.6268C28.936 28.4459 28.7683 28.2622 28.6025 28.0764C28.3828 27.8303 28.1673 27.5798 27.9559 27.3268C27.8051 27.1494 27.7015 27.1559 27.5602 27.3268C27.3887 27.5427 27.2011 27.7444 27.0137 27.9449C26.4385 28.5583 25.6895 28.4105 25.3743 27.5933C25.1687 27.0592 24.9644 26.5239 24.7611 25.9879L24.358 24.9229C24.0142 24.0129 23.6721 23.1014 23.3288 22.1914L23.2523 21.9927L23.2044 21.8694C23.1801 21.8066 23.1564 21.7435 23.1336 21.6804C23.1022 21.5929 23.0729 21.5048 23.0469 21.4152C23.0261 21.3428 23.0119 21.2684 23.0051 21.1935C22.9965 21.0991 22.9988 21.0036 23.0122 20.9093C23.0365 20.74 23.0963 20.5797 23.1866 20.4414C23.2278 20.378 23.2749 20.3203 23.327 20.2688C23.361 20.2353 23.3968 20.2046 23.4345 20.177C23.4656 20.1541 23.498 20.1331 23.5314 20.1144C23.6676 20.0376 23.8182 19.9986 23.9709 20Z" fill="#A2A2A2"/>
<path fill-rule="evenodd" clip-rule="evenodd" d="M12.1631 21.839C12.2126 22.0342 12.2816 22.2238 12.3689 22.4043C12.4269 22.5084 12.5046 22.5992 12.5972 22.6714C12.6901 22.7438 12.796 22.7956 12.9087 22.8245C13.3235 22.9354 13.7488 22.994 14.1753 22.9995C14.4575 23.0035 14.7403 22.9839 15.0207 22.9412C15.2703 22.9087 15.4731 22.8167 15.6162 22.6557C15.7231 22.5353 15.7968 22.3762 15.8324 22.1745C15.8488 22.0822 15.875 21.9931 15.9013 21.9029L15.9266 21.8161C16.0089 21.5162 16.1856 21.2533 16.4291 21.0701C16.5697 20.9645 16.7277 20.889 16.894 20.8462C17.0156 20.8149 17.1419 20.8013 17.2688 20.8066C17.4967 20.8203 17.7217 20.8653 17.9379 20.9408C18.4038 21.0804 18.7144 20.8857 18.9735 20.5139C19.2943 20.0393 19.5597 19.5261 19.7627 18.9862C19.8507 18.7906 19.8799 18.5721 19.8463 18.3593C19.813 18.1463 19.7184 17.9489 19.5751 17.7926C19.5345 17.7485 19.4987 17.7022 19.4638 17.6555C19.4327 17.6143 19.4022 17.5728 19.3692 17.532C19.1766 17.2901 19.062 16.9916 19.0413 16.6785C19.0207 16.3653 19.095 16.0535 19.2543 15.7867C19.4152 15.5472 19.5937 15.3205 19.7876 15.1085C19.8793 15.0041 19.9443 14.8771 19.9767 14.7396C19.9989 14.6453 20.0053 14.5484 19.9957 14.4527C19.9913 14.4087 19.9836 14.3649 19.9726 14.3219C19.7821 13.5617 19.4061 12.8654 18.8802 12.3001C18.786 12.1898 18.6647 12.1078 18.5294 12.0625C18.3945 12.0174 18.2502 12.0103 18.1115 12.0424L18.0506 12.054C17.8896 12.0836 17.7284 12.1133 17.5652 12.1334C17.3259 12.1727 17.0806 12.1503 16.8517 12.068C16.6227 11.9859 16.4166 11.8466 16.2516 11.6621C16.123 11.5231 16.0294 11.3636 15.9514 11.1957C15.8841 11.0508 15.8283 10.8997 15.7714 10.7506C15.7184 10.5901 15.6245 10.4472 15.4998 10.3376C15.4315 10.278 15.3556 10.2293 15.2746 10.1927C15.2072 10.1622 15.1357 10.1402 15.062 10.1276C14.4121 9.99659 13.7471 9.96613 13.0883 10.0378C12.6728 10.0793 12.3726 10.2822 12.2434 10.7091C12.2069 10.8433 12.1619 10.9775 12.1139 11.1117C12.0229 11.4005 11.841 11.6491 11.5972 11.8174C11.3535 11.9856 11.0622 12.0638 10.7705 12.0394C10.5334 12.0151 10.2976 11.9756 10.0652 11.9214C9.92656 11.8906 9.78247 11.8997 9.64822 11.9467C9.51429 11.9941 9.39464 12.0781 9.30291 12.1898C8.88555 12.6949 8.55294 13.269 8.31904 13.8881C8.25334 14.031 8.21905 14.1876 8.21905 14.3461C8.21905 14.5047 8.25334 14.6609 8.31904 14.8039C8.41932 14.9775 8.53548 15.1406 8.66593 15.2913C8.74846 15.3941 8.81731 15.507 8.87159 15.6269C8.93063 15.7582 8.97219 15.8978 8.99442 16.0421C9.03726 16.3187 9.00711 16.6016 8.90808 16.8619C8.79415 17.1994 8.55866 17.435 8.32507 17.6698L8.29459 17.6998C8.16034 17.8247 8.06608 17.9887 8.02419 18.1705C8.00515 18.2529 7.99753 18.3369 8.0007 18.4205C8.00452 18.5217 8.02451 18.6221 8.06037 18.7174C8.24731 19.3061 8.52343 19.8596 8.87825 20.3582C9.17469 20.7809 9.53968 20.9891 10.0573 20.8292C10.1608 20.7972 10.2696 20.7798 10.3757 20.7583C11.2119 20.5797 11.9041 20.9997 12.1631 21.839ZM12.8308 18.0868C12.6332 17.921 12.4698 17.7154 12.3506 17.4823C12.2174 17.2577 12.1297 17.0072 12.0933 16.7462C12.0711 16.5886 12.0679 16.4294 12.0831 16.272C12.0933 16.1683 12.1114 16.0655 12.1377 15.9644C12.2037 15.7099 12.3193 15.4716 12.4773 15.2651C12.6351 15.0584 12.8321 14.8872 13.0563 14.7624C13.2778 14.6065 13.5282 14.4997 13.7917 14.4492C14.0547 14.3986 14.3255 14.4051 14.5861 14.4683C14.847 14.5313 15.0923 14.6498 15.3068 14.8158C15.5214 14.9822 15.7004 15.1929 15.8327 15.4343C15.965 15.6758 16.0479 15.943 16.0757 16.2191C16.1037 16.4957 16.0764 16.7747 15.9952 17.0396C15.914 17.3044 15.781 17.5488 15.6045 17.7576C15.4278 17.9663 15.2116 18.1352 14.969 18.2529C14.7498 18.3865 14.5066 18.4723 14.2543 18.5057C14.0677 18.5303 13.879 18.5261 13.6945 18.4931C13.6294 18.4815 13.5651 18.4662 13.5012 18.4474C13.2569 18.3754 13.0287 18.2525 12.8308 18.0868Z" fill="#A2A2A2"/>
</svg>
