<svg width="25" height="24" viewBox="0 0 25 24" fill="none" xmlns="http://www.w3.org/2000/svg">
<path d="M11.07 2.26559C10.9515 2.3841 10.8862 2.53434 10.8862 2.68879C10.8862 2.89341 11.0085 3.05218 11.7243 3.77778L12.5624 4.62719H8.48518C8.47354 4.08974 8.44567 3.63377 8.40155 3.48655C8.35259 3.3232 8.16692 3.02756 7.9889 2.82954C7.49816 2.2837 7.26847 2.22995 5.46393 2.23916C4.59969 2.24357 3.84992 2.28191 3.69922 2.32936C3.33179 2.44519 2.70509 3.09411 2.59242 3.47547C2.46919 3.89247 2.46919 6.55975 2.59242 6.97675C2.71393 7.38798 3.33411 8.00815 3.74534 8.12966C4.23091 8.2731 6.87356 8.25238 7.31594 8.10166C7.73945 7.95732 8.27114 7.40101 8.40155 6.96567C8.44567 6.81845 8.47354 6.36248 8.48518 5.82503H12.5624L11.7243 6.67444C11.0085 7.40004 10.8862 7.55882 10.8862 7.76343C10.8862 8.08625 11.1728 8.37043 11.4983 8.37043C11.7162 8.37043 11.9008 8.21253 13.1862 6.92718C14.5018 5.61158 14.6295 5.46103 14.6295 5.22611C14.6295 4.99119 14.5018 4.84064 13.1862 3.52504C11.9008 2.23969 11.7162 2.08179 11.4983 2.08179C11.3385 2.08179 11.1901 2.14543 11.07 2.26559Z" fill="black"/>
<path d="M22.3162 10.6518C22.1977 10.5333 22.0474 10.468 21.893 10.468C21.6884 10.468 21.5296 10.5903 20.804 11.3061L19.9546 12.1442V8.06697C20.492 8.05533 20.948 8.02745 21.0952 7.98335C21.2586 7.93438 21.5542 7.74872 21.7523 7.57068C22.2981 7.07995 22.3518 6.85027 22.3426 5.04573C22.3382 4.18148 22.2999 3.43172 22.2524 3.28102C22.1366 2.91358 21.4877 2.28688 21.1063 2.17422C20.6893 2.05098 18.022 2.05098 17.605 2.17422C17.1938 2.29571 16.5736 2.9159 16.4521 3.32713C16.3087 3.81271 16.3294 6.45535 16.4801 6.89774C16.6245 7.32125 17.1808 7.85292 17.6161 7.98335C17.7633 8.02745 18.2193 8.05533 18.7568 8.06697V12.1442L17.9073 11.3061C17.1818 10.5903 17.023 10.468 16.8184 10.468C16.4955 10.468 16.2114 10.7546 16.2114 11.0801C16.2114 11.298 16.3693 11.4826 17.6546 12.768C18.9702 14.0835 19.1208 14.2113 19.3557 14.2113C19.5906 14.2113 19.7412 14.0835 21.0568 12.768C22.3421 11.4826 22.5 11.298 22.5 11.0801C22.5 10.9203 22.4364 10.7719 22.3162 10.6518Z" fill="black"/>
<path d="M13.9647 21.3115C13.9647 21.4659 13.8994 21.6162 13.7809 21.7347C13.6608 21.8548 13.5125 21.9185 13.3526 21.9185C13.1348 21.9185 12.9502 21.7606 11.6647 20.4752C10.3492 19.1596 10.2215 19.0091 10.2215 18.7741C10.2215 18.5392 10.3492 18.3887 11.6647 17.0731C12.9502 15.7877 13.1348 15.6298 13.3526 15.6298C13.6781 15.6298 13.9647 15.914 13.9647 16.2368C13.9647 16.4414 13.8425 16.6002 13.1266 17.3258L12.2886 18.1752H16.3658C16.3774 17.6378 16.4053 17.1818 16.4494 17.0346C16.5798 16.5992 17.1115 16.0429 17.535 15.8986C17.9774 15.7479 20.6201 15.7272 21.1056 15.8706C21.5169 15.9921 22.137 16.6123 22.2585 17.0235C22.3818 17.4405 22.3818 20.1078 22.2585 20.5248C22.1459 20.9061 21.5192 21.5551 21.1517 21.6709C21.001 21.7183 20.2513 21.7567 19.387 21.7611C17.5825 21.7703 17.3528 21.7166 16.8621 21.1707C16.684 20.9727 16.4984 20.6771 16.4494 20.5137C16.4053 20.3665 16.3774 19.9105 16.3658 19.3731H12.2886L13.1266 20.2225C13.8425 20.9481 13.9647 21.1069 13.9647 21.3115Z" fill="black"/>
<path d="M2.68379 13.3484C2.8023 13.467 2.95256 13.5322 3.107 13.5322C3.31161 13.5322 3.4704 13.41 4.19599 12.6941L5.0454 11.8561V15.9333C4.50796 15.9449 4.05199 15.9728 3.90476 16.0169C3.74141 16.0659 3.44577 16.2515 3.24775 16.4296C2.70191 16.9203 2.64816 17.15 2.65736 18.9545C2.66178 19.8188 2.70011 20.5685 2.74758 20.7192C2.86339 21.0867 3.51232 21.7134 3.89368 21.826C4.31068 21.9493 6.97796 21.9493 7.39496 21.826C7.80619 21.7045 8.42637 21.0844 8.54787 20.6731C8.69131 20.1875 8.67058 17.5449 8.51988 17.1025C8.37554 16.679 7.81921 16.1473 7.38388 16.0169C7.23665 15.9728 6.78068 15.9449 6.24324 15.9333V11.8561L7.09265 12.6941C7.81824 13.41 7.97703 13.5322 8.18164 13.5322C8.50445 13.5322 8.78864 13.2457 8.78864 12.9201C8.78864 12.7023 8.63075 12.5177 7.3454 11.2322C6.0298 9.91671 5.87925 9.78899 5.64432 9.78899C5.40939 9.78899 5.25884 9.91671 3.94324 11.2322C2.65789 12.5177 2.5 12.7023 2.5 12.9201C2.5 13.08 2.56364 13.2284 2.68379 13.3484Z" fill="black"/>
</svg>
