<svg width="24" height="24" viewBox="0 0 24 24" fill="none" xmlns="http://www.w3.org/2000/svg">
<path fill-rule="evenodd" clip-rule="evenodd" d="M21.9116 7.30639C21.7227 6.78575 20.9859 6.03349 20.2181 6.06369C19.7172 6.0562 19.3285 6.27384 18.9847 6.59386C18.9458 6.55991 13.4277 11.9847 11.1852 14.1509C11.1561 14.1646 11.1318 14.1886 11.1193 14.2221C11.1184 14.2249 11.1172 14.2282 11.1161 14.231C11.1008 14.2547 11.093 14.277 11.0912 14.2988C10.8105 15.0659 10.0346 17.2737 9.92398 17.6833C9.89552 17.8077 9.976 17.8019 10.0643 17.7792C10.8267 17.5837 13.5232 16.6611 13.5232 16.6611L13.5185 16.6558C13.5615 16.6411 13.611 16.5936 13.6954 16.5117C15.9126 14.3594 19.0624 11.3408 21.2796 9.18835C21.2893 9.17891 21.3187 9.13958 21.3436 9.09065C21.9158 8.63243 22.1405 7.93769 21.9116 7.30639Z" fill="black"/>
<path fill-rule="evenodd" clip-rule="evenodd" d="M4.34465 8.63604H11.7261V7.18858H4.34465V8.63604ZM4.34465 11.3925H8.64887V9.94499H4.34465V11.3925ZM4.34465 6.06333H15.3594V4.61587H4.34465V6.06333ZM9.80096 14.3532C9.85861 14.1372 9.96555 13.9659 10.1278 13.8093C12.6943 11.3319 15.2565 8.85041 17.8231 6.37312C17.9466 6.25404 18.0013 6.13333 17.9994 5.96305C17.9914 5.19676 17.9764 4.42983 18.0009 3.66416C18.0309 2.72587 17.2927 1.98634 16.2956 2.00019C14.3024 2.02825 12.3084 2.00858 10.3148 2.00858C8.08701 2.00858 5.85921 2.00843 3.6314 2.00897C2.96542 2.00913 2.4814 2.30324 2.17755 2.87406C2.02953 3.15225 2.00509 3.45768 2.00509 3.76443C2.00428 6.50516 2.00461 9.24588 2.00461 11.9866V14.6755C2.00461 16.5329 2.01659 18.3905 2.00009 20.2479C1.99021 21.3786 2.78813 22.0062 3.78738 22C7.94848 21.9733 12.1098 21.9888 16.2711 21.988C16.4378 21.988 16.6047 21.9953 16.7697 21.9531C17.5328 21.7578 17.994 21.1798 17.9949 20.3962C17.9975 18.2596 17.9959 16.123 17.9958 13.9863C17.9958 13.9474 17.9963 13.9083 17.9938 13.8694C17.9886 13.7855 17.9513 13.7617 17.8813 13.8201C17.8357 13.8581 17.7943 13.9009 17.7518 13.9422C16.4981 15.1592 15.2429 16.3746 13.9929 17.5951C13.826 17.758 13.6394 17.86 13.411 17.9158C12.8341 18.0568 12.2606 18.211 11.6855 18.3592C10.9295 18.5538 10.1742 18.751 9.4168 18.9406C9.02524 19.0387 8.75034 18.885 8.70218 18.5569C8.68666 18.4507 8.71898 18.3506 8.74592 18.251C9.09768 16.9517 9.45378 15.6536 9.80096 14.3532Z" fill="black"/>
</svg>
