<svg width="24" height="24" viewBox="0 0 24 24" fill="none" xmlns="http://www.w3.org/2000/svg">
<path fill-rule="evenodd" clip-rule="evenodd" d="M18.4215 3.05441C17.8095 3.16452 17.2769 3.46876 16.7911 3.98575C16.2118 4.60236 15.9579 5.31665 16.0063 6.19417C16.0489 6.96498 16.3166 7.57591 16.8444 8.1061C17.4122 8.67664 18.0294 8.95363 18.8308 8.99762C19.6854 9.04455 20.4127 8.78624 21.0084 8.22421C21.423 7.83308 21.6505 7.4885 21.829 6.98106C21.9573 6.61642 21.971 6.52144 21.9696 6.00932C21.9681 5.52591 21.9494 5.38557 21.8431 5.06331C21.6868 4.58959 21.4237 4.18489 21.0363 3.82252C20.681 3.49014 20.4014 3.32501 19.9188 3.16235C19.5208 3.0282 18.84 2.97911 18.4215 3.05441ZM3.63696 5.04098C2.88082 5.16874 2.20243 5.83743 2.04133 6.61387C2.00566 6.78571 1.99398 8.7729 2.00282 13.1517L2.0155 19.4427L2.12699 19.7191C2.34074 20.249 2.78451 20.6735 3.34365 20.8827L3.60636 20.981L20.5573 20.9563L20.8265 20.8241C21.174 20.6534 21.5112 20.3467 21.7024 20.0273C22.0094 19.5143 22 19.6854 22 14.6113V10.0126L21.5977 10.2652C21.1918 10.52 20.6261 10.7518 20.0606 10.895C19.8343 10.9523 19.5474 10.9722 18.9727 10.9705C18.2816 10.9685 18.1385 10.9539 17.7223 10.8425C17.2603 10.7188 17.2499 10.7182 17.1074 10.8033C17.0277 10.8509 15.9514 11.5239 14.7157 12.299C13.48 13.0741 12.3776 13.7396 12.266 13.778C11.8479 13.9217 11.934 13.9675 8.01103 11.5127C6.01424 10.2631 4.33063 9.19487 4.26961 9.13867C4.07553 8.95997 4.01409 8.78647 4.0341 8.47339C4.04753 8.26319 4.08339 8.14347 4.1664 8.03127C4.31374 7.83219 4.61466 7.68849 4.88418 7.68849C5.08403 7.68849 5.31712 7.82604 8.49955 9.82155C10.3705 10.9947 11.9273 11.9653 11.9591 11.9783C11.999 11.9946 15.2473 10.0026 15.607 9.74119C15.6159 9.73471 15.4824 9.56447 15.3104 9.36292C14.6023 8.5329 14.2088 7.70949 14.0516 6.72871C14.0007 6.41104 14.0076 5.52226 14.0641 5.11061C14.077 5.01653 14.0481 5.01596 8.96868 5.00962C6.15903 5.00612 3.75976 5.02026 3.63696 5.04098Z" fill="black"/>
</svg>
