<svg width="24" height="24" viewBox="0 0 24 24" fill="none" xmlns="http://www.w3.org/2000/svg">
<path fill-rule="evenodd" clip-rule="evenodd" d="M11.3457 13.2535V21.2242C11.3457 21.6526 11.005 21.9999 10.5847 21.9999H2.76121C2.34067 21.9999 2 21.6526 2 21.2242V13.2535C2 12.8252 2.34067 12.478 2.76121 12.478H5.43129V15.4596L6.67284 14.5224L7.89925 15.4596V12.478H10.5847C11.005 12.478 11.3457 12.8252 11.3457 13.2535Z" fill="black"/>
<path fill-rule="evenodd" clip-rule="evenodd" d="M22 13.2536V21.2243C22 21.6526 21.6591 22 21.239 22H13.4155C12.995 22 12.6543 21.6526 12.6543 21.2243V13.2536C12.6543 12.8252 12.995 12.478 13.4155 12.478H16.0856V15.4596L17.3272 14.5225L18.5536 15.4596V12.478H21.239C21.6591 12.478 22 12.8252 22 13.2536Z" fill="black"/>
<path fill-rule="evenodd" clip-rule="evenodd" d="M16.9176 2.77553V10.7462C16.9176 11.1746 16.5769 11.522 16.1566 11.522H8.33312C7.91277 11.522 7.57191 11.1746 7.57191 10.7462V2.77553C7.57191 2.34716 7.91277 2 8.33312 2H11.0032V4.98157L12.2448 4.04442L13.4712 4.98157V2H16.1566C16.5769 2 16.9176 2.34716 16.9176 2.77553Z" fill="black"/>
</svg>
