<svg width="24" height="24" viewBox="0 0 24 24" fill="none" xmlns="http://www.w3.org/2000/svg">
<path fill-rule="evenodd" clip-rule="evenodd" d="M5.72165 4.65315C4.26396 5.06472 2.99554 6.17593 2.33952 7.61617C2.08247 8.18041 1.99674 8.71043 2.00009 9.71343C2.00697 11.7483 2.52475 12.6931 5.50487 16.1099C6.05855 16.7446 6.66256 17.4716 6.84712 17.7253C7.01484 17.9559 7.35703 17.9608 7.53123 17.735L7.87109 17.2946L8.55933 16.4025L7.88904 15.5747C7.52043 15.1193 6.98504 14.2561 6.69947 13.6563C6.23908 12.6894 6.18003 12.3946 6.17818 11.0557C6.1765 9.85504 6.251 9.3834 6.54159 8.75422C7.02665 7.70425 8.32678 6.33751 9.31854 5.83483C9.7588 5.61185 10.1189 5.40112 10.1189 5.36672C10.1189 5.33233 9.77255 5.14139 9.34941 4.94241C8.38333 4.48839 6.76306 4.3592 5.72165 4.65315ZM15.5717 4.57413C15.0301 4.71624 13.81 5.26555 13.81 5.3674C13.81 5.40145 14.1721 5.61286 14.6147 5.83701C15.7092 6.3917 16.7944 7.51164 17.3136 8.62285C17.6754 9.39666 17.7457 9.78994 17.749 11.0587C17.7526 12.4318 17.7027 12.6721 17.2106 13.6593C16.9123 14.2574 16.3776 15.1212 16.0221 15.5787L15.3759 16.4107L16.0612 17.2986L16.3977 17.735C16.5719 17.9607 16.9141 17.9559 17.0818 17.7253C17.2663 17.4716 17.8703 16.7466 18.424 16.1143C21.3822 12.7355 22.1949 11.1364 21.9627 9.15203C21.6639 6.59824 19.6839 4.68822 17.1569 4.51591C16.562 4.4753 15.8486 4.50148 15.5717 4.57413ZM10.7453 5.94339C9.68178 6.2105 8.85798 6.72139 8.06001 7.60878C7.14762 8.62369 6.76323 9.6537 6.76323 11.0837C6.76323 12.8852 7.45617 14.2239 9.70141 16.7602C10.2734 17.4062 11.0079 18.2879 11.3338 18.7196C11.6377 19.1221 12.2365 19.139 12.5626 18.7542L13.4136 17.7503C16.5767 14.0187 17.1657 12.9548 17.1657 10.9713C17.1657 10.4507 17.0444 9.66897 16.8962 9.23408C16.5313 8.16296 15.2132 6.74924 14.1553 6.29405C13.181 5.87493 11.6463 5.71705 10.7453 5.94339ZM13.2052 8.93643C15.3895 10.1666 14.4842 13.4885 11.9644 13.4885C10.1762 13.4885 8.98549 11.7176 9.67625 10.0856C9.96768 9.39699 10.4338 8.98476 11.2403 8.70221C11.942 8.45624 12.4628 8.51832 13.2052 8.93643Z" fill="black"/>
</svg>
