<svg width="65" height="64" viewBox="0 0 65 64" fill="none" xmlns="http://www.w3.org/2000/svg">
<path fill-rule="evenodd" clip-rule="evenodd" d="M38.9415 5.35247H48.643C49.3933 5.47784 49.9406 6.13158 49.9406 6.90174V26.6661H46.1889V21.9646C46.1889 21.0959 45.5003 20.3974 44.6441 20.3974H42.4372C41.5809 20.3974 40.8923 21.0959 40.8923 21.9646V26.6661H38.0234C37.5379 26.6661 37.1406 26.2631 37.1406 25.7706V24.0181L26.4637 29.8504C26.3333 31.4485 24.9679 32.7106 23.3073 32.7106C22.2913 32.7106 21.3873 32.2389 20.8073 31.5072C20.2273 32.2389 19.3233 32.7106 18.3073 32.7106C17.2913 32.7106 16.3873 32.2389 15.8073 31.5072C15.2273 32.2389 14.322 32.7106 13.3073 32.7106C12.2926 32.7106 11.3873 32.2389 10.8073 31.5072C10.2273 32.2389 9.32196 32.7106 8.30729 32.7106C6.56063 32.7106 5.14062 31.3143 5.14062 29.5994C5.14062 29.5484 5.14729 29.4974 5.16063 29.4489L6.36729 24.9415C6.51662 24.3877 7.04996 23.9994 7.66196 23.9994H23.954C24.566 23.9994 25.0993 24.3877 25.2473 24.9415L25.8393 27.153L37.1406 20.9796V6.90174C37.1406 6.44502 37.3437 6.0062 37.6879 5.70172C38.0322 5.4062 38.4912 5.28082 38.9415 5.35247ZM40.7159 18.6958H42.1283C42.5181 18.6958 42.8345 18.3749 42.8345 17.9794C42.8345 17.584 42.5181 17.263 42.1283 17.263H40.7159C40.326 17.263 40.0097 17.584 40.0097 17.9794C40.0097 18.3749 40.326 18.6958 40.7159 18.6958ZM46.3654 18.6958H44.953C44.5632 18.6958 44.2468 18.3749 44.2468 17.9794C44.2468 17.584 44.5632 17.263 44.953 17.263H46.3654C46.7552 17.263 47.0716 17.584 47.0716 17.9794C47.0716 18.3749 46.7552 18.6958 46.3654 18.6958ZM40.7159 15.8302H42.1283C42.5181 15.8302 42.8345 15.5092 42.8345 15.1138C42.8345 14.7183 42.5181 14.3973 42.1283 14.3973H40.7159C40.326 14.3973 40.0097 14.7183 40.0097 15.1138C40.0097 15.5092 40.326 15.8302 40.7159 15.8302ZM46.3654 15.8302H44.953C44.5632 15.8302 44.2468 15.5092 44.2468 15.1138C44.2468 14.7183 44.5632 14.3973 44.953 14.3973H46.3654C46.7552 14.3973 47.0716 14.7183 47.0716 15.1138C47.0716 15.5092 46.7552 15.8302 46.3654 15.8302ZM40.7159 12.9644H42.1283C42.5181 12.9644 42.8345 12.6434 42.8345 12.248C42.8345 11.8525 42.5181 11.5315 42.1283 11.5315H40.7159C40.326 11.5315 40.0097 11.8525 40.0097 12.248C40.0097 12.6434 40.326 12.9644 40.7159 12.9644ZM46.3654 12.9644H44.953C44.5632 12.9644 44.2468 12.6434 44.2468 12.248C44.2468 11.8525 44.5632 11.5315 44.953 11.5315H46.3654C46.7552 11.5315 47.0716 11.8525 47.0716 12.248C47.0716 12.6434 46.7552 12.9644 46.3654 12.9644ZM40.7159 10.0987H42.1283C42.5181 10.0987 42.8345 9.77777 42.8345 9.3823C42.8345 8.98684 42.5181 8.66588 42.1283 8.66588H40.7159C40.326 8.66588 40.0097 8.98684 40.0097 9.3823C40.0097 9.77777 40.326 10.0987 40.7159 10.0987ZM46.3654 10.0987H44.953C44.5632 10.0987 44.2468 9.77777 44.2468 9.3823C44.2468 8.98684 44.5632 8.66588 44.953 8.66588H46.3654C46.7552 8.66588 47.0716 8.98684 47.0716 9.3823C47.0716 9.77777 46.7552 10.0987 46.3654 10.0987ZM57.2865 13.2566H51.1597V26.6661H56.9681C57.7985 26.6661 58.474 25.9475 58.474 25.0642V14.8219C58.474 14.0658 57.9895 13.4223 57.2865 13.2566ZM55.2471 22.4554H53.9564C53.6001 22.4554 53.311 22.1478 53.311 21.7688C53.311 21.3899 53.6001 21.0823 53.9564 21.0823H55.2471C55.6034 21.0823 55.8925 21.3899 55.8925 21.7688C55.8925 22.1478 55.6034 22.4554 55.2471 22.4554ZM53.9564 19.7093H55.2471C55.6034 19.7093 55.8925 19.4017 55.8925 19.0227C55.8925 18.6438 55.6034 18.3362 55.2471 18.3362H53.9564C53.6001 18.3362 53.311 18.6438 53.311 19.0227C53.311 19.4017 53.6001 19.7093 53.9564 19.7093ZM55.2471 16.7799H53.9564C53.6001 16.7799 53.311 16.4723 53.311 16.0934C53.311 15.7144 53.6001 15.4068 53.9564 15.4068H55.2471C55.6034 15.4068 55.8925 15.7144 55.8925 16.0934C55.8925 16.4723 55.6034 16.7799 55.2471 16.7799ZM25.0518 34.1688L37.1406 41.0812V38.9017C37.1406 38.445 37.3437 38.0062 37.6879 37.7017C38.0322 37.4062 38.4912 37.2808 38.9415 37.3525H48.643C49.3933 37.4778 49.9406 38.1316 49.9406 38.9017V58.6661H46.1889V53.9646C46.1889 53.0959 45.5003 52.3974 44.6441 52.3974H42.4372C41.5809 52.3974 40.8923 53.0959 40.8923 53.9646V58.6661H38.0234C37.5379 58.6661 37.1406 58.2631 37.1406 57.7706V44.1529L25.0518 37.2405V41.1549C25.0518 41.9891 24.4601 42.6661 23.7311 42.6661H18.4486V36.6214H13.166V42.6661H7.88351C7.15452 42.6661 6.56287 41.9891 6.56287 41.1549V33.1291C7.11886 33.4253 7.73031 33.5991 8.37875 33.5991C9.2781 33.5991 10.1325 33.2848 10.8549 32.7105C12.2997 33.8605 14.3625 33.8605 15.8073 32.7105C17.2521 33.8605 19.3149 33.8605 20.7597 32.7105C21.4821 33.2848 22.3365 33.5991 23.2359 33.5991C23.8843 33.5991 24.4958 33.4253 25.0518 33.1291V34.1688ZM42.1283 50.6958H40.7159C40.326 50.6958 40.0097 50.3749 40.0097 49.9794C40.0097 49.584 40.326 49.263 40.7159 49.263H42.1283C42.5181 49.263 42.8345 49.584 42.8345 49.9794C42.8345 50.3749 42.5181 50.6958 42.1283 50.6958ZM44.953 50.6958H46.3654C46.7552 50.6958 47.0716 50.3749 47.0716 49.9794C47.0716 49.584 46.7552 49.263 46.3654 49.263H44.953C44.5632 49.263 44.2468 49.584 44.2468 49.9794C44.2468 50.3749 44.5632 50.6958 44.953 50.6958ZM42.1283 47.8302H40.7159C40.326 47.8302 40.0097 47.5092 40.0097 47.1138C40.0097 46.7183 40.326 46.3973 40.7159 46.3973H42.1283C42.5181 46.3973 42.8345 46.7183 42.8345 47.1138C42.8345 47.5092 42.5181 47.8302 42.1283 47.8302ZM44.953 47.8302H46.3654C46.7552 47.8302 47.0716 47.5092 47.0716 47.1138C47.0716 46.7183 46.7552 46.3973 46.3654 46.3973H44.953C44.5632 46.3973 44.2468 46.7183 44.2468 47.1138C44.2468 47.5092 44.5632 47.8302 44.953 47.8302ZM42.1283 44.9644H40.7159C40.326 44.9644 40.0097 44.6434 40.0097 44.248C40.0097 43.8525 40.326 43.5316 40.7159 43.5316H42.1283C42.5181 43.5316 42.8345 43.8525 42.8345 44.248C42.8345 44.6434 42.5181 44.9644 42.1283 44.9644ZM44.953 44.9644H46.3654C46.7552 44.9644 47.0716 44.6434 47.0716 44.248C47.0716 43.8525 46.7552 43.5316 46.3654 43.5316H44.953C44.5632 43.5316 44.2468 43.8525 44.2468 44.248C44.2468 44.6434 44.5632 44.9644 44.953 44.9644ZM42.1283 42.0987H40.7159C40.326 42.0987 40.0097 41.7778 40.0097 41.3823C40.0097 40.9868 40.326 40.6659 40.7159 40.6659H42.1283C42.5181 40.6659 42.8345 40.9868 42.8345 41.3823C42.8345 41.7778 42.5181 42.0987 42.1283 42.0987ZM44.953 42.0987H46.3654C46.7552 42.0987 47.0716 41.7778 47.0716 41.3823C47.0716 40.9868 46.7552 40.6659 46.3654 40.6659H44.953C44.5632 40.6659 44.2468 40.9868 44.2468 41.3823C44.2468 41.7778 44.5632 42.0987 44.953 42.0987ZM51.1597 45.2566H57.2865C57.9895 45.4223 58.474 46.0658 58.474 46.8219V57.0642C58.474 57.9475 57.7985 58.6661 56.9681 58.6661H51.1597V45.2566ZM53.9564 54.4554H55.2471C55.6034 54.4554 55.8925 54.1478 55.8925 53.7688C55.8925 53.3899 55.6034 53.0823 55.2471 53.0823H53.9564C53.6001 53.0823 53.311 53.3899 53.311 53.7688C53.311 54.1478 53.6001 54.4554 53.9564 54.4554ZM55.2471 51.7093H53.9564C53.6001 51.7093 53.311 51.4017 53.311 51.0227C53.311 50.6438 53.6001 50.3362 53.9564 50.3362H55.2471C55.6034 50.3362 55.8925 50.6438 55.8925 51.0227C55.8925 51.4017 55.6034 51.7093 55.2471 51.7093ZM53.9564 48.7799H55.2471C55.6034 48.7799 55.8925 48.4723 55.8925 48.0934C55.8925 47.7144 55.6034 47.4068 55.2471 47.4068H53.9564C53.6001 47.4068 53.311 47.7144 53.311 48.0934C53.311 48.4723 53.6001 48.7799 53.9564 48.7799Z" fill="#737373"/>
</svg>
