<svg width="25" height="24" viewBox="0 0 25 24" fill="none" xmlns="http://www.w3.org/2000/svg">
<path d="M8.35286 8.33577L8.2263 9.22063H7.19579L7.32235 8.33547L8.35286 8.33577Z" fill="#424242"/>
<path fill-rule="evenodd" clip-rule="evenodd" d="M19.9368 10.3333C19.9368 5.73096 16.2058 2 11.6034 2H5.79389C5.08546 2 4.50818 2.56125 4.50818 3.25V20.75C4.50818 21.44 5.08546 22 5.79389 22H18.651C19.3608 22 19.9368 21.44 19.9368 20.75V10.3333ZM16.7225 19.5H7.72246C7.36761 19.5 7.07961 19.22 7.07961 18.875C7.07961 18.53 7.36761 18.25 7.72246 18.25H16.7225C17.0773 18.25 17.3653 18.53 17.3653 18.875C17.3653 19.22 17.0773 19.5 16.7225 19.5ZM7.72246 17.2143H16.7225C17.0773 17.2143 17.3653 16.9343 17.3653 16.5893C17.3653 16.2443 17.0773 15.9643 16.7225 15.9643H7.72246C7.36761 15.9643 7.07961 16.2443 7.07961 16.5893C7.07961 16.9343 7.36761 17.2143 7.72246 17.2143ZM8.9549 7.25941C8.96322 7.20131 8.94806 7.14229 8.91276 7.09534C8.87746 7.04839 8.82492 7.01735 8.76669 7.00906C8.70846 7.00076 8.64931 7.01589 8.60226 7.05111C8.55521 7.08633 8.5241 7.13875 8.51579 7.19686L8.41614 7.89319H7.38563L7.47611 7.26029C7.48136 7.23104 7.48065 7.20103 7.47403 7.17206C7.4674 7.14309 7.455 7.11574 7.43755 7.09166C7.4201 7.06757 7.39797 7.04724 7.37248 7.03188C7.34699 7.01651 7.31866 7.00643 7.28918 7.00222C7.25969 6.99802 7.22966 6.99979 7.20088 7.00742C7.17209 7.01505 7.14514 7.02838 7.12164 7.04663C7.09813 7.06488 7.07855 7.08766 7.06406 7.11362C7.04957 7.13959 7.04047 7.16819 7.0373 7.19774L6.93735 7.89289H6.51746C6.45864 7.89285 6.40222 7.91613 6.3606 7.9576C6.31898 7.99907 6.29558 8.05534 6.29554 8.11403C6.2955 8.17272 6.31882 8.22903 6.36039 8.27055C6.40195 8.31208 6.45834 8.33543 6.51716 8.33547H6.87407L6.74751 9.22063H6.22176C6.16294 9.22063 6.10653 9.24395 6.06494 9.28545C6.02335 9.32695 5.99998 9.38324 5.99998 9.44193C5.99998 9.50062 6.02335 9.5569 6.06494 9.5984C6.10653 9.6399 6.16294 9.66322 6.22176 9.66322H6.68453L6.59404 10.2958C6.58993 10.3246 6.59153 10.3539 6.59876 10.382C6.60599 10.4102 6.61871 10.4366 6.63619 10.4599C6.65366 10.4831 6.67556 10.5027 6.70062 10.5175C6.72568 10.5323 6.75342 10.5421 6.78226 10.5462C6.81109 10.5503 6.84045 10.5487 6.86866 10.5415C6.89688 10.5342 6.92339 10.5216 6.94669 10.5041C6.96998 10.4867 6.98961 10.4648 7.00445 10.4398C7.01929 10.4148 7.02904 10.3871 7.03316 10.3584L7.13251 9.66322H8.16302L8.07254 10.2958C8.06842 10.3246 8.07003 10.3539 8.07726 10.382C8.08449 10.4102 8.0972 10.4366 8.11468 10.4599C8.13216 10.4831 8.15405 10.5027 8.17912 10.5175C8.20418 10.5323 8.23192 10.5421 8.26075 10.5462C8.28958 10.5503 8.31894 10.5487 8.34716 10.5415C8.37537 10.5342 8.40188 10.5216 8.42518 10.5041C8.44848 10.4867 8.46811 10.4648 8.48294 10.4398C8.49778 10.4148 8.50754 10.3871 8.51165 10.3584L8.6113 9.66322H9.0309C9.08972 9.66322 9.14613 9.6399 9.18772 9.5984C9.22931 9.5569 9.25267 9.50062 9.25267 9.44193C9.25267 9.38324 9.22931 9.32695 9.18772 9.28545C9.14613 9.24395 9.08972 9.22063 9.0309 9.22063H8.67429L8.80084 8.33547L9.3266 8.33577C9.38542 8.33577 9.44182 8.31245 9.48342 8.27095C9.52501 8.22945 9.54837 8.17317 9.54837 8.11448C9.54837 8.05579 9.52501 7.9995 9.48342 7.958C9.44182 7.9165 9.38542 7.89319 9.3266 7.89319H8.86412L8.9549 7.25941ZM11.3226 7.35469C11.3226 7.21117 11.2361 7.08179 11.1035 7.02686C10.9709 6.97194 10.8183 7.0023 10.7168 7.10378L10.0071 7.81346C9.86857 7.95203 9.86857 8.1767 10.0071 8.31528C10.1457 8.45385 10.3704 8.45385 10.509 8.31528L10.6129 8.21135V10.1934C10.6129 10.3894 10.7718 10.5482 10.9677 10.5482C11.1637 10.5482 11.3226 10.3894 11.3226 10.1934V7.35469ZM12.3871 6.99985C12.1911 6.99985 12.0322 7.15872 12.0322 7.35469C12.0322 7.55066 12.1911 7.70953 12.3871 7.70953H13.4516V8.41921H12.7419C12.5537 8.41921 12.3732 8.49398 12.2401 8.62707C12.107 8.76016 12.0322 8.94067 12.0322 9.12888V9.83856C12.0322 10.0268 12.107 10.2073 12.2401 10.3404C12.3732 10.4735 12.5537 10.5482 12.7419 10.5482H13.8064C14.0024 10.5482 14.1613 10.3894 14.1613 10.1934C14.1613 9.99743 14.0024 9.83856 13.8064 9.83856H12.7419V9.12888H13.4516C13.6398 9.12888 13.8203 9.05411 13.9534 8.92102C14.0865 8.78793 14.1613 8.60743 14.1613 8.41921V7.70953C14.1613 7.52131 14.0865 7.3408 13.9534 7.20771C13.8203 7.07462 13.6398 6.99985 13.4516 6.99985H12.3871ZM15.2258 7.70953H16.1129C16.1599 7.70953 16.2051 7.72822 16.2383 7.76149C16.2716 7.79477 16.2903 7.83989 16.2903 7.88695V8.24179C16.2903 8.28884 16.2716 8.33397 16.2383 8.36724C16.2051 8.40052 16.1599 8.41921 16.1129 8.41921H15.5806C15.3847 8.41921 15.2258 8.57807 15.2258 8.77405C15.2258 8.97002 15.3847 9.12888 15.5806 9.12888H16.1129C16.1599 9.12888 16.2051 9.14758 16.2383 9.18085C16.2716 9.21412 16.2903 9.25925 16.2903 9.3063V9.66114C16.2903 9.7082 16.2716 9.75332 16.2383 9.7866C16.2051 9.81987 16.1599 9.83856 16.1129 9.83856H15.2258C15.0298 9.83856 14.871 9.99743 14.871 10.1934C14.871 10.3894 15.0298 10.5482 15.2258 10.5482H16.1129C16.3482 10.5482 16.5738 10.4548 16.7402 10.2884C16.9065 10.1221 17 9.89642 17 9.66114V9.3063C17 9.11326 16.9371 8.9267 16.8226 8.77405C16.9371 8.6214 17 8.43484 17 8.24179V7.88695C17 7.65168 16.9065 7.42604 16.7402 7.25968C16.5738 7.09331 16.3482 6.99985 16.1129 6.99985H15.2258C15.0298 6.99985 14.871 7.15872 14.871 7.35469C14.871 7.55066 15.0298 7.70953 15.2258 7.70953Z" fill="#424242"/>
</svg>
