<svg width="24" height="24" viewBox="0 0 24 24" fill="none" xmlns="http://www.w3.org/2000/svg">
<path d="M11.5398 9.98296C10.9639 9.98296 10.4965 9.51558 10.4965 8.93969C10.4965 8.36381 10.9639 7.89642 11.5398 7.89642C12.1157 7.89642 12.5831 8.36381 12.5831 8.93969C12.5831 9.51558 12.1157 9.98296 11.5398 9.98296Z" fill="black"/>
<path fill-rule="evenodd" clip-rule="evenodd" d="M11.3811 2C15.9835 2 19.7145 5.73096 19.7145 10.3333V20.75C19.7145 21.44 19.1385 22 18.4287 22H5.5716C4.86317 22 4.28589 21.44 4.28589 20.75V3.25C4.28589 2.56125 4.86317 2 5.5716 2H11.3811ZM7.50017 19.5H16.5002C16.855 19.5 17.143 19.22 17.143 18.875C17.143 18.53 16.855 18.25 16.5002 18.25H7.50017C7.14532 18.25 6.85732 18.53 6.85732 18.875C6.85732 19.22 7.14532 19.5 7.50017 19.5ZM16.5002 17.2143H7.50017C7.14532 17.2143 6.85732 16.9343 6.85732 16.5893C6.85732 16.2443 7.14532 15.9643 7.50017 15.9643H16.5002C16.855 15.9643 17.143 16.2443 17.143 16.5893C17.143 16.9343 16.855 17.2143 16.5002 17.2143ZM14.9562 8.32207L14.1229 8.11759C14.077 7.97154 14.0186 7.82965 13.9477 7.69194L14.3733 6.98251C14.4234 6.89905 14.4109 6.79472 14.3441 6.72795L13.7515 6.13538C13.6848 6.06861 13.5804 6.05609 13.497 6.10616L12.7876 6.53182C12.6498 6.46088 12.508 6.40245 12.3619 6.35655L12.1616 5.52332C12.1366 5.43152 12.0531 5.36475 11.9571 5.36475H11.1225C11.0265 5.36475 10.943 5.43152 10.918 5.52332L10.7177 6.35655C10.5716 6.40245 10.4298 6.46088 10.292 6.53182L9.58262 6.10616C9.49916 6.05609 9.39483 6.06861 9.32806 6.13538L8.73549 6.72795C8.66872 6.79472 8.6562 6.89905 8.70627 6.98251L9.13193 7.69194C9.06099 7.82965 9.00256 7.97154 8.95666 8.11759L8.15125 8.32207C8.05945 8.34294 7.99268 8.4264 7.99268 8.52238V9.357C7.99268 9.45298 8.05945 9.53644 8.15125 9.55731L8.95666 9.76179C9.00256 9.90785 9.06099 10.0497 9.13193 10.1874L8.70627 10.8969C8.6562 10.9803 8.66872 11.0847 8.73549 11.1514L9.32806 11.744C9.39483 11.8108 9.49916 11.8233 9.58262 11.7732L10.292 11.3476C10.4298 11.4185 10.5716 11.4769 10.7177 11.5228L10.918 12.3282C10.943 12.42 11.0265 12.4868 11.1225 12.4868H11.9571C12.0531 12.4868 12.1366 12.42 12.1616 12.3282L12.3619 11.5228C12.508 11.4769 12.6498 11.4185 12.7876 11.3476L13.497 11.7732C13.5804 11.8233 13.6848 11.8108 13.7515 11.744L14.3441 11.1514C14.4109 11.0847 14.4234 10.9803 14.3733 10.8969L13.9477 10.1874C14.0186 10.0497 14.077 9.90785 14.1229 9.76179L14.9562 9.55731C15.048 9.53644 15.1147 9.45298 15.1147 9.357V8.52238C15.1147 8.4264 15.048 8.34294 14.9562 8.32207Z" fill="black"/>
</svg>
