<svg width="24" height="24" viewBox="0 0 24 24" fill="none" xmlns="http://www.w3.org/2000/svg">
<path fill-rule="evenodd" clip-rule="evenodd" d="M3.74091 18.8299C2.59997 18.8278 2 18.2058 2 17.0071V7.02576C2 5.84185 2.61397 5.17545 3.72991 5.17439C9.22964 5.16876 14.7294 5.16876 20.2291 5.17439C21.384 5.17439 22 5.84608 22 7.04582V16.9733C22 18.1994 21.4 18.8289 20.2401 18.8299H3.74091ZM13.8804 16.0515C15.5495 16.0463 17.2175 16.0412 18.8805 16.0692C19.7166 16.083 19.988 15.8865 19.867 15.3585C19.8522 15.2884 19.8522 15.2173 19.867 15.1473C19.9741 14.6519 19.6747 14.503 18.9363 14.5062C15.6516 14.5217 12.366 14.5201 9.08019 14.5186C7.87527 14.5181 6.67026 14.5175 5.46531 14.5178C4.68838 14.5178 4.35616 14.5178 4.21643 14.6947C4.11204 14.8268 4.11507 15.0576 4.12038 15.4609C4.12193 15.4789 4.12193 15.4968 4.12038 15.5148C4.03351 15.9436 4.31584 16.0724 4.93168 16.0682C6.69086 16.0498 8.44738 16.052 10.2039 16.0541C10.7722 16.0548 11.3408 16.0555 11.9092 16.0555C12.5663 16.0555 13.2234 16.0535 13.8804 16.0515ZM20.0908 8.22235V9.3017C20.0908 9.69669 20.0918 10.097 20.0948 10.4856C20.0928 10.945 19.8768 11.1921 19.4379 11.1921C18.7019 11.1974 17.9699 11.1985 17.238 11.1921C16.826 11.189 16.6 10.9577 16.595 10.5247C16.587 9.734 16.587 8.94297 16.595 8.15159C16.595 7.74393 16.808 7.50842 17.195 7.50208C17.9429 7.49258 18.6939 7.49363 19.4429 7.50208C19.8828 7.50736 20.0908 7.76611 20.0908 8.22235Z" fill="black"/>
</svg>
