<svg width="24" height="24" viewBox="0 0 24 24" fill="none" xmlns="http://www.w3.org/2000/svg">
<path d="M21.1594 3.78919C21.0541 3.89044 20.9487 3.99173 20.8455 4.09498L20.8569 4.10635C20.7532 4.21005 20.6513 4.3159 20.5493 4.4218C20.3113 4.669 20.0731 4.91641 19.8115 5.13709C19.5541 5.35064 19.2066 5.36368 18.9035 5.02696C18.6588 4.76766 18.6361 4.39548 18.8527 4.19441C19.5268 3.48352 20.2218 2.79446 20.9377 2.12723C21.1522 1.92827 21.5202 1.96668 21.7717 2.21427C22.0233 2.46185 22.0688 2.8304 21.8748 3.04948C21.6551 3.31246 21.4074 3.5507 21.1594 3.78919Z" fill="black"/>
<path fill-rule="evenodd" clip-rule="evenodd" d="M2.1052 14.9984C1.83422 14.0291 2.12561 13.2777 2.83345 12.5822C5.55109 9.91113 8.23862 7.20992 10.9166 4.49912C11.3917 4.01598 12.0169 3.70766 12.6936 3.62285C13.7173 3.46668 14.6788 3.25301 15.6398 3.03943C16.6033 2.8253 17.5664 2.61126 18.5914 2.45536C18.6654 2.44406 18.7466 2.42467 18.8305 2.40466C19.1657 2.32463 19.5426 2.23466 19.6669 2.61191C19.7848 2.97357 19.4028 3.15057 19.0674 3.30597C19.0103 3.33244 18.9545 3.35828 18.9027 3.3843C18.096 3.78854 17.9378 4.87153 18.5358 5.46953C19.1338 6.06753 20.0631 5.87803 20.4485 5.33376C20.5302 5.21873 20.5891 5.08746 20.6481 4.95603C20.7029 4.83392 20.7578 4.71167 20.831 4.60217C20.9428 4.42603 21.0998 4.21703 21.342 4.28699C21.61 4.36666 21.59 4.63588 21.5571 4.8412C21.3443 6.16498 21.0911 7.42572 20.8373 8.68945C20.6115 9.81358 20.3853 10.9401 20.1865 12.1155C20.1266 12.4684 19.8693 12.7173 19.6188 12.9597C19.5778 12.9993 19.537 13.0388 19.4973 13.0785C18.7691 13.8067 18.0399 14.5339 17.3106 15.2612C15.3418 17.2246 13.3731 19.1879 11.4244 21.1705C10.7283 21.8804 9.97618 22.1684 9.00895 21.9022L2.1052 14.9984ZM13.6924 9.25261L14.1651 8.78C14.3972 8.5479 14.7827 8.55666 15.0255 8.79956C15.2684 9.04245 15.2772 9.42795 15.0451 9.66005L14.5717 10.1335C14.7874 10.4687 14.9334 10.8366 14.9807 11.2136C15.0235 11.5491 14.7868 11.8422 14.4528 11.8681C14.118 11.8949 13.8147 11.6438 13.7736 11.31C13.7359 11.015 13.583 10.7208 13.3437 10.4814C12.8667 10.0044 12.1752 9.88982 11.8329 10.2321C11.4906 10.5743 11.6053 11.2659 12.0823 11.7428C13.053 12.7135 13.1822 14.1631 12.3707 14.9746C11.687 15.6583 10.5528 15.666 9.63114 15.074L9.15853 15.5466C8.92643 15.7787 8.54093 15.77 8.29803 15.5271C8.05514 15.2842 8.04638 14.8987 8.27848 14.6666L8.75192 14.1931C8.53617 13.858 8.3902 13.49 8.34293 13.1131C8.30088 12.7767 8.53762 12.4836 8.87159 12.4577C9.20724 12.43 9.50881 12.6812 9.55082 13.0158C9.58764 13.3116 9.74054 13.6058 9.97991 13.8452C10.4569 14.3222 11.1484 14.4368 11.4907 14.0945C11.8329 13.7523 11.7183 13.0608 11.2413 12.5838C10.2706 11.6131 10.1413 10.1635 10.9529 9.35203C11.6365 8.66834 12.7708 8.66058 13.6924 9.25261Z" fill="black"/>
</svg>
