<svg width="24" height="24" viewBox="0 0 24 24" fill="none" xmlns="http://www.w3.org/2000/svg">
<path fill-rule="evenodd" clip-rule="evenodd" d="M18.0415 2H5.95817C4.694 2 3.6665 3.0275 3.6665 4.29167V19.7083C3.6665 20.9725 4.694 22 5.95817 22H18.0415C19.3057 22 20.3332 20.9725 20.3332 19.7083V4.29167C20.3332 3.0275 19.3057 2 18.0415 2ZM12.3719 9.36091V4.72998C14.6291 5.07326 16.369 7.00971 16.369 9.36091C16.369 11.9538 14.2595 14.0633 11.6666 14.0633C10.6245 14.0633 9.66992 13.7116 8.88932 13.1351L12.165 9.85936C12.2976 9.7277 12.3719 9.54806 12.3719 9.36091ZM10.9611 9.06936V4.72998C8.70392 5.07326 6.96403 7.00971 6.96403 9.36091C6.96403 10.403 7.31577 11.3575 7.89228 12.1381L10.9611 9.06936ZM17.2082 19.7083H6.7915C6.4465 19.7083 6.1665 19.4283 6.1665 19.0833C6.1665 18.7383 6.4465 18.4583 6.7915 18.4583H17.2082C17.5532 18.4583 17.8332 18.7383 17.8332 19.0833C17.8332 19.4283 17.5532 19.7083 17.2082 19.7083ZM6.7915 17.0417H17.2082C17.5532 17.0417 17.8332 16.7617 17.8332 16.4167C17.8332 16.0717 17.5532 15.7917 17.2082 15.7917H6.7915C6.4465 15.7917 6.1665 16.0717 6.1665 16.4167C6.1665 16.7617 6.4465 17.0417 6.7915 17.0417Z" fill="black"/>
</svg>
