<svg width="25" height="24" viewBox="0 0 25 24" fill="none" xmlns="http://www.w3.org/2000/svg">
<path d="M21.5493 3.94849C22.1505 3.94849 22.5742 4.44182 22.4891 5.04642L20.5313 18.9536C20.4462 19.5582 19.8835 20.0515 19.2823 20.0515H5.41949C4.81682 20.0515 4.39451 19.5582 4.47962 18.9536L4.67381 17.5742H3.21184C2.86978 17.5742 2.59249 17.2969 2.59249 16.9548C2.59249 16.6128 2.86978 16.3355 3.21184 16.3355L8.7884 16.3354C9.13045 16.3354 9.40774 16.0581 9.40774 15.7161C9.40774 15.374 9.13045 15.0967 8.7884 15.0967H5.02258L5.02534 15.0771C4.7584 15.0083 4.5612 14.7659 4.5612 14.4774C4.5612 14.1353 4.83849 13.8581 5.18055 13.8581L11.2579 13.858C11.5999 13.858 11.8772 13.5807 11.8772 13.2387C11.8772 12.8966 11.5999 12.6193 11.2579 12.6193L3.11935 12.6193C2.77729 12.6193 2.5 12.342 2.5 11.9999C2.5 11.6579 2.77729 11.3806 3.11935 11.3806H5.54573L6.43745 5.04642C6.52256 4.44182 7.08378 3.94849 7.68645 3.94849H11.9391L11.1819 8.2432L14.0613 6.81817L16.5471 8.2432L17.3043 3.94849H21.5493Z" fill="black"/>
</svg>
