<svg width="24" height="24" viewBox="0 0 24 24" fill="none" xmlns="http://www.w3.org/2000/svg">
<path fill-rule="evenodd" clip-rule="evenodd" d="M11.1151 5.74554C9.99999 6.04575 9.1936 6.9155 8.89003 8.14536C8.72992 8.79414 8.72981 8.91294 8.88796 9.55379C9.28023 11.1436 10.4191 12.0578 12.0072 12.0578C13.3009 12.0578 14.2882 11.4561 14.8223 10.3424C15.2548 9.44053 15.3233 8.91207 15.1136 8.09384C14.8021 6.8779 13.9928 6.03586 12.8504 5.73956C12.1686 5.56272 11.7894 5.56403 11.1151 5.74554ZM5.21395 7.5969C5.15417 7.62016 4.9695 7.66929 4.80363 7.70591C4.38625 7.79809 3.64389 8.49437 3.40596 9.01696C2.93815 10.0442 3.33368 11.4229 4.26582 12.0139C5.51144 12.8039 7.05943 12.4097 7.74506 11.1279C7.96071 10.7247 7.99614 10.5232 7.96538 9.87672C7.92093 8.94131 7.59094 8.36176 6.85792 7.93221C6.42304 7.67733 5.4935 7.48777 5.21395 7.5969ZM17.4418 7.94025C16.5491 8.32698 16.0288 9.1437 16.0288 10.1582C16.0288 11.5661 17.0265 12.5529 18.4437 12.5471C19.7854 12.5415 20.8085 11.5145 20.8106 10.1708C20.8121 9.24934 20.2476 8.33035 19.4603 7.97275C18.9209 7.72776 17.9679 7.71244 17.4418 7.94025ZM8.9072 12.4191C8.16668 12.6752 7.72571 13.0092 7.48268 13.4983C7.18704 14.0933 7.18693 16.6039 7.48257 17.3702C7.75897 18.0867 8.02842 18.1818 10.2211 18.3366C12.2518 18.4798 15.2936 18.3299 15.9539 18.054C16.5537 17.8034 16.7353 17.1807 16.7353 15.3755C16.7353 14.1448 16.7015 13.84 16.5258 13.4858C16.2697 12.97 15.5605 12.4975 14.7796 12.3227C14.2324 12.2002 14.1819 12.2094 13.474 12.5578C12.4451 13.0643 11.5779 13.0686 10.5689 12.5718C9.75695 12.1721 9.65011 12.1623 8.9072 12.4191ZM3.21336 12.6899C2.72196 12.8467 2.16535 13.4178 2.07796 13.8548C1.85764 14.9563 2.131 16.6724 2.56359 16.9039C2.80717 17.0342 5.44405 17.258 6.08935 17.2031L6.49119 17.1689L6.50467 15.4298C6.51836 13.679 6.53043 13.6113 6.98269 12.7422C7.0053 12.6987 6.79172 12.7658 6.50793 12.8913C5.88208 13.1681 5.02656 13.1197 4.44093 12.7741C4.02387 12.528 3.77399 12.5109 3.21336 12.6899ZM19.5111 12.9475C18.9026 13.2663 18.0157 13.2847 17.3708 12.9918L16.9194 12.7869L17.1519 13.2931C17.3512 13.7271 17.3845 14.0013 17.386 15.2124C17.3868 15.9896 17.3506 16.7912 17.3056 16.9937L17.2239 17.362L19.0447 17.3003C20.0462 17.2664 21.0116 17.1951 21.1899 17.142C21.6563 17.0032 21.9036 16.5038 21.9753 15.5565C22.1153 13.7051 21.6763 12.9807 20.2678 12.7399C20.1128 12.7134 19.7877 12.8026 19.5111 12.9475Z" fill="black"/>
</svg>
