<svg width="24" height="24" viewBox="0 0 24 24" fill="none" xmlns="http://www.w3.org/2000/svg">
<path d="M2 3.21212C2 2.54268 2.54269 2 3.21212 2H9.27273C9.94217 2 10.4849 2.54269 10.4849 3.21212V9.27273C10.4849 9.94217 9.94217 10.4849 9.27273 10.4849H3.21212C2.54268 10.4849 2 9.94217 2 9.27273V3.21212Z" fill="black"/>
<path d="M2 14.7273C2 14.0578 2.54269 13.5151 3.21212 13.5151H9.27273C9.94217 13.5151 10.4849 14.0578 10.4849 14.7273V20.7879C10.4849 21.4573 9.94217 22 9.27273 22H3.21212C2.54268 22 2 21.4573 2 20.7879V14.7273Z" fill="black"/>
<path d="M13.5151 3.21212C13.5151 2.54268 14.0578 2 14.7273 2H20.7879C21.4573 2 22 2.54269 22 3.21212V9.27273C22 9.94217 21.4573 10.4849 20.7879 10.4849H14.7273C14.0578 10.4849 13.5151 9.94217 13.5151 9.27273V3.21212Z" fill="black"/>
<path d="M13.5151 14.7273C13.5151 14.0578 14.0578 13.5151 14.7273 13.5151H20.7879C21.4573 13.5151 22 14.0578 22 14.7273V20.7879C22 21.4573 21.4573 22 20.7879 22H14.7273C14.0578 22 13.5151 21.4573 13.5151 20.7879V14.7273Z" fill="black"/>
</svg>
