<svg width="16" height="16" viewBox="0 0 16 16" fill="none" xmlns="http://www.w3.org/2000/svg">
<path d="M7.99967 1.33301C8.87515 1.33301 9.74206 1.50545 10.5509 1.84048C11.3597 2.17551 12.0947 2.66657 12.7137 3.28563C13.3328 3.90469 13.8238 4.63961 14.1589 5.44845C14.4939 6.25729 14.6663 7.1242 14.6663 7.99967C14.6663 9.76779 13.964 11.4635 12.7137 12.7137C11.4635 13.964 9.76779 14.6663 7.99967 14.6663C7.1242 14.6663 6.25729 14.4939 5.44845 14.1589C4.63961 13.8238 3.90469 13.3328 3.28563 12.7137C2.03539 11.4635 1.33301 9.76779 1.33301 7.99967C1.33301 6.23156 2.03539 4.53587 3.28563 3.28563C4.53587 2.03539 6.23156 1.33301 7.99967 1.33301ZM4.66634 6.66634L7.99967 9.99967L11.333 6.66634H4.66634Z" fill="#424242"/>
</svg>
