<svg width="16" height="16" viewBox="0 0 16 16" fill="none" xmlns="http://www.w3.org/2000/svg">
<path d="M8.00016 1.3335C8.87564 1.3335 9.74255 1.50593 10.5514 1.84097C11.3602 2.176 12.0952 2.66706 12.7142 3.28612C13.3333 3.90517 13.8243 4.6401 14.1594 5.44894C14.4944 6.25778 14.6668 7.12468 14.6668 8.00016C14.6668 9.76827 13.9645 11.464 12.7142 12.7142C11.464 13.9645 9.76827 14.6668 8.00016 14.6668C7.12468 14.6668 6.25778 14.4944 5.44894 14.1594C4.6401 13.8243 3.90517 13.3333 3.28612 12.7142C2.03588 11.464 1.3335 9.76827 1.3335 8.00016C1.3335 6.23205 2.03588 4.53636 3.28612 3.28612C4.53636 2.03588 6.23205 1.3335 8.00016 1.3335V1.3335ZM4.66683 6.66683L8.00016 10.0002L11.3335 6.66683H4.66683Z" fill="white"/>
</svg>
