<svg width="24" height="24" viewBox="0 0 24 24" fill="#424242" xmlns="http://www.w3.org/2000/svg">
<path fill-rule="evenodd" clip-rule="evenodd" d="M12.7129 2.6378C12.7129 2.28809 13.0514 2 13.473 2C13.8945 2 14.2331 2.28476 14.2331 2.6378V5.42548C14.2331 5.77519 13.8962 6.06328 13.473 6.06328C13.0498 6.06328 12.7129 5.77852 12.7129 5.42548V2.6378ZM22 11.4638L15.1836 22L9.89714 18.5296H3.22396C2.89918 18.5282 2.58812 18.3954 2.35876 18.1601C2.12941 17.9249 2.00043 17.6062 2 17.2739V4.88926C2.00043 4.55638 2.12986 4.23727 2.35992 4.00189C2.58997 3.76651 2.90187 3.63408 3.22721 3.63364H4.70833C4.8154 3.64046 4.91589 3.68878 4.98935 3.76876C5.06281 3.84874 5.1037 3.95436 5.1037 4.06411C5.1037 4.17387 5.06281 4.27949 4.98935 4.35947C4.91589 4.43945 4.8154 4.48777 4.70833 4.49459H3.22721C3.17699 4.49448 3.12724 4.50458 3.08086 4.52431C3.03447 4.54403 2.99239 4.57299 2.95703 4.60949C2.88542 4.68287 2.84505 4.78223 2.84473 4.88593V8.09659H13.1165L12.5615 8.95587H2.83659V17.2689C2.83674 17.3727 2.87713 17.4721 2.94889 17.5454C3.02212 17.6155 3.1188 17.6542 3.21908 17.6536H9.55371H10.1104L14.0882 20.2381L14.137 20.2731C14.3195 20.3887 14.5391 20.4259 14.7482 20.3767C14.9573 20.3274 15.139 20.1956 15.2536 20.01L15.4717 19.652H15.4831L16.5101 17.9534L21.1813 10.9226L21.9951 11.4588L22 11.4638ZM4.20703 14.2648H5.94857C6.00181 14.2648 6.0529 14.2863 6.09071 14.3247C6.12851 14.363 6.14996 14.4151 6.15039 14.4696V15.7868C6.14912 15.8407 6.12729 15.892 6.08958 15.9296C6.05187 15.9673 6.00126 15.9884 5.94857 15.9883H4.20703C4.15379 15.9883 4.1027 15.9668 4.06489 15.9285C4.02709 15.8901 4.00564 15.838 4.00521 15.7835V14.4696C4.00521 14.4426 4.01044 14.4158 4.0206 14.3908C4.03076 14.3659 4.04566 14.3432 4.06442 14.3242C4.08318 14.3051 4.10544 14.2901 4.12992 14.2799C4.1544 14.2697 4.1806 14.2646 4.20703 14.2648ZM10.8802 10.5112H11.554L10.6735 11.8751V10.7194C10.6735 10.6645 10.6947 10.6118 10.7325 10.5728C10.7703 10.5338 10.8216 10.5117 10.8753 10.5112H10.8802ZM7.53385 10.5112H9.27539C9.30265 10.5101 9.32985 10.5146 9.35537 10.5245C9.38089 10.5343 9.40422 10.5493 9.42396 10.5686C9.4437 10.5879 9.45945 10.611 9.47028 10.6366C9.4811 10.6622 9.48678 10.6898 9.48698 10.7177V12.035C9.48655 12.0894 9.4651 12.1415 9.42729 12.1799C9.38949 12.2183 9.3384 12.2398 9.28516 12.2398H7.53385C7.48076 12.2398 7.42984 12.2182 7.3923 12.1798C7.35475 12.1414 7.33366 12.0893 7.33366 12.035V10.7177C7.33366 10.6633 7.3547 10.611 7.3922 10.5723C7.42969 10.5336 7.48061 10.5117 7.53385 10.5112ZM4.20052 10.5112H5.94206C5.99545 10.5117 6.04654 10.5336 6.0843 10.5722C6.12206 10.6108 6.14346 10.6631 6.14388 10.7177V12.035C6.14345 12.0894 6.122 12.1415 6.0842 12.1799C6.04639 12.2183 5.9953 12.2398 5.94206 12.2398H4.20703C4.15379 12.2398 4.1027 12.2183 4.06489 12.1799C4.02709 12.1415 4.00564 12.0894 4.00521 12.035V10.7177C4.00563 10.6631 4.02703 10.6108 4.06479 10.5722C4.10255 10.5336 4.15364 10.5117 4.20703 10.5112H4.20052ZM7.53385 14.2648H9.12891L8.2679 15.597C8.19278 15.7173 8.1429 15.8523 8.12142 15.9933H7.53385C7.48076 15.9933 7.42984 15.9718 7.3923 15.9333C7.35475 15.8949 7.33366 15.8428 7.33366 15.7885V14.4696C7.33344 14.4426 7.33847 14.4159 7.34846 14.391C7.35844 14.366 7.37318 14.3433 7.39181 14.3243C7.41044 14.3052 7.4326 14.2901 7.45699 14.2799C7.48137 14.2697 7.5075 14.2646 7.53385 14.2648ZM5.88997 2.6378C5.88997 2.28809 6.23177 2 6.65007 2C7.06836 2 7.41016 2.28476 7.41016 2.6378V5.42548C7.41016 5.77519 7.07161 6.06328 6.65007 6.06328C6.22852 6.06328 5.88997 5.77852 5.88997 5.42548V2.6378ZM17.2995 5.29392V4.88593C17.2997 4.83467 17.2901 4.78386 17.2711 4.73643C17.2521 4.68899 17.2241 4.64586 17.1888 4.60949C17.1173 4.53937 17.0225 4.49951 16.9235 4.49792H15.5368C15.4793 4.50158 15.4218 4.49316 15.3676 4.47318C15.3135 4.4532 15.2639 4.42208 15.2219 4.38175C15.18 4.34142 15.1465 4.29273 15.1237 4.23867C15.1008 4.18461 15.0891 4.12634 15.0891 4.06744C15.0891 4.00855 15.1008 3.95028 15.1237 3.89622C15.1465 3.84216 15.18 3.79347 15.2219 3.75314C15.2639 3.7128 15.3135 3.68169 15.3676 3.66171C15.4218 3.64173 15.4793 3.63331 15.5368 3.63697H16.9235C17.2488 3.63741 17.5607 3.76984 17.7908 4.00522C18.0209 4.2406 18.1503 4.55971 18.1507 4.89259V5.85179L17.2995 5.29392ZM8.62435 4.49792C8.51255 4.49792 8.40532 4.45248 8.32627 4.37159C8.24721 4.29071 8.2028 4.181 8.2028 4.06661C8.2028 3.95222 8.24721 3.84252 8.32627 3.76163C8.40532 3.68075 8.51255 3.6353 8.62435 3.6353H11.4482C11.56 3.6353 11.6673 3.68075 11.7463 3.76163C11.8254 3.84252 11.8698 3.95222 11.8698 4.06661C11.8698 4.181 11.8254 4.29071 11.7463 4.37159C11.6673 4.45248 11.56 4.49792 11.4482 4.49792H8.62435ZM21.3685 9.17569L14.5488 19.7152L9.11426 16.1549L15.9274 5.61032L21.3685 9.17569ZM16.3945 12.0533C16.5388 12.3101 16.6054 12.6048 16.5861 12.9003C16.5667 13.1958 16.4622 13.4788 16.2858 13.7136C16.1093 13.9484 15.8689 14.1244 15.5947 14.2195C15.3206 14.3146 15.0251 14.3244 14.7455 14.2478C14.4659 14.1712 14.2147 14.0115 14.0237 13.789C13.8328 13.5664 13.7105 13.291 13.6724 12.9974C13.6343 12.7038 13.682 12.4052 13.8096 12.1394C13.9372 11.8736 14.139 11.6524 14.3893 11.5037C14.5562 11.4047 14.7405 11.3404 14.9317 11.3144C15.1229 11.2884 15.3172 11.3013 15.5035 11.3524C15.6898 11.4034 15.8644 11.4916 16.0173 11.6119C16.1702 11.7322 16.2984 11.8822 16.3945 12.0533ZM19.4154 10.4213L14.8467 17.3755C14.6332 17.2367 14.3748 17.1899 14.1277 17.2454C13.8807 17.301 13.6652 17.4543 13.5283 17.6719L11.3783 16.2648C11.5144 16.0465 11.5604 15.7819 11.5061 15.529C11.4517 15.2761 11.3016 15.0556 11.0885 14.9159L15.6589 7.95837C15.8718 8.09707 16.1298 8.14375 16.3763 8.08819C16.6228 8.03262 16.8377 7.87935 16.974 7.66195L19.124 9.06911C18.9874 9.28796 18.9414 9.55336 18.996 9.80694C19.0506 10.0605 19.2015 10.2815 19.4154 10.4213Z" fill="#424242"/>
</svg>
