<svg width="16" height="16" viewBox="0 0 16 16" fill="none" xmlns="http://www.w3.org/2000/svg">
<path d="M8.00004 2C4.33337 2 1.33337 4.4 1.33337 7.33333C1.33337 8.73333 2.00004 10.0667 3.20004 11C3.20004 11.4 2.93337 12.4667 1.33337 14C1.33337 14 3.66671 14 5.66671 12.3333C6.40004 12.5333 7.20004 12.6667 8.00004 12.6667C11.6667 12.6667 14.6667 10.2667 14.6667 7.33333C14.6667 4.4 11.6667 2 8.00004 2ZM8.66671 10H7.33337V8.66667H8.66671V10ZM9.86671 6.66667C9.66671 6.93333 9.40004 7.06667 9.13337 7.2C8.93337 7.33333 8.86671 7.4 8.80004 7.53333C8.66671 7.66667 8.66671 7.8 8.66671 8H7.33337C7.33337 7.66667 7.40004 7.46667 7.53337 7.26667C7.66671 7.13333 7.93337 6.93333 8.26671 6.73333C8.46671 6.66667 8.60004 6.53333 8.66671 6.4C8.73337 6.26667 8.80004 6.06667 8.80004 5.93333C8.80004 5.73333 8.73337 5.6 8.60004 5.46667C8.46671 5.33333 8.26671 5.26667 8.06671 5.26667C7.86671 5.26667 7.73337 5.33333 7.60004 5.4C7.46671 5.46667 7.40004 5.6 7.40004 5.8H6.06671C6.13337 5.33333 6.33337 4.93333 6.66671 4.66667C7.00004 4.4 7.46671 4.33333 8.06671 4.33333C8.66671 4.33333 9.20004 4.46667 9.53337 4.73333C9.86671 5 10.0667 5.4 10.0667 5.86667C10.1334 6.13333 10.0667 6.4 9.86671 6.66667Z" fill="#43a6a9"/>
</svg>
