<svg width="369" height="50" viewBox="0 0 369 50" fill="none" xmlns="http://www.w3.org/2000/svg">
<path d="M133.617 24.9106H208.042" stroke="#B0B0B0" stroke-width="0.57031" stroke-dasharray="3.42 3.42"/>
<path d="M182.093 24.9106C182.093 18.6111 176.987 13.5044 170.687 13.5044C164.388 13.5044 159.281 18.6111 159.281 24.9106C159.281 31.2101 164.388 36.3168 170.687 36.3168C176.987 36.3168 182.093 31.2101 182.093 24.9106Z" fill="#3EA76A"/>
<path d="M167.83 24.3403L165.554 26.6216L167.83 28.9028V27.1919H171.828V26.0513H167.83V24.3403ZM175.82 23.1997L173.544 20.9185V22.6294H169.546V23.77H173.544V25.4809L175.82 23.1997Z" fill="white"/>
<path d="M234.356 24.4566C234.356 23.9329 234.16 23.4746 233.767 23.0821C233.374 22.6896 232.916 22.4931 232.393 22.4931C231.869 22.4931 231.411 22.6896 231.018 23.0821C230.625 23.4746 230.429 23.9329 230.429 24.4566C230.429 24.9803 230.625 25.4381 231.018 25.8311C231.411 26.2236 231.869 26.4201 232.393 26.4201C232.916 26.4201 233.374 26.2236 233.767 25.8311C234.16 25.4381 234.356 24.9803 234.356 24.4566ZM238.283 23.6058V25.3074C238.283 25.3733 238.283 25.4381 238.217 25.504L238.087 25.6346L236.647 25.8311C236.581 26.093 236.45 26.3548 236.319 26.4854C236.516 26.7473 236.778 27.0744 237.17 27.5328C237.236 27.5987 237.236 27.6634 237.236 27.7293C237.236 27.7946 237.236 27.86 237.17 27.9253C237.039 28.1218 236.778 28.3836 236.45 28.7761C236.123 29.1691 235.861 29.2998 235.73 29.2998C235.665 29.2998 235.6 29.2998 235.534 29.2339L234.422 28.3831C234.225 28.5148 233.963 28.5802 233.701 28.6455C233.636 29.3651 233.571 29.8235 233.505 30.0853C233.505 30.2813 233.374 30.3471 233.244 30.3471H231.542C231.476 30.3471 231.411 30.3471 231.345 30.2813C231.28 30.216 231.28 30.1506 231.28 30.0853L231.084 28.6455C230.822 28.5796 230.625 28.449 230.363 28.3836L229.251 29.2345C229.185 29.3003 229.12 29.3003 229.055 29.3003C228.989 29.3003 228.924 29.3003 228.858 29.2345C228.204 28.6455 227.811 28.2524 227.615 27.9253C227.549 27.86 227.549 27.7946 227.549 27.7293C227.549 27.6634 227.549 27.5981 227.615 27.5328C227.68 27.4016 227.811 27.271 228.007 27.0091C228.204 26.7473 228.335 26.6166 228.4 26.4854C228.269 26.2236 228.138 25.9618 228.073 25.7005L226.698 25.504C226.633 25.504 226.568 25.4381 226.568 25.4381C226.568 25.4381 226.502 25.3728 226.502 25.3074V23.6058C226.502 23.5399 226.502 23.4746 226.568 23.4093L226.698 23.2786L228.138 23.0821C228.204 22.8203 228.335 22.6237 228.466 22.3625C228.269 22.1006 228.007 21.7076 227.615 21.3151C227.549 21.2492 227.549 21.1839 227.549 21.1186C227.549 21.0533 227.549 20.9879 227.615 20.9226C227.746 20.7261 228.007 20.4643 228.4 20.0718C228.793 19.6788 228.989 19.5481 229.12 19.5481C229.186 19.5481 229.251 19.5481 229.317 19.6134L230.363 20.4643C230.56 20.3331 230.822 20.2677 231.084 20.2024C231.15 19.4822 231.214 19.0244 231.28 18.7626C231.345 18.6314 231.411 18.5661 231.542 18.5661H233.244C233.309 18.5661 233.374 18.5661 233.44 18.6319C233.506 18.6973 233.506 18.7626 233.506 18.8279L233.701 20.2677C233.963 20.3336 234.16 20.4643 234.422 20.5296L235.534 19.6788C235.6 19.6129 235.665 19.6129 235.73 19.6129C235.796 19.6129 235.861 19.6129 235.927 19.6788C236.581 20.2677 237.039 20.7261 237.17 20.9879C237.236 21.0533 237.236 21.0533 237.236 21.1839C237.236 21.2498 237.236 21.3151 237.17 21.3804C237.105 21.5116 236.974 21.6423 236.778 21.9041C236.581 22.1659 236.45 22.2966 236.385 22.4278C236.516 22.6896 236.647 22.9515 236.712 23.1474L238.087 23.3439C238.152 23.3439 238.217 23.4098 238.217 23.4098C238.217 23.4098 238.283 23.5405 238.283 23.6058Z" fill="#45AAF2"/>
<path d="M220.612 24.915V23.9329C220.765 23.9369 220.916 23.9032 221.053 23.8347C221.19 23.7663 221.308 23.6652 221.397 23.5405C221.593 23.2786 221.659 22.9515 221.659 22.5584V18.5666C221.659 17.7817 221.921 17.1268 222.379 16.669C222.902 16.1448 223.426 15.9482 224.081 15.9482H225.259V17.0609H224.081C223.754 17.0609 223.427 17.1916 223.165 17.5193C222.903 17.8464 222.772 18.1736 222.772 18.6314V22.7549C222.772 23.6716 222.445 24.1948 221.856 24.4566C222.445 24.7184 222.772 25.3074 222.772 26.1583V30.3466C222.772 30.805 222.903 31.1974 223.165 31.4598C223.427 31.787 223.754 31.9176 224.082 31.9176H225.259V32.965H224.081C223.427 32.965 222.838 32.7031 222.379 32.2453C221.856 31.787 221.66 31.1327 221.66 30.3471V26.2889C221.66 25.8964 221.594 25.5693 221.398 25.3074C221.309 25.1825 221.191 25.0814 221.054 25.0129C220.917 24.9445 220.765 24.9108 220.612 24.915ZM239.592 31.8523H240.77C241.097 31.8523 241.424 31.7217 241.687 31.3945C241.948 31.0668 242.079 30.7396 242.079 30.2818V26.1583C242.079 25.2416 242.406 24.6531 242.995 24.4566C242.406 24.1948 242.079 23.6058 242.079 22.7549V18.6314C242.079 18.1736 241.948 17.7806 241.686 17.5193C241.424 17.1916 241.097 17.0609 240.77 17.0609H239.592V15.9482H240.77C241.424 15.9482 242.013 16.2101 242.472 16.6684C242.93 17.1262 243.192 17.7806 243.192 18.5661V22.5584C243.192 22.9515 243.257 23.2786 243.454 23.5405C243.65 23.8023 243.912 23.9329 244.173 23.9329V24.915C243.912 24.915 243.715 25.0456 243.519 25.3074C243.323 25.5693 243.257 25.8964 243.257 26.2889V30.3471C243.257 31.1321 242.995 31.7217 242.537 32.2448C242.013 32.7031 241.424 32.965 240.77 32.965H239.592V31.8523ZM249.409 27.5981L250.064 26.7473C250.391 27.1403 250.784 27.4016 251.242 27.664C251.7 27.9253 252.223 27.9912 252.812 27.9912C253.205 27.9912 253.533 27.9253 253.794 27.86C254.056 27.7941 254.318 27.6634 254.449 27.4675C254.645 27.4016 254.776 27.2056 254.842 27.0744C254.907 26.8785 254.972 26.7473 254.972 26.5508C254.972 26.2889 254.907 26.093 254.776 25.8964C254.658 25.7127 254.502 25.5564 254.318 25.4381C254.122 25.3074 253.86 25.2421 253.598 25.1109C253.336 24.9803 253.074 24.915 252.747 24.8491C252.42 24.7838 252.158 24.7184 251.896 24.5878C251.602 24.5074 251.317 24.3976 251.045 24.2601C250.784 24.1295 250.522 23.9983 250.326 23.8023C250.129 23.6058 249.933 23.4093 249.867 23.1474C249.737 22.8861 249.671 22.5584 249.671 22.2313C249.671 21.5116 249.933 20.9226 250.522 20.4637C251.111 20.0059 251.831 19.8099 252.682 19.8099C253.991 19.8099 255.038 20.2024 255.823 21.0533L255.169 21.8382C254.514 21.1191 253.663 20.7914 252.616 20.7914C252.093 20.7914 251.634 20.9226 251.307 21.1839C250.98 21.4457 250.784 21.7729 250.784 22.1659C250.784 22.3625 250.849 22.5584 250.98 22.7549C251.111 22.9515 251.242 23.0168 251.438 23.1474C251.634 23.2786 251.896 23.3439 252.158 23.4093C252.42 23.4751 252.682 23.5405 253.009 23.6711C253.336 23.8023 253.598 23.9329 253.86 23.9983C254.154 24.0787 254.439 24.1885 254.711 24.326C254.972 24.4566 255.234 24.5873 255.431 24.7838C255.627 24.9803 255.823 25.1763 255.889 25.4381C255.954 25.6999 256.085 26.0271 256.085 26.3548C256.085 26.6166 256.019 26.8785 255.954 27.1398C255.889 27.4016 255.758 27.5981 255.627 27.86L255.038 28.449C254.771 28.6567 254.456 28.792 254.122 28.8414C253.663 28.9726 253.271 29.038 252.812 29.038C251.373 29.038 250.26 28.5802 249.409 27.5981ZM259.816 28.9073V20.0718H260.928V23.8023H266.099V20.0059H267.211V28.8414H266.099V24.7838H260.928V28.8414H259.816V28.9073ZM271.335 28.9073V20.0718H272.447V28.9073H271.335ZM276.636 28.9073V20.0718H280.17C281.021 20.0718 281.675 20.3331 282.199 20.8567C282.723 21.3804 282.919 22.0347 282.919 22.7549C282.92 23.4546 282.664 24.1302 282.199 24.6531C281.675 25.1109 281.021 25.3728 280.17 25.3728H277.683V28.9073H276.636ZM277.748 24.3913H280.039C280.563 24.3913 280.956 24.2601 281.348 23.9329C281.741 23.6058 281.872 23.2133 281.872 22.6896C281.872 22.1659 281.675 21.7729 281.348 21.4457C281.021 21.1186 280.563 20.9879 280.039 20.9879H277.748V24.3913ZM286.257 28.9073V20.0718H292.736V22.0353H288.548V23.4093H292.671V25.3728H288.548V26.8779H292.736V28.8414H286.257V28.9073ZM296.205 28.9073V20.0718H298.496L302.096 24.915V20.0718H304.386V28.9073H302.161L298.43 23.8023V28.9073H296.205ZM307.659 24.4566C307.659 23.8023 307.79 23.1474 308.051 22.5584C308.313 21.9694 308.64 21.5116 309.099 21.1186C309.557 20.7261 310.015 20.3989 310.604 20.2024C311.193 20.0059 311.782 19.8753 312.502 19.8753C312.96 19.8753 313.418 19.9411 313.811 20.0718C314.204 20.2024 314.596 20.3331 314.858 20.5296C315.185 20.7261 315.447 20.9879 315.644 21.1839L316.233 21.9694L314.334 22.9515C314.142 22.6282 313.873 22.3582 313.549 22.1659C313.222 21.9694 312.829 21.8388 312.437 21.8388C311.717 21.8388 311.128 22.1006 310.669 22.5584C310.211 23.0168 309.95 23.6711 309.95 24.3913C309.95 25.1109 310.211 25.6999 310.669 26.2236C311.128 26.682 311.717 26.9438 312.437 26.9438C312.764 26.9438 313.026 26.8779 313.353 26.8126C313.68 26.682 313.877 26.5508 314.073 26.4201V25.7658H312.11V23.8023H316.364V27.3363C315.316 28.5143 314.007 29.038 312.437 29.038C311.782 29.038 311.128 28.9073 310.539 28.7108C309.973 28.5246 309.458 28.211 309.033 27.7941C308.575 27.4016 308.248 26.9433 307.986 26.3548C307.79 25.7658 307.659 25.1109 307.659 24.4566ZM319.767 28.9073V20.0718H322.058V28.9073H319.767ZM325.723 28.9073V20.0718H328.079L331.679 24.915V20.0718H333.97V28.9073H331.744L328.014 23.8023V28.9073H325.723ZM337.635 28.9073V20.0718H344.114V22.0353H339.925V23.4093H344.048V25.3728H339.925V26.8779H344.114V28.8414H337.635V28.9073ZM347.583 21.3804C347.583 20.9879 347.714 20.5955 348.041 20.3331C348.368 20.0718 348.696 19.8753 349.088 19.8753C349.35 19.8753 349.612 19.9411 349.874 20.0718C350.135 20.2024 350.266 20.3989 350.397 20.5949C350.528 20.7914 350.593 21.0533 350.593 21.3804C350.593 21.7729 350.463 22.1654 350.135 22.4278C349.808 22.6896 349.481 22.8861 349.088 22.8861C348.696 22.8861 348.303 22.7549 348.041 22.4278C347.779 22.1006 347.583 21.7729 347.583 21.3804ZM347.845 21.3804C347.845 21.7076 347.975 22.0347 348.237 22.2971C348.499 22.5584 348.826 22.6896 349.153 22.6896C349.481 22.6896 349.808 22.5584 350.07 22.2966C350.193 22.1775 350.291 22.0352 350.358 21.878C350.426 21.7207 350.461 21.5516 350.463 21.3804C350.463 20.9879 350.331 20.7261 350.07 20.4637C349.95 20.341 349.808 20.2432 349.651 20.176C349.494 20.1087 349.324 20.0733 349.153 20.0718C348.761 20.0718 348.499 20.2024 348.237 20.4643C347.975 20.6608 347.845 20.9874 347.845 21.3804ZM348.564 20.5296H349.285C349.415 20.5296 349.546 20.5955 349.677 20.6608C349.808 20.7261 349.808 20.8567 349.808 21.0533C349.808 21.2498 349.742 21.3804 349.677 21.4457C349.612 21.5116 349.481 21.5769 349.415 21.5769L349.874 22.2966H349.546L349.088 21.5769H348.761V22.2966H348.564V20.5296ZM348.761 21.3804H349.219C349.285 21.3804 349.35 21.3804 349.415 21.3146C349.546 21.1839 349.546 21.1186 349.546 21.0533C349.546 20.9874 349.546 20.8567 349.481 20.7914C349.415 20.7256 349.35 20.7256 349.285 20.7256H348.826V21.3804H348.761Z" fill="#162948"/>
<g clip-path="url(#clip0_1_4)">
<path d="M25.3101 27.3438V32.1116C25.3101 32.2732 25.2309 32.4348 25.1516 32.5156C25.0724 32.5964 24.9138 32.6772 24.7553 32.6772H20.5548C20.3963 32.6772 20.2378 32.5964 20.1585 32.5156C20.0793 32.4348 20 32.2732 20 32.1116V18.1315C20 17.9699 20.0793 17.8082 20.1585 17.7274C20.2378 17.6466 20.3963 17.5658 20.5548 17.5658H30.0654C31.7298 17.5658 32.9979 17.9699 34.0282 18.6972C35.0586 19.5053 35.6134 20.5558 35.6134 21.8487C35.6134 23.3033 35.1378 24.3538 34.266 25.0811C34.0282 25.2427 33.7905 25.4043 33.5527 25.566C33.2357 25.7276 32.9187 25.8084 32.6016 25.97C32.9979 26.2125 33.3149 26.4549 33.632 26.6973C33.949 26.9398 34.1868 27.1822 34.3453 27.5054L36.9607 31.9499C37.1192 32.1924 37.1192 32.354 36.9607 32.5964C36.8815 32.758 36.6437 32.8389 36.4059 32.8389H31.5713C31.4921 32.8389 31.3335 32.8389 31.2543 32.758C31.175 32.6772 31.0958 32.5964 31.0165 32.5156L28.5596 27.9094C28.4804 27.8286 28.4804 27.7478 28.4011 27.7478C28.3219 27.667 28.3219 27.667 28.2426 27.5862C28.1633 27.5054 27.7671 27.5054 27.0538 27.5054H25.3101V27.3438ZM25.2309 21.0406V23.9498H27.5293C28.4804 23.9498 29.1937 23.869 29.6692 23.6265C30.1447 23.3841 30.3825 22.9801 30.3825 22.4144C30.3825 21.9295 30.224 21.6063 29.8277 21.3639C29.4314 21.1214 28.9559 21.0406 28.2426 21.0406H25.2309Z" fill="black"/>
<path d="M38.4665 32.758C38.308 32.758 38.1495 32.6772 38.0702 32.5964C37.9909 32.5156 37.9117 32.354 37.9117 32.1924V18.1315C37.9117 17.9699 37.9909 17.8082 38.0702 17.7274C38.1495 17.6466 38.308 17.5658 38.4665 17.5658H49.5623C49.7208 17.5658 49.8792 17.6466 49.9586 17.7274C50.0378 17.8082 50.1171 17.9699 50.1171 18.1315V20.9598C50.1171 21.1214 50.0378 21.2831 49.9586 21.3639C49.8792 21.4447 49.7208 21.5255 49.5623 21.5255H43.1425V23.0609H48.6112C48.7697 23.0609 48.9282 23.1417 49.0075 23.2225C49.0867 23.3033 49.166 23.4649 49.166 23.6265V26.4549C49.166 26.6165 49.0867 26.7782 49.0075 26.859C48.9282 26.9398 48.7697 27.0206 48.6112 27.0206H43.1425V28.6367H50.0378C50.1963 28.6367 50.3548 28.7175 50.4341 28.7984C50.5133 28.8792 50.5925 29.0408 50.5925 29.2024V32.0307C50.5925 32.1924 50.5133 32.354 50.4341 32.4348C50.3548 32.5156 50.1963 32.5964 50.0378 32.5964H38.4665V32.758Z" fill="black"/>
<path d="M61.8469 18.131C61.8469 17.9694 61.9262 17.8078 62.0055 17.727C62.0847 17.6462 62.2432 17.5654 62.4017 17.5654H66.2852C66.4437 17.5654 66.6023 17.6462 66.6816 17.727C66.7608 17.8078 66.84 17.9694 66.84 18.131V27.9898C66.84 29.8485 66.1267 31.2222 64.7002 31.9495C63.4321 32.6768 61.5299 33 59.073 33C56.5368 33 54.6346 32.6768 53.4458 31.9495C52.0985 31.1414 51.3852 29.7676 51.3852 27.7474V18.0502C51.3852 17.8886 51.4644 17.727 51.5437 17.6462C51.623 17.5654 51.7815 17.4846 51.94 17.4846H55.8235C55.982 17.4846 56.1406 17.5654 56.2198 17.6462C56.299 17.727 56.3783 17.8886 56.3783 18.0502V26.0504C56.3783 26.9393 56.616 27.5858 57.0123 27.9898C57.4087 28.3938 58.1219 28.5555 59.073 28.5555C60.0241 28.5555 60.6581 28.3938 61.0544 27.9898C61.4507 27.5858 61.6884 26.9393 61.6884 26.0504V18.131H61.8469Z" fill="black"/>
<path d="M80.3135 30.0103C79.9965 30.6568 79.5209 31.2225 78.9661 31.6266C78.4113 32.0306 77.698 32.3538 76.8262 32.5962C75.9545 32.8387 75.0826 32.9195 74.0523 32.9195C73.4975 32.9195 72.9427 32.9195 72.3879 32.8387C71.8331 32.7579 71.2783 32.7579 70.7236 32.5962C70.565 32.5962 70.4858 32.5154 70.4065 32.5154C70.3273 32.5154 70.248 32.5154 70.0895 32.4346C69.6932 32.3538 69.3762 32.273 69.1384 32.273C68.9007 32.1922 68.6629 32.1922 68.5044 32.1114C68.4251 32.1114 68.2666 32.0306 68.1874 31.9498C68.1081 31.869 68.0289 31.7074 68.0289 31.6266L67.7118 27.9093C67.7118 27.6669 67.7911 27.5053 67.9496 27.3436C68.1081 27.182 68.3459 27.182 68.5044 27.3436C69.1384 27.6669 70.0103 27.9901 71.1198 28.3942C72.2294 28.7982 73.2598 28.9598 74.2108 28.9598C74.7656 28.9598 75.2412 28.879 75.5581 28.7174C75.8752 28.5558 76.113 28.3942 76.113 28.071C76.113 27.9093 76.0337 27.7477 75.7959 27.6669C75.4789 27.4245 74.6864 27.2628 73.5768 27.0204C71.3576 26.5355 69.8517 25.9698 68.9799 25.2426C68.0289 24.4345 67.5533 23.384 67.5533 22.0102C67.5533 20.394 68.1081 19.1819 69.2177 18.293C70.3273 17.4849 71.9124 17 73.9731 17C74.8449 17 75.7959 17.0808 76.8262 17.2424C77.3018 17.3232 77.698 17.404 78.0943 17.4849C78.4906 17.5657 78.7284 17.6465 78.9661 17.7273C79.0454 17.7273 79.1246 17.8081 79.2039 17.8889C79.2832 17.9697 79.3624 18.1313 79.3624 18.2121L79.7587 21.6062C79.7587 21.8486 79.6794 22.0102 79.5209 22.1718C79.3624 22.3334 79.1246 22.3334 78.9661 22.1718C78.5699 22.0102 78.1736 21.7678 77.698 21.6062C77.3018 21.4445 76.8262 21.2829 76.3507 21.1213C75.3997 20.8789 74.6071 20.7172 73.8145 20.7172C73.2598 20.7172 72.7842 20.7981 72.4672 20.8789C72.1502 20.9597 71.9917 21.1213 71.9917 21.3637C71.9917 21.6062 72.1502 21.7678 72.4672 21.8486C72.7842 21.9294 73.1012 22.091 73.4975 22.1718C73.8937 22.3334 74.4485 22.4142 75.0033 22.4951C77.064 22.8991 78.4906 23.4648 79.2039 24.2729C80.0757 25.081 80.472 26.1315 80.472 27.4245C80.789 28.6366 80.6305 29.3638 80.3135 30.0103Z" fill="black"/>
<path d="M82.2157 32.758C82.0572 32.758 81.8986 32.6772 81.8194 32.5964C81.7401 32.5156 81.6609 32.354 81.6609 32.1924V18.1315C81.6609 17.9699 81.7401 17.8082 81.8194 17.7274C81.8986 17.6466 82.0572 17.5658 82.2157 17.5658H93.3115C93.47 17.5658 93.6285 17.6466 93.7077 17.7274C93.787 17.8082 93.8663 17.9699 93.8663 18.1315V20.9598C93.8663 21.1214 93.787 21.2831 93.7077 21.3639C93.6285 21.4447 93.47 21.5255 93.3115 21.5255H86.8918V23.0609H92.3604C92.5189 23.0609 92.6774 23.1417 92.7567 23.2225C92.8359 23.3033 92.9152 23.4649 92.9152 23.6265V26.4549C92.9152 26.6165 92.8359 26.7782 92.7567 26.859C92.6774 26.9398 92.5189 27.0206 92.3604 27.0206H86.8918V28.6367H93.787C93.9455 28.6367 94.104 28.7175 94.1833 28.7984C94.2625 28.8792 94.3418 29.0408 94.3418 29.2024V32.0307C94.3418 32.1924 94.2625 32.354 94.1833 32.4348C94.104 32.5156 93.9455 32.5964 93.787 32.5964H82.2157V32.758Z" fill="black"/>
<path d="M100.444 28.2327H107.656C107.816 28.2327 107.974 28.3135 108.053 28.3943C108.133 28.4751 108.212 28.6367 108.212 28.7984V32.1116C108.212 32.2732 108.133 32.4348 108.053 32.5156C107.974 32.5964 107.816 32.6772 107.656 32.6772H95.7685C95.61 32.6772 95.4514 32.5964 95.3722 32.5156C95.2929 32.4348 95.2137 32.2732 95.2137 32.1116V18.1315C95.2137 17.9699 95.2929 17.8082 95.3722 17.7274C95.4514 17.6466 95.61 17.5658 95.7685 17.5658H99.8895C100.048 17.5658 100.207 17.6466 100.286 17.7274C100.365 17.8082 100.444 17.9699 100.444 18.1315V28.2327Z" fill="black"/>
<path d="M121.13 17.5658C121.368 17.5658 121.605 17.6466 121.685 17.8891C121.765 18.1315 121.765 18.2931 121.605 18.5355L114.948 26.6973V32.1924C114.948 32.354 114.869 32.5156 114.789 32.5964C114.71 32.6772 114.552 32.758 114.393 32.758H110.114C109.955 32.758 109.797 32.6772 109.718 32.5964C109.638 32.5156 109.559 32.354 109.559 32.1924V26.6973L102.902 18.5355C102.743 18.2931 102.664 18.1315 102.822 17.8891C102.902 17.6466 103.139 17.5658 103.377 17.5658H108.29C108.37 17.5658 108.449 17.5658 108.529 17.6466C108.608 17.7274 108.687 17.7274 108.767 17.8082L112.65 22.6568L116.137 17.8082C116.137 17.7274 116.217 17.6466 116.375 17.6466C116.454 17.5658 116.613 17.5658 116.613 17.5658H121.13Z" fill="black"/>
</g>
<defs>
<clipPath id="clip0_1_4">
<rect width="102" height="16" fill="white" transform="translate(20 17)"/>
</clipPath>
</defs>
</svg>
