<svg width="324" height="57" viewBox="0 0 324 57" fill="none" xmlns="http://www.w3.org/2000/svg">
<path d="M25.129 30.6264V35.1428C25.129 35.2959 25.052 35.449 24.976 35.5256C24.899 35.6021 24.746 35.6787 24.593 35.6787H20.536C20.383 35.6787 20.23 35.6021 20.153 35.5256C20.077 35.449 20 35.2959 20 35.1428V21.8996C20 21.7465 20.077 21.5934 20.153 21.5169C20.23 21.4403 20.383 21.3638 20.536 21.3638H29.722C31.33 21.3638 32.554 21.7465 33.55 22.4355C34.545 23.201 35.081 24.1961 35.081 25.4209C35.081 26.7988 34.621 27.794 33.779 28.4829C33.55 28.6361 33.32 28.7892 33.09 28.9423C32.784 29.0954 32.478 29.1719 32.172 29.325C32.554 29.5547 32.861 29.7843 33.167 30.014C33.473 30.2436 33.703 30.4733 33.856 30.7795L36.382 34.9897C36.535 35.2194 36.535 35.3725 36.382 35.6021C36.305 35.7552 36.076 35.8318 35.846 35.8318H31.176C31.1 35.8318 30.947 35.8318 30.87 35.7552C30.794 35.6787 30.717 35.6021 30.641 35.5256L28.268 31.1622C28.191 31.0857 28.191 31.0091 28.114 31.0091C28.038 30.9326 28.038 30.9326 27.961 30.856C27.885 30.7795 27.502 30.7795 26.813 30.7795H25.129V30.6264ZM25.052 24.6554V27.4112H27.272C28.191 27.4112 28.88 27.3347 29.339 27.105C29.799 26.8754 30.028 26.4926 30.028 25.9568C30.028 25.4975 29.875 25.1913 29.492 24.9616C29.11 24.732 28.65 24.6554 27.961 24.6554H25.052Z" fill="black"/>
<path d="M37.836 35.7552C37.683 35.7552 37.53 35.6787 37.454 35.6021C37.377 35.5256 37.3 35.3725 37.3 35.2194V21.8996C37.3 21.7465 37.377 21.5934 37.454 21.5169C37.53 21.4403 37.683 21.3638 37.836 21.3638H48.553C48.706 21.3638 48.86 21.4403 48.936 21.5169C49.013 21.5934 49.089 21.7465 49.089 21.8996V24.5789C49.089 24.732 49.013 24.8851 48.936 24.9616C48.86 25.0382 48.706 25.1147 48.553 25.1147H42.353V26.5692H47.635C47.788 26.5692 47.941 26.6457 48.018 26.7223C48.094 26.7988 48.171 26.9519 48.171 27.105V29.7843C48.171 29.9374 48.094 30.0905 48.018 30.1671C47.941 30.2436 47.788 30.3202 47.635 30.3202H42.353V31.8512H49.013C49.166 31.8512 49.319 31.9277 49.395 32.0043C49.472 32.0808 49.549 32.2339 49.549 32.387V35.0663C49.549 35.2194 49.472 35.3725 49.395 35.449C49.319 35.5256 49.166 35.6021 49.013 35.6021H37.836V35.7552Z" fill="black"/>
<path d="M60.419 21.899C60.419 21.7459 60.495 21.5928 60.572 21.5163C60.648 21.4397 60.801 21.3632 60.955 21.3632H64.705C64.859 21.3632 65.012 21.4397 65.088 21.5163C65.165 21.5928 65.241 21.7459 65.241 21.899V31.2382C65.241 32.9988 64.552 34.3002 63.174 34.9891C61.95 35.6781 60.112 35.9843 57.739 35.9843C55.29 35.9843 53.453 35.6781 52.304 34.9891C51.003 34.2236 50.314 32.9223 50.314 31.0085V21.8225C50.314 21.6694 50.391 21.5163 50.467 21.4397C50.544 21.3632 50.697 21.2866 50.85 21.2866H54.601C54.754 21.2866 54.907 21.3632 54.984 21.4397C55.06 21.5163 55.137 21.6694 55.137 21.8225V29.401C55.137 30.243 55.366 30.8554 55.749 31.2382C56.132 31.6209 56.821 31.774 57.739 31.774C58.658 31.774 59.27 31.6209 59.653 31.2382C60.036 30.8554 60.266 30.243 60.266 29.401V21.899H60.419Z" fill="black"/>
<path d="M78.255 33.1522C77.949 33.7646 77.489 34.3005 76.954 34.6832C76.418 35.066 75.729 35.3722 74.887 35.6018C74.045 35.8315 73.203 35.9081 72.207 35.9081C71.672 35.9081 71.136 35.9081 70.6 35.8315C70.064 35.7549 69.528 35.755 68.992 35.6018C68.839 35.6018 68.763 35.5253 68.686 35.5253C68.61 35.5253 68.533 35.5253 68.38 35.4487C67.997 35.3722 67.691 35.2956 67.461 35.2956C67.232 35.2191 67.002 35.2191 66.849 35.1425C66.772 35.1425 66.619 35.066 66.543 34.9894C66.466 34.9129 66.39 34.7598 66.39 34.6832L66.083 31.1619C66.083 30.9323 66.16 30.7792 66.313 30.6261C66.466 30.473 66.696 30.473 66.849 30.6261C67.461 30.9323 68.303 31.2385 69.375 31.6212C70.447 32.004 71.442 32.1571 72.361 32.1571C72.896 32.1571 73.356 32.0805 73.662 31.9274C73.968 31.7743 74.198 31.6212 74.198 31.315C74.198 31.1619 74.121 31.0088 73.892 30.9323C73.585 30.7026 72.82 30.5495 71.748 30.3199C69.605 29.8606 68.15 29.3247 67.308 28.6358C66.39 27.8703 65.93 26.8751 65.93 25.5738C65.93 24.0428 66.466 22.8945 67.538 22.0524C68.61 21.2869 70.141 20.8276 72.131 20.8276C72.973 20.8276 73.892 20.9042 74.887 21.0573C75.346 21.1338 75.729 21.2104 76.111 21.2869C76.494 21.3635 76.724 21.44 76.954 21.5166C77.03 21.5166 77.107 21.5931 77.183 21.6697C77.26 21.7462 77.336 21.8993 77.336 21.9759L77.719 25.191C77.719 25.4207 77.642 25.5738 77.489 25.7269C77.336 25.88 77.107 25.88 76.954 25.7269C76.571 25.5738 76.188 25.3441 75.729 25.191C75.346 25.0379 74.887 24.8848 74.427 24.7317C73.509 24.5021 72.743 24.349 71.978 24.349C71.442 24.349 70.983 24.4255 70.676 24.5021C70.37 24.5786 70.217 24.7317 70.217 24.9614C70.217 25.191 70.37 25.3441 70.676 25.4207C70.983 25.4972 71.289 25.6503 71.672 25.7269C72.054 25.88 72.59 25.9565 73.126 26.0331C75.116 26.4158 76.494 26.9517 77.183 27.7172C78.025 28.4827 78.408 29.4778 78.408 30.7026C78.714 31.8509 78.561 32.5398 78.255 33.1522Z" fill="black"/>
<path d="M80.092 35.7552C79.939 35.7552 79.786 35.6787 79.709 35.6021C79.633 35.5256 79.556 35.3725 79.556 35.2194V21.8996C79.556 21.7465 79.633 21.5934 79.709 21.5169C79.786 21.4403 79.939 21.3638 80.092 21.3638H90.809C90.962 21.3638 91.115 21.4403 91.192 21.5169C91.269 21.5934 91.345 21.7465 91.345 21.8996V24.5789C91.345 24.732 91.269 24.8851 91.192 24.9616C91.115 25.0382 90.962 25.1147 90.809 25.1147H84.609V26.5692H89.891C90.044 26.5692 90.197 26.6457 90.273 26.7223C90.35 26.7988 90.426 26.9519 90.426 27.105V29.7843C90.426 29.9374 90.35 30.0905 90.273 30.1671C90.197 30.2436 90.044 30.3202 89.891 30.3202H84.609V31.8512H91.269C91.422 31.8512 91.575 31.9277 91.651 32.0043C91.728 32.0808 91.804 32.2339 91.804 32.387V35.0663C91.804 35.2194 91.728 35.3725 91.651 35.449C91.575 35.5256 91.422 35.6021 91.269 35.6021H80.092V35.7552Z" fill="black"/>
<path d="M97.699 31.4684H104.665C104.818 31.4684 104.971 31.545 105.048 31.6215C105.124 31.6981 105.201 31.8512 105.201 32.0043V35.1428C105.201 35.2959 105.124 35.449 105.048 35.5256C104.971 35.6021 104.818 35.6787 104.665 35.6787H93.182C93.029 35.6787 92.876 35.6021 92.8 35.5256C92.723 35.449 92.646 35.2959 92.646 35.1428V21.8996C92.646 21.7465 92.723 21.5934 92.8 21.5169C92.876 21.4403 93.029 21.3638 93.182 21.3638H97.163C97.316 21.3638 97.469 21.4403 97.546 21.5169C97.622 21.5934 97.699 21.7465 97.699 21.8996V31.4684Z" fill="black"/>
<path d="M117.678 21.5854C117.908 21.5854 118.138 21.662 118.214 21.8916C118.291 22.1213 118.291 22.2744 118.138 22.5041L111.708 30.2356V35.4411C111.708 35.5942 111.631 35.7473 111.554 35.8238C111.478 35.9004 111.325 35.9769 111.172 35.9769H107.038C106.885 35.9769 106.732 35.9004 106.655 35.8238C106.579 35.7473 106.502 35.5942 106.502 35.4411V30.2356L100.072 22.5041C99.919 22.2744 99.842 22.1213 99.995 21.8916C100.072 21.662 100.302 21.5854 100.531 21.5854H105.277C105.354 21.5854 105.43 21.5854 105.507 21.662C105.584 21.7385 105.66 21.7385 105.737 21.8151L109.488 26.4081L112.856 21.8151C112.856 21.7385 112.932 21.662 113.085 21.662C113.162 21.5854 113.315 21.5854 113.315 21.5854H117.678Z" fill="black"/>
<path d="M126.297 28.4062H200.722" stroke="#B0B0B0" stroke-width="0.57031" stroke-dasharray="3.42 3.42"/>
<path d="M174.773 28.4062C174.773 22.1067 169.667 17 163.367 17C157.068 17 151.961 22.1067 151.961 28.4062C151.961 34.7057 157.068 39.8124 163.367 39.8124C169.667 39.8124 174.773 34.7057 174.773 28.4062Z" fill="#3EA76A"/>
<path d="M160.51 27.8359L158.234 30.1172L160.51 32.3984V30.6875H164.508V29.5469H160.51V27.8359ZM168.5 26.6953L166.224 24.4141V26.125H162.226V27.2656H166.224V28.9765L168.5 26.6953Z" fill="white"/>
<path d="M213.675 34.37C215.058 35.1218 216.436 35.8842 217.81 36.6574C218.406 36.9926 218.796 36.7861 219.334 36.4898C222.23 34.8938 225.121 33.2893 228.008 31.6763C228.012 31.6741 228.016 31.6725 228.021 31.6713L228.026 31.6705L228.032 31.67C228.035 31.67 228.039 31.6703 228.043 31.671C228.047 31.6718 228.052 31.6735 228.056 31.6758C228.06 31.6781 228.064 31.6811 228.068 31.6845C228.07 31.6869 228.072 31.6895 228.074 31.6923C228.079 31.6993 228.081 31.7072 228.082 31.7153C228.085 31.7819 228.089 31.8487 228.093 31.9154C228.146 32.8229 228.198 33.7214 227.247 34.2481C224.57 35.7324 221.891 37.2145 219.211 38.6941C218.701 38.9763 218.188 38.9763 217.673 38.6941C214.957 37.2087 212.247 35.7155 209.542 34.2142C209.026 33.9287 208.767 33.4907 208.765 32.9004C208.753 29.8281 208.751 26.7558 208.758 23.6833C208.758 23.162 209.171 22.7776 209.66 22.5067C212.148 21.1263 214.637 19.7476 217.126 18.3705C218.39 17.6696 218.69 17.8169 219.833 18.4434C224.063 20.7571 226.623 22.1759 227.514 22.6997C228.189 23.0975 228.155 24.281 228.053 25.1004C228.05 25.1267 228.04 25.152 228.025 25.174C228.01 25.1961 227.989 25.2143 227.966 25.2274L218.854 30.3185C218.569 30.4766 218.286 30.4771 218.005 30.3202L213.696 27.911C213.687 27.9064 213.678 27.9039 213.668 27.9036C213.658 27.9034 213.649 27.9054 213.64 27.9095C213.635 27.9122 213.63 27.9158 213.626 27.9201C213.624 27.9223 213.622 27.9246 213.62 27.927C213.616 27.9345 213.613 27.9429 213.613 27.9515L213.608 29.9511C213.608 29.9763 213.615 30.0017 213.629 30.0245L213.635 30.0341C213.642 30.0427 213.649 30.0507 213.657 30.0579C213.666 30.0669 213.677 30.0748 213.689 30.0814C215.12 30.8896 216.553 31.687 217.989 32.4739C218.341 32.6652 218.847 32.4856 219.223 32.2756C222.154 30.6447 225.081 29.0064 228.002 27.3608C228.054 27.3313 228.08 27.3456 228.08 27.4031L228.087 29.384C228.087 29.4096 228.08 29.4349 228.066 29.4573C228.052 29.4796 228.033 29.4981 228.009 29.511C224.978 31.1961 221.946 32.8789 218.915 34.5596C218.504 34.7883 218.14 34.6749 217.722 34.4445C216.388 33.7051 215.049 32.9739 213.705 32.2503C213.696 32.2459 213.687 32.2434 213.677 32.2434C213.667 32.2432 213.658 32.2454 213.65 32.2497C213.646 32.2515 213.643 32.2535 213.64 32.2558C213.638 32.2576 213.636 32.2596 213.634 32.2617L213.629 32.2677C213.625 32.2751 213.622 32.2837 213.622 32.2927L213.594 34.2448C213.594 34.2693 213.601 34.2939 213.615 34.3161C213.629 34.3382 213.65 34.3567 213.675 34.37Z" fill="#164DFF"/>
<path d="M301.011 26.8274C300.99 28.0611 300.992 29.3275 301.015 30.6267C301.042 32.0106 302.121 31.9967 303.117 31.984C303.304 31.9815 303.489 31.9792 303.662 31.9861C303.687 31.9871 303.711 31.9969 303.728 32.0132C303.736 32.021 303.742 32.0301 303.747 32.0399C303.748 32.0435 303.75 32.0471 303.751 32.0509C303.752 32.0547 303.753 32.0585 303.753 32.0623L303.754 32.0653V32.0742L303.747 33.7554C303.747 33.7791 303.737 33.8017 303.719 33.8191C303.702 33.8363 303.678 33.8468 303.652 33.8485C301.101 34.0534 298.8 33.6504 298.798 30.6571C298.797 28.0137 298.802 25.3702 298.814 22.7268C298.814 22.703 298.823 22.6802 298.84 22.6633C298.846 22.6565 298.854 22.6509 298.862 22.6466C298.874 22.6403 298.888 22.637 298.902 22.637L300.906 22.6218C300.929 22.6218 300.952 22.6311 300.968 22.6476C300.976 22.6557 300.983 22.6651 300.987 22.6756C300.991 22.6863 300.994 22.6979 300.994 22.7098L301.01 24.4825C301.01 24.5384 301.034 24.592 301.075 24.6317C301.117 24.6712 301.173 24.6937 301.231 24.6942L303.661 24.7043C303.685 24.7043 303.709 24.7132 303.727 24.7291C303.744 24.7449 303.754 24.7664 303.754 24.7889L303.752 26.4499C303.752 26.4722 303.743 26.4939 303.725 26.5098C303.708 26.5256 303.685 26.5346 303.661 26.5346L301.31 26.5481C301.232 26.5485 301.157 26.5779 301.101 26.6301C301.045 26.6824 301.013 26.7531 301.011 26.8274Z" fill="#061340"/>
<path fill-rule="evenodd" clip-rule="evenodd" d="M241.324 31.8529C241.323 31.8416 241.32 31.8307 241.315 31.8206C241.312 31.814 241.308 31.8077 241.304 31.8018C241.301 31.7981 241.298 31.7948 241.295 31.7915L241.292 31.7884C241.29 31.7859 241.287 31.7834 241.284 31.7813L239.893 30.6927C239.875 30.6785 239.852 30.6715 239.829 30.6735C239.805 30.6753 239.783 30.6859 239.767 30.7028C238.883 31.629 238.106 32.2265 236.706 32.0794C235.472 31.9496 234.656 31.3243 234.259 30.2034C234.255 30.1914 234.252 30.179 234.252 30.1664C234.251 30.1575 234.252 30.1485 234.253 30.1398C234.255 30.129 234.258 30.1186 234.262 30.1087C234.266 30.0988 234.271 30.0892 234.278 30.0804C234.283 30.074 234.288 30.068 234.294 30.0626C234.304 30.053 234.315 30.0449 234.328 30.0388C234.348 30.0288 234.37 30.0239 234.393 30.0239L241.629 30.0222C241.661 30.0221 241.692 30.0106 241.717 29.9901C241.741 29.9695 241.757 29.9412 241.76 29.9105C242.158 26.6192 239.832 24.0558 236.258 24.513C230.738 25.219 230.495 33.2458 236.24 33.9434C238.36 34.2018 240.048 33.5314 241.302 31.9321C241.319 31.9092 241.328 31.881 241.324 31.8529ZM236.574 26.3517C237.851 26.1806 239.21 26.8867 239.501 28.1395C239.507 28.1622 239.507 28.1855 239.501 28.2081C239.496 28.2306 239.485 28.2518 239.47 28.2698C239.455 28.2878 239.436 28.3024 239.414 28.3125C239.404 28.3174 239.392 28.321 239.381 28.3235C239.369 28.3262 239.357 28.3275 239.345 28.3275H234.669C234.376 28.3275 234.293 28.1999 234.421 27.9449C234.887 27.0137 235.605 26.4826 236.574 26.3517Z" fill="#061340"/>
<path fill-rule="evenodd" clip-rule="evenodd" d="M250.25 33.1256C250.236 32.9947 250.174 32.975 250.063 33.0664C248.532 34.348 246.307 34.3057 244.689 33.2255C242.689 31.8879 242.158 29.2587 243.089 27.1491C244.199 24.6383 247.725 23.492 250.042 25.395C250.068 25.4162 250.098 25.4306 250.125 25.4356C250.136 25.4375 250.146 25.438 250.156 25.437C250.165 25.4361 250.173 25.4336 250.18 25.4299C250.184 25.4278 250.188 25.4251 250.192 25.4222C250.263 25.3578 250.282 25.193 250.248 24.9278C250.244 24.8994 250.247 24.8704 250.255 24.843C250.259 24.8306 250.263 24.8187 250.269 24.8073C250.277 24.7934 250.286 24.7805 250.296 24.7687C250.315 24.7474 250.338 24.7302 250.364 24.7185C250.39 24.7067 250.418 24.7008 250.447 24.701L252.428 24.711C252.434 24.7112 252.44 24.7119 252.446 24.7132C252.449 24.714 252.453 24.715 252.457 24.7163C252.469 24.7208 252.481 24.7279 252.49 24.7375C252.494 24.7418 252.498 24.7466 252.502 24.7515C252.511 24.7656 252.516 24.7821 252.516 24.7992V33.6775C252.516 33.6918 252.512 33.7058 252.506 33.7182C252.501 33.7261 252.496 33.7334 252.49 33.7399C252.473 33.7564 252.45 33.7657 252.426 33.7657L250.399 33.7757C250.396 33.7757 250.392 33.7756 250.389 33.7751C250.382 33.7741 250.374 33.7721 250.367 33.7693C250.357 33.7648 250.347 33.7584 250.339 33.7501C250.322 33.7339 250.312 33.7116 250.309 33.6878L250.25 33.1256ZM249.715 31.1566C250.927 29.5938 250.368 26.6106 247.987 26.4092C246.889 26.3155 246.062 26.631 245.507 27.3556C244.535 28.6238 244.728 31.0009 246.277 31.7948C247.393 32.3654 248.928 32.1741 249.715 31.1566Z" fill="#061340"/>
<path d="M257.34 30.5014C257.973 30.7801 258.162 31.1611 257.909 31.6442C257.772 31.9061 257.552 32.0506 257.248 32.0776C256.203 32.169 255.258 31.9749 254.414 31.4952C254.404 31.4893 254.393 31.4855 254.382 31.4838C254.37 31.4823 254.359 31.4828 254.347 31.4858C254.336 31.4886 254.326 31.4937 254.317 31.5005C254.309 31.5075 254.302 31.5159 254.297 31.5257L253.497 33.0798C253.492 33.0883 253.49 33.0972 253.488 33.1063C253.487 33.1129 253.487 33.1197 253.487 33.1263C253.488 33.1332 253.489 33.1402 253.491 33.147C253.499 33.1693 253.514 33.1883 253.535 33.2C255.263 34.1787 259.01 34.6883 259.984 32.3654C261.012 29.9105 258.959 28.9207 257.093 28.0218L256.945 27.9502L256.752 27.8568C256.22 27.5977 255.594 27.1576 256.162 26.5837C256.384 26.3578 256.656 26.2631 256.978 26.2991C257.65 26.3725 258.28 26.561 258.867 26.8646C258.878 26.8702 258.889 26.8737 258.9 26.8752C258.905 26.8757 258.909 26.8758 258.913 26.8757C258.921 26.8755 258.928 26.8745 258.934 26.8727C258.945 26.8695 258.956 26.8644 258.964 26.8576C258.973 26.8507 258.98 26.8421 258.985 26.8325L259.748 25.3747C259.76 25.3522 259.763 25.3259 259.755 25.3011C259.752 25.2902 259.747 25.28 259.74 25.2705C259.731 25.2588 259.72 25.2487 259.708 25.241C257.709 24.0474 253.546 23.9983 253.782 27.3201C253.901 29.0089 255.649 29.7671 257.052 30.376C257.15 30.4185 257.246 30.4602 257.34 30.5014Z" fill="#061340"/>
<path fill-rule="evenodd" clip-rule="evenodd" d="M272.388 33.0934C272.241 32.9783 272.168 33.0122 272.168 33.1951L272.159 37.9119C272.159 37.9357 272.15 37.9585 272.133 37.9754C272.116 37.9922 272.094 38.0016 272.07 38.0016L270.029 38C270.017 38 270.006 37.9977 269.995 37.9932C269.984 37.9889 269.975 37.9823 269.967 37.9742C269.958 37.9659 269.952 37.9563 269.948 37.9456C269.943 37.935 269.941 37.9234 269.941 37.9119C269.917 33.8983 269.917 30.9901 269.939 29.1876C269.981 25.8167 272.639 23.9017 275.978 24.6027C279.341 25.3087 280.707 28.6729 279.285 31.5409C278.05 34.0281 274.612 34.8288 272.388 33.0934ZM275.22 26.4058C270.727 25.8064 271.331 33.5049 275.837 31.9253C278.383 31.0348 278.072 26.7851 275.22 26.4058Z" fill="#061340"/>
<path fill-rule="evenodd" clip-rule="evenodd" d="M284.381 24.596C279.67 25.5576 279.3 32.2927 283.852 33.7503C288.215 35.1471 291.951 31.3175 290.188 27.2338C289.215 24.9837 286.812 24.0998 284.381 24.596ZM283.298 30.8028C282.147 28.6729 283.637 25.7201 286.399 26.4719C288.182 26.956 288.644 28.8422 288.118 30.4099C287.424 32.4823 284.346 32.7396 283.298 30.8028Z" fill="#061340"/>
<path d="M291.895 25.5255C293.104 23.9559 295.762 24.3352 297.283 25.2426C297.303 25.255 297.319 25.2743 297.325 25.297C297.332 25.3197 297.329 25.3438 297.318 25.3646L296.56 26.8342C296.555 26.8439 296.549 26.8525 296.54 26.8596C296.537 26.8624 296.533 26.8651 296.529 26.8674C296.523 26.8707 296.517 26.8733 296.51 26.8753C296.499 26.8786 296.487 26.8798 296.475 26.879C296.463 26.878 296.452 26.8748 296.441 26.8697C295.78 26.5547 293.999 25.8218 293.587 26.7902C293.403 27.227 293.698 27.5436 294.104 27.745C294.188 27.7867 294.273 27.8283 294.36 27.8702C294.471 27.9234 294.584 27.977 294.699 28.0314C296.237 28.7585 298.05 29.6157 297.791 31.5696C297.376 34.7036 293.125 34.3176 291.116 33.2103C291.094 33.1984 291.078 33.1797 291.07 33.1577C291.066 33.1463 291.065 33.1346 291.065 33.123C291.066 33.1122 291.069 33.1017 291.074 33.0917L291.866 31.5308C291.872 31.5209 291.879 31.5123 291.888 31.5053C291.897 31.4984 291.907 31.4932 291.918 31.4903C291.93 31.4871 291.942 31.4865 291.954 31.4878C291.966 31.4893 291.977 31.4929 291.988 31.4985C292.876 31.9608 293.821 32.2452 294.825 32.0404C295.671 31.8694 295.852 31.1059 295.103 30.6165C294.727 30.3714 294.305 30.1818 293.881 29.9915C292.935 29.5664 291.981 29.138 291.522 28.082C291.139 27.1971 291.263 26.3449 291.895 25.5255Z" fill="#061340"/>
<path d="M267.655 24.7821L265.423 30.906C265.416 30.9255 265.406 30.9435 265.394 30.9592C265.389 30.9653 265.384 30.9711 265.379 30.9764C265.359 30.9956 265.337 31.0091 265.312 31.0161C265.168 31.0567 265.067 31.0048 265.01 30.8603C264.664 30.0059 263.898 27.9753 262.71 24.7686C262.702 24.7454 262.686 24.7253 262.665 24.711C262.644 24.6968 262.62 24.689 262.594 24.689L260.348 24.6874L260.339 24.6879C260.332 24.6887 260.326 24.6907 260.32 24.6937C260.311 24.6981 260.304 24.7044 260.298 24.7122C260.295 24.7162 260.293 24.7203 260.291 24.7248C260.29 24.7292 260.288 24.7339 260.288 24.7387C260.287 24.7482 260.288 24.7578 260.291 24.7669L263.937 33.7283C263.954 33.7698 263.961 33.8141 263.958 33.8583C263.956 33.8809 263.952 33.9032 263.945 33.9249C263.939 33.9454 263.931 33.9652 263.92 33.9841C263.382 34.9321 261.939 35.7415 260.959 36.1968C260.94 36.2056 260.924 36.2178 260.91 36.2329C260.896 36.2479 260.885 36.2654 260.878 36.2846C260.872 36.3038 260.869 36.324 260.87 36.344C260.872 36.3641 260.878 36.3838 260.887 36.4017L261.719 37.9712C261.727 37.9871 261.74 38.0003 261.756 38.0094C261.761 38.0122 261.766 38.0145 261.771 38.0164C261.794 38.0246 261.819 38.0241 261.842 38.0152C264.097 37.1247 265.657 35.76 266.548 33.5353C267.047 32.2882 268.192 29.3693 269.983 24.7788C269.985 24.774 269.986 24.7692 269.986 24.7643C269.987 24.7598 269.987 24.7552 269.986 24.7507C269.985 24.7413 269.981 24.7322 269.976 24.7244C269.97 24.7167 269.962 24.7102 269.954 24.7059C269.95 24.7039 269.946 24.7024 269.942 24.7013C269.936 24.7 269.931 24.6991 269.925 24.6991L267.786 24.6907C267.757 24.6909 267.73 24.6996 267.706 24.716C267.696 24.7236 267.686 24.7327 267.678 24.7428C267.668 24.7545 267.661 24.7679 267.655 24.7821Z" fill="#061340"/>
</svg>
