<svg width="311" height="53" viewBox="0 0 311 53" fill="none" xmlns="http://www.w3.org/2000/svg">
<path d="M121.691 26.7424H196.116" stroke="#B0B0B0" stroke-width="0.57031" stroke-dasharray="3.42 3.42"/>
<path d="M170.167 26.7424C170.167 20.4429 165.061 15.3362 158.761 15.3362C152.462 15.3362 147.355 20.4429 147.355 26.7424C147.355 33.0419 152.462 38.1486 158.761 38.1486C165.061 38.1486 170.167 33.0419 170.167 26.7424Z" fill="#3EA76A"/>
<path d="M155.904 26.1721L153.628 28.4533L155.904 30.7346V29.0237H159.902V27.883H155.904V26.1721ZM163.894 25.0315L161.618 22.7502V24.4612H157.62V25.6018H161.618V27.3127L163.894 25.0315Z" fill="white"/>
<path d="M221.36 15.375H221.827C222.21 15.3889 222.591 15.4187 222.971 15.4643C224.889 15.6943 226.633 16.3663 228.203 17.4804C229.161 18.1601 229.982 18.9543 230.666 19.8629C232.107 21.7766 232.879 23.9332 232.982 26.3327C232.995 26.629 232.994 26.9251 232.98 27.2209C232.871 29.4942 232.158 31.5505 230.842 33.3896C230.671 33.6288 230.488 33.8615 230.293 34.0877C228.448 36.2275 226.104 37.5289 223.26 37.9916C223.237 37.9874 223.229 37.972 223.238 37.9454C223.457 37.2858 223.68 36.6271 223.905 35.9692C223.925 35.9124 223.939 35.8797 223.949 35.8711C225.616 35.4241 227.055 34.6037 228.265 33.41C228.477 33.2004 228.678 32.9824 228.866 32.7559C229.913 31.4973 230.586 30.0516 230.884 28.4185C231.062 27.4419 231.083 26.4616 230.947 25.4778C230.708 23.7453 230.044 22.1979 228.956 20.8354C228.945 20.8251 228.943 20.8156 228.948 20.807C228.952 20.7999 228.955 20.7941 228.955 20.7941C229.183 20.1244 229.409 19.454 229.634 18.7829C229.651 18.7331 229.641 18.7268 229.603 18.7638C225.048 23.3008 220.49 27.8433 215.932 32.3913C215.782 32.5405 215.573 32.7507 215.305 33.0219C214.722 33.6116 214.133 34.195 213.537 34.772C212.932 34.1873 212.406 33.5382 211.96 32.8247C210.887 31.1091 210.304 29.2365 210.211 27.2071V26.2412C210.371 23.5036 211.361 21.1204 213.179 19.0915C213.711 18.4979 214.301 17.9696 214.951 17.5066C216.253 16.5779 217.669 15.9525 219.199 15.6303C219.863 15.4906 220.584 15.4055 221.36 15.375ZM216.011 19.119C215.68 19.3574 215.339 19.6497 214.986 19.9961C213.739 21.2197 212.891 22.6847 212.44 24.3912C212.434 24.416 212.443 24.4243 212.468 24.416L227.502 19.4077C227.517 19.4027 227.519 19.3951 227.506 19.385C225.883 18.1064 224.045 17.4176 221.992 17.3187C221.693 17.3045 221.397 17.3051 221.102 17.3205C219.232 17.4188 217.535 18.0183 216.011 19.119Z" fill="#632CFF"/>
<path d="M228.955 20.8335C228.937 20.8459 228.926 20.8621 228.923 20.8819C228.919 20.9053 228.917 20.9183 228.916 20.921C227.26 25.8873 225.605 30.8537 223.95 35.8203C223.95 35.8227 223.946 35.8294 223.94 35.8403C223.934 35.8519 223.937 35.8615 223.949 35.8692C223.939 35.8778 223.924 35.9105 223.905 35.9673C223.68 36.6251 223.457 37.2839 223.238 37.9435C223.229 37.9701 223.237 37.9855 223.26 37.9897L222.222 38.11H221.266C218.243 37.9845 215.667 36.8712 213.537 34.7701C214.132 34.1931 214.722 33.6097 215.305 33.02C215.573 32.7488 215.782 32.5386 215.932 32.3894C220.49 27.8414 225.048 23.2989 229.603 18.7619C229.64 18.7249 229.651 18.7312 229.634 18.781C229.409 19.4521 229.183 20.1225 228.955 20.7922C228.955 20.7922 228.952 20.798 228.948 20.8051C228.943 20.8137 228.945 20.8231 228.955 20.8335Z" fill="#30177F"/>
<path d="M254.376 19.9947C254.625 19.8186 254.9 19.7573 255.199 19.8109C255.442 19.8547 255.648 19.9585 255.817 20.1222C256.004 20.3048 256.104 20.529 256.115 20.7945C256.126 21.0669 256.054 21.3045 255.899 21.5073C255.733 21.7228 255.499 21.8544 255.195 21.9021C254.962 21.9385 254.734 21.9043 254.511 21.7995C254.156 21.6325 253.963 21.3456 253.93 20.9388C253.914 20.7369 253.945 20.555 254.023 20.3931C254.096 20.2421 254.214 20.1093 254.376 19.9947Z" fill="#1E1E4C"/>
<path fill-rule="evenodd" clip-rule="evenodd" d="M295.341 29.8015C295.133 30.1029 294.863 30.3514 294.53 30.5471C294.243 30.7156 293.939 30.8186 293.619 30.8562C293.333 30.89 293.038 30.8774 292.733 30.8185C292.149 30.706 291.679 30.4059 291.322 29.9183C291.06 29.5589 290.87 29.1498 290.752 28.6909C290.687 28.4419 290.637 28.1501 290.602 27.8156C290.541 27.2489 290.553 26.6813 290.638 26.1125C290.747 25.3866 291.012 24.7548 291.434 24.2172C291.765 23.795 292.187 23.5096 292.698 23.361C292.985 23.2781 293.278 23.2427 293.578 23.2549C294.214 23.2812 294.772 23.5264 295.25 23.9903C295.279 24.0187 295.294 24.0125 295.294 23.9716L295.291 20.3946C295.291 20.3921 295.292 20.3896 295.293 20.3873V20.3862L295.294 20.3843L295.297 20.3813C295.299 20.3796 295.301 20.3784 295.304 20.3776L295.307 20.3769L295.311 20.3768L297.021 20.5606C297.027 20.5613 297.032 20.5638 297.035 20.5678C297.039 20.5717 297.041 20.5767 297.041 20.582C297.053 21.7659 297.054 22.9499 297.045 24.1342C297.042 24.4367 297.042 24.7328 297.044 25.0223C297.054 26.4138 297.053 27.8052 297.041 29.1967C297.041 29.2624 297.044 29.5084 297.051 29.9347C297.055 30.1734 297.05 30.412 297.036 30.6506C297.036 30.6529 297.036 30.6552 297.035 30.6573L297.033 30.6622C297.033 30.6622 297.031 30.6653 297.029 30.6667C297.025 30.6709 297.019 30.6732 297.013 30.6732L295.528 30.6759C295.519 30.6759 295.51 30.6726 295.504 30.6666C295.497 30.6606 295.493 30.6524 295.492 30.6435L295.378 29.81C295.374 29.775 295.361 29.7722 295.341 29.8015ZM293.03 29.2797C293.272 29.4772 293.563 29.5651 293.901 29.5435C294.331 29.5163 294.681 29.3506 294.949 29.0466C295.097 28.8787 295.207 28.7433 295.279 28.6402C295.287 28.6287 295.291 28.6147 295.291 28.6003V25.3629C295.291 25.3365 295.282 25.3109 295.265 25.2905C295.133 25.1292 294.977 24.9824 294.799 24.85C294.501 24.6283 294.164 24.5358 293.79 24.5725C293.357 24.6151 293.029 24.8207 292.806 25.1893C292.705 25.3566 292.63 25.5247 292.58 25.6938C292.516 25.909 292.471 26.1319 292.445 26.3626C292.423 26.5579 292.411 26.784 292.408 27.0407C292.403 27.5268 292.455 28.008 292.564 28.4844C292.642 28.8248 292.797 29.0899 293.03 29.2797Z" fill="#1E1E4C"/>
<path fill-rule="evenodd" clip-rule="evenodd" d="M248.553 24.2691C248.52 24.3097 248.504 24.3041 248.504 24.2523L248.509 20.4287C248.509 20.4247 248.508 20.4206 248.507 20.4169C248.506 20.4152 248.505 20.4136 248.504 20.4121L248.502 20.4097L248.499 20.407C248.496 20.4043 248.493 20.4022 248.489 20.4008C248.485 20.3995 248.481 20.3991 248.477 20.3994L246.781 20.5731C246.774 20.5738 246.767 20.5773 246.762 20.5827C246.757 20.5881 246.755 20.5951 246.755 20.6024V30.6373C246.755 30.6424 246.756 30.6475 246.758 30.6522C246.76 30.657 246.762 30.6613 246.766 30.6649C246.77 30.6685 246.774 30.6714 246.779 30.6734C246.781 30.6741 246.783 30.6748 246.785 30.6753L246.786 30.6756L246.789 30.676L246.791 30.6763H246.792H246.794H248.47C248.481 30.6763 248.491 30.6723 248.498 30.665C248.505 30.6578 248.51 30.648 248.51 30.6377L248.512 25.6578C248.512 25.6433 248.516 25.6293 248.524 25.6174C248.67 25.3868 248.869 25.1589 249.121 24.9339C249.362 24.7193 249.628 24.5981 249.921 24.5702C250.124 24.5507 250.302 24.5754 250.452 24.6444C250.637 24.7294 250.762 24.8749 250.826 25.0809C250.892 25.2938 250.923 25.5481 250.919 25.8439C250.916 25.9922 250.915 26.0683 250.915 26.0721V30.6404C250.915 30.6429 250.915 30.6454 250.916 30.6478C250.916 30.65 250.917 30.6521 250.918 30.6541C250.92 30.6585 250.922 30.6625 250.926 30.6658C250.929 30.6692 250.933 30.6718 250.937 30.6736C250.942 30.6754 250.946 30.6763 250.951 30.6763H252.632C252.636 30.6763 252.64 30.6756 252.643 30.6741C252.647 30.6726 252.65 30.6704 252.653 30.6676C252.655 30.6655 252.657 30.6632 252.658 30.6606L252.659 30.658C252.661 30.6544 252.662 30.6505 252.662 30.6466C252.662 28.9271 252.662 27.2088 252.664 25.4917C252.664 25.1589 252.625 24.8675 252.548 24.6173C252.294 23.7975 251.728 23.3461 250.848 23.2629C250.363 23.217 249.905 23.3033 249.473 23.5218C249.113 23.7041 248.806 23.9533 248.553 24.2691ZM248.48 30.6286L248.479 30.6248C248.479 30.6278 248.481 30.63 248.484 30.63H248.485C248.488 30.63 248.49 30.6276 248.49 30.6246L248.489 30.6286L248.485 30.63H248.484L248.48 30.6286Z" fill="#1E1E4C"/>
<path d="M240.436 29.3009C240.564 29.1577 240.692 29.0182 240.821 28.8826C240.825 28.878 240.831 28.8752 240.837 28.8747C240.844 28.8742 240.85 28.8761 240.855 28.88C241.507 29.3886 242.25 29.6173 243.083 29.5661C243.238 29.5566 243.399 29.5113 243.566 29.4302C243.747 29.3422 243.876 29.2425 243.953 29.1309C244.055 28.9846 244.095 28.8077 244.074 28.6002C244.053 28.3992 243.981 28.2371 243.856 28.1139C243.781 28.0384 243.635 27.9561 243.418 27.867C243.077 27.727 242.714 27.605 242.327 27.5011C241.994 27.4114 241.663 27.2742 241.336 27.0894C240.719 26.7413 240.378 26.2349 240.311 25.5702C240.284 25.2984 240.304 25.0484 240.37 24.8202C240.442 24.5703 240.567 24.3455 240.745 24.1456C240.973 23.888 241.252 23.6878 241.58 23.5448C241.827 23.437 242.082 23.3606 242.344 23.3156C242.581 23.2748 242.845 23.2543 243.135 23.2543C244.046 23.2549 244.875 23.5328 245.622 24.0879C245.631 24.0944 245.637 24.1042 245.639 24.1152C245.641 24.1262 245.638 24.1376 245.632 24.1469L244.993 25.1026C244.987 25.1128 244.976 25.1198 244.964 25.1223C244.952 25.1248 244.94 25.1225 244.929 25.1159C244.563 24.8809 244.17 24.7143 243.751 24.6163C243.399 24.5343 243.047 24.5311 242.695 24.6066C242.569 24.6332 242.455 24.6804 242.351 24.7482C242.241 24.8205 242.161 24.9105 242.112 25.0182C242.055 25.1444 242.042 25.2762 242.071 25.4139C242.121 25.6478 242.265 25.8192 242.502 25.9282C242.836 26.0818 243.182 26.2033 243.539 26.2927C243.9 26.3833 244.25 26.5077 244.587 26.6658C244.8 26.7655 244.997 26.8871 245.18 27.0304C245.378 27.1864 245.53 27.3576 245.635 27.5442C245.738 27.7262 245.808 27.9209 245.845 28.1281C245.879 28.3179 245.891 28.522 245.881 28.7405C245.855 29.295 245.634 29.7544 245.217 30.1185C245.001 30.3065 244.749 30.4606 244.459 30.5808C244.21 30.6841 243.928 30.7609 243.611 30.8113C242.987 30.9107 242.361 30.8897 241.734 30.7482C241.083 30.6017 240.502 30.3136 239.992 29.884C239.984 29.8769 239.979 29.8668 239.978 29.8559C239.977 29.845 239.98 29.8342 239.987 29.8258C240.143 29.6367 240.293 29.4617 240.436 29.3009Z" fill="#1E1E4C"/>
<path fill-rule="evenodd" clip-rule="evenodd" d="M259.214 33.4196L259.217 30.1463C259.217 30.1108 259.229 30.1059 259.254 30.1316C259.582 30.4745 259.959 30.6977 260.388 30.8013C260.667 30.8691 260.962 30.8921 261.272 30.8702C261.668 30.8426 262.03 30.7252 262.36 30.518C262.944 30.1503 263.352 29.6213 263.585 28.9309C263.779 28.3559 263.88 27.7681 263.887 27.1674C263.89 26.8625 263.878 26.5669 263.851 26.2806C263.823 25.9931 263.772 25.6894 263.697 25.3693C263.582 24.8752 263.379 24.4419 263.089 24.0695C262.934 23.8703 262.753 23.7105 262.548 23.5903C262.23 23.4035 261.886 23.2947 261.516 23.2639C261.241 23.2408 260.975 23.2534 260.72 23.3017C260.454 23.352 260.202 23.4465 259.963 23.585C259.653 23.7644 259.373 24.0051 259.123 24.3071C259.102 24.3325 259.09 24.3288 259.086 24.296L258.999 23.4873C258.998 23.4805 258.995 23.4741 258.99 23.4695C258.985 23.465 258.978 23.4624 258.972 23.4624H257.493C257.487 23.4624 257.481 23.4648 257.477 23.4689C257.473 23.4731 257.47 23.4788 257.47 23.4846L257.468 33.611C257.468 33.6145 257.468 33.618 257.47 33.6212C257.471 33.6245 257.473 33.6274 257.476 33.6298C257.479 33.6321 257.482 33.6339 257.485 33.6351C257.488 33.6362 257.492 33.6366 257.496 33.6363L259.185 33.4525C259.193 33.4516 259.2 33.4478 259.206 33.4417C259.211 33.4357 259.214 33.4278 259.214 33.4196ZM260.775 29.5193C260.311 29.5959 259.889 29.4686 259.51 29.1374C259.42 29.0589 259.332 28.9523 259.245 28.8176C259.225 28.7869 259.214 28.751 259.214 28.7141V25.5945C259.214 25.5684 259.222 25.5428 259.236 25.5208C259.434 25.2066 259.681 24.9587 259.976 24.7769C260.278 24.591 260.592 24.5265 260.92 24.5833C261.122 24.6185 261.298 24.6994 261.446 24.8258C261.598 24.956 261.714 25.1189 261.794 25.3143C261.884 25.536 261.946 25.7654 261.98 26.0026C262.063 26.5929 262.075 27.1849 262.016 27.7785C261.986 28.089 261.913 28.3892 261.799 28.6791C261.708 28.91 261.572 29.0998 261.392 29.2484C261.222 29.389 261.016 29.4793 260.775 29.5193Z" fill="#1E1E4C"/>
<path d="M266.699 24.3369C266.706 24.3857 266.724 24.3905 266.753 24.3511C266.944 24.0855 267.169 23.8641 267.427 23.6868C267.834 23.4067 268.275 23.2619 268.75 23.2524C269.067 23.2462 269.355 23.3037 269.614 23.4247C270.037 23.6219 270.345 23.9554 270.539 24.4253C270.551 24.4528 270.566 24.4546 270.583 24.4306C270.76 24.1887 270.963 23.9756 271.194 23.7911C271.441 23.5942 271.695 23.4527 271.957 23.3666C272.264 23.2662 272.585 23.2295 272.92 23.2564C273.398 23.2949 273.783 23.4745 274.074 23.7951C274.299 24.0426 274.451 24.3156 274.533 24.614C274.61 24.8976 274.649 25.2085 274.648 25.5466C274.645 27.2376 274.644 28.9371 274.644 30.6451C274.644 30.6532 274.641 30.661 274.635 30.6667C274.629 30.6725 274.621 30.6757 274.613 30.6757H272.923C272.916 30.6757 272.91 30.673 272.905 30.6681C272.9 30.6633 272.897 30.6568 272.897 30.6499C272.903 29.0119 272.9 27.383 272.888 25.7633C272.887 25.562 272.879 25.4181 272.864 25.3316C272.839 25.1803 272.793 25.0419 272.728 24.9164C272.623 24.7148 272.449 24.5992 272.208 24.5696C272.038 24.5489 271.871 24.569 271.708 24.63C271.574 24.68 271.439 24.7706 271.303 24.9018C271.085 25.1099 270.902 25.3501 270.752 25.6225C270.742 25.6412 270.737 25.6605 270.737 25.6807V30.6513C270.737 30.6545 270.736 30.6577 270.735 30.6606L270.734 30.6624L270.733 30.6641L270.731 30.6672L270.729 30.6685L270.726 30.6711L270.724 30.6729L270.721 30.6738C270.721 30.6738 270.718 30.675 270.716 30.6753L270.712 30.6757H269.011C269.007 30.6757 269.003 30.6749 269 30.6735C268.996 30.672 268.993 30.6698 268.99 30.6671C268.987 30.6644 268.985 30.6612 268.984 30.6576L268.982 30.6526C268.982 30.6506 268.982 30.6485 268.982 30.6464V25.9018C268.982 25.6819 268.968 25.4865 268.941 25.3156C268.905 25.0906 268.84 24.9213 268.746 24.8076C268.62 24.656 268.442 24.5739 268.211 24.5611C268.147 24.5576 268.059 24.5668 267.946 24.5887C267.852 24.6067 267.769 24.6353 267.696 24.6744C267.469 24.7967 267.269 24.9792 267.099 25.2219C266.963 25.4144 266.872 25.5495 266.824 25.6274C266.816 25.6396 266.812 25.6537 266.812 25.6682V30.6317C266.812 30.6375 266.811 30.6432 266.809 30.6486L266.806 30.6535C266.805 30.6569 266.802 30.66 266.799 30.6628C266.797 30.6652 266.794 30.6673 266.791 30.6691C266.789 30.6703 266.787 30.6714 266.785 30.6723C266.78 30.6746 266.774 30.6757 266.768 30.6757H265.088C265.085 30.6757 265.082 30.6751 265.079 30.674C265.077 30.6729 265.074 30.6713 265.072 30.6692C265.07 30.6671 265.069 30.6647 265.067 30.662C265.066 30.6593 265.066 30.6564 265.066 30.6535V23.4967C265.066 23.4868 265.07 23.4773 265.077 23.4703C265.084 23.4633 265.093 23.4594 265.103 23.4594H266.533C266.544 23.4593 266.555 23.4632 266.564 23.4703C266.572 23.4774 266.578 23.4873 266.579 23.498L266.699 24.3369Z" fill="#1E1E4C"/>
<path fill-rule="evenodd" clip-rule="evenodd" d="M275.985 28.9146C276.126 29.2737 276.326 29.5962 276.585 29.8822C276.775 30.0924 276.982 30.2637 277.205 30.396C277.687 30.6811 278.217 30.8386 278.794 30.8685C279.187 30.8887 279.546 30.8644 279.87 30.7957C280.653 30.629 281.273 30.2351 281.732 29.614C281.899 29.3875 282.039 29.1277 282.151 28.8346C282.35 28.313 282.455 27.7538 282.465 27.1569C282.474 26.6148 282.411 26.1015 282.277 25.6168C282.191 25.3045 282.079 25.0311 281.942 24.7966C281.75 24.4677 281.503 24.1799 281.201 23.9333C280.836 23.6346 280.408 23.4361 279.917 23.3378C279.264 23.2073 278.634 23.2269 278.027 23.3969C277.73 23.4801 277.46 23.5989 277.216 23.7535C276.681 24.0922 276.289 24.5577 276.037 25.1501C275.756 25.8133 275.632 26.5111 275.665 27.2435C275.679 27.5496 275.708 27.8318 275.753 28.0899C275.802 28.3715 275.88 28.6464 275.985 28.9146ZM278.903 29.547C278.64 29.5265 278.4 29.4321 278.183 29.2636C277.99 29.1141 277.849 28.9257 277.76 28.6983C277.692 28.5257 277.642 28.3484 277.609 28.1663C277.552 27.8587 277.521 27.5495 277.513 27.2386C277.506 26.9648 277.511 26.7254 277.528 26.5205C277.547 26.2887 277.586 26.0522 277.645 25.8109C277.72 25.5042 277.852 25.2358 278.04 25.0058C278.24 24.7607 278.521 24.6214 278.883 24.5879C279.609 24.5207 280.105 24.8117 280.371 25.461C280.471 25.7076 280.54 25.9714 280.577 26.2523C280.605 26.4735 280.621 26.7436 280.622 27.0628C280.625 27.4145 280.596 27.7595 280.537 28.0979C280.502 28.3031 280.437 28.5084 280.343 28.7139C280.227 28.9673 280.078 29.1631 279.897 29.3014C279.75 29.413 279.591 29.4861 279.418 29.5208C279.259 29.5524 279.087 29.5612 278.903 29.547Z" fill="#1E1E4C"/>
<path d="M285.203 24.3698C285.207 24.3947 285.216 24.3975 285.231 24.3783C285.353 24.2252 285.486 24.0827 285.628 23.9506C285.778 23.8121 285.934 23.6969 286.094 23.6051C286.501 23.3724 286.938 23.2545 287.405 23.2512C287.73 23.2488 288.021 23.2978 288.277 23.3982C288.722 23.5717 289.049 23.8889 289.259 24.3499C289.361 24.5734 289.424 24.8315 289.451 25.1243C289.472 25.3544 289.481 25.7281 289.48 26.2456C289.475 27.7037 289.473 29.1656 289.473 30.6314C289.473 30.6371 289.472 30.6429 289.47 30.6482C289.468 30.6535 289.464 30.6584 289.46 30.6625C289.456 30.6665 289.451 30.6698 289.446 30.672C289.441 30.6742 289.435 30.6753 289.429 30.6753H287.746C287.738 30.6753 287.73 30.6721 287.724 30.6664C287.719 30.6606 287.715 30.6528 287.715 30.6447C287.715 28.9667 287.715 27.2968 287.713 25.635C287.713 25.5193 287.703 25.4044 287.683 25.2904C287.593 24.7658 287.274 24.5254 286.725 24.5692C286.474 24.5894 286.253 24.6723 286.062 24.8179C285.784 25.029 285.543 25.2966 285.337 25.6208C285.321 25.6463 285.312 25.6761 285.312 25.7065L285.31 30.6442C285.31 30.6525 285.306 30.6604 285.301 30.6662C285.295 30.6721 285.287 30.6753 285.278 30.6753H283.605H283.604L283.602 30.6752C283.6 30.6751 283.599 30.6749 283.597 30.6745C283.595 30.674 283.592 30.6733 283.59 30.6724C283.588 30.6714 283.586 30.6703 283.584 30.669C283.581 30.6676 283.579 30.6658 283.577 30.6639C283.574 30.6603 283.571 30.656 283.569 30.6512C283.567 30.6465 283.566 30.6414 283.566 30.6363V23.495C283.566 23.4855 283.57 23.4763 283.576 23.4696C283.583 23.4628 283.592 23.459 283.602 23.459H285.032C285.044 23.4591 285.055 23.4632 285.065 23.4708C285.074 23.4784 285.079 23.4889 285.081 23.5003L285.203 24.3698Z" fill="#1E1E4C"/>
<path fill-rule="evenodd" clip-rule="evenodd" d="M300.776 23.3256C300.05 23.4615 299.454 23.8066 298.986 24.3608C298.822 24.5556 298.68 24.7833 298.559 25.0438C298.34 25.5157 298.208 25.9977 298.163 26.4897C298.131 26.8334 298.13 27.2072 298.161 27.611C298.206 28.1859 298.353 28.7181 298.602 29.2075C298.997 29.982 299.614 30.4878 300.455 30.7249C300.895 30.849 301.342 30.8943 301.799 30.8608C302.999 30.7732 303.872 30.2404 304.417 29.2625C304.555 29.015 304.666 28.7413 304.752 28.4414C304.866 28.0433 304.927 27.6368 304.936 27.222C304.942 26.92 304.929 26.6244 304.897 26.3352C304.84 25.8257 304.7 25.3526 304.478 24.9159C304.198 24.3676 303.791 23.9457 303.256 23.6503C303.005 23.5123 302.728 23.4102 302.424 23.3438C301.886 23.2266 301.336 23.2205 300.776 23.3256ZM301.276 29.5388C301.023 29.5056 300.799 29.4042 300.606 29.2346C300.367 29.0244 300.206 28.7434 300.124 28.3917C300.006 27.8801 299.957 27.3634 299.978 26.8414C299.988 26.6096 300.002 26.4198 300.022 26.2721C300.046 26.0918 300.086 25.9053 300.142 25.7126C300.195 25.5266 300.262 25.3653 300.344 25.2285C300.508 24.9514 300.728 24.7627 301.004 24.6623C301.262 24.5679 301.536 24.5436 301.825 24.5895C302.174 24.6449 302.454 24.8277 302.664 25.1379C302.803 25.3434 302.905 25.5771 302.97 25.8391C303.015 26.0227 303.05 26.2724 303.075 26.5883C303.119 27.1387 303.091 27.672 302.99 28.1883C302.941 28.4367 302.839 28.6876 302.684 28.941C302.51 29.2241 302.277 29.4073 301.985 29.4908C301.76 29.5553 301.524 29.5713 301.276 29.5388Z" fill="#1E1E4C"/>
<path d="M255.887 23.4594H254.164C254.158 23.4594 254.152 23.4648 254.152 23.4714V30.6637C254.152 30.6704 254.158 30.6757 254.164 30.6757H255.887C255.894 30.6757 255.899 30.6704 255.899 30.6637V23.4714C255.899 23.4648 255.894 23.4594 255.887 23.4594Z" fill="#1E1E4C"/>
<g clip-path="url(#clip0_1_27)">
<path d="M15.3101 29.3438V34.1116C15.3101 34.2732 15.2309 34.4348 15.1516 34.5156C15.0724 34.5964 14.9138 34.6772 14.7553 34.6772H10.5548C10.3963 34.6772 10.2378 34.5964 10.1585 34.5156C10.0793 34.4348 10 34.2732 10 34.1116V20.1315C10 19.9699 10.0793 19.8082 10.1585 19.7274C10.2378 19.6466 10.3963 19.5658 10.5548 19.5658H20.0654C21.7298 19.5658 22.9979 19.9699 24.0282 20.6972C25.0586 21.5053 25.6134 22.5558 25.6134 23.8487C25.6134 25.3033 25.1378 26.3538 24.266 27.0811C24.0282 27.2427 23.7905 27.4043 23.5527 27.566C23.2357 27.7276 22.9187 27.8084 22.6016 27.97C22.9979 28.2125 23.3149 28.4549 23.632 28.6973C23.949 28.9398 24.1868 29.1822 24.3453 29.5054L26.9607 33.9499C27.1192 34.1924 27.1192 34.354 26.9607 34.5964C26.8815 34.758 26.6437 34.8389 26.4059 34.8389H21.5713C21.4921 34.8389 21.3335 34.8389 21.2543 34.758C21.175 34.6772 21.0958 34.5964 21.0165 34.5156L18.5596 29.9094C18.4804 29.8286 18.4804 29.7478 18.4011 29.7478C18.3219 29.667 18.3219 29.667 18.2426 29.5862C18.1633 29.5054 17.7671 29.5054 17.0538 29.5054H15.3101V29.3438ZM15.2309 23.0406V25.9498H17.5293C18.4804 25.9498 19.1937 25.869 19.6692 25.6265C20.1447 25.3841 20.3825 24.9801 20.3825 24.4144C20.3825 23.9295 20.224 23.6063 19.8277 23.3639C19.4314 23.1214 18.9559 23.0406 18.2426 23.0406H15.2309Z" fill="black"/>
<path d="M28.4665 34.758C28.308 34.758 28.1495 34.6772 28.0702 34.5964C27.9909 34.5156 27.9117 34.354 27.9117 34.1924V20.1315C27.9117 19.9699 27.9909 19.8082 28.0702 19.7274C28.1495 19.6466 28.308 19.5658 28.4665 19.5658H39.5623C39.7208 19.5658 39.8792 19.6466 39.9586 19.7274C40.0378 19.8082 40.1171 19.9699 40.1171 20.1315V22.9598C40.1171 23.1214 40.0378 23.2831 39.9586 23.3639C39.8792 23.4447 39.7208 23.5255 39.5623 23.5255H33.1425V25.0609H38.6112C38.7697 25.0609 38.9282 25.1417 39.0075 25.2225C39.0867 25.3033 39.166 25.4649 39.166 25.6265V28.4549C39.166 28.6165 39.0867 28.7782 39.0075 28.859C38.9282 28.9398 38.7697 29.0206 38.6112 29.0206H33.1425V30.6367H40.0378C40.1963 30.6367 40.3548 30.7175 40.4341 30.7984C40.5133 30.8792 40.5925 31.0408 40.5925 31.2024V34.0307C40.5925 34.1924 40.5133 34.354 40.4341 34.4348C40.3548 34.5156 40.1963 34.5964 40.0378 34.5964H28.4665V34.758Z" fill="black"/>
<path d="M51.8469 20.131C51.8469 19.9694 51.9262 19.8078 52.0055 19.727C52.0847 19.6462 52.2432 19.5654 52.4017 19.5654H56.2852C56.4437 19.5654 56.6023 19.6462 56.6816 19.727C56.7608 19.8078 56.84 19.9694 56.84 20.131V29.9898C56.84 31.8485 56.1267 33.2222 54.7002 33.9495C53.4321 34.6768 51.5299 35 49.073 35C46.5368 35 44.6346 34.6768 43.4458 33.9495C42.0985 33.1414 41.3852 31.7676 41.3852 29.7474V20.0502C41.3852 19.8886 41.4644 19.727 41.5437 19.6462C41.623 19.5654 41.7815 19.4846 41.94 19.4846H45.8235C45.982 19.4846 46.1406 19.5654 46.2198 19.6462C46.299 19.727 46.3783 19.8886 46.3783 20.0502V28.0504C46.3783 28.9393 46.616 29.5858 47.0123 29.9898C47.4087 30.3938 48.1219 30.5555 49.073 30.5555C50.0241 30.5555 50.6581 30.3938 51.0544 29.9898C51.4507 29.5858 51.6884 28.9393 51.6884 28.0504V20.131H51.8469Z" fill="black"/>
<path d="M70.3135 32.0103C69.9965 32.6568 69.5209 33.2225 68.9661 33.6266C68.4113 34.0306 67.698 34.3538 66.8262 34.5962C65.9545 34.8387 65.0826 34.9195 64.0523 34.9195C63.4975 34.9195 62.9427 34.9195 62.3879 34.8387C61.8331 34.7579 61.2783 34.7579 60.7236 34.5962C60.565 34.5962 60.4858 34.5154 60.4065 34.5154C60.3273 34.5154 60.248 34.5154 60.0895 34.4346C59.6932 34.3538 59.3762 34.273 59.1384 34.273C58.9007 34.1922 58.6629 34.1922 58.5044 34.1114C58.4251 34.1114 58.2666 34.0306 58.1874 33.9498C58.1081 33.869 58.0289 33.7074 58.0289 33.6266L57.7118 29.9093C57.7118 29.6669 57.7911 29.5053 57.9496 29.3436C58.1081 29.182 58.3459 29.182 58.5044 29.3436C59.1384 29.6669 60.0103 29.9901 61.1198 30.3942C62.2294 30.7982 63.2598 30.9598 64.2108 30.9598C64.7656 30.9598 65.2412 30.879 65.5581 30.7174C65.8752 30.5558 66.113 30.3942 66.113 30.071C66.113 29.9093 66.0337 29.7477 65.7959 29.6669C65.4789 29.4245 64.6864 29.2628 63.5768 29.0204C61.3576 28.5355 59.8517 27.9698 58.9799 27.2426C58.0289 26.4345 57.5533 25.384 57.5533 24.0102C57.5533 22.394 58.1081 21.1819 59.2177 20.293C60.3273 19.4849 61.9124 19 63.9731 19C64.8449 19 65.7959 19.0808 66.8262 19.2424C67.3018 19.3232 67.698 19.404 68.0943 19.4849C68.4906 19.5657 68.7284 19.6465 68.9661 19.7273C69.0454 19.7273 69.1246 19.8081 69.2039 19.8889C69.2832 19.9697 69.3624 20.1313 69.3624 20.2121L69.7587 23.6062C69.7587 23.8486 69.6794 24.0102 69.5209 24.1718C69.3624 24.3334 69.1246 24.3334 68.9661 24.1718C68.5699 24.0102 68.1736 23.7678 67.698 23.6062C67.3018 23.4445 66.8262 23.2829 66.3507 23.1213C65.3997 22.8789 64.6071 22.7172 63.8145 22.7172C63.2598 22.7172 62.7842 22.7981 62.4672 22.8789C62.1502 22.9597 61.9917 23.1213 61.9917 23.3637C61.9917 23.6062 62.1502 23.7678 62.4672 23.8486C62.7842 23.9294 63.1012 24.091 63.4975 24.1718C63.8937 24.3334 64.4485 24.4142 65.0033 24.4951C67.064 24.8991 68.4906 25.4648 69.2039 26.2729C70.0757 27.081 70.472 28.1315 70.472 29.4245C70.789 30.6366 70.6305 31.3638 70.3135 32.0103Z" fill="black"/>
<path d="M72.2157 34.758C72.0572 34.758 71.8986 34.6772 71.8194 34.5964C71.7401 34.5156 71.6609 34.354 71.6609 34.1924V20.1315C71.6609 19.9699 71.7401 19.8082 71.8194 19.7274C71.8986 19.6466 72.0572 19.5658 72.2157 19.5658H83.3115C83.47 19.5658 83.6285 19.6466 83.7077 19.7274C83.787 19.8082 83.8663 19.9699 83.8663 20.1315V22.9598C83.8663 23.1214 83.787 23.2831 83.7077 23.3639C83.6285 23.4447 83.47 23.5255 83.3115 23.5255H76.8918V25.0609H82.3604C82.5189 25.0609 82.6774 25.1417 82.7567 25.2225C82.8359 25.3033 82.9152 25.4649 82.9152 25.6265V28.4549C82.9152 28.6165 82.8359 28.7782 82.7567 28.859C82.6774 28.9398 82.5189 29.0206 82.3604 29.0206H76.8918V30.6367H83.787C83.9455 30.6367 84.104 30.7175 84.1833 30.7984C84.2625 30.8792 84.3418 31.0408 84.3418 31.2024V34.0307C84.3418 34.1924 84.2625 34.354 84.1833 34.4348C84.104 34.5156 83.9455 34.5964 83.787 34.5964H72.2157V34.758Z" fill="black"/>
<path d="M90.4443 30.2327H97.6565C97.8157 30.2327 97.9742 30.3135 98.0535 30.3943C98.1327 30.4751 98.212 30.6367 98.212 30.7984V34.1116C98.212 34.2732 98.1327 34.4348 98.0535 34.5156C97.9742 34.5964 97.8157 34.6772 97.6565 34.6772H85.7685C85.61 34.6772 85.4514 34.5964 85.3722 34.5156C85.2929 34.4348 85.2137 34.2732 85.2137 34.1116V20.1315C85.2137 19.9699 85.2929 19.8082 85.3722 19.7274C85.4514 19.6466 85.61 19.5658 85.7685 19.5658H89.8895C90.048 19.5658 90.2065 19.6466 90.2858 19.7274C90.365 19.8082 90.4443 19.9699 90.4443 20.1315V30.2327Z" fill="black"/>
<path d="M111.13 19.5658C111.368 19.5658 111.605 19.6466 111.685 19.8891C111.765 20.1315 111.765 20.2931 111.605 20.5355L104.948 28.6973V34.1924C104.948 34.354 104.869 34.5156 104.789 34.5964C104.71 34.6772 104.552 34.758 104.393 34.758H100.114C99.9554 34.758 99.7969 34.6772 99.7176 34.5964C99.6384 34.5156 99.5591 34.354 99.5591 34.1924V28.6973L92.9017 20.5355C92.7432 20.2931 92.6639 20.1315 92.8224 19.8891C92.9017 19.6466 93.1394 19.5658 93.3772 19.5658H98.2904C98.3697 19.5658 98.4489 19.5658 98.5289 19.6466C98.6082 19.7274 98.6874 19.7274 98.7667 19.8082L102.65 24.6568L106.137 19.8082C106.137 19.7274 106.217 19.6466 106.375 19.6466C106.454 19.5658 106.613 19.5658 106.613 19.5658H111.13Z" fill="black"/>
</g>
<defs>
<clipPath id="clip0_1_27">
<rect width="102" height="16" fill="white" transform="translate(10 19)"/>
</clipPath>
</defs>
</svg>
