<svg width="16" height="17" viewBox="0 0 16 17" fill="none" xmlns="http://www.w3.org/2000/svg">
<g clip-path="url(#clip0_1704_2594)">
<path d="M2.66683 3.16667V15.1667H13.3335V16.5H2.66683C1.9335 16.5 1.3335 15.9 1.3335 15.1667V3.16667H2.66683ZM10.0002 5.16667H13.6668L10.0002 1.5V5.16667ZM5.3335 0.5H10.6668L14.6668 4.5V12.5C14.6668 13.24 14.0735 13.8333 13.3335 13.8333H5.3335C4.97987 13.8333 4.64074 13.6929 4.39069 13.4428C4.14064 13.1928 4.00016 12.8536 4.00016 12.5V1.83333C4.00016 1.09333 4.5935 0.5 5.3335 0.5ZM11.3335 11.1667V9.83333H5.3335V11.1667H11.3335ZM13.3335 8.5V7.16667H5.3335V8.5H13.3335Z" fill="white"/>
</g>
<defs>
<clipPath id="clip0_1704_2594">
<rect width="16" height="16" fill="white" transform="translate(0 0.5)"/>
</clipPath>
</defs>
</svg>
