<svg width="267" height="172" viewBox="0 0 267 172" fill="none" xmlns="http://www.w3.org/2000/svg">
  <path d="M3.80812 72.3122C3.69308 72.3127 3.58202 72.2701 3.4968 72.1928C3.41158 72.1155 3.35838 72.0091 3.34768 71.8946L0.970535 43.3044C0.964498 43.1886 1.00346 43.0749 1.07929 42.9871C1.15511 42.8993 1.26193 42.8442 1.37743 42.8333C1.4979 42.8244 1.61705 42.8632 1.7092 42.9413C1.80134 43.0194 1.85909 43.1306 1.87 43.2509L4.24715 71.841C4.25607 71.9615 4.2173 72.0806 4.13918 72.1728C4.06106 72.2649 3.94985 72.3227 3.82954 72.3336L3.80812 72.3122Z" fill="#43A6A9" />
  <path d="M5.22157 89.2948C5.10653 89.2953 4.99547 89.2527 4.91025 89.1754C4.82503 89.0981 4.77184 88.9917 4.76114 88.8772L4.04371 80.2252C4.03784 80.1652 4.04407 80.1047 4.06203 80.0472C4.07999 79.9897 4.10931 79.9364 4.14826 79.8905C4.18721 79.8446 4.23499 79.8069 4.28877 79.7798C4.34254 79.7527 4.40122 79.7366 4.46131 79.7326C4.52126 79.7267 4.58177 79.733 4.63926 79.7509C4.69675 79.7689 4.75004 79.7982 4.79598 79.8372C4.84192 79.8761 4.87957 79.9239 4.9067 79.9777C4.93382 80.0314 4.94986 80.0901 4.95388 80.1502L5.67131 88.8022C5.68023 88.9227 5.64145 89.0418 5.56333 89.134C5.48521 89.2261 5.37401 89.2839 5.2537 89.2948H5.22157Z" fill="#43A6A9" />
  <path d="M246.117 170.652H25.0205C22.2349 170.598 19.5661 169.524 17.5196 167.633C15.4731 165.742 14.1911 163.167 13.9164 160.394L1.4631 10.7084C1.33003 9.40093 1.47509 8.08013 1.88876 6.83275C2.30242 5.58537 2.97533 4.43962 3.86327 3.47078C4.7512 2.50194 5.83407 1.73192 7.04075 1.21133C8.24742 0.690732 9.55059 0.431338 10.8646 0.450176H231.951C234.738 0.504473 237.408 1.57844 239.456 3.46883C241.504 5.35923 242.789 7.93489 243.066 10.7084L255.519 160.373C255.654 161.682 255.51 163.004 255.097 164.253C254.684 165.502 254.011 166.65 253.124 167.621C252.236 168.592 251.152 169.364 249.945 169.886C248.737 170.409 247.433 170.67 246.117 170.652V170.652Z" fill="white" />
  <path d="M246.117 171.08H25.0205C22.1262 171.033 19.3507 169.922 17.2235 167.959C15.0964 165.996 13.7666 163.318 13.4881 160.437L1.03478 10.7616C0.909022 9.39601 1.06979 8.01915 1.50679 6.71922C1.94379 5.41929 2.64739 4.22492 3.57256 3.21256C4.49305 2.19352 5.61853 1.38054 6.87523 0.826927C8.13192 0.273318 9.49144 -0.0084192 10.8646 0.000191587H231.951C234.857 0.0463206 237.644 1.16536 239.774 3.14206C241.905 5.11877 243.23 7.81355 243.494 10.7081L255.937 160.373C256.074 161.737 255.921 163.116 255.489 164.418C255.056 165.72 254.353 166.915 253.426 167.926C252.499 168.937 251.368 169.741 250.109 170.285C248.849 170.828 247.489 171.099 246.117 171.08V171.08ZM10.8646 0.899652C9.60774 0.879238 8.3608 1.12569 7.20617 1.62273C6.05154 2.11978 5.01549 2.8561 4.16643 3.78309C3.31736 4.71008 2.6746 5.80664 2.28059 7.00036C1.88658 8.19409 1.75029 9.45782 1.8807 10.7081L14.334 160.362C14.5989 163.033 15.8361 165.513 17.8103 167.332C19.7846 169.15 22.3583 170.179 25.0419 170.224H246.117C247.371 170.242 248.615 169.995 249.767 169.499C250.919 169.002 251.952 168.268 252.8 167.343C253.647 166.419 254.29 165.326 254.684 164.135C255.079 162.945 255.218 161.685 255.091 160.437L242.637 10.7616C242.375 8.08984 241.138 5.60806 239.163 3.78931C237.189 1.97056 234.614 0.941996 231.929 0.899652H10.8646Z" fill="#43A6A9" />
  <path d="M231.951 0.469677H10.8646C9.55259 0.451171 8.25143 0.710057 7.04638 1.22937C5.84133 1.74869 4.75958 2.51671 3.87198 3.48316C2.98439 4.4496 2.31098 5.59266 1.89586 6.83745C1.48073 8.08224 1.33326 9.40069 1.4631 10.7064H243.066C242.784 7.93682 241.497 5.36632 239.449 3.48033C237.402 1.59433 234.734 0.523379 231.951 0.469677V0.469677Z" fill="#43A6A9" />
  <path d="M16.0366 5.59945C16.067 5.88164 16.037 6.16707 15.9487 6.43681C15.8604 6.70654 15.7158 6.95442 15.5244 7.16402C15.3331 7.37362 15.0993 7.54014 14.8387 7.65254C14.5781 7.76494 14.2966 7.82066 14.0128 7.816C13.4112 7.8033 12.8351 7.57084 12.3932 7.16249C11.9513 6.75413 11.6742 6.19813 11.6142 5.59945C11.5855 5.3176 11.6167 5.03289 11.7057 4.76391C11.7946 4.49493 11.9393 4.24775 12.1303 4.03854C12.3214 3.82933 12.5544 3.66278 12.8142 3.54981C13.074 3.43683 13.3547 3.37996 13.638 3.38292C14.2409 3.39094 14.8196 3.62182 15.2625 4.03107C15.7053 4.44033 15.9811 4.999 16.0366 5.59945Z" fill="white" />
  <path d="M25.0312 5.59945C25.0616 5.88164 25.0317 6.16707 24.9434 6.43681C24.8551 6.70654 24.7104 6.95442 24.5191 7.16402C24.3277 7.37362 24.094 7.54014 23.8333 7.65254C23.5727 7.76494 23.2912 7.82066 23.0074 7.816C22.4134 7.79308 21.8476 7.55605 21.4147 7.14866C20.9817 6.74127 20.7107 6.19102 20.6517 5.59945C20.623 5.3176 20.6542 5.03289 20.7431 4.76391C20.8321 4.49493 20.9768 4.24775 21.1678 4.03854C21.3588 3.82933 21.5919 3.66278 21.8517 3.54981C22.1115 3.43683 22.3922 3.37996 22.6755 3.38292C23.271 3.40132 23.8392 3.63683 24.2731 4.04509C24.707 4.45335 24.9766 5.00618 25.0312 5.59945V5.59945Z" fill="white" />
  <path d="M34.0259 5.59945C34.0562 5.88164 34.0263 6.16707 33.938 6.43681C33.8497 6.70654 33.7051 6.95442 33.5137 7.16402C33.3223 7.37362 33.0886 7.54014 32.828 7.65254C32.5674 7.76494 32.2858 7.82066 32.0021 7.816C31.4005 7.8033 30.8244 7.57084 30.3825 7.16249C29.9406 6.75413 29.6635 6.19813 29.6035 5.59945C29.5748 5.3176 29.606 5.03289 29.6949 4.76391C29.7839 4.49493 29.9286 4.24775 30.1196 4.03854C30.3106 3.82933 30.5437 3.66278 30.8035 3.54981C31.0633 3.43683 31.344 3.37996 31.6273 3.38292C32.2302 3.39094 32.8089 3.62182 33.2518 4.03107C33.6946 4.44033 33.9704 4.999 34.0259 5.59945V5.59945Z" fill="white" />
  <path d="M226.929 151.035H40.9967C38.782 150.993 36.6595 150.141 35.0313 148.639C33.4032 147.137 32.3825 145.09 32.1627 142.886L23.425 38.5482C23.3206 37.5076 23.4376 36.4567 23.7684 35.4646C24.0992 34.4724 24.6363 33.5616 25.3443 32.7919C26.0523 32.0222 26.9152 31.411 27.8763 30.9987C28.8374 30.5864 29.8749 30.3821 30.9206 30.3995H216.885C219.1 30.4409 221.222 31.2934 222.85 32.7953C224.478 34.2971 225.499 36.344 225.719 38.5482L234.403 142.94C234.499 143.974 234.377 145.017 234.044 146.001C233.71 146.986 233.174 147.889 232.469 148.652C231.764 149.415 230.907 150.022 229.952 150.433C228.998 150.843 227.968 151.048 226.929 151.035Z" fill="#D9D9D9" />
  <path opacity="0.1" d="M169.406 48.6251L111.797 117.991C109.987 120.169 108.768 122.777 108.259 125.563C107.75 128.35 107.968 131.22 108.891 133.898C109.814 136.576 111.412 138.97 113.531 140.85C115.649 142.731 118.216 144.033 120.985 144.632L214.465 164.838C217.389 165.472 220.43 165.299 223.262 164.336C226.095 163.373 228.612 161.657 230.543 159.372C232.475 157.087 233.748 154.32 234.226 151.367C234.704 148.414 234.369 145.386 233.257 142.608L197.418 53.026C196.359 50.3679 194.627 48.0312 192.391 46.246C190.155 44.4607 187.492 43.2883 184.666 42.8442C181.839 42.4002 178.946 42.6997 176.27 43.7133C173.594 44.7269 171.229 46.4197 169.406 48.6251V48.6251Z" fill="#262626" />
  <path opacity="0.1" d="M41.168 58.3462L21.1014 112.432C20.5004 114.083 20.3273 115.86 20.5982 117.596C20.8691 119.332 21.5752 120.971 22.6506 122.361C23.726 123.751 25.1358 124.846 26.7485 125.544C28.3612 126.241 30.1243 126.52 31.8736 126.352L90.478 120.602C92.3429 120.42 94.124 119.738 95.6334 118.627C97.1428 117.517 98.3245 116.02 99.0537 114.294C99.783 112.568 100.033 110.677 99.7766 108.821C99.5205 106.964 98.7681 105.212 97.5987 103.748L59.0502 55.455C57.8986 54.0176 56.3861 52.9115 54.6672 52.2497C52.9484 51.5879 51.0847 51.3941 49.2664 51.6881C47.4481 51.9821 45.7404 52.7533 44.3177 53.923C42.8949 55.0927 41.808 56.6191 41.168 58.3462V58.3462Z" fill="#262626" />
  <path d="M189.28 31.1602L135.419 109.328C133.737 111.77 132.709 114.602 132.435 117.554C132.16 120.507 132.648 123.48 133.852 126.19C135.055 128.899 136.934 131.255 139.308 133.031C141.682 134.807 144.473 135.944 147.412 136.333L246.417 149.515C249.531 149.93 252.699 149.49 255.582 148.243C258.465 146.996 260.955 144.989 262.785 142.436C264.616 139.883 265.717 136.88 265.973 133.75C266.228 130.619 265.628 127.478 264.235 124.662L219.091 33.2804C217.751 30.5733 215.726 28.2635 213.218 26.5802C210.71 24.8969 207.805 23.8986 204.792 23.6843C201.779 23.47 198.763 24.0472 196.042 25.3586C193.32 26.67 190.989 28.67 189.28 31.1602V31.1602Z" fill="#43A6A9" />
  <path d="M149.757 129.353C147.969 129.11 146.269 128.429 144.808 127.369C143.347 126.31 142.17 124.906 141.383 123.282C140.572 121.747 140.19 120.021 140.279 118.287C140.368 116.553 140.923 114.875 141.887 113.431L195.887 35.0272C196.863 33.6287 198.213 32.5334 199.783 31.8668C201.353 31.2002 203.079 30.9892 204.763 31.258C206.552 31.4994 208.253 32.1802 209.715 33.2397C211.176 34.2992 212.352 35.7043 213.137 37.3294L258.367 128.936C259.179 130.471 259.56 132.196 259.472 133.931C259.383 135.665 258.828 137.342 257.864 138.787C256.89 140.188 255.54 141.286 253.97 141.955C252.4 142.624 250.673 142.836 248.987 142.567L149.757 129.353Z" fill="white" />
  <path d="M200.17 58.9691L206.477 59.8043C208.449 60.0824 210.249 61.0767 211.535 62.5973C212.82 64.118 213.501 66.0588 213.448 68.0494L213.019 76.2731C213.009 76.5713 212.977 76.8683 212.923 77.1618L208.436 101.951C208.115 103.659 207.14 105.175 205.718 106.175C204.296 107.175 202.539 107.58 200.823 107.305C199.001 107.046 197.321 106.178 196.055 104.842C194.789 103.506 194.013 101.781 193.852 99.9483L192.042 74.335C192.021 74.0391 192.021 73.7421 192.042 73.4462L192.46 65.2118C192.505 64.2764 192.747 63.361 193.171 62.5257C193.594 61.6904 194.19 60.9539 194.917 60.3645C195.645 59.7752 196.489 59.3462 197.395 59.1058C198.3 58.8653 199.245 58.8187 200.17 58.9691V58.9691ZM199.667 114.179L201.38 114.404C203.144 114.653 204.756 115.543 205.907 116.903C207.058 118.264 207.669 120 207.622 121.782C207.585 122.622 207.37 123.444 206.992 124.196C206.614 124.947 206.081 125.61 205.429 126.141C204.777 126.671 204.02 127.058 203.208 127.276C202.395 127.494 201.546 127.537 200.716 127.403L199.003 127.168C197.239 126.921 195.627 126.034 194.476 124.675C193.325 123.316 192.714 121.581 192.76 119.801V119.801C192.796 118.96 193.01 118.137 193.387 117.384C193.765 116.632 194.297 115.969 194.95 115.438C195.602 114.906 196.36 114.52 197.173 114.303C197.986 114.086 198.836 114.044 199.667 114.179V114.179Z" fill="#43A6A9" />
  <path d="M61.8771 43.1107L47.0895 99.188C46.6436 100.892 46.6373 102.681 47.0715 104.388C47.5056 106.096 48.3659 107.664 49.5717 108.948C50.7775 110.232 52.2895 111.189 53.966 111.73C55.6425 112.27 57.4287 112.376 59.1573 112.038L116.52 100.848C118.34 100.485 120.029 99.6417 121.414 98.406C122.799 97.1703 123.828 95.5869 124.394 93.8197C124.961 92.0526 125.045 90.166 124.638 88.3555C124.23 86.5449 123.346 84.8763 122.077 83.5224L79.5452 38.6027C78.2696 37.2472 76.6541 36.2582 74.8668 35.7385C73.0795 35.2189 71.1856 35.1875 69.3821 35.6477C67.5785 36.1078 65.9312 37.0428 64.6114 38.3552C63.2915 39.6677 62.3474 41.3098 61.8771 43.1107V43.1107Z" fill="#43A6A9" />
  <path d="M59.0395 107.52C57.9863 107.711 56.902 107.632 55.8873 107.291C54.8726 106.951 53.9606 106.359 53.2358 105.571C52.4881 104.813 51.9478 103.875 51.6665 102.847C51.3853 101.82 51.3726 100.737 51.6297 99.7035L66.4494 43.4763C66.7064 42.4938 67.2374 41.6046 67.9807 40.9126C68.7239 40.2206 69.6486 39.7542 70.6469 39.5679C71.701 39.3796 72.7856 39.4604 73.8002 39.803C74.8147 40.1455 75.7264 40.7387 76.4506 41.5274L119.132 86.5007C119.881 87.2589 120.423 88.1965 120.706 89.2238C120.989 90.2511 121.004 91.3339 120.749 92.3686C120.49 93.3491 119.959 94.236 119.216 94.926C118.472 95.616 117.549 96.0808 116.552 96.2663L59.0395 107.52Z" fill="white" />
  <path d="M73.431 56.6777L77.0824 55.9603C78.2613 55.77 79.469 56.0223 80.4731 56.6687C81.4773 57.3151 82.207 58.3099 82.522 59.4618L83.8284 64.3553C83.8778 64.535 83.9171 64.7173 83.9461 64.9014L86.2698 80.3101C86.4509 81.3474 86.2149 82.4144 85.6133 83.2787C85.0117 84.143 84.0931 84.7348 83.0574 84.9252V84.9252C81.9713 85.1055 80.8562 84.9085 79.8977 84.3669C78.9392 83.8253 78.195 82.9717 77.7891 81.9484L71.8569 67.3C71.7849 67.1292 71.7241 66.9539 71.6749 66.7753L70.3257 61.871C70.1502 61.3259 70.0931 60.7495 70.1581 60.1805C70.2232 59.6115 70.4088 59.063 70.7027 58.5714C70.9966 58.0799 71.392 57.6567 71.8625 57.3302C72.333 57.0036 72.8677 56.7811 73.431 56.6777V56.6777ZM83.7641 89.1013L84.7599 88.9085C85.816 88.7256 86.9022 88.9453 87.8042 89.5241C88.7062 90.103 89.3584 90.999 89.632 92.0352C89.7829 92.5178 89.8305 93.0267 89.7715 93.5289C89.7125 94.0311 89.5483 94.5151 89.2896 94.9496C89.031 95.384 88.6837 95.7591 88.2703 96.0503C87.857 96.3415 87.387 96.5423 86.8908 96.6396L85.895 96.8324C84.8404 97.0157 83.7554 96.7975 82.8536 96.2208C81.9519 95.6441 81.2988 94.7506 81.0229 93.7164V93.7164C80.872 93.2331 80.8244 92.7235 80.8833 92.2207C80.9422 91.7179 81.1063 91.2331 81.3648 90.7978C81.6234 90.3626 81.9706 89.9865 82.384 89.6943C82.7973 89.402 83.2676 89.1999 83.7641 89.1013V89.1013Z" fill="#43A6A9" />
</svg>