<svg width="128" height="129" viewBox="0 0 128 129" fill="none" xmlns="http://www.w3.org/2000/svg">
	<rect y="0.5" width="128" height="128" rx="64" fill="#E5E5E5"/>
	<path fill-rule="evenodd" clip-rule="evenodd" d="M72.1148 69.5514C74.2001 68.158 76.6518 67.4142 79.1599 67.4142C82.523 67.4142 85.7485 68.7503 88.1266 71.1284C90.5047 73.5065 91.8407 76.7319 91.8407 80.0951C91.8407 82.6031 91.097 85.0548 89.7036 87.1402C88.3102 89.2256 86.3297 90.8509 84.0126 91.8107C81.6955 92.7705 79.1458 93.0216 76.686 92.5323C74.2261 92.043 71.9666 90.8353 70.1931 89.0618C68.4197 87.2884 67.212 85.0289 66.7227 82.569C66.2334 80.1092 66.4845 77.5595 67.4443 75.2423C68.4041 72.9252 70.0294 70.9447 72.1148 69.5514ZM82.7622 78.7541H86.6777C86.8603 78.7541 87.041 78.7901 87.2097 78.8599C87.3783 78.9298 87.5316 79.0322 87.6607 79.1613C87.7897 79.2903 87.8921 79.4436 87.962 79.6122C88.0318 79.7809 88.0678 79.9616 88.0678 80.1442C88.0678 80.3267 88.0318 80.5075 87.962 80.6761C87.8921 80.8448 87.7897 80.998 87.6607 81.1271C87.5316 81.2562 87.3783 81.3585 87.2097 81.4284C87.041 81.4983 86.8603 81.5342 86.6777 81.5342L80.5694 81.5342L80.5694 87.6425C80.5694 87.8251 80.5335 88.0058 80.4636 88.1745C80.3938 88.3431 80.2914 88.4964 80.1623 88.6254C80.0332 88.7545 79.88 88.8569 79.7113 88.9268C79.5427 88.9966 79.3619 89.0326 79.1794 89.0326C78.9968 89.0326 78.8161 88.9966 78.6474 88.9268C78.4788 88.8569 78.3256 88.7545 78.1965 88.6254C78.0674 88.4964 77.965 88.3431 77.8952 88.1745C77.8253 88.0058 77.7893 87.8251 77.7893 87.6425L77.7893 81.5342L75.5575 81.4951H71.6419C71.4593 81.4951 71.2786 81.4591 71.1099 81.3892C70.9413 81.3194 70.788 81.217 70.659 81.0879C70.5299 80.9588 70.4275 80.8056 70.3576 80.637C70.2878 80.4683 70.2518 80.2876 70.2518 80.105C70.2518 79.9225 70.2878 79.7417 70.3576 79.5731C70.4275 79.4044 70.5299 79.2512 70.659 79.1221C70.788 78.993 70.9413 78.8906 71.1099 78.8208C71.2786 78.7509 71.4593 78.715 71.6419 78.715L77.7502 78.715L77.7502 72.6066C77.7463 72.4202 77.7792 72.2349 77.847 72.0612C77.9148 71.8875 78.0161 71.7289 78.1452 71.5944C78.2742 71.4598 78.4285 71.3521 78.5993 71.2772C78.77 71.2023 78.9538 71.1617 79.1402 71.1579C79.3266 71.154 79.512 71.1869 79.6856 71.2547C79.8593 71.3224 80.018 71.4238 80.1525 71.5528C80.287 71.6819 80.3948 71.8362 80.4697 72.007C80.5446 72.1777 80.5851 72.3615 80.589 72.5479V78.6562L82.7622 78.7541Z" fill="#737373"/>
	<path fill-rule="evenodd" clip-rule="evenodd" d="M57.6597 33.5161C51.9575 33.5161 46.4889 35.8393 42.4569 39.9744C38.4248 44.1096 36.1597 49.7181 36.1597 55.5661C36.1597 69.4689 51.3546 88.9371 56.1963 94.7877C56.9645 95.7159 58.3548 95.7159 59.123 94.7877C60.5031 93.1201 62.7244 90.346 65.1952 86.9098C64.6122 85.7151 64.1818 84.4443 63.9197 83.1265C63.3201 80.1124 63.6278 76.9881 64.8039 74.1488C65.98 71.3095 67.9716 68.8827 70.5269 67.1753C72.61 65.7834 74.9913 64.9206 77.4653 64.6492C78.5216 61.4979 79.1597 58.4151 79.1597 55.5661C79.1597 49.7181 76.8945 44.1096 72.8625 39.9744C68.8304 35.8393 63.3618 33.5161 57.6597 33.5161ZM66.1597 55.5161C66.1597 59.9344 62.5779 63.5161 58.1597 63.5161C53.7414 63.5161 50.1597 59.9344 50.1597 55.5161C50.1597 51.0979 53.7414 47.5161 58.1597 47.5161C62.5779 47.5161 66.1597 51.0979 66.1597 55.5161Z" fill="#737373"/>
	</svg>
	