<svg width="60" height="60" viewBox="0 0 60 60" fill="none" xmlns="http://www.w3.org/2000/svg">
<rect width="60" height="60" rx="16" fill="#F1F1F1"/>
<path fill-rule="evenodd" clip-rule="evenodd" d="M29.0715 15C35.9751 15 41.5715 20.5964 41.5715 27.5V43.125C41.5715 44.16 40.7075 45 39.6429 45H20.3572C19.2946 45 18.4286 44.16 18.4286 43.125V16.875C18.4286 15.8419 19.2946 15 20.3572 15H29.0715ZM28.8552 21.5893V22.3721C27.6231 22.6451 26.7062 23.5908 26.7062 24.7232C26.7062 26.0673 27.9913 27.1607 29.5715 27.1607C30.348 27.1607 31.0042 27.6385 31.0042 28.2054C31.0042 28.7723 30.348 29.25 29.5715 29.25C29.1818 29.25 28.818 29.133 28.5472 28.9185C28.2406 28.6761 27.7907 28.7179 27.54 29.0188C27.2893 29.3169 27.3352 29.7556 27.6432 29.9994C27.9884 30.2724 28.4068 30.4562 28.8552 30.5551V31.3393C28.8552 31.7237 29.1761 32.0357 29.5715 32.0357C29.9669 32.0357 30.2879 31.7237 30.2879 31.3393V30.5565C31.5199 30.2835 32.4368 29.3378 32.4368 28.2054C32.4368 26.8612 31.1517 25.7679 29.5715 25.7679C28.795 25.7679 28.1389 25.2901 28.1389 24.7232C28.1389 24.1563 28.795 23.6786 29.5715 23.6786C29.9612 23.6786 30.3251 23.7956 30.5959 24.0087C30.901 24.251 31.3523 24.2079 31.603 23.9084C31.8537 23.6103 31.8079 23.1716 31.4999 22.9292C31.1546 22.6562 30.7363 22.4724 30.2879 22.3735V21.5893C30.2879 21.2049 29.9669 20.8929 29.5715 20.8929C29.1761 20.8929 28.8552 21.2049 28.8552 21.5893ZM36.7501 41.25H23.2501C22.7178 41.25 22.2858 40.83 22.2858 40.3125C22.2858 39.795 22.7178 39.375 23.2501 39.375H36.7501C37.2824 39.375 37.7144 39.795 37.7144 40.3125C37.7144 40.83 37.2824 41.25 36.7501 41.25ZM23.2501 37.8214H36.7501C37.2824 37.8214 37.7144 37.4014 37.7144 36.8839C37.7144 36.3664 37.2824 35.9464 36.7501 35.9464H23.2501C22.7178 35.9464 22.2858 36.3664 22.2858 36.8839C22.2858 37.4014 22.7178 37.8214 23.2501 37.8214Z" fill="#A8A8A8"/>
</svg>
