<svg width="105" height="117" viewBox="0 0 105 117" fill="none" xmlns="http://www.w3.org/2000/svg">
<path d="M104.661 0H43.4265V82.2868H104.661V0Z" fill="white"/>
<path d="M100.075 4.88818H48.0123V13.5785H100.075V4.88818Z" fill="#43A6A9"/>
<path d="M100.075 16.8376H48.0123V20.3681H100.075V16.8376Z" fill="#D9D9D9"/>
<path d="M100.075 23.084H48.0123V26.6144H100.075V23.084Z" fill="#D9D9D9"/>
<path d="M100.075 29.0583H48.0123V32.5888H100.075V29.0583Z" fill="#D9D9D9"/>
<path d="M100.075 59.2854H48.0123V62.8159H100.075V59.2854Z" fill="#D9D9D9"/>
<path d="M100.075 65.5317H48.0123V69.0622H100.075V65.5317Z" fill="#D9D9D9"/>
<path d="M100.075 71.967H48.0123V75.4975H100.075V71.967Z" fill="#D9D9D9"/>
<g filter="url(#filter0_dd_2023_93010)">
<path d="M69.5735 21.7783H8.33913V104.065H69.5735V21.7783Z" fill="white"/>
<path d="M64.9877 26.6667H12.9249V35.3571H64.9877V26.6667Z" fill="#43A6A9"/>
<path d="M64.9877 38.616H12.9249V42.1464H64.9877V38.616Z" fill="#D9D9D9"/>
<path d="M64.9877 44.8623H12.9249V48.3928H64.9877V44.8623Z" fill="#D9D9D9"/>
<path d="M64.9877 50.8367H12.9249V54.3671H64.9877V50.8367Z" fill="#D9D9D9"/>
<path d="M64.9877 81.0637H12.9249V84.5942H64.9877V81.0637Z" fill="#D9D9D9"/>
<path d="M64.9877 87.3101H12.9249V90.8405H64.9877V87.3101Z" fill="#D9D9D9"/>
<path d="M64.9877 93.7454H12.9249V97.2758H64.9877V93.7454Z" fill="#D9D9D9"/>
</g>
<path d="M100.292 46.5478L100.292 43.041L84.1406 43.041L84.1406 46.5478L100.292 46.5478Z" fill="#D9D9D9"/>
<path d="M76.0939 44.9293C79.9161 43.041 84.7441 39.8039 87.7616 36.2971L85.3476 44.9293L87.7616 53.5614C84.7441 50.0546 79.9161 46.8176 76.0939 44.9293Z" fill="#D9D9D9"/>
<path d="M13.1788 66.5451L13.1788 70.1748L53.1057 70.1748L53.1057 66.5451L13.1788 66.5451Z" fill="#D9D9D9"/>
<path d="M61.1436 67.9179C57.3215 69.8062 52.4935 73.0432 49.476 76.55L51.89 67.9179L49.476 59.2857C52.4935 62.7925 57.3215 66.0296 61.1436 67.9179Z" fill="#D9D9D9"/>
<defs>
<filter id="filter0_dd_2023_93010" x="0.339127" y="17.7783" width="77.2344" height="98.2869" filterUnits="userSpaceOnUse" color-interpolation-filters="sRGB">
<feFlood flood-opacity="0" result="BackgroundImageFix"/>
<feColorMatrix in="SourceAlpha" type="matrix" values="0 0 0 0 0 0 0 0 0 0 0 0 0 0 0 0 0 0 127 0" result="hardAlpha"/>
<feOffset dy="4"/>
<feGaussianBlur stdDeviation="4"/>
<feColorMatrix type="matrix" values="0 0 0 0 0.380392 0 0 0 0 0.380392 0 0 0 0 0.380392 0 0 0 0.18 0"/>
<feBlend mode="multiply" in2="BackgroundImageFix" result="effect1_dropShadow_2023_93010"/>
<feColorMatrix in="SourceAlpha" type="matrix" values="0 0 0 0 0 0 0 0 0 0 0 0 0 0 0 0 0 0 127 0" result="hardAlpha"/>
<feOffset dy="2"/>
<feGaussianBlur stdDeviation="2"/>
<feColorMatrix type="matrix" values="0 0 0 0 0.380392 0 0 0 0 0.380392 0 0 0 0 0.380392 0 0 0 0.18 0"/>
<feBlend mode="multiply" in2="effect1_dropShadow_2023_93010" result="effect2_dropShadow_2023_93010"/>
<feBlend mode="normal" in="SourceGraphic" in2="effect2_dropShadow_2023_93010" result="shape"/>
</filter>
</defs>
</svg>
