<?xml version="1.0" encoding="UTF-8"?>
<svg width="140px" height="140px" viewBox="0 0 140 140" version="1.1" xmlns="http://www.w3.org/2000/svg" xmlns:xlink="http://www.w3.org/1999/xlink">
    <title>A67F408D-4BC2-4F43-B520-3D4B8287ADEE</title>
    <g id="Login" stroke="none" stroke-width="1" fill="none" fill-rule="evenodd">
        <g id="register-verification" transform="translate(-650.000000, -277.000000)" fill-rule="nonzero">
            <g id="Group-4" transform="translate(453.000000, 197.000000)">
                <g id="mail-verification" transform="translate(197.000000, 80.000000)">
                    <path d="M140,69.96997 C140,69.9099099 140,69.8198198 140,69.7597598 C140,69.2792793 140,68.7987988 139.969957,68.3483483 C139.969957,68.0780781 139.939914,67.8078078 139.939914,67.5075075 C139.939914,67.2372372 139.909871,66.966967 139.909871,66.6966967 C139.879828,66.3663664 139.879828,66.036036 139.849785,65.7057057 C139.849785,65.4954955 139.819742,65.2852853 139.819742,65.0750751 C139.7897,64.7147147 139.759657,64.3543544 139.729614,63.993994 C139.729614,63.8438438 139.699571,63.6636637 139.699571,63.5135135 C139.669528,63.1231231 139.609442,62.7327327 139.579399,62.3123123 C139.579399,62.2222222 139.549356,62.1021021 139.549356,62.012012 C135.583691,27.1171171 105.961373,0 70,0 C34.0386266,0 4.41630901,27.1171171 0.450643777,62.042042 C0.450643777,62.1321321 0.420600858,62.2522523 0.420600858,62.3423423 C0.39055794,62.7327327 0.330472103,63.1231231 0.300429185,63.5435435 C0.270386266,63.6936937 0.270386266,63.8738739 0.270386266,64.024024 C0.240343348,64.3843844 0.210300429,64.7447447 0.180257511,65.1051051 C0.180257511,65.3153153 0.150214592,65.5255255 0.150214592,65.7357357 C0.120171674,66.0660661 0.120171674,66.3963964 0.0901287554,66.7267267 C0.0901287554,66.996997 0.0600858369,67.2672673 0.0600858369,67.5375375 C0.0600858369,67.8078078 0.0300429185,68.0780781 0.0300429185,68.3783784 C0.0300429185,68.8588589 0,69.3393393 0,69.7897898 C0,69.8498498 0,69.9399399 0,70 C0,70 0,70 0,70.03003 C0,70.0600601 0,70.03003 0,70.0600601 C0,70.1201201 0,70.2102102 0,70.2702703 C0,70.7507508 0,71.2312312 0.0300429185,71.6816817 C0.0300429185,71.951952 0.0600858369,72.2222222 0.0600858369,72.5225225 C0.0600858369,72.7927928 0.0901287554,73.0630631 0.0901287554,73.3333333 C0.120171674,73.6636637 0.120171674,73.993994 0.150214592,74.3243243 C0.150214592,74.5345345 0.180257511,74.7447447 0.180257511,74.954955 C0.210300429,75.3153153 0.240343348,75.6756757 0.270386266,76.036036 C0.270386266,76.1861862 0.300429185,76.3663664 0.300429185,76.5165165 C0.330472103,76.9069069 0.39055794,77.2972973 0.420600858,77.7177177 C0.420600858,77.8078078 0.450643777,77.9279279 0.450643777,78.018018 C4.41630901,112.882883 34.0386266,140 70,140 C105.961373,140 135.583691,112.882883 139.549356,77.987988 C139.549356,77.8978979 139.579399,77.7777778 139.579399,77.6876877 C139.609442,77.2972973 139.669528,76.9069069 139.699571,76.4864865 C139.729614,76.3363363 139.729614,76.1561562 139.729614,76.006006 C139.759657,75.6456456 139.7897,75.2852853 139.819742,74.9249249 C139.819742,74.7147147 139.849785,74.5045045 139.849785,74.2942943 C139.879828,73.963964 139.879828,73.6336336 139.909871,73.3033033 C139.909871,73.033033 139.939914,72.7627628 139.939914,72.4924925 C139.939914,72.2222222 139.969957,71.951952 139.969957,71.6516517 C139.969957,71.1711712 140,70.6906907 140,70.2402402 C140,70.1801802 140,70.0900901 140,70.03003 C140,70 140,70 140,69.96997 C140,70 140,70 140,69.96997 Z" id="XMLID_3_" fill="#0494D0"></path>
                    <path d="M96.4951923,97 C98.2932692,97 99.8269231,96.3263473 101.096154,94.9790419 C102.365385,93.6317365 103,92.0419162 103,90.2095808 L103,90.2095808 L103,49.7904192 C103,47.9580838 102.365385,46.3682635 101.096154,45.0209581 C99.8269231,43.6736527 98.2932692,43 96.4951923,43 L96.4951923,43 L43.5048077,43 C41.7067308,43 40.1730769,43.6736527 38.9038462,45.0209581 C37.6346154,46.3682635 37,47.9580838 37,49.7904192 L37,49.7904192 L37,90.2095808 C37,92.0419162 37.6346154,93.6317365 38.9038462,94.9790419 C40.1730769,96.3263473 41.7067308,97 43.5048077,97 L43.5048077,97 L96.4951923,97 Z M70,73.3143713 L43.5048077,56.5808383 L43.5048077,49.7904192 L70,66.6856287 L96.4951923,49.7904192 L96.4951923,56.5808383 L70,73.3143713 Z" id="mail" fill="#FFFFFF"></path>
                </g>
            </g>
        </g>
    </g>
</svg>