<?xml version="1.0" encoding="UTF-8"?>
<svg width="140px" height="140px" viewBox="0 0 140 140" version="1.1" xmlns="http://www.w3.org/2000/svg" xmlns:xlink="http://www.w3.org/1999/xlink">
    <title>339D62BF-429E-42C1-9FDD-7BD39F3DC902</title>
    <g id="Login" stroke="none" stroke-width="1" fill="none" fill-rule="evenodd">
        <g id="reset-password-02" transform="translate(-650.000000, -321.000000)" fill-rule="nonzero">
            <g id="Group-4" transform="translate(453.000000, 241.000000)">
                <g id="Group-2" transform="translate(197.000000, 80.000000)">
                    <path d="M140,69.96997 C140,69.9099099 140,69.8198198 140,69.7597598 C140,69.2792793 140,68.7987988 139.969957,68.3483483 C139.969957,68.0780781 139.939914,67.8078078 139.939914,67.5075075 C139.939914,67.2372372 139.909871,66.966967 139.909871,66.6966967 C139.879828,66.3663664 139.879828,66.036036 139.849785,65.7057057 C139.849785,65.4954955 139.819742,65.2852853 139.819742,65.0750751 C139.7897,64.7147147 139.759657,64.3543544 139.729614,63.993994 C139.729614,63.8438438 139.699571,63.6636637 139.699571,63.5135135 C139.669528,63.1231231 139.609442,62.7327327 139.579399,62.3123123 C139.579399,62.2222222 139.549356,62.1021021 139.549356,62.012012 C135.583691,27.1171171 105.961373,0 70,0 C34.0386266,0 4.41630901,27.1171171 0.450643777,62.042042 C0.450643777,62.1321321 0.420600858,62.2522523 0.420600858,62.3423423 C0.39055794,62.7327327 0.330472103,63.1231231 0.300429185,63.5435435 C0.270386266,63.6936937 0.270386266,63.8738739 0.270386266,64.024024 C0.240343348,64.3843844 0.210300429,64.7447447 0.180257511,65.1051051 C0.180257511,65.3153153 0.150214592,65.5255255 0.150214592,65.7357357 C0.120171674,66.0660661 0.120171674,66.3963964 0.0901287554,66.7267267 C0.0901287554,66.996997 0.0600858369,67.2672673 0.0600858369,67.5375375 C0.0600858369,67.8078078 0.0300429185,68.0780781 0.0300429185,68.3783784 C0.0300429185,68.8588589 0,69.3393393 0,69.7897898 C0,69.8498498 0,69.9399399 0,70 C0,70 0,70 0,70.03003 C0,70.0600601 0,70.03003 0,70.0600601 C0,70.1201201 0,70.2102102 0,70.2702703 C0,70.7507508 0,71.2312312 0.0300429185,71.6816817 C0.0300429185,71.951952 0.0600858369,72.2222222 0.0600858369,72.5225225 C0.0600858369,72.7927928 0.0901287554,73.0630631 0.0901287554,73.3333333 C0.120171674,73.6636637 0.120171674,73.993994 0.150214592,74.3243243 C0.150214592,74.5345345 0.180257511,74.7447447 0.180257511,74.954955 C0.210300429,75.3153153 0.240343348,75.6756757 0.270386266,76.036036 C0.270386266,76.1861862 0.300429185,76.3663664 0.300429185,76.5165165 C0.330472103,76.9069069 0.39055794,77.2972973 0.420600858,77.7177177 C0.420600858,77.8078078 0.450643777,77.9279279 0.450643777,78.018018 C4.41630901,112.882883 34.0386266,140 70,140 C105.961373,140 135.583691,112.882883 139.549356,77.987988 C139.549356,77.8978979 139.579399,77.7777778 139.579399,77.6876877 C139.609442,77.2972973 139.669528,76.9069069 139.699571,76.4864865 C139.729614,76.3363363 139.729614,76.1561562 139.729614,76.006006 C139.759657,75.6456456 139.7897,75.2852853 139.819742,74.9249249 C139.819742,74.7147147 139.849785,74.5045045 139.849785,74.2942943 C139.879828,73.963964 139.879828,73.6336336 139.909871,73.3033033 C139.909871,73.033033 139.939914,72.7627628 139.939914,72.4924925 C139.939914,72.2222222 139.969957,71.951952 139.969957,71.6516517 C139.969957,71.1711712 140,70.6906907 140,70.2402402 C140,70.1801802 140,70.0900901 140,70.03003 C140,70 140,70 140,69.96997 C140,70 140,70 140,69.96997 Z" id="XMLID_3_" fill="#2BB673"></path>
                    <path d="M95.8527388,89 C97.1582697,89 98.3482646,88.5134731 99.4227236,87.5404192 C100.497183,86.5673653 101.138389,85.4191617 101.346344,84.0958084 L105.933578,54.9041916 C106.141533,53.5808383 105.861188,52.4326347 105.092545,51.4595808 C104.323901,50.4865269 103.286814,50 101.981283,50 L63.5065198,50 C62.6361659,50 61.0618492,50 58.7835698,50 C58.408436,52.3872255 58.1515509,54.0219561 58.0129145,54.9041916 L53.4256806,84.0958084 C53.217726,85.4191617 53.4980704,86.5673653 54.2667139,87.5404192 C55.0353573,88.5134731 56.0724444,89 57.3779753,89 L95.8527388,89 Z M34.63839,50 L54.9437559,50 L54.3053659,54.0625 L34,54.0625 L34.63839,50 Z M42.4236489,57.3125 L53.7946538,57.3125 L53.1562638,61.375 L41.7852589,61.375 L42.4236489,57.3125 Z M35.5890444,64.625 L52.6455517,64.625 L52.0071617,68.6875 L34.9506544,68.6875 L35.5890444,64.625 Z M79.7027026,71.9375 L62.0260014,60.3782216 L62.7631115,55.6875 L80.4222625,67.3584622 L101.749414,55.6875 L101.012304,60.3782216 L79.7027026,71.9375 Z" id="î¤" fill="#FFFFFF"></path>
                </g>
            </g>
        </g>
    </g>
</svg>