<svg width="64" height="64" viewBox="0 0 64 64" fill="none" xmlns="http://www.w3.org/2000/svg">
<g opacity="0.4">
<path d="M38.9997 28.0001C38.9997 28.7958 38.6836 29.5589 38.121 30.1215C37.5584 30.6841 36.7953 31.0002 35.9997 31.0002H19.9997C19.204 31.0002 18.4409 30.6841 17.8783 30.1215C17.3157 29.5589 16.9997 28.7958 16.9997 28.0001C16.9997 27.2045 17.3157 26.4414 17.8783 25.8788C18.4409 25.3162 19.204 25.0001 19.9997 25.0001H35.9997C36.7953 25.0001 37.5584 25.3162 38.121 25.8788C38.6836 26.4414 38.9997 27.2045 38.9997 28.0001ZM58.1222 58.1227C57.8434 58.4023 57.5123 58.6242 57.1476 58.7757C56.783 58.9271 56.392 59.005 55.9972 59.005C55.6023 59.005 55.2114 58.9271 54.8467 58.7757C54.482 58.6242 54.1509 58.4023 53.8722 58.1227L41.9997 46.2501C37.3608 49.8099 31.5416 51.4719 25.7225 50.8989C19.9034 50.3259 14.5201 47.5609 10.6646 43.1648C6.80918 38.7686 4.77029 33.0705 4.96155 27.2264C5.15282 21.3823 7.55992 15.8297 11.6946 11.6951C15.8292 7.56041 21.3818 5.15331 27.2259 4.96204C33.0701 4.77078 38.7681 6.80967 43.1643 10.6651C47.5604 14.5206 50.3254 19.9039 50.8984 25.723C51.4714 31.5421 49.8094 37.3613 46.2497 42.0001L58.1347 53.8827C58.6948 54.4468 59.0081 55.2102 59.0058 56.0052C59.0034 56.8002 58.6856 57.5618 58.1222 58.1227ZM27.9997 45.0001C31.3619 45.0001 34.6487 44.0031 37.4444 42.1351C40.24 40.2671 42.4189 37.6121 43.7056 34.5058C44.9923 31.3994 45.329 27.9813 44.673 24.6836C44.0171 21.3859 42.398 18.3568 40.0205 15.9793C37.643 13.6018 34.6139 11.9827 31.3162 11.3268C28.0185 10.6708 24.6004 11.0075 21.494 12.2942C18.3877 13.5809 15.7327 15.7598 13.8647 18.5555C11.9967 21.3511 10.9997 24.6379 10.9997 28.0001C11.005 32.5072 12.7977 36.8281 15.9847 40.0151C19.1717 43.2021 23.4926 44.9949 27.9997 45.0001Z" fill="#424242"/>
</g>
</svg>
