<?xml version="1.0" encoding="UTF-8"?>
<svg width="282px" height="107px" viewBox="0 0 282 107" version="1.1" xmlns="http://www.w3.org/2000/svg" xmlns:xlink="http://www.w3.org/1999/xlink">
    <title>935DA904-5F83-44C6-B12D-C3C46160FD40</title>
    <g id="buyback/local" stroke="none" stroke-width="1" fill="none" fill-rule="evenodd">
        <g id="buyback-local-payment-nofill" transform="translate(-461.000000, -378.000000)" fill="#A2A2A2" fill-rule="nonzero">
            <path id="arrow--01" d="M640.536538,483.220755 L640.546949,484.220701 C639.872354,484.227724 639.201746,484.230411 638.535123,484.228761 L637.538178,484.223033 L637.547213,483.223074 C638.534657,483.231996 639.531099,483.231223 640.536538,483.220755 Z M631.556806,483.044393 C632.214157,483.078201 632.875814,483.107371 633.541777,483.131904 L634.543952,483.165225 L634.514282,484.164785 C633.839213,484.144747 633.168436,484.120037 632.501951,484.090653 L631.505444,484.043073 L631.556806,483.044393 Z M646.521153,483.048905 L646.567507,484.04783 C645.894147,484.079077 645.2245,484.106286 644.558564,484.129459 L643.562443,484.161192 L643.533557,483.161609 C644.521044,483.133073 645.51691,483.095505 646.521153,483.048905 Z M652.495014,482.672979 L652.573703,483.669878 C651.902014,483.722897 651.233792,483.772147 650.569037,483.817629 L649.574505,483.883024 L649.511553,482.885007 C650.498214,482.822771 651.492702,482.752095 652.495014,482.672979 Z M625.625702,482.602048 C626.280471,482.666673 626.939878,482.726305 627.603925,482.780943 L628.603475,482.859155 L628.529438,483.85641 C627.855397,483.806369 627.185982,483.751289 626.521193,483.69117 L625.52748,483.597213 L625.625702,482.602048 Z M658.458744,482.112677 L658.566637,483.106839 L657.064445,483.264499 L657.064445,483.264499 L655.573229,483.410233 L655.479566,482.414629 C656.465286,482.321896 657.458346,482.221246 658.458744,482.112677 Z M619.691452,481.860347 C620.341428,481.959452 620.996405,482.053177 621.656383,482.141523 L622.6501,482.270005 L622.526296,483.262312 C621.85535,483.178603 621.189394,483.089457 620.528427,482.994874 L619.540719,482.848921 L619.691452,481.860347 Z M664.405206,481.385802 L664.539543,482.376738 L663.045195,482.57444 L663.045195,482.57444 L661.561114,482.76099 L661.439654,481.768394 C662.421307,481.648272 663.409824,481.520742 664.405206,481.385802 Z M613.812724,480.788266 C614.455422,480.92564 615.103509,481.057218 615.756986,481.182999 L616.741245,481.367323 L616.562084,482.351143 C615.896592,482.229952 615.236482,482.102894 614.581754,481.969967 L613.6037,481.766177 L613.812724,480.788266 Z M670.329059,480.508268 L670.487412,481.49565 L668.997793,481.730072 L668.997793,481.730072 L667.51785,481.953988 L667.371217,480.964797 C668.350696,480.819604 669.336644,480.667428 670.329059,480.508268 Z M608.017758,479.351215 C608.649501,479.530683 609.287035,479.703926 609.93036,479.870943 L610.899691,480.116797 L610.659252,481.087461 C610.00284,480.924864 609.352218,480.755953 608.707388,480.580727 L607.744487,480.313151 L608.017758,479.351215 Z M676.23819,479.492075 L676.418462,480.475692 L674.93379,480.743672 L674.93379,480.743672 L673.458257,481.00173 L673.288687,480.016211 C674.265745,479.848097 675.248913,479.673385 676.23819,479.492075 Z M682.107781,478.353563 L682.308049,479.333304 L680.830168,479.631592 L680.830168,479.631592 L679.360923,479.920507 L679.170453,478.938813 C680.143791,478.749965 681.1229,478.554881 682.107781,478.353563 Z M602.339641,477.513717 C602.95669,477.739248 603.579942,477.958108 604.2094,478.170297 L605.158239,478.483577 L604.850605,479.435082 C604.207002,479.226997 603.569615,479.012134 602.938445,478.790493 L601.996353,478.452947 L602.339641,477.513717 Z M687.972716,477.096312 L688.191395,478.072109 L686.719148,478.398516 L686.719148,478.398516 L685.255093,478.716035 L685.045419,477.738264 C686.015711,477.530194 686.991477,477.31621 687.972716,477.096312 Z M693.81081,475.733864 L694.046428,476.705709 L692.581572,477.057583 L692.581572,477.057583 L691.124482,477.401031 L690.897155,476.427212 C691.863184,476.201704 692.834402,475.970588 693.81081,475.733864 Z M596.819808,475.242381 C597.41678,475.517287 598.020346,475.785101 598.630505,476.045821 L599.550688,476.431582 L599.170362,477.356434 C598.54513,477.09932 597.926521,476.834988 597.314536,476.563438 L596.401527,476.150699 L596.819808,475.242381 Z M699.624296,474.274077 L699.875555,475.241997 L698.418168,475.617271 L698.418168,475.617271 L696.968158,475.984542 L696.724556,475.014667 C697.686207,474.773131 698.652788,474.526268 699.624296,474.274077 Z M591.514037,472.513387 C592.085209,472.84015 592.663317,473.159443 593.248362,473.471264 L594.131133,473.933394 L593.6739,474.822741 C593.073095,474.513854 592.47928,474.197357 591.892456,473.87325 L591.017464,473.381382 L591.514037,472.513387 Z M705.403848,472.726974 L705.669567,473.691024 L704.21819,474.088218 L704.21819,474.088218 L702.773847,474.477783 L702.515227,473.511804 C703.473402,473.255273 704.436276,472.993663 705.403848,472.726974 Z M711.179688,471.090892 L711.458882,472.051127 L710.010003,472.469717 L710.010003,472.469717 L708.567875,472.880988 L708.295295,471.918855 C709.252251,471.647741 710.213715,471.371754 711.179688,471.090892 Z M586.475509,469.310932 C587.014381,469.69039 587.560443,470.062089 588.113699,470.426028 L588.948978,470.966116 L588.412607,471.810098 C587.843285,471.448281 587.281237,471.078557 586.726463,470.700929 L585.89976,470.128558 L586.475509,469.310932 Z M716.91845,469.381151 L717.210159,470.337658 L715.771308,470.773967 L715.771308,470.773967 L714.338877,471.203314 L714.053313,470.244955 C715.004071,469.961656 715.959117,469.673721 716.91845,469.381151 Z M722.639335,467.597665 L722.942736,468.550528 L721.508364,469.004887 L721.508364,469.004887 L720.080153,469.452565 L719.782497,468.497892 C720.730662,468.202266 721.682941,467.90219 722.639335,467.597665 Z M581.763847,465.638147 C582.26426,466.069245 582.772006,466.492413 583.287086,466.907652 L584.065207,467.524563 L583.450337,468.313192 C582.919358,467.899205 582.39582,467.477146 581.879724,467.047019 L581.111162,466.395776 L581.763847,465.638147 Z M571.700371,466.570721 C572.449599,466.66521 573.189872,466.735998 573.9209,466.783359 L574.648834,466.822922 L574.60504,467.821963 C573.859699,467.78929 573.105137,467.732654 572.341671,467.651799 L571.575248,467.562862 L571.700371,466.570721 Z M580.599328,466.533399 L580.745728,467.522625 C579.954142,467.639775 579.148002,467.726336 578.327946,467.781773 L577.710305,467.817506 L577.662184,466.818664 C578.663133,466.770442 579.642556,466.674997 580.599328,466.533399 Z M728.335972,465.747295 L728.650307,466.696607 L727.219968,467.16799 L727.219968,467.16799 L725.795553,467.63295 L725.486603,466.681871 C726.432436,466.374625 727.382226,466.063099 728.335972,465.747295 Z M736.46315,458.74873 C738.811061,457.933908 741.374963,459.176723 742.189785,461.524635 C743.004606,463.872547 741.761791,466.436449 739.41388,467.25127 C737.224941,468.010922 734.848271,466.982141 733.876201,464.93679 L732.927043,465.260877 L732.927043,465.260877 L731.511959,465.740239 L731.192386,464.792677 C731.975237,464.528655 732.760709,464.261796 733.548803,463.992102 C733.047592,461.784929 734.275819,459.507823 736.46315,458.74873 Z M565.829655,465.389252 C566.560132,465.588798 567.283951,465.767705 568.000928,465.926146 L568.715617,466.077772 L568.51641,467.057729 C567.787711,466.909598 567.052275,466.74067 566.310294,466.550784 L565.566139,466.353907 L565.829655,465.389252 Z M586.337194,465.031554 L586.698872,465.963857 C585.947631,466.255294 585.176324,466.514417 584.385964,466.740268 L583.789637,466.903402 L583.536643,465.935934 C584.499606,465.684119 585.43372,465.382048 586.337194,465.031554 Z M560.206006,463.493661 C560.910186,463.774587 561.609319,464.037632 562.303288,464.282912 L562.99553,464.522274 L562.675257,465.469599 C561.971972,465.231832 561.263637,464.976102 560.55037,464.702303 L559.835464,464.422477 L560.206006,463.493661 Z M591.548099,462.239356 L592.126498,463.05511 C591.465138,463.524039 590.776855,463.96225 590.063121,464.368035 L589.523071,464.666267 L589.05053,463.784958 C589.921837,463.31778 590.755251,462.801515 591.548099,462.239356 Z M577.437947,461.518043 C577.792892,461.894291 578.158798,462.270277 578.538051,462.64834 L579.036314,463.139285 L579.036314,463.139285 L579.540055,463.624295 L578.850639,464.348661 C578.50741,464.021993 578.167896,463.691305 577.832076,463.356577 C577.574426,463.099735 577.322746,462.843758 577.076325,462.587944 L576.710548,462.204258 L577.437947,461.518043 Z M554.843852,460.992576 C555.491044,461.350117 556.149037,461.690632 556.818312,462.014099 L557.491365,462.331882 L557.07263,463.239991 C556.379249,462.920269 555.697547,462.583053 555.027057,462.228378 L554.360287,461.867885 L554.843852,460.992576 Z M595.789094,458.346828 L596.553446,458.991627 C596.029123,459.613166 595.470143,460.209933 594.878371,460.779059 L594.428421,461.200677 L593.754186,460.462161 C594.48216,459.79755 595.161619,459.090645 595.789094,458.346828 Z M549.879078,457.762825 C550.473132,458.21208 551.076486,458.644114 551.689716,459.059005 L552.306259,459.468185 L551.760748,460.306288 C551.126004,459.893141 550.501662,459.462532 549.887149,459.014399 L549.27589,458.560424 L549.879078,457.762825 Z M573.671416,456.94373 C574.083738,457.529605 574.524211,458.11718 574.992833,458.705982 L575.470838,459.295175 L574.700103,459.932331 C574.200505,459.327994 573.72938,458.724255 573.286757,458.121573 L572.853636,457.51926 L573.671416,456.94373 Z M545.372633,453.857502 C545.907727,454.384136 546.449863,454.893905 546.999717,455.387055 L547.55217,455.874676 L546.896437,456.629669 C546.329478,456.137249 545.77081,455.628101 545.219742,455.101992 L544.671183,454.570221 L545.372633,453.857502 Z M598.947158,453.379398 L599.856658,453.795103 C599.519246,454.533309 599.138282,455.258013 598.715689,455.9647 L598.390969,456.491266 L597.547027,455.954831 C598.076572,455.12173 598.544477,454.260404 598.947158,453.379398 Z M570.760218,451.819213 C571.05882,452.513621 571.399993,453.214164 571.783845,453.919718 L572.079738,454.449806 L571.21183,454.94653 C570.791767,454.212569 570.41543,453.48242 570.082815,452.757211 L569.841552,452.214248 L570.760218,451.819213 Z M541.378089,449.462502 C541.803474,449.982038 542.232253,450.488659 542.664996,450.982726 L543.317155,451.714457 L542.57647,452.38631 C542.131949,451.896247 541.691902,451.393771 541.255746,450.87852 L540.604357,450.096015 L541.378089,449.462502 Z M600.578018,447.699452 L601.570616,447.820899 C601.472418,448.623486 601.320561,449.43006 601.116263,450.234279 L600.953226,450.836903 L599.992056,450.560947 C600.265691,449.607856 600.461713,448.650032 600.578018,447.699452 Z M569.25384,446.158398 C569.325352,446.935604 569.4584,447.729504 569.653699,448.537516 L569.778355,449.023995 L568.813096,449.28529 C568.580493,448.426025 568.413417,447.57907 568.311431,446.747265 L568.258047,446.250022 L569.25384,446.158398 Z M537.786765,444.662816 C538.170623,445.220506 538.555398,445.765195 538.941831,446.297596 L539.522816,447.08707 L538.721382,447.685153 C538.32792,447.157912 537.936647,446.618768 537.546808,446.067001 L536.963031,445.229792 L537.786765,444.662816 Z M601.214538,441.709165 C601.427453,442.528019 601.57123,443.377402 601.645362,444.248976 L601.68148,444.774517 L600.682858,444.826998 C600.639512,444.002198 600.531033,443.198149 600.358162,442.422635 L600.246719,441.960813 L601.214538,441.709165 Z M569.003907,440.121049 L569.942337,440.46652 C569.662136,441.22765 569.458745,442.024899 569.334874,442.853365 L569.279578,443.270176 L568.286238,443.154954 C568.408821,442.098157 568.649517,441.083705 569.003907,440.121049 Z M534.565592,439.653695 C534.918872,440.237885 535.270032,440.807714 535.620195,441.364652 L536.144832,442.190575 L535.303279,442.730749 C534.950537,442.181202 534.597468,441.619564 534.242934,441.044352 L533.709892,440.171168 L534.565592,439.653695 Z M598.274521,436.205388 C598.878479,436.866704 599.406643,437.590191 599.856086,438.368357 L600.074234,438.761962 L599.191187,439.231246 C598.801596,438.498157 598.339657,437.815093 597.807839,437.18838 L597.536118,436.879748 L598.274521,436.205388 Z M572.568858,434.95547 L573.229195,435.70644 C572.600757,436.259033 572.038011,436.86523 571.546605,437.519517 L571.306873,437.850643 L570.486696,437.278533 C571.078352,436.430333 571.775882,435.652743 572.568858,434.95547 Z M531.584457,434.487651 C531.962079,435.168758 532.330799,435.825081 532.693932,436.462003 L533.055324,437.092658 L532.1888,437.591794 C531.826903,436.963523 531.460613,436.31775 531.086596,435.649064 L530.70988,434.972538 L531.584457,434.487651 Z M593.079649,432.766422 C593.128619,432.784867 593.128619,432.784867 593.177605,432.803449 C593.983598,433.109718 594.73926,433.475283 595.442324,433.897465 L595.857832,434.157547 L595.311579,434.995168 C594.553821,434.500997 593.723197,434.080531 592.822395,433.738236 C592.790826,433.726261 592.780302,433.722269 592.762769,433.715655 L592.727705,433.702443 L593.079649,432.766422 Z M577.940648,431.955581 L578.249787,432.906598 C577.461856,433.162724 576.710894,433.473054 576.002808,433.834669 L575.583148,434.05777 L575.09916,433.182695 C575.984337,432.69312 576.935192,432.282417 577.940648,431.955581 Z M587.103928,431.242328 C587.897796,431.348136 588.698168,431.494112 589.502417,431.680239 L590.106289,431.827364 L589.858443,432.796163 C589.082735,432.597715 588.310721,432.438022 587.544941,432.317041 L586.971815,432.233563 L587.103928,431.242328 Z M528.727852,429.201151 C529.15622,430.008764 529.546005,430.739443 529.919065,431.43343 L530.141069,431.845741 L529.26092,432.320438 C528.892676,431.637665 528.512175,430.926413 528.097506,430.146348 L527.84443,429.669729 L528.727852,429.201151 Z M583.992807,431.033518 L583.993695,432.033517 C583.1944,432.034227 582.410296,432.080239 581.645357,432.170735 L581.075308,432.246935 L580.92771,431.257888 C581.920554,431.109723 582.944966,431.034448 583.992807,431.033518 Z M525.91933,423.883753 C526.057598,424.144791 526.200749,424.415425 526.35302,424.703634 C526.597836,425.167005 526.731539,425.42044 527.212705,426.333035 L527.321298,426.538997 L526.436717,427.005384 C525.865647,425.922256 525.730953,425.66689 525.468839,425.170779 C525.367429,424.978838 525.270076,424.794712 525.175525,424.616041 L525.035642,424.351829 L525.91933,423.883753 Z M523.082137,418.61593 C523.451123,419.285234 523.828128,419.976742 524.221185,420.704644 L524.519113,421.257617 L523.638328,421.731134 C523.238015,420.986514 522.85581,420.281901 522.483708,419.603153 L522.206402,419.098721 L523.082137,418.61593 Z M520.090705,413.386234 C520.465523,414.013895 520.842511,414.656487 521.223871,415.31732 L521.606769,415.984355 L520.738383,416.480243 C520.356212,415.810996 519.97922,415.161151 519.605222,414.52742 L519.232141,413.898939 L520.090705,413.386234 Z M516.883008,408.30574 C517.248855,408.850783 517.613796,409.4065 517.978695,409.973906 L518.526121,410.833909 L517.680084,411.367034 C517.318363,410.793005 516.957123,410.231206 516.595511,409.68063 L516.052709,408.863058 L516.883008,408.30574 Z M513.337353,403.399952 C513.744401,403.920326 514.148397,404.451281 514.549943,404.993325 L515.150501,405.814771 L514.339592,406.399945 C513.945303,405.853555 513.549,405.318511 513.150091,404.794308 L512.5497,404.016071 L513.337353,403.399952 Z M509.405152,398.808844 C509.860898,399.292367 510.311719,399.786833 510.758085,400.292499 L511.424351,401.059429 L510.66433,401.709327 C510.229207,401.200474 509.790044,400.702898 509.346381,400.216342 L508.677453,399.494739 L509.405152,398.808844 Z M505.01232,394.622464 C505.521591,395.055914 506.024326,395.500784 506.520912,395.957187 L507.261226,396.650456 L506.57096,397.374011 C506.08947,396.914674 505.602234,396.466802 505.108869,396.030277 L504.364178,395.383984 L505.01232,394.622464 Z M500.151236,390.967463 C500.783438,391.384246 501.405827,391.81586 502.018855,392.262343 L502.62878,392.713784 L502.027709,393.51298 C501.499251,393.115529 500.963721,392.729638 500.420798,392.355271 L499.600827,391.802358 L500.151236,390.967463 Z M494.864653,387.9439 C495.548308,388.279432 496.221256,388.629695 496.883867,388.994664 L497.543046,389.364533 L497.046858,390.232748 C496.404741,389.865776 495.752606,389.513186 495.090076,389.174998 L494.424065,388.84161 L494.864653,387.9439 Z M489.272802,385.613804 C489.9949,385.864966 490.70607,386.130235 491.406605,386.409556 L492.103607,386.693558 L491.719295,387.616761 C491.115141,387.365264 490.50275,387.124603 489.881909,386.894818 L488.944284,386.558302 L489.272802,385.613804 Z M470.345723,378.328936 L470.527826,387.327093 L461.438617,383.010117 L470.345723,378.328936 Z M483.461827,383.952937 C484.125842,384.104338 484.781456,384.266094 485.428831,384.438159 L486.393733,384.703984 L486.119371,385.66561 C485.491723,385.486535 484.855946,385.317532 484.211874,385.158647 L483.239524,384.927915 L483.461827,383.952937 Z M477.516348,382.904243 C478.192376,382.990808 478.860484,383.086799 479.520797,383.192172 L480.505436,383.357262 L480.332255,384.342152 C479.689977,384.229215 479.03996,384.12547 478.382077,384.030966 L477.389335,383.896144 L477.516348,382.904243 Z M471.480409,382.392189 C472.161021,382.422262 472.834307,382.460818 473.500364,382.507816 L474.494039,382.584641 L474.410202,383.581121 C473.760209,383.526435 473.10301,383.480051 472.438509,383.442011 L471.436267,383.391214 L471.480409,382.392189 Z"></path>
        </g>
    </g>
</svg>