<svg width="24" height="24" viewBox="0 0 24 24" fill="#48bb78" xmlns="http://www.w3.org/2000/svg">
<path fill-rule="evenodd" clip-rule="evenodd" d="M14.984 17.3842C14.984 18.2752 13.6446 19 11.9943 19C10.344 19 9.00627 18.2752 9.00627 17.3842C9.00852 17.2134 9.05578 17.0463 9.14297 16.901C9.5238 17.557 10.6565 18.0336 11.9943 18.0336C12.8796 18.0336 14.3493 17.7634 14.8473 16.901C14.935 17.0461 14.9823 17.2133 14.984 17.3842ZM5.92221 13.2282L5.8864 13.6292L4.42168 13.4966C4.54329 13.6571 4.62888 13.8433 4.67231 14.0419L4.31915 14.0101C4.28571 13.882 4.23061 13.761 4.1564 13.6527C4.08415 13.5298 3.97826 13.4318 3.85206 13.3708L3.88298 13.0604L5.92221 13.2282ZM7.89307 17.4077C7.89307 18.2852 6.5732 19 4.94735 19C3.32151 19 2 18.2852 2 17.4077C2.00171 17.2391 2.04845 17.0742 2.13508 16.9312C2.5094 17.5772 3.62747 18.047 4.94735 18.047C5.81805 18.047 7.2665 17.7802 7.758 16.9312C7.84447 17.0743 7.8912 17.2391 7.89307 17.4077ZM4.99129 12.6544C6.30629 12.6544 7.3674 13.099 7.3674 13.6326C7.3674 14.1661 6.28351 14.6124 4.94735 14.6124C3.6112 14.6124 2.52567 14.1728 2.52567 13.6326C2.52567 13.0923 3.57539 12.6644 4.88225 12.6544H4.99129ZM4.98153 12.3289C6.5911 12.3289 7.89307 13.0487 7.89307 13.9211C7.89307 14.7936 6.5732 15.5134 4.94735 15.5134C3.32151 15.5134 2 14.8003 2 13.9211C2 13.0419 3.30198 12.3356 4.91317 12.3289H4.98153ZM7.89307 15.6963C7.89307 16.5738 6.5732 17.2886 4.94735 17.2886C3.32151 17.2886 2 16.5738 2 15.6963C2.00097 15.5358 2.04429 15.3786 2.12532 15.2416C2.48824 15.8943 3.61282 16.3742 4.94735 16.3742C5.81968 16.3742 7.28928 16.104 7.76776 15.2383C7.84773 15.377 7.89094 15.5349 7.89307 15.6963ZM3.13923 11.9346L8.56197 6.19128C9.76629 7.40772 10.9332 8.87584 12.1245 10.0906L16.4699 5.5906L15.0702 4.14933L19.4856 4L19.2903 8.4849L17.8467 7.01007C16.8832 8.01678 14.6048 10.2349 13.6413 11.2282C12.4158 12.4849 11.8397 12.5084 10.6256 11.2517L8.56197 8.88926L6.03613 11.9279C5.07751 11.7558 4.09709 11.7581 3.13923 11.9346ZM19.9836 10.1124L19.951 10.4832L18.6002 10.3607C18.7123 10.5089 18.7912 10.6808 18.8313 10.8641L18.5058 10.8356C18.4755 10.7161 18.426 10.6026 18.3593 10.5C18.2916 10.3873 18.1939 10.297 18.0778 10.2399L18.112 9.94463L19.9933 10.1124H19.9836ZM21.9805 15.7735C21.9805 16.6527 20.6606 17.3674 19.0331 17.3674C17.4056 17.3674 16.0874 16.6527 16.0874 15.7735C16.0898 15.6052 16.1358 15.4407 16.2208 15.297C16.5984 15.9446 17.7149 16.4161 19.0347 16.4161C19.9022 16.4161 21.3555 16.1477 21.8552 15.297C21.9414 15.4402 21.9881 15.6049 21.9902 15.7735H21.9805ZM21.9967 14.1158C21.9967 14.995 20.6769 15.7081 19.051 15.7081C17.4252 15.7081 16.1037 14.995 16.1037 14.1158C16.1056 13.9472 16.1523 13.7824 16.2387 13.6393C16.6131 14.2869 17.7311 14.755 19.051 14.755C19.9217 14.755 21.3702 14.4899 21.8617 13.6393C21.9481 13.7824 21.9949 13.9472 21.9967 14.1158ZM19.0966 9.36913C20.4116 9.36913 21.4727 9.81544 21.4727 10.349C21.4727 10.8826 20.3888 11.3272 19.0526 11.3272C17.7165 11.3272 16.631 10.8792 16.631 10.3423C16.631 9.80537 17.6807 9.36913 18.9875 9.36913H19.0966ZM19.0885 9.03356C20.698 9.03356 22 9.75503 22 10.6275C22 11.5 20.6785 12.2215 19.0526 12.2215C17.4268 12.2215 16.1053 11.5067 16.1053 10.6292C16.1053 9.75168 17.4073 9.04195 19.0185 9.03523L19.0885 9.03356ZM22 12.401C22 13.2802 20.6801 13.9933 19.0543 13.9933C17.4284 13.9933 16.1069 13.2802 16.1069 12.401C16.1074 12.2399 16.1507 12.082 16.2322 11.9446C16.5952 12.599 17.7197 13.0789 19.0543 13.0789C19.9266 13.0789 21.3962 12.8087 21.8747 11.9446C21.9547 12.0827 21.9979 12.2402 22 12.401ZM21.9837 17.4044C21.9837 18.2819 20.6638 18.9966 19.0364 18.9966C17.4089 18.9966 16.0907 18.2819 16.0907 17.4044C16.0925 17.236 16.1387 17.0713 16.2241 16.9279C16.6 17.5738 17.7165 18.0436 19.0364 18.0436C19.9087 18.0436 21.3571 17.7768 21.8486 16.9279C21.9351 17.071 21.9818 17.2358 21.9837 17.4044ZM13.0766 13.0419L13.0408 13.443L11.576 13.3104C11.6977 13.4708 11.7832 13.6571 11.8267 13.8557L11.4735 13.8238C11.4402 13.6957 11.3851 13.5747 11.3108 13.4664C11.2379 13.3435 11.1315 13.2454 11.0048 13.1846L11.0341 12.8591L11.7046 12.9195C11.8473 12.9515 11.9931 12.9667 12.1391 12.9648H12.1945L13.0733 13.0436L13.0766 13.0419ZM13.3109 12.5688C13.9977 12.745 14.4502 13.0554 14.4502 13.4077C14.4502 13.9564 13.35 14.401 11.9927 14.401C10.6354 14.401 9.53682 13.9547 9.53682 13.4077C9.53682 13.0235 10.0755 12.6913 10.8632 12.5252C10.7607 12.453 10.6565 12.3742 10.5524 12.2852C9.62959 12.5604 9.00464 13.0906 9.00464 13.6997C9.00464 14.5923 10.3424 15.3154 11.9927 15.3154C13.6429 15.3154 14.9823 14.5923 14.9823 13.6997C14.9823 13.1309 14.4371 12.6292 13.6136 12.3423C13.5095 12.4262 13.4086 12.5017 13.3077 12.5688H13.3109ZM14.984 15.5772C14.984 16.4698 13.6446 17.193 11.9943 17.193C10.344 17.193 9.00627 16.4698 9.00627 15.5772C9.00691 15.414 9.0502 15.254 9.13158 15.1141C9.50102 15.7852 10.6419 16.2668 11.9943 16.2668C12.8796 16.2668 14.372 15.9916 14.8587 15.1141C14.9385 15.2547 14.9816 15.4143 14.984 15.5772Z" fill="#48bb78"/>
</svg>
