<?xml version="1.0" encoding="UTF-8"?>
<svg width="158px" height="112px" viewBox="0 0 158 112" version="1.1" xmlns="http://www.w3.org/2000/svg" xmlns:xlink="http://www.w3.org/1999/xlink">
    <title>594D2644-5B70-4599-A86A-35B0ED1E5E56</title>
    <g id="dashboard" stroke="none" stroke-width="1" fill="none" fill-rule="evenodd">
        <g id="dashboard-noaccess" transform="translate(-720.000000, -418.000000)" fill-rule="nonzero">
            <g id="Group" transform="translate(720.000000, 418.000000)">
                <g id="Group-5" transform="translate(20.137255, 0.000000)">
                    <path d="M0,0 L15.5877364,0 L15.5877364,110.244248 C15.5877364,111.211689 14.8965116,112 14.0482183,112 L1.53982667,112 C0.691533382,112 0.0003085825,111.211689 0.0003085825,110.244248 C0,74.0811815 0,36.1627148 0,0 Z M118.5,110.244248 C118.5,111.211689 117.800135,112 116.951842,112 L104.451782,112 C103.603488,112 102.903623,111.211689 102.903623,110.244248 C102.903623,74.0815334 102.903623,36.1630668 102.903623,0 L118.499691,0 C118.5,36.1627148 118.5,74.0811815 118.5,110.244248 Z" id="Shape" fill="#E7E7E7"></path>
                    <path d="M6.20125525,0 L15.4901961,0 L15.4901961,110.216286 C15.4901961,111.199134 14.7964137,112 13.9449817,112 L4.64705882,112 C5.49880059,112 6.20094553,111.199134 6.20094553,110.216286 C6.20125525,73.4772857 6.20125525,36.7386429 6.20125525,0 Z M118.5,110.216286 C118.5,111.199134 117.797525,112 116.946069,112 L107.656863,112 C108.508629,112 109.202121,111.199134 109.202121,110.216286 C109.202121,73.4776432 109.202121,36.7390004 109.202121,0 L118.49969,0 C118.5,36.7386429 118.5,73.4772857 118.5,110.216286 Z" id="Shape" fill="#D4D4D4"></path>
                </g>
                <g id="Group-2" transform="translate(79.000000, 29.756479) scale(-1, 1) translate(-79.000000, -29.756479) translate(0.000000, 19.183510)">
                    <path d="M4.32123828,0 L153.678453,0 C156.05802,0 158,1.37182755 158,3.05276863 L158,18.0933873 C158,19.7741104 156.05802,21.145938 153.678453,21.145938 L136.402141,21.145938 L128.380555,20.6268975 L122.659844,21.145938 L31.045457,21.145938 L17.5741055,20.6578525 L4.32154688,21.145938 C1.94198047,21.145938 0,19.7741104 0,18.0933873 L0,3.05276863 C0,1.37182755 1.94198047,0 4.32123828,0 Z" id="Path" fill="#DADADA"></path>
                    <path d="M153.352941,0 L126.606991,0 L109.316122,21.145938 L136.062381,21.145938 L153.352941,0 Z M47.9183248,0 L21.172375,0 L3.87254902,21.145938 L30.6184988,21.145938 L47.9183248,0 Z M100.639957,0 L73.8853593,0 L56.5944899,21.145938 L83.3404397,21.145938 L100.639957,0 Z" id="Shape" fill="#B0B0B0"></path>
                </g>
                <g id="Group-4" transform="translate(79.000000, 58.045023) scale(-1, 1) translate(-79.000000, -58.045023) translate(0.000000, 47.472054)">
                    <path d="M4.32123828,0 L153.678453,0 C156.05802,0 158,1.37794555 158,3.05258211 L158,18.0933559 C158,19.7740963 156.05802,21.145938 153.678453,21.145938 L136.402141,21.145938 L128.555527,19.5700531 L122.720945,21.145938 L31.045457,21.145938 L19.2361914,20.169539 L4.32154688,21.145938 C1.94198047,21.146156 0,19.7743143 0,18.0935739 L0,3.0528001 C0,1.37816354 1.94198047,0 4.32123828,0 L4.32123828,0 Z" id="Path" fill="#DADADA"></path>
                    <path d="M153.352941,0 L126.606991,0 L109.316122,21.145938 L136.062381,21.145938 L153.352941,0 Z M47.9183248,0 L21.172375,0 L3.87254902,21.145938 L30.6184988,21.145938 L47.9183248,0 Z M100.639957,0 L73.8853593,0 L56.5944899,21.145938 L83.3404397,21.145938 L100.639957,0 Z" id="Shape" fill="#B0B0B0"></path>
                </g>
            </g>
        </g>
    </g>
</svg>