<svg width="14" height="13" viewBox="0 0 14 13" fill="none" xmlns="http://www.w3.org/2000/svg">
<path d="M2 12.9997C1.33333 12.9997 0.802777 12.7413 0.408333 12.2247C0.0138884 11.708 -0.100001 11.133 0.0666662 10.4997L1.26667 5.96634C0.9 5.73301 0.597222 5.41634 0.358333 5.01634C0.119444 4.61634 -4.89876e-07 4.16634 -4.89876e-07 3.66634C-4.89876e-07 2.93301 0.261111 2.30523 0.783333 1.78301C1.30556 1.26079 1.93333 0.999674 2.66667 0.999674H8C8.5 0.999674 8.87778 1.21079 9.13333 1.63301C9.38889 2.05523 9.40556 2.48856 9.18333 2.93301L7.85 5.59967C7.72778 5.8219 7.56389 5.99967 7.35833 6.13301C7.15278 6.26634 6.92222 6.33301 6.66667 6.33301H5.31667L5.13333 6.99967H5.33333C5.52222 6.99967 5.68056 7.06356 5.80833 7.19134C5.93611 7.31912 6 7.47745 6 7.66634V8.99967C6 9.18856 5.93611 9.3469 5.80833 9.47468C5.68056 9.60245 5.52222 9.66634 5.33333 9.66634H4.43333L3.93333 11.533C3.81111 11.9663 3.57222 12.3191 3.21667 12.5913C2.86111 12.8636 2.45556 12.9997 2 12.9997ZM2 11.6663C2.15556 11.6663 2.28889 11.6219 2.4 11.533C2.51111 11.4441 2.58889 11.3275 2.63333 11.183L3.93333 6.33301H2.55L1.35 10.833C1.29444 11.0441 1.33333 11.2358 1.46667 11.408C1.6 11.5802 1.77778 11.6663 2 11.6663ZM2.66667 4.99967H6.66667L8 2.33301H2.66667C2.3 2.33301 1.98611 2.46356 1.725 2.72467C1.46389 2.98579 1.33333 3.29967 1.33333 3.66634C1.33333 4.03301 1.46389 4.3469 1.725 4.60801C1.98611 4.86912 2.3 4.99967 2.66667 4.99967ZM10.6667 2.33301L10.25 1.43301L12.6667 0.333008L13.0667 1.24967L10.6667 2.33301ZM12.6667 6.99967L10.25 5.91634L10.6667 4.99967L13.0667 6.09967L12.6667 6.99967ZM10.6667 4.16634V3.16634H13.3333V4.16634H10.6667Z" fill="#424242"/>
</svg>
