<?xml version="1.0" encoding="UTF-8"?>
<svg width="100px" height="100px" viewBox="0 0 100 100" version="1.1" xmlns="http://www.w3.org/2000/svg" xmlns:xlink="http://www.w3.org/1999/xlink">
    <title>C17B9807-CB25-463D-A677-C924E90C6B1E</title>
    <g id="shiping" stroke="none" stroke-width="1" fill="none" fill-rule="evenodd">
        <g id="shipping-generate-success" transform="translate(-670.000000, -376.000000)" fill="#43A96B" fill-rule="nonzero">
            <g id="Group-6" transform="translate(516.000000, 326.000000)">
                <g id="success" transform="translate(154.000000, 50.000000)">
                    <path d="M50,0 C22.3829317,0 0,22.3829317 0,50 C0,77.6172691 22.3829317,100 50,100 C77.6170683,100 100,77.6170683 100,50 C100,22.3827309 77.6170683,0 50,0 Z M50,96 C24.636747,96 4,75.363253 4,49.9997992 C4,24.6363454 24.636747,3.9997992 50,3.9997992 C75.3634538,3.9997992 96,24.6365462 96,49.9997992 C96,75.363253 75.3634538,96 50,96 Z" id="Shape"></path>
                    <polygon id="Path" points="75.3202811 30 41.7226908 63.5995984 23.839759 45.7206827 21 48.5606426 41.7226908 69.2793173 78.1405622 32.839759"></polygon>
                </g>
            </g>
        </g>
    </g>
</svg>