<svg width="123" height="13" viewBox="0 0 123 13" fill="none" xmlns="http://www.w3.org/2000/svg">
<g id="Vector">
<path d="M98.6121 4.92224C99.4679 8.1279 97.6232 11.2482 94.5253 12.2269C93.8443 12.4424 93.0607 12.4048 92.339 12.3926C91.8796 12.3855 91.5178 12.3581 91.094 12.2219C89.5288 11.7164 88.3521 10.7691 87.5641 9.38007C86.5345 7.56482 86.5721 5.30948 87.5895 3.51659C88.4138 2.06215 89.7432 1.0661 91.3775 0.633128C91.963 0.477622 92.5565 0.353624 93.2111 0.428836C95.8049 0.723586 97.9271 2.35691 98.6121 4.92224ZM96.181 6.4651C96.181 5.57259 95.8264 4.71663 95.1953 4.08553C94.5642 3.45443 93.7082 3.09988 92.8157 3.09988C91.9232 3.09988 91.0673 3.45443 90.4361 4.08553C89.805 4.71663 89.4505 5.57259 89.4505 6.4651C89.4505 7.35762 89.805 8.21357 90.4361 8.84468C91.0673 9.47578 91.9232 9.83033 92.8157 9.83033C93.7082 9.83033 94.5642 9.47578 95.1953 8.84468C95.8264 8.21357 96.181 7.35762 96.181 6.4651Z" fill="#2C7CF5"/>
<path d="M122.573 8.40941V9.19914C122.437 10.0732 121.976 10.7901 121.191 11.3498C120.606 11.7672 119.953 12.0701 119.231 12.2584C118.545 12.4383 117.831 12.4089 116.97 12.3967C116.511 12.3906 116.108 12.3391 115.76 12.2422C114.12 11.7838 112.553 10.5164 112.443 8.70924C112.442 8.69983 112.444 8.6904 112.447 8.68154C112.45 8.67268 112.455 8.66458 112.462 8.65772C112.468 8.65087 112.476 8.64541 112.485 8.64169C112.493 8.63796 112.503 8.63605 112.512 8.63606H115.354C115.368 8.63615 115.381 8.6409 115.392 8.64957C115.403 8.65823 115.411 8.6703 115.414 8.68383C115.748 10.1718 117.36 10.4716 118.605 10.0051C119.06 9.83437 119.619 9.40038 119.643 8.89321C119.695 7.84532 118.25 7.46011 117.473 7.34323C116.585 7.21042 115.932 7.09185 115.516 6.9875C113.685 6.53114 112.116 5.37044 112.759 3.25129C113.141 1.99403 114.41 1.09149 115.629 0.729661C116.219 0.554844 116.868 0.391206 117.477 0.407468C119.323 0.45727 122.125 1.23785 122.233 3.56942C122.233 3.57599 122.232 3.58256 122.23 3.58871C122.227 3.59487 122.224 3.60049 122.219 3.60524C122.215 3.60998 122.209 3.61376 122.203 3.61634C122.197 3.61892 122.191 3.62024 122.184 3.62024H119.475C119.44 3.62024 119.416 3.60398 119.403 3.57145C119.275 3.25841 119.013 3.03955 118.617 2.91487C117.828 2.66484 116.834 2.63435 116.141 3.14661C115.598 3.54909 115.268 4.39268 116.06 4.76366C116.381 4.91409 116.737 5.00793 117.13 5.0452C118.147 5.14345 119.11 5.32979 120.017 5.60421C121.33 6.0006 122.483 6.91737 122.573 8.40941Z" fill="#2C7CF5"/>
<path d="M21.405 8.77126C22.0325 9.6345 22.768 10.6475 23.6116 11.8102C23.7003 11.9322 23.762 12.0091 23.7966 12.0409C23.8785 12.1141 23.865 12.1507 23.7559 12.1507L20.4557 12.1517C20.4286 12.1517 20.4076 12.1402 20.3927 12.1172L18.5642 9.35567C18.5426 9.32315 18.5121 9.30689 18.4728 9.30689H16.5721C16.5308 9.30689 16.5101 9.32789 16.5101 9.3699V12.1009C16.5101 12.1348 16.4932 12.1517 16.4593 12.1517H13.7466C13.7393 12.1517 13.7324 12.1487 13.7272 12.1434C13.7221 12.1381 13.7192 12.1308 13.7192 12.1233V0.837411C13.7192 0.801499 13.7371 0.783203 13.773 0.782525C14.8829 0.771684 16.5904 0.768635 18.8956 0.773378C19.561 0.775411 20.0526 0.823858 20.3703 0.91872C22.0941 1.43301 23.1898 2.98298 23.3554 4.7525C23.5181 6.48983 22.8737 7.80129 21.4223 8.6869C21.3857 8.70858 21.3799 8.7367 21.405 8.77126ZM16.5132 3.65481L16.503 6.73647C16.503 6.75381 16.5098 6.77046 16.522 6.78282C16.5342 6.79518 16.5507 6.80227 16.5681 6.80253L18.861 6.81066C19.0833 6.81151 19.3035 6.77116 19.5092 6.69193C19.7148 6.61271 19.9018 6.49614 20.0596 6.34891C20.2173 6.20167 20.3426 6.02664 20.4283 5.83382C20.5141 5.641 20.5586 5.43416 20.5594 5.22511V5.19462C20.5609 4.77254 20.3841 4.36711 20.0679 4.06748C19.7517 3.76785 19.322 3.59857 18.8732 3.59688L16.5803 3.58874C16.5715 3.58861 16.5628 3.59022 16.5547 3.59348C16.5465 3.59674 16.5391 3.60158 16.5329 3.60773C16.5267 3.61388 16.5217 3.62121 16.5183 3.62929C16.5149 3.63737 16.5132 3.64605 16.5132 3.65481Z" fill="#2C7CF5"/>
<path d="M39.0788 6.56878C39.0246 6.45088 38.9975 6.45698 38.9975 6.58708V12.1263C38.9975 12.1331 38.9948 12.1395 38.9901 12.1443C38.9853 12.1491 38.9788 12.1517 38.9721 12.1517H36.3265C36.2845 12.1517 36.2635 12.1307 36.2635 12.0887V0.809988C36.2635 0.801362 36.2669 0.793091 36.273 0.786992C36.2791 0.780892 36.2874 0.777466 36.296 0.777466H38.9416C38.964 0.777466 38.9802 0.787289 38.9904 0.806939L42.1818 7.09933C42.2164 7.16845 42.2513 7.16879 42.2865 7.10035L45.4972 0.831334C45.5155 0.795422 45.545 0.777466 45.5857 0.777466H48.2344C48.243 0.777466 48.2513 0.780892 48.2574 0.786992C48.2635 0.793091 48.2669 0.801362 48.2669 0.809988V12.103C48.2669 12.1094 48.2656 12.1157 48.2632 12.1216C48.2607 12.1276 48.2571 12.1329 48.2526 12.1375C48.2481 12.142 48.2427 12.1456 48.2368 12.148C48.2308 12.1505 48.2245 12.1517 48.2181 12.1517H45.5613C45.5521 12.1517 45.5433 12.1481 45.5368 12.1416C45.5304 12.1351 45.5267 12.1264 45.5267 12.1172C45.5274 9.29505 45.5271 7.44389 45.5257 6.5637C45.5257 6.52508 45.5142 6.48815 45.4911 6.45292C45.4634 6.40955 45.4464 6.41328 45.4403 6.4641C45.4322 6.53626 45.4017 6.63993 45.3814 6.68262C43.7531 10.1735 42.9109 11.9813 42.8547 12.106C42.8411 12.1365 42.8177 12.1517 42.7845 12.1517H41.6879C41.67 12.1517 41.6524 12.1464 41.6373 12.1365C41.6221 12.1266 41.6101 12.1125 41.6025 12.0958L39.0788 6.56878Z" fill="#2C7CF5"/>
<path d="M57.9489 5.23733V7.60346C57.9489 7.61478 57.9444 7.62564 57.9364 7.63364C57.9284 7.64165 57.9175 7.64615 57.9062 7.64615H53.366C53.3547 7.64615 53.3439 7.65064 53.3358 7.65865C53.3278 7.66665 53.3233 7.67751 53.3233 7.68884V9.67382C53.3233 9.68514 53.3278 9.696 53.3358 9.704C53.3439 9.71201 53.3547 9.71651 53.366 9.71651H59.1269C59.1382 9.71651 59.1491 9.721 59.1571 9.72901C59.1651 9.73702 59.1696 9.74788 59.1696 9.7592V12.1111C59.1696 12.1224 59.1651 12.1333 59.1571 12.1413C59.1491 12.1493 59.1382 12.1538 59.1269 12.1538H50.6269C50.6156 12.1538 50.6047 12.1493 50.5967 12.1413C50.5887 12.1333 50.5842 12.1224 50.5842 12.1111V0.820152C50.5842 0.808831 50.5887 0.797972 50.5967 0.789966C50.6047 0.781961 50.6156 0.777466 50.6269 0.777466H59.1269C59.1382 0.777466 59.1491 0.781961 59.1571 0.789966C59.1651 0.797972 59.1696 0.808831 59.1696 0.820152V3.1812C59.1696 3.19252 59.1651 3.20338 59.1571 3.21138C59.1491 3.21939 59.1382 3.22389 59.1269 3.22389H53.366C53.3547 3.22389 53.3439 3.22838 53.3358 3.23639C53.3278 3.24439 53.3233 3.25525 53.3233 3.26657V5.15195C53.3233 5.16328 53.3278 5.17413 53.3358 5.18214C53.3439 5.19015 53.3547 5.19464 53.366 5.19464H57.9062C57.9175 5.19464 57.9284 5.19914 57.9364 5.20715C57.9444 5.21515 57.9489 5.22601 57.9489 5.23733Z" fill="#2C7CF5"/>
<path d="M64.0827 5.48837C63.9987 5.34473 63.9567 5.35354 63.9567 5.5148L63.9577 12.0969C63.9577 12.1335 63.9394 12.1517 63.9028 12.1517H61.3151C61.2487 12.1517 61.2155 12.1189 61.2155 12.0532V0.84353C61.2155 0.826009 61.2226 0.809204 61.2352 0.796815C61.2478 0.784425 61.2648 0.777466 61.2826 0.777466H63.8754C63.9364 0.777466 63.9858 0.80118 64.0238 0.848611L69.5671 7.75388C69.6166 7.81622 69.6413 7.80775 69.6413 7.72847V0.835397C69.6413 0.796775 69.6609 0.777466 69.7002 0.777466H72.3164C72.3584 0.777466 72.3794 0.798131 72.3794 0.839464V12.103C72.3794 12.1355 72.3635 12.1517 72.3317 12.1517H69.6911C69.6572 12.1517 69.6294 12.1385 69.6078 12.1121C66.3242 8.18008 64.5198 6.01926 64.1945 5.62965C64.1308 5.55444 64.0936 5.50735 64.0827 5.48837Z" fill="#2C7CF5"/>
<path d="M74.585 0.786601C74.585 0.783798 74.5855 0.781021 74.5866 0.778431C74.5877 0.775842 74.5892 0.77349 74.5912 0.771508C74.5932 0.769526 74.5956 0.767953 74.5981 0.76688C74.6007 0.765808 74.6035 0.765255 74.6063 0.765255L80.0694 0.755094C80.8149 0.753729 81.5535 0.895791 82.2429 1.17317C82.9322 1.45056 83.5588 1.85782 84.087 2.37172C84.6152 2.88562 85.0345 3.49609 85.321 4.16826C85.6075 4.84044 85.7557 5.56116 85.757 6.28927V6.58199C85.7596 8.0524 85.164 9.46366 84.1012 10.5053C83.0384 11.547 81.5954 12.1337 80.0897 12.1365L74.6266 12.1467C74.6238 12.1467 74.6211 12.1461 74.6185 12.145C74.6159 12.144 74.6135 12.1424 74.6115 12.1404C74.6096 12.1384 74.608 12.1361 74.6069 12.1335C74.6059 12.1309 74.6053 12.1281 74.6053 12.1253L74.585 0.786601ZM77.3363 3.53895V9.37499C77.3363 9.38497 77.3403 9.39453 77.3473 9.40159C77.3544 9.40864 77.3639 9.4126 77.3739 9.4126H80.1252C80.5059 9.4126 80.8828 9.33757 81.2345 9.19179C81.5862 9.04602 81.9058 8.83235 82.1749 8.56299C82.4441 8.29363 82.6576 7.97386 82.8033 7.62192C82.949 7.26999 83.024 6.89279 83.024 6.51186V6.40209C83.024 5.63276 82.7186 4.89495 82.1749 4.35095C81.6313 3.80696 80.894 3.50135 80.1252 3.50135H77.3739C77.3639 3.50135 77.3544 3.50531 77.3473 3.51236C77.3403 3.51941 77.3363 3.52898 77.3363 3.53895Z" fill="#2C7CF5"/>
<path d="M105.774 9.63621C107.262 9.63621 108.381 8.55072 108.69 7.14507C108.744 6.90046 108.772 6.47257 108.774 5.86139C108.777 5.28679 108.778 3.60943 108.777 0.829299C108.777 0.815821 108.782 0.802896 108.792 0.793366C108.802 0.783835 108.815 0.77848 108.829 0.77848H111.533C111.556 0.77848 111.568 0.789662 111.568 0.812023C111.569 1.55059 111.57 3.21677 111.569 5.81057C111.569 6.72531 111.52 7.39849 111.423 7.83011C111.24 8.63576 110.988 9.28793 110.664 9.78664C109.741 11.2116 108.51 12.0657 106.972 12.3489C106.798 12.3814 106.399 12.3977 105.774 12.3977C105.149 12.397 104.749 12.3808 104.575 12.3489C103.037 12.0657 101.806 11.2113 100.883 9.78562C100.56 9.28692 100.308 8.63474 100.126 7.82909C100.028 7.39747 99.9792 6.72429 99.9792 5.80955C99.9785 3.21575 99.9792 1.54957 99.9812 0.811005C99.9812 0.788645 99.9927 0.777466 100.016 0.777466L102.72 0.77848C102.734 0.77848 102.747 0.783835 102.757 0.793366C102.767 0.802896 102.772 0.815821 102.772 0.829299C102.771 3.60943 102.771 5.28679 102.774 5.86139C102.776 6.47257 102.804 6.90012 102.858 7.14405C103.168 8.55072 104.286 9.63621 105.774 9.63621Z" fill="#2C7CF5"/>
<path d="M6.45005 0.777437C8.3317 0.77676 10.215 0.778113 12.1001 0.7815C12.1374 0.7815 12.156 0.800136 12.156 0.837403V3.1832C12.156 3.19371 12.1518 3.2038 12.1444 3.21123C12.1369 3.21867 12.1269 3.22284 12.1164 3.22284H7.87602C7.86093 3.22284 7.84645 3.22873 7.83578 3.23921C7.8251 3.2497 7.81911 3.26392 7.81911 3.27874V12.1161C7.81911 12.1198 7.81843 12.1233 7.8171 12.1267C7.81577 12.13 7.81382 12.133 7.81137 12.1356C7.80892 12.1381 7.806 12.1401 7.80279 12.1415C7.79959 12.1429 7.79615 12.1436 7.79268 12.1436C7.34954 12.1483 6.90267 12.1507 6.45208 12.1507C6.00148 12.1514 5.55462 12.1493 5.11148 12.1446C5.10792 12.1446 5.1044 12.1439 5.10113 12.1424C5.09786 12.141 5.0949 12.1389 5.09243 12.1362C5.08997 12.1336 5.08804 12.1304 5.08677 12.127C5.0855 12.1235 5.08492 12.1198 5.08505 12.1161L5.082 3.27874C5.082 3.2714 5.08053 3.26413 5.07767 3.25735C5.07481 3.25057 5.07062 3.2444 5.06533 3.23921C5.06005 3.23402 5.05377 3.2299 5.04687 3.22709C5.03996 3.22429 5.03256 3.22284 5.02508 3.22284L0.784756 3.22487C0.77955 3.22487 0.774396 3.22385 0.769587 3.22186C0.764778 3.21986 0.760408 3.21694 0.756727 3.21326C0.753046 3.20958 0.750127 3.20521 0.748135 3.2004C0.746142 3.19559 0.745117 3.19044 0.745117 3.18523V0.839435C0.745117 0.802168 0.763412 0.783535 0.800002 0.783535C2.68504 0.77947 4.56839 0.777437 6.45005 0.777437Z" fill="#2C7CF5"/>
<path d="M28.4617 5.13569C28.4617 5.17567 28.4817 5.19566 28.5217 5.19566L33.0212 5.19464C33.0659 5.19464 33.0883 5.217 33.0883 5.26172L33.0873 7.5933C33.0873 7.62853 33.0696 7.64615 33.0344 7.64615H28.5075C28.4776 7.64615 28.4627 7.66071 28.4627 7.68985V9.65857C28.4627 9.67448 28.4689 9.68973 28.48 9.70098C28.4911 9.71222 28.5061 9.71854 28.5217 9.71854L34.2154 9.71549C34.2791 9.71549 34.311 9.74734 34.311 9.81103L34.3089 12.0898C34.3089 12.1067 34.3021 12.123 34.2899 12.135C34.2777 12.147 34.2611 12.1538 34.2439 12.1538H25.7612C25.7512 12.1538 25.7417 12.1498 25.7346 12.1428C25.7276 12.1357 25.7236 12.1262 25.7236 12.1162V0.815072C25.7236 0.805098 25.7276 0.795533 25.7346 0.78848C25.7417 0.781428 25.7512 0.777466 25.7612 0.777466L34.2571 0.77848C34.2717 0.77848 34.2856 0.784264 34.2959 0.794557C34.3062 0.80485 34.312 0.818809 34.312 0.833366L34.3069 3.15375C34.3062 3.20051 34.2825 3.22389 34.2358 3.22389H28.5207C28.482 3.22389 28.4627 3.2432 28.4627 3.28182L28.4617 5.13569Z" fill="#2C7CF5"/>
</g>
</svg>
