<svg width="65" height="64" viewBox="0 0 65 64" fill="none" xmlns="http://www.w3.org/2000/svg">
<circle cx="32.5" cy="32" r="32" fill="#FEF5E7"/>
<path d="M35.6999 30.4V25.6C35.6999 23.84 34.2599 22.4 32.4999 22.4C30.7399 22.4 29.2999 23.84 29.2999 25.6H26.0999C26.0999 22.064 28.9639 19.2 32.4999 19.2C36.0359 19.2 38.8999 22.064 38.8999 25.6V30.4H40.4999C41.3799 30.4 42.0999 31.12 42.0999 32V43.2C42.0999 44.08 41.3799 44.8 40.4999 44.8H24.4999C23.6199 44.8 22.8999 44.08 22.8999 43.2V32C22.8999 31.12 23.6199 30.4 24.4999 30.4H35.6999ZM34.0999 41.6L33.5239 38.16C34.3399 37.776 34.8999 36.96 34.8999 36C34.8999 34.672 33.8279 33.6 32.4999 33.6C31.1719 33.6 30.0999 34.672 30.0999 36C30.0999 36.96 30.6599 37.776 31.4759 38.16L30.8999 41.6H34.0999Z" fill="#F59E0B"/>
</svg>
