<svg width="100" height="99" viewBox="0 0 100 99" fill="none" xmlns="http://www.w3.org/2000/svg">
<circle cx="50" cy="49.5" r="49.5" fill="#E8F2FF"/>
<path d="M36.75 32.275C36.75 31.2208 37.1688 30.2098 37.9143 29.4643C38.6597 28.7188 39.6708 28.3 40.725 28.3H59.275C60.3292 28.3 61.3403 28.7188 62.0857 29.4643C62.8312 30.2098 63.25 31.2208 63.25 32.275V46.9587C62.1098 46.766 60.9413 46.8243 59.826 47.1296C58.7107 47.4349 57.6754 47.9799 56.7923 48.7264C55.9093 49.473 55.1997 50.4032 54.7131 51.4522C54.2265 52.5012 53.9746 53.6437 53.975 54.8V54.967C52.8371 55.2608 51.8291 55.9245 51.1096 56.8537C50.39 57.7828 49.9997 58.9248 50 60.1H46.025C45.6736 60.1 45.3366 60.2396 45.0881 60.4881C44.8396 60.7366 44.7 61.0736 44.7 61.425C44.7 61.7765 44.8396 62.1135 45.0881 62.362C45.3366 62.6105 45.6736 62.75 46.025 62.75H50V70.7001H40.725C39.6708 70.7001 38.6597 70.2813 37.9143 69.5358C37.1688 68.7903 36.75 67.7793 36.75 66.7251V32.275ZM56.625 54.8V57.4501H55.3C54.5972 57.4501 53.9231 57.7292 53.4262 58.2262C52.9292 58.7232 52.65 59.3972 52.65 60.1V70.7001C52.65 71.4029 52.9292 72.0769 53.4262 72.5739C53.9231 73.0709 54.5972 73.3501 55.3 73.3501H68.55C69.2528 73.3501 69.9269 73.0709 70.4238 72.5739C70.9208 72.0769 71.2 71.4029 71.2 70.7001V60.1C71.2 59.3972 70.9208 58.7232 70.4238 58.2262C69.9269 57.7292 69.2528 57.4501 68.55 57.4501H67.225V54.8C67.225 53.3944 66.6666 52.0463 65.6727 51.0524C64.6787 50.0584 63.3306 49.5 61.925 49.5C60.5194 49.5 59.1713 50.0584 58.1773 51.0524C57.1834 52.0463 56.625 53.3944 56.625 54.8ZM59.275 57.4501V54.8C59.275 54.0972 59.5542 53.4232 60.0512 52.9262C60.5481 52.4292 61.2222 52.15 61.925 52.15C62.6278 52.15 63.3019 52.4292 63.7988 52.9262C64.2958 53.4232 64.575 54.0972 64.575 54.8V57.4501H59.275ZM61.925 63.4126C62.4521 63.4126 62.9576 63.6219 63.3304 63.9947C63.7031 64.3674 63.9125 64.8729 63.9125 65.4001C63.9125 65.9272 63.7031 66.4327 63.3304 66.8054C62.9576 67.1782 62.4521 67.3876 61.925 67.3876C61.3979 67.3876 60.8924 67.1782 60.5196 66.8054C60.1469 66.4327 59.9375 65.9272 59.9375 65.4001C59.9375 64.8729 60.1469 64.3674 60.5196 63.9947C60.8924 63.6219 61.3979 63.4126 61.925 63.4126Z" fill="#1672ED"/>
</svg>
