<svg xmlns="http://www.w3.org/2000/svg" width="128" height="128" viewBox="0 0 128 128" fill="none">
<rect width="128" height="128" rx="64" fill="#E5E5E5"/>
<path d="M35.5557 41.3904C35.5557 38.168 38.168 35.5557 41.3904 35.5557H55.248C58.4704 35.5557 61.0827 38.168 61.0827 41.3904V55.248C61.0827 58.4704 58.4704 61.0827 55.248 61.0827H41.3904C38.168 61.0827 35.5557 58.4704 35.5557 55.248V41.3904Z" fill="#737373"/>
<path d="M35.5557 72.7522C35.5557 69.5298 38.168 66.9175 41.3904 66.9175H55.248C58.4704 66.9175 61.0827 69.5298 61.0827 72.7522V86.6098C61.0827 89.8322 58.4704 92.4446 55.248 92.4446H41.3904C38.168 92.4446 35.5557 89.8322 35.5557 86.6098V72.7522Z" fill="#737373"/>
<path d="M66.917 41.3904C66.917 38.168 69.5293 35.5557 72.7518 35.5557H86.6093C89.8318 35.5557 92.4441 38.168 92.4441 41.3904V55.248C92.4441 58.4704 89.8318 61.0827 86.6093 61.0827H72.7518C69.5293 61.0827 66.917 58.4704 66.917 55.248V41.3904Z" fill="#737373"/>
<path d="M66.917 72.7522C66.917 69.5298 69.5293 66.9175 72.7518 66.9175H86.6093C89.8318 66.9175 92.4441 69.5298 92.4441 72.7522V86.6098C92.4441 89.8322 89.8318 92.4446 86.6093 92.4446H72.7518C69.5293 92.4446 66.917 89.8322 66.917 86.6098V72.7522Z" fill="#737373"/>
<circle cx="93.1558" cy="40.5333" r="15.6444" fill="#E5E5E5" stroke="#E5E5E5" stroke-width="2.84444"/>
<path fill-rule="evenodd" clip-rule="evenodd" d="M93.1558 26.311C90.3429 26.311 87.5932 27.1452 85.2544 28.7079C82.9155 30.2707 81.0926 32.4919 80.0162 35.0906C78.9398 37.6894 78.6581 40.549 79.2069 43.3079C79.7556 46.0667 81.1102 48.6009 83.0992 50.5899C85.0882 52.5789 87.6224 53.9334 90.3812 54.4822C93.14 55.031 95.9997 54.7493 98.5984 53.6729C101.197 52.5964 103.418 50.7735 104.981 48.4347C106.544 46.0959 107.378 43.3461 107.378 40.5333C107.378 36.7613 105.88 33.1438 103.212 30.4766C100.545 27.8094 96.9278 26.311 93.1558 26.311ZM97.0995 42.2722L100.205 45.3775C100.35 45.5223 100.464 45.6941 100.543 45.8833C100.621 46.0724 100.661 46.2752 100.661 46.4799C100.661 46.6846 100.621 46.8873 100.543 47.0765C100.464 47.2656 100.35 47.4375 100.205 47.5823C100.06 47.727 99.8882 47.8419 99.699 47.9202C99.5099 47.9986 99.3072 48.0389 99.1024 48.0389C98.8977 48.0389 98.695 47.9986 98.5058 47.9202C98.3167 47.8419 98.1448 47.727 98.0001 47.5823L93.1558 42.738L88.3116 47.5823C88.1668 47.727 87.9949 47.8419 87.8058 47.9202C87.6166 47.9986 87.4139 48.0389 87.2092 48.0389C87.0045 48.0389 86.8017 47.9986 86.6126 47.9202C86.4234 47.8419 86.2516 47.727 86.1068 47.5823C85.962 47.4375 85.8472 47.2656 85.7689 47.0765C85.6905 46.8873 85.6502 46.6846 85.6502 46.4799C85.6502 46.2752 85.6905 46.0724 85.7689 45.8833C85.8472 45.6941 85.962 45.5223 86.1068 45.3775L90.9511 40.5333L89.2121 38.7322L86.1068 35.6269C85.962 35.4821 85.8472 35.3103 85.7689 35.1211C85.6905 34.932 85.6502 34.7293 85.6502 34.5245C85.6502 34.3198 85.6905 34.1171 85.7689 33.9279C85.8472 33.7388 85.962 33.5669 86.1068 33.4221C86.2516 33.2774 86.4234 33.1625 86.6126 33.0842C86.8017 33.0059 87.0045 32.9655 87.2092 32.9655C87.4139 32.9655 87.6166 33.0059 87.8058 33.0842C87.9949 33.1625 88.1668 33.2774 88.3116 33.4221L93.1558 38.2664L98.0001 33.4221C98.1448 33.2713 98.3179 33.1504 98.5094 33.0664C98.7009 32.9824 98.907 32.9369 99.1161 32.9326C99.3251 32.9283 99.533 32.9652 99.7278 33.0412C99.9226 33.1172 100.101 33.2308 100.251 33.3756C100.402 33.5203 100.523 33.6934 100.607 33.8849C100.691 34.0764 100.737 34.2825 100.741 34.4916C100.745 34.7006 100.708 34.9085 100.632 35.1033C100.556 35.2981 100.443 35.476 100.298 35.6269L95.4537 40.4711L97.0995 42.2722Z" fill="#737373"/>
</svg>
