<svg width="512" height="512" viewBox="0 0 512 512" fill="none" xmlns="http://www.w3.org/2000/svg">
<path d="M0 421.647H90.3529V512H0V421.647Z" fill="white"/>
<path d="M421.647 421.647H512V512H421.647V421.647Z" fill="white"/>
<path d="M30.1177 391.529H60.2353V331.294H180.706V301.176H30.1177V391.529Z" fill="white"/>
<path d="M451.765 391.529H481.882V301.176H331.294V331.294H451.765V391.529Z" fill="white"/>
<path d="M271.059 210.824H361.412C402.929 210.824 436.706 177.047 436.706 135.529C436.706 97.0682 407.719 65.2499 370.444 60.7744C358.773 33.3784 331.707 15.0588 301.176 15.0588C288.781 15.0588 276.629 18.1358 265.807 23.8943C251.704 8.8867 231.745 -1.52588e-05 210.823 -1.52588e-05C174.018 -1.52588e-05 143.294 26.5487 136.796 61.5022C101.843 67.9996 75.2941 98.7236 75.2941 135.529C75.2941 177.047 109.071 210.824 150.588 210.824H240.941V271.059H210.823V361.412H240.941V421.647H210.823V512H301.176V421.647H271.059V361.412H301.176V271.059H271.059V210.824Z" fill="white"/>
</svg>
