<svg id="buyback-icon" width="25" height="25" viewBox="0 0 24 24" fill="none" xmlns="http://www.w3.org/2000/svg">
<g clip-path="url(#clip0_1_2)">
<path fill-rule="evenodd" clip-rule="evenodd" d="M7.00927 8.44012V14.4181C7.00927 14.7394 6.75375 14.9999 6.43852 14.9999H0.570907C0.255502 14.9999 0 14.7394 0 14.4181V8.44012C0 8.11889 0.255502 7.85849 0.570907 7.85849H2.57346V10.0947L3.50463 9.39179L4.42443 10.0947V7.85849H6.43852C6.75375 7.85849 7.00927 8.11889 7.00927 8.44012Z" fill="currentColor"/>
<path fill-rule="evenodd" clip-rule="evenodd" d="M15 8.44019V14.4182C15 14.7394 14.7443 15 14.4293 15H8.56164C8.24626 15 7.99074 14.7394 7.99074 14.4182V8.44019C7.99074 8.11889 8.24626 7.85849 8.56164 7.85849H10.5642V10.0947L11.4953 9.39187L12.4152 10.0947V7.85849H14.4293C14.7443 7.85849 15 8.11889 15 8.44019Z" fill="currentColor"/>
<path fill-rule="evenodd" clip-rule="evenodd" d="M11.1882 0.581648V6.55965C11.1882 6.88095 10.9327 7.1415 10.6174 7.1415H4.74982C4.43455 7.1415 4.17891 6.88095 4.17891 6.55965V0.581648C4.17891 0.26037 4.43455 0 4.74982 0H6.75238V2.23618L7.6835 1.53332L8.60338 2.23618V0H10.6174C10.9327 0 11.1882 0.26037 11.1882 0.581648Z" fill="currentColor"/>
</g>
<defs>
<clipPath id="clip0_1_2">
<rect width="15" height="15" fill="white"/>
</clipPath>
</defs>
</svg>
