<svg width="41" height="40" viewBox="0 0 41 40" fill="none" xmlns="http://www.w3.org/2000/svg">
<g id="Sell Bulk">
<g id="Vector">
<path fill-rule="evenodd" clip-rule="evenodd" d="M19.2429 22.0891V35.3736C19.2429 36.0876 18.6751 36.6665 17.9745 36.6665H4.93542C4.23453 36.6665 3.66675 36.0876 3.66675 35.3736V22.0891C3.66675 21.3752 4.23453 20.7966 4.93542 20.7966H9.38557V25.7658L11.4548 24.2039L13.4988 25.7658V20.7966H17.9745C18.6751 20.7966 19.2429 21.3752 19.2429 22.0891Z" fill="#737373"/>
<path fill-rule="evenodd" clip-rule="evenodd" d="M37.0001 22.0892V35.3737C37.0001 36.0877 36.432 36.6666 35.7317 36.6666H22.6926C21.9917 36.6666 21.4239 36.0877 21.4239 35.3737V22.0892C21.4239 21.3753 21.9917 20.7966 22.6926 20.7966H27.1428V25.7659L29.212 24.204L31.256 25.7659V20.7966H35.7317C36.432 20.7966 37.0001 21.3753 37.0001 22.0892Z" fill="#737373"/>
<path fill-rule="evenodd" clip-rule="evenodd" d="M28.5294 4.6258V17.9103C28.5294 18.6243 27.9616 19.2032 27.2611 19.2032H14.2219C13.5214 19.2032 12.9533 18.6243 12.9533 17.9103V4.6258C12.9533 3.91186 13.5214 3.33325 14.2219 3.33325H18.6721V8.30253L20.7413 6.74061L22.7854 8.30253V3.33325H27.2611C27.9616 3.33325 28.5294 3.91186 28.5294 4.6258Z" fill="#737373"/>
</g>
</g>
</svg>
