<svg width="24" height="24" viewBox="0 0 24 24" fill="none" xmlns="http://www.w3.org/2000/svg">
<path id="buyback-icon" d="M8.42857 2C6.95094 2 5.53382 2.57946 4.48898 3.61091C3.44413 4.64236 2.85714 6.04131 2.85714 7.5H1L3.47619 9.94444L5.95238 7.5H4.09524C4.09524 6.36546 4.55178 5.27739 5.36444 4.47515C6.1771 3.67292 7.2793 3.22222 8.42857 3.22222C9.57784 3.22222 10.68 3.67292 11.4927 4.47515C12.3054 5.27739 12.7619 6.36546 12.7619 7.5C12.7619 8.63454 12.3054 9.72261 11.4927 10.5248C10.68 11.3271 9.57784 11.7778 8.42857 11.7778C7.5 11.7778 6.62714 11.4722 5.91524 10.9833L5.02381 11.8633C5.97714 12.5722 7.15333 13 8.42857 13C9.90621 13 11.3233 12.4205 12.3682 11.3891C13.413 10.3576 14 8.95869 14 7.5C14 6.04131 13.413 4.64236 12.3682 3.61091C11.3233 2.57946 9.90621 2 8.42857 2V2ZM9.66667 7.5C9.66667 7.17585 9.53622 6.86497 9.30404 6.63576C9.07185 6.40655 8.75693 6.27778 8.42857 6.27778C8.10021 6.27778 7.78529 6.40655 7.55311 6.63576C7.32092 6.86497 7.19048 7.17585 7.19048 7.5C7.19048 7.82415 7.32092 8.13503 7.55311 8.36424C7.78529 8.59345 8.10021 8.72222 8.42857 8.72222C8.75693 8.72222 9.07185 8.59345 9.30404 8.36424C9.53622 8.13503 9.66667 7.82415 9.66667 7.5Z" fill="currentColor"/>
</svg>
