<?xml version="1.0" encoding="UTF-8"?>
<svg width="15px" height="15px" viewBox="0 0 15 15" version="1.1" xmlns="http://www.w3.org/2000/svg" xmlns:xlink="http://www.w3.org/1999/xlink">
    <title>ico/company-fill</title>
    <g id="ico/company-fill" stroke="none" stroke-width="1" fill="none" fill-rule="evenodd">
        <g id="company" transform="translate(1.000000, 1.000000)" fill="#FFFFFF" fill-rule="nonzero">
            <path d="M7.00924138,0.0120067645 L1.09737931,0.0120067645 C0.823034483,-0.0316503556 0.543310345,0.0447496046 0.333517241,0.224835225 C0.123724138,0.410377986 0,0.677777846 0,0.956091987 L0,12.454286 C0,12.7544287 0.242068966,13 0.537931034,13 L2.2862069,13 L2.2862069,10.1350015 C2.2862069,9.60565891 2.7057931,9.18000199 3.22758621,9.18000199 L4.57241379,9.18000199 C5.0942069,9.18000199 5.5137931,9.60565891 5.5137931,10.1350015 L5.5137931,13 L7.8,13 L7.8,0.956091987 C7.8,0.486777946 7.46648276,0.0884067247 7.00924138,0.0120067645 Z M3.03931034,8.14314539 L2.17862069,8.14314539 C1.94107034,8.14314539 1.74827586,7.94756149 1.74827586,7.70657419 C1.74827586,7.46558688 1.94107034,7.27000298 2.17862069,7.27000298 L3.03931034,7.27000298 C3.27686069,7.27000298 3.46965517,7.46558688 3.46965517,7.70657419 C3.46965517,7.94756149 3.27686069,8.14314539 3.03931034,8.14314539 Z M5.62137931,8.14314539 L4.76068966,8.14314539 C4.52313931,8.14314539 4.33034483,7.94756149 4.33034483,7.70657419 C4.33034483,7.46558688 4.52313931,7.27000298 4.76068966,7.27000298 L5.62137931,7.27000298 C5.85892966,7.27000298 6.05172414,7.46558688 6.05172414,7.70657419 C6.05172414,7.94756149 5.85892966,8.14314539 5.62137931,8.14314539 Z M3.03931034,6.39686058 L2.17862069,6.39686058 C1.94107034,6.39686058 1.74827586,6.20127668 1.74827586,5.96028938 C1.74827586,5.71930208 1.94107034,5.52371818 2.17862069,5.52371818 L3.03931034,5.52371818 C3.27686069,5.52371818 3.46965517,5.71930208 3.46965517,5.96028938 C3.46965517,6.20127668 3.27686069,6.39686058 3.03931034,6.39686058 Z M5.62137931,6.39686058 L4.76068966,6.39686058 C4.52313931,6.39686058 4.33034483,6.20127668 4.33034483,5.96028938 C4.33034483,5.71930208 4.52313931,5.52371818 4.76068966,5.52371818 L5.62137931,5.52371818 C5.85892966,5.52371818 6.05172414,5.71930208 6.05172414,5.96028938 C6.05172414,6.20127668 5.85892966,6.39686058 5.62137931,6.39686058 Z M3.03931034,4.65057578 L2.17862069,4.65057578 C1.94107034,4.65057578 1.74827586,4.45499188 1.74827586,4.21400458 C1.74827586,3.97301727 1.94107034,3.77743337 2.17862069,3.77743337 L3.03931034,3.77743337 C3.27686069,3.77743337 3.46965517,3.97301727 3.46965517,4.21400458 C3.46965517,4.45499188 3.27686069,4.65057578 3.03931034,4.65057578 Z M5.62137931,4.65057578 L4.76068966,4.65057578 C4.52313931,4.65057578 4.33034483,4.45499188 4.33034483,4.21400458 C4.33034483,3.97301727 4.52313931,3.77743337 4.76068966,3.77743337 L5.62137931,3.77743337 C5.85892966,3.77743337 6.05172414,3.97301727 6.05172414,4.21400458 C6.05172414,4.45499188 5.85892966,4.65057578 5.62137931,4.65057578 Z M3.03931034,2.90429097 L2.17862069,2.90429097 C1.94107034,2.90429097 1.74827586,2.70870707 1.74827586,2.46771977 C1.74827586,2.22673247 1.94107034,2.03114857 2.17862069,2.03114857 L3.03931034,2.03114857 C3.27686069,2.03114857 3.46965517,2.22673247 3.46965517,2.46771977 C3.46965517,2.70870707 3.27686069,2.90429097 3.03931034,2.90429097 Z M5.62137931,2.90429097 L4.76068966,2.90429097 C4.52313931,2.90429097 4.33034483,2.70870707 4.33034483,2.46771977 C4.33034483,2.22673247 4.52313931,2.03114857 4.76068966,2.03114857 L5.62137931,2.03114857 C5.85892966,2.03114857 6.05172414,2.22673247 6.05172414,2.46771977 C6.05172414,2.70870707 5.85892966,2.90429097 5.62137931,2.90429097 Z" id="Shape"></path>
            <path d="M12.2763697,4.82857143 L8.54285714,4.82857143 L8.54285714,13 L12.0823529,13 C12.5883697,13 13,12.5621154 13,12.0238242 L13,5.78243469 C13,5.32167969 12.7047798,4.9295359 12.2763697,4.82857143 Z M11.0336134,10.4340521 L10.2470588,10.4340521 C10.0299697,10.4340521 9.85378151,10.2466263 9.85378151,10.015691 C9.85378151,9.78475566 10.0299697,9.5973299 10.2470588,9.5973299 L11.0336134,9.5973299 C11.2507025,9.5973299 11.4268908,9.78475566 11.4268908,10.015691 C11.4268908,10.2466263 11.2507025,10.4340521 11.0336134,10.4340521 Z M11.0336134,8.76060775 L10.2470588,8.76060775 C10.0299697,8.76060775 9.85378151,8.57318198 9.85378151,8.34224667 C9.85378151,8.11131135 10.0299697,7.92388559 10.2470588,7.92388559 L11.0336134,7.92388559 C11.2507025,7.92388559 11.4268908,8.11131135 11.4268908,8.34224667 C11.4268908,8.57318198 11.2507025,8.76060775 11.0336134,8.76060775 Z M11.0336134,6.97560048 L10.2470588,6.97560048 C10.0299697,6.97560048 9.85378151,6.78817472 9.85378151,6.5572394 C9.85378151,6.32630409 10.0299697,6.13887832 10.2470588,6.13887832 L11.0336134,6.13887832 C11.2507025,6.13887832 11.4268908,6.32630409 11.4268908,6.5572394 C11.4268908,6.78817472 11.2507025,6.97560048 11.0336134,6.97560048 Z" id="Shape"></path>
        </g>
    </g>
</svg>