<?xml version="1.0" encoding="UTF-8"?>
<svg width="15px" height="15px" viewBox="0 0 15 15" version="1.1" xmlns="http://www.w3.org/2000/svg" xmlns:xlink="http://www.w3.org/1999/xlink">
  <title>ico/customer-fill</title>
  <g id="buyback-icon" stroke="none" stroke-width="1" fill="none" fill-rule="evenodd">
    <g id="user-list" transform="translate(1.000000, 1.044945)" fill="currentColor" fill-rule="nonzero">
      <path d="M12.8288816,2.71012356 C12.704553,2.53985189 12.5285247,2.4427176 12.3439017,2.4427176 L0.656098255,2.4427176 C0.471540867,2.4427176 0.295447007,2.53985189 0.171118444,2.71012356 C0.0467898805,2.88039522 -0.014291857,3.10824312 0.0028320243,3.33764713 L0.0028320243,11.6996321 C0.0342586111,12.1207657 0.317294718,12.4427176 0.656098255,12.4427176 L12.3439017,12.4427176 C12.6827053,12.4427176 12.9657414,12.1206838 12.997168,11.6996321 L12.997168,3.33764713 C13.0142919,3.10824312 12.9532101,2.88039522 12.8288816,2.71012356 Z M9.02497762,10.407248 C9.0244477,10.4071741 9.02399349,10.4071741 9.02346357,10.407248 L3.97661213,10.407248 C3.55850782,10.407248 3.2195882,10.0762666 3.2195882,9.66812028 C3.2195882,8.66438485 4.05594824,7.84779655 5.08398674,7.84779655 L5.62730281,7.84779655 C5.06854345,7.54638026 4.68912306,6.96527805 4.68912306,6.29917616 C4.68912306,5.3242667 5.50148544,4.53103484 6.5000757,4.53103484 C7.49866597,4.53103484 8.31102835,5.32419279 8.31102835,6.29917616 C8.31102835,6.96527805 7.93160795,7.54638026 7.37284859,7.84779655 L7.91616467,7.84779655 C8.9232336,7.84779655 9.74634572,8.63149366 9.77950337,9.60706834 C9.78116882,9.62717261 9.78207725,9.64757253 9.78207725,9.66812028 C9.78200155,10.0763405 9.44308193,10.407248 9.02497762,10.407248 Z M12.5436248,0.554345787 C12.5436248,0.860566399 12.2894162,1.10869157 11.9758569,1.10869157 L1.0242188,1.10869157 C0.710659493,1.10869157 0.456450857,0.860566399 0.456450857,0.554345787 C0.456450857,0.248125174 0.710659493,0 1.0242188,0 L11.9758569,0 C12.2894162,0 12.5436248,0.248125174 12.5436248,0.554345787 Z" id="Shape"></path>
    </g>
  </g>
</svg>