<svg width="24" height="24" viewBox="0 0 24 24" fill="none" xmlns="http://www.w3.org/2000/svg">
<path fill-rule="evenodd" clip-rule="evenodd" d="M3.42154 6H20.5769C20.68 5.99975 20.7825 6.0108 20.8827 6.03264C20.9642 6.05037 21.0438 6.07504 21.1209 6.10665C21.2936 6.17731 21.4503 6.28113 21.5827 6.41192C21.7148 6.54272 21.8196 6.69818 21.8913 6.86932C21.963 7.04021 21.9997 7.22368 22 7.40895V11.7476C22 12.1217 21.8502 12.4805 21.5837 12.7449C21.3172 13.0093 20.9557 13.1578 20.5787 13.1578H18.4387C17.2772 12.6835 16.1237 12.2171 14.8615 11.7072C14.7564 11.6661 14.6495 11.6307 14.5408 11.6006L14.4878 11.5857L14.3555 11.5441H14.2095C13.7565 11.5441 13.3664 11.7399 13.1362 12.0742C13.0105 12.2605 12.8391 12.6318 12.9838 13.1591H3.42154C3.33006 13.1591 3.23909 13.1504 3.14993 13.1332C3.05691 13.1152 2.96543 13.0879 2.87729 13.0517C2.70486 12.981 2.54811 12.8772 2.41603 12.7462C2.28421 12.6151 2.17936 12.4596 2.10793 12.2885C2.03675 12.1174 2 11.9341 2 11.7489V7.40998C2 7.0361 2.14981 6.67737 2.41629 6.41295C2.68276 6.14853 3.04431 6 3.42154 6ZM7.17789 10.731H7.9141L8.44242 8.59126H7.79512L7.54406 10.0406L7.21438 8.59126H6.55577L6.21811 10.0526L5.96783 8.59126H5.31976L5.84268 10.731H6.57761L6.88135 9.42152L7.17789 10.731ZM10.4653 10.731H11.2015L11.7301 8.59126H11.0825L10.8345 10.0406L10.5041 8.59126H9.8452L9.50626 10.0526L9.25521 8.59126H8.60765L9.13006 10.731H9.86525L10.169 9.42152L10.4653 10.731ZM13.7529 10.731H14.4891L15.0174 8.59126H14.3699L14.1196 10.0406L13.7891 8.59126H13.1326L12.7936 10.0526L12.5428 8.59126H11.8953L12.4177 10.731H13.1526L13.4564 9.42152L13.7529 10.731ZM15.5617 10.7552C15.6539 10.7593 15.7444 10.7277 15.8138 10.6673C15.8441 10.639 15.8683 10.6051 15.8847 10.5673C15.9011 10.5296 15.9096 10.4887 15.9096 10.4476C15.9096 10.4065 15.9011 10.3656 15.8847 10.3278C15.8683 10.2901 15.8441 10.2561 15.8138 10.2279C15.7418 10.1708 15.6524 10.14 15.5602 10.14C15.4682 10.14 15.3787 10.1708 15.3065 10.2279C15.2762 10.2561 15.2518 10.2903 15.2351 10.3281C15.2184 10.3661 15.2099 10.407 15.2099 10.4484C15.2099 10.4897 15.2184 10.5308 15.2351 10.5686C15.2518 10.6067 15.2762 10.6408 15.3065 10.6691C15.3774 10.729 15.4687 10.7598 15.5617 10.7552ZM15.5617 9.53664C15.6539 9.54075 15.7444 9.50915 15.8138 9.44876C15.8441 9.42049 15.8683 9.38657 15.8847 9.3488C15.9011 9.31102 15.9096 9.27017 15.9096 9.22905C15.9096 9.18794 15.9011 9.14708 15.8847 9.10931C15.8683 9.07153 15.8441 9.03761 15.8138 9.00935C15.7418 8.95256 15.6524 8.92146 15.5602 8.92146C15.4682 8.92146 15.3787 8.95256 15.3065 9.00935C15.295 9.01962 15.2844 9.03067 15.2747 9.04249C15.2582 9.06279 15.2443 9.08541 15.2338 9.10956C15.2171 9.14759 15.2089 9.18897 15.2102 9.23059C15.2096 9.24935 15.2109 9.26811 15.2143 9.28661C15.2181 9.30871 15.2248 9.3303 15.2338 9.35085C15.2505 9.38889 15.2752 9.42255 15.3065 9.45004C15.3774 9.51017 15.4687 9.54127 15.5617 9.53664ZM16.799 7.84631L15.9834 11.3169L16.5603 11.3156L17.3761 7.84631H16.799ZM17.2852 11.3169H17.8621L18.6779 7.84631H18.1008L17.2852 11.3169Z" fill="black"/>
<path d="M14.5133 12.545C14.4033 12.4997 14.2856 12.4715 14.2095 12.4478C13.961 12.4478 13.8292 12.5773 13.84 12.7914C13.8436 12.8605 13.8619 12.9384 13.896 13.0234C14.4709 14.4427 15.0588 15.8562 15.6462 17.2701C15.7076 17.4176 15.784 17.5774 15.979 17.5761C16.0777 17.5753 16.1424 17.5324 16.1907 17.4713C16.238 17.4117 16.2699 17.3346 16.3028 17.2621C16.3259 17.2176 16.3434 17.1704 16.3549 17.1218C16.595 15.922 17.3098 15.1999 18.5248 14.9522C18.7193 14.9132 18.9822 14.8482 18.995 14.595C19.0071 14.3576 18.8033 14.28 18.6186 14.2096L18.5417 14.1798C17.1999 13.6327 15.8569 13.0877 14.5133 12.545Z" fill="black"/>
</svg>
