<svg xmlns="http://www.w3.org/2000/svg" style="display: none;">
  <symbol id="buyback-icon" viewBox="0 0 24 24" fill="none">
    <path fill-rule="evenodd" clip-rule="evenodd" d="M20.3209 13.9222C20.1377 13.779 19.9121 13.6797 19.6917 13.64C19.6278 13.6234 19.5618 13.6151 19.4955 13.6151C19.2961 13.6151 19.1044 13.6928 18.9809 13.8178C18.6884 14.0839 18.3959 14.3498 18.086 14.6154C17.8265 14.8371 17.6866 15.1495 17.7016 15.4611V15.6464L17.7066 15.6708C17.8003 16.1275 18.16 16.4999 18.6325 16.6383C18.7597 16.6817 18.8929 16.7037 19.0281 16.7037C19.3892 16.7037 19.7315 16.5438 19.9386 16.2825C20.024 16.1813 20.1224 16.0844 20.227 15.9821C20.3109 15.8994 20.3949 15.8167 20.47 15.7347C20.7165 15.4748 20.8367 15.1431 20.8084 14.8004C20.7805 14.4582 20.6072 14.1463 20.3209 13.9222Z" fill="currentColor"/>
    <path fill-rule="evenodd" clip-rule="evenodd" d="M17.9621 14.2354C18.0042 14.1988 18.046 14.1624 18.0837 14.127C18.5303 13.7211 19.3171 13.0028 19.5657 12.7573C20.0264 12.3244 20.0126 11.6307 19.5354 11.2112C19.3106 11.0139 19.0146 10.9052 18.7017 10.9052C18.3886 10.9052 18.0926 11.0139 17.8796 11.2015C17.7603 11.2958 17.5621 11.4591 17.3391 11.6425C16.9376 11.9731 16.438 12.3846 16.2277 12.5343C15.7649 12.8368 15.5843 13.3884 15.7879 13.8732C15.9876 14.3594 16.4854 14.6796 17.0569 14.6898L17.357 14.6925V14.6566C17.5267 14.6119 17.6778 14.5216 17.7883 14.3969C17.8413 14.3399 17.9017 14.2877 17.9621 14.2354Z" fill="currentColor"/>
    <path fill-rule="evenodd" clip-rule="evenodd" d="M18.5573 10.1761C18.9794 9.7997 19.0851 9.22221 18.8274 8.75101C18.6238 8.32612 18.1814 8.04313 17.6815 8.01315C17.6376 8.00913 17.5937 8.00726 17.5498 8.00726C17.2099 8.00726 16.8847 8.12265 16.6278 8.33763C16.4826 8.46695 16.1233 8.78153 15.7291 9.12636C15.1771 9.60961 14.5573 10.152 14.352 10.3386C14.0975 10.5799 13.9617 10.8966 13.9703 11.2304C13.9785 11.5638 14.129 11.873 14.3918 12.1003C14.5131 12.2077 14.651 12.2909 14.8015 12.3485C14.9585 12.4344 15.1385 12.4797 15.3229 12.4797C15.4908 12.4797 15.6575 12.4414 15.8281 12.3568C16.3951 12.017 18.1375 10.571 18.5573 10.1761Z" fill="currentColor"/>
    <path fill-rule="evenodd" clip-rule="evenodd" d="M17.0181 15.5682C17.0007 15.3647 16.9209 15.3004 16.7235 15.2817C15.7043 15.1291 14.977 14.2991 15.0415 13.3621C15.0563 13.1559 15.0124 13.0595 14.7735 12.9899C13.6806 12.6981 13.0561 11.6569 13.3772 10.6634C13.4597 10.4063 13.604 10.1681 13.7955 9.96727C14.0253 9.72096 14.2963 9.50678 14.5437 9.27385C15.3479 8.5111 16.1874 7.77993 16.9945 7.0169C17.4808 6.55909 17.9963 6.12001 18.5 5.67826C18.9419 5.29006 18.9563 4.65018 18.5292 4.24859C18.1021 3.84432 17.3981 3.83361 16.9562 4.21914L16.9297 4.24324C15.8634 5.23919 14.8179 6.2512 13.7189 7.2177C12.7498 8.09317 11.7306 8.92045 10.6672 9.69687C10.0957 10.096 9.16136 10.7683 8.39548 10.5464C7.62961 10.3268 6.58654 8.92447 6.42158 8.65112C6.35089 8.53867 6.27136 8.4289 6.18888 8.32208C5.90904 7.93896 5.56439 7.59895 5.16967 7.31274C4.99293 7.18959 4.71574 6.96657 4.09892 7.05706C3.48239 7.14729 2.90003 7.88622 3.34306 8.68405C3.37222 8.73652 3.91864 9.54426 4.04531 9.72096C4.61971 10.4786 4.99971 11.3434 5.15288 12.251C5.22358 12.7865 5.19412 13.3219 5.21769 13.8574C5.2442 14.8375 5.47691 15.8038 5.90108 16.706C5.95322 16.8375 6.0195 16.9625 6.09285 17.0838L6.09079 17.0848C6.09079 17.0848 6.11936 17.1279 6.1712 17.2008C6.21922 17.2706 6.26929 17.3392 6.32438 17.405C6.66902 17.8516 7.38335 18.6767 8.36927 19.2925C8.36072 19.2931 8.35189 19.2944 8.34305 19.2949C8.44026 19.3512 8.47855 19.3753 8.51685 19.394L8.72893 19.5038C8.75132 19.5145 8.77459 19.523 8.79727 19.534C9.15871 19.7198 9.54813 19.8727 9.96406 19.9661C9.97496 19.9685 9.98468 19.9693 9.99499 19.9718C10.843 20.2039 11.7338 20.2946 12.6231 20.2293C14.2727 20.1142 15.8427 19.5442 17.1244 18.5964C17.5571 18.2561 17.9607 17.8867 18.3262 17.4878C18.5354 17.2792 18.5322 17.287 18.2611 17.1745C17.5365 16.9041 17.0534 16.2776 17.0181 15.5682Z" fill="currentColor"/>
  </symbol>
</svg>
