<?xml version="1.0" encoding="UTF-8"?>
<svg width="15px" height="15px" viewBox="0 0 15 15" version="1.1" xmlns="http://www.w3.org/2000/svg" xmlns:xlink="http://www.w3.org/1999/xlink">
    <title>ico/fb-fill</title>
    <g id="buyback-icon" stroke="none" stroke-width="1" fill="none" fill-rule="evenodd">
        <g id="Group" fill="currentColor" fill-rule="nonzero">
            <g id="">
                <path d="M8.0078125,15 L8.0078125,9.18945312 L6.0546875,9.18945312 L6.0546875,6.92382812 L8.0078125,6.92382812 L8.0078125,5.25390625 C8.0078125,3.3203125 9.19921875,2.265625 10.9277344,2.265625 C11.7480469,2.265625 12.4609375,2.32421875 12.6660156,2.35351562 L12.6660156,4.375 L11.4746094,4.38476562 C10.5273438,4.38476562 10.3515625,4.82421875 10.3515625,5.47851562 L10.3515625,6.92382812 L12.5878906,6.92382812 L12.2949219,9.18945312 L10.3515625,9.18945312 L10.3515625,15 L12.1875,15 C13.7402344,15 15,13.7402344 15,12.1875 L15,2.8125 C15,1.25976562 13.7402344,0 12.1875,0 L2.8125,0 C1.25976562,0 0,1.25976562 0,2.8125 L0,12.1875 C0,13.7402344 1.25976562,15 2.8125,15 L8.0078125,15 Z"></path>
            </g>
        </g>
    </g>
</svg>