<?xml version="1.0" encoding="UTF-8"?>
<svg width="15px" height="15px" viewBox="0 0 15 15" version="1.1" xmlns="http://www.w3.org/2000/svg" xmlns:xlink="http://www.w3.org/1999/xlink">
    <title>ico/help-center-fill</title>
    <g id="buyback-icon" stroke="none" stroke-width="1" fill="none" fill-rule="evenodd">
        <g id="Group" fill="currentColor" fill-rule="nonzero">
            <g id="">
                <path d="M0,15 L2.99278846,12.0072115 L13.5216346,12.0072115 C13.9302885,12.0072115 14.2788462,11.8569712 14.5673077,11.5564904 C14.8557692,11.2560096 15,10.9014423 15,10.4927885 L15,10.4927885 L15,1.47836538 C15,1.06971154 14.8557692,0.721153846 14.5673077,0.432692308 C14.2788462,0.144230769 13.9302885,0 13.5216346,0 L13.5216346,0 L1.47836538,0 C1.06971154,0 0.721153846,0.144230769 0.432692308,0.432692308 C0.144230769,0.721153846 0,1.06971154 0,1.47836538 L0,1.47836538 L0,15 Z M12.0072115,4.50721154 L2.99278846,4.50721154 L2.99278846,2.99278846 L12.0072115,2.99278846 L12.0072115,4.50721154 Z M12.0072115,6.76081731 L2.99278846,6.76081731 L2.99278846,5.24639423 L12.0072115,5.24639423 L12.0072115,6.76081731 Z M9.01442308,9.01442308 L2.99278846,9.01442308 L2.99278846,7.5 L9.01442308,7.5 L9.01442308,9.01442308 Z"></path>
            </g>
        </g>
    </g>
</svg>