<?xml version="1.0" encoding="UTF-8"?>
<svg width="15px" height="15px" viewBox="0 0 15 15" version="1.1" xmlns="http://www.w3.org/2000/svg" xmlns:xlink="http://www.w3.org/1999/xlink">
  <title>ico/home-fill</title>
  <g id="buyback-icon" stroke="none" stroke-width="1" fill="none" fill-rule="evenodd">
    <g id="home" transform="translate(0.000000, 0.742710)" fill="currentColor" fill-rule="nonzero">
      <path d="M14.7480563,6.33424101 L8.01805977,0.201898723 C7.72266039,-0.0673093399 7.27720293,-0.0672800431 6.98192073,0.201869426 L0.251894946,6.33427031 C0.0152648967,6.54989457 -0.0628988982,6.88211999 0.0527061747,7.18062483 C0.168340545,7.47912967 0.449882549,7.67199034 0.770008407,7.67199034 L1.84490707,7.67199034 L1.84490707,13.8161392 C1.84490707,14.0597419 2.04242593,14.2572901 2.28602861,14.2572901 L5.9749027,14.2572901 C6.21850538,14.2572901 6.41602423,14.0597712 6.41602423,13.8161392 L6.41602423,10.0856051 L8.58404416,10.0856051 L8.58404416,13.8161685 C8.58404416,14.0597712 8.78156301,14.2572901 9.02516569,14.2572901 L12.713864,14.2572901 C12.9574667,14.2572901 13.1549855,14.0598005 13.1549855,13.8161685 L13.1549855,7.67199034 L14.2300893,7.67199034 C14.5501858,7.67199034 14.8317571,7.47910037 14.9473915,7.18062483 C15.0628501,6.8820907 14.9846863,6.54989457 14.7480563,6.33424101 Z" id="Path"></path>
    </g>
  </g>
</svg>