<svg width="25" height="24" viewBox="0 0 25 24" fill="none" xmlns="http://www.w3.org/2000/svg">
<path d="M22.2036 8.43328L21.0723 4.29385C20.9336 3.78528 20.4336 3.42871 19.8598 3.42871H4.58607C4.01232 3.42871 3.51232 3.78528 3.37232 4.29385L2.24107 8.43328C2.22857 8.47785 2.22232 8.52471 2.22232 8.57157C2.22232 10.1464 3.55357 11.4287 5.19107 11.4287C6.14232 11.4287 6.99107 10.9956 7.53482 10.3236C8.07857 10.9956 8.92732 11.4287 9.87857 11.4287C10.8298 11.4287 11.6786 10.9956 12.2223 10.3236C12.7661 10.9956 13.6136 11.4287 14.5661 11.4287C15.5186 11.4287 16.3661 10.9956 16.9098 10.3236C17.4536 10.9956 18.3011 11.4287 19.2536 11.4287C20.8911 11.4287 22.2223 10.1464 22.2223 8.57157C22.2223 8.52471 22.2161 8.47785 22.2036 8.43328Z" fill="#424242"/>
<path d="M19.1866 12.2447C18.3435 12.2447 17.5424 11.956 16.8652 11.4287C15.5107 12.4848 13.5768 12.4848 12.2223 11.4287C10.8679 12.4848 8.93396 12.4848 7.57949 11.4287C6.90225 11.956 6.1012 12.2447 5.25806 12.2447C4.65015 12.2447 4.07692 12.0851 3.55568 11.8131V19.1837C3.55568 19.9498 4.11034 20.5715 4.79377 20.5715H9.74615V15.0203H14.6985V20.5715H19.6509C20.3343 20.5715 20.889 19.9498 20.889 19.1837V11.8131C20.3678 12.0851 19.7945 12.2447 19.1866 12.2447Z" fill="#424242"/>
</svg>
