<?xml version="1.0" encoding="UTF-8"?>
<svg width="15px" height="15px" viewBox="0 0 15 15" version="1.1" xmlns="http://www.w3.org/2000/svg" xmlns:xlink="http://www.w3.org/1999/xlink">
  <title>ico/addoon-fill</title>
  <g id="buyback-icon" stroke="none" stroke-width="1" fill="none" fill-rule="evenodd">
    <path d="M6.73979592,0 C8.00779662,0 9.03571429,0.999364398 9.03571429,2.23214286 L9.03571429,2.23214286 L11.9795918,2.23214286 C12.2557342,2.23214286 12.4795918,2.45600048 12.4795918,2.73214286 L12.4795918,2.73214286 L12.4799765,5.23925862 C13.5656469,5.41652507 14.3928571,6.33458139 14.3928571,7.44047619 C14.3928571,8.54637099 13.5656469,9.46442731 12.4799765,9.64169376 L12.4799765,9.64169376 L12.4795918,12.8928571 C12.4795918,13.1689995 12.2557342,13.3928571 11.9795918,13.3928571 L11.9795918,13.3928571 L9.0721465,13.3925355 C8.7942308,14.3212791 7.91231537,15 6.86734694,15 C5.8223785,15 4.94046308,14.3212791 4.66254738,13.3925355 L1.5,13.3928571 C1.22385763,13.3928571 1,13.1689995 1,12.8928571 L1,12.8928571 L1,9.67261905 C2.2680007,9.67261905 3.29591837,8.67325465 3.29591837,7.44047619 C3.29591837,6.20769773 2.2680007,5.20833333 1,5.20833333 L1,5.20833333 L1,2.73214286 C1,2.45600048 1.22385763,2.23214286 1.5,2.23214286 L1.5,2.23214286 L4.44387755,2.23214286 L4.4491743,2.07931666 C4.52995417,0.917819039 5.52462858,0 6.73979592,0 Z" id="Combined-Shape" fill="currentColor"></path>
  </g>
</svg>