<?xml version="1.0" encoding="UTF-8"?>
<svg width="15px" height="15px" viewBox="0 0 15 15" version="1.1" xmlns="http://www.w3.org/2000/svg" xmlns:xlink="http://www.w3.org/1999/xlink">
  <title>ico/invoices-fill</title>
  <g id="buyback-icon" stroke="none" stroke-width="1" fill="none" fill-rule="evenodd">
    <g id="invoice" transform="translate(2.000000, 0.000000)" fill="currentColor" fill-rule="nonzero">
      <path d="M11.0444613,0.385374513 C10.8164418,0.280317499 10.547754,0.321198612 10.3612539,0.489261469 L9.37716427,1.36060002 C9.35039477,1.38442665 9.31001004,1.38428482 9.28338236,1.36031636 L7.94441069,0.162744412 C7.70224417,-0.0542481374 7.33562604,-0.0542481374 7.09345952,0.162744412 L5.75569336,1.35921722 C5.72878203,1.38325659 5.68811365,1.38325659 5.66120232,1.35921722 L4.32329434,0.162744412 C4.08112781,-0.0542126811 3.71450968,-0.0542126811 3.47234316,0.162744412 L2.13319421,1.36031636 C2.10638925,1.38428482 2.06589815,1.38439119 2.03895137,1.36056456 L1.05397538,0.489261469 C0.792662458,0.256880886 0.392431756,0.280317499 0.160051172,0.541630422 C0.0558451098,0.65881349 -0.00116861884,0.810495537 1.81616265e-05,0.967283291 L1.81616265e-05,14.0327167 C-0.0023032204,14.382954 0.279716181,14.6687673 0.629953502,14.6711074 C0.786847625,14.6721711 0.938529672,14.6150155 1.0557482,14.5107385 L2.03983777,13.6394 C2.06660728,13.6155734 2.106992,13.6157152 2.13361968,13.6396836 L3.47259136,14.8372556 C3.71475788,15.0542481 4.08137601,15.0542481 4.32354253,14.8372556 L5.66145051,13.6407828 C5.68836185,13.6167434 5.72903022,13.6167434 5.75594155,13.6407828 L7.09384953,14.8372201 C7.33605151,15.0541063 7.70263419,15.0541063 7.94480071,14.8372201 L9.28402058,13.6396482 C9.31082554,13.6156797 9.35131663,13.6155734 9.37826342,13.6394 L10.3632394,14.5107031 C10.6246587,14.7429773 11.0248539,14.7193634 11.2571282,14.4579441 C11.3611569,14.3408674 11.4180998,14.1893626 11.4170208,14.0327167 L11.4170208,0.967283291 C11.420298,0.716288151 11.2737926,0.487417741 11.0444613,0.385374513 Z M1.84606267,4 L6.15393733,4 C6.34505044,4 6.5,4.223875 6.5,4.5 C6.5,4.776125 6.34505044,5 6.15393733,5 L1.84606267,5 C1.65494956,5 1.5,4.776125 1.5,4.5 C1.5,4.223875 1.65494956,4 1.84606267,4 Z M2.05370028,6 L8.94629972,6 C9.2520807,6 9.5,6.223875 9.5,6.5 C9.5,6.776125 9.2520807,7 8.94629972,7 L2.05370028,7 C1.7479193,7 1.5,6.776125 1.5,6.5 C1.5,6.223875 1.7479193,6 2.05370028,6 Z M2.05370028,8 L8.94629972,8 C9.2520807,8 9.5,8.223875 9.5,8.5 C9.5,8.776125 9.2520807,9 8.94629972,9 L2.05370028,9 C1.7479193,9 1.5,8.776125 1.5,8.5 C1.5,8.223875 1.7479193,8 2.05370028,8 Z M2.05370028,10 L8.94629972,10 C9.2520807,10 9.5,10.223875 9.5,10.5 C9.5,10.776125 9.2520807,11 8.94629972,11 L2.05370028,11 C1.7479193,11 1.5,10.776125 1.5,10.5 C1.5,10.223875 1.7479193,10 2.05370028,10 Z" id="Shape"></path>
    </g>
  </g>
</svg>