<?xml version="1.0" encoding="UTF-8"?>
<svg width="15px" height="15px" viewBox="0 0 15 15" version="1.1" xmlns="http://www.w3.org/2000/svg" xmlns:xlink="http://www.w3.org/1999/xlink">
    <title>ico/ipackage-fill</title>
    <g id="ico/ipackage-fill" stroke="none" stroke-width="1" fill="none" fill-rule="evenodd">
        <g id="shopping-list" transform="translate(1.750000, 0.000000)" fill="#FFFFFF" fill-rule="nonzero">
            <path d="M7.96875,0.9375 L6.950625,0.9375 C6.7575,0.391875 6.23625,0 5.625,0 C5.01375,0 4.4925,0.391875 4.2984375,0.9375 L3.28125,0.9375 C3.0225,0.9375 2.8125,1.1475 2.8125,1.40625 L2.8125,3.28125 C2.8125,3.54 3.0225,3.75 3.28125,3.75 L7.96875,3.75 C8.2275,3.75 8.4375,3.54 8.4375,3.28125 L8.4375,1.40625 C8.4375,1.1475 8.2275,0.9375 7.96875,0.9375 Z" id="Path"></path>
            <path d="M10.3125,1.875 L9.375,1.875 L9.375,3.28125 C9.375,4.0565625 8.7440625,4.6875 7.96875,4.6875 L3.28125,4.6875 C2.5059375,4.6875 1.875,4.0565625 1.875,3.28125 L1.875,1.875 L0.9375,1.875 C0.4209375,1.875 0,2.2959375 0,2.8125 L0,14.0625 C0,14.5884375 0.4115625,15 0.9375,15 L10.3125,15 C10.8384375,15 11.25,14.5884375 11.25,14.0625 L11.25,2.8125 C11.25,2.2865625 10.8384375,1.875 10.3125,1.875 Z M7.488125,10.175625 L5.613125,12.050625 C5.52125,12.1415625 5.40125,12.1875 5.28125,12.1875 C5.16125,12.1875 5.04125,12.1415625 4.949375,12.050625 L4.011875,11.113125 C3.8290625,10.9303125 3.8290625,10.633125 4.011875,10.4503125 C4.1946875,10.2675 4.491875,10.2675 4.6746875,10.4503125 L5.28125,11.0559375 L6.824375,9.5128125 C7.0071875,9.33 7.304375,9.33 7.4871875,9.5128125 C7.67,9.695625 7.6709375,9.991875 7.488125,10.175625 Z M7.488125,6.425625 L5.613125,8.300625 C5.52125,8.3915625 5.40125,8.4375 5.28125,8.4375 C5.16125,8.4375 5.04125,8.3915625 4.949375,8.300625 L4.011875,7.363125 C3.8290625,7.1803125 3.8290625,6.883125 4.011875,6.7003125 C4.1946875,6.5175 4.491875,6.5175 4.6746875,6.7003125 L5.28125,7.3059375 L6.824375,5.7628125 C7.0071875,5.58 7.304375,5.58 7.4871875,5.7628125 C7.67,5.945625 7.6709375,6.241875 7.488125,6.425625 Z" id="Shape"></path>
        </g>
    </g>
</svg>