<?xml version="1.0" encoding="UTF-8"?>
<svg width="15px" height="15px" viewBox="0 0 15 15" version="1.1" xmlns="http://www.w3.org/2000/svg" xmlns:xlink="http://www.w3.org/1999/xlink">
  <title>ico/local-fill</title>
  <g id="buyback-icon" stroke="none" stroke-width="1" fill="none" fill-rule="evenodd">
    <g id="store" fill="currentColor" fill-rule="nonzero">
      <path d="M14.9859375,4.379 L14.1375,0.757 C14.0334375,0.312 13.6584375,0 13.228125,0 L1.7728125,0 C1.3425,0 0.9675,0.312 0.8625,0.757 L0.0140625,4.379 C0.0046875,4.418 0,4.459 0,4.5 C0,5.878 0.9984375,7 2.2265625,7 C2.94,7 3.5765625,6.621 3.984375,6.033 C4.3921875,6.621 5.02875,7 5.7421875,7 C6.455625,7 7.0921875,6.621 7.5,6.033 C7.9078125,6.621 8.5434375,7 9.2578125,7 C9.9721875,7 10.6078125,6.621 11.015625,6.033 C11.4234375,6.621 12.0590625,7 12.7734375,7 C14.0015625,7 15,5.878 15,4.5 C15,4.459 14.9953125,4.418 14.9859375,4.379 Z" id="Path"></path>
      <path d="M12.7232143,7.7140255 C12.0908571,7.7140255 11.4900714,7.46144505 10.9821429,7 C9.96628571,7.92410443 8.51585714,7.92410443 7.5,7 C6.48414286,7.92410443 5.03371429,7.92410443 4.01785714,7 C3.50992857,7.46144505 2.90914286,7.7140255 2.27678571,7.7140255 C1.82085714,7.7140255 1.39092857,7.57437766 1,7.33636916 L1,13.7856709 C1,14.4559806 1.416,15 1.92857143,15 L5.64285714,15 L5.64285714,10.1426837 L9.35714286,10.1426837 L9.35714286,15 L13.0714286,15 C13.584,15 14,14.4559806 14,13.7856709 L14,7.33636916 C13.6090714,7.57437766 13.1791429,7.7140255 12.7232143,7.7140255 Z" id="Path"></path>
    </g>
  </g>
</svg>