<svg width="16" height="15" viewBox="0 0 16 15" fill="none" xmlns="http://www.w3.org/2000/svg">
  <path id="buyback-icon" d="M14.5218 5.51634H11.2095L8.1806 0.33589C8.04922 0.106691 7.82795 0 7.60668 0C7.38534 0 7.1641 0.110655 7.03273 0.33589L4.00388 5.51634H0.691506C0.311182 5.51634 0 5.87198 0 6.30663C0 6.38173 0.0103728 6.45285 0.0242139 6.52001L1.77721 13.8461C1.9397 14.51 2.47562 15 3.11182 15H12.1015C12.7377 15 13.2737 14.51 13.4327 13.8422L15.1857 6.51609C15.203 6.45285 15.2134 6.38173 15.2134 6.30667C15.2134 5.87198 14.9022 5.51634 14.5218 5.51634ZM7.60668 11.8388C6.84258 11.8388 6.22365 11.1315 6.22365 10.2581C6.22365 9.38489 6.84254 8.67756 7.60668 8.67756C8.37082 8.67756 8.98973 9.38482 8.98973 10.2581C8.98973 11.1315 8.37082 11.8388 7.60668 11.8388ZM5.53215 5.51634L7.60668 2.03899L9.68125 5.51634H5.53215Z" fill="currentColor"/>
</svg>
