<svg width="40" height="40" viewBox="0 0 40 40" fill="none" xmlns="http://www.w3.org/2000/svg">
<g id="Mail-in">
<path id="vector" fill-rule="evenodd" clip-rule="evenodd" d="M29.8766 34.1028C30.5786 34.1028 31.1898 33.9008 31.7103 33.4967C32.2307 33.0925 32.5878 32.5696 32.7815 31.9277C33.0961 30.7391 33.7497 28.3857 34.7422 24.8675C35.5653 21.9198 36.2068 19.5427 36.6667 17.736C36.6667 17.3319 36.5154 16.9872 36.2128 16.7019C35.9102 16.4167 35.5411 16.2741 35.1053 16.2741H27.8795L21.2709 6.53954C20.9804 6.11165 20.5568 5.89771 20 5.89771C19.4433 5.89771 19.0196 6.11165 18.7292 6.53954L12.1206 16.2741H4.89474C4.48322 16.2741 4.12011 16.4167 3.80541 16.7019C3.49072 16.9872 3.33337 17.3319 3.33337 17.736C3.33337 17.9262 3.35758 18.0688 3.406 18.1639L7.21863 31.9277C7.41229 32.5696 7.7754 33.0925 8.30796 33.4967C8.84052 33.9008 9.4578 34.1028 10.1598 34.1028H29.8766ZM15.4612 16.2741L20 9.7131L24.5389 16.2741H15.4612ZM17.8576 27.2922C18.4628 27.8865 19.1769 28.1837 19.9999 28.1837C20.823 28.1837 21.5371 27.8865 22.1423 27.2922C22.7474 26.6979 23.05 25.9967 23.05 25.1884C23.05 24.3802 22.7474 23.6789 22.1423 23.0846C21.5371 22.4903 20.823 22.1932 19.9999 22.1932C19.1769 22.1932 18.4628 22.4903 17.8576 23.0846C17.2524 23.6789 16.9498 24.3802 16.9498 25.1884C16.9498 25.9967 17.2524 26.6979 17.8576 27.2922Z" fill="#737373"/>
</g>
</svg>
