<?xml version="1.0" encoding="UTF-8"?>
<svg width="15px" height="15px" viewBox="0 0 15 15" version="1.1" xmlns="http://www.w3.org/2000/svg" xmlns:xlink="http://www.w3.org/1999/xlink">
    <title>ico/pricing-fill</title>
    <g id="ico/pricing-fill" stroke="none" stroke-width="1" fill="none" fill-rule="evenodd">
        <path d="M10.7227623,2.66453526e-15 L4.27723772,2.66453526e-15 C3.02154743,2.66453526e-15 2,0.946027238 2,2.10885178 L2,14.4413368 C2,14.6277825 2.10946281,14.7996676 2.28567895,14.8899021 C2.46189509,14.9800781 2.67727741,14.9745996 2.84789386,14.8753709 L4.98558232,13.6319797 L7.20581079,14.9220995 C7.29521596,14.9740136 7.3976238,15 7.50003164,15 C7.60253438,15 7.70503713,14.9739843 7.79441067,14.9219823 L10.0122348,13.6319505 L12.1523276,14.8755466 C12.3228491,14.9746582 12.5382315,14.9801367 12.7143843,14.8899314 C12.8905688,14.7996969 13,14.6278411 13,14.4413954 L13,2.10885178 C13,0.946027238 11.9784526,2.66453526e-15 10.7227623,2.66453526e-15 Z M5.4547609,5.9795547 C5.55872999,5.84667468 5.6788379,5.7802662 5.81486504,5.7802662 C5.90273192,5.7802662 6.01277593,5.81441643 6.14492391,5.88281149 C6.2768889,5.95117501 6.45093924,6.02095752 6.66703832,6.09231668 C6.8831374,6.16367583 7.13908947,6.19930811 7.43529708,6.19930811 C8.01951482,6.19930811 8.31162369,6.05684206 8.31162369,5.77178383 C8.31162369,5.61273142 8.21471761,5.48688325 8.02101525,5.393924 C7.82712991,5.30112241 7.59397712,5.2249387 7.32115432,5.16521522 C7.04833151,5.1056494 6.77349593,5.03441637 6.49675737,4.95154767 C6.21983582,4.86867897 5.98463365,4.72939775 5.79096789,4.53392474 C5.59708255,4.33845173 5.50035945,4.08820592 5.50035945,3.78315577 C5.50035945,3.36026683 5.67031104,2.99631305 6.01043379,2.6912629 C6.25416282,2.47251854 6.60021411,2.33260666 7.04734342,2.27067587 L7.04734342,1.40531601 C7.04734342,1.14475891 7.29249969,0.933519401 7.59489202,0.933519401 C7.89728435,0.933519401 8.14244061,1.14475891 8.14244061,1.40531601 L8.14244061,2.26001772 C8.42766944,2.29013173 8.69174581,2.34594512 8.93437696,2.42780476 C9.31786591,2.55734229 9.50970188,2.71399819 9.50970188,2.89796165 C9.50970188,3.01390846 9.45630839,3.14836513 9.3495214,3.30171007 C9.24277102,3.45502347 9.11022049,3.53168017 8.95212599,3.53168017 C8.88874181,3.53168017 8.71674084,3.4891737 8.4361597,3.40390849 C8.15535898,3.31876942 7.89234389,3.27613681 7.64729742,3.27613681 C7.37835378,3.27613681 7.17283093,3.32261644 7.03047269,3.4153865 C6.88815104,3.50818809 6.81697192,3.61085951 6.81697192,3.72358995 C6.81697192,3.83635192 6.88815104,3.92915352 7.03047269,4.00196319 C7.17279434,4.07493053 7.34871107,4.13134305 7.55833266,4.17107462 C7.76777128,4.21083772 7.99276318,4.26542133 8.23297899,4.3350777 C8.4731948,4.40470255 8.69613733,4.48583693 8.90151379,4.57863852 C9.10689026,4.67159778 9.27944016,4.81579815 9.41898052,5.01123962 C9.55833789,5.20671263 9.62823616,5.44371459 9.62823616,5.72208783 C9.62823616,6.19397904 9.43640019,6.56534307 9.05294783,6.8358646 C8.81031669,7.0070572 8.5066801,7.12391847 8.14236742,7.18682678 L8.14236742,8.08166999 C8.14236742,8.34222709 7.89721115,8.5534666 7.59481883,8.5534666 C7.2924265,8.5534666 7.04727023,8.34222709 7.04727023,8.08166999 L7.04727023,7.22728361 C6.62268403,7.19571909 6.24922236,7.11206206 5.92732439,6.97602874 C5.5080812,6.79893946 5.29860598,6.59451109 5.29860598,6.36277514 C5.29871577,6.24017487 5.35057223,6.11243472 5.4547609,5.9795547 Z M4.52657784,10.4067551 C4.22418551,10.4067551 3.97902924,10.1955156 3.97902924,9.93495845 C3.97902924,9.67440135 4.22418551,9.46316185 4.52657784,9.46316185 L10.4314441,9.46316185 C10.7338364,9.46316185 10.9789926,9.67440135 10.9789926,9.93495845 C10.9789926,10.1955156 10.733873,10.4067551 10.4314441,10.4067551 L4.52657784,10.4067551 Z M4.52657784,12.4067551 C4.22418551,12.4067551 3.97902924,12.1955156 3.97902924,11.9349585 C3.97902924,11.6744014 4.22418551,11.4631618 4.52657784,11.4631618 L10.4314441,11.4631618 C10.7338364,11.4631618 10.9789926,11.6744014 10.9789926,11.9349585 C10.9789926,12.1955156 10.733873,12.4067551 10.4314441,12.4067551 L4.52657784,12.4067551 Z" id="Shape" fill="#FFFFFF" fill-rule="nonzero"></path>
    </g>
</svg>