<svg width="15" height="15" viewBox="0 0 15 15" fill="none" xmlns="http://www.w3.org/2000/svg">
  <path id="buyback-icon" d="M7.5 1.25C4.05 1.25 1.25 4.05 1.25 7.5C1.25 10.95 4.05 13.75 7.5 13.75C10.95 13.75 13.75 10.95 13.75 7.5C13.75 4.05 10.95 1.25 7.5 1.25ZM8.125 11.875H6.875V10.625H8.125V11.875ZM9.41875 7.03125L8.85625 7.60625C8.40625 8.0625 8.125 8.4375 8.125 9.375H6.875V9.0625C6.875 8.375 7.15625 7.75 7.60625 7.29375L8.38125 6.50625C8.6125 6.28125 8.75 5.96875 8.75 5.625C8.75 4.9375 8.1875 4.375 7.5 4.375C6.8125 4.375 6.25 4.9375 6.25 5.625H5C5 4.24375 6.11875 3.125 7.5 3.125C8.88125 3.125 10 4.24375 10 5.625C10 6.175 9.775 6.675 9.41875 7.03125Z" fill="currentColor"/>
</svg>
