<?xml version="1.0" encoding="UTF-8"?>
<svg width="15px" height="15px" viewBox="0 0 15 15" version="1.1" xmlns="http://www.w3.org/2000/svg" xmlns:xlink="http://www.w3.org/1999/xlink">
  <title>ico/report-fill</title>
  <g id="buyback-icon" stroke="none" stroke-width="1" fill="none" fill-rule="evenodd">
    <g id="pie-chart" transform="translate(1.000000, 0.000000)" fill="currentColor" fill-rule="nonzero">
      <path d="M11.2125,0 L1.7875,0 C0.80145,0 0,0.770625 0,1.71875 L0,13.28125 C0,14.229375 0.80145,15 1.7875,15 L11.2125,15 C12.19855,15 13,14.229375 13,13.28125 L13,1.71875 C13,0.770625 12.19855,0 11.2125,0 Z M7.02212414,5.52557692 L7.02212414,2.68480769 C8.46212414,2.89538462 9.57212414,4.08326923 9.57212414,5.52557692 C9.57212414,7.11615385 8.22632414,8.41019231 6.57212414,8.41019231 C5.90732414,8.41019231 5.29832414,8.19442308 4.80032414,7.84076923 L6.89012414,5.83134615 C6.97472414,5.75057692 7.02212414,5.64038462 7.02212414,5.52557692 L7.02212414,5.52557692 Z M6.12212414,2.68480769 L6.12212414,5.34673077 L4.16432414,7.22923077 C3.79652414,6.75038462 3.57212414,6.16480769 3.57212414,5.52557692 C3.57212414,4.08326923 4.68212414,2.89538462 6.12212414,2.68480769 Z M10.5625,13.28125 L2.4375,13.28125 C2.1684,13.28125 1.95,13.07125 1.95,12.8125 C1.95,12.55375 2.1684,12.34375 2.4375,12.34375 L10.5625,12.34375 C10.8316,12.34375 11.05,12.55375 11.05,12.8125 C11.05,13.07125 10.8316,13.28125 10.5625,13.28125 Z M10.5625,11.28125 L2.4375,11.28125 C2.1684,11.28125 1.95,11.07125 1.95,10.8125 C1.95,10.55375 2.1684,10.34375 2.4375,10.34375 L10.5625,10.34375 C10.8316,10.34375 11.05,10.55375 11.05,10.8125 C11.05,11.07125 10.8316,11.28125 10.5625,11.28125 Z" id="Shape"></path>
    </g>
  </g>
</svg>