<svg width="24" height="24" viewBox="0 0 24 24" fill="none" xmlns="http://www.w3.org/2000/svg">
<path d="M14.2816 12.5204L14.2118 12.4997C13.883 12.4997 13.7586 12.7279 13.8984 13.0821C14.4516 14.4584 15.0169 15.8306 15.5823 17.2017L15.6485 17.3605C15.7099 17.5093 15.7861 17.6702 15.9809 17.6691C16.1646 17.6691 16.2303 17.5204 16.2927 17.3796L16.3049 17.3526C16.3282 17.3078 16.346 17.2603 16.3579 17.2112C16.5977 16.0016 17.3107 15.2737 18.5283 15.0244C18.7231 14.9846 18.9862 14.9185 18.9989 14.6638C19.0111 14.4246 18.8068 14.3462 18.6226 14.2758L18.5458 14.2456C17.2047 13.694 15.8618 13.1447 14.5172 12.5977C14.4403 12.5673 14.3616 12.5415 14.2816 12.5204Z" fill="black"/>
<path fill-rule="evenodd" clip-rule="evenodd" d="M6.53097 8.88248H6.15564V9.2414H6.4468C6.53686 9.24546 6.62682 9.2316 6.71149 9.20064C6.74012 9.18883 6.76432 9.16832 6.78066 9.142C6.79701 9.11569 6.80466 9.0849 6.80254 9.054C6.80423 9.02793 6.79858 9.00191 6.78622 8.97889C6.77387 8.95587 6.75532 8.93678 6.73266 8.92377C6.67016 8.89272 6.60065 8.87849 6.53097 8.88248Z" fill="black"/>
<path fill-rule="evenodd" clip-rule="evenodd" d="M21.8915 6.87613C21.7837 6.61641 21.6012 6.39452 21.3672 6.23856C21.1332 6.0826 20.8582 5.99957 20.577 6H3.42139C3.23471 5.99993 3.04985 6.03665 2.87736 6.10806C2.70488 6.17946 2.54816 6.28416 2.41616 6.41616C2.28416 6.54816 2.17946 6.70488 2.10806 6.87737C2.03665 7.04985 1.99993 7.23471 2 7.42139V11.7951C1.99986 11.9818 2.03653 12.1667 2.10791 12.3392C2.1793 12.5118 2.28399 12.6685 2.416 12.8005C2.54802 12.9325 2.70477 13.0372 2.87728 13.1086C3.04979 13.18 3.23469 13.2167 3.42139 13.2165H12.9836C12.8391 12.6871 13.0106 12.3107 13.1361 12.1228C13.3663 11.7861 13.7565 11.5887 14.2096 11.5887H14.3552L14.4876 11.6305L14.5405 11.6458C14.6494 11.675 14.7565 11.7104 14.8613 11.7517C16.1239 12.2652 17.2774 12.7353 18.4389 13.2133H20.5813C20.7679 13.2134 20.9528 13.1767 21.1253 13.1053C21.2978 13.0339 21.4545 12.9292 21.5865 12.7972C21.7185 12.6652 21.8232 12.5085 21.8946 12.336C21.966 12.1635 22.0027 11.9786 22.0026 11.792V7.42033C22.0017 7.23338 21.9639 7.04846 21.8915 6.87613ZM7.57861 10.3409H6.96665C6.9534 10.3409 6.94047 10.3368 6.92959 10.3293C6.91809 10.3221 6.90862 10.312 6.90206 10.3002L6.59608 9.73002C6.5892 9.72208 6.58285 9.71414 6.57544 9.7062C6.5689 9.69869 6.56122 9.69226 6.55267 9.68714C6.50415 9.67264 6.45329 9.6676 6.40286 9.67232H6.16993V10.2673C6.17016 10.2772 6.16834 10.287 6.16461 10.2961C6.16087 10.3052 6.1553 10.3134 6.14823 10.3203C6.14126 10.3272 6.13298 10.3326 6.12389 10.3362C6.1148 10.3398 6.10508 10.3416 6.09529 10.3415H5.56061C5.55079 10.3419 5.541 10.3402 5.53187 10.3366C5.52274 10.3329 5.5145 10.3274 5.50768 10.3203C5.50061 10.3134 5.49503 10.3052 5.4913 10.2961C5.48756 10.287 5.48575 10.2772 5.48597 10.2673V8.52356C5.48651 8.50454 5.49434 8.48646 5.50784 8.47306C5.52134 8.45966 5.53948 8.45196 5.5585 8.45156H6.76919C6.97618 8.45156 7.14293 8.49762 7.26734 8.58867C7.33109 8.63217 7.383 8.69085 7.4184 8.75943C7.4538 8.828 7.47156 8.90431 7.47009 8.98147C7.47009 9.16411 7.41715 9.2991 7.30386 9.37904C7.27418 9.40138 7.24245 9.42088 7.20911 9.43727C7.17049 9.45651 7.13071 9.4733 7.09 9.48756C7.13706 9.51153 7.18098 9.54122 7.22075 9.57597C7.2537 9.60536 7.284 9.6376 7.31128 9.67232L7.64108 10.2287C7.64885 10.2396 7.65333 10.2526 7.65399 10.266C7.65464 10.2794 7.65145 10.2927 7.64479 10.3044C7.63823 10.316 7.62856 10.3256 7.61688 10.332C7.60519 10.3385 7.59195 10.3416 7.57861 10.3409ZM9.43145 10.2689C9.43185 10.2787 9.43027 10.2884 9.42681 10.2975C9.42335 10.3066 9.41809 10.3149 9.41133 10.3219C9.40453 10.329 9.39629 10.3345 9.38716 10.3382C9.37802 10.3418 9.36822 10.3435 9.35839 10.343H7.89148C7.87243 10.3429 7.85419 10.3353 7.84072 10.3218C7.82725 10.3083 7.81962 10.2901 7.81948 10.271V8.52356C7.81902 8.51373 7.82068 8.50393 7.82433 8.49479C7.82798 8.48566 7.83355 8.47742 7.84066 8.47062C7.84751 8.46355 7.85575 8.45798 7.86486 8.45424C7.87397 8.45051 7.88375 8.44869 7.8936 8.44892H9.29751C9.30693 8.44893 9.31624 8.45086 9.32489 8.45459C9.33354 8.45832 9.34133 8.46378 9.3478 8.47062C9.35509 8.47731 9.36082 8.48552 9.36457 8.49467C9.36832 8.50382 9.37001 8.51368 9.36951 8.52356V8.8756C9.36976 8.88544 9.36797 8.89524 9.36423 8.90435C9.36049 8.91347 9.3549 8.9217 9.3478 8.92854C9.34133 8.93538 9.33354 8.94083 9.32489 8.94456C9.31624 8.94829 9.30693 8.95023 9.29751 8.95024H8.4865V9.14293H9.17734C9.19682 9.14265 9.21563 9.15004 9.22969 9.16352C9.24376 9.17699 9.25196 9.19546 9.25251 9.21493V9.56167C9.2527 9.57156 9.25082 9.58138 9.24699 9.59049C9.24316 9.59961 9.23747 9.60783 9.23028 9.61461C9.22385 9.62151 9.21606 9.62699 9.20741 9.63073C9.19875 9.63446 9.18942 9.63637 9.17999 9.63632H8.48915V9.83854H9.35839C9.36825 9.83818 9.37807 9.83994 9.3872 9.84368C9.39633 9.84742 9.40456 9.85307 9.41133 9.86025C9.41806 9.86727 9.42331 9.87558 9.42677 9.88467C9.43022 9.89376 9.43181 9.90346 9.43145 9.91318V10.2689ZM11.549 9.74643C11.549 9.97883 11.4595 10.144 11.2816 10.2398C11.1182 10.3266 10.8807 10.37 10.5691 10.37C10.2479 10.37 10.0095 10.3266 9.85389 10.2398C9.68202 10.1438 9.59608 9.97124 9.59608 9.72208V8.52144C9.59562 8.51157 9.59732 8.50171 9.60107 8.49257C9.60482 8.48342 9.61053 8.47521 9.61779 8.4685C9.6247 8.46156 9.63297 8.45609 9.64207 8.45245C9.65117 8.44881 9.66092 8.44707 9.67072 8.44733H10.1641C10.1739 8.44716 10.1836 8.44894 10.1927 8.45258C10.2018 8.45622 10.2101 8.46163 10.217 8.4685C10.2242 8.4753 10.2298 8.48353 10.2336 8.49265C10.2373 8.50177 10.2391 8.51159 10.2388 8.52144V9.5135C10.2388 9.62467 10.2647 9.70302 10.3166 9.74908C10.3684 9.79513 10.4558 9.81895 10.5781 9.81895C10.7004 9.81895 10.7771 9.79513 10.8285 9.7459C10.8798 9.69667 10.9052 9.61726 10.9052 9.50609V8.52144C10.9049 8.51159 10.9067 8.50177 10.9104 8.49265C10.9142 8.48353 10.9198 8.4753 10.9269 8.4685C10.9339 8.46163 10.9422 8.45622 10.9513 8.45258C10.9604 8.44894 10.9701 8.44716 10.9799 8.44733H11.4754C11.4945 8.44746 11.5128 8.45508 11.5263 8.46853C11.5399 8.48199 11.5476 8.50022 11.5479 8.51932L11.549 9.74643ZM13.3076 10.0053C13.2684 10.0845 13.2107 10.153 13.1392 10.2049C13.0596 10.2622 12.9697 10.3039 12.8745 10.3277C12.7583 10.3572 12.6387 10.3714 12.5188 10.37C12.4484 10.37 12.378 10.37 12.307 10.3616C12.2361 10.3531 12.1678 10.3473 12.0985 10.3367C12.0847 10.3335 12.0707 10.331 12.0566 10.3293C12.0445 10.3293 12.0323 10.325 12.0196 10.3219C11.973 10.3145 11.9333 10.3065 11.9005 10.2996C11.8677 10.2927 11.8417 10.2864 11.8242 10.2838C11.8091 10.2798 11.7956 10.2713 11.7856 10.2594C11.7751 10.2482 11.7686 10.2339 11.7671 10.2186L11.7284 9.76125C11.7258 9.74824 11.7271 9.73474 11.7322 9.72248C11.7373 9.71022 11.7459 9.69976 11.757 9.69243C11.7679 9.6851 11.7807 9.68088 11.7938 9.68022C11.807 9.67957 11.8201 9.68251 11.8317 9.68873C11.9384 9.73879 12.0478 9.78297 12.1593 9.82107C12.2854 9.86606 12.4178 9.89054 12.5516 9.8936C12.611 9.89586 12.6703 9.88688 12.7263 9.86713C12.7708 9.84966 12.7925 9.82372 12.7925 9.78984C12.7925 9.77237 12.7798 9.75437 12.7538 9.7369C12.6634 9.69639 12.5677 9.66894 12.4696 9.65538C12.1922 9.59856 11.9995 9.5255 11.8915 9.43621C11.8329 9.38694 11.7866 9.32479 11.7561 9.25462C11.7256 9.18445 11.7118 9.10817 11.7157 9.03176C11.7157 8.82954 11.7877 8.67549 11.9317 8.5712C12.0757 8.46692 12.2753 8.41239 12.532 8.41239C12.6526 8.41322 12.7729 8.42474 12.8915 8.4468C12.9524 8.45792 13.0053 8.46797 13.0503 8.47803C13.0953 8.48809 13.1339 8.49762 13.1646 8.50662C13.1786 8.5108 13.1908 8.51934 13.1996 8.53097C13.2089 8.54179 13.2152 8.55498 13.2176 8.56909L13.2657 8.99259C13.2679 9.0059 13.2664 9.01955 13.2614 9.03206C13.2564 9.04457 13.248 9.05546 13.2372 9.06353C13.2265 9.07171 13.2136 9.07645 13.2002 9.07711C13.1867 9.07777 13.1734 9.07433 13.162 9.06723C13.1103 9.042 13.0573 9.01956 13.0032 9C12.9502 8.97883 12.8915 8.95977 12.8322 8.94177C12.7282 8.90937 12.6202 8.89156 12.5114 8.88883C12.4553 8.8873 12.3993 8.89281 12.3446 8.90524C12.3049 8.91636 12.2853 8.93595 12.2853 8.96347C12.2853 8.991 12.3055 9.009 12.3457 9.02329C12.3859 9.03759 12.4272 9.05082 12.4807 9.06564C12.5424 9.08288 12.6049 9.09684 12.6681 9.10747C12.9321 9.16146 13.1121 9.23734 13.208 9.3351C13.2612 9.3859 13.303 9.44732 13.3308 9.51537C13.3586 9.58341 13.3718 9.65655 13.3695 9.73002C13.3712 9.82461 13.3509 9.9183 13.3102 10.0037L13.3076 10.0053ZM15.1461 10.27C15.1464 10.2797 15.1447 10.2895 15.1412 10.2986C15.1376 10.3077 15.1323 10.3159 15.1255 10.3229C15.1187 10.3301 15.1105 10.3357 15.1013 10.3394C15.0922 10.343 15.0824 10.3446 15.0725 10.3441H13.6077C13.5979 10.3445 13.5881 10.3429 13.579 10.3392C13.5699 10.3356 13.5616 10.33 13.5548 10.3229C13.5477 10.3161 13.5421 10.3078 13.5384 10.2987C13.5347 10.2896 13.5329 10.2798 13.5331 10.27V8.52356C13.5336 8.50454 13.5415 8.48646 13.555 8.47306C13.5685 8.45966 13.5866 8.45196 13.6056 8.45156H15.009C15.0184 8.45151 15.0278 8.45342 15.0364 8.45715C15.0451 8.46089 15.0529 8.46637 15.0593 8.47327C15.0665 8.48004 15.0721 8.48827 15.0759 8.49739C15.0796 8.50652 15.0814 8.51635 15.081 8.52621V8.87824C15.0812 8.88808 15.0793 8.89784 15.0756 8.90694C15.0719 8.91604 15.0663 8.92429 15.0593 8.93118C15.0529 8.93808 15.0451 8.94356 15.0364 8.9473C15.0278 8.95103 15.0184 8.95294 15.009 8.95289H14.2028V9.14558H14.8909C14.9003 9.14546 14.9096 9.14728 14.9183 9.15093C14.927 9.15457 14.9348 9.15996 14.9412 9.16676C14.9487 9.17332 14.9547 9.18148 14.9586 9.19064C14.9626 9.1998 14.9644 9.20973 14.964 9.21969V9.56644C14.9642 9.57637 14.9623 9.58624 14.9583 9.59536C14.9544 9.60449 14.9486 9.61268 14.9412 9.61938C14.9348 9.62627 14.927 9.63176 14.9184 9.63549C14.9097 9.63923 14.9004 9.64113 14.8909 9.64108H14.2028V9.84331H15.0757C15.0856 9.84288 15.0954 9.8446 15.1046 9.84835C15.1137 9.85209 15.1219 9.85778 15.1286 9.86501C15.1354 9.87201 15.1408 9.8803 15.1443 9.88939C15.1479 9.89848 15.1496 9.90819 15.1493 9.91795L15.1461 10.27ZM16.9645 10.27C16.9649 10.2798 16.9631 10.2897 16.9594 10.2988C16.9557 10.3079 16.95 10.3162 16.9428 10.3229C16.936 10.3299 16.9277 10.3355 16.9186 10.3391C16.9095 10.3428 16.8997 10.3445 16.8899 10.3441H15.3891C15.3793 10.3443 15.3696 10.3426 15.3605 10.3389C15.3514 10.3353 15.3431 10.3298 15.3362 10.3229C15.3292 10.316 15.3237 10.3078 15.32 10.2987C15.3164 10.2896 15.3147 10.2798 15.315 10.27V8.52356C15.3143 8.51381 15.3158 8.50403 15.3192 8.49489C15.3227 8.48575 15.3281 8.47747 15.3351 8.47062C15.3419 8.46345 15.3501 8.4578 15.3592 8.45406C15.3684 8.45031 15.3782 8.44856 15.388 8.44892H15.9111C15.9209 8.44876 15.9307 8.4506 15.9398 8.45433C15.9489 8.45806 15.9571 8.4636 15.964 8.47062C15.9715 8.47718 15.9775 8.48534 15.9814 8.49451C15.9853 8.50367 15.9872 8.51359 15.9868 8.52356V9.78084H16.8973C16.9169 9.78044 16.9359 9.78765 16.9502 9.80096C16.9578 9.80751 16.9638 9.81566 16.9678 9.82481C16.9718 9.83397 16.9738 9.8439 16.9735 9.85389L16.9645 10.27ZM18.7115 8.57597L17.8745 9.58338V10.2673C17.8744 10.2769 17.8724 10.2864 17.8686 10.2952C17.8648 10.304 17.8593 10.312 17.8524 10.3187C17.8455 10.3254 17.8374 10.3306 17.8285 10.3342C17.8195 10.3377 17.81 10.3395 17.8004 10.3393H17.261C17.242 10.3389 17.2238 10.3312 17.2103 10.3178C17.1968 10.3044 17.189 10.2864 17.1885 10.2673V9.58338L16.3462 8.57173C16.3358 8.56162 16.329 8.5484 16.3268 8.53407C16.3246 8.51974 16.3272 8.50509 16.334 8.49233C16.3404 8.47918 16.3506 8.46826 16.3632 8.46099C16.3759 8.45371 16.3904 8.45043 16.405 8.45156H17.0286C17.0393 8.45215 17.0498 8.45503 17.0593 8.46003C17.0695 8.46374 17.0786 8.46992 17.0858 8.47803L17.5749 9.08259L18.0196 8.48333C18.0256 8.47303 18.0352 8.4653 18.0466 8.46162C18.057 8.45588 18.0686 8.45245 18.0805 8.45156H18.6517C18.6662 8.45071 18.6806 8.45412 18.6932 8.46136C18.7058 8.4686 18.716 8.47936 18.7226 8.49233C18.7293 8.505 18.7319 8.51941 18.7301 8.53361C18.7283 8.54781 18.7222 8.56112 18.7125 8.57173L18.7115 8.57597Z" fill="black"/>
</svg>
