<?xml version="1.0" encoding="UTF-8"?>
<svg width="15px" height="15px" viewBox="0 0 15 15" version="1.1" xmlns="http://www.w3.org/2000/svg" xmlns:xlink="http://www.w3.org/1999/xlink">
  <title>ico/lsetting-fill</title>
  <g id="buyback-icon" stroke="none" stroke-width="1" fill="none" fill-rule="evenodd">
    <g id="settings" fill="currentColor" fill-rule="nonzero">
      <path d="M14.6660156,6.22851562 L12.9111328,5.79785156 C12.8144531,5.49023438 12.6914063,5.19140625 12.5419922,4.90136719 L13.4384766,3.40722656 C13.5439453,3.23144531 13.5175781,3.01171875 13.3769531,2.87109375 L12.1289062,1.62304688 C11.9882812,1.48242188 11.7685547,1.45605469 11.5927734,1.56152344 L10.0986328,2.45800781 C9.80859375,2.30859375 9.50976562,2.18554688 9.20214844,2.08886719 L8.78027344,0.333984375 C8.72753906,0.140625 8.55175781,0 8.34960938,0 L6.59179688,0 C6.38964844,0 6.21386719,0.140625 6.16113281,0.333984375 L5.73925781,2.08886719 C5.43164062,2.18554688 5.1328125,2.30859375 4.84277344,2.45800781 L3.34863281,1.56152344 C3.17285156,1.45605469 2.953125,1.48242187 2.8125,1.62304687 L1.56445312,2.87109375 C1.42382812,3.01171875 1.39746094,3.23144531 1.50292969,3.40722656 L2.39941406,4.90136719 C2.25,5.19140625 2.12695313,5.49023438 2.03027344,5.79785156 L0.333984375,6.22851562 C0.140625,6.27246094 0,6.44824219 0,6.65039062 L0,8.40820312 C0,8.61035156 0.140625,8.78613281 0.333984375,8.83007812 L2.03027344,9.26074219 C2.12695312,9.56835937 2.25,9.8671875 2.39941406,10.1572266 L1.50292969,11.6513672 C1.39746094,11.8271484 1.42382812,12.046875 1.56445312,12.1875 L2.8125,13.4355469 C2.953125,13.5761719 3.17285156,13.6025391 3.34863281,13.4970703 L4.84277344,12.6005859 C5.1328125,12.75 5.43164062,12.8730469 5.73925781,12.9697266 L6.16113281,14.6660156 C6.21386719,14.859375 6.38964844,15 6.59179688,15 L8.34960938,15 C8.55175781,15 8.72753906,14.859375 8.78027344,14.6660156 L9.20214844,12.9697266 C9.50976562,12.8730469 9.80859375,12.75 10.0986328,12.6005859 L11.5927734,13.4970703 C11.7685547,13.6025391 11.9882812,13.5761719 12.1289062,13.4355469 L13.3769531,12.1875 C13.5175781,12.046875 13.5439453,11.8271484 13.4384766,11.6513672 L12.5419922,10.1572266 C12.6914063,9.8671875 12.8144531,9.56835937 12.9111328,9.26074219 L14.6660156,8.83007812 C14.859375,8.78613281 15,8.61035156 15,8.40820312 L15,6.65039062 C15,6.44824219 14.859375,6.27246094 14.6660156,6.22851562 Z M7.47070312,9.7265625 C6.2578125,9.7265625 5.2734375,8.7421875 5.2734375,7.52929688 C5.2734375,6.31640625 6.2578125,5.33203125 7.47070312,5.33203125 C8.68359375,5.33203125 9.66796875,6.31640625 9.66796875,7.52929688 C9.66796875,8.7421875 8.68359375,9.7265625 7.47070312,9.7265625 Z" id="Shape"></path>
    </g>
  </g>
</svg>