<svg width="18" height="15" viewBox="0 0 18 15" fill="none" xmlns="http://www.w3.org/2000/svg">
  <path id="buyback-icon" d="M0.553304 8.07692C0.247722 8.07692 0 7.83081 0 7.52717V7.47283C0 7.16919 0.247722 6.92308 0.553304 6.92308H2.74064L3.5437 1.02273C3.61627 0.489186 4.07342 0.0486603 4.58252 0.00376705L4.66779 0H8.49519L7.81368 4.00054L10.4052 2.67312L12.6424 4.00054L13.3239 0H17.1443C17.6583 0 18.0283 0.41474 17.9983 0.939069L17.9902 1.02273L16.2282 13.9773C16.1556 14.5108 15.6973 14.9514 15.1892 14.9962L15.1041 15H2.62753C2.11225 15 1.74346 14.5852 1.77355 14.0609L1.78165 13.9773L1.95634 12.6923H0.636486C0.330907 12.6923 0.0831844 12.4462 0.0831844 12.1426V12.0882C0.0831844 11.7846 0.330907 11.5385 0.636486 11.5385H5.66361C5.94737 11.5385 6.1812 11.3262 6.21319 11.0528L6.21691 10.9887V10.9344C6.21691 10.6524 6.00329 10.4201 5.72813 10.3883L5.66361 10.3846H2.26989L2.27249 10.3679C2.03258 10.3078 1.85502 10.0919 1.85502 9.83487V9.78052C1.85502 9.47688 2.10274 9.23077 2.40832 9.23077H7.88615C8.16991 9.23077 8.40379 9.01852 8.43573 8.74512L8.43945 8.68102V8.62667C8.43945 8.34473 8.22583 8.1124 7.95066 8.08062L7.88615 8.07692H0.553304Z" fill="currentColor"/>
</svg>
