<?xml version="1.0" encoding="UTF-8"?>
<svg width="15px" height="15px" viewBox="0 0 15 15" version="1.1" xmlns="http://www.w3.org/2000/svg" xmlns:xlink="http://www.w3.org/1999/xlink">
    <title>ico/terms-fill</title>
    <g id="buyback-icon" stroke="none" stroke-width="1" fill="none" fill-rule="evenodd">
        <g id="Group" fill="currentColor" fill-rule="nonzero">
            <g id="writing" transform="translate(0.000388, 0.000000)">
                <path d="M14.0089746,4.73985352 C13.687998,4.41864258 13.1777344,4.39845703 12.8326758,4.67961914 C12.7827832,4.7202832 11.8617397,5.67626953 11.1019838,6.43602539 L13.0741323,8.40820313 L14.7425977,6.71645508 C15.0852832,6.37376953 15.0852832,5.81619141 14.7425977,5.47347656 L14.0089746,4.73985352 Z" id="Path"></path>
                <path d="M8.01741211,9.52582031 L6.85731445,12.0117773 C6.77917969,12.1792676 6.81413086,12.3776953 6.94479492,12.5083594 C7.07545898,12.6390527 7.27397461,12.6739746 7.44137695,12.5958398 L9.92733398,11.4357129 C10.0256836,11.3898047 9.72793945,11.6684766 13.4084473,8.03393555 L11.4401953,6.0656543 C7.79103516,9.71484375 8.06422852,9.42553711 8.01741211,9.52582031 L8.01741211,9.52582031 Z" id="Path"></path>
                <path d="M10.6676953,11.9757129 C10.5600586,12.0819727 10.4360156,12.168252 10.2989941,12.232207 L7.81303711,13.392334 C7.32418945,13.6204687 6.72697266,13.5336035 6.32334961,13.1298926 C5.93279297,12.7393652 5.82729492,12.1406836 6.06084961,11.6401172 L7.22097656,9.15410156 C7.28613281,9.01450195 7.37443359,8.8884668 7.48338867,8.77948242 L11.2207031,5.04216797 L11.2207031,1.31835938 C11.2207031,0.591416016 10.6292871,0 9.90234375,0 L1.31835938,0 C0.591416016,0 0,0.591416016 0,1.31835938 L0,13.6816406 C0,14.408584 0.591416016,15 1.31835938,15 L9.90234375,15 C10.6292871,15 11.2207031,14.408584 11.2207031,13.6816406 L11.2207031,11.4295605 L10.6676953,11.9757129 Z M2.3437793,2.84179688 L8.9062793,2.84179688 C9.14897461,2.84179688 9.34573242,3.03855469 9.34573242,3.28125 C9.34573242,3.52394531 9.14897461,3.72070312 8.9062793,3.72070312 L2.3437793,3.72070312 C2.10108398,3.72070312 1.90432617,3.52394531 1.90432617,3.28125 C1.90432617,3.03855469 2.10108398,2.84179688 2.3437793,2.84179688 Z M2.3437793,5.18554688 L7.5000293,5.18554688 C7.74272461,5.18554688 7.93948242,5.38230469 7.93948242,5.625 C7.93948242,5.86769531 7.74272461,6.06445312 7.5000293,6.06445312 L2.3437793,6.06445312 C2.10108398,6.06445312 1.90432617,5.86769531 1.90432617,5.625 C1.90432617,5.38230469 2.10108398,5.18554688 2.3437793,5.18554688 Z M1.90432617,7.96875 C1.90432617,7.72605469 2.10108398,7.52929688 2.3437793,7.52929688 L6.0937793,7.52929688 C6.33647461,7.52929688 6.53323242,7.72605469 6.53323242,7.96875 C6.53323242,8.21144531 6.33647461,8.40820312 6.0937793,8.40820312 L2.3437793,8.40820312 C2.10108398,8.40820312 1.90432617,8.21144531 1.90432617,7.96875 Z" id="Shape"></path>
            </g>
        </g>
    </g>
</svg>