<svg width="17" height="16" viewBox="0 0 17 16" fill="none" xmlns="http://www.w3.org/2000/svg">
<path fill-rule="evenodd" clip-rule="evenodd" d="M13.7058 5.6532C13.6114 5.39287 13.243 5.01675 12.859 5.03185C12.6086 5.0281 12.4142 5.13692 12.2423 5.29693C12.2229 5.27996 9.46385 7.99236 8.34259 9.07544C8.32804 9.0823 8.3159 9.09432 8.30967 9.11106C8.30918 9.11246 8.30858 9.1141 8.30806 9.11551C8.30042 9.12737 8.29648 9.13849 8.29559 9.14941C8.15525 9.53295 7.76731 10.6369 7.71199 10.8416C7.69776 10.9039 7.738 10.9009 7.78214 10.8896C8.16333 10.7918 9.51161 10.3305 9.51161 10.3305L9.50924 10.3279C9.53075 10.3206 9.55551 10.2968 9.59768 10.2559C10.7063 9.17969 12.2812 7.67039 13.3898 6.59417C13.3947 6.58945 13.4093 6.56979 13.4218 6.54532C13.7079 6.31622 13.8202 5.96885 13.7058 5.6532Z" fill="#F4AD00"/>
<path fill-rule="evenodd" clip-rule="evenodd" d="M4.92233 6.31802H8.61307V5.59429H4.92233V6.31802ZM4.92233 7.69623H7.07443V6.9725H4.92233V7.69623ZM4.92233 5.03166H10.4297V4.30793H4.92233V5.03166ZM7.65048 9.17662C7.67931 9.06858 7.73277 8.98294 7.8139 8.90463C9.09713 7.66595 10.3783 6.4252 11.6615 5.18656C11.7233 5.12702 11.7506 5.06666 11.7497 4.98153C11.7457 4.59838 11.7382 4.21492 11.7504 3.83208C11.7654 3.36294 11.3963 2.99317 10.8978 3.0001C9.9012 3.01412 8.90421 3.00429 7.90741 3.00429C6.79351 3.00429 5.6796 3.00421 4.5657 3.00449C4.23271 3.00456 3.9907 3.15162 3.83878 3.43703C3.76477 3.57613 3.75254 3.72884 3.75254 3.88222C3.75214 5.25258 3.7523 6.62294 3.7523 7.9933V9.33776C3.7523 10.2664 3.75829 11.1953 3.75005 12.1239C3.74511 12.6893 4.14407 13.0031 4.64369 13C6.72424 12.9866 8.80491 12.9944 10.8855 12.994C10.9689 12.994 11.0523 12.9977 11.1348 12.9765C11.5164 12.8789 11.747 12.5899 11.7475 12.1981C11.7487 11.1298 11.7479 10.0615 11.7479 8.99316C11.7479 8.97369 11.7481 8.95414 11.7469 8.93471C11.7443 8.89273 11.7257 8.88087 11.6907 8.91005C11.6679 8.92905 11.6472 8.95047 11.6259 8.97111C10.9991 9.57959 10.3714 10.1873 9.74643 10.7975C9.66301 10.879 9.5697 10.93 9.45549 10.9579C9.16704 11.0284 8.88029 11.1055 8.59277 11.1796C8.21475 11.2769 7.8371 11.3755 7.4584 11.4703C7.26262 11.5193 7.12517 11.4425 7.10109 11.2784C7.09333 11.2254 7.10949 11.1753 7.12296 11.1255C7.29884 10.4759 7.47689 9.8268 7.65048 9.17662Z" fill="#F4AD00"/>
</svg>
