<svg width="17" height="16" viewBox="0 0 17 16" fill="none" xmlns="http://www.w3.org/2000/svg">
<path fill-rule="evenodd" clip-rule="evenodd" d="M13.9432 9.12093C13.8289 9.03312 13.688 8.97223 13.5505 8.94794C13.5106 8.93776 13.4694 8.93267 13.4281 8.93267C13.3036 8.93267 13.1839 8.98027 13.1069 9.05692C12.9243 9.22006 12.7418 9.38303 12.5484 9.54585C12.3864 9.68174 12.2991 9.87328 12.3085 10.0643V10.1779L12.3116 10.1928C12.3701 10.4728 12.5945 10.7011 12.8894 10.786C12.9688 10.8126 13.0519 10.826 13.1363 10.826C13.3617 10.826 13.5753 10.728 13.7046 10.5679C13.7579 10.5058 13.8193 10.4464 13.8846 10.3837C13.937 10.333 13.9894 10.2823 14.0362 10.2321C14.1901 10.0727 14.2651 9.86934 14.2475 9.65926C14.23 9.4495 14.1219 9.2583 13.9432 9.12093Z" fill="#1672ED"/>
<path fill-rule="evenodd" clip-rule="evenodd" d="M12.471 9.31294C12.4973 9.29045 12.5234 9.26813 12.5469 9.24647C12.8257 8.99765 13.3167 8.5573 13.4719 8.4068C13.7594 8.14141 13.7508 7.71616 13.4529 7.45898C13.3127 7.33802 13.1279 7.27138 12.9326 7.27138C12.7372 7.27138 12.5525 7.33802 12.4195 7.45307C12.3451 7.51084 12.2214 7.61096 12.0822 7.72338C11.8316 7.92608 11.5198 8.17834 11.3885 8.27009C11.0997 8.45555 10.987 8.79365 11.1141 9.09088C11.2387 9.38893 11.5494 9.58522 11.9061 9.59146L12.0934 9.5931V9.57111C12.1993 9.5437 12.2936 9.48839 12.3625 9.41191C12.3956 9.37695 12.4333 9.34494 12.471 9.31294Z" fill="#1672ED"/>
<path fill-rule="evenodd" clip-rule="evenodd" d="M12.8425 6.82446C13.1059 6.5937 13.1719 6.23968 13.0111 5.95082C12.884 5.69035 12.6079 5.51687 12.2959 5.49849C12.2685 5.49603 12.2411 5.49488 12.2137 5.49488C12.0016 5.49488 11.7986 5.56562 11.6383 5.69741C11.5477 5.77668 11.3234 5.96953 11.0774 6.18092C10.7329 6.47717 10.3461 6.80969 10.2179 6.92408C10.0591 7.07196 9.97433 7.26612 9.97966 7.47078C9.98481 7.67512 10.0788 7.86468 10.2427 8.00403C10.3185 8.06984 10.4045 8.12088 10.4985 8.15617C10.5965 8.20886 10.7088 8.23659 10.8239 8.23659C10.9287 8.23659 11.0327 8.21312 11.1392 8.16126C11.4931 7.95298 12.5805 7.06654 12.8425 6.82446Z" fill="#1672ED"/>
<path fill-rule="evenodd" clip-rule="evenodd" d="M11.8818 10.1299C11.871 10.0052 11.8212 9.9658 11.698 9.95431C11.0619 9.86076 10.608 9.35197 10.6483 8.77753C10.6574 8.65116 10.6301 8.59207 10.481 8.5494C9.7989 8.3705 9.40915 7.73222 9.60954 7.12315C9.66102 6.96559 9.7511 6.81952 9.8706 6.69642C10.014 6.54543 10.1831 6.41413 10.3376 6.27134C10.8395 5.80375 11.3634 5.35552 11.8671 4.88776C12.1707 4.60711 12.4924 4.33794 12.8068 4.06714C13.0825 3.82916 13.0915 3.4369 12.825 3.19071C12.5584 2.94288 12.119 2.93631 11.8432 3.17265L11.8267 3.18743C11.1612 3.79797 10.5087 4.41837 9.8228 5.01086C9.21795 5.54755 8.58185 6.05469 7.91818 6.53066C7.56152 6.77537 6.97837 7.18749 6.50037 7.05143C6.02238 6.91684 5.37139 6.05716 5.26844 5.88958C5.22431 5.82065 5.17468 5.75336 5.1232 5.68787C4.94855 5.45301 4.73345 5.24457 4.4871 5.06912C4.37679 4.99362 4.2038 4.85691 3.81883 4.91238C3.43404 4.96769 3.07058 5.42068 3.34709 5.90977C3.36529 5.94194 3.70632 6.43711 3.78537 6.54543C4.14386 7.0099 4.38102 7.54003 4.47662 8.09641C4.52074 8.42466 4.50236 8.75291 4.51707 9.08116C4.53361 9.68203 4.67885 10.2744 4.94358 10.8275C4.97612 10.908 5.01749 10.9847 5.06327 11.059L5.06198 11.0597C5.06198 11.0597 5.07981 11.0861 5.11217 11.1308C5.14214 11.1736 5.17339 11.2156 5.20777 11.256C5.42287 11.5297 5.86869 12.0356 6.48401 12.4131C6.47868 12.4134 6.47316 12.4142 6.46765 12.4145C6.52832 12.449 6.55222 12.4638 6.57612 12.4753L6.70848 12.5426C6.72246 12.5491 6.73698 12.5544 6.75114 12.5611C6.97671 12.675 7.21975 12.7687 7.47934 12.826C7.48614 12.8275 7.49221 12.828 7.49865 12.8295C8.02793 12.9718 8.58388 13.0274 9.1389 12.9873C10.1684 12.9168 11.1483 12.5673 11.9482 11.9863C12.2183 11.7777 12.4701 11.5512 12.6983 11.3067C12.8288 11.1788 12.8268 11.1836 12.6577 11.1147C12.2054 10.9489 11.9039 10.5649 11.8818 10.1299Z" fill="#1672ED"/>
</svg>
