<svg width="23" height="7" viewBox="0 0 23 7" fill="none" xmlns="http://www.w3.org/2000/svg">
<path d="M18.2359 2L19.2074 3.21457L20.1427 2H22.1399L20.1881 4.48982L22.1667 7H20.0889L19.1265 5.77581L18.173 7H16.1667L18.128 4.50019L16.1667 2H18.2359Z" fill="#FF5900"/>
<path d="M16.1667 2.55622V4.05765H14.4375V5.43542H16.1667V7H13.1667V0H16.1667V1.56031H14.4375V2.55622H16.1667Z" fill="#FF5900"/>
<path fill-rule="evenodd" clip-rule="evenodd" d="M11.3945 0.111172V2.80727H11.3775C11.0357 2.41477 10.6092 2.27826 10.1142 2.27826C9.10018 2.27826 8.33624 2.96792 8.06817 3.87921C7.76204 2.87506 6.97333 2.25938 5.80388 2.25938C4.85421 2.25938 4.1042 2.68562 3.71294 3.38023V2.51692H1.74983V1.57963H3.89216V0.111172H0V6.69912H1.74983V3.92997H3.49409C3.44209 4.13334 3.41423 4.35126 3.41423 4.58125C3.41423 5.9553 4.46419 6.91983 5.80388 6.91983C6.93061 6.91983 7.6732 6.39082 8.0657 5.4266H6.56597C6.36322 5.71664 6.20938 5.80238 5.80388 5.80238C5.33369 5.80238 4.92819 5.39224 4.92819 4.90595H7.98181C8.1143 5.99739 8.9646 6.93871 10.1313 6.93871C10.6346 6.93871 11.0955 6.69107 11.3772 6.2732H11.3942V6.69974H12.9366V0.111172H11.3945ZM4.97711 3.94948C5.0743 3.53098 5.39901 3.25765 5.8042 3.25765C6.25025 3.25765 6.55824 3.52262 6.63934 3.94948H4.97711ZM9.53601 4.61313C9.53601 5.16628 9.88951 5.69621 10.4581 5.69621C11.0803 5.69621 11.3493 5.17371 11.3493 4.61313C11.3493 4.02191 11.0955 3.45328 10.4581 3.45328C9.84339 3.45328 9.53601 4.02191 9.53601 4.61313Z" fill="#2A007C"/>
</svg>
