<?xml version="1.0" encoding="UTF-8"?>
<svg width="72px" height="23px" viewBox="0 0 72 23" version="1.1" xmlns="http://www.w3.org/2000/svg" xmlns:xlink="http://www.w3.org/1999/xlink">
    <title>fedex</title>
    <g id="addons" stroke="none" stroke-width="1" fill="none" fill-rule="evenodd">
        <g id="integrations" transform="translate(-259.000000, -261.000000)" fill-rule="nonzero">
            <g id="fedex" transform="translate(259.000000, 261.000000)">
                <polygon id="polygon10" fill="#FF5900" points="59.95 7.772 62.928 11.054 65.795 7.772 71.917 7.772 65.934 14.5 71.999 21.283 65.63 21.283 62.68 17.975 59.757 21.283 53.607 21.283 59.619 14.528 53.607 7.772"></polygon>
                <polygon id="polygon12" fill="#FF5900" points="53.607 7.772 53.607 12.337 46.798 12.337 46.798 16.526 53.607 16.526 53.607 21.283 41.794 21.283 41.794 0 53.607 0 53.607 4.744 46.798 4.744 46.798 7.772"></polygon>
                <path d="M36.811,0 L36.811,8.71 L36.756,8.71 C35.652,7.442 34.274,7.001 32.675,7.001 C29.399,7.001 26.931,9.229 26.065,12.173 C25.076,8.929 22.528,6.94 18.75,6.94 C15.682,6.94 13.259,8.317 11.995,10.561 L11.995,7.772 L5.653,7.772 L5.653,4.744 L12.574,4.744 L12.574,0 L0,0 L0,21.283 L5.653,21.283 L5.653,12.337 L11.288,12.337 C11.12,12.994 11.03,13.698 11.03,14.441 C11.03,18.88 14.422,21.996 18.75,21.996 C22.39,21.996 24.789,20.287 26.057,17.172 L21.212,17.172 C20.557,18.109 20.06,18.386 18.75,18.386 C17.231,18.386 15.921,17.061 15.921,15.49 L25.786,15.49 C26.214,19.016 28.961,22.057 32.73,22.057 C34.356,22.057 35.845,21.257 36.755,19.907 L36.81,19.907 L36.81,21.285 L41.793,21.285 L41.793,0 L36.811,0 Z M16.079,12.4 C16.393,11.048 17.442,10.165 18.751,10.165 C20.192,10.165 21.187,11.021 21.449,12.4 C21.559,12.4 16.079,12.4 16.079,12.4 Z M33.786,18.043 C31.949,18.043 30.807,16.331 30.807,14.544 C30.807,12.634 31.8,10.797 33.786,10.797 C35.845,10.797 36.665,12.634 36.665,14.544 C36.665,16.355 35.796,18.043 33.786,18.043 Z" id="path14" fill="#2A007C"></path>
            </g>
        </g>
    </g>
</svg>