<svg width="16" height="20" viewBox="0 0 16 20" fill="none" xmlns="http://www.w3.org/2000/svg">
<g clip-path="url(#clip0_1038_27624)">
<path fill-rule="evenodd" clip-rule="evenodd" d="M0 5.37159L0.5 13.5L2.2288 15.6204L8 19L14.5 15L16 12.2041L15.5 1.88162L10.6051 1L5.1364 1.88162L0.148022 4.74689L0 5.37159Z" fill="#301506"/>
<path fill-rule="evenodd" clip-rule="evenodd" d="M0 1.7903C2.22286 0.602487 4.91408 0.000157431 7.99936 0.000157431L7.99908 0C11.0856 0 13.7768 0.60233 16 1.7903V11.2865C16 13.2848 15.2553 14.9562 13.8478 16.1196C12.5611 17.1839 8.46944 18.9938 7.99952 19.2C7.50399 18.9835 3.46028 17.2012 2.15276 16.1196C0.744544 14.9556 0 13.2847 0 11.2865V1.7903ZM15.2645 1.99017C14.3913 1.90833 13.4878 1.85102 12.5678 1.83889L12.5675 1.8391C8.58076 1.78652 4.27805 2.57808 0.734709 5.85484V11.2868C0.734709 13.0567 1.38374 14.534 2.61675 15.5466C3.70492 16.4417 7.05467 17.9704 7.99952 18.3904C8.93187 17.976 12.2733 16.4664 13.3813 15.5462C14.6217 14.516 15.2645 13.0729 15.2645 11.2865V1.99017ZM8.20794 6.1676C7.44881 6.1676 6.83632 6.33871 6.33204 6.66694V15.8133H7.72434V12.8584C7.86328 12.8998 8.06496 12.9384 8.35067 12.9384C9.89508 12.9384 10.7828 11.5345 10.7828 9.48467C10.7828 7.43886 9.86873 6.1676 8.20797 6.1676L8.20794 6.1676ZM11.0979 7.9971C11.0921 6.86322 12.0496 6.19436 12.9653 6.1676L12.9652 6.16757C13.7295 6.14395 14.2476 6.43377 14.4923 6.62387V7.84395C14.2019 7.54365 13.7315 7.27205 13.2452 7.26773C12.851 7.26417 12.4404 7.43936 12.4268 7.93803C12.414 8.41368 12.7685 8.62137 13.2364 8.89552C13.2711 8.91582 13.3063 8.93649 13.3421 8.95765C14.5052 9.64679 14.7295 10.2659 14.7033 11.0842C14.6768 11.982 14.0626 12.9617 12.6872 12.9617C12.1376 12.9617 11.5936 12.7884 11.1577 12.5263V11.2343C11.5132 11.5535 12.0442 11.802 12.4884 11.8056C12.9989 11.8076 13.3343 11.5123 13.3226 11.0227C13.3121 10.5823 13.0654 10.3434 12.453 9.98098C11.3055 9.30205 11.1002 8.7437 11.0979 7.9971ZM1.44569 6.30966V6.30976H1.44565L1.44569 6.30966ZM1.44569 6.30976H2.83673V10.7836C2.83673 11.1815 2.93203 11.7712 3.56978 11.7712C3.85236 11.7712 4.07699 11.7044 4.22843 11.5997V6.30969H5.61766V12.3985C5.08607 12.7629 4.37244 12.9618 3.52039 12.9618C2.14339 12.9618 1.44569 12.2088 1.44569 10.7215V6.30976ZM9.35955 9.52039C9.35955 7.94804 9.02483 7.29791 8.21731 7.29791V7.29804C8.02839 7.29804 7.83673 7.34283 7.72393 7.39951V11.7109C7.82347 11.7487 7.98732 11.7958 8.17584 11.7958C8.97674 11.7958 9.35955 11.0546 9.35955 9.52039Z" fill="#FAB80A"/>
</g>
<defs>
<clipPath id="clip0_1038_27624">
<rect width="16" height="20" fill="white"/>
</clipPath>
</defs>
</svg>
