<?xml version="1.0" encoding="UTF-8"?>
<svg width="34px" height="40px" viewBox="0 0 34 40" version="1.1" xmlns="http://www.w3.org/2000/svg" xmlns:xlink="http://www.w3.org/1999/xlink">
    <title>ups</title>
    <g id="addons" stroke="none" stroke-width="1" fill="none" fill-rule="evenodd">
        <g id="integrations" transform="translate(-551.000000, -254.000000)">
            <g id="Group-2-Copy-5" transform="translate(536.000000, 228.000000)">
                <g id="ups" transform="translate(15.000000, 26.000000)">
                    <g id="Group" transform="translate(17.000000, 20.000000) scale(-1, 1) rotate(-180.000000) translate(-17.000000, -20.000000) translate(0.000000, 0.000000)">
                        <g transform="translate(0.000000, 0.000000)">
                            <polygon id="Path" fill="#301506" points="0.88330689 28.0693745 1.03043347 11.5604665 4.78220692 6.9786583 16.0379419 1.08779715 29.8681226 7.77868519 32.7371697 14.5423029 32.4429166 36.433374 21.9966722 36.7242765 11.109189 34.9788452 1.17799963 29.3061733"></polygon>
                            <path d="M16.9986398,0 C10.4424292,0 4.7235769,1.25518209 0,3.72979639 L0,23.5135915 C0,27.6764536 1.58215608,31.1575094 4.57461736,33.5825987 C7.35309443,35.835826 15.9459702,39.5490266 16.9989715,40 C17.9975645,39.5703453 26.6922901,35.7997481 29.4266433,33.5825987 C32.4174458,31.1588214 34,27.676716 34,23.5135915 L34,3.72979639 C29.2757596,1.25485411 23.5569073,0 16.9980426,0 L16.9986398,0 Z M26.7065557,3.83101123 C28.6616747,3.85628214 30.5814282,3.97568351 32.4371523,4.14618099 L32.4371523,23.5134406 C32.4371523,27.2352343 31.0711036,30.2416365 28.4353491,32.3879421 C26.0806602,34.3049892 18.9802331,37.4499961 16.9989715,38.3133724 C14.9911694,37.43832 7.87295993,34.2536275 5.56060349,32.3887293 C2.94044155,30.2791575 1.5612553,27.2013867 1.5612553,23.5142278 L1.5612553,12.1975821 C9.09084522,5.37099208 18.2341083,3.72190517 26.7058922,3.83145072 L26.7065557,3.83101123 Z M17.4418691,12.8491682 C15.8287268,12.8491682 14.527172,13.2056439 13.4555922,13.8894574 L13.4555922,32.9444794 L16.4142141,32.9444794 L16.4142141,26.7884131 C16.7094791,26.874508 17.1380447,26.9549683 17.7451627,26.9549683 C21.02705,26.9549683 22.9133623,24.0301677 22.9133623,19.7597279 C22.9133623,15.4976189 20.9710492,12.8491682 17.4419354,12.8491682 L17.4418691,12.8491682 Z M27.5512128,12.8491682 C25.6054494,12.904925 23.5706421,14.2983837 23.5829934,16.6606318 C23.5880263,18.2160474 24.0241825,19.3792637 26.4625806,20.7937133 C27.7638699,21.548856 28.288181,22.0464683 28.3106079,22.9640271 C28.3354898,23.984047 27.6226072,24.5990764 26.537757,24.5949438 C25.5939042,24.5875643 24.4655937,24.0697156 23.710047,23.4047019 L23.710047,26.0964394 C24.6364493,26.6425273 25.7924285,27.0035028 26.9602183,27.0035028 C29.8830103,27.0035028 31.188148,24.9624134 31.244547,23.0920707 C31.3001165,21.3873583 30.8236251,20.0974759 28.3520113,18.6617732 C27.2489145,18.0222109 26.3777831,17.6018708 26.4068452,16.5375735 C26.435874,15.4986618 27.3082992,15.1336849 28.1459893,15.1410973 C29.1794169,15.1501168 30.1790715,15.7159359 30.7961422,16.3415722 L30.7961422,13.7997219 C30.2761109,13.4036852 29.1751041,12.7999055 27.5511464,12.8491026 L27.5512128,12.8491682 Z M3.07201695,13.1451183 L3.07201695,22.3364491 C3.07201695,25.4350795 4.55471185,27.0037455 7.48082143,27.0037455 C9.29142639,27.0037455 10.8078943,26.5894666 11.9375318,25.830165 L11.9375318,13.1451183 L8.98541239,13.1451183 L8.98541239,24.165991 C8.66360668,24.3840982 8.18627262,24.5234375 7.58578981,24.5234375 C6.23055652,24.5234375 6.02805115,23.2948218 6.02805115,22.4658834 L6.02805115,13.1453282 L3.07201695,13.1453282 L3.07201695,13.1451183 Z M17.4617746,15.2039843 C19.177762,15.2039843 19.8890522,16.5584134 19.8890522,19.8341533 C19.8890522,23.0303251 19.0755804,24.5745238 17.3736595,24.5745238 C16.9730612,24.5745238 16.6248807,24.4764379 16.4133515,24.3977225 L16.4133515,15.4156434 C16.653047,15.2975703 17.0603336,15.2042467 17.4617746,15.2042467 L17.4617746,15.2039843 Z" id="Shape" fill="#FAB80A" fill-rule="nonzero" transform="translate(17.000000, 20.000000) scale(-1, 1) rotate(-180.000000) translate(-17.000000, -20.000000) "></path>
                        </g>
                    </g>
                </g>
            </g>
        </g>
    </g>
</svg>