<?xml version="1.0" encoding="UTF-8"?>
<svg width="186px" height="30px" viewBox="0 0 186 30" version="1.1" xmlns="http://www.w3.org/2000/svg" xmlns:xlink="http://www.w3.org/1999/xlink">
    <title>usps</title>
    <g id="addons" stroke="none" stroke-width="1" fill="none" fill-rule="evenodd">
        <g id="integrations" transform="translate(-852.000000, -262.000000)" fill-rule="nonzero">
            <g id="Group-2-Copy-4" transform="translate(832.000000, 228.000000)">
                <g id="usps" transform="translate(20.000000, 34.000000)">
                    <path d="M185.649,25.86 C185.649,27.93 184.045,29.542 181.967,29.542 C179.889,29.542 178.285,27.931 178.285,25.86 C178.285,23.796 179.889,22.18 181.967,22.18 C184.045,22.18 185.649,23.796 185.649,25.86 Z M178.858,25.86 C178.858,27.622 180.184,29.016 181.967,29.016 C183.744,29.016 185.071,27.621 185.071,25.86 C185.071,24.099 183.745,22.704 181.967,22.704 C180.184,22.704 178.858,24.099 178.858,25.86 Z M181.155,27.991 L180.63,27.991 L180.63,23.735 L182.263,23.735 C183.228,23.735 183.646,24.149 183.646,24.913 C183.646,25.663 183.156,26.003 182.585,26.101 L183.849,27.992 L183.232,27.992 L182.037,26.101 L181.156,26.101 L181.156,27.991 L181.155,27.991 L181.155,27.991 Z M181.846,25.653 C182.491,25.653 183.123,25.635 183.123,24.913 C183.123,24.319 182.629,24.181 182.117,24.181 L181.154,24.181 L181.154,25.654 L181.846,25.654 L181.846,25.653 Z" id="Shape" fill="#304C9C"></path>
                    <path d="M6.17,0.138 C6.17,0.138 30.545,5.149 31.028,5.231 C36.628,6.219 36.455,7.301 36.455,7.301 C40.376,7.279 40.859,7.439 41.545,8.01 C43.61,9.735 40.254,14.81 40.254,14.81 C39.775,15.168 3.515,29.172 3.515,29.172 L41.45,29.172 L47.655,2.84217094e-14 L6.194,0.004 L6.17,0.138 Z" id="Path" fill="#304C9C"></path>
                    <path d="M34.549,9.588 C33.999,9.86 32.56,10.007 31.891,10.067 C31.241,10.122 31.067,10.186 31.057,10.434 C31.047,10.656 31.153,10.784 32.08,10.784 C34.21,10.784 38.045,9.979 39.2,10.347 C39.809,10.54 39.316,11.631 38.821,13.057 C38.628,13.609 39.007,13.573 39.227,13.328 C39.449,13.089 40.442,11.267 40.55,10.338 C40.702,9.021 39.577,8.823 38.015,8.823 L35.537,8.823 C35.41,8.823 35.301,8.911 35.148,9.114 C35.012,9.294 34.9,9.409 34.549,9.588 Z" id="Path" fill="#304C9C"></path>
                    <path d="M4.761,6.745 L0,29.179 C0,29.179 14.588,22.019 16.368,21.103 C20.026,19.228 25.078,16.742 29.749,15.15 C30.64,14.847 34.456,13.673 36.673,13.278 C37.538,13.122 37.899,12.979 37.8882435,12.819 C37.857,12.358 36.994,12.332 35.527,12.4 C31.056,12.612 22.485,16.022 20.022,17.324 L17.237,8.696 L35.026,8.696 C35.822,6.455 24.498,6.767 24.141,6.745 L4.761,6.745 Z M58.073,11.134 C55.191,11.134 53.467,9.975 54.032,7.412 C54.976,2.977 55.602,1.42108547e-14 55.602,1.42108547e-14 L58.013,1.42108547e-14 C58.013,1.42108547e-14 56.534,6.85 56.58,6.68 C56.201,8.373 56.58,9.393 58.425,9.412 C60.192,9.412 61.096,8.392 61.459,6.68 L62.892,1.42108547e-14 L65.303,1.42108547e-14 C63.683,7.412 65.303,1.42108547e-14 63.702,7.412 C63.15,9.975 60.958,11.134 58.073,11.134 L58.073,11.134 Z M74.907,10.936 L71.876,10.936 L69.172,2.825 L69.126,2.825 L67.436,10.936 L65.297,10.936 L67.617,4.26325641e-14 L70.744,4.26325641e-14 L73.339,8.203 L73.368,8.203 L75.093,4.26325641e-14 L77.228,4.26325641e-14 L74.907,10.936 Z M79.634,10.936 L77.228,10.936 L79.543,4.26325641e-14 L81.956,4.26325641e-14 L79.634,10.936 Z M92.401,1.74 L88.999,1.74 L87.048,10.936 L84.636,10.936 L86.589,1.74 L83.188,1.74 L83.57,4.26325641e-14 L92.764,4.26325641e-14 L92.401,1.74 L92.401,1.74 Z M101.936,1.74 L96.426,1.74 L95.817,4.592 L100.62,4.592 L100.27,6.206 L95.467,6.206 L94.842,9.196 L100.346,9.196 L99.979,10.936 L92.052,10.936 L94.385,4.26325641e-14 L102.299,4.26325641e-14 L101.936,1.74 L101.936,1.74 Z M106.682,10.936 L101.741,10.936 L104.061,4.26325641e-14 L109.368,4.26325641e-14 C112.675,4.26325641e-14 113.79,2.198 113.315,4.987 C112.661,8.925 109.731,10.936 106.682,10.936 Z M108.573,1.74 L106.116,1.74 L104.532,9.197 L106.255,9.197 C108.984,9.197 110.556,7.413 110.982,4.96 C111.288,3.22 110.571,1.74 108.573,1.74 Z M125.041,1.74 L122.459,1.74 C121.147,1.74 120.555,2.016 120.434,2.549 C120.067,4.289 124.78,5.674 124.336,8.359 C124.092,9.855 122.781,10.937 119.762,10.937 L116.073,10.937 L116.436,9.197 L119.413,9.197 C120.325,9.197 121.456,9.244 121.669,8.327 C122.021,6.754 117.382,5.204 117.731,2.582 C117.944,1.007 119.348,4.26325641e-14 122.186,4.26325641e-14 L125.42,4.26325641e-14 L125.041,1.74 Z M135.489,1.74 L132.084,1.74 L130.135,10.936 L127.725,10.936 L129.678,1.74 L126.276,1.74 L126.661,4.26325641e-14 L135.856,4.26325641e-14 L135.489,1.74 Z M135.926,10.936 L136.872,9.196 L140.317,9.196 L139.358,2.168 L134.549,10.936 L132.143,10.936 L138.409,4.26325641e-14 L141.291,4.26325641e-14 L142.998,10.936 L135.926,10.936 L135.926,10.936 Z M152.782,1.74 L149.379,1.74 L147.432,10.936 L145.022,10.936 L146.971,1.74 L143.573,1.74 L143.952,4.26325641e-14 L153.149,4.26325641e-14 L152.782,1.74 L152.782,1.74 Z M162.301,1.74 L156.797,1.74 L156.19,4.592 L160.993,4.592 L160.643,6.206 L155.834,6.206 L155.211,9.196 L160.719,9.196 L160.35,10.936 L152.418,10.936 L154.756,4.26325641e-14 L162.672,4.26325641e-14 L162.301,1.74 L162.301,1.74 Z M170.825,1.74 L168.245,1.74 C166.934,1.74 166.339,2.016 166.218,2.549 C165.853,4.289 170.562,5.674 170.122,8.359 C169.876,9.855 168.565,10.937 165.546,10.937 L161.857,10.937 L162.22,9.197 L165.197,9.197 C166.111,9.197 167.238,9.244 167.455,8.327 C167.805,6.754 163.166,5.204 163.519,2.582 C163.736,1.007 165.134,4.26325641e-14 167.976,4.26325641e-14 L171.206,4.26325641e-14 L170.825,1.74 Z M54.797,24.991 C54.418,24.991 54.004,24.932 53.657,24.899 L53.535,23.311 C53.839,23.34 54.237,23.385 54.599,23.385 C56.248,23.385 56.844,22.258 56.98,21.604 C57.238,20.413 56.63,19.971 55.745,19.971 L53.777,19.971 L51.826,29.168 L49.417,29.168 L51.734,18.232 L56.964,18.232 C59.33,18.232 59.603,20.293 59.313,21.658 C58.872,23.741 56.965,24.991 54.797,24.991 L54.797,24.991 Z M64.636,29.366 C61.269,29.366 59.373,26.804 60.029,23.694 C60.856,19.801 63.677,18.034 67.061,18.034 C70.417,18.034 72.354,20.446 71.652,23.694 C70.798,27.673 68.054,29.366 64.636,29.366 L64.636,29.366 Z M66.682,19.774 C64.498,19.774 63.052,21.223 62.489,23.694 C62.012,25.815 62.762,27.628 65.018,27.628 C67.199,27.628 68.662,26.165 69.182,23.694 C69.655,21.481 68.907,19.774 66.682,19.774 Z M80.397,19.972 L77.82,19.972 C76.508,19.972 75.912,20.243 75.79,20.777 C75.427,22.521 80.141,23.906 79.696,26.591 C79.453,28.081 78.14,29.169 75.121,29.169 L71.432,29.169 L71.795,27.431 L74.767,27.431 C75.684,27.431 76.814,27.476 77.028,26.56 C77.375,24.992 72.742,23.437 73.092,20.814 C73.303,19.24 74.706,18.234 77.546,18.234 L80.779,18.234 L80.397,19.972 L80.397,19.972 Z M90.846,19.972 L87.443,19.972 L85.494,29.169 L83.086,29.169 L85.038,19.972 L81.633,19.972 L82.015,18.233 L91.214,18.233 L90.846,19.972 Z M91.3,29.169 L92.245,27.431 L95.694,27.431 L94.733,20.399 L89.926,29.169 L87.518,29.169 L93.782,18.233 L96.666,18.233 L98.373,29.169 L91.3,29.169 L91.3,29.169 Z M107.028,29.169 L99.631,29.169 L101.95,18.233 L104.375,18.233 L102.424,27.431 L107.407,27.431 L107.028,29.169 Z M120.067,19.972 L117.489,19.972 C116.178,19.972 115.583,20.243 115.46,20.777 C115.099,22.521 119.81,23.906 119.366,26.591 C119.122,28.081 117.811,29.169 114.79,29.169 L111.102,29.169 L111.463,27.431 L114.438,27.431 C115.354,27.431 116.483,27.476 116.698,26.56 C117.044,24.992 112.411,23.437 112.764,20.814 C112.975,19.24 114.379,18.234 117.215,18.234 L120.449,18.234 L120.067,19.972 L120.067,19.972 Z M130.084,19.972 L124.577,19.972 L123.969,22.825 L128.772,22.825 L128.424,24.438 L123.62,24.438 L122.991,27.431 L128.5,27.431 L128.131,29.169 L120.202,29.169 L122.536,18.233 L130.45,18.233 L130.084,19.972 L130.084,19.972 Z M137.016,24.452 L138.817,29.169 L136.18,29.169 L134.196,23.175 C134.499,23.22 134.882,23.206 135.112,23.206 C136.344,23.206 137.473,22.686 137.737,21.39 C137.872,20.704 137.747,19.954 136.409,19.954 L134.241,19.954 L132.29,29.169 L129.88,29.169 L132.202,18.233 L137.292,18.233 C139.427,18.233 140.28,19.194 140.146,21.02 C139.993,23.083 138.616,24.227 137.016,24.452 Z M145.916,29.169 L143.069,29.169 L141.42,18.233 L143.827,18.233 L144.957,27.001 L149.758,18.233 L152.139,18.233 L145.916,29.169 L145.916,29.169 Z M153.686,29.169 L151.278,29.169 L153.592,18.233 L156.004,18.233 L153.686,29.169 Z M165.778,20.124 C165.094,19.925 164.333,19.774 163.214,19.774 C161.032,19.774 159.175,21.223 158.657,23.694 C158.137,26.165 159.37,27.628 161.553,27.628 C162.699,27.628 163.612,27.456 164.483,27.245 L163.887,29.122 C163.004,29.259 162.119,29.366 161.184,29.366 C157.832,29.366 155.346,27.608 156.186,23.694 C157.008,19.774 160.243,18.034 163.596,18.034 C164.407,18.034 165.215,18.141 165.992,18.278 L165.778,20.124 L165.778,20.124 Z M175.495,19.972 L169.987,19.972 L169.375,22.825 L174.186,22.825 L173.831,24.438 L169.03,24.438 L168.401,27.431 L173.907,27.431 L173.539,29.169 L165.61,29.169 L167.942,18.233 L175.858,18.233 L175.495,19.972 L175.495,19.972 Z" id="Shape" fill="#304C9C"></path>
                    <polygon id="Path" fill="#CC262D" points="176.551 14.993 176.719 14.184 52.594 14.184 52.423 14.993"></polygon>
                </g>
            </g>
        </g>
    </g>
</svg>