<svg width="19" height="12" viewBox="0 0 19 12" fill="none" xmlns="http://www.w3.org/2000/svg">
<path d="M11.2329 3.12175C9.93087 2.94585 2.89898 3.0092 1.86552 3.01954L0 12C2.8559 10.509 5.39813 9.22207 8.22631 7.82211C11.8219 6.04242 14.2955 5.58627 14.8087 5.56036C15.154 5.54301 14.9582 5.38696 14.7941 5.3494C12.7857 4.88992 7.91459 7.23308 7.91459 7.23308L6.85032 3.88312L13.7851 3.8899C13.4024 3.30205 12.639 3.3118 11.2329 3.12175V3.12175Z" fill="#00569B"/>
<path d="M2.88653 0C6.16049 0.749416 9.43431 1.49954 12.708 2.25036C14.2821 2.61231 14.4833 3.17483 14.4833 3.17483C14.4833 3.17483 16.2059 2.95772 16.522 3.58304C16.9272 4.38415 15.8911 5.90631 15.8911 5.90631L1 12H16.464L19 0L2.88653 0Z" fill="#00569B"/>
<path d="M13.8319 4.00925C13.8319 4.00925 13.7532 4.45829 12.124 4.59729C11.9747 4.60998 11.939 4.70709 12.1361 4.7135C12.3328 4.7199 15.0559 4.62446 15.3592 4.65469C15.6626 4.68493 15.6221 4.87133 15.5832 5.05185C15.5439 5.23223 15.3399 5.77301 15.2875 5.89997C15.2354 6.02706 15.335 6.02411 15.4152 5.94122C15.4952 5.85821 15.9845 4.85814 15.9986 4.62164C16.0125 4.38514 15.9294 4.13954 15.5512 4.05473C15.1728 3.96953 13.8319 4.00925 13.8319 4.00925V4.00925Z" fill="#00569B"/>
</svg>
