<svg width="3535" height="720" viewBox="0 0 3535 720" fill="none" xmlns="http://www.w3.org/2000/svg">
<path d="M470.574 449.767C509.847 411.429 534.158 357.195 534.158 298.286C535.093 180.468 435.978 84.1562 318.161 84.1562H84.3989C84.3989 160.832 146.112 223.481 223.721 223.481H266.734C267.669 223.481 269.539 222.546 269.539 220.676V196.364C269.539 194.494 272.344 192.624 274.214 194.494L377.07 297.351L302.266 371.221L274.214 399.273C272.344 401.143 269.539 399.273 269.539 397.403V374.026C269.539 372.156 268.604 371.221 266.734 371.221H87.2041C85.334 372.156 84.3989 373.091 84.3989 374.026V438.546C84.3989 497.455 132.086 545.143 190.995 545.143H266.734C267.669 545.143 269.539 544.208 269.539 542.338V501.195C269.539 483.429 284.5 468.468 302.266 468.468C313.486 468.468 323.772 474.078 330.317 484.364L391.095 584.416C410.731 616.208 445.328 634.91 481.795 634.91H584.651L470.574 449.767Z" fill="url(#paint0_linear_786_5645)"/>
<path d="M670.674 504V264.624H726.777V311.377C735.193 277.714 764.179 261.818 790.361 261.818C798.776 261.818 806.257 262.753 812.802 263.688V315.117C804.386 314.182 799.711 314.182 790.361 314.182C751.089 314.182 726.777 344.104 726.777 398.338V504.935H670.674V504Z" fill="#303030"/>
<path d="M1067.14 403.014H888.541C890.411 441.351 914.722 461.923 955.865 461.923C983.916 461.923 999.812 453.507 1009.16 434.806H1066.2C1058.72 479.689 1013.84 511.481 955.865 511.481C880.126 511.481 833.373 462.858 833.373 385.247C833.373 307.637 881.061 259.014 953.994 259.014C1022.25 259.014 1069.01 305.767 1069.01 373.092C1068.07 381.507 1068.07 388.988 1067.14 403.014ZM1013.84 360.001C1012.9 322.598 991.396 302.027 953.059 302.027C914.722 302.027 889.476 325.403 889.476 360.001H1013.84Z" fill="#303030"/>
<path d="M1197.11 228.156V264.623H1259.76V311.377H1197.11V504.935H1141V311.377H1092.38V264.623H1141V229.091C1141 151.481 1197.11 140.26 1222.35 140.26C1240.12 140.26 1252.28 142.13 1259.76 144.935V192.623C1252.28 191.688 1245.73 190.753 1237.31 190.753C1220.48 190.753 1197.11 193.558 1197.11 228.156Z" fill="#303030"/>
<path d="M1303.7 504V264.624H1359.81V311.377C1368.22 277.714 1397.21 261.818 1423.39 261.818C1431.8 261.818 1439.29 262.753 1445.83 263.688V315.117C1437.42 314.182 1432.74 314.182 1423.39 314.182C1384.12 314.182 1359.81 344.104 1359.81 398.338V504.935H1303.7V504Z" fill="#303030"/>
<path d="M1700.16 403.014H1521.57C1523.44 441.351 1547.75 461.923 1588.89 461.923C1616.94 461.923 1632.84 453.507 1642.19 434.806H1699.23C1691.75 479.689 1646.87 511.481 1588.89 511.481C1513.15 511.481 1466.4 462.858 1466.4 385.247C1466.4 307.637 1514.09 259.014 1587.02 259.014C1655.28 259.014 1702.03 305.767 1702.03 373.092C1701.1 381.507 1701.1 388.988 1700.16 403.014ZM1646.87 360.001C1645.93 322.598 1624.43 302.027 1586.09 302.027C1547.75 302.027 1522.5 325.403 1522.5 360.001H1646.87Z" fill="#303030"/>
<path d="M1737.57 430.131H1793.67C1793.67 450.702 1813.31 465.663 1842.29 465.663C1863.8 465.663 1876.89 454.442 1876.89 437.611C1876.89 424.52 1871.28 416.105 1845.1 409.559L1797.41 396.468C1763.75 387.118 1745.05 362.806 1745.05 329.144C1745.05 288.001 1783.38 259.014 1837.62 259.014C1896.52 259.014 1932.06 287.066 1932.06 333.819H1876.89C1876.89 313.247 1861.93 302.027 1834.81 302.027C1815.18 302.027 1800.21 312.312 1800.21 326.338C1800.21 339.429 1807.7 347.845 1830.14 354.39L1877.82 368.416C1911.49 377.767 1932.99 403.014 1932.99 436.676C1932.99 483.429 1896.52 511.481 1838.55 511.481C1780.58 511.481 1737.57 475.949 1737.57 430.131Z" fill="#303030"/>
<path d="M2212.57 353.455V504H2156.47V378.701C2156.47 327.273 2143.38 305.766 2104.11 305.766C2067.64 305.766 2047.07 330.078 2047.07 372.156V504H1990.96V144H2047.07V298.286C2062.03 272.104 2090.08 259.013 2125.61 259.013C2182.65 258.078 2212.57 290.805 2212.57 353.455Z" fill="#303030"/>
<path d="M2498.7 403.014H2320.1C2321.97 441.351 2346.28 461.923 2387.43 461.923C2415.48 461.923 2431.37 453.507 2440.72 434.806H2497.76C2490.28 479.689 2445.4 511.481 2387.43 511.481C2311.69 511.481 2264.93 462.858 2264.93 385.247C2264.93 307.637 2312.62 259.014 2385.56 259.014C2453.81 259.014 2500.57 305.767 2500.57 373.092C2499.63 381.507 2499.63 388.988 2498.7 403.014ZM2444.46 360.001C2443.53 322.598 2422.02 302.027 2383.69 302.027C2345.35 302.027 2320.1 325.403 2320.1 360.001H2444.46Z" fill="#303030"/>
<path d="M2730.59 144H2786.69V504.935H2730.59V472.208C2715.63 496.519 2682.9 510.545 2652.98 510.545C2575.37 510.545 2535.16 454.442 2535.16 384.312C2535.16 314.182 2580.98 258.078 2655.79 258.078C2687.58 258.078 2716.56 272.104 2731.52 296.416L2730.59 144ZM2733.39 384.312C2733.39 343.169 2710.02 307.636 2662.33 307.636C2618.38 307.636 2592.2 340.364 2592.2 384.312C2592.2 428.26 2618.38 460.987 2662.33 460.987C2710.02 460.052 2733.39 425.455 2733.39 384.312Z" fill="#303030"/>
<path d="M2962.48 485.299V504C2956.87 505.871 2946.59 506.806 2938.17 506.806C2919.47 506.806 2894.22 502.13 2894.22 455.377V302.026H2914.79V352.52H2956.87V371.221H2914.79V450.702C2914.79 482.494 2926.01 486.234 2941.91 486.234C2947.52 487.169 2956.87 486.234 2962.48 485.299Z" fill="#303030"/>
<path d="M3118.63 433.87H2996.14C2996.14 468.468 3016.71 489.974 3049.44 489.974C3072.82 489.974 3088.71 479.688 3096.19 461.922H3117.7C3112.09 489.974 3084.04 508.675 3049.44 508.675C3003.62 508.675 2974.64 476.883 2974.64 428.26C2974.64 379.636 3004.56 348.779 3048.51 348.779C3092.45 348.779 3119.57 377.766 3119.57 418.909C3118.63 425.455 3118.63 428.26 3118.63 433.87ZM3098.06 417.039C3098.06 387.117 3079.36 366.546 3047.57 366.546C3015.78 366.546 2997.08 387.117 2995.21 417.039H3098.06Z" fill="#303030"/>
<path d="M3137.34 429.195C3137.34 382.442 3166.32 349.715 3213.07 349.715C3253.28 349.715 3279.46 371.221 3283.2 404.884H3261.7C3257.96 381.507 3240.19 369.351 3213.07 369.351C3179.41 369.351 3158.84 392.728 3158.84 430.13C3158.84 467.533 3179.41 490.91 3213.07 490.91C3240.19 490.91 3257.96 477.819 3261.7 455.377H3283.2C3279.46 488.104 3253.28 509.611 3213.07 509.611C3166.32 508.676 3137.34 475.949 3137.34 429.195Z" fill="#303030"/>
<path d="M3450.58 413.299V504.935H3429.07V421.715C3429.07 386.182 3415.05 367.481 3386.06 367.481C3352.4 367.481 3336.5 391.793 3336.5 427.325V504.935H3315V302.026H3336.5V387.117C3343.98 364.676 3362.68 348.78 3393.54 348.78C3430.94 348.78 3450.58 372.156 3450.58 413.299Z" fill="#303030"/>
<defs>
<linearGradient id="paint0_linear_786_5645" x1="-13.8645" y1="590.041" x2="658.63" y2="146.457" gradientUnits="userSpaceOnUse">
<stop stop-color="#75FBD4"/>
<stop offset="1" stop-color="#48CAE1"/>
</linearGradient>
</defs>
</svg>
