<svg width="350" height="57" viewBox="0 0 350 57" fill="none" xmlns="http://www.w3.org/2000/svg">
<path d="M154.297 28H228.722" stroke="#B0B0B0" stroke-width="0.57031" stroke-dasharray="3.42 3.42"/>
<path d="M202.773 28.4062C202.773 22.1067 197.667 17 191.367 17C185.068 17 179.961 22.1067 179.961 28.4062C179.961 34.7057 185.068 39.8124 191.367 39.8124C197.667 39.8124 202.773 34.7057 202.773 28.4062Z" fill="#3EA76A"/>
<path d="M188.51 27.4218L186.234 29.7031L188.51 31.9843V30.2734H192.508V29.1328H188.51V27.4218ZM196.5 26.2812L194.224 24V25.7109H190.226V26.8515H194.224V28.5624L196.5 26.2812Z" fill="white"/>
<path d="M32.725 31.9406C34.2224 30.4788 35.1494 28.4109 35.1494 26.1647C35.1851 21.6723 31.4058 18 26.9134 18H18C18 20.9236 20.3531 23.3124 23.3124 23.3124H24.9525C24.9881 23.3124 25.0594 23.2767 25.0594 23.2054V22.2784C25.0594 22.2071 25.1664 22.1358 25.2377 22.2071L29.1596 26.129L26.3073 28.9457L25.2377 30.0153C25.1664 30.0866 25.0594 30.0153 25.0594 29.944V29.0526C25.0594 28.9813 25.0238 28.9457 24.9525 28.9457H18.107C18.0357 28.9813 18 29.017 18 29.0526V31.5127C18 33.7589 19.8183 35.5772 22.0645 35.5772H24.9525C24.9881 35.5772 25.0594 35.5416 25.0594 35.4703V33.9015C25.0594 33.2241 25.6299 32.6536 26.3073 32.6536C26.7351 32.6536 27.1273 32.8676 27.3769 33.2598L29.6944 37.0747C30.4431 38.2869 31.7623 39 33.1528 39H37.0747L32.725 31.9406Z" fill="url(#paint0_linear_797_32217)"/>
<path d="M40.3549 34.0082V24.8809H42.4941V26.6636C42.815 25.38 43.9202 24.7739 44.9185 24.7739C45.2394 24.7739 45.5246 24.8096 45.7742 24.8452V26.8062C45.4533 26.7705 45.2751 26.7705 44.9185 26.7705C43.4211 26.7705 42.4941 27.9114 42.4941 29.9794V34.0439H40.3549V34.0082Z" fill="black"/>
<path d="M55.4722 30.1577H48.6623C48.7336 31.6195 49.6606 32.4038 51.2294 32.4038C52.299 32.4038 52.9051 32.083 53.2617 31.3699H55.4365C55.1513 33.0813 53.4399 34.2935 51.2294 34.2935C48.3415 34.2935 46.5588 32.4395 46.5588 29.4802C46.5588 26.521 48.3771 24.667 51.1581 24.667C53.7608 24.667 55.5435 26.4497 55.5435 29.0167C55.5078 29.3376 55.5078 29.6228 55.4722 30.1577ZM53.4399 28.5176C53.4043 27.0914 52.5842 26.3071 51.1224 26.3071C49.6606 26.3071 48.698 27.1984 48.698 28.5176H53.4399Z" fill="black"/>
<path d="M60.4278 23.4906V24.8811H62.8166V26.6638H60.4278V34.0441H58.2886V26.6638H56.4346V24.8811H58.2886V23.5263C58.2886 20.567 60.4278 20.1392 61.3905 20.1392C62.0679 20.1392 62.5314 20.2105 62.8166 20.3174V22.1358C62.5314 22.1001 62.2818 22.0645 61.9609 22.0645C61.3192 22.0645 60.4278 22.1714 60.4278 23.4906Z" fill="black"/>
<path d="M64.4925 34.0082V24.8809H66.6317V26.6636C66.9526 25.38 68.0579 24.7739 69.0562 24.7739C69.377 24.7739 69.6623 24.8096 69.9119 24.8452V26.8062C69.591 26.7705 69.4127 26.7705 69.0562 26.7705C67.5587 26.7705 66.6317 27.9114 66.6317 29.9794V34.0439H64.4925V34.0082Z" fill="black"/>
<path d="M79.6095 30.1577H72.7996C72.8709 31.6195 73.7979 32.4038 75.3667 32.4038C76.4363 32.4038 77.0424 32.083 77.3989 31.3699H79.5738C79.2886 33.0813 77.5772 34.2935 75.3667 34.2935C72.4787 34.2935 70.696 32.4395 70.696 29.4802C70.696 26.521 72.5144 24.667 75.2954 24.667C77.8981 24.667 79.6808 26.4497 79.6808 29.0167C79.6451 29.3376 79.6451 29.6228 79.6095 30.1577ZM77.5772 28.5176C77.5415 27.0914 76.7215 26.3071 75.2597 26.3071C73.7979 26.3071 72.8353 27.1984 72.8353 28.5176H77.5772Z" fill="black"/>
<path d="M81.0356 31.1916H83.1748C83.1748 31.976 83.9235 32.5464 85.0288 32.5464C85.8488 32.5464 86.348 32.1186 86.348 31.4768C86.348 30.9777 86.1341 30.6568 85.1358 30.4072L83.3174 29.9081C82.0339 29.5515 81.3208 28.6245 81.3208 27.341C81.3208 25.7723 82.7826 24.667 84.8505 24.667C87.0967 24.667 88.4515 25.7366 88.4515 27.5193H86.348C86.348 26.7349 85.7775 26.3071 84.7436 26.3071C83.9948 26.3071 83.4244 26.6993 83.4244 27.2341C83.4244 27.7332 83.7096 28.0541 84.5653 28.3037L86.3836 28.8385C87.6672 29.195 88.4872 30.1577 88.4872 31.4412C88.4872 33.2239 87.0967 34.2935 84.8862 34.2935C82.6757 34.2935 81.0356 32.9386 81.0356 31.1916Z" fill="black"/>
<path d="M99.1479 28.2686V34.0089H97.0086V29.2313C97.0086 27.2703 96.5095 26.4503 95.012 26.4503C93.6215 26.4503 92.8372 27.3773 92.8372 28.9817V34.0089H90.6979V20.2822H92.8372V26.1651C93.4076 25.1668 94.4772 24.6676 95.8321 24.6676C98.0069 24.632 99.1479 25.8798 99.1479 28.2686Z" fill="black"/>
<path d="M110.058 30.1577H103.248C103.319 31.6195 104.246 32.4038 105.815 32.4038C106.885 32.4038 107.491 32.083 107.847 31.3699H110.022C109.737 33.0813 108.025 34.2935 105.815 34.2935C102.927 34.2935 101.144 32.4395 101.144 29.4802C101.144 26.521 102.963 24.667 105.744 24.667C108.346 24.667 110.129 26.4497 110.129 29.0167C110.093 29.3376 110.093 29.6228 110.058 30.1577ZM107.99 28.5176C107.954 27.0914 107.134 26.3071 105.672 26.3071C104.211 26.3071 103.248 27.1984 103.248 28.5176H107.99Z" fill="black"/>
<path d="M118.9 20.2822H121.039V34.0445H118.9V32.7967C118.329 33.7237 117.082 34.2585 115.941 34.2585C112.981 34.2585 111.448 32.1192 111.448 29.4452C111.448 26.7712 113.195 24.632 116.048 24.632C117.26 24.632 118.365 25.1668 118.936 26.0938L118.9 20.2822ZM119.007 29.4452C119.007 27.8765 118.116 26.5216 116.297 26.5216C114.621 26.5216 113.623 27.7695 113.623 29.4452C113.623 31.1209 114.621 32.3688 116.297 32.3688C118.116 32.3332 119.007 31.014 119.007 29.4452Z" fill="black"/>
<path d="M127.742 33.2957V34.0088C127.528 34.0801 127.136 34.1158 126.815 34.1158C126.102 34.1158 125.139 33.9375 125.139 32.1548V26.3076H125.924V28.2329H127.528V28.946H125.924V31.9765C125.924 33.1888 126.351 33.3314 126.957 33.3314C127.171 33.367 127.528 33.3314 127.742 33.2957Z" fill="black"/>
<path d="M133.696 31.3343H129.025C129.025 32.6535 129.81 33.4735 131.058 33.4735C131.949 33.4735 132.555 33.0814 132.84 32.4039H133.66C133.446 33.4735 132.377 34.1866 131.058 34.1866C129.311 34.1866 128.205 32.9744 128.205 31.1204C128.205 29.2664 129.346 28.0898 131.022 28.0898C132.698 28.0898 133.732 29.1951 133.732 30.7639C133.696 31.0134 133.696 31.1204 133.696 31.3343ZM132.912 30.6926C132.912 29.5516 132.198 28.7673 130.986 28.7673C129.774 28.7673 129.061 29.5516 128.99 30.6926H132.912Z" fill="black"/>
<path d="M134.409 31.1565C134.409 29.3739 135.514 28.126 137.297 28.126C138.83 28.126 139.828 28.946 139.971 30.2295H139.151C139.008 29.3382 138.331 28.8747 137.297 28.8747C136.014 28.8747 135.229 29.766 135.229 31.1922C135.229 32.6183 136.014 33.5097 137.297 33.5097C138.331 33.5097 139.008 33.0105 139.151 32.1548H139.971C139.828 33.4027 138.83 34.2228 137.297 34.2228C135.514 34.1871 134.409 32.9392 134.409 31.1565Z" fill="black"/>
<path d="M146.353 30.5504V34.0445H145.533V30.8713C145.533 29.5164 144.998 28.8034 143.893 28.8034C142.61 28.8034 142.003 29.7304 142.003 31.0852V34.0445H141.183V26.3076H142.003V29.5521C142.289 28.6964 143.002 28.0903 144.178 28.0903C145.604 28.0903 146.353 28.9816 146.353 30.5504Z" fill="black"/>
<path d="M248.149 17H248.616C248.999 17.0139 249.38 17.0437 249.76 17.0893C251.678 17.3193 253.422 17.9913 254.992 19.1054C255.95 19.7851 256.771 20.5793 257.455 21.4879C258.896 23.4016 259.668 25.5582 259.771 27.9577C259.784 28.254 259.783 28.5501 259.769 28.8459C259.66 31.1192 258.947 33.1755 257.631 35.0146C257.46 35.2538 257.277 35.4865 257.082 35.7127C255.237 37.8525 252.893 39.1539 250.049 39.6166C250.026 39.6124 250.018 39.597 250.027 39.5704C250.246 38.9108 250.469 38.2521 250.694 37.5942C250.714 37.5374 250.728 37.5047 250.738 37.4961C252.405 37.0491 253.844 36.2287 255.054 35.035C255.266 34.8254 255.467 34.6074 255.655 34.3809C256.702 33.1223 257.375 31.6766 257.673 30.0435C257.851 29.0669 257.872 28.0866 257.736 27.1028C257.497 25.3703 256.833 23.8229 255.745 22.4604C255.734 22.4501 255.732 22.4406 255.737 22.432C255.741 22.4249 255.744 22.4191 255.744 22.4191C255.972 21.7494 256.198 21.079 256.423 20.4079C256.44 20.3581 256.43 20.3518 256.392 20.3888C251.837 24.9258 247.279 29.4683 242.721 34.0163C242.571 34.1655 242.362 34.3757 242.094 34.6469C241.511 35.2366 240.922 35.82 240.326 36.397C239.721 35.8123 239.195 35.1632 238.749 34.4497C237.676 32.7341 237.093 30.8615 237 28.8321V27.8662C237.16 25.1286 238.15 22.7454 239.968 20.7165C240.5 20.1229 241.09 19.5946 241.74 19.1316C243.042 18.2029 244.458 17.5775 245.988 17.2553C246.652 17.1156 247.373 17.0305 248.149 17ZM242.8 20.744C242.469 20.9824 242.128 21.2747 241.775 21.6211C240.528 22.8447 239.68 24.3097 239.229 26.0162C239.223 26.041 239.232 26.0493 239.257 26.041L254.291 21.0327C254.306 21.0277 254.308 21.0201 254.295 21.01C252.672 19.7314 250.834 19.0426 248.781 18.9437C248.482 18.9295 248.186 18.9301 247.891 18.9455C246.021 19.0438 244.324 19.6433 242.8 20.744Z" fill="#632CFF"/>
<path d="M255.744 22.4586C255.726 22.471 255.715 22.4872 255.712 22.507C255.708 22.5304 255.706 22.5434 255.705 22.5461C254.049 27.5124 252.394 32.4788 250.739 37.4454C250.739 37.4478 250.735 37.4545 250.729 37.4654C250.723 37.477 250.726 37.4866 250.738 37.4943C250.728 37.5029 250.713 37.5356 250.694 37.5924C250.469 38.2502 250.246 38.909 250.027 39.5686C250.018 39.5952 250.026 39.6106 250.049 39.6148L249.011 39.7351H248.055C245.032 39.6096 242.456 38.4963 240.326 36.3952C240.921 35.8182 241.511 35.2348 242.094 34.6451C242.362 34.3739 242.571 34.1637 242.721 34.0145C247.279 29.4665 251.837 24.924 256.392 20.387C256.429 20.35 256.44 20.3563 256.423 20.4061C256.198 21.0772 255.972 21.7476 255.744 22.4173C255.744 22.4173 255.741 22.4231 255.737 22.4302C255.732 22.4388 255.734 22.4482 255.744 22.4586Z" fill="#30177F"/>
<path d="M281.165 21.6195C281.414 21.4434 281.689 21.3821 281.988 21.4357C282.231 21.4795 282.437 21.5833 282.606 21.747C282.793 21.9296 282.893 22.1538 282.904 22.4193C282.915 22.6917 282.843 22.9293 282.688 23.1321C282.522 23.3476 282.288 23.4792 281.984 23.5269C281.751 23.5633 281.523 23.5291 281.3 23.4243C280.945 23.2573 280.752 22.9704 280.719 22.5636C280.703 22.3617 280.734 22.1798 280.812 22.0179C280.885 21.8669 281.003 21.7341 281.165 21.6195Z" fill="#1E1E4C"/>
<path fill-rule="evenodd" clip-rule="evenodd" d="M322.13 31.4267C321.922 31.7281 321.652 31.9766 321.319 32.1723C321.032 32.3408 320.728 32.4438 320.408 32.4814C320.122 32.5152 319.827 32.5026 319.522 32.4437C318.938 32.3312 318.468 32.0311 318.111 31.5435C317.849 31.1841 317.659 30.775 317.541 30.3161C317.476 30.0671 317.426 29.7753 317.391 29.4408C317.33 28.8741 317.342 28.3065 317.427 27.7377C317.536 27.0118 317.801 26.38 318.223 25.8424C318.554 25.4202 318.976 25.1348 319.487 24.9862C319.774 24.9033 320.067 24.8679 320.367 24.8801C321.003 24.9064 321.561 25.1516 322.039 25.6155C322.068 25.6439 322.083 25.6377 322.083 25.5968L322.08 22.0198C322.08 22.0173 322.081 22.0148 322.082 22.0125V22.0114L322.083 22.0095L322.086 22.0065C322.088 22.0048 322.09 22.0036 322.093 22.0028L322.096 22.0021L322.1 22.002L323.81 22.1858C323.816 22.1865 323.821 22.189 323.824 22.193C323.828 22.1969 323.83 22.2019 323.83 22.2072C323.842 23.3911 323.843 24.5751 323.834 25.7594C323.831 26.0619 323.831 26.358 323.833 26.6475C323.843 28.039 323.842 29.4304 323.83 30.8219C323.83 30.8876 323.833 31.1336 323.84 31.5599C323.844 31.7986 323.839 32.0372 323.825 32.2758C323.825 32.2781 323.825 32.2804 323.824 32.2825L323.822 32.2874C323.822 32.2874 323.82 32.2905 323.818 32.2919C323.814 32.2961 323.808 32.2984 323.802 32.2984L322.317 32.3011C322.308 32.3011 322.299 32.2978 322.293 32.2918C322.286 32.2858 322.282 32.2776 322.281 32.2687L322.167 31.4352C322.163 31.4002 322.15 31.3974 322.13 31.4267ZM319.819 30.9049C320.061 31.1024 320.352 31.1903 320.69 31.1687C321.12 31.1415 321.47 30.9758 321.738 30.6718C321.886 30.5039 321.996 30.3685 322.068 30.2654C322.076 30.2539 322.08 30.2399 322.08 30.2255V26.9881C322.08 26.9617 322.071 26.9361 322.054 26.9157C321.922 26.7544 321.766 26.6076 321.588 26.4752C321.29 26.2535 320.953 26.161 320.579 26.1977C320.146 26.2403 319.818 26.4459 319.595 26.8145C319.494 26.9818 319.419 27.1499 319.369 27.319C319.305 27.5342 319.26 27.7571 319.234 27.9878C319.212 28.1831 319.2 28.4092 319.197 28.6659C319.192 29.152 319.244 29.6332 319.353 30.1096C319.431 30.45 319.586 30.7151 319.819 30.9049Z" fill="#1E1E4C"/>
<path fill-rule="evenodd" clip-rule="evenodd" d="M275.342 25.8942C275.309 25.9348 275.293 25.9292 275.293 25.8774L275.298 22.0538C275.298 22.0498 275.297 22.0457 275.296 22.042C275.295 22.0403 275.294 22.0387 275.293 22.0372L275.291 22.0348L275.288 22.0321C275.285 22.0294 275.282 22.0273 275.278 22.0259C275.274 22.0246 275.27 22.0242 275.266 22.0245L273.57 22.1982C273.563 22.1989 273.556 22.2024 273.551 22.2078C273.546 22.2132 273.544 22.2202 273.544 22.2275V32.2624C273.544 32.2675 273.545 32.2726 273.547 32.2773C273.549 32.2821 273.551 32.2864 273.555 32.29C273.559 32.2936 273.563 32.2965 273.568 32.2985C273.57 32.2992 273.572 32.2999 273.574 32.3004L273.575 32.3007L273.578 32.3011L273.58 32.3014H273.581H273.583H275.259C275.27 32.3014 275.28 32.2974 275.287 32.2901C275.294 32.2829 275.299 32.2731 275.299 32.2628L275.301 27.2829C275.301 27.2684 275.305 27.2544 275.313 27.2425C275.459 27.0119 275.658 26.784 275.91 26.559C276.151 26.3444 276.417 26.2232 276.71 26.1953C276.913 26.1758 277.091 26.2005 277.241 26.2695C277.426 26.3545 277.551 26.5 277.615 26.706C277.681 26.9189 277.712 27.1732 277.708 27.469C277.705 27.6173 277.704 27.6934 277.704 27.6972V32.2655C277.704 32.268 277.704 32.2705 277.705 32.2729C277.705 32.2751 277.706 32.2772 277.707 32.2792C277.709 32.2836 277.711 32.2876 277.715 32.2909C277.718 32.2943 277.722 32.2969 277.726 32.2987C277.731 32.3005 277.735 32.3014 277.74 32.3014H279.421C279.425 32.3014 279.429 32.3007 279.432 32.2992C279.436 32.2977 279.439 32.2955 279.442 32.2927C279.444 32.2906 279.446 32.2883 279.447 32.2857L279.448 32.2831C279.45 32.2795 279.451 32.2756 279.451 32.2717C279.451 30.5522 279.451 28.8339 279.453 27.1168C279.453 26.784 279.414 26.4926 279.337 26.2424C279.083 25.4226 278.517 24.9712 277.637 24.888C277.152 24.8421 276.694 24.9284 276.262 25.1469C275.902 25.3292 275.595 25.5784 275.342 25.8942ZM275.269 32.2537L275.268 32.2499C275.268 32.2529 275.27 32.2551 275.273 32.2551H275.274C275.277 32.2551 275.279 32.2527 275.279 32.2497L275.278 32.2537L275.274 32.2551H275.273L275.269 32.2537Z" fill="#1E1E4C"/>
<path d="M267.225 30.926C267.353 30.7828 267.481 30.6433 267.61 30.5077C267.614 30.5031 267.62 30.5003 267.626 30.4998C267.633 30.4993 267.639 30.5012 267.644 30.5051C268.296 31.0137 269.039 31.2424 269.872 31.1912C270.027 31.1817 270.188 31.1364 270.355 31.0553C270.536 30.9673 270.665 30.8676 270.742 30.756C270.844 30.6097 270.884 30.4328 270.863 30.2253C270.842 30.0243 270.77 29.8622 270.645 29.739C270.57 29.6635 270.424 29.5812 270.207 29.4921C269.866 29.3521 269.503 29.2301 269.116 29.1262C268.783 29.0365 268.452 28.8993 268.125 28.7145C267.508 28.3664 267.167 27.86 267.1 27.1953C267.073 26.9235 267.093 26.6735 267.159 26.4453C267.231 26.1954 267.356 25.9706 267.534 25.7707C267.762 25.5131 268.041 25.3129 268.369 25.1699C268.616 25.0621 268.871 24.9857 269.133 24.9407C269.37 24.8999 269.634 24.8794 269.924 24.8794C270.835 24.88 271.664 25.1579 272.411 25.713C272.42 25.7195 272.426 25.7293 272.428 25.7403C272.43 25.7513 272.427 25.7627 272.421 25.772L271.782 26.7277C271.776 26.7379 271.765 26.7449 271.753 26.7474C271.741 26.7499 271.729 26.7476 271.718 26.741C271.352 26.506 270.959 26.3394 270.54 26.2414C270.188 26.1594 269.836 26.1562 269.484 26.2317C269.358 26.2583 269.244 26.3055 269.14 26.3733C269.03 26.4456 268.95 26.5356 268.901 26.6433C268.844 26.7695 268.831 26.9013 268.86 27.039C268.91 27.2729 269.054 27.4443 269.291 27.5533C269.625 27.7069 269.971 27.8284 270.328 27.9178C270.689 28.0084 271.039 28.1328 271.376 28.2909C271.589 28.3906 271.786 28.5122 271.969 28.6555C272.167 28.8115 272.319 28.9827 272.424 29.1693C272.527 29.3513 272.597 29.546 272.634 29.7532C272.668 29.943 272.68 30.1471 272.67 30.3656C272.644 30.9201 272.423 31.3795 272.006 31.7436C271.79 31.9316 271.538 32.0857 271.248 32.2059C270.999 32.3092 270.717 32.386 270.4 32.4364C269.776 32.5358 269.15 32.5148 268.523 32.3733C267.872 32.2268 267.291 31.9387 266.781 31.5091C266.773 31.502 266.768 31.4919 266.767 31.481C266.766 31.4701 266.769 31.4593 266.776 31.4509C266.932 31.2618 267.082 31.0868 267.225 30.926Z" fill="#1E1E4C"/>
<path fill-rule="evenodd" clip-rule="evenodd" d="M286.003 35.0448L286.006 31.7715C286.006 31.736 286.018 31.7311 286.043 31.7568C286.371 32.0997 286.748 32.3229 287.177 32.4265C287.456 32.4943 287.751 32.5173 288.061 32.4954C288.457 32.4678 288.819 32.3504 289.149 32.1432C289.733 31.7755 290.141 31.2465 290.374 30.5561C290.568 29.9811 290.669 29.3933 290.676 28.7926C290.679 28.4877 290.667 28.1921 290.64 27.9058C290.612 27.6183 290.561 27.3146 290.486 26.9945C290.371 26.5004 290.168 26.0671 289.878 25.6947C289.723 25.4955 289.542 25.3357 289.337 25.2155C289.019 25.0287 288.675 24.9199 288.305 24.8891C288.03 24.866 287.764 24.8786 287.509 24.9269C287.243 24.9772 286.991 25.0717 286.752 25.2102C286.442 25.3896 286.162 25.6303 285.912 25.9323C285.891 25.9577 285.879 25.954 285.875 25.9212L285.788 25.1125C285.787 25.1057 285.784 25.0993 285.779 25.0947C285.774 25.0902 285.767 25.0876 285.761 25.0876H284.282C284.276 25.0876 284.27 25.09 284.266 25.0941C284.262 25.0983 284.259 25.104 284.259 25.1098L284.257 35.2362C284.257 35.2397 284.257 35.2432 284.259 35.2464C284.26 35.2497 284.262 35.2526 284.265 35.255C284.268 35.2573 284.271 35.2591 284.274 35.2603C284.277 35.2614 284.281 35.2618 284.285 35.2615L285.974 35.0777C285.982 35.0768 285.989 35.073 285.995 35.0669C286 35.0609 286.003 35.053 286.003 35.0448ZM287.564 31.1445C287.1 31.2211 286.678 31.0938 286.299 30.7626C286.209 30.6841 286.121 30.5775 286.034 30.4428C286.014 30.4121 286.003 30.3762 286.003 30.3393V27.2197C286.003 27.1936 286.011 27.168 286.025 27.146C286.223 26.8318 286.47 26.5839 286.765 26.4021C287.067 26.2162 287.381 26.1517 287.709 26.2085C287.911 26.2437 288.087 26.3246 288.235 26.451C288.387 26.5812 288.503 26.7441 288.583 26.9395C288.673 27.1612 288.735 27.3906 288.769 27.6278C288.852 28.2181 288.864 28.8101 288.805 29.4037C288.775 29.7142 288.702 30.0144 288.588 30.3043C288.497 30.5352 288.361 30.725 288.181 30.8736C288.011 31.0142 287.805 31.1045 287.564 31.1445Z" fill="#1E1E4C"/>
<path d="M293.488 25.9621C293.495 26.0109 293.513 26.0157 293.542 25.9763C293.733 25.7107 293.958 25.4893 294.216 25.312C294.623 25.0319 295.064 24.8871 295.539 24.8776C295.856 24.8714 296.144 24.9289 296.403 25.0499C296.826 25.2471 297.134 25.5806 297.328 26.0505C297.34 26.078 297.355 26.0798 297.372 26.0558C297.549 25.8139 297.752 25.6008 297.983 25.4163C298.23 25.2194 298.484 25.0779 298.746 24.9918C299.053 24.8914 299.374 24.8547 299.709 24.8816C300.187 24.9201 300.572 25.0997 300.863 25.4203C301.088 25.6678 301.24 25.9408 301.322 26.2392C301.399 26.5228 301.438 26.8337 301.437 27.1718C301.434 28.8628 301.433 30.5623 301.433 32.2703C301.433 32.2784 301.43 32.2862 301.424 32.2919C301.418 32.2977 301.41 32.3009 301.402 32.3009H299.712C299.705 32.3009 299.699 32.2982 299.694 32.2933C299.689 32.2885 299.686 32.282 299.686 32.2751C299.692 30.6371 299.689 29.0082 299.677 27.3885C299.676 27.1872 299.668 27.0433 299.653 26.9568C299.628 26.8055 299.582 26.6671 299.517 26.5416C299.412 26.34 299.238 26.2244 298.997 26.1948C298.827 26.1741 298.66 26.1942 298.497 26.2552C298.363 26.3052 298.228 26.3958 298.092 26.527C297.874 26.7351 297.691 26.9753 297.541 27.2477C297.531 27.2664 297.526 27.2857 297.526 27.3059V32.2765C297.526 32.2797 297.525 32.2829 297.524 32.2858L297.523 32.2876L297.522 32.2893L297.52 32.2924L297.518 32.2937L297.515 32.2963L297.513 32.2981L297.51 32.299C297.51 32.299 297.507 32.3002 297.505 32.3005L297.501 32.3009H295.8C295.796 32.3009 295.792 32.3001 295.789 32.2987C295.785 32.2972 295.782 32.295 295.779 32.2923C295.776 32.2896 295.774 32.2864 295.773 32.2828L295.771 32.2778C295.771 32.2758 295.771 32.2737 295.771 32.2716V27.527C295.771 27.3071 295.757 27.1117 295.73 26.9408C295.694 26.7158 295.629 26.5465 295.535 26.4328C295.409 26.2812 295.231 26.1991 295 26.1863C294.936 26.1828 294.848 26.192 294.735 26.2139C294.641 26.2319 294.558 26.2605 294.485 26.2996C294.258 26.4219 294.058 26.6044 293.888 26.8471C293.752 27.0396 293.661 27.1747 293.613 27.2526C293.605 27.2648 293.601 27.2789 293.601 27.2934V32.2569C293.601 32.2627 293.6 32.2684 293.598 32.2738L293.595 32.2787C293.594 32.2821 293.591 32.2852 293.588 32.288C293.586 32.2904 293.583 32.2925 293.58 32.2943C293.578 32.2955 293.576 32.2966 293.574 32.2975C293.569 32.2998 293.563 32.3009 293.557 32.3009H291.877C291.874 32.3009 291.871 32.3003 291.868 32.2992C291.866 32.2981 291.863 32.2965 291.861 32.2944C291.859 32.2923 291.858 32.2899 291.856 32.2872C291.855 32.2845 291.855 32.2816 291.855 32.2787V25.1219C291.855 25.112 291.859 25.1025 291.866 25.0955C291.873 25.0885 291.882 25.0846 291.892 25.0846H293.322C293.333 25.0845 293.344 25.0884 293.353 25.0955C293.361 25.1026 293.367 25.1125 293.368 25.1232L293.488 25.9621Z" fill="#1E1E4C"/>
<path fill-rule="evenodd" clip-rule="evenodd" d="M302.774 30.5398C302.915 30.8989 303.115 31.2214 303.374 31.5074C303.564 31.7176 303.771 31.8889 303.994 32.0212C304.476 32.3063 305.006 32.4638 305.583 32.4937C305.976 32.5139 306.335 32.4896 306.659 32.4209C307.442 32.2542 308.062 31.8603 308.521 31.2392C308.688 31.0127 308.828 30.7529 308.94 30.4598C309.139 29.9382 309.244 29.379 309.254 28.7821C309.263 28.24 309.2 27.7267 309.066 27.242C308.98 26.9297 308.868 26.6563 308.731 26.4218C308.539 26.0929 308.292 25.8051 307.99 25.5585C307.625 25.2598 307.197 25.0613 306.706 24.963C306.053 24.8325 305.423 24.8521 304.816 25.0221C304.519 25.1053 304.249 25.2241 304.005 25.3787C303.47 25.7174 303.078 26.1829 302.826 26.7753C302.545 27.4385 302.421 28.1363 302.454 28.8687C302.468 29.1748 302.497 29.457 302.542 29.7151C302.591 29.9967 302.669 30.2716 302.774 30.5398ZM305.692 31.1722C305.429 31.1517 305.189 31.0573 304.972 30.8888C304.779 30.7393 304.638 30.5509 304.549 30.3235C304.481 30.1509 304.431 29.9736 304.398 29.7915C304.341 29.4839 304.31 29.1747 304.302 28.8638C304.295 28.59 304.3 28.3506 304.317 28.1457C304.336 27.9139 304.375 27.6774 304.434 27.4361C304.509 27.1294 304.641 26.861 304.829 26.631C305.029 26.3859 305.31 26.2466 305.672 26.2131C306.398 26.1459 306.894 26.4369 307.16 27.0862C307.26 27.3328 307.329 27.5966 307.366 27.8775C307.394 28.0987 307.41 28.3688 307.411 28.688C307.414 29.0397 307.385 29.3847 307.326 29.7231C307.291 29.9283 307.226 30.1336 307.132 30.3391C307.016 30.5925 306.867 30.7883 306.686 30.9266C306.539 31.0382 306.38 31.1113 306.207 31.146C306.048 31.1776 305.876 31.1864 305.692 31.1722Z" fill="#1E1E4C"/>
<path d="M311.992 25.9947C311.996 26.0196 312.005 26.0224 312.02 26.0032C312.142 25.8501 312.275 25.7076 312.417 25.5755C312.567 25.437 312.723 25.3218 312.883 25.23C313.29 24.9973 313.727 24.8794 314.194 24.8761C314.519 24.8737 314.81 24.9227 315.066 25.0231C315.511 25.1966 315.838 25.5138 316.048 25.9748C316.15 26.1983 316.213 26.4564 316.24 26.7492C316.261 26.9793 316.27 27.353 316.269 27.8705C316.264 29.3286 316.262 30.7905 316.262 32.2563C316.262 32.262 316.261 32.2678 316.259 32.2731C316.257 32.2784 316.253 32.2833 316.249 32.2874C316.245 32.2914 316.24 32.2947 316.235 32.2969C316.23 32.2991 316.224 32.3002 316.218 32.3002H314.535C314.527 32.3002 314.519 32.297 314.513 32.2913C314.508 32.2855 314.504 32.2777 314.504 32.2696C314.504 30.5916 314.504 28.9217 314.502 27.2599C314.502 27.1442 314.492 27.0293 314.472 26.9153C314.382 26.3907 314.063 26.1503 313.514 26.1941C313.263 26.2143 313.042 26.2972 312.851 26.4428C312.573 26.6539 312.332 26.9215 312.126 27.2457C312.11 27.2712 312.101 27.301 312.101 27.3314L312.099 32.2691C312.099 32.2774 312.095 32.2853 312.09 32.2911C312.084 32.297 312.076 32.3002 312.067 32.3002H310.394H310.393L310.391 32.3001C310.389 32.3 310.388 32.2998 310.386 32.2994C310.384 32.2989 310.381 32.2982 310.379 32.2973C310.377 32.2963 310.375 32.2952 310.373 32.2939C310.37 32.2925 310.368 32.2907 310.366 32.2888C310.363 32.2852 310.36 32.2809 310.358 32.2761C310.356 32.2714 310.355 32.2663 310.355 32.2612V25.1199C310.355 25.1104 310.359 25.1012 310.365 25.0945C310.372 25.0877 310.381 25.0839 310.391 25.0839H311.821C311.833 25.084 311.844 25.0881 311.854 25.0957C311.863 25.1033 311.868 25.1138 311.87 25.1252L311.992 25.9947Z" fill="#1E1E4C"/>
<path fill-rule="evenodd" clip-rule="evenodd" d="M327.565 24.9505C326.839 25.0864 326.243 25.4315 325.775 25.9857C325.611 26.1805 325.469 26.4082 325.348 26.6687C325.129 27.1406 324.997 27.6226 324.952 28.1146C324.92 28.4583 324.919 28.8321 324.95 29.2359C324.995 29.8108 325.142 30.343 325.391 30.8324C325.786 31.6069 326.403 32.1127 327.244 32.3498C327.684 32.4739 328.131 32.5192 328.588 32.4857C329.788 32.3981 330.661 31.8653 331.206 30.8874C331.344 30.6399 331.455 30.3662 331.541 30.0663C331.655 29.6682 331.716 29.2617 331.725 28.8469C331.731 28.5449 331.718 28.2493 331.686 27.9601C331.629 27.4506 331.489 26.9775 331.267 26.5408C330.987 25.9925 330.58 25.5706 330.045 25.2752C329.794 25.1372 329.517 25.0351 329.213 24.9687C328.675 24.8515 328.125 24.8454 327.565 24.9505ZM328.065 31.1637C327.812 31.1305 327.588 31.0291 327.395 30.8595C327.156 30.6493 326.995 30.3683 326.913 30.0166C326.795 29.505 326.746 28.9883 326.767 28.4663C326.777 28.2345 326.791 28.0447 326.811 27.897C326.835 27.7167 326.875 27.5302 326.931 27.3375C326.984 27.1515 327.051 26.9902 327.133 26.8534C327.297 26.5763 327.517 26.3876 327.793 26.2872C328.051 26.1928 328.325 26.1685 328.614 26.2144C328.963 26.2698 329.243 26.4526 329.453 26.7628C329.592 26.9683 329.694 27.202 329.759 27.464C329.804 27.6476 329.839 27.8973 329.864 28.2132C329.908 28.7636 329.88 29.2969 329.779 29.8132C329.73 30.0616 329.628 30.3125 329.473 30.5659C329.299 30.849 329.066 31.0322 328.774 31.1157C328.549 31.1802 328.313 31.1962 328.065 31.1637Z" fill="#1E1E4C"/>
<path d="M282.676 25.0845H280.953C280.947 25.0845 280.941 25.0899 280.941 25.0965V32.2888C280.941 32.2955 280.947 32.3008 280.953 32.3008H282.676C282.683 32.3008 282.688 32.2955 282.688 32.2888V25.0965C282.688 25.0899 282.683 25.0845 282.676 25.0845Z" fill="#1E1E4C"/>
<defs>
<linearGradient id="paint0_linear_797_32217" x1="14.2532" y1="37.2892" x2="39.8953" y2="20.3751" gradientUnits="userSpaceOnUse">
<stop stop-color="#75FBD4"/>
<stop offset="1" stop-color="#48CAE1"/>
</linearGradient>
</defs>
</svg>
