<svg width="380" height="57" viewBox="0 0 380 57" fill="none" xmlns="http://www.w3.org/2000/svg">
<path d="M152.297 28H226.722" stroke="#B0B0B0" stroke-width="0.57031" stroke-dasharray="3.42 3.42"/>
<path d="M200.773 28.4062C200.773 22.1067 195.667 17 189.367 17C183.068 17 177.961 22.1067 177.961 28.4062C177.961 34.7057 183.068 39.8124 189.367 39.8124C195.667 39.8124 200.773 34.7057 200.773 28.4062Z" fill="#3EA76A"/>
<path d="M186.51 27.4218L184.234 29.7031L186.51 31.9843V30.2734H190.508V29.1328H186.51V27.4218ZM194.5 26.2812L192.224 24V25.7109H188.226V26.8515H192.224V28.5624L194.5 26.2812Z" fill="white"/>
<path d="M30.725 31.9406C32.2224 30.4788 33.1494 28.4109 33.1494 26.1647C33.1851 21.6723 29.4058 18 24.9134 18H16C16 20.9236 18.3531 23.3124 21.3124 23.3124H22.9525C22.9881 23.3124 23.0594 23.2767 23.0594 23.2054V22.2784C23.0594 22.2071 23.1664 22.1358 23.2377 22.2071L27.1596 26.129L24.3073 28.9457L23.2377 30.0153C23.1664 30.0866 23.0594 30.0153 23.0594 29.944V29.0526C23.0594 28.9813 23.0238 28.9457 22.9525 28.9457H16.107C16.0357 28.9813 16 29.017 16 29.0526V31.5127C16 33.7589 17.8183 35.5772 20.0645 35.5772H22.9525C22.9881 35.5772 23.0594 35.5416 23.0594 35.4703V33.9015C23.0594 33.2241 23.6299 32.6536 24.3073 32.6536C24.7351 32.6536 25.1273 32.8676 25.3769 33.2598L27.6944 37.0747C28.4431 38.2869 29.7623 39 31.1528 39H35.0747L30.725 31.9406Z" fill="url(#paint0_linear_797_31939)"/>
<path d="M38.3549 34.0082V24.8809H40.4941V26.6636C40.815 25.38 41.9202 24.7739 42.9185 24.7739C43.2394 24.7739 43.5246 24.8096 43.7742 24.8452V26.8062C43.4533 26.7705 43.2751 26.7705 42.9185 26.7705C41.4211 26.7705 40.4941 27.9114 40.4941 29.9794V34.0439H38.3549V34.0082Z" fill="black"/>
<path d="M53.4722 30.1577H46.6623C46.7336 31.6195 47.6606 32.4038 49.2294 32.4038C50.299 32.4038 50.9051 32.083 51.2617 31.3699H53.4365C53.1513 33.0813 51.4399 34.2935 49.2294 34.2935C46.3415 34.2935 44.5588 32.4395 44.5588 29.4802C44.5588 26.521 46.3771 24.667 49.1581 24.667C51.7608 24.667 53.5435 26.4497 53.5435 29.0167C53.5078 29.3376 53.5078 29.6228 53.4722 30.1577ZM51.4399 28.5176C51.4043 27.0914 50.5842 26.3071 49.1224 26.3071C47.6606 26.3071 46.698 27.1984 46.698 28.5176H51.4399Z" fill="black"/>
<path d="M58.4278 23.4906V24.8811H60.8166V26.6638H58.4278V34.0441H56.2886V26.6638H54.4346V24.8811H56.2886V23.5263C56.2886 20.567 58.4278 20.1392 59.3905 20.1392C60.0679 20.1392 60.5314 20.2105 60.8166 20.3174V22.1358C60.5314 22.1001 60.2818 22.0645 59.9609 22.0645C59.3192 22.0645 58.4278 22.1714 58.4278 23.4906Z" fill="black"/>
<path d="M62.4925 34.0082V24.8809H64.6317V26.6636C64.9526 25.38 66.0579 24.7739 67.0562 24.7739C67.377 24.7739 67.6623 24.8096 67.9119 24.8452V26.8062C67.591 26.7705 67.4127 26.7705 67.0562 26.7705C65.5587 26.7705 64.6317 27.9114 64.6317 29.9794V34.0439H62.4925V34.0082Z" fill="black"/>
<path d="M77.6095 30.1577H70.7996C70.8709 31.6195 71.7979 32.4038 73.3667 32.4038C74.4363 32.4038 75.0424 32.083 75.3989 31.3699H77.5738C77.2886 33.0813 75.5772 34.2935 73.3667 34.2935C70.4787 34.2935 68.696 32.4395 68.696 29.4802C68.696 26.521 70.5144 24.667 73.2954 24.667C75.8981 24.667 77.6808 26.4497 77.6808 29.0167C77.6451 29.3376 77.6451 29.6228 77.6095 30.1577ZM75.5772 28.5176C75.5415 27.0914 74.7215 26.3071 73.2597 26.3071C71.7979 26.3071 70.8353 27.1984 70.8353 28.5176H75.5772Z" fill="black"/>
<path d="M79.0356 31.1916H81.1748C81.1748 31.976 81.9235 32.5464 83.0288 32.5464C83.8488 32.5464 84.348 32.1186 84.348 31.4768C84.348 30.9777 84.1341 30.6568 83.1358 30.4072L81.3174 29.9081C80.0339 29.5515 79.3208 28.6245 79.3208 27.341C79.3208 25.7723 80.7826 24.667 82.8505 24.667C85.0967 24.667 86.4515 25.7366 86.4515 27.5193H84.348C84.348 26.7349 83.7775 26.3071 82.7436 26.3071C81.9948 26.3071 81.4244 26.6993 81.4244 27.2341C81.4244 27.7332 81.7096 28.0541 82.5653 28.3037L84.3836 28.8385C85.6672 29.195 86.4872 30.1577 86.4872 31.4412C86.4872 33.2239 85.0967 34.2935 82.8862 34.2935C80.6757 34.2935 79.0356 32.9386 79.0356 31.1916Z" fill="black"/>
<path d="M97.1479 28.2686V34.0089H95.0086V29.2313C95.0086 27.2703 94.5095 26.4503 93.012 26.4503C91.6215 26.4503 90.8372 27.3773 90.8372 28.9817V34.0089H88.6979V20.2822H90.8372V26.1651C91.4076 25.1668 92.4772 24.6676 93.8321 24.6676C96.0069 24.632 97.1479 25.8798 97.1479 28.2686Z" fill="black"/>
<path d="M108.058 30.1577H101.248C101.319 31.6195 102.246 32.4038 103.815 32.4038C104.885 32.4038 105.491 32.083 105.847 31.3699H108.022C107.737 33.0813 106.025 34.2935 103.815 34.2935C100.927 34.2935 99.1443 32.4395 99.1443 29.4802C99.1443 26.521 100.963 24.667 103.744 24.667C106.346 24.667 108.129 26.4497 108.129 29.0167C108.093 29.3376 108.093 29.6228 108.058 30.1577ZM105.99 28.5176C105.954 27.0914 105.134 26.3071 103.672 26.3071C102.211 26.3071 101.248 27.1984 101.248 28.5176H105.99Z" fill="black"/>
<path d="M116.9 20.2822H119.039V34.0445H116.9V32.7967C116.329 33.7237 115.082 34.2585 113.941 34.2585C110.981 34.2585 109.448 32.1192 109.448 29.4452C109.448 26.7712 111.195 24.632 114.048 24.632C115.26 24.632 116.365 25.1668 116.936 26.0938L116.9 20.2822ZM117.007 29.4452C117.007 27.8765 116.116 26.5216 114.297 26.5216C112.621 26.5216 111.623 27.7695 111.623 29.4452C111.623 31.1209 112.621 32.3688 114.297 32.3688C116.116 32.3332 117.007 31.014 117.007 29.4452Z" fill="black"/>
<path d="M125.742 33.2957V34.0088C125.528 34.0801 125.136 34.1158 124.815 34.1158C124.102 34.1158 123.139 33.9375 123.139 32.1548V26.3076H123.924V28.2329H125.528V28.946H123.924V31.9765C123.924 33.1888 124.351 33.3314 124.957 33.3314C125.171 33.367 125.528 33.3314 125.742 33.2957Z" fill="black"/>
<path d="M131.696 31.3343H127.025C127.025 32.6535 127.81 33.4735 129.058 33.4735C129.949 33.4735 130.555 33.0814 130.84 32.4039H131.66C131.446 33.4735 130.377 34.1866 129.058 34.1866C127.311 34.1866 126.205 32.9744 126.205 31.1204C126.205 29.2664 127.346 28.0898 129.022 28.0898C130.698 28.0898 131.732 29.1951 131.732 30.7639C131.696 31.0134 131.696 31.1204 131.696 31.3343ZM130.912 30.6926C130.912 29.5516 130.198 28.7673 128.986 28.7673C127.774 28.7673 127.061 29.5516 126.99 30.6926H130.912Z" fill="black"/>
<path d="M132.409 31.1565C132.409 29.3739 133.514 28.126 135.297 28.126C136.83 28.126 137.828 28.946 137.971 30.2295H137.151C137.008 29.3382 136.331 28.8747 135.297 28.8747C134.014 28.8747 133.229 29.766 133.229 31.1922C133.229 32.6183 134.014 33.5097 135.297 33.5097C136.331 33.5097 137.008 33.0105 137.151 32.1548H137.971C137.828 33.4027 136.83 34.2228 135.297 34.2228C133.514 34.1871 132.409 32.9392 132.409 31.1565Z" fill="black"/>
<path d="M144.353 30.5504V34.0445H143.533V30.8713C143.533 29.5164 142.998 28.8034 141.893 28.8034C140.61 28.8034 140.003 29.7304 140.003 31.0852V34.0445H139.183V26.3076H140.003V29.5521C140.289 28.6964 141.002 28.0903 142.178 28.0903C143.604 28.0903 144.353 28.9816 144.353 30.5504Z" fill="black"/>
<path d="M248.744 28.8905C248.744 28.3668 248.548 27.9085 248.155 27.516C247.762 27.1235 247.304 26.927 246.781 26.927C246.257 26.927 245.799 27.1235 245.406 27.516C245.013 27.9085 244.817 28.3668 244.817 28.8905C244.817 29.4142 245.013 29.872 245.406 30.265C245.799 30.6575 246.257 30.854 246.781 30.854C247.304 30.854 247.762 30.6575 248.155 30.265C248.548 29.872 248.744 29.4142 248.744 28.8905ZM252.671 28.0397V29.7413C252.671 29.8072 252.671 29.872 252.605 29.9379L252.475 30.0685L251.035 30.265C250.969 30.5269 250.838 30.7887 250.707 30.9193C250.904 31.1812 251.166 31.5083 251.558 31.9667C251.624 32.0326 251.624 32.0973 251.624 32.1632C251.624 32.2285 251.624 32.2939 251.558 32.3592C251.427 32.5557 251.166 32.8175 250.838 33.21C250.511 33.603 250.249 33.7337 250.118 33.7337C250.053 33.7337 249.988 33.7337 249.922 33.6678L248.81 32.817C248.613 32.9487 248.351 33.0141 248.089 33.0794C248.024 33.799 247.959 34.2574 247.893 34.5192C247.893 34.7152 247.762 34.781 247.632 34.781H245.93C245.864 34.781 245.799 34.781 245.733 34.7152C245.668 34.6499 245.668 34.5845 245.668 34.5192L245.472 33.0794C245.21 33.0135 245.013 32.8829 244.751 32.8175L243.639 33.6684C243.573 33.7342 243.508 33.7342 243.443 33.7342C243.377 33.7342 243.312 33.7342 243.246 33.6684C242.592 33.0794 242.199 32.6863 242.003 32.3592C241.937 32.2939 241.937 32.2285 241.937 32.1632C241.937 32.0973 241.937 32.032 242.003 31.9667C242.068 31.8355 242.199 31.7049 242.395 31.443C242.592 31.1812 242.723 31.0505 242.788 30.9193C242.657 30.6575 242.526 30.3957 242.461 30.1344L241.086 29.9379C241.021 29.9379 240.956 29.872 240.956 29.872C240.956 29.872 240.89 29.8067 240.89 29.7413V28.0397C240.89 27.9738 240.89 27.9085 240.956 27.8432L241.086 27.7125L242.526 27.516C242.592 27.2542 242.723 27.0576 242.854 26.7964C242.657 26.5345 242.395 26.1415 242.003 25.749C241.937 25.6831 241.937 25.6178 241.937 25.5525C241.937 25.4872 241.937 25.4218 242.003 25.3565C242.134 25.16 242.395 24.8982 242.788 24.5057C243.181 24.1127 243.377 23.982 243.508 23.982C243.574 23.982 243.639 23.982 243.705 24.0473L244.751 24.8982C244.948 24.767 245.21 24.7016 245.472 24.6363C245.538 23.9161 245.602 23.4583 245.668 23.1965C245.733 23.0653 245.799 23 245.93 23H247.632C247.697 23 247.762 23 247.828 23.0658C247.894 23.1312 247.894 23.1965 247.894 23.2618L248.089 24.7016C248.351 24.7675 248.548 24.8982 248.81 24.9635L249.922 24.1127C249.988 24.0468 250.053 24.0468 250.118 24.0468C250.184 24.0468 250.249 24.0468 250.315 24.1127C250.969 24.7016 251.427 25.16 251.558 25.4218C251.624 25.4872 251.624 25.4872 251.624 25.6178C251.624 25.6837 251.624 25.749 251.558 25.8143C251.493 25.9455 251.362 26.0762 251.166 26.338C250.969 26.5998 250.838 26.7305 250.773 26.8617C250.904 27.1235 251.035 27.3854 251.1 27.5813L252.475 27.7778C252.54 27.7778 252.605 27.8437 252.605 27.8437C252.605 27.8437 252.671 27.9744 252.671 28.0397Z" fill="#45AAF2"/>
<path d="M235 28.9668V27.9847C235.153 27.9887 235.304 27.955 235.441 27.8865C235.578 27.8181 235.696 27.717 235.785 27.5923C235.981 27.3304 236.047 27.0033 236.047 26.6102V22.6184C236.047 21.8335 236.309 21.1786 236.767 20.7208C237.29 20.1966 237.814 20 238.469 20H239.647V21.1127H238.469C238.142 21.1127 237.815 21.2434 237.553 21.5711C237.291 21.8982 237.16 22.2254 237.16 22.6832V26.8067C237.16 27.7234 236.833 28.2466 236.244 28.5084C236.833 28.7702 237.16 29.3592 237.16 30.2101V34.3984C237.16 34.8568 237.291 35.2492 237.553 35.5116C237.815 35.8388 238.142 35.9694 238.47 35.9694H239.647V37.0168H238.469C237.815 37.0168 237.226 36.7549 236.767 36.2971C236.244 35.8388 236.048 35.1845 236.048 34.3989V30.3407C236.048 29.9482 235.982 29.6211 235.786 29.3592C235.697 29.2343 235.579 29.1332 235.442 29.0647C235.305 28.9963 235.153 28.9626 235 28.9668ZM253.98 35.9041H255.158C255.485 35.9041 255.812 35.7735 256.075 35.4463C256.336 35.1186 256.467 34.7914 256.467 34.3336V30.2101C256.467 29.2934 256.794 28.7049 257.383 28.5084C256.794 28.2466 256.467 27.6576 256.467 26.8067V22.6832C256.467 22.2254 256.336 21.8324 256.074 21.5711C255.812 21.2434 255.485 21.1127 255.158 21.1127H253.98V20H255.158C255.812 20 256.401 20.2619 256.86 20.7202C257.318 21.178 257.58 21.8324 257.58 22.6179V26.6102C257.58 27.0033 257.645 27.3304 257.842 27.5923C258.038 27.8541 258.3 27.9847 258.561 27.9847V28.9668C258.3 28.9668 258.103 29.0974 257.907 29.3592C257.711 29.6211 257.645 29.9482 257.645 30.3407V34.3989C257.645 35.1839 257.383 35.7735 256.925 36.2966C256.401 36.7549 255.812 37.0168 255.158 37.0168H253.98V35.9041ZM263.797 31.6499L264.452 30.7991C264.779 31.1921 265.172 31.4534 265.63 31.7158C266.088 31.9771 266.611 32.043 267.2 32.043C267.593 32.043 267.921 31.9771 268.182 31.9118C268.444 31.8459 268.706 31.7152 268.837 31.5193C269.033 31.4534 269.164 31.2574 269.23 31.1262C269.295 30.9303 269.36 30.7991 269.36 30.6026C269.36 30.3407 269.295 30.1448 269.164 29.9482C269.046 29.7645 268.89 29.6082 268.706 29.4899C268.51 29.3592 268.248 29.2939 267.986 29.1627C267.724 29.0321 267.462 28.9668 267.135 28.9009C266.808 28.8356 266.546 28.7702 266.284 28.6396C265.99 28.5592 265.705 28.4494 265.433 28.3119C265.172 28.1813 264.91 28.0501 264.714 27.8541C264.517 27.6576 264.321 27.4611 264.255 27.1992C264.125 26.9379 264.059 26.6102 264.059 26.2831C264.059 25.5634 264.321 24.9744 264.91 24.5155C265.499 24.0577 266.219 23.8617 267.07 23.8617C268.379 23.8617 269.426 24.2542 270.211 25.1051L269.557 25.89C268.902 25.1709 268.051 24.8432 267.004 24.8432C266.481 24.8432 266.022 24.9744 265.695 25.2357C265.368 25.4975 265.172 25.8247 265.172 26.2177C265.172 26.4143 265.237 26.6102 265.368 26.8067C265.499 27.0033 265.63 27.0686 265.826 27.1992C266.022 27.3304 266.284 27.3957 266.546 27.4611C266.808 27.5269 267.07 27.5923 267.397 27.7229C267.724 27.8541 267.986 27.9847 268.248 28.0501C268.542 28.1305 268.827 28.2403 269.099 28.3778C269.36 28.5084 269.622 28.6391 269.819 28.8356C270.015 29.0321 270.211 29.2281 270.277 29.4899C270.342 29.7517 270.473 30.0789 270.473 30.4066C270.473 30.6684 270.407 30.9303 270.342 31.1916C270.277 31.4534 270.146 31.6499 270.015 31.9118L269.426 32.5008C269.159 32.7085 268.844 32.8438 268.51 32.8932C268.051 33.0244 267.659 33.0898 267.2 33.0898C265.761 33.0898 264.648 32.632 263.797 31.6499ZM274.204 32.9591V24.1236H275.316V27.8541H280.487V24.0577H281.599V32.8932H280.487V28.8356H275.316V32.8932H274.204V32.9591ZM285.723 32.9591V24.1236H286.835V32.9591H285.723ZM291.024 32.9591V24.1236H294.558C295.409 24.1236 296.063 24.3849 296.587 24.9085C297.111 25.4322 297.307 26.0865 297.307 26.8067C297.308 27.5064 297.052 28.182 296.587 28.7049C296.063 29.1627 295.409 29.4246 294.558 29.4246H292.071V32.9591H291.024ZM292.136 28.4431H294.427C294.951 28.4431 295.344 28.3119 295.736 27.9847C296.129 27.6576 296.26 27.2651 296.26 26.7414C296.26 26.2177 296.063 25.8247 295.736 25.4975C295.409 25.1704 294.951 25.0397 294.427 25.0397H292.136V28.4431ZM300.645 32.9591V24.1236H307.124V26.0871H302.936V27.4611H307.059V29.4246H302.936V30.9297H307.124V32.8932H300.645V32.9591ZM310.593 32.9591V24.1236H312.884L316.484 28.9668V24.1236H318.774V32.9591H316.549L312.818 27.8541V32.9591H310.593ZM322.047 28.5084C322.047 27.8541 322.178 27.1992 322.439 26.6102C322.701 26.0212 323.028 25.5634 323.487 25.1704C323.945 24.7779 324.403 24.4507 324.992 24.2542C325.581 24.0577 326.17 23.9271 326.89 23.9271C327.348 23.9271 327.806 23.9929 328.199 24.1236C328.592 24.2542 328.984 24.3849 329.246 24.5814C329.573 24.7779 329.835 25.0397 330.032 25.2357L330.621 26.0212L328.722 27.0033C328.53 26.68 328.261 26.41 327.937 26.2177C327.61 26.0212 327.217 25.8906 326.825 25.8906C326.105 25.8906 325.516 26.1524 325.057 26.6102C324.599 27.0686 324.338 27.7229 324.338 28.4431C324.338 29.1627 324.599 29.7517 325.057 30.2754C325.516 30.7338 326.105 30.9956 326.825 30.9956C327.152 30.9956 327.414 30.9297 327.741 30.8644C328.068 30.7338 328.265 30.6026 328.461 30.4719V29.8176H326.498V27.8541H330.752V31.3881C329.704 32.5661 328.395 33.0898 326.825 33.0898C326.17 33.0898 325.516 32.9591 324.927 32.7626C324.361 32.5764 323.846 32.2628 323.421 31.8459C322.963 31.4534 322.636 30.9951 322.374 30.4066C322.178 29.8176 322.047 29.1627 322.047 28.5084ZM334.155 32.9591V24.1236H336.446V32.9591H334.155ZM340.111 32.9591V24.1236H342.467L346.067 28.9668V24.1236H348.358V32.9591H346.132L342.402 27.8541V32.9591H340.111ZM352.023 32.9591V24.1236H358.502V26.0871H354.313V27.4611H358.436V29.4246H354.313V30.9297H358.502V32.8932H352.023V32.9591ZM361.971 25.4322C361.971 25.0397 362.102 24.6473 362.429 24.3849C362.756 24.1236 363.084 23.9271 363.476 23.9271C363.738 23.9271 364 23.9929 364.262 24.1236C364.523 24.2542 364.654 24.4507 364.785 24.6467C364.916 24.8432 364.981 25.1051 364.981 25.4322C364.981 25.8247 364.851 26.2172 364.523 26.4796C364.196 26.7414 363.869 26.9379 363.476 26.9379C363.084 26.9379 362.691 26.8067 362.429 26.4796C362.167 26.1524 361.971 25.8247 361.971 25.4322ZM362.233 25.4322C362.233 25.7594 362.363 26.0865 362.625 26.3489C362.887 26.6102 363.214 26.7414 363.541 26.7414C363.869 26.7414 364.196 26.6102 364.458 26.3484C364.581 26.2293 364.679 26.087 364.746 25.9298C364.814 25.7725 364.849 25.6034 364.851 25.4322C364.851 25.0397 364.719 24.7779 364.458 24.5155C364.338 24.3928 364.196 24.295 364.039 24.2278C363.882 24.1605 363.712 24.1251 363.541 24.1236C363.149 24.1236 362.887 24.2542 362.625 24.5161C362.363 24.7126 362.233 25.0392 362.233 25.4322ZM362.952 24.5814H363.673C363.803 24.5814 363.934 24.6473 364.065 24.7126C364.196 24.7779 364.196 24.9085 364.196 25.1051C364.196 25.3016 364.13 25.4322 364.065 25.4975C364 25.5634 363.869 25.6287 363.803 25.6287L364.262 26.3484H363.934L363.476 25.6287H363.149V26.3484H362.952V24.5814ZM363.149 25.4322H363.607C363.673 25.4322 363.738 25.4322 363.803 25.3664C363.934 25.2357 363.934 25.1704 363.934 25.1051C363.934 25.0392 363.934 24.9085 363.869 24.8432C363.803 24.7774 363.738 24.7774 363.673 24.7774H363.214V25.4322H363.149Z" fill="#162948"/>
<defs>
<linearGradient id="paint0_linear_797_31939" x1="12.2532" y1="37.2892" x2="37.8953" y2="20.3751" gradientUnits="userSpaceOnUse">
<stop stop-color="#75FBD4"/>
<stop offset="1" stop-color="#48CAE1"/>
</linearGradient>
</defs>
</svg>
