<svg width="350" height="57" viewBox="0 0 350 57" fill="none" xmlns="http://www.w3.org/2000/svg">
<path d="M154.297 28H228.722" stroke="#B0B0B0" stroke-width="0.57031" stroke-dasharray="3.42 3.42"/>
<path d="M202.773 28.4062C202.773 22.1067 197.667 17 191.367 17C185.068 17 179.961 22.1067 179.961 28.4062C179.961 34.7057 185.068 39.8124 191.367 39.8124C197.667 39.8124 202.773 34.7057 202.773 28.4062Z" fill="#3EA76A"/>
<path d="M188.51 27.4218L186.234 29.7031L188.51 31.9843V30.2734H192.508V29.1328H188.51V27.4218ZM196.5 26.2812L194.224 24V25.7109H190.226V26.8515H194.224V28.5624L196.5 26.2812Z" fill="white"/>
<path d="M32.725 31.9406C34.2224 30.4788 35.1494 28.4109 35.1494 26.1647C35.1851 21.6723 31.4058 18 26.9134 18H18C18 20.9236 20.3531 23.3124 23.3124 23.3124H24.9525C24.9881 23.3124 25.0594 23.2767 25.0594 23.2054V22.2784C25.0594 22.2071 25.1664 22.1358 25.2377 22.2071L29.1596 26.129L26.3073 28.9457L25.2377 30.0153C25.1664 30.0866 25.0594 30.0153 25.0594 29.944V29.0526C25.0594 28.9813 25.0238 28.9457 24.9525 28.9457H18.107C18.0357 28.9813 18 29.017 18 29.0526V31.5127C18 33.7589 19.8183 35.5772 22.0645 35.5772H24.9525C24.9881 35.5772 25.0594 35.5416 25.0594 35.4703V33.9015C25.0594 33.2241 25.6299 32.6536 26.3073 32.6536C26.7351 32.6536 27.1273 32.8676 27.3769 33.2598L29.6944 37.0747C30.4431 38.2869 31.7623 39 33.1528 39H37.0747L32.725 31.9406Z" fill="url(#paint0_linear_797_32185)"/>
<path d="M40.3549 34.0082V24.8809H42.4941V26.6636C42.815 25.38 43.9202 24.7739 44.9185 24.7739C45.2394 24.7739 45.5246 24.8096 45.7742 24.8452V26.8062C45.4533 26.7705 45.2751 26.7705 44.9185 26.7705C43.4211 26.7705 42.4941 27.9114 42.4941 29.9794V34.0439H40.3549V34.0082Z" fill="black"/>
<path d="M55.4722 30.1577H48.6623C48.7336 31.6195 49.6606 32.4038 51.2294 32.4038C52.299 32.4038 52.9051 32.083 53.2617 31.3699H55.4365C55.1513 33.0813 53.4399 34.2935 51.2294 34.2935C48.3415 34.2935 46.5588 32.4395 46.5588 29.4802C46.5588 26.521 48.3771 24.667 51.1581 24.667C53.7608 24.667 55.5435 26.4497 55.5435 29.0167C55.5078 29.3376 55.5078 29.6228 55.4722 30.1577ZM53.4399 28.5176C53.4043 27.0914 52.5842 26.3071 51.1224 26.3071C49.6606 26.3071 48.698 27.1984 48.698 28.5176H53.4399Z" fill="black"/>
<path d="M60.4278 23.4906V24.8811H62.8166V26.6638H60.4278V34.0441H58.2886V26.6638H56.4346V24.8811H58.2886V23.5263C58.2886 20.567 60.4278 20.1392 61.3905 20.1392C62.0679 20.1392 62.5314 20.2105 62.8166 20.3174V22.1358C62.5314 22.1001 62.2818 22.0645 61.9609 22.0645C61.3192 22.0645 60.4278 22.1714 60.4278 23.4906Z" fill="black"/>
<path d="M64.4925 34.0082V24.8809H66.6317V26.6636C66.9526 25.38 68.0579 24.7739 69.0562 24.7739C69.377 24.7739 69.6623 24.8096 69.9119 24.8452V26.8062C69.591 26.7705 69.4127 26.7705 69.0562 26.7705C67.5587 26.7705 66.6317 27.9114 66.6317 29.9794V34.0439H64.4925V34.0082Z" fill="black"/>
<path d="M79.6095 30.1577H72.7996C72.8709 31.6195 73.7979 32.4038 75.3667 32.4038C76.4363 32.4038 77.0424 32.083 77.3989 31.3699H79.5738C79.2886 33.0813 77.5772 34.2935 75.3667 34.2935C72.4787 34.2935 70.696 32.4395 70.696 29.4802C70.696 26.521 72.5144 24.667 75.2954 24.667C77.8981 24.667 79.6808 26.4497 79.6808 29.0167C79.6451 29.3376 79.6451 29.6228 79.6095 30.1577ZM77.5772 28.5176C77.5415 27.0914 76.7215 26.3071 75.2597 26.3071C73.7979 26.3071 72.8353 27.1984 72.8353 28.5176H77.5772Z" fill="black"/>
<path d="M81.0356 31.1916H83.1748C83.1748 31.976 83.9235 32.5464 85.0288 32.5464C85.8488 32.5464 86.348 32.1186 86.348 31.4768C86.348 30.9777 86.1341 30.6568 85.1358 30.4072L83.3174 29.9081C82.0339 29.5515 81.3208 28.6245 81.3208 27.341C81.3208 25.7723 82.7826 24.667 84.8505 24.667C87.0967 24.667 88.4515 25.7366 88.4515 27.5193H86.348C86.348 26.7349 85.7775 26.3071 84.7436 26.3071C83.9948 26.3071 83.4244 26.6993 83.4244 27.2341C83.4244 27.7332 83.7096 28.0541 84.5653 28.3037L86.3836 28.8385C87.6672 29.195 88.4872 30.1577 88.4872 31.4412C88.4872 33.2239 87.0967 34.2935 84.8862 34.2935C82.6757 34.2935 81.0356 32.9386 81.0356 31.1916Z" fill="black"/>
<path d="M99.1479 28.2686V34.0089H97.0086V29.2313C97.0086 27.2703 96.5095 26.4503 95.012 26.4503C93.6215 26.4503 92.8372 27.3773 92.8372 28.9817V34.0089H90.6979V20.2822H92.8372V26.1651C93.4076 25.1668 94.4772 24.6676 95.8321 24.6676C98.0069 24.632 99.1479 25.8798 99.1479 28.2686Z" fill="black"/>
<path d="M110.058 30.1577H103.248C103.319 31.6195 104.246 32.4038 105.815 32.4038C106.885 32.4038 107.491 32.083 107.847 31.3699H110.022C109.737 33.0813 108.025 34.2935 105.815 34.2935C102.927 34.2935 101.144 32.4395 101.144 29.4802C101.144 26.521 102.963 24.667 105.744 24.667C108.346 24.667 110.129 26.4497 110.129 29.0167C110.093 29.3376 110.093 29.6228 110.058 30.1577ZM107.99 28.5176C107.954 27.0914 107.134 26.3071 105.672 26.3071C104.211 26.3071 103.248 27.1984 103.248 28.5176H107.99Z" fill="black"/>
<path d="M118.9 20.2822H121.039V34.0445H118.9V32.7967C118.329 33.7237 117.082 34.2585 115.941 34.2585C112.981 34.2585 111.448 32.1192 111.448 29.4452C111.448 26.7712 113.195 24.632 116.048 24.632C117.26 24.632 118.365 25.1668 118.936 26.0938L118.9 20.2822ZM119.007 29.4452C119.007 27.8765 118.116 26.5216 116.297 26.5216C114.621 26.5216 113.623 27.7695 113.623 29.4452C113.623 31.1209 114.621 32.3688 116.297 32.3688C118.116 32.3332 119.007 31.014 119.007 29.4452Z" fill="black"/>
<path d="M127.742 33.2957V34.0088C127.528 34.0801 127.136 34.1158 126.815 34.1158C126.102 34.1158 125.139 33.9375 125.139 32.1548V26.3076H125.924V28.2329H127.528V28.946H125.924V31.9765C125.924 33.1888 126.351 33.3314 126.957 33.3314C127.171 33.367 127.528 33.3314 127.742 33.2957Z" fill="black"/>
<path d="M133.696 31.3343H129.025C129.025 32.6535 129.81 33.4735 131.058 33.4735C131.949 33.4735 132.555 33.0814 132.84 32.4039H133.66C133.446 33.4735 132.377 34.1866 131.058 34.1866C129.311 34.1866 128.205 32.9744 128.205 31.1204C128.205 29.2664 129.346 28.0898 131.022 28.0898C132.698 28.0898 133.732 29.1951 133.732 30.7639C133.696 31.0134 133.696 31.1204 133.696 31.3343ZM132.912 30.6926C132.912 29.5516 132.198 28.7673 130.986 28.7673C129.774 28.7673 129.061 29.5516 128.99 30.6926H132.912Z" fill="black"/>
<path d="M134.409 31.1565C134.409 29.3739 135.514 28.126 137.297 28.126C138.83 28.126 139.828 28.946 139.971 30.2295H139.151C139.008 29.3382 138.331 28.8747 137.297 28.8747C136.014 28.8747 135.229 29.766 135.229 31.1922C135.229 32.6183 136.014 33.5097 137.297 33.5097C138.331 33.5097 139.008 33.0105 139.151 32.1548H139.971C139.828 33.4027 138.83 34.2228 137.297 34.2228C135.514 34.1871 134.409 32.9392 134.409 31.1565Z" fill="black"/>
<path d="M146.353 30.5504V34.0445H145.533V30.8713C145.533 29.5164 144.998 28.8034 143.893 28.8034C142.61 28.8034 142.003 29.7304 142.003 31.0852V34.0445H141.183V26.3076H142.003V29.5521C142.289 28.6964 143.002 28.0903 144.178 28.0903C145.604 28.0903 146.353 28.9816 146.353 30.5504Z" fill="black"/>
<path d="M241.921 34.4642C243.304 35.216 244.682 35.9784 246.056 36.7516C246.652 37.0868 247.042 36.8803 247.58 36.584C250.476 34.988 253.367 33.3835 256.254 31.7705C256.258 31.7683 256.262 31.7667 256.267 31.7655L256.272 31.7647L256.278 31.7642C256.281 31.7642 256.285 31.7645 256.289 31.7652C256.293 31.766 256.298 31.7677 256.302 31.77C256.306 31.7723 256.31 31.7753 256.314 31.7787C256.316 31.7811 256.318 31.7837 256.32 31.7865C256.325 31.7935 256.327 31.8014 256.328 31.8095C256.331 31.8761 256.335 31.9429 256.339 32.0096C256.392 32.9171 256.444 33.8156 255.493 34.3423C252.816 35.8266 250.137 37.3087 247.457 38.7883C246.947 39.0705 246.434 39.0705 245.919 38.7883C243.203 37.3029 240.493 35.8097 237.788 34.3084C237.272 34.0229 237.013 33.5849 237.011 32.9946C236.999 29.9223 236.997 26.85 237.004 23.7775C237.004 23.2562 237.417 22.8718 237.906 22.6009C240.394 21.2205 242.883 19.8418 245.372 18.4647C246.636 17.7638 246.936 17.9111 248.079 18.5376C252.309 20.8513 254.869 22.2701 255.76 22.7939C256.435 23.1917 256.401 24.3752 256.299 25.1946C256.296 25.2209 256.286 25.2462 256.271 25.2682C256.256 25.2903 256.235 25.3085 256.212 25.3216L247.1 30.4127C246.815 30.5708 246.532 30.5713 246.251 30.4144L241.942 28.0052C241.933 28.0006 241.924 27.9981 241.914 27.9978C241.904 27.9976 241.895 27.9996 241.886 28.0037C241.881 28.0064 241.876 28.01 241.872 28.0143C241.87 28.0165 241.868 28.0188 241.866 28.0212C241.862 28.0287 241.859 28.0371 241.859 28.0457L241.854 30.0453C241.854 30.0705 241.861 30.0959 241.875 30.1187L241.881 30.1283C241.888 30.1369 241.895 30.1449 241.903 30.1521C241.912 30.1611 241.923 30.169 241.935 30.1756C243.366 30.9838 244.799 31.7812 246.235 32.5681C246.587 32.7594 247.093 32.5798 247.469 32.3698C250.4 30.7389 253.327 29.1006 256.248 27.455C256.3 27.4255 256.326 27.4398 256.326 27.4973L256.333 29.4782C256.333 29.5038 256.326 29.5291 256.312 29.5515C256.298 29.5738 256.279 29.5923 256.255 29.6052C253.224 31.2903 250.192 32.9731 247.161 34.6538C246.75 34.8825 246.386 34.7691 245.968 34.5387C244.634 33.7993 243.295 33.0681 241.951 32.3445C241.942 32.3401 241.933 32.3376 241.923 32.3376C241.913 32.3374 241.904 32.3396 241.896 32.3439C241.892 32.3457 241.889 32.3477 241.886 32.35C241.884 32.3518 241.882 32.3538 241.88 32.3559L241.875 32.3619C241.871 32.3693 241.868 32.3779 241.868 32.3869L241.84 34.339C241.84 34.3635 241.847 34.3881 241.861 34.4103C241.875 34.4324 241.896 34.4509 241.921 34.4642Z" fill="#164DFF"/>
<path d="M329.257 26.9214C329.236 28.1551 329.238 29.4215 329.261 30.7207C329.288 32.1046 330.367 32.0907 331.363 32.078C331.55 32.0755 331.735 32.0732 331.908 32.0801C331.933 32.0811 331.957 32.0909 331.974 32.1072C331.982 32.115 331.988 32.1241 331.993 32.1339C331.994 32.1375 331.996 32.1411 331.997 32.1449C331.998 32.1487 331.999 32.1525 331.999 32.1563L332 32.1593V32.1682L331.993 33.8494C331.993 33.8731 331.983 33.8957 331.965 33.9131C331.948 33.9303 331.924 33.9408 331.898 33.9425C329.347 34.1474 327.046 33.7444 327.044 30.7511C327.043 28.1077 327.048 25.4642 327.06 22.8208C327.06 22.797 327.069 22.7742 327.086 22.7573C327.092 22.7505 327.1 22.7449 327.108 22.7406C327.12 22.7343 327.134 22.731 327.148 22.731L329.152 22.7158C329.175 22.7158 329.198 22.7251 329.214 22.7416C329.222 22.7497 329.229 22.7591 329.233 22.7696C329.237 22.7803 329.24 22.7919 329.24 22.8038L329.256 24.5765C329.256 24.6324 329.28 24.686 329.321 24.7257C329.363 24.7652 329.419 24.7877 329.477 24.7882L331.907 24.7983C331.931 24.7983 331.955 24.8072 331.973 24.8231C331.99 24.8389 332 24.8604 332 24.8829L331.998 26.5439C331.998 26.5662 331.989 26.5879 331.971 26.6038C331.954 26.6196 331.931 26.6286 331.907 26.6286L329.556 26.6421C329.478 26.6425 329.403 26.6719 329.347 26.7241C329.291 26.7764 329.259 26.8471 329.257 26.9214Z" fill="#061340"/>
<path fill-rule="evenodd" clip-rule="evenodd" d="M269.57 31.947C269.569 31.9357 269.566 31.9248 269.561 31.9147C269.558 31.9081 269.554 31.9018 269.55 31.8959C269.547 31.8922 269.544 31.8889 269.541 31.8856L269.538 31.8825C269.536 31.88 269.533 31.8775 269.53 31.8754L268.139 30.7868C268.121 30.7726 268.098 30.7656 268.075 30.7676C268.051 30.7694 268.029 30.78 268.013 30.7969C267.129 31.7231 266.352 32.3206 264.952 32.1735C263.718 32.0437 262.902 31.4184 262.505 30.2975C262.501 30.2855 262.498 30.2731 262.498 30.2605C262.497 30.2516 262.498 30.2426 262.499 30.2339C262.501 30.2231 262.504 30.2127 262.508 30.2028C262.512 30.1929 262.517 30.1833 262.524 30.1745C262.529 30.1681 262.534 30.1621 262.54 30.1567C262.55 30.1471 262.561 30.139 262.574 30.1329C262.594 30.1229 262.616 30.118 262.639 30.118L269.875 30.1163C269.907 30.1162 269.938 30.1047 269.963 30.0842C269.987 30.0636 270.003 30.0353 270.006 30.0046C270.404 26.7133 268.078 24.1499 264.504 24.6071C258.984 25.3131 258.741 33.3399 264.486 34.0375C266.606 34.2959 268.294 33.6255 269.548 32.0262C269.565 32.0033 269.574 31.9751 269.57 31.947ZM264.82 26.4458C266.097 26.2747 267.456 26.9808 267.747 28.2336C267.753 28.2563 267.753 28.2796 267.747 28.3022C267.742 28.3247 267.731 28.3459 267.716 28.3639C267.701 28.3819 267.682 28.3965 267.66 28.4066C267.65 28.4115 267.638 28.4151 267.627 28.4176C267.615 28.4203 267.603 28.4216 267.591 28.4216H262.915C262.622 28.4216 262.539 28.294 262.667 28.039C263.133 27.1078 263.851 26.5767 264.82 26.4458Z" fill="#061340"/>
<path fill-rule="evenodd" clip-rule="evenodd" d="M278.496 33.2196C278.482 33.0887 278.42 33.069 278.309 33.1604C276.778 34.442 274.553 34.3997 272.935 33.3195C270.935 31.9819 270.404 29.3527 271.335 27.2431C272.445 24.7323 275.971 23.586 278.288 25.489C278.314 25.5102 278.344 25.5246 278.371 25.5296C278.382 25.5315 278.392 25.532 278.402 25.531C278.411 25.5301 278.419 25.5276 278.426 25.5239C278.43 25.5218 278.434 25.5191 278.438 25.5162C278.509 25.4518 278.528 25.287 278.494 25.0218C278.49 24.9934 278.493 24.9644 278.501 24.937C278.505 24.9246 278.509 24.9127 278.515 24.9013C278.523 24.8874 278.532 24.8745 278.542 24.8627C278.561 24.8414 278.584 24.8242 278.61 24.8125C278.636 24.8007 278.664 24.7948 278.693 24.795L280.674 24.805C280.68 24.8052 280.686 24.8059 280.692 24.8072C280.695 24.808 280.699 24.809 280.703 24.8103C280.715 24.8148 280.727 24.8219 280.736 24.8315C280.74 24.8358 280.744 24.8406 280.748 24.8455C280.757 24.8596 280.762 24.8761 280.762 24.8932V33.7715C280.762 33.7858 280.758 33.7998 280.752 33.8122C280.747 33.8201 280.742 33.8274 280.736 33.8339C280.719 33.8504 280.696 33.8597 280.672 33.8597L278.645 33.8697C278.642 33.8697 278.638 33.8696 278.635 33.8691C278.628 33.8681 278.62 33.8661 278.613 33.8633C278.603 33.8588 278.593 33.8524 278.585 33.8441C278.568 33.8279 278.558 33.8056 278.555 33.7818L278.496 33.2196ZM277.961 31.2506C279.173 29.6878 278.614 26.7046 276.233 26.5032C275.135 26.4095 274.308 26.725 273.753 27.4496C272.781 28.7178 272.974 31.0949 274.523 31.8888C275.639 32.4594 277.174 32.2681 277.961 31.2506Z" fill="#061340"/>
<path d="M285.586 30.5954C286.219 30.8741 286.408 31.2551 286.155 31.7382C286.018 32.0001 285.798 32.1446 285.494 32.1716C284.449 32.263 283.504 32.0689 282.66 31.5892C282.65 31.5833 282.639 31.5795 282.628 31.5778C282.616 31.5763 282.605 31.5768 282.593 31.5798C282.582 31.5826 282.572 31.5877 282.563 31.5945C282.555 31.6015 282.548 31.6099 282.543 31.6197L281.743 33.1738C281.738 33.1823 281.736 33.1912 281.734 33.2003C281.733 33.2069 281.733 33.2137 281.733 33.2203C281.734 33.2272 281.735 33.2342 281.737 33.241C281.745 33.2633 281.76 33.2823 281.781 33.294C283.509 34.2727 287.256 34.7823 288.23 32.4594C289.258 30.0045 287.205 29.0147 285.339 28.1158L285.191 28.0442L284.998 27.9508C284.466 27.6917 283.84 27.2516 284.408 26.6777C284.63 26.4518 284.902 26.3571 285.224 26.3931C285.896 26.4665 286.526 26.655 287.113 26.9586C287.124 26.9642 287.135 26.9677 287.146 26.9692C287.151 26.9697 287.155 26.9698 287.159 26.9697C287.167 26.9695 287.174 26.9685 287.18 26.9667C287.191 26.9635 287.202 26.9584 287.21 26.9516C287.219 26.9447 287.226 26.9361 287.231 26.9265L287.994 25.4687C288.006 25.4462 288.009 25.4199 288.001 25.3951C287.998 25.3842 287.993 25.374 287.986 25.3645C287.977 25.3528 287.966 25.3427 287.954 25.335C285.955 24.1414 281.792 24.0923 282.028 27.4141C282.147 29.1029 283.895 29.8611 285.298 30.47C285.396 30.5125 285.492 30.5542 285.586 30.5954Z" fill="#061340"/>
<path fill-rule="evenodd" clip-rule="evenodd" d="M300.634 33.1877C300.487 33.0726 300.414 33.1065 300.414 33.2894L300.405 38.0062C300.405 38.03 300.396 38.0528 300.379 38.0697C300.362 38.0865 300.34 38.0959 300.316 38.0959L298.275 38.0943C298.263 38.0943 298.252 38.092 298.241 38.0875C298.23 38.0832 298.221 38.0766 298.213 38.0685C298.204 38.0602 298.198 38.0506 298.194 38.0399C298.189 38.0293 298.187 38.0177 298.187 38.0062C298.163 33.9926 298.163 31.0844 298.185 29.2819C298.227 25.911 300.885 23.996 304.224 24.697C307.587 25.403 308.953 28.7672 307.531 31.6352C306.296 34.1224 302.858 34.9231 300.634 33.1877ZM303.466 26.5001C298.973 25.9007 299.577 33.5992 304.083 32.0196C306.629 31.1291 306.318 26.8794 303.466 26.5001Z" fill="#061340"/>
<path fill-rule="evenodd" clip-rule="evenodd" d="M312.627 24.69C307.916 25.6516 307.546 32.3867 312.098 33.8443C316.461 35.2411 320.197 31.4115 318.434 27.3278C317.461 25.0777 315.058 24.1938 312.627 24.69ZM311.544 30.8968C310.393 28.7669 311.883 25.8141 314.645 26.5659C316.428 27.05 316.89 28.9362 316.364 30.5039C315.67 32.5763 312.592 32.8336 311.544 30.8968Z" fill="#061340"/>
<path d="M320.141 25.6195C321.35 24.0499 324.008 24.4292 325.529 25.3366C325.549 25.349 325.565 25.3683 325.571 25.391C325.578 25.4137 325.575 25.4378 325.564 25.4586L324.806 26.9282C324.801 26.9379 324.795 26.9465 324.786 26.9536C324.783 26.9564 324.779 26.9591 324.775 26.9614C324.769 26.9647 324.763 26.9673 324.756 26.9693C324.745 26.9726 324.733 26.9738 324.721 26.973C324.709 26.972 324.698 26.9688 324.687 26.9637C324.026 26.6487 322.245 25.9158 321.833 26.8842C321.649 27.321 321.944 27.6376 322.35 27.839C322.434 27.8807 322.519 27.9223 322.606 27.9642C322.717 28.0174 322.83 28.071 322.945 28.1254C324.483 28.8525 326.296 29.7097 326.037 31.6636C325.622 34.7976 321.371 34.4116 319.362 33.3043C319.34 33.2924 319.324 33.2737 319.316 33.2517C319.312 33.2403 319.311 33.2286 319.311 33.217C319.312 33.2062 319.315 33.1957 319.32 33.1857L320.112 31.6248C320.118 31.6149 320.125 31.6063 320.134 31.5993C320.143 31.5924 320.153 31.5872 320.164 31.5843C320.176 31.5811 320.188 31.5805 320.2 31.5818C320.212 31.5833 320.223 31.5869 320.234 31.5925C321.122 32.0548 322.067 32.3392 323.071 32.1344C323.917 31.9634 324.098 31.1999 323.349 30.7105C322.973 30.4654 322.551 30.2758 322.127 30.0855C321.181 29.6604 320.227 29.232 319.768 28.176C319.385 27.2911 319.509 26.4389 320.141 25.6195Z" fill="#061340"/>
<path d="M295.901 24.8764L293.669 31.0003C293.662 31.0198 293.652 31.0378 293.64 31.0535C293.635 31.0596 293.63 31.0654 293.625 31.0707C293.605 31.0899 293.583 31.1034 293.558 31.1104C293.414 31.151 293.313 31.0991 293.256 30.9546C292.91 30.1002 292.144 28.0696 290.956 24.8629C290.948 24.8397 290.932 24.8196 290.911 24.8053C290.89 24.7911 290.866 24.7833 290.84 24.7833L288.594 24.7817L288.585 24.7822C288.578 24.783 288.572 24.785 288.566 24.788C288.557 24.7924 288.55 24.7987 288.544 24.8065C288.541 24.8105 288.539 24.8146 288.537 24.8191C288.536 24.8235 288.534 24.8282 288.534 24.833C288.533 24.8425 288.534 24.8521 288.537 24.8612L292.183 33.8226C292.2 33.8641 292.207 33.9084 292.204 33.9526C292.202 33.9752 292.198 33.9975 292.191 34.0192C292.185 34.0397 292.177 34.0595 292.166 34.0784C291.628 35.0264 290.185 35.8358 289.205 36.2911C289.186 36.2999 289.17 36.3121 289.156 36.3272C289.142 36.3422 289.131 36.3597 289.124 36.3789C289.118 36.3981 289.115 36.4183 289.116 36.4383C289.118 36.4584 289.124 36.4781 289.133 36.496L289.965 38.0655C289.973 38.0814 289.986 38.0946 290.002 38.1037C290.007 38.1065 290.012 38.1088 290.017 38.1107C290.04 38.1189 290.065 38.1184 290.088 38.1095C292.343 37.219 293.903 35.8543 294.794 33.6296C295.293 32.3825 296.438 29.4636 298.229 24.8731C298.231 24.8683 298.232 24.8635 298.232 24.8586C298.233 24.8541 298.233 24.8495 298.232 24.845C298.231 24.8356 298.227 24.8265 298.222 24.8187C298.216 24.811 298.208 24.8045 298.2 24.8002C298.196 24.7982 298.192 24.7967 298.188 24.7956C298.182 24.7943 298.177 24.7934 298.171 24.7934L296.032 24.785C296.003 24.7852 295.976 24.7939 295.952 24.8103C295.942 24.8179 295.932 24.827 295.924 24.8371C295.914 24.8488 295.907 24.8622 295.901 24.8764Z" fill="#061340"/>
<defs>
<linearGradient id="paint0_linear_797_32185" x1="14.2532" y1="37.2892" x2="39.8953" y2="20.3751" gradientUnits="userSpaceOnUse">
<stop stop-color="#75FBD4"/>
<stop offset="1" stop-color="#48CAE1"/>
</linearGradient>
</defs>
</svg>
