<svg width="95px" height="32px" xmlns="http://www.w3.org/2000/svg" viewBox="0 0 129.39 31.44"><defs><style>.cls-1{fill:#d8d6d6;}</style></defs><g id="Layer_2" data-name="Layer 2"><g id="Layer_2-2" data-name="Layer 2"><g id="acer"><path class="cls-1" d="M0,23.26c1.54-5.69,6-8.06,11.15-9.13C16.72,13,22.37,12.27,28,11.39c1.38-.21,2.84-.29,2.93-2.17s-1.25-2.55-2.71-2.84c-4-.8-8-.41-12-.14-2,.14-4.08.36-6.11.55-1.19.1-1.68-.35-1.47-1.61C9.06,2.51,10.26,1,13,.7,19.35.06,25.72-.46,32.06.66c4.25.75,7.62,2.59,8.09,7.85C47,.56,55.72-.44,65,.39c1.34.12,2.65.44,3.19,1.8s1.11,2.67.34,3.94-2.09.38-3.16.39c-3.56,0-7.13-.36-10.65.5a13,13,0,0,0-9.46,14.06,3.79,3.79,0,0,0,3.06,3.27c4.88,1.26,9.8.63,14.71.18,1-.09.82-.84.8-1.54C63.4,10.57,71,1.84,83.36.41A41.56,41.56,0,0,1,95.81.74c3.45.64,6.7,1.66,7.85,5.86C110-.3,118-.28,126.18.35a7.51,7.51,0,0,1,3.21,1V3.67c-.79,2.75-2.64,3.52-5.37,3.27a49.14,49.14,0,0,0-7.28,0c-3.29.16-4.76,1.4-5.68,4.57-1.65,5.68-3.34,11.36-4.9,17.07-.5,1.84-1.41,2.72-3.37,2.55-1.35-.11-2.73,0-4.09,0-2.4-.05-2.71-.42-2.06-2.72,1.26-4.45,2.58-8.89,3.87-13.34.14-.49.24-1,.46-1.93-7.22,5.89-15.89,5.1-24,6.56-.89.16-1.8.25-2.7.4-1.8.31-2.16,1.08-1.15,2.59,1.3,1.95,3.38,2.2,5.44,2.28A120.19,120.19,0,0,0,92,24.67c1.1-.08,3-.92,3.22.93a4.5,4.5,0,0,1-2.16,4.68,5.12,5.12,0,0,1-2.17.63c-5.68.2-11.36.83-17,0A14.06,14.06,0,0,1,66.56,28c-.82-.68-1.41-.86-1.79.41a3.31,3.31,0,0,1-3.08,2.33c-5.58.67-11.18,1.15-16.76,0-4.37-.88-7.87-2.85-9.17-7.8-.46,1.38-1,2.74-1.39,4.13a3.9,3.9,0,0,1-3.37,3c-7.82,1.26-15.68,1.78-23.54.5C4.1,30,1.19,28.67,0,25.08Zm18.83,2.23c8.72-.17,6.9.62,9.41-6.9.53-1.59,0-1.87-1.46-1.66-4.5.65-9,1.25-13.52,1.87a4.85,4.85,0,0,0-2.45,1.13,3.17,3.17,0,0,0-1.45,2.92c.17,1.21,1.24,1.64,2.26,2C14,25.67,16.41,25.44,18.83,25.49ZM86.68,5.94c-1,0-2.25.06-3.53.16-4.51.37-7.32,2.85-8.75,7.06-.41,1.19-.42,1.91,1.22,1.65,3.95-.63,7.92-1.12,11.87-1.78a11.22,11.22,0,0,0,5.65-2.18c1.83-1.54,1.47-3.52-.75-4.36C90.64,5.83,88.81,6,86.68,5.94Z"/></g></g></g></svg>