<svg xmlns="http://www.w3.org/2000/svg" viewBox="0 0 41.02 64.34"><defs><style>.cls-1{fill:#d8d6d6;}</style></defs><g id="Layer_2" data-name="Layer 2"><g id="Layer_1-2" data-name="Layer 1"><g id="accesories"><rect class="cls-1" x="5.09" y="5.7" width="4.22" height="7.52" rx="2.08"/><path class="cls-1" d="M38.79,25.31h-10v-6.2a9.85,9.85,0,0,0,2.55.33,9.72,9.72,0,1,0-9.72-9.72V25.31H19.44V9.72a9.72,9.72,0,1,0-9.72,9.72,9.93,9.93,0,0,0,2.56-.33v6.2h-10a2,2,0,0,0-2,2V55.42a8.92,8.92,0,0,0,8.91,8.92H31.83a8.93,8.93,0,0,0,8.92-8.92V27.27A2,2,0,0,0,38.79,25.31ZM31.29,17a7.28,7.28,0,0,1-2.55-.47,2.25,2.25,0,0,1,.36-1.11l.28-.46a1.24,1.24,0,0,0-.4-1.7,1.25,1.25,0,0,0-1.7.4l-.28.47a4.75,4.75,0,0,0-.73,2.54v8.66H24V9.72A7.26,7.26,0,1,1,31.29,17Zm7,10.79V55.42a6.46,6.46,0,0,1-6.46,6.45H9.18a6.12,6.12,0,0,1-6-6.45V27.77ZM17,25.31H14.74V16.65A4.83,4.83,0,0,0,14,14.11l-.29-.47a1.22,1.22,0,0,0-1.05-.58,1.19,1.19,0,0,0-.64.18,1.24,1.24,0,0,0-.41,1.7l.29.47a2.34,2.34,0,0,1,.35,1.1A7.25,7.25,0,1,1,17,9.72Z"/><rect class="cls-1" x="31.71" y="5.7" width="4.22" height="7.52" rx="2.08"/></g></g></g></svg>