<svg width="95px" height="32px" xmlns="http://www.w3.org/2000/svg" viewBox="0 0 130.54 32.94"><defs><style>.cls-1{fill:#d8d6d6;}</style></defs><g id="Layer_2" data-name="Layer 2"><g id="Layer_2-2" data-name="Layer 2"><g id="alcatel"><path class="cls-1" d="M0,16.08c0-.29.06-.58.1-.87a12.32,12.32,0,0,1,1-3.66A12.62,12.62,0,0,1,18.68,5.73a12.26,12.26,0,0,1,3.21,2.52,12.45,12.45,0,0,1,3.17,6.56,13,13,0,0,1,.15,2.06q0,6.12,0,12.24c0,.28,0,.28-.27.28h-3.7c-.25,0-.25,0-.25-.25V26.38c0-.05,0-.12,0-.14s-.1,0-.14.07a12.26,12.26,0,0,1-6.11,2.89,12.44,12.44,0,0,1-7.41-1,12.22,12.22,0,0,1-4-2.93,12.42,12.42,0,0,1-3.16-6.7c0-.36-.09-.72-.13-1.09ZM12.61,8.42A8.36,8.36,0,1,0,21,16.83,8.41,8.41,0,0,0,12.61,8.42Z"/><path class="cls-1" d="M86,32.94a7,7,0,0,0-.89-.38l-7-2.9a.65.65,0,0,0-.56,0,13.45,13.45,0,0,1-4.17,1.13A14.24,14.24,0,0,1,57.75,19a13.47,13.47,0,0,1-.17-3A14.24,14.24,0,0,1,69.52,2.59a14.77,14.77,0,0,1,3-.17,14.24,14.24,0,0,1,5.29,1.3,14.26,14.26,0,0,1,8.07,10.55,15.85,15.85,0,0,1,.2,2.67v16ZM82.59,22V16.93a11.17,11.17,0,0,0-1.39-5.34,10.74,10.74,0,0,0-11-5.33,10.72,10.72,0,0,0-8.17,6.22A10.71,10.71,0,0,0,64.89,25a10.56,10.56,0,0,0,6.53,2.56,10.17,10.17,0,0,0,3-.3A10.47,10.47,0,0,0,78.77,25c.06-.05.12-.15.19-.12s0,.14,0,.22c0,.75,0,1.5,0,2.24,0,.18.06.23.23.23h3.12c.24,0,.24,0,.24-.24Z"/><path class="cls-1" d="M112.53,18.9H102.47c-.2,0-.21,0-.15.2a8,8,0,0,0,1.43,2.81,8.39,8.39,0,0,0,12,1.29,7.87,7.87,0,0,0,.88-.85.37.37,0,0,1,.3-.14h4.59c.21,0,.23,0,.13.21a12.7,12.7,0,0,1-8.43,6.63,12.08,12.08,0,0,1-2.32.3,12.53,12.53,0,0,1-6.49-1.48,12.06,12.06,0,0,1-2.51-1.79A12.34,12.34,0,0,1,99,22.2,12.61,12.61,0,0,1,107.1,4.6a12,12,0,0,1,2.37-.39,12.57,12.57,0,0,1,13.41,11.05,12.67,12.67,0,0,1,0,3.37c0,.26,0,.27-.31.27Zm-2.17-4.24h7.91c.21,0,.21,0,.15-.2a8.38,8.38,0,0,0-14-3.54,8.32,8.32,0,0,0-2.08,3.54c0,.19,0,.2.17.2h7.88Z"/><path class="cls-1" d="M48.72,4.17a12.41,12.41,0,0,1,5.7,1.37A12,12,0,0,1,57.2,7.47l.33.3c.08.07.08.13,0,.2l-.39.39-2.33,2.33c-.17.17-.16.16-.34,0a8.21,8.21,0,0,0-4.59-2.2,8.42,8.42,0,0,0-9.42,6.94,8.14,8.14,0,0,0,.73,5,8.3,8.3,0,0,0,3.5,3.68,8.12,8.12,0,0,0,3.43,1,8.39,8.39,0,0,0,5.81-1.8c.21-.17.41-.35.61-.53s.14-.07.22,0l2.76,2.75c.11.11.06.17,0,.25a11.77,11.77,0,0,1-2.66,2,12.4,12.4,0,0,1-4,1.4,12.58,12.58,0,0,1-3.57.11,12.6,12.6,0,0,1-11-10.58,12.62,12.62,0,0,1,9.1-14.1A12,12,0,0,1,48.72,4.17Z"/><path class="cls-1" d="M89.36,14.7V.39a1.47,1.47,0,0,0,0-.21c0-.12,0-.18.18-.18h3.9c.17,0,.17.1.17.23V3.92c0,.25,0,.25.25.25h3.71c.25,0,.25,0,.25.25V8.17c0,.25,0,.25-.25.25H94c-.37,0-.34,0-.34.33V29a1,1,0,0,0,0,.17c0,.16,0,.21-.21.21-.5,0-1,0-1.51,0H89.64c-.27,0-.28,0-.28-.28V14.7Z"/><path class="cls-1" d="M28.54,14.68V.13A.12.12,0,0,1,28.67,0H32.5c.29,0,.29,0,.29.29v29c0,.09,0,.14-.14.14H28.8c-.26,0-.26,0-.26-.26Z"/><path class="cls-1" d="M126.29,14.7V.36a.86.86,0,0,0,0-.16c0-.15,0-.2.2-.2h3.71c.37,0,.34,0,.34.33V29.09c0,.3,0,.3-.31.3h-3.58c-.36,0-.36,0-.36-.35Z"/><path class="cls-1" d="M71.8,9.55a7.32,7.32,0,1,1-7.32,7.29A7.34,7.34,0,0,1,71.8,9.55Z"/></g></g></g></svg>