<svg width="95px" height="32px" xmlns="http://www.w3.org/2000/svg" viewBox="0 0 129.53 39"><defs><style>.cls-1{fill:#d8d6d6;}</style></defs><g id="Layer_2" data-name="Layer 2"><g id="Layer_2-2" data-name="Layer 2"><g id="amazon"><path class="cls-1" d="M28.11,2.26c3.66-2.95,5.61-2.95,9.09.18.81.73,1.11.38,1.65-.19A5.92,5.92,0,0,1,46.07.73c2.57,1.13,3.23,3.36,3.22,5.95,0,4.51-.09,9,0,13.54.06,2.22-1,2.53-2.87,2.54s-3.14-.27-3.06-2.63c.13-3.73,0-7.46,0-11.2,0-1.45-.05-2.94-2-3.08s-2.63,1.26-2.7,2.82c-.15,3.73-.23,7.47-.11,11.19.08,2.3-.82,2.91-3,2.93s-3-.81-2.94-3c.12-3.42.06-6.84,0-10.27,0-1.61.19-3.56-2.19-3.66S28.07,7.75,28,9.32c-.17,3.57-.22,7.15-.13,10.73.05,2-.66,2.75-2.7,2.72S21.9,22.48,22,20c.11-5.36,0-10.73.05-16.1,0-1.23-.47-2.78,1.36-3.3A4,4,0,0,1,28.11,2.26Z"/><path class="cls-1" d="M17.77,11c.33,2.58-.19,5.16,1.25,7.7,1.09,2-1.52,2.48-2.47,3.62A1.4,1.4,0,0,1,14.18,22c-1.08-1.63-1.95-1.2-3.32-.23C7.46,24.18,2.57,23.23.84,20A7.22,7.22,0,0,1,4.56,10,15.81,15.81,0,0,1,9.07,8.89c1-.12,2.32,0,2.57-1.43a2.24,2.24,0,0,0-1.42-2.64c-1.32-.55-2.78-.27-3.3.88C5.85,8.13,4.08,7.57,2.24,7.31,1,7.14.7,6.46,1,5.36L1,5.13C1.9,1.79,5.78-.24,10.75,0c4,.22,6.53,2.23,7,5.82A41.46,41.46,0,0,1,17.77,11Zm-6.08,3.6c.05-1.16,0-2.19-1.61-2.17A3.6,3.6,0,0,0,6.33,15.7c0,1.47.51,2.62,2.08,2.86S11.6,16.88,11.69,14.55Z"/><path class="cls-1" d="M60.62,0c7.14,0,9.58,2.38,9.6,8,0,2.26,0,4.51,0,6.76a5.84,5.84,0,0,0,.45,2.5c.4.85,1.67,1.63.79,2.66a13.45,13.45,0,0,1-3.19,2.67c-.77.48-1.51-.24-2-.85-.82-1.08-1.49-1.21-2.66-.33a7.29,7.29,0,0,1-8.52.61c-2.36-1.35-3-3.72-2.67-6.26.41-3.39,2.54-5.4,5.74-6.29a23.65,23.65,0,0,1,3.67-.63c1.44-.17,2.41-.69,2.07-2.37s-1.49-2.09-3-1.84A2.94,2.94,0,0,0,58.7,6.48a1.68,1.68,0,0,1-2.07,1.09c-1.09-.24-2.59.19-3.18-1C52.77,5.24,53.75,4,54.56,3A8.14,8.14,0,0,1,60.62,0ZM64,14.64c.1-1.74-.21-2.19-1.52-2.24a3.6,3.6,0,0,0-3.82,3.25c-.09,1.59.55,2.77,2.24,2.94S63.89,16.92,64,14.64Z"/><path class="cls-1" d="M118.6,2.83c2-2.47,4.24-3.27,7-2.34s3.74,3.25,3.82,5.85c.15,4.82.08,9.65.07,14.47,0,2.37-1.81,1.84-3.21,1.91s-2.66,0-2.63-2c.06-3.58.08-7.16,0-10.74,0-1.7.31-3.85-2.18-4.27-1.62-.27-2.69,1.46-2.74,4.38-.07,3.34-.1,6.69,0,10,0,2.27-1.13,2.66-3.08,2.66s-3.08-.42-3.05-2.69c.08-5.52,0-11,0-16.57,0-1.31-.17-2.72,1.78-3C117,.22,117.77.54,118.6,2.83Z"/><path class="cls-1" d="M110,11.8a11.8,11.8,0,0,1-1.67,7,8.4,8.4,0,0,1-7.7,4.4,8,8,0,0,1-7.34-4.53A14.73,14.73,0,0,1,92.6,6c1.45-3.77,4.53-6,8.16-5.88,4,.08,6.69,2.16,8.26,5.78A12.91,12.91,0,0,1,110,11.8Zm-6.26-.05a18.93,18.93,0,0,0-.44-4.86,2.37,2.37,0,0,0-2.25-2,2.43,2.43,0,0,0-2.6,1.91,17.31,17.31,0,0,0,.06,9.65,2.43,2.43,0,0,0,2.3,2,2.53,2.53,0,0,0,2.4-1.88C103.85,15,103.63,13.37,103.72,11.75Z"/><path class="cls-1" d="M51.81,39A50.74,50.74,0,0,1,20.06,27.32a3.37,3.37,0,0,1-.53-.46c-.42-.49-1.37-.91-.76-1.67s1.28,0,1.88.28c1.75.84,3.46,1.76,5.25,2.52,16.68,7.1,33.57,7.68,50.66,1.52.73-.26,1.45-.54,2.2-.76s1.46-.38,1.87.4-.26,1.31-.81,1.71a33.15,33.15,0,0,1-7.33,4A54.82,54.82,0,0,1,51.81,39Z"/><path class="cls-1" d="M82.3.51c1.48,0,3,0,4.43,0,2.86,0,3.88,1.57,2.6,4.19a30.24,30.24,0,0,1-2.46,3.68c-1.15,1.66-2.28,3.33-3.49,4.95-1,1.37-.55,1.93,1,2a13.06,13.06,0,0,1,3.83,1,2.94,2.94,0,0,1,2,2.82c.16,2.69-.43,3.17-3,2.26a15.28,15.28,0,0,0-10.72.1c-2.21.81-2.55.54-2.66-1.78a6.83,6.83,0,0,1,1.32-4.59c1.94-2.63,3.76-5.34,5.65-8,.84-1.18.78-1.83-.86-1.79-.85,0-1.71,0-2.56,0-1.75.09-2.74-.43-2.75-2.48S75.69.43,77.41.5,80.67.51,82.3.51Z"/><path class="cls-1" d="M78.52,26.35l-2.41.15c-.66,0-1.58.51-1.79-.44-.17-.79.76-1.07,1.37-1.37A15.31,15.31,0,0,1,85,23.63a2,2,0,0,1,2,2.2,14.16,14.16,0,0,1-4,9.43c-.35.36-.79.91-1.37.43s-.08-.87,0-1.29c.5-1.55,1.09-3.08,1.5-4.65.7-2.67.16-3.32-2.67-3.4C79.9,26.33,79.28,26.35,78.52,26.35Z"/></g></g></g></svg>