<?xml version="1.0" encoding="UTF-8"?>
<svg width="34px" height="40px" viewBox="0 0 34 40" version="1.1" xmlns="http://www.w3.org/2000/svg" xmlns:xlink="http://www.w3.org/1999/xlink">
    <title>0902F54B-4B86-405C-B483-AB251079865F</title>
    <g id="onboarding-proccess" stroke="none" stroke-width="1" fill="none" fill-rule="evenodd">
        <g id="onboard/welcome/devices" transform="translate(-337.000000, -428.000000)" fill="#000000">
            <g id="Group-21" transform="translate(263.000000, 104.000000)">
                <path d="M107.287436,355.035369 C106.677046,356.454524 105.954492,357.760807 105.117277,358.961849 C103.976191,360.599094 103.041798,361.73239 102.321741,362.361769 C101.205555,363.394753 100.009523,363.923811 98.7288758,363.953888 C97.8095437,363.953888 96.7006992,363.690604 95.4101376,363.156549 C94.1152621,362.625023 92.9252844,362.361739 91.8371773,362.361739 C90.6960914,362.361739 89.4721316,362.625023 88.1631032,363.156549 C86.8520313,363.690642 85.7958628,363.968945 84.9883157,363.996515 C83.7602691,364.049174 82.536158,363.505058 81.3142947,362.361739 C80.534395,361.677234 79.5589735,360.503808 78.3903917,358.841483 C77.1366428,357.066287 76.1058964,355.007799 75.298357,352.660946 C74.4335324,350.126127 74,347.671429 74,345.295026 C74,342.572772 74.5845293,340.22493 75.7553211,338.25744 C76.6754631,336.677157 77.8995666,335.430463 79.431643,334.515302 C80.9636815,333.600141 82.6191075,333.133802 84.4018413,333.103946 C85.3773309,333.103946 86.6564642,333.407603 88.2460528,334.004332 C89.8312517,334.603117 90.8490485,334.906698 91.2952807,334.906698 C91.6288952,334.906698 92.7596124,334.551631 94.6763067,333.843859 C96.4890114,333.187419 98.0188097,332.915598 99.2720591,333.022681 C102.668071,333.29854 105.21945,334.645691 106.916207,337.072818 C103.879013,338.924694 102.376536,341.518463 102.406431,344.8459 C102.433829,347.437765 103.368222,349.594517 105.204464,351.307017 C106.036684,352.101842 106.966007,352.716164 108,353.152419 C107.775824,353.806802 107.539085,354.43369 107.287436,355.035369 Z M98,324.760359 C98,326.661113 97.3059302,328.435806 95.9225626,330.078452 C94.2530915,332.031298 92.2338435,333.159722 90.0440871,332.981639 C90.0147432,332.7427 90,332.502122 90,332.261401 C90,330.436682 90.7939247,328.483907 92.2038585,326.887225 C92.9076859,326.078836 93.8029611,325.406628 94.8885446,324.870386 C95.9717778,324.342197 96.9964656,324.050025 97.960115,324 C97.9882482,324.254118 98,324.508236 98,324.760359 Z" id="apple"></path>
            </g>
        </g>
    </g>
</svg>