<svg width="95px" height="32px" xmlns="http://www.w3.org/2000/svg" viewBox="0 0 130.11 41.16"><defs><style>.cls-1{fill:#d8d6d6;}</style></defs><g id="Layer_2" data-name="Layer 2"><g id="Layer_2-2" data-name="Layer 2"><g id="archos"><path class="cls-1" d="M0,22c1.1-1.43,2.21-2.86,3.31-4.3q6.51-8.49,13-17A.64.64,0,0,1,16.9.4h5.53c.42,0,.43,0,.43.44.09,6.93,0,13.86.06,20.79,0,.5,0,.5-.47.5H18.58c-.4,0-.43,0-.43-.43,0-1.46,0-2.92.05-4.38,0-.28-.07-.38-.36-.38H9.38a.58.58,0,0,0-.52.26c-1.19,1.54-2.4,3.07-3.59,4.62a.67.67,0,0,1-.62.31H0ZM18.17,9.53h0v-3c0-.11,0-.25-.12-.31a.86.86,0,0,0-.82.22l-4.94,6.24c-.06.08-.19.16-.14.27s.2.06.31.06h5.26c.29,0,.42-.08.42-.38C18.16,11.61,18.17,10.57,18.17,9.53Z"/><path class="cls-1" d="M81.26,41.16c-.35-.28-.45-.51-.22-.89.56-.94.8-2,1.29-3s.9-1.88,1.44-2.78c.22-.36.39-.77.62-1.13a.35.35,0,0,0,0-.47c-.66-.78-1.3-1.56-1.94-2.35A3.79,3.79,0,0,1,82,29.9a3.66,3.66,0,0,0-.71-1,.78.78,0,0,1,.21-1.1.74.74,0,0,1,.74.31,2.43,2.43,0,0,1,.3.46,9.37,9.37,0,0,0,1.58,2.08,9.5,9.5,0,0,1,.84,1.11c.23.32.33.33.52,0C86,30.8,86.68,30,87.2,29.05a7.37,7.37,0,0,1,.49-.65,5.45,5.45,0,0,0,.79-1.69.79.79,0,0,1,1-.41,1.09,1.09,0,0,1,.45.5.51.51,0,0,1-.12.71A3.05,3.05,0,0,0,89,28.65a2.61,2.61,0,0,1-.48.65c-.5.56-.84,1.24-1.28,1.83s-.58.93-.92,1.37a.36.36,0,0,0,0,.3c.11.59,0,.82-.56,1a.94.94,0,0,0-.52.46,31.73,31.73,0,0,0-1.83,3.58,12.29,12.29,0,0,1-.76,1.84.38.38,0,0,0,0,.41c.24.34.1.63-.09.93a1.17,1.17,0,0,0,0,.11Z"/><path class="cls-1" d="M0,23.81H4.78c.27,0,.37.1.36.36,0,1,.08.83-.79.83s-1.8,0-2.7,0c-.26,0-.34.09-.34.34,0,.69,0,1.39,0,2.08,0,.3.11.37.38.36h3c.4,0,.43,0,.43.43,0,.87.06.75-.74.76H1.68c-.26,0-.37.06-.37.34,0,.81,0,1.63,0,2.44,0,.24.09.32.33.32h3c.32,0,.42.11.42.41,0,.92,0,.78-.79.79H0Z"/><path class="cls-1" d="M25.23,11.24V.88c0-.47,0-.48.47-.48H36.37a12.41,12.41,0,0,1,4.1.58,4.93,4.93,0,0,1,3.36,3.66,8.72,8.72,0,0,1-.14,5A5,5,0,0,1,40.1,13c-.31.09-.32.17-.16.43,1.65,2.73,3.29,5.48,4.92,8.22.09.13.27.28.19.42s-.32.09-.49.09H40.33a.55.55,0,0,1-.56-.32c-1.47-2.64-3-5.28-4.43-7.91a.45.45,0,0,0-.46-.28c-1.55,0-3.1,0-4.65,0-.3,0-.36.12-.36.39q0,3.81,0,7.64c0,.49,0,.49-.49.49H25.65c-.4,0-.42,0-.42-.43Zm8-1.54h2.57a7.26,7.26,0,0,0,1.8-.21,2.06,2.06,0,0,0,1.63-1.38,3.39,3.39,0,0,0,.11-1.67,2,2,0,0,0-1.8-1.9,9.14,9.14,0,0,0-1.87-.2H30.27c-.29,0-.4.07-.4.38,0,1.54,0,3.08,0,4.61,0,.31.11.39.4.38Z"/><path class="cls-1" d="M96.82,0a14.72,14.72,0,0,1,4.2.5,8.2,8.2,0,0,1,6.09,6.34,18.26,18.26,0,0,1,.47,5.57,16.82,16.82,0,0,1-.65,3.92A8,8,0,0,1,101.11,22,16.12,16.12,0,0,1,92.29,22a8,8,0,0,1-5.76-6A18.72,18.72,0,0,1,86,9.81a14.67,14.67,0,0,1,.71-3.88A8.06,8.06,0,0,1,92.28.59,14.64,14.64,0,0,1,96.82,0Zm5.77,11.38a13.18,13.18,0,0,0-.53-4,4.71,4.71,0,0,0-2.84-3.18,7.31,7.31,0,0,0-3-.37,4.87,4.87,0,0,0-4.7,3.53,11.11,11.11,0,0,0-.5,3,14.46,14.46,0,0,0,.43,4.54,4.72,4.72,0,0,0,3.09,3.53,7.44,7.44,0,0,0,2.73.31,4.84,4.84,0,0,0,4.82-3.64A12.53,12.53,0,0,0,102.59,11.38Z"/><path class="cls-1" d="M116.25,22.13h-6c-.45,0-.45,0-.45-.46,0-1,0-2,0-3.05,0-.32.09-.43.42-.43h11a9.31,9.31,0,0,0,1.59-.13c1.38-.24,2.15-.94,2-2.71a1.86,1.86,0,0,0-1.68-1.9,3.57,3.57,0,0,0-.73-.1c-2.28-.12-4.56,0-6.83-.06a10,10,0,0,1-3.07-.52,4.73,4.73,0,0,1-3.26-3.69,9.64,9.64,0,0,1,.1-4.5A5,5,0,0,1,113,.85a11.45,11.45,0,0,1,3.18-.43c4,0,8,0,12,0,.31,0,.39.11.39.4q0,1.56,0,3.12c0,.33-.1.42-.43.42H117.3a6.22,6.22,0,0,0-1.92.25,2.21,2.21,0,0,0-1.63,2,4.25,4.25,0,0,0,0,1.07,1.92,1.92,0,0,0,1.35,1.57,4.31,4.31,0,0,0,1.38.2h6.34a11.83,11.83,0,0,1,3.24.44A4.26,4.26,0,0,1,129.18,13a9.33,9.33,0,0,1,0,5.16A4.86,4.86,0,0,1,126,21.5a11.7,11.7,0,0,1-4,.62C120.07,22.14,118.16,22.13,116.25,22.13Z"/><path class="cls-1" d="M83.5,11.29c0,3.45,0,6.91,0,10.36,0,.48,0,.48-.49.48H79.39c-.53,0-.53,0-.53-.52v-8c0-.52,0-.52-.52-.52H71.06c-.46,0-.46,0-.46.44v8.09c0,.5,0,.5-.51.5H66.38c-.4,0-.42,0-.42-.42Q66,11.26,66,.82c0-.31.1-.42.41-.42H70.2c.32,0,.41.11.41.42q0,3.95,0,7.89c0,.47,0,.47.47.47h7.35c.43,0,.44,0,.44-.44V1c0-.54,0-.54.54-.54h3.68c.32,0,.42.1.42.43C83.49,4.31,83.5,7.8,83.5,11.29Z"/><path class="cls-1" d="M59.1,22.13c-1.26,0-2.52,0-3.78,0a12.21,12.21,0,0,1-3.75-.5,8.13,8.13,0,0,1-5.14-5,12.15,12.15,0,0,1-.75-3.77,19,19,0,0,1,.56-6.05A8,8,0,0,1,53,.66,15.81,15.81,0,0,1,56,.41h7.12c.43,0,.44,0,.44.44V3.73c0,.45,0,.46-.45.46-2.51,0-5,0-7.54,0A4.24,4.24,0,0,0,52.06,5.8,5.67,5.67,0,0,0,51,8.39a15.93,15.93,0,0,0,.06,6.7c.47,1.91,1.57,2.85,3.75,3.11a38.14,38.14,0,0,0,4,.07c1.43,0,2.86,0,4.29,0,.32,0,.41.11.41.42,0,1,0,2,0,3,0,.42,0,.43-.45.43Z"/><path class="cls-1" d="M51.31,27.22A2.57,2.57,0,0,1,54,26.33a1.52,1.52,0,0,1,1,.76c.15.28.23.2.39,0a2.44,2.44,0,0,1,2.37-.83,1.78,1.78,0,0,1,1.56,1.57,5,5,0,0,1,.07.77c0,1.4,0,2.8,0,4.2,0,.41,0,.43-.41.43-1,0-.83.12-.83-.83,0-1.27,0-2.53,0-3.8,0-.78-.3-1.19-.88-1.28a1.52,1.52,0,0,0-1.74.93,2.92,2.92,0,0,0-.15.93c0,1.21,0,2.42,0,3.64,0,.3-.08.42-.4.41-1,0-.8.1-.81-.81,0-1.12,0-2.23,0-3.35a6.36,6.36,0,0,0-.06-.87,1,1,0,0,0-1-.89,1.45,1.45,0,0,0-1.62,1.22,4,4,0,0,0-.11.9V32.8c0,.44,0,.45-.43.45-.92,0-.78.09-.78-.77,0-1.89,0-3.77,0-5.66,0-.43,0-.43.44-.43h0c.71,0,.61,0,.62.61C51.29,27.05,51.3,27.1,51.31,27.22Z"/><path class="cls-1" d="M109.67,31.58c.32-1.17.62-2.27.91-3.36.14-.51.28-1,.41-1.54a.35.35,0,0,1,.39-.29c.92,0,.92,0,1.15.85.35,1.3.68,2.6,1,3.89,0,.09,0,.17.1.35l.57-1.9c.29-1,.58-1.91.85-2.87a.37.37,0,0,1,.43-.32c.87,0,.87,0,.61.82q-.9,2.84-1.77,5.67a.44.44,0,0,1-.5.37c-.85,0-.86,0-1.07-.79-.35-1.31-.73-2.61-1-3.93a.37.37,0,0,0-.12-.22c-.12.42-.23.84-.34,1.26-.29,1.1-.58,2.19-.86,3.29-.07.28-.19.4-.49.39-1,0-.81.17-1.12-.84-.58-1.87-1.15-3.74-1.73-5.61-.12-.41-.12-.41.29-.41,1,0,.8-.16,1.08.83.39,1.36.76,2.73,1.13,4.09Z"/><path class="cls-1" d="M28.45,26.76c-.11.28-.2.51-.28.74s-.14.22-.34.15a1.19,1.19,0,0,0-1.77,1,5.34,5.34,0,0,0-.1,1.13v3.08c0,.42,0,.44-.41.43-1,0-.83.12-.83-.82q0-2.78,0-5.55c0-.48,0-.48.46-.48.73,0,.66-.07.66.67,0,0,0,.08,0,.14S26,27.06,26,27a1.5,1.5,0,0,1,2-.59c.18.08.33.22.55,0s.31,0,.47,0,.25-.07.25-.25c0-.39,0-.78,0-1.17a.36.36,0,0,1,.2-.37l.72-.44c.21-.13.29-.06.29.17,0,.57,0,1.13,0,1.69,0,.28.08.41.37.37h.2c.6,0,.72.16.6.76,0,.13-.09.19-.22.19h-.2c-.74,0-.74,0-.74.77v3.35c0,.59.16.76.77.71.32,0,.4.09.45.37.12.72.1.76-.65.78h-.29a1.32,1.32,0,0,1-1.48-1.46c0-1.39,0-2.79,0-4.19,0-.22-.05-.33-.3-.33C28.5,27.34,28.5,27.33,28.45,26.76Z"/><path class="cls-1" d="M38.34,30.1c0,.67,0,1.34,0,2a2.09,2.09,0,0,0,.21.85c.11.23,0,.3-.19.29H38c-.62,0-.65.12-.82-.59-.07-.26-.18-.12-.27,0a3.59,3.59,0,0,1-1.68.74,3.73,3.73,0,0,1-1.45-.07,1.88,1.88,0,0,1-1.47-1.76,2,2,0,0,1,1.21-1.91,8.16,8.16,0,0,1,2-.42L36.75,29a.35.35,0,0,0,.32-.4,1.16,1.16,0,0,0-1.18-1.28,4.31,4.31,0,0,0-.88,0,1.27,1.27,0,0,0-1.18.95c-.07.24-.18.32-.42.27a5.73,5.73,0,0,0-.58-.07c-.24,0-.29-.12-.23-.34a2.22,2.22,0,0,1,1.53-1.63,4.89,4.89,0,0,1,2.76-.07,1.71,1.71,0,0,1,1.39,1.82V30.1Zm-1.28.22c0-.44,0-.43-.4-.33s-.62.14-.92.2a10.37,10.37,0,0,0-1.37.27.94.94,0,0,0-.72,1,1,1,0,0,0,.83.88A2,2,0,0,0,37.06,30.32Z"/><path class="cls-1" d="M122.85,30.11c0,.67,0,1.34,0,2a1.89,1.89,0,0,0,.19.81c.13.26,0,.33-.22.32h-.29c-.61,0-.66.12-.82-.59-.06-.26-.17-.12-.27,0a3.55,3.55,0,0,1-1.68.74,3.74,3.74,0,0,1-1.45-.07,1.89,1.89,0,0,1-1.47-1.76,2,2,0,0,1,1.21-1.91,7.34,7.34,0,0,1,2-.42c.42-.07.84-.13,1.25-.24a.31.31,0,0,0,.25-.35,1.16,1.16,0,0,0-1.17-1.31,4.31,4.31,0,0,0-.88,0,1.27,1.27,0,0,0-1.19.95.33.33,0,0,1-.45.27,2,2,0,0,0-.35-.05c-.5,0-.53-.08-.34-.61a2.06,2.06,0,0,1,1.23-1.3,4.61,4.61,0,0,1,3.15-.09,1.65,1.65,0,0,1,1.21,1.73c0,.64,0,1.28,0,1.92Zm-1.27.19c0-.42,0-.42-.4-.31l-.66.15a15,15,0,0,0-1.65.32.94.94,0,0,0-.7,1,1,1,0,0,0,.84.87A2,2,0,0,0,121.58,30.3Z"/><path class="cls-1" d="M20.89,30.14H18.64c-.18,0-.28,0-.28.25a2,2,0,0,0,2.52,1.91,1.64,1.64,0,0,0,1.09-1,.43.43,0,0,1,.53-.3,5,5,0,0,0,.54.08c.27,0,.33.14.23.39a2.75,2.75,0,0,1-2.42,1.88,3.28,3.28,0,0,1-2.92-.94,3.11,3.11,0,0,1-.8-1.84,4.91,4.91,0,0,1,.23-2.4,3,3,0,0,1,2.75-1.93,3.05,3.05,0,0,1,3.27,3.11c0,.78,0,.78-.74.78Zm-.62-1h1.56c.22,0,.28-.07.25-.3a1.74,1.74,0,0,0-1.71-1.56,1.81,1.81,0,0,0-1.91,1.51c-.05.23,0,.35.25.35Z"/><path class="cls-1" d="M64.45,30.14H62.27c-.22,0-.29.06-.26.3a2,2,0,0,0,2.48,1.88,1.67,1.67,0,0,0,1.12-1,.41.41,0,0,1,.53-.28l.29,0c.61.09.63.1.36.67a2.67,2.67,0,0,1-2.2,1.61,3.23,3.23,0,0,1-3.21-1.13,3.53,3.53,0,0,1-.66-2,4,4,0,0,1,.77-2.87,3.07,3.07,0,0,1,3.37-.95A2.89,2.89,0,0,1,67,28.89a5.59,5.59,0,0,1,.08.91c0,.25-.09.34-.35.34C66,30.13,65.2,30.14,64.45,30.14Zm-.58-1h1.62c.15,0,.24,0,.23-.21A1.75,1.75,0,0,0,64,27.27a1.84,1.84,0,0,0-1.94,1.59c0,.2,0,.27.23.27Z"/><path class="cls-1" d="M102.14,29.2a1,1,0,0,0,.47-.45,4.18,4.18,0,0,0,.37-.65,1,1,0,0,1,1.71-.15.46.46,0,0,1,.06.54c-.1.2-.27.14-.42.08s-.27.06-.36.16a6,6,0,0,0-1.48,2.74c-.16.65-.23.72-.9.82a.46.46,0,0,1-.56-.54c.06-.54.06-.53-.46-.34a3.55,3.55,0,0,1-1.29.28.47.47,0,0,1-.4-.17,4.07,4.07,0,0,1-.57-.79c-.2-.39-.2-.39-.46,0a4,4,0,0,1-.84.94,1.69,1.69,0,0,1-1.83.27c-.23-.1-.36,0-.44.16-.16.4-.57.65-.64,1.11,0,.13-.17.11-.28.09a.41.41,0,0,1-.36-.4,1.2,1.2,0,0,1,.15-.59,4.8,4.8,0,0,1,.54-.93,1.15,1.15,0,0,0,.24-.78A3.47,3.47,0,0,1,95,28.72a.64.64,0,0,1,.7-.17c.35.16.51.4.41.67a12.39,12.39,0,0,1-.5,1.37.32.32,0,0,0,.06.46c.17.14.34.26.56.15a.65.65,0,0,0,.28-.2,11,11,0,0,1,1-1.15,3.76,3.76,0,0,0,.67-1.43.54.54,0,0,1,.44-.43.57.57,0,0,1,.55.27.47.47,0,0,1,0,.6,1.38,1.38,0,0,0,0,1.28.93.93,0,0,0,1.15.66,4.05,4.05,0,0,0,.47-.12c.32-.09.51-.24.43-.63a2.88,2.88,0,0,1,0-.71,1.23,1.23,0,0,0,0-.57.53.53,0,0,1,0-.41,1.23,1.23,0,0,0,.15-.56.53.53,0,0,1,.53-.46.48.48,0,0,1,.44.62C102.17,28.37,102.28,28.79,102.14,29.2Z"/><path class="cls-1" d="M127,31.63c.39-1.22.87-2.4,1.3-3.6.17-.46.35-.91.5-1.37a.35.35,0,0,1,.38-.27h.56c.37,0,.38,0,.25.37-.35.94-.7,1.88-1.06,2.82-.63,1.66-1.2,3.34-1.9,5a2,2,0,0,1-1.46,1.4l-.12,0c-.84.11-1.2-.25-1.12-1.08,0-.16.08-.17.21-.15a3.88,3.88,0,0,0,.48,0,1,1,0,0,0,1-.67,4,4,0,0,1,.19-.48,1,1,0,0,0,0-.84c-.75-1.94-1.48-3.88-2.22-5.82l-.06-.15c-.15-.42-.15-.44.31-.43,1,0,.78-.19,1.14.8C126,28.67,126.55,30.13,127,31.63Z"/><path class="cls-1" d="M69.52,27.2a2.7,2.7,0,0,1,3-.8,1.89,1.89,0,0,1,1.38,1.81c.07,1.55,0,3.09,0,4.64,0,.29-.09.41-.39.4-1,0-.85.11-.85-.84,0-1.24,0-2.47,0-3.7a1.23,1.23,0,0,0-1-1.35,1.66,1.66,0,0,0-2.14,1.56c-.1,1.3,0,2.6,0,3.9,0,.32-.08.44-.42.43-.92,0-.79.09-.79-.8,0-1.86,0-3.72,0-5.58,0-.48,0-.49.47-.47.21,0,.49-.13.62.11A2.33,2.33,0,0,1,69.52,27.2Z"/><path class="cls-1" d="M7.72,27.1c.09,0,.12-.06.16-.1a2.72,2.72,0,0,1,3-.55,1.83,1.83,0,0,1,1.24,1.81c0,1.56,0,3.12,0,4.68,0,.23-.1.31-.32.31-1.09,0-.88.11-.9-.86s0-2.12,0-3.18v-.33c0-1-.42-1.51-1.23-1.55a1.6,1.6,0,0,0-1.85,1.45c-.13,1.09,0,2.18-.07,3.28V33c0,.19-.07.28-.26.27H7.43c-1,0-.87.11-.88-.84,0-1.86,0-3.72,0-5.59,0-.32.08-.44.42-.43.63,0,.63,0,.71.64C7.68,27.05,7.71,27.07,7.72,27.1Z"/><path class="cls-1" d="M44,27.28a2.68,2.68,0,0,1,3-.93,1.91,1.91,0,0,1,1.52,1.91c0,1.56,0,3.12,0,4.68,0,.2-.06.31-.28.3-1.14,0-.91.12-.93-.85s0-2.21,0-3.31a4.52,4.52,0,0,0-.06-.74,1.09,1.09,0,0,0-.85-1,1.64,1.64,0,0,0-2.17,1.4c-.15,1.26,0,2.53-.07,3.79,0,.72.1.67-.69.67-.52,0-.52,0-.52-.51V26.85c0-.46,0-.46.44-.46.74,0,.64-.05.65.65Z"/><path class="cls-1" d="M75.85,29.78c0-.77,0-1.41,0-2.05,0-.28-.06-.42-.38-.39-.14,0-.36.09-.43-.11a1.14,1.14,0,0,1,0-.73c.06-.16.23-.1.35-.11.46,0,.46,0,.46-.47V25.7c0-1,0-1,.92-1.53.22-.11.29-.08.29.16,0,.58,0,1.15,0,1.72,0,.25.07.38.33.34h.23c.62,0,.74.17.61.78,0,.14-.11.17-.23.17s-.46,0-.68,0-.26.08-.25.26c0,1.34,0,2.68,0,4,0,.41.18.54.6.56.17,0,.41-.12.51.07a2.15,2.15,0,0,1,.15.88c0,.07-.07.11-.13.12a2.81,2.81,0,0,1-1.6-.07,1.16,1.16,0,0,1-.72-1A22.13,22.13,0,0,1,75.85,29.78Z"/><path class="cls-1" d="M14,29.86c0-.82,0-1.51,0-2.19,0-.26-.09-.34-.34-.33s-.39.09-.47-.1a1.11,1.11,0,0,1,0-.74c0-.17.24-.1.37-.1.43,0,.43,0,.44-.43a8,8,0,0,0,0-.85.56.56,0,0,1,.36-.61c.2-.1.39-.23.59-.35s.27-.07.27.16c0,.58,0,1.17,0,1.75,0,.24.07.35.32.32s.26,0,.39,0c.46,0,.46,0,.46.47s0,.48-.48.48c-.68,0-.68,0-.68.7,0,1.05,0,2.1,0,3.15a3.39,3.39,0,0,0,0,.45c.06.41.21.53.63.54.16,0,.4-.11.48.06a1.87,1.87,0,0,1,.16.88c0,.08-.06.11-.13.13a2.7,2.7,0,0,1-1.66-.1,1.1,1.1,0,0,1-.65-.9A22.07,22.07,0,0,1,14,29.86Z"/><path class="cls-1" d="M90,32.08a2.62,2.62,0,0,1-1.14-.27,1.26,1.26,0,0,1-.58-1.42,2.18,2.18,0,0,1,.51-.9c.22-.26.47-.1.71,0a.35.35,0,0,1,.24.46,3.59,3.59,0,0,1-.12.47.47.47,0,0,0,.44.67.68.68,0,0,0,.52-.14,2.82,2.82,0,0,1,.82-.44,2.31,2.31,0,0,0,1.12-1c.06-.1.21-.22.05-.33a.35.35,0,0,0-.43,0c-.21.17-.42.33-.63.51s-.61.44-.92.65a.3.3,0,0,1-.36,0c-.15-.11,0-.22,0-.32a4.11,4.11,0,0,1,2.71-2.06c.41-.1.66.21.9.47a.77.77,0,0,1,.09.94,4.56,4.56,0,0,1-1.65,1.91A5.43,5.43,0,0,1,90,32.08Z"/><path class="cls-1" d="M40,29.79c0-1,0-2,0-3,0-.27.08-.39.37-.38,1,0,.88-.15.88.88,0,1.85,0,3.7,0,5.55,0,.41,0,.43-.42.43-.95,0-.82.12-.83-.83Z"/><path class="cls-1" d="M40,24.5c0-.77-.07-.69.7-.7.55,0,.55,0,.55.56,0,1,.09.83-.72.84-.53,0-.53,0-.53-.54Z"/></g></g></g></svg>