<svg width="95px" height="32px" xmlns="http://www.w3.org/2000/svg" viewBox="0 0 129.87 35.08"><defs><style>.cls-1{fill:#d8d6d6;}</style></defs><g id="Layer_2" data-name="Layer 2"><g id="Layer_2-2" data-name="Layer 2"><g id="asus"><path class="cls-1" d="M60.17,0c0,2.09,0,4.18,0,6.27a2.43,2.43,0,0,1,0,.27c0,.19,0,.22-.23.23H12.38c-.11,0-.27.05-.33,0s.07-.22.13-.31c1-1.54,1.9-3.08,2.91-4.59a5.44,5.44,0,0,1,.73-.93,2.77,2.77,0,0,1,2-.85H29.56c.53,0,.54-.09.54.52,0,1.63,0,3.26,0,4.89a.81.81,0,0,0,0,.33l.26-.69A7.23,7.23,0,0,1,31.53,3a7.53,7.53,0,0,1,5-2.9.5.5,0,0,0,.21,0Z"/><path class="cls-1" d="M122.3,0c0,.12,0,.23,0,.35v6c0,.42,0,.42-.44.42H84.15c-.41,0-.41,0-.41-.42v-6c0-.1,0-.21,0-.32h6.86c0,.13,0,.27,0,.4V6a7.27,7.27,0,0,0,.32-.79,7.14,7.14,0,0,1,1.3-2.41A10.46,10.46,0,0,1,93,2.05,7,7,0,0,1,96.34.19c.34-.07.69-.11,1-.19Z"/><path class="cls-1" d="M68.17,0c0,1,0,2,0,3.05V6.32a2.18,2.18,0,0,1,0,.25c0,.13-.06.2-.19.2H61.71c-.42,0-.42,0-.42-.42v-6c0-.1,0-.21,0-.32Z"/><path class="cls-1" d="M23,35.08a1.48,1.48,0,0,0-.36-.1,1.14,1.14,0,0,1-.5-.26.81.81,0,0,1-.28-.51c0-.23,0-.29.27-.26l.43,0a.37.37,0,0,1,.33.19.33.33,0,0,0,.26.17h.3c.37,0,.51-.18.52-.55v-.39c-.07,0-.09,0-.13,0a1.2,1.2,0,0,1-1.95-.5,2.22,2.22,0,0,1,0-1.68,1.25,1.25,0,0,1,2-.47s0,.05.09,0,0-.09,0-.14.09-.16.2-.16h.24c.38,0,.38,0,.38.37V33.7a2,2,0,0,1,0,.43A1,1,0,0,1,24,35a1.15,1.15,0,0,0-.36.11Zm1-2.95a1.22,1.22,0,0,0-.08-.57.67.67,0,0,0-.62-.4.62.62,0,0,0-.56.47,1.47,1.47,0,0,0,0,.95.59.59,0,0,0,.51.43.63.63,0,0,0,.62-.3A.92.92,0,0,0,23.93,32.13Z"/><path class="cls-1" d="M129.87,3.62a3.24,3.24,0,0,1-.28.9,2.87,2.87,0,0,1-4.57.77,2.74,2.74,0,0,1-.76-2.9,2.77,2.77,0,0,1,2.15-2,2.88,2.88,0,0,1,3.35,1.94,3.57,3.57,0,0,1,.11.47Zm-.27-.4A2.58,2.58,0,0,0,127,.61a2.61,2.61,0,1,0,2.58,2.61Z"/><path class="cls-1" d="M90.62,19.37a8.55,8.55,0,0,1-.54,2A6,6,0,0,1,87.92,24a9.05,9.05,0,0,1-3.75,1.44,2.36,2.36,0,0,1-.38,0H68.44A7,7,0,0,1,64,23.83a7.39,7.39,0,0,1-2.68-4.61,2,2,0,0,0,0-.24A8.52,8.52,0,0,1,61,20.39a7.45,7.45,0,0,1-1.76,2.88,7.17,7.17,0,0,1-2.36,1.59,9.44,9.44,0,0,1-.89.32,5.72,5.72,0,0,1-1.65.23q-15.37,0-30.74,0c-.53,0-.52.05-.52-.51V8.74c0-.55,0-.5.49-.47.63,0,1.26.09,1.89.14l1.67.12,2.07.15.38,0c.17,0,.2.05.21.22a2.43,2.43,0,0,1,0,.27c0,3,0,6.08,0,9.13,0,.45,0,.42.44.42H53.49a2.43,2.43,0,0,0,.6,0,1.21,1.21,0,0,0,.94-1,1.27,1.27,0,0,0-.42-1.29,1.47,1.47,0,0,0-.88-.31l-3.12-.26c-.77-.06-1.55-.11-2.32-.18L46,15.43l-1.58-.13-2.29-.19L40.51,15l-1.66-.14-1.62-.13a7.9,7.9,0,0,1-4.8-2,6.24,6.24,0,0,1-1.66-2.5A9.58,9.58,0,0,1,30.42,9c0-.21,0-.24.2-.22l1.83.13,1.77.14L36,9.22l1.56.12,1.86.15L41,9.61l1.8.15,1.59.12,1.83.15,1.53.12,1.83.15,1.65.12,1.66.14c.54,0,1.08.1,1.62.13a6.74,6.74,0,0,1,3.32,1A8.14,8.14,0,0,1,60,13.79a9.21,9.21,0,0,1,1.27,2.4.1.1,0,0,0,.07.07V7.69c0-.47,0-.48.46-.45l2.63.2,1.73.12,1.75.11c.22,0,.26.06.26.29,0,.38,0,.76,0,1.14v7.29a4.74,4.74,0,0,0,0,.65,1.94,1.94,0,0,0,1.27,1.58,2.3,2.3,0,0,0,.9.18c3.71,0,7.42,0,11.14,0a3.19,3.19,0,0,0,.75-.08,1.92,1.92,0,0,0,1.33-1.16,2.75,2.75,0,0,0,.23-1.13c0-2.4,0-4.79,0-7.19a2.43,2.43,0,0,1,0-.27c0-.18.06-.22.24-.21l2,.14,1,0c.78.06,1.57.08,2.35.13l.83.05c.24,0,.27,0,.28.3v9c0,.23,0,.23.24.23h23.47a2.78,2.78,0,0,0,.85-.16,1.08,1.08,0,0,0,.77-.94,1.46,1.46,0,0,0-.08-.8,1.06,1.06,0,0,0-.58-.58,2,2,0,0,0-.6-.15c-.74-.06-1.49-.11-2.23-.18l-2.32-.19-1.61-.13-2.26-.19-1.51-.13-2.45-.2-1.48-.12-1.78-.15c-.47,0-1-.1-1.42-.11a6.56,6.56,0,0,1-2-.44A7.45,7.45,0,0,1,92,11.45a6.64,6.64,0,0,1-.93-2c-.07-.23,0-.27.21-.27.4,0,.81,0,1.21.07s.83.05,1.24.08c.78.06,1.57.08,2.35.13l2.18.14,1.21.07,2.38.14,1,.06c.76.06,1.53.08,2.29.13l3,.2,2.18.12,2,.14,2,.13a18.77,18.77,0,0,1,2.12.2,6.84,6.84,0,0,1,3.16,1.57,8.63,8.63,0,0,1,2.22,3.09,5.14,5.14,0,0,1,.39,1.68,7.86,7.86,0,0,1-1.95,6,6.83,6.83,0,0,1-3.67,2.15,8.71,8.71,0,0,1-1.9.21H90.79c-.11,0-.17-.06-.17-.17a2.44,2.44,0,0,1,0-.27c0-1.78,0-3.55,0-5.32Z"/><path class="cls-1" d="M4,25.41H.34c-.11,0-.26.05-.33-.06s.07-.2.12-.29l3.26-5,5.76-8.92,2.37-3.68a.47.47,0,0,1,.53-.24c1.17.14,2.34.25,3.51.38l2.82.28.75.1c.18,0,.19.06.1.2-.21.34-.43.67-.64,1l-5.3,8.13L9.23,23.52c-.36.55-.72,1.1-1.07,1.65a.45.45,0,0,1-.44.24C6.48,25.4,5.25,25.41,4,25.41Z"/><path class="cls-1" d="M103.18,31a.58.58,0,0,1-.05.09c-.11.24-.11.24-.37.17a.41.41,0,0,0-.53.23,2,2,0,0,0-.14.8c0,.37,0,.75,0,1.13s0,.31-.31.31h-.38a.18.18,0,0,1-.19-.21c0-.08,0-.16,0-.24V31a1.15,1.15,0,0,1,0-.19c0-.2,0-.22.22-.23h.24c.3,0,.3,0,.41.27a.14.14,0,0,0,.1-.08.7.7,0,0,1,.79-.2,2.11,2.11,0,0,0,.56,0c.12,0,.16-.07.16-.17a3,3,0,0,1,0-.43.74.74,0,0,1,.54-.61,1.67,1.67,0,0,1,1,0,.17.17,0,0,1,.14.2l0,.16c0,.26-.06.28-.33.28h-.13a.34.34,0,0,0-.32.47.13.13,0,0,0,.11.1h.16c.12,0,.27-.06.32.08a.7.7,0,0,1,0,.55c0,.08-.14.08-.22.08-.44,0-.37.1-.37.4v1.84c0,.27,0,.29-.3.29H104c-.24,0-.28,0-.28-.28s0-.25,0-.38c0-.53,0-1.06,0-1.59,0-.25,0-.26-.25-.28A.3.3,0,0,1,103.18,31Z"/><path class="cls-1" d="M62.92,31.55c0-.64,0-1.28,0-1.92,0-.3,0-.32.32-.33.62,0,1.24,0,1.86,0a1.19,1.19,0,0,1,1.14,1,1.4,1.4,0,0,1-.67,1.62,2,2,0,0,1-.84.16,4.87,4.87,0,0,1-.54,0c-.34,0-.34,0-.34.36s0,.64,0,1,0,.33-.34.34h-.27c-.29,0-.31,0-.31-.31s0-.58,0-.87Zm.93-.86h0c0,.12,0,.25,0,.38s0,.22.22.22a5.43,5.43,0,0,0,.7,0,.53.53,0,0,0,.54-.56.55.55,0,0,0-.51-.59,6.77,6.77,0,0,0-.78,0,.15.15,0,0,0-.17.16Z"/><path class="cls-1" d="M93.85,31.53V29.64c0-.31,0-.33.35-.34.61,0,1.22,0,1.83,0a1.18,1.18,0,0,1,1.14,1,1.5,1.5,0,0,1-.12,1.1,1.24,1.24,0,0,1-.92.64,4.35,4.35,0,0,1-.81,0h-.27c-.24,0-.26,0-.27.29v1.13c0,.19,0,.23-.22.24h-.44c-.23,0-.26,0-.27-.27v-2Zm1.47-1.41H95c-.17,0-.2,0-.2.21s0,.51,0,.76,0,.21.23.21a5,5,0,0,0,.67,0,.57.57,0,0,0,.58-.56.59.59,0,0,0-.55-.59A2.67,2.67,0,0,0,95.32,30.12Z"/><path class="cls-1" d="M9.65,30.81l.15-.1a1.23,1.23,0,0,1,1.81.38,2.08,2.08,0,0,1,0,2.09,1.2,1.2,0,0,1-1.81.4l-.08-.06c-.09,0-.07.11-.07.17v.89c0,.39,0,.39-.39.4H9c-.14,0-.21-.06-.22-.2s0-.15,0-.22V30.93c0-.4,0-.4.41-.41h.11C9.54,30.53,9.54,30.53,9.65,30.81Zm0,1.33a1.09,1.09,0,0,0,.15.69.57.57,0,0,0,.58.28.55.55,0,0,0,.48-.38,1.71,1.71,0,0,0,0-1.16.56.56,0,0,0-.48-.38.6.6,0,0,0-.58.27.67.67,0,0,0-.13.38C9.66,31.94,9.66,32,9.66,32.14Z"/><path class="cls-1" d="M46,32.3v.29a2.54,2.54,0,0,0,.11,1c0,.11,0,.18-.11.19h-.54a.23.23,0,0,1-.21-.15c0-.15-.12-.11-.22,0a1.31,1.31,0,0,1-1.1.22.93.93,0,0,1-.74-.88.91.91,0,0,1,.64-.93c.21-.07.42-.11.63-.16l.45-.11c.09,0,.2,0,.21-.17a.35.35,0,0,0-.16-.32.61.61,0,0,0-.8.16.27.27,0,0,1-.31.14l-.4-.07c-.14,0-.16-.07-.11-.22a1,1,0,0,1,.45-.58,1,1,0,0,1,.32-.13,2.61,2.61,0,0,1,1.18,0,.85.85,0,0,1,.69.77C46,31.63,46,32,46,32.3Zm-.88.24v-.06c0-.18,0-.2-.21-.16a4,4,0,0,0-.57.15.33.33,0,0,0-.26.36.39.39,0,0,0,.36.34A.6.6,0,0,0,45.12,32.54Z"/><path class="cls-1" d="M51.93,30.47a1.68,1.68,0,0,1,0,3.36,1.54,1.54,0,0,1-1.66-1.69A1.58,1.58,0,0,1,51.93,30.47Zm-.74,1.72a1.12,1.12,0,0,0,.06.43.68.68,0,0,0,.63.47.64.64,0,0,0,.66-.41,1.24,1.24,0,0,0,0-1.05.67.67,0,0,0-.66-.43.7.7,0,0,0-.62.46A1.29,1.29,0,0,0,51.19,32.19Z"/><path class="cls-1" d="M107.3,32.43h-.75c-.24,0-.29.09-.2.31a.61.61,0,0,0,.68.4.43.43,0,0,0,.33-.25.23.23,0,0,1,.3-.15l.43.07c.19,0,.22.09.12.28a1.17,1.17,0,0,1-.6.6,1.69,1.69,0,0,1-1.41,0,1.22,1.22,0,0,1-.72-.83,2.27,2.27,0,0,1,0-1.41,1.46,1.46,0,0,1,2.71-.12,2.45,2.45,0,0,1,.16.84c0,.2,0,.25-.24.25h-.81Zm-.41-.6h.43c.09,0,.14,0,.13-.16a.61.61,0,0,0-.54-.51.59.59,0,0,0-.58.43c0,.16,0,.23.15.24S106.75,31.83,106.89,31.83Z"/><path class="cls-1" d="M99.58,32.43h-.79c-.2,0-.25.08-.19.27a.6.6,0,0,0,.68.44.43.43,0,0,0,.34-.24.24.24,0,0,1,.32-.16l.43.07c.17,0,.2.09.13.25a1.23,1.23,0,0,1-.66.65,1.8,1.8,0,0,1-1.35,0,1.29,1.29,0,0,1-.72-.76,2.15,2.15,0,0,1,0-1.56,1.45,1.45,0,0,1,2.75.14,3.33,3.33,0,0,1,.1.55c0,.29,0,.34-.31.35Zm-.43-1.27a.58.58,0,0,0-.57.48c0,.11,0,.18.14.18h.89c.08,0,.12-.06.11-.14A.62.62,0,0,0,99.15,31.16Z"/><path class="cls-1" d="M39.42,32.14a1.62,1.62,0,0,1-2,1.65,1.69,1.69,0,1,1,1.47-3A1.56,1.56,0,0,1,39.42,32.14Zm-.89,0a1.25,1.25,0,0,0-.07-.43.73.73,0,0,0-.68-.52.75.75,0,0,0-.68.57,1.67,1.67,0,0,0,0,.77.73.73,0,0,0,.66.56.76.76,0,0,0,.71-.53A1.47,1.47,0,0,0,38.53,32.15Z"/><path class="cls-1" d="M119.12,32.12a1.64,1.64,0,0,1-2.45,1.52,1.36,1.36,0,0,1-.72-.84,2.05,2.05,0,0,1,0-1.25,1.58,1.58,0,0,1,1.84-1.06A1.56,1.56,0,0,1,119.12,32Zm-.89,0a1.27,1.27,0,0,0-.11-.54.69.69,0,0,0-.62-.41.67.67,0,0,0-.62.38,1.24,1.24,0,0,0,0,1.14.66.66,0,0,0,.62.38.68.68,0,0,0,.6-.39A1.18,1.18,0,0,0,118.23,32.15Z"/><path class="cls-1" d="M68.63,32.43h-.81c-.19,0-.22,0-.18.23a.65.65,0,0,0,.5.48.46.46,0,0,0,.55-.28.21.21,0,0,1,.27-.12l.47.08c.18,0,.2.09.12.25a1.25,1.25,0,0,1-.71.66,1.74,1.74,0,0,1-1.27,0,1.32,1.32,0,0,1-.79-.91,2.31,2.31,0,0,1,0-1.4,1.4,1.4,0,0,1,1.45-.94,1.38,1.38,0,0,1,1.3,1,2.91,2.91,0,0,1,.1.59c0,.26,0,.32-.28.32Zm-.42-.6h0c.13,0,.27,0,.4,0s.17,0,.15-.19a.58.58,0,0,0-.54-.48.59.59,0,0,0-.57.44c0,.16,0,.22.18.23S68.08,31.83,68.21,31.83Z"/><path class="cls-1" d="M84.77,32.43H84c-.19,0-.22.07-.17.24a.62.62,0,0,0,.61.48.44.44,0,0,0,.43-.27.24.24,0,0,1,.29-.14l.42.07c.21,0,.24.11.13.3a1.25,1.25,0,0,1-.73.64,1.77,1.77,0,0,1-1.09,0,1.2,1.2,0,0,1-.77-.6,2.06,2.06,0,0,1,0-2,1.46,1.46,0,0,1,2.59.14,1.93,1.93,0,0,1,.15.82c0,.24,0,.27-.26.27Zm-.44-.6h0c.13,0,.25,0,.38,0s.25-.08.18-.28a.57.57,0,0,0-.58-.39.62.62,0,0,0-.53.5c0,.1,0,.16.12.17Z"/><path class="cls-1" d="M120.6,30.84c.09,0,.13-.07.18-.11a1.25,1.25,0,0,1,1.07-.23.9.9,0,0,1,.77.88c0,.73,0,1.46,0,2.19a.18.18,0,0,1-.2.2H122c-.18,0-.22-.05-.22-.24,0-.35,0-.7,0-1.05s0-.5,0-.75-.17-.54-.43-.57a.62.62,0,0,0-.65.46,1.17,1.17,0,0,0,0,.37c0,.49,0,1,0,1.46,0,.29,0,.32-.33.32h-.37a.18.18,0,0,1-.2-.2.92.92,0,0,1,0-.16V30.9a.66.66,0,0,1,0-.14c0-.2,0-.22.25-.23h.24C120.52,30.53,120.52,30.53,120.6,30.84Z"/><path class="cls-1" d="M33.5,30.87a1.44,1.44,0,0,1,1.06-.4.94.94,0,0,1,1,.88,8.48,8.48,0,0,1,0,1.13v1c0,.23-.05.26-.27.27h-.41c-.18,0-.22-.05-.23-.23s0-.39,0-.59c0-.38,0-.76,0-1.14v-.1c0-.33-.16-.52-.41-.55a.61.61,0,0,0-.64.43,2.1,2.1,0,0,0-.07.56v1.32c0,.28,0,.3-.29.3h-.41a.18.18,0,0,1-.18-.19c0-.06,0-.11,0-.16V30.88c0-.06,0-.11,0-.16s.08-.19.2-.19h.25C33.42,30.53,33.42,30.53,33.5,30.87Z"/><path class="cls-1" d="M87.3,30.87a2.22,2.22,0,0,1,.41-.27,1.33,1.33,0,0,1,1-.06.88.88,0,0,1,.6.7,1.83,1.83,0,0,1,0,.4q0,.93,0,1.86c0,.23,0,.26-.27.27h-.4c-.19,0-.22-.05-.23-.23s0-.25,0-.38c0-.5,0-1,0-1.51a.46.46,0,0,0-.49-.49.59.59,0,0,0-.56.46,2,2,0,0,0-.07.54q0,.65,0,1.29c0,.29,0,.32-.3.32h-.38a.19.19,0,0,1-.2-.21V30.94a1.93,1.93,0,0,1,0-.24.15.15,0,0,1,.17-.17h.29C87.23,30.53,87.23,30.53,87.3,30.87Z"/><path class="cls-1" d="M55,30.84a.29.29,0,0,0,.19-.12,1.35,1.35,0,0,1,1-.23.91.91,0,0,1,.81.85,4.05,4.05,0,0,1,0,.7v1.4c0,.31,0,.33-.35.34h-.35a.19.19,0,0,1-.21-.22V32.07c0-.14,0-.27,0-.41,0-.3-.18-.48-.43-.5a.61.61,0,0,0-.62.39,1.88,1.88,0,0,0-.07.53v1.38c0,.28,0,.31-.31.31h-.41a.16.16,0,0,1-.16-.18V33.4c0-.83,0-1.67,0-2.51a.85.85,0,0,1,0-.16c0-.17,0-.19.22-.2h.27C55,30.53,55,30.53,55,30.84Z"/><path class="cls-1" d="M2.55,30.84c.11,0,.16-.09.22-.13A1.34,1.34,0,0,1,4,30.54a.86.86,0,0,1,.59.66,3.25,3.25,0,0,1,.06.45v1.81c0,.28,0,.31-.31.31-.67,0-.57,0-.57-.56s0-1,0-1.56c0-.32-.23-.51-.5-.49a.62.62,0,0,0-.57.49,2.59,2.59,0,0,0-.05.56v1.27c0,.27,0,.29-.3.29H1.91a.18.18,0,0,1-.2-.2v-.08c0-.89,0-1.78,0-2.68,0-.26,0-.28.3-.28H2.2C2.5,30.53,2.5,30.53,2.55,30.84Z"/><path class="cls-1" d="M78.89,30.47a1.79,1.79,0,0,1,.61.07,1,1,0,0,1,.71.61c.06.15,0,.19-.12.23l-.37.08a.28.28,0,0,1-.36-.14.33.33,0,0,0-.24-.17,1.75,1.75,0,0,0-.56,0,.21.21,0,0,0-.2.19c0,.11.08.16.16.19l.44.13a5.78,5.78,0,0,1,.81.24.88.88,0,0,1,.62.8,1,1,0,0,1-.54.93,1.86,1.86,0,0,1-1.18.19,1.69,1.69,0,0,1-.72-.23,1.15,1.15,0,0,1-.48-.56c-.06-.16,0-.2.12-.23s.21,0,.32-.06a.37.37,0,0,1,.5.2.77.77,0,0,0,1,.12.22.22,0,0,0-.06-.4c-.13,0-.26-.07-.39-.11a6.39,6.39,0,0,1-.78-.22.89.89,0,0,1-.64-.88,1,1,0,0,1,.68-.88A1.78,1.78,0,0,1,78.89,30.47Z"/><path class="cls-1" d="M6.6,30.47a1.9,1.9,0,0,1,.67.09,1,1,0,0,1,.63.55c.09.19.07.23-.13.28l-.37.07a.26.26,0,0,1-.33-.14.32.32,0,0,0-.24-.17,1.75,1.75,0,0,0-.56,0,.22.22,0,0,0-.2.19.19.19,0,0,0,.16.19c.21.07.42.12.63.18a3.46,3.46,0,0,1,.69.22.92.92,0,0,1,.23,1.54,1.44,1.44,0,0,1-.83.35,2,2,0,0,1-1-.1A1.19,1.19,0,0,1,5.18,33c-.06-.16,0-.2.13-.24l.48-.08a.24.24,0,0,1,.27.13.73.73,0,0,0,1,.27L7.13,33a.2.2,0,0,0,0-.35,1.12,1.12,0,0,0-.26-.08,6.11,6.11,0,0,1-1-.31.89.89,0,0,1-.51-.53.94.94,0,0,1,.53-1.16l.33-.1A2.37,2.37,0,0,1,6.6,30.47Z"/><path class="cls-1" d="M19.06,30.84c.08,0,.12-.07.18-.11a1.27,1.27,0,0,1,1.23-.18.86.86,0,0,1,.6.84c0,.3,0,.61,0,.92s0,.79,0,1.18,0,.28-.28.28h-.32c-.23,0-.27,0-.27-.27,0-.39,0-.79,0-1.18,0-.21,0-.42,0-.63s-.17-.51-.42-.53a.62.62,0,0,0-.63.41,1.4,1.4,0,0,0-.06.45c0,.47,0,.94,0,1.4s0,.35-.35.36h-.3c-.19,0-.22,0-.23-.23V30.71a.17.17,0,0,1,.19-.18c.12,0,.25,0,.38,0s.21,0,.26.22A.09.09,0,0,0,19.06,30.84Z"/><path class="cls-1" d="M29.81,30.84c.08,0,.11-.06.15-.09a1.24,1.24,0,0,1,1.35-.16.86.86,0,0,1,.53.84c0,.45,0,.9,0,1.35,0,.26,0,.51,0,.76s0,.22-.22.23h-.41c-.2,0-.24-.05-.25-.26V32c0-.11,0-.23,0-.35a.49.49,0,0,0-.4-.48.62.62,0,0,0-.61.31,1,1,0,0,0-.1.47c0,.46,0,.92,0,1.38a1.47,1.47,0,0,1,0,.21c0,.19,0,.23-.22.24h-.49a.18.18,0,0,1-.17-.18V30.76c0-.2,0-.22.22-.23h.25C29.73,30.53,29.73,30.53,29.81,30.84Z"/><path class="cls-1" d="M73.86,30.47a1.85,1.85,0,0,1,.62.07,1,1,0,0,1,.68.61c.06.14,0,.19-.11.23s-.2,0-.3.06-.34.06-.46-.15a.4.4,0,0,0-.38-.16,1.26,1.26,0,0,0-.43,0,.17.17,0,0,0-.15.16.19.19,0,0,0,.12.19,2,2,0,0,0,.47.14,7.08,7.08,0,0,1,.75.22.88.88,0,0,1,.66.79,1,1,0,0,1-.49.93,2,2,0,0,1-2-.07,1.11,1.11,0,0,1-.4-.53c0-.11,0-.18.11-.2l.56-.1c.1,0,.15,0,.21.14a.74.74,0,0,0,1,.27c.1,0,.18-.11.17-.24s-.09-.19-.2-.23l-.52-.13a4,4,0,0,1-.67-.22.82.82,0,0,1-.56-.78.91.91,0,0,1,.52-.88A1.7,1.7,0,0,1,73.86,30.47Z"/><path class="cls-1" d="M109.71,32.13a1.46,1.46,0,0,0,.07.55.58.58,0,0,0,.57.42.54.54,0,0,0,.54-.38c.08-.23.09-.22.33-.19l.38.06c.17,0,.2.08.15.24a1.42,1.42,0,0,1-.52.77,1.66,1.66,0,0,1-2.08-.28,1.78,1.78,0,0,1-.36-1.08,1.74,1.74,0,0,1,.53-1.42,1.59,1.59,0,0,1,2.3.31v0c.16.31.14.37-.2.43l-.18,0c-.28.06-.28.06-.44-.18a.59.59,0,0,0-1,0A1.24,1.24,0,0,0,109.71,32.13Z"/><path class="cls-1" d="M41.29,32.51c.07,0,.07-.09.08-.13.2-.53.39-1.07.59-1.6.09-.25.1-.25.37-.25s.29,0,.43,0,.16.07.12.18-.15.4-.23.61c-.29.73-.58,1.47-.86,2.21a.34.34,0,0,1-.36.25c-.51,0-.51,0-.69-.44l-1-2.49-.06-.15c0-.1,0-.17.11-.17h.62c.14,0,.17.12.21.22.18.51.36,1,.55,1.52A.43.43,0,0,0,41.29,32.51Z"/><path class="cls-1" d="M90.18,32.17V31.5c0-.14,0-.25-.2-.26s-.17-.09-.18-.21v-.25c0-.2,0-.21.23-.26s.16-.08.15-.18c-.07-.38.15-.56.45-.7.09,0,.17-.1.26-.15s.19,0,.2.12,0,.45,0,.67,0,.23.23.24h.11c.17,0,.19,0,.21.22v.13c0,.34,0,.34-.34.37-.18,0-.21,0-.21.23q0,.66,0,1.32c0,.24.07.28.31.27s.23,0,.27.21c.06.41,0,.46-.39.54a1.24,1.24,0,0,1-.43,0,.68.68,0,0,1-.64-.65c0-.1,0-.2,0-.3s0-.46,0-.7Z"/><path class="cls-1" d="M46.81,32.26V31.5c0-.15,0-.25-.2-.26s-.18-.07-.18-.19v-.24c0-.23,0-.24.22-.29s.17-.08.15-.18c-.07-.38.16-.56.45-.7l.17-.09c.25-.15.27-.14.27.16v.52c0,.28,0,.28.29.29s.29,0,.29.3v.11c0,.29,0,.3-.3.32s-.28,0-.28.28c0,.42,0,.84,0,1.26,0,.25.07.29.3.28s.24,0,.27.21c.06.44,0,.47-.4.54a1,1,0,0,1-.46,0,.66.66,0,0,1-.58-.61A6.12,6.12,0,0,1,46.81,32.26Z"/><path class="cls-1" d="M112.4,32.25c0-.25,0-.5,0-.75s0-.25-.2-.26S112,31.15,112,31a1.92,1.92,0,0,1,0-.24c0-.21,0-.22.21-.26a.19.19,0,0,0,.17-.21c0-.46,0-.39.42-.67l.28-.17c.13-.06.17,0,.18.1v.68c0,.24,0,.25.26.26s.32,0,.32.33V31c0,.19,0,.22-.23.23h-.11c-.22,0-.24,0-.24.26v1.24c0,.29.06.33.37.31s.2,0,.22.17v.11c0,.4,0,.41-.38.48l-.3,0a.73.73,0,0,1-.78-.78c0-.27,0-.54,0-.81Z"/><path class="cls-1" d="M81.13,32.3c0-.27,0-.54,0-.81s0-.21-.2-.24-.2-.1-.21-.24V30.8c0-.23,0-.24.24-.27a.17.17,0,0,0,.17-.19v0a.56.56,0,0,1,.39-.65,2.54,2.54,0,0,0,.28-.16c.15-.08.2-.06.21.1s0,.29,0,.44a1.92,1.92,0,0,0,0,.24c0,.21,0,.23.23.24h.13c.13,0,.18.07.18.19s0,.1,0,.16c0,.34,0,.34-.34.37-.18,0-.21,0-.21.23,0,.43,0,.87,0,1.3,0,.26.06.31.31.28s.24,0,.27.22a.92.92,0,0,1,0,.16c0,.26,0,.3-.27.35a1.26,1.26,0,0,1-.64,0,.64.64,0,0,1-.55-.64c0-.28,0-.57,0-.86Z"/><path class="cls-1" d="M28.17,31.55c0,.64,0,1.28,0,1.92,0,.28,0,.3-.31.3H27.5c-.21,0-.25,0-.26-.25a.86.86,0,0,1,0-.16V29.64c0-.31,0-.34.34-.34h.27c.28,0,.31,0,.31.31s0,.38,0,.57Z"/><path class="cls-1" d="M1,31.56v2c0,.13-.06.21-.19.21H.22c-.14,0-.2-.07-.2-.21a.85.85,0,0,0,0-.16V29.68a.86.86,0,0,0,0-.16c0-.15.08-.21.22-.22s.33,0,.49,0,.21.06.22.24v2Z"/><path class="cls-1" d="M15,30.8a.85.85,0,0,1,1-.26c.18.07.2.12.14.3a1.34,1.34,0,0,1-.07.18c0,.11,0,.25-.14.31s-.2,0-.3,0a.42.42,0,0,0-.48.22,1.29,1.29,0,0,0-.13.58c0,.42,0,.84,0,1.27v.21c0,.13-.06.21-.2.21H14.3a.17.17,0,0,1-.19-.18.11.11,0,0,1,0-.05V30.78c0-.21.05-.24.26-.25h.27C14.9,30.53,14.9,30.53,15,30.8Z"/><path class="cls-1" d="M71.14,30.81l.18-.17a.86.86,0,0,1,.91-.07c.07.05.11.1.08.18l-.18.51a.13.13,0,0,1-.19.08l-.15-.05a.42.42,0,0,0-.51.25,1.65,1.65,0,0,0-.12.66c0,.42,0,.85,0,1.27,0,.26,0,.3-.29.3h-.41a.17.17,0,0,1-.18-.19V30.74c0-.17,0-.2.21-.21h.3C71,30.53,71,30.53,71.14,30.81Z"/><path class="cls-1" d="M49.67,32.14c0,.44,0,.88,0,1.32,0,.28,0,.31-.31.31H49a.18.18,0,0,1-.18-.19,1.48,1.48,0,0,1,0-.21V30.72c0-.13.07-.2.21-.19s.3,0,.46,0,.23,0,.24.23,0,.52,0,.79v.59Z"/><path class="cls-1" d="M12.46,32.12V31c0-.44,0-.44.46-.44h.24a.16.16,0,0,1,.18.18c0,.06,0,.13,0,.19v2.51a.85.85,0,0,0,0,.16c0,.14-.08.2-.21.2h-.37c-.27,0-.3,0-.3-.3,0-.45,0-.9,0-1.35Z"/><path class="cls-1" d="M16.51,32.13V30.81c0-.26,0-.28.28-.28s.27,0,.41,0a.17.17,0,0,1,.19.18v.18q0,1.26,0,2.52v.16a.18.18,0,0,1-.2.2h-.46c-.18,0-.21,0-.22-.24v-1.4Z"/><path class="cls-1" d="M76.89,32.16v1.33c0,.25,0,.28-.28.28h-.4a.19.19,0,0,1-.2-.21V30.73a.18.18,0,0,1,.2-.2c.15,0,.31,0,.46,0s.21,0,.22.23v1.4Z"/><path class="cls-1" d="M115.23,32.16v1.32c0,.27,0,.29-.3.29h-.37a.19.19,0,0,1-.21-.2V30.73c0-.17,0-.19.22-.2a3.09,3.09,0,0,1,.43,0c.19,0,.22,0,.23.22s0,.49,0,.73Z"/><path class="cls-1" d="M60.14,31a.91.91,0,0,1,0,1.81.93.93,0,0,1-.93-.92A.9.9,0,0,1,60.14,31Z"/><path class="cls-1" d="M49.2,30.15c-.44,0-.44,0-.44-.43s0-.42.42-.42.5,0,.49.48v.11c0,.22,0,.25-.26.26A1.47,1.47,0,0,1,49.2,30.15Z"/><path class="cls-1" d="M16.94,30.15c-.43,0-.43,0-.43-.43s0-.42.43-.42.46,0,.45.44c0,0,0,0,0,.06,0,.33,0,.35-.34.35Z"/><path class="cls-1" d="M115.23,29.73c0,.42,0,.42-.41.42s-.48,0-.47-.48v-.16a.19.19,0,0,1,.2-.21c.14,0,.29,0,.43,0s.24.05.25.27Z"/><path class="cls-1" d="M76.89,29.77v.08c0,.28,0,.3-.31.3-.13,0-.26,0-.38,0S76,30.08,76,30V29.5c0-.14.08-.19.21-.2s.29,0,.43,0,.23.05.24.25v.22Z"/><path class="cls-1" d="M13.35,29.74c0,.41,0,.41-.42.41s-.47,0-.47-.46v-.08c0-.27,0-.3.32-.31h.11C13.34,29.3,13.35,29.3,13.35,29.74Z"/><path class="cls-1" d="M128,3.39a.72.72,0,0,1,.29.68,2,2,0,0,0,.11.72c0,.07,0,.12-.08.13h-.21c-.18,0-.23,0-.25-.22s0-.25,0-.38a1.51,1.51,0,0,0,0-.3c0-.3-.15-.4-.46-.41s-.46,0-.7,0-.26,0-.26.27V4.7c0,.19-.07.24-.25.23s-.19,0-.2-.18V2a.17.17,0,0,1,.18-.17,8.67,8.67,0,0,1,1.53,0A.83.83,0,0,1,128.25,3C128.19,3.16,128.05,3.24,128,3.39Zm-1-.21h.38a.46.46,0,0,0,.5-.45.46.46,0,0,0-.47-.54c-.28,0-.56,0-.83,0-.11,0-.18,0-.18.16V3a.15.15,0,0,0,.17.17Z"/></g></g></g></svg>