<svg width="95px" height="32px" xmlns="http://www.w3.org/2000/svg" viewBox="0 0 129.36 19.03"><defs><style>.cls-1{fill:#d8d6d6;}</style></defs><g id="Layer_2" data-name="Layer 2"><g id="Layer_2-2" data-name="Layer 2"><g id="barnes_noble" data-name="barnes&amp;noble"><path class="cls-1" d="M85.77,8.82c-.1-2.61,0-5.24,0-7.86,0-.66,0-.66.67-.66s1.27,0,1.91,0c.35,0,.48.14.46.47a2.43,2.43,0,0,0,0,.27V17.92c0,.73,0,.73-.74.73-.53,0-1.06,0-1.6,0a.51.51,0,0,1-.59-.45c-.74-2.74-1.67-5.44-2.3-8.21a.51.51,0,0,0-.07-.15c.14,2.69,0,5.37.07,8,0,.75,0,.75-.75.75h-2c-.3,0-.43-.12-.42-.42,0-.1,0-.21,0-.31V1c0-.73,0-.73.73-.73h1.65c.72,0,.72,0,.89.67l2,7.73A.61.61,0,0,0,85.77,8.82Z"/><path class="cls-1" d="M35.21,9.93c.08,2.14,0,4.27,0,6.4,0,.59,0,1.19,0,1.78,0,.39-.1.57-.53.55-.69,0-1.39,0-2.09,0-.42,0-.53-.16-.53-.55,0-2.67,0-5.33,0-8V1c0-.65,0-.65.63-.65s1.28,0,1.91,0c.42,0,.6.13.7.54.7,2.69,1.43,5.38,2.17,8.07,0-.35-.06-.7-.06-1.05,0-2.34,0-4.68,0-7,0-.4.12-.56.53-.54.67,0,1.33,0,2,0,.35,0,.47.13.47.47,0,1.32,0,2.64,0,4V18c0,.64,0,.64-.64.64s-1.1,0-1.65,0a.51.51,0,0,1-.59-.45c-.74-2.7-1.63-5.35-2.28-8.08Z"/><path class="cls-1" d="M27,9.26c1.53.78,1.83,2.14,2,3.57a25.33,25.33,0,0,1,.08,2.75,15.81,15.81,0,0,0,.2,2.66c.05.33-.06.42-.37.42-.83,0-1.66,0-2.49,0-.38,0-.51-.16-.57-.5a22.72,22.72,0,0,1-.17-3.59,9.49,9.49,0,0,0-.11-2.13A2.16,2.16,0,0,0,24.69,11c-.15-.09-.31-.21-.49-.13s-.14.31-.14.48V18c0,.61,0,.61-.63.61s-1.48,0-2.22,0c-.35,0-.5-.11-.5-.48q0-8.71,0-17.43c0-.34.13-.46.47-.46,1.59,0,3.18,0,4.76,0a3.37,3.37,0,0,1,3.35,2.83,7.69,7.69,0,0,1,0,3.57A3.15,3.15,0,0,1,27,9.26Zm-3-4c0,.71,0,1.42,0,2.13,0,.39.13.55.51.51h.36c.7,0,.95-.19,1.06-.87a9,9,0,0,0-.06-3.27c-.18-.86-.57-1.12-1.45-1.1-.31,0-.42.11-.42.42C24.07,3.78,24.06,4.51,24.06,5.24Z"/><path class="cls-1" d="M108.6,8.88a3.17,3.17,0,0,1,2.05,2.55,8.79,8.79,0,0,1,0,3.92,3.78,3.78,0,0,1-3.93,3.29c-1.37,0-2.75,0-4.13,0-.35,0-.46-.14-.46-.48q0-8.71,0-17.42c0-.23,0-.47.32-.46a44.11,44.11,0,0,1,4.88.09A3,3,0,0,1,110,2.49a8.25,8.25,0,0,1,.23,4.38A2.49,2.49,0,0,1,108.6,8.88Zm-3.18,4.3v2.75c0,.17,0,.37.18.46a1.15,1.15,0,0,0,1.61-.85,13.38,13.38,0,0,0,0-4.42c-.12-.77-.5-1-1.28-1.08-.38,0-.54.07-.53.48C105.44,11.41,105.42,12.3,105.42,13.18Zm0-8.09V7.26c0,.16,0,.33.18.41A1.05,1.05,0,0,0,107,6.88,9.06,9.06,0,0,0,107,3.4a1,1,0,0,0-1.14-.86c-.31,0-.43.11-.42.42C105.43,3.67,105.42,4.38,105.42,5.09Z"/><path class="cls-1" d="M6.37,8.86a3,3,0,0,1,2,2.1,8.32,8.32,0,0,1,.11,4.69,3.73,3.73,0,0,1-3.89,3c-1.36,0-2.73,0-4.09,0-.35,0-.46-.14-.46-.48C0,12.38,0,6.57,0,.77,0,.54,0,.3.32.3c1.51,0,3-.08,4.53,0A3.14,3.14,0,0,1,8,3.21a8.7,8.7,0,0,1,.07,3.52A2.51,2.51,0,0,1,6.37,8.86ZM3.24,13.2V16c0,.16,0,.36.2.44A1.14,1.14,0,0,0,5,15.53a13.63,13.63,0,0,0,0-4.37c-.12-.82-.52-1.09-1.34-1.12-.35,0-.48.1-.47.45C3.25,11.39,3.24,12.29,3.24,13.2Zm0-8.11V7.27c0,.15,0,.32.19.4a1,1,0,0,0,1.42-.75,8.59,8.59,0,0,0-.06-3.57c-.13-.6-.47-.8-1.09-.81-.35,0-.47.13-.46.47C3.25,3.7,3.24,4.4,3.24,5.09Z"/><path class="cls-1" d="M99.82,9.29A31.63,31.63,0,0,1,99.21,16a7.65,7.65,0,0,1-.31.92A3.14,3.14,0,0,1,95.69,19a7.46,7.46,0,0,1-1.16,0A3,3,0,0,1,92.07,17a12.94,12.94,0,0,1-.82-3.94A53.63,53.63,0,0,1,91.18,7a15.27,15.27,0,0,1,.69-4.69A3.06,3.06,0,0,1,95.07,0,7.35,7.35,0,0,1,96.62.1,2.89,2.89,0,0,1,98.8,1.74a9.84,9.84,0,0,1,.82,3.53C99.74,6.65,99.76,8.05,99.82,9.29Zm-5.24.14c0,1.57,0,3.15,0,4.72a13,13,0,0,0,.18,2.07c.06.39.23.68.68.69s.57-.27.64-.65a15.19,15.19,0,0,0,.17-2.43c.11-3.38.12-6.76,0-10.13A3.91,3.91,0,0,0,96,2.39a.62.62,0,0,0-1.11,0,2.13,2.13,0,0,0-.13.43,10.53,10.53,0,0,0-.18,1.94C94.57,6.29,94.58,7.86,94.58,9.43Z"/><path class="cls-1" d="M75.25,8.22h2.09c.21,0,.46-.05.5.29s-.18.39-.43.45l-1,.26a.39.39,0,0,0-.32.49A9.07,9.07,0,0,1,75,15.28a.43.43,0,0,0,0,.53,10.09,10.09,0,0,0,1.25,1.44,2.37,2.37,0,0,0,1.85.58c.17,0,.37-.06.51.09s.11.5-.22.67a4.13,4.13,0,0,1-4.77-.74c-.57-.56-.56-.53-1.25-.12a7.75,7.75,0,0,1-8.27.16A4.6,4.6,0,0,1,63,11.14a7.2,7.2,0,0,1,2.29-2c.31-.18.32-.3.11-.56A10.16,10.16,0,0,1,64,6.5a4.91,4.91,0,0,1-.3-3.59A4.4,4.4,0,0,1,67.67.05a5,5,0,0,1,3.54.86,2.81,2.81,0,0,1,1.11,1.71,4.18,4.18,0,0,1-1.56,4.43,8.79,8.79,0,0,1-1.62,1.08c-.34.16-.33.31-.11.56q2,2.31,4,4.64c.25.28.5.55.73.84s.3.2.43-.07a7.16,7.16,0,0,0,.6-2.62,7.71,7.71,0,0,0-.05-1.73.61.61,0,0,0-.54-.56L73,8.94a.39.39,0,0,1-.35-.47c0-.29.25-.25.44-.25ZM68.7,17.48a4.92,4.92,0,0,0,2.88-.87c.32-.22.36-.38.1-.69C70.06,14,68.45,12,66.86,10.06c-.26-.31-.41-.27-.65,0a5,5,0,0,0-1.36,3.6A3.53,3.53,0,0,0,68.7,17.48Zm-2.78-14a6,6,0,0,0,2,3.86c.19.21.35,0,.49-.08a4.65,4.65,0,0,0,1.8-3.39,2.71,2.71,0,0,0-.75-2.16,2.08,2.08,0,0,0-2.27-.38A2.18,2.18,0,0,0,65.92,3.51Zm-1.21.68c0,.2,0,.27,0,.34a4.11,4.11,0,0,0,1.09,2.61q3.82,4.54,7.67,9.08c.08.1.15.26.35.24a1.7,1.7,0,0,0-.33-.9c-1.45-1.74-2.93-3.46-4.33-5.23C67.61,8.37,65.66,6.72,64.71,4.19Z"/><path class="cls-1" d="M17.11,18.66c-.43,0-.86,0-1.29,0s-.47-.15-.5-.46c-.06-.64-.15-1.27-.19-1.9,0-.41-.16-.64-.62-.59a5.35,5.35,0,0,1-1,0c-.34,0-.47.14-.5.47-.06.66-.15,1.32-.21,2,0,.36-.17.52-.56.5-.64,0-1.27,0-1.91,0-.37,0-.51-.11-.45-.49q.87-6,1.73-11.9c.27-1.88.55-3.75.81-5.63.05-.33.17-.46.51-.45q1.16,0,2.31,0c.35,0,.49.11.55.46Q16.89,7.12,18,13.56c.26,1.52.51,3,.77,4.55.09.51.07.54-.43.55ZM14,6.07c-.23,2.45-.46,4.84-.69,7.22,0,.23,0,.34.28.34s.59,0,.88,0,.37-.13.34-.41C14.56,10.85,14.29,8.49,14,6.07Z"/><path class="cls-1" d="M54,12.4c.34,0,.68,0,1,0s.48.07.43.45a9.65,9.65,0,0,0,0,2.84c.1.62.38.94.84,1s.84-.11,1-.67a4.88,4.88,0,0,0-.56-4,31.09,31.09,0,0,0-2.07-2.66,13.52,13.52,0,0,1-2-3.28,5.26,5.26,0,0,1,0-3.9,3.08,3.08,0,0,1,2.29-2,5.21,5.21,0,0,1,2.85.1,2.91,2.91,0,0,1,1.77,1.47,5.22,5.22,0,0,1,.4,3.5.48.48,0,0,1-.55.45c-.63,0-1.27,0-1.91,0-.36,0-.49-.14-.43-.48a7.34,7.34,0,0,0,0-2,3,3,0,0,0-.08-.43.73.73,0,0,0-1.45,0,4.39,4.39,0,0,0,.58,3.37c.5.77,1.11,1.46,1.67,2.19a21.6,21.6,0,0,1,2.2,3.17,5.92,5.92,0,0,1-.12,5.63A3.33,3.33,0,0,1,56.7,19a5.6,5.6,0,0,1-1.58-.13,3.69,3.69,0,0,1-2.8-3.64,9.85,9.85,0,0,1,.06-2.3A.54.54,0,0,1,53,12.4c.32,0,.65,0,1,0Z"/><path class="cls-1" d="M122.1,9.44V.91c0-.61,0-.61.62-.61,1.87,0,3.74,0,5.6,0,.42,0,.59.12.57.55s0,1.16,0,1.74c0,.41-.14.54-.54.52-.83,0-1.66,0-2.49,0-.33,0-.45.11-.45.44,0,1.32,0,2.64,0,4,0,.38.15.48.51.47.68,0,1.36,0,2,0,.35,0,.52.11.5.49,0,.57,0,1.15,0,1.73,0,.35-.14.47-.47.47-.7,0-1.39,0-2.09,0-.37,0-.49.13-.49.49,0,1.43,0,2.85,0,4.27,0,.35.12.47.47.47,1,0,2,0,2.93,0,.39,0,.57.1.55.53,0,.62,0,1.24,0,1.86,0,.3-.11.43-.42.42-2.13,0-4.26,0-6.4,0-.42,0-.43-.24-.43-.55Z"/><path class="cls-1" d="M43.31,9.45c0-2.86,0-5.72,0-8.58,0-.44.12-.59.58-.58,1.86,0,3.73,0,5.6,0,.41,0,.58.11.56.55,0,.61,0,1.22,0,1.82,0,.33-.13.44-.45.44-.84,0-1.69,0-2.53,0-.36,0-.51.09-.5.47,0,1.31,0,2.61,0,3.91,0,.37.11.51.48.49.72,0,1.43,0,2.14,0,.36,0,.5.14.49.5,0,.58,0,1.16,0,1.73,0,.33-.13.46-.45.45H47c-.32,0-.48.08-.48.45,0,1.43,0,2.87,0,4.31,0,.34.12.47.47.47,1,0,2,0,3,0,.39,0,.53.13.51.52,0,.61,0,1.21,0,1.82,0,.34-.11.48-.46.48-2.1,0-4.21,0-6.31,0-.42,0-.49-.18-.49-.54Q43.32,13.79,43.31,9.45Z"/><path class="cls-1" d="M113.12,9.47V.89c0-.59,0-.59.6-.59s1.48,0,2.23,0c.58,0,.59,0,.59.6v14c0,.12,0,.24,0,.36-.06.41.1.57.54.56.94,0,1.89,0,2.84,0,.39,0,.53.13.52.52,0,.6,0,1.21,0,1.82,0,.33-.11.48-.46.48-2.14,0-4.27,0-6.4,0-.45,0-.46-.25-.46-.57Z"/></g></g></g></svg>