<svg width="95px" height="32px" xmlns="http://www.w3.org/2000/svg" viewBox="0 0 130.54 23.03"><defs><style>.cls-1{fill:#d8d6d6;}</style></defs><g id="Layer_2" data-name="Layer 2"><g id="Layer_2-2" data-name="Layer 2"><g id="blackberry"><path class="cls-1" d="M130.54,6.76c-.37.51-.66,1.08-1,1.62-1,1.63-1.92,3.26-2.88,4.88l-5.31,9a1.83,1.83,0,0,0-.16.26c-.14.43-.44.5-.85.48-.8,0-1.6,0-2.4,0-.12,0-.29.07-.36-.06s.08-.22.14-.32l2.67-4.6a.81.81,0,0,0,.11-.59c-.33-2-.65-4-1-6-.19-1.18-.38-2.36-.62-3.55l-.33,1.5c-.08.41-.08.41-.48.35a2.32,2.32,0,0,0-2.82,1.91c-.48,2.15-.93,4.31-1.4,6.47-.1.45-.09.46-.55.46h-2.46c-.18,0-.26,0-.21-.25q.69-3.1,1.35-6.22a9.81,9.81,0,0,1,.74-2.36,5.23,5.23,0,0,1,3.73-2.9,8.61,8.61,0,0,1,2-.21c1.06,0,2.12,0,3.18,0,.23,0,.34.06.37.31q.38,2.91.78,5.82a5.25,5.25,0,0,0,.17,1c.21-.37.41-.69.6-1l2.5-4.37.93-1.6a.28.28,0,0,1,.27-.17h3.23Z"/><path class="cls-1" d="M0,9.53c.22-1,.45-2,.67-3l.15-.69c0-.11.07-.21.2-.2a24.32,24.32,0,0,1,3.62.08A1.7,1.7,0,0,1,6.27,7.18,2.05,2.05,0,0,1,5,9.34a4.84,4.84,0,0,1-1.84.34c-.95,0-1.91,0-2.87,0a.52.52,0,0,1-.3,0Z"/><path class="cls-1" d="M89.17,10.8a3.91,3.91,0,0,1,.61.43,3.47,3.47,0,0,1,1,3.73A4.61,4.61,0,0,1,87.86,18a7,7,0,0,1-3,.55,18.06,18.06,0,0,1-2.55-.06,3.69,3.69,0,0,1-3.18-2.58,4.12,4.12,0,0,1,0-2.12c.46-2.14.93-4.28,1.39-6.42a.32.32,0,0,0,0-.27A12,12,0,0,0,79.38,8l-4.24,3.55a.28.28,0,0,0-.08.43q1.31,2.55,2.59,5.1c.21.41.42.82.64,1.22.1.2.06.27-.16.27h-3a.33.33,0,0,1-.34-.22c-.68-1.43-1.36-2.86-2.06-4.28-.25-.5-.15-.44-.54-.14s-.68.55-1,.81a.61.61,0,0,0-.23.37c-.22,1.06-.46,2.12-.68,3.19,0,.21-.15.27-.35.27H67.32c-.32,0-.33,0-.26-.33.62-2.89,1.25-5.78,1.87-8.67l1.29-6c0-.2.12-.28.33-.28.88,0,1.76,0,2.63,0,.25,0,.28.11.23.31l-.87,4-.66,3a.56.56,0,0,0,0,.13,1.72,1.72,0,0,0,.45-.34l4-3.63a.57.57,0,0,1,.45-.16h3.52c.22,0,.32-.06.37-.29.18-.92.39-1.83.58-2.75,0-.21.13-.29.35-.29,1.81,0,3.62,0,5.43,0a6.19,6.19,0,0,1,3.11.75,3.48,3.48,0,0,1,1.39,4.54,4.08,4.08,0,0,1-2.12,2l-.21.1S89.21,10.76,89.17,10.8Zm-5.4,4.67a13.38,13.38,0,0,0,1.76-.06,2.49,2.49,0,0,0,1.61-.78,1.36,1.36,0,0,0-.32-2.11,2.24,2.24,0,0,0-.84-.27c-1-.11-2,0-3.07-.05-.17,0-.2.11-.23.23-.19.93-.39,1.86-.59,2.78,0,.22,0,.26.21.26Zm1.3-6.37h0c.46,0,.91,0,1.36,0a2.65,2.65,0,0,0,1.34-.37,1.23,1.23,0,0,0,.6-1.53,1.26,1.26,0,0,0-1.15-.73c-1-.12-2,0-3,0-.18,0-.21.11-.24.24-.15.74-.3,1.48-.47,2.22,0,.18,0,.23.18.23Z"/><path class="cls-1" d="M29.77,18.57a8.83,8.83,0,0,1-2-.11,3.61,3.61,0,0,1-3-2.83,4.82,4.82,0,0,1,.09-2.17q1-4.41,1.93-8.84c.07-.34.17-.68.22-1s.14-.29.36-.29c1.81,0,3.62,0,5.43,0a6.65,6.65,0,0,1,2.33.41,3.63,3.63,0,0,1,2.22,2,3.7,3.7,0,0,1-.88,4,4.58,4.58,0,0,1-1.39.91c-.16.07-.22.13,0,.24a3.54,3.54,0,0,1,1.38,4.16,4.73,4.73,0,0,1-3,3,7.29,7.29,0,0,1-2.92.48Zm-.25-3.1a12.94,12.94,0,0,0,1.73-.06,2.45,2.45,0,0,0,1.66-.83,1.42,1.42,0,0,0-.1-1.87,2,2,0,0,0-1.14-.46c-1-.11-2,0-3-.05-.16,0-.22.1-.26.24-.19.93-.39,1.85-.59,2.78-.05.21,0,.25.23.25ZM30.83,9.1h1.31a2.74,2.74,0,0,0,1.37-.38,1.27,1.27,0,0,0,.68-1.05A1.21,1.21,0,0,0,33,6.46c-1-.1-2,0-3.05,0a.2.2,0,0,0-.24.18c-.15.76-.31,1.52-.48,2.27-.05.21,0,.24.21.24Z"/><path class="cls-1" d="M99.41,13.91H95.47c-.33,0-.35,0-.26.35a2.31,2.31,0,0,0,2.05,1.67,2.83,2.83,0,0,0,1.69-.3,2,2,0,0,0,.83-.77c0-.11.14-.11.24-.11h3.13c.22,0,.24.09.17.28a5.58,5.58,0,0,1-4.73,3.71A6.69,6.69,0,0,1,95,18.31a4.76,4.76,0,0,1-2.64-2.78,6.53,6.53,0,0,1,.15-5.2,6.37,6.37,0,0,1,9.1-2.83,4.85,4.85,0,0,1,2.23,3.35,6.55,6.55,0,0,1-.11,2.82c-.05.21-.17.25-.36.25Zm-1.27-2.66h2.27c.21,0,.27-.06.21-.27a1.73,1.73,0,0,0-1.07-1.22A3,3,0,0,0,95.78,11c0,.07-.13.14-.09.23s.16.05.24.05Z"/><path class="cls-1" d="M52.12,18.57H50.77c-.2,0-.29-.07-.29-.27s0-.48-.09-.54-.29.17-.44.26a5,5,0,0,1-4.45.49,3.47,3.47,0,0,1-2.26-4.26,3.4,3.4,0,0,1,1.9-2.14A13.11,13.11,0,0,1,49.31,11a8.91,8.91,0,0,0,1.83-.39,1.75,1.75,0,0,0,.28-.13.45.45,0,0,0,.08-.78,1.58,1.58,0,0,0-1-.33,2.88,2.88,0,0,0-2.74,1.12.26.26,0,0,1-.25.11c-1,0-2.05,0-3.08,0-.22,0-.24-.09-.16-.28A5.68,5.68,0,0,1,47.72,7a7.7,7.7,0,0,1,4.7-.14A3.13,3.13,0,0,1,54.6,8.72a3.82,3.82,0,0,1,.11,2.34c-.31,1.49-.64,3-1,4.46a6.32,6.32,0,0,0,0,2.77c.05.23,0,.29-.24.29Zm-4.38-2.63a3.82,3.82,0,0,0,1.93-.5A2.73,2.73,0,0,0,51,13.55c0-.2,0-.28-.22-.24-1,.15-1.93.26-2.88.47a2.78,2.78,0,0,0-1.25.56.76.76,0,0,0,0,1.17A1.58,1.58,0,0,0,47.74,15.94Z"/><path class="cls-1" d="M65.78,11.48H64.39c-.14,0-.23,0-.27-.17a2.42,2.42,0,0,0-2.77-1.59,3.22,3.22,0,0,0-2.59,2.84,2.79,2.79,0,0,0,.57,2.33,2.2,2.2,0,0,0,2,.81,2.32,2.32,0,0,0,2-1.35.32.32,0,0,1,.31-.18h3c.19,0,.26,0,.21.26a5.62,5.62,0,0,1-4.75,4.29,7,7,0,0,1-3.71-.42A4.73,4.73,0,0,1,55.65,15a6.78,6.78,0,0,1,.54-5,6,6,0,0,1,4.22-3.25,6.58,6.58,0,0,1,4.69.56,4.13,4.13,0,0,1,2.38,3.82c0,.35,0,.36-.37.35l-.68,0Z"/><path class="cls-1" d="M41.59,3.35h1.2c.37,0,.37,0,.3.35L41.77,9.79l-1.08,5.05c-.16.75.16,1.16.93,1.2.32,0,.64,0,1,0s.21.05.18.22c-.17.72-.32,1.44-.47,2.17a.36.36,0,0,1-.35.31,4.76,4.76,0,0,1-2.69-.25,2.79,2.79,0,0,1-1.72-2.34,6.14,6.14,0,0,1,.18-2.22c.32-1.51.65-3,1-4.51.42-1.92.84-3.83,1.24-5.74.06-.25.15-.35.42-.34S41.17,3.35,41.59,3.35Z"/><path class="cls-1" d="M111.2,6.64a11.35,11.35,0,0,1,1.36.09c.19,0,.25.1.21.29-.19.83-.37,1.67-.54,2.5,0,.19-.14.19-.28.17a4.36,4.36,0,0,0-1.25,0,2.44,2.44,0,0,0-2.1,1.95c-.3,1-.48,2-.7,3.05-.27,1.2-.52,2.41-.77,3.62a.32.32,0,0,1-.39.3c-.83,0-1.67,0-2.5,0-.32,0-.34,0-.28-.32l.84-3.92c.23-1,.43-2.07.68-3.09A6.56,6.56,0,0,1,107,8.36,5.28,5.28,0,0,1,110.3,6.7,4.85,4.85,0,0,1,111.2,6.64Z"/><path class="cls-1" d="M17.56,7.39H15.94c-.24,0-.31-.08-.26-.31.25-1.15.5-2.3.74-3.45a.35.35,0,0,1,.42-.33c1,0,2.05,0,3.08,0a2.48,2.48,0,0,1,1.41.49,2,2,0,0,1-.15,2.91,3.53,3.53,0,0,1-2.11.64C18.57,7.41,18.06,7.39,17.56,7.39Z"/><path class="cls-1" d="M8.46,15.53H6.81c-.21,0-.28-.07-.23-.28.26-1.18.51-2.35.76-3.52a.3.3,0,0,1,.36-.28c1,0,1.91,0,2.87,0a2.84,2.84,0,0,1,1.43.33,1.88,1.88,0,0,1,.32,2.84,3,3,0,0,1-2,.86C9.65,15.56,9,15.52,8.46,15.53Z"/><path class="cls-1" d="M16.57,13.24h-1.8c-.19,0-.24-.06-.2-.25.26-1.17.52-2.34.76-3.51.05-.25.15-.32.4-.31h2.43a4.68,4.68,0,0,1,1.29.14,1.59,1.59,0,0,1,1.31,1.26,2,2,0,0,1-.62,2,3,3,0,0,1-1.64.66A16.19,16.19,0,0,1,16.57,13.24Z"/><path class="cls-1" d="M9.49,9.68H7.94c-.28,0-.31,0-.26-.3.25-1.14.5-2.27.74-3.42a.39.39,0,0,1,.45-.37c.92,0,1.84,0,2.76,0a2.81,2.81,0,0,1,1.64.45,1.93,1.93,0,0,1,0,2.91,3.23,3.23,0,0,1-1.83.67C10.74,9.7,10.07,9.67,9.49,9.68Z"/><path class="cls-1" d="M3,4.06H1.32C1.1,4.06,1,4,1.07,3.75c.25-1.15.5-2.31.74-3.46A.3.3,0,0,1,2.16,0h3A2.73,2.73,0,0,1,6,.15,1.62,1.62,0,0,1,7.29,1.6,2,2,0,0,1,6.5,3.45a3.37,3.37,0,0,1-2,.6c-.52,0-1,0-1.56,0Z"/><path class="cls-1" d="M10.62,4.05H8.93c-.21,0-.26-.07-.22-.27C9,2.61,9.22,1.43,9.47.25c0-.17.11-.25.29-.25h3.13a2.43,2.43,0,0,1,1.42.46,1.9,1.9,0,0,1,.06,2.79,3.26,3.26,0,0,1-2.21.79C11.65,4.07,11.13,4.05,10.62,4.05Z"/></g></g></g></svg>