<svg width="95px" height="32px" xmlns="http://www.w3.org/2000/svg" viewBox="0 0 129.89 15.2"><defs><style>.cls-1{fill:#d8d6d6;}</style></defs><g id="Layer_2" data-name="Layer 2"><g id="Layer_2-2" data-name="Layer 2"><g id="bose"><path class="cls-1" d="M44.35,0a3.61,3.61,0,0,1,.49.21,1.64,1.64,0,0,1,.83,2.05,5.27,5.27,0,0,1-.52,1L43.66,5.79a4,4,0,0,1-2.77,2l-.09,0s0,0,0,0a1.52,1.52,0,0,1,.37,2c-.41.79-.86,1.54-1.3,2.3-.29.5-.57,1-.88,1.47a3.27,3.27,0,0,1-2.69,1.47H.37c-.13,0-.31.08-.36-.06s.13-.19.21-.28c.66-.65,1.32-1.3,2-2a.75.75,0,0,1,.61-.25H18.6a.57.57,0,0,0,.57-.32q3.52-6,7.08-12L26.46,0Zm-14,12.64h2a1.73,1.73,0,0,0,1.59-.86c.29-.48.59-.95.89-1.43a2.41,2.41,0,0,0,.29-.68c.1-.5-.12-.78-.62-.78h-4a.41.41,0,0,0-.39.22c-.65,1.11-1.32,2.22-2,3.32-.1.17-.09.23.12.23Zm3.88-6.35h2.06a1.6,1.6,0,0,0,1.42-.8l1-1.54a1.74,1.74,0,0,0,.22-.48c.17-.63-.05-.94-.69-.94H34.22a.33.33,0,0,0-.34.19c-.66,1.11-1.31,2.22-2,3.32-.12.21-.08.26.15.25Z"/><path class="cls-1" d="M68.08,0a2.93,2.93,0,0,1,1,.51,1.48,1.48,0,0,1,.37,2c-.29.54-.62,1.06-.93,1.59l-5,8.41a8.17,8.17,0,0,1-1.27,1.71,3.44,3.44,0,0,1-2.49,1h-16a2.31,2.31,0,0,1-1.18-.28,1.31,1.31,0,0,1-.65-1.4,3.23,3.23,0,0,1,.39-1l6-10.21A4.61,4.61,0,0,1,51.89.09L52.44,0Zm-15,12.63a4.07,4.07,0,0,0,.84-.05,1.63,1.63,0,0,0,1.22-.7,4.66,4.66,0,0,0,.3-.47L59.11,5.3c.32-.55.68-1.09,1-1.67s.08-.84-.46-1a1.89,1.89,0,0,0-.52-.09A2.66,2.66,0,0,0,56.2,4C55.8,4.64,55.38,5.32,55,6l-3.27,5.45c-.33.57-.17.93.46,1.09A3.82,3.82,0,0,0,53.12,12.63Z"/><path class="cls-1" d="M129.89,0a11.24,11.24,0,0,1-1,1.18c-.33.38-.67.74-1,1.12a.59.59,0,0,1-.51.23H105.58a.5.5,0,0,0-.51.29C104.46,3.89,103.83,5,103.21,6c-.15.26-.14.27.16.27h11.3c.16,0,.22.06.13.21l-1.28,2.22a.27.27,0,0,1-.29.15h-.66c-3.57,0-7.13,0-10.69,0a.57.57,0,0,0-.57.33c-.62,1.07-1.26,2.13-1.89,3.19-.15.24-.15.25.14.25h11.19c.44,0,.44,0,.23.36l-1.18,2a.4.4,0,0,1-.39.22H89.09c-.31,0-.32,0-.16-.29l7.36-12.5L97.7,0Z"/><path class="cls-1" d="M92.82,0c.9.29,1,.93.81,1.74a3.06,3.06,0,0,1-.17.48c-.29.61-.65,1.19-1,1.78-.09.17-.23.17-.38.17H83.75c-.42,0-.42,0-.29-.4.19-.58,0-1.06-.46-1.18a2,2,0,0,0-1,0,1.94,1.94,0,0,0-1.09.85c-.57.85-1.05,1.76-1.58,2.63-.09.15,0,.19.11.19h8.46A3.05,3.05,0,0,1,89,6.46,1.39,1.39,0,0,1,89.87,8a3,3,0,0,1-.39,1.05c-.84,1.38-1.66,2.76-2.49,4.14a3.87,3.87,0,0,1-3.52,2H67.75a2.84,2.84,0,0,1-1-.13A1.18,1.18,0,0,1,66,13.56a1.94,1.94,0,0,1,.26-.61c.3-.51.62-1,.92-1.53a.39.39,0,0,1,.38-.23H76c.28,0,.28,0,.15.27-.39.77-.14,1.17.72,1.17a2.29,2.29,0,0,0,2.18-1.28c.39-.73.82-1.44,1.23-2.16.18-.32.18-.33-.18-.33h-8.6a3.09,3.09,0,0,1-1.05-.13,1,1,0,0,1-.77-1.3,3.47,3.47,0,0,1,.41-1L73,1.54A3,3,0,0,1,75.29,0l.13,0Z"/><path class="cls-1" d="M125.16,4.21a1.35,1.35,0,0,1,2.7,0,1.37,1.37,0,0,1-1.37,1.3A1.34,1.34,0,0,1,125.16,4.21Zm2.37,0a1,1,0,0,0-1-1,1,1,0,0,0-1,1,1,1,0,0,0,1.06,1A1,1,0,0,0,127.53,4.23Z"/><path class="cls-1" d="M126,4.22a.86.86,0,0,1,0-.16c0-.19-.12-.48.11-.55a1.16,1.16,0,0,1,1,.09.38.38,0,0,1-.08.64c-.21.08-.18.16-.07.3a.86.86,0,0,1,.13.2c0,.06.13.13,0,.2a.17.17,0,0,1-.25-.06c-.09-.14-.18-.27-.26-.41s-.13-.16-.24-.12-.07.15-.09.23.09.36-.13.37-.13-.24-.15-.38A2,2,0,0,1,126,4.22Zm.59-.52c-.13,0-.31-.06-.31.18s.21.19.34.2.32,0,.31-.19S126.71,3.71,126.57,3.7Z"/></g></g></g></svg>