<svg width="95px" height="32px" xmlns="http://www.w3.org/2000/svg" viewBox="0 0 130.1 41.5"><defs><style>.cls-1{fill:#d8d6d6;}</style></defs><g id="Layer_2" data-name="Layer 2"><g id="Layer_2-2" data-name="Layer 2"><g id="dell"><path class="cls-1" d="M55.16,0h.07l.22.16,7.91,5c.42.27.42.27,0,.54L56.67,10l-8.42,5.37-2.76,1.76c-.39.25-.39.27,0,.54.79.53,1.59,1,2.37,1.6a.53.53,0,0,0,.7,0c1.59-1,3.19-2,4.78-3L65.92,8.32c.66-.42.48-.42,1.16,0l7,4.43.49.31c.17.12.16.17,0,.3l-.09.05-2.09,1.34L57,24.48l-.2.13c-.11.08-.13.16,0,.25L57,25c.82.56,1.64,1.11,2.45,1.68a.49.49,0,0,0,.64,0L65.84,23c4-2.49,7.91-5,11.88-7.48a.94.94,0,0,0,.5-.9c0-3.89,0-7.79,0-11.69,0-.64,0-.64.64-.64H90.74a2,2,0,0,1,.35,0c.22,0,.27.07.29.29s0,.3,0,.44V27.26c0,.6,0,.6.6.6h10.47c.59,0,.59,0,.59.57V39.18c0,.57,0,.57-.59.57h-24a.24.24,0,0,1-.26-.25c0-.15,0-.3,0-.44V27.64c0-.12,0-.25,0-.37s-.08-.25-.26-.15a1.83,1.83,0,0,0-.26.16l-1.26.8L66.26,34.57Q62,37.25,57.84,40c-.81.51-1.63,1-2.4,1.55H55.3a.93.93,0,0,0-.27-.21l-4.2-2.66L40.58,32.15l-5.45-3.44c-.38-.24-.38-.23-.55.2a16.15,16.15,0,0,1-7.23,8.4,18.43,18.43,0,0,1-9.22,2.44H.48l-.48,0V2.32a2.41,2.41,0,0,1,.71-.06H11.79c1.5,0,3,0,4.49.1a33.18,33.18,0,0,1,5.16.71A22.32,22.32,0,0,1,27.9,5.49a15.21,15.21,0,0,1,6.52,7.27c.16.39.17.39.53.15l1.23-.79L54.87.23A1.28,1.28,0,0,0,55.16,0ZM13.32,21.19V28c0,.46,0,.47.48.47.72,0,1.44,0,2.15,0a6,6,0,0,0,4.63-2.23,7.36,7.36,0,0,0,1.6-3.64,7.6,7.6,0,0,0-1.74-6.45,6.2,6.2,0,0,0-4.82-2.24H13.85c-.53,0-.53,0-.53.53Z"/><path class="cls-1" d="M130.1,39.73H105.56a.22.22,0,0,1-.22-.22v-.31q0-18.21,0-36.41c0-.51,0-.53.51-.53h12.31c.28,0,.32.06.34.35s0,.3,0,.44q0,12.06,0,24.12c0,.73,0,.7.69.7q5.19,0,10.36,0h.55Z"/></g></g></g></svg>