<svg width="95px" height="32px" xmlns="http://www.w3.org/2000/svg" viewBox="0 0 130.02 28.64"><defs><style>.cls-1{fill:#d8d6d6;}</style></defs><g id="Layer_2" data-name="Layer 2"><g id="Layer_2-2" data-name="Layer 2"><g id="ecobee"><path class="cls-1" d="M69.45,24.84c0,1,0,1.59,0,2.22s-.25,1.07-1,1.12c-2.2.14-2.22.14-2.22-2q0-12.69,0-25.37c0-.6.16-.8.76-.78,2.8.11,2.48-.53,2.5,2.38,0,2.45,0,4.89,0,7.34,0,.36-.19.88.24,1s.7-.26,1-.52a8.32,8.32,0,0,1,5.4-2.5,9.19,9.19,0,0,1,7.55,2.85c4.19,4.43,3.71,13-1.78,16.52-3.06,2-7.64,1.85-10.19-.22A11.92,11.92,0,0,1,69.45,24.84ZM83,18.23c0-4.39-2.76-7.57-6.64-7.61S69.31,14,69.29,18.26a7.24,7.24,0,0,0,7.06,7.34C80.22,25.55,83,22.71,83,18.23Z"/><path class="cls-1" d="M11.62,19.56H4.69C3.6,19.56,3.2,20,3.56,21A7.4,7.4,0,0,0,6,24.31a7.28,7.28,0,0,0,9.37-.68c.72-.73,1.16-.65,1.75,0a10.13,10.13,0,0,0,.8.67.73.73,0,0,1,0,1.18c-2.24,1.78-4.65,3.2-7.66,3.12-3.89-.11-7-1.5-8.95-5.12a15.22,15.22,0,0,1-1-8,10.46,10.46,0,0,1,5-6.75,11.57,11.57,0,0,1,6.86-.79,8.35,8.35,0,0,1,3.86,2.27c2.36,2.26,3,5.19,3,8.3,0,.66-.31.91-.94,1C15.61,19.69,13.24,19.48,11.62,19.56ZM9.69,16.8h3.76c2.1,0,2.1,0,1.65-2a5.83,5.83,0,0,0-4.44-4.15c-4-.57-6.48,2.11-7.27,5.54-.1.4.06.3.38.39C5.73,17.11,7.72,16.6,9.69,16.8Z"/><path class="cls-1" d="M100.29,19.43c-2.24,0-4.47,0-6.7,0-.92,0-1,.3-.81,1.14,1.19,4.62,5.39,5.94,9.28,4.69a7.33,7.33,0,0,0,2.8-1.75c.58-.57,1-.43,1.49.07,1.31,1.29,1.28,1.33-.16,2.54-5,4.24-12,2.63-14.89-1.42a11,11,0,0,1-.93-11.54,9.28,9.28,0,0,1,14.21-3.49A9.87,9.87,0,0,1,108,16.27c.48,3.16.47,3.16-2.72,3.16h-5ZM98.7,16.8h5.23c.42,0,.93,0,.83-.63-.4-2.6-2-5.22-5.19-5.62-3.41-.42-6.21,2.31-6.84,5.18-.18.8,0,1.1.84,1.08C95.28,16.78,97,16.8,98.7,16.8Z"/><path class="cls-1" d="M122.07,19.43c-2.23,0-4.47,0-6.7,0-.82,0-1,.24-.83,1.07,1.22,5.47,7.55,6.49,11.19,3.75a4.69,4.69,0,0,0,.64-.54c.7-.75,1.27-.65,2,.09.95,1,1,1,0,1.95a10.52,10.52,0,0,1-13,1.1A10,10,0,0,1,111,18a10.74,10.74,0,0,1,3.35-7.88c4.29-4,12-3.06,14.54,2.83A16,16,0,0,1,130,18.06c.11,1.2-.13,1.41-1.32,1.41h-6.61Zm-1.63-2.63h5.23c.53,0,1,0,.88-.79-.79-3.91-3.5-6.34-7.6-5.25-2.47.64-3.77,2.56-4.43,5-.22.81,0,1.08.79,1.07C117,16.78,118.73,16.8,120.44,16.8Z"/><path class="cls-1" d="M63,18.06a10.41,10.41,0,1,1-20.82.21A10.27,10.27,0,0,1,52.64,7.69,10.13,10.13,0,0,1,63,18.06ZM45.55,18c0,4.39,3,7.65,7.08,7.59a7.18,7.18,0,0,0,7.1-7.43,7.31,7.31,0,0,0-7.28-7.57A7,7,0,0,0,45.55,18Z"/><path class="cls-1" d="M28.55,11.79c-2.5,1.23-3.76,4.5-3.23,7.35a8.51,8.51,0,0,0,1.12,3.37,6.18,6.18,0,0,0,4.49,2.85,7.56,7.56,0,0,0,3.07,0,9,9,0,0,0,3.24-2,2,2,0,0,1,2.81,1.13.82.82,0,0,1-.33.73,10,10,0,0,1-9.26,3.21A10.25,10.25,0,0,1,24.1,25a9.76,9.76,0,0,1-2.23-5.23,10.21,10.21,0,0,1,3-9.19c3.12-2.92,6.92-3.79,11.45-2a11.66,11.66,0,0,1,2.92,1.83c1,.76,1,1.16.06,1.94-1.34,1.14-1.28,1.07-2.74,0-2.12-1.56-4.4-2.38-7-1.09A4.36,4.36,0,0,0,28.55,11.79Z"/></g></g></g></svg>