<svg width="95px" height="32px" xmlns="http://www.w3.org/2000/svg" viewBox="0 0 130.1 47.13"><defs><style>.cls-1{fill:#d8d6d6;}</style></defs><g id="Layer_2" data-name="Layer 2"><g id="Layer_2-2" data-name="Layer 2"><g id="elgato"><path class="cls-1" d="M108.49,0c.56.07,1.13.12,1.7.21a23.66,23.66,0,0,1,18.39,14.07c.28.65.55,1.31.8,2a.29.29,0,0,1-.14.44c-1.27.73-2.52,1.47-3.78,2.22-.23.13-.23.13-.3-.12a19.49,19.49,0,0,0-5.5-9,18.52,18.52,0,0,0-9.26-4.68,17.7,17.7,0,0,0-3.48-.34,18.46,18.46,0,0,0-6.53,1.16,18.85,18.85,0,0,0-7.09,4.66,18.61,18.61,0,0,0-5,9.92,18.62,18.62,0,0,0,1.41,10.83,18.46,18.46,0,0,0,4.15,5.85,18.71,18.71,0,0,0,9.4,4.9,18,18,0,0,0,4.75.31,18.41,18.41,0,0,0,11.31-4.69,19.68,19.68,0,0,0,5.42-8,.26.26,0,0,0-.14-.38L110,21l-7.77-4.46c-.23-.12-.23-.12-.23.14V30.14c0,.29,0,.29.26.15,2.44-1.42,4.89-2.81,7.31-4.26a.35.35,0,0,1,.4,0l3.75,2.09c.24.14.24.15,0,.28l-5.83,3.38L102.26,35a.36.36,0,0,1-.42,0c-1.24-.73-2.48-1.45-3.73-2.16a.43.43,0,0,1-.25-.46c.06-5,0-10.08,0-15.12,0-1,0-1.92,0-2.88a.4.4,0,0,1,.24-.4l3.76-2.2a.36.36,0,0,1,.42,0l5.45,3.12,12.66,7.25L130,27.66a.24.24,0,0,1,.14.31,23.88,23.88,0,0,1-6.72,12.46,23.35,23.35,0,0,1-11.94,6.29,23.91,23.91,0,0,1-4.39.41,23.23,23.23,0,0,1-14.45-4.8,23.73,23.73,0,0,1-5.41-5.81,23.18,23.18,0,0,1-3.58-9.19,23.51,23.51,0,0,1-.31-4.19,23.92,23.92,0,0,1,2-9.16A23.69,23.69,0,0,1,101.69.56a21.75,21.75,0,0,1,3.5-.53l.12,0Z"/><path class="cls-1" d="M0,22.45c.12-.58.2-1.17.34-1.75a6.12,6.12,0,0,1,1.44-2.83,5.72,5.72,0,0,1,3.3-1.67,7.68,7.68,0,0,1,5.22,1,4.3,4.3,0,0,1,1.51,1.68,7.41,7.41,0,0,1,.84,2.78,19.46,19.46,0,0,1,.14,2.64c0,.64,0,1.29,0,1.93,0,.37,0,.37-.35.37H6.26l-3.1,0c-.16,0-.25,0-.24.22.05.62.08,1.24.13,1.86a5.16,5.16,0,0,0,.86,2.6,2.84,2.84,0,0,0,2,1.16,4.4,4.4,0,0,0,1.49-.06,2.79,2.79,0,0,0,2.21-2,6.64,6.64,0,0,0,.34-1.45c0-.19.09-.26.29-.26h2.44c.27,0,.28,0,.24.28a10.47,10.47,0,0,1-.8,3A4.56,4.56,0,0,1,9.41,34.5a8.3,8.3,0,0,1-6.14-.09,5,5,0,0,1-2.75-3,10,10,0,0,1-.52-2ZM6.4,24H9.61c.2,0,.26-.07.24-.26s0-.49,0-.74a8.76,8.76,0,0,0-.18-1.84,3,3,0,0,0-1.32-2.07A3.4,3.4,0,0,0,7,18.74a4.08,4.08,0,0,0-2.08.18A2.75,2.75,0,0,0,3.19,21,12.67,12.67,0,0,0,3,23.75C3,24,3,24,3.23,24Z"/><path class="cls-1" d="M31.29,33.31a5.9,5.9,0,0,1-1.62.9,6,6,0,0,1-5-.19A5,5,0,0,1,22,30.42a10.43,10.43,0,0,1-.25-2c0-.82-.08-1.64,0-2.46,0-.35,0-.7,0-1.06A20.65,20.65,0,0,1,21.92,21a6.61,6.61,0,0,1,1.29-3,5,5,0,0,1,3.31-1.77,6.06,6.06,0,0,1,4.78,1.34.17.17,0,0,0,.14.05c-.05-.28-.08-.55-.15-.83s0-.26.21-.26c.79,0,1.57-.05,2.36,0,.33,0,.33,0,.32.32,0,4,0,8,0,11.93,0,2.71,0,5.43,0,8.14a5.78,5.78,0,0,1-.79,3.1,5.51,5.51,0,0,1-3.88,2.63,6.68,6.68,0,0,1-4-.51,5.09,5.09,0,0,1-2.81-3.19,14.56,14.56,0,0,1-.44-2.37c0-.13,0-.2.17-.2H25c.14,0,.17.07.18.19A8.79,8.79,0,0,0,25.47,38a2.83,2.83,0,0,0,3.91,1.71,2.73,2.73,0,0,0,1.73-2.1,10.86,10.86,0,0,0,.1-1.27c0-1,0-1.92.09-2.88A.78.78,0,0,0,31.29,33.31Zm-6.66-7.15c0,.5,0,1,.05,1.51a8,8,0,0,0,.74,3.08,2.33,2.33,0,0,0,1.35,1.19,3.06,3.06,0,0,0,1.44.13A2.82,2.82,0,0,0,30,31.26a3.79,3.79,0,0,0,1-2.17,19.53,19.53,0,0,0,.2-3.15c0-1,.06-2,0-3.06a6.42,6.42,0,0,0-.66-2.62A2.83,2.83,0,0,0,28,18.71a2.65,2.65,0,0,0-2.56,1.39,5.3,5.3,0,0,0-.7,2.6C24.64,23.85,24.67,25,24.63,26.16Z"/><path class="cls-1" d="M49.39,27.8v5.75c0,.28,0,.57,0,.85s-.05.26-.23.26H46.76c-.2,0-.23-.09-.21-.26s.08-.57.12-.85c0-.06,0-.13,0-.16s-.11,0-.15.06a7.46,7.46,0,0,1-3.42,1.49A5.17,5.17,0,0,1,38.93,34,5.26,5.26,0,0,1,37,30.79a6.19,6.19,0,0,1,.79-4.67A5.31,5.31,0,0,1,40.72,24a12.13,12.13,0,0,1,3-.54c.84-.05,1.68,0,2.51-.07.13,0,.24,0,.23-.18a13.23,13.23,0,0,0-.22-2.51,3.47,3.47,0,0,0-.28-.76,2.07,2.07,0,0,0-1.67-1.14,4.24,4.24,0,0,0-2.84.39,1.88,1.88,0,0,0-.83,1,6.27,6.27,0,0,0-.34,1.27.24.24,0,0,1-.28.23l-2.51,0c-.11,0-.21,0-.19-.16a6.65,6.65,0,0,1,.81-2.83,5.31,5.31,0,0,1,3.55-2.32,11,11,0,0,1,3.57-.06,4.86,4.86,0,0,1,2.92,1.45,4,4,0,0,1,1.16,2.81C49.4,23,49.38,25.38,49.39,27.8Zm-2.93-.14c0-.48,0-1,0-1.43,0-.2-.06-.26-.25-.25-.77,0-1.54,0-2.31,0a7.62,7.62,0,0,0-1.71.27,2.81,2.81,0,0,0-1.81,1.34,3.6,3.6,0,0,0,0,3.58,2.15,2.15,0,0,0,1.06,1,3.12,3.12,0,0,0,1.79.18,3.84,3.84,0,0,0,2.87-2.32A5,5,0,0,0,46.46,27.66Z"/><path class="cls-1" d="M74.18,25.39c0,1.07,0,1.88,0,2.69a10.06,10.06,0,0,1-.67,3.48,5.16,5.16,0,0,1-3.35,3.11,7.28,7.28,0,0,1-5.08-.16,5.08,5.08,0,0,1-2.93-3,10.76,10.76,0,0,1-.63-3.18c-.07-1-.05-2,0-3s0-1.82,0-2.72A7.58,7.58,0,0,1,63.14,18,4.94,4.94,0,0,1,66,16.35a7.64,7.64,0,0,1,4.29.2,5.2,5.2,0,0,1,3.31,3.33,10,10,0,0,1,.54,2.7C74.22,23.6,74.17,24.62,74.18,25.39Zm-9.73-.23c0,1.25,0,2.33.1,3.41a6.32,6.32,0,0,0,.52,2.23,2.5,2.5,0,0,0,1.86,1.56,4.53,4.53,0,0,0,1.47.07A2.62,2.62,0,0,0,70.48,31,6.29,6.29,0,0,0,71,29.78a16.69,16.69,0,0,0,.3-3.52c0-1.15,0-2.29-.08-3.43a8,8,0,0,0-.62-2.58A2.34,2.34,0,0,0,69.3,19a3.92,3.92,0,0,0-2.39-.19,2.36,2.36,0,0,0-1.56,1.06,4.1,4.1,0,0,0-.63,1.58A18.74,18.74,0,0,0,64.45,25.16Z"/><path class="cls-1" d="M53.82,25.4c0-2,0-4,0-5.95,0-.21,0-.3-.29-.31-.77,0-1.53,0-2.29,0-.3,0-.3,0-.3-.3,0-.67,0-1.34-.05-2,0-.19.05-.26.26-.27.75,0,1.51,0,2.27,0,.43,0,.45,0,.42-.44-.06-.93,0-1.87-.08-2.8a.36.36,0,0,1,.22-.38l2.55-1.48c.22-.13.24-.12.24.13,0,1.56,0,3.11,0,4.67,0,.3,0,.3.3.3,1,0,2,0,3,0,.17,0,.24.06.24.24,0,.72,0,1.43,0,2.14,0,.17-.08.21-.23.21-.72,0-1.44,0-2.16,0l-.86,0c-.14,0-.19.06-.19.2,0,.7,0,1.41,0,2.11,0,1.26,0,2.52,0,3.78s0,2.6,0,3.9c0,.63,0,1.26,0,1.89a1,1,0,0,0,.92,1A5.26,5.26,0,0,0,59.14,32l.87-.1c.16,0,.22,0,.22.22,0,.71,0,1.42,0,2.13,0,.12,0,.19-.17.22a11,11,0,0,1-3.38.21A3,3,0,0,1,53.9,32a7.3,7.3,0,0,1-.09-1.14V25.4Z"/><path class="cls-1" d="M15.75,23.49V12.35c0-.33,0-.33.35-.33h2.33c.29,0,.3,0,.3.29q0,10.32,0,20.66a.38.38,0,0,1-.22.38L16,34.83c-.23.14-.24.13-.24-.15V23.49Z"/></g></g></g></svg>