<svg width="95px" height="32px" xmlns="http://www.w3.org/2000/svg" viewBox="0 0 130.4 34.28"><defs><style>.cls-1{fill:#d8d6d6;}</style></defs><g id="Layer_2" data-name="Layer 2"><g id="Layer_2-2" data-name="Layer 2"><g id="fitbit"><path class="cls-1" d="M86.11,14.92c.38-.34.7-.71,1.09-1a8.53,8.53,0,0,1,6.08-1.78,9.11,9.11,0,0,1,4.89,1.78A9.49,9.49,0,0,1,101.84,20a10.75,10.75,0,0,1-.59,6.29A9,9,0,0,1,93.5,32a8.72,8.72,0,0,1-5.25-1,7.51,7.51,0,0,1-1.83-1.44,2.58,2.58,0,0,1-.22-.31c-.22.13-.16.26-.16.37,0,.59,0,1.19,0,1.78,0,.26-.1.39-.38.39H82.79c-.27,0-.4-.11-.39-.39V3.17c0-.69,0-.69.68-.69h2.34c.61,0,.61,0,.61.6q0,5.65,0,11.33A.8.8,0,0,0,86.11,14.92Zm6.16,13.55A6.27,6.27,0,0,0,98.43,22a6.19,6.19,0,1,0-12.38.1A6.27,6.27,0,0,0,92.27,28.47Z"/><path class="cls-1" d="M49.59,23.87v7.34c0,.57,0,.57-.59.57H46.62c-.53,0-.55,0-.55-.54V17.81c0-.48,0-1,0-1.45,0-.29-.11-.41-.4-.4-.63,0-1.27,0-1.9,0-.35,0-.47-.12-.46-.47,0-.87,0-1.75,0-2.62,0-.39.15-.49.5-.48.59,0,1.18,0,1.77,0,.4,0,.51-.14.5-.51,0-1.12,0-2.24,0-3.35a6,6,0,0,1,6.06-6.08h2.58c.3,0,.43.1.43.42q0,1.35,0,2.7c0,.29-.11.41-.41.4-.82,0-1.64,0-2.46,0A2.41,2.41,0,0,0,49.6,8.57c0,1.15,0,2.31,0,3.47,0,.32.17.37.43.36h4.6c.52,0,.53,0,.54.55v2.46c0,.53,0,.55-.54.55H50.17c-.58,0-.58,0-.58.57Z"/><path class="cls-1" d="M73.46,21.18c0,1.56,0,3.12,0,4.68A2.27,2.27,0,0,0,74.75,28a2.08,2.08,0,0,0,1,.2c.78,0,1.56,0,2.34,0,.34,0,.48.12.47.48,0,.88,0,1.77,0,2.66,0,.24,0,.43-.34.42-1.14,0-2.29.08-3.43-.06A5.51,5.51,0,0,1,70,26.27c0-3.2,0-6.4,0-9.6,0-.71,0-.71-.73-.71H67.56c-.28,0-.41-.11-.41-.4,0-.91,0-1.83,0-2.74,0-.32.14-.43.44-.42.62,0,1.24,0,1.86,0,.38,0,.51-.1.51-.5,0-2.12,0-4.25,0-6.37C70,5,70,5,70.54,5h2.37c.54,0,.55,0,.55.53v6.29c0,.61,0,.61.63.61H78c.39,0,.56.09.55.52,0,.86,0,1.72,0,2.58,0,.35-.12.47-.47.47H74c-.39,0-.51.11-.51.5,0,1.57,0,3.15,0,4.72Z"/><path class="cls-1" d="M115.3,21.43c0-1.54,0-3.09,0-4.64,0-.91.11-.82-.81-.83-.49,0-1,0-1.49,0-.32,0-.46-.1-.45-.44,0-.9,0-1.81,0-2.71,0-.32.12-.43.43-.42.63,0,1.26,0,1.89,0,.34,0,.44-.12.44-.45,0-2.14,0-4.28,0-6.41,0-.58,0-.58.58-.59h2.34c.59,0,.59,0,.59.61,0,2.12,0,4.23,0,6.34,0,.39.12.5.51.5,1.36,0,2.71,0,4.07,0,.38,0,.52.11.51.5,0,.86,0,1.73,0,2.59,0,.38-.14.48-.49.48h-4.12c-.37,0-.48.12-.48.49,0,3.05,0,6.1,0,9.15A2.45,2.45,0,0,0,120,27.94a2,2,0,0,0,1,.28c.83,0,1.66,0,2.5,0,.34,0,.48.1.47.46,0,.9,0,1.8,0,2.7,0,.27-.08.41-.37.4-1.12,0-2.25.07-3.38-.06a5.57,5.57,0,0,1-4.77-4.64,8.59,8.59,0,0,1-.08-1.13C115.3,24.44,115.3,22.94,115.3,21.43Z"/><path class="cls-1" d="M108.56,22v9.15c0,.59,0,.59-.57.6h-2.37c-.56,0-.57,0-.57-.56V15c0-.73,0-1.45,0-2.18,0-.33.12-.45.45-.44.87,0,1.74,0,2.62,0,.34,0,.45.1.45.45C108.56,15.92,108.57,19,108.56,22Z"/><path class="cls-1" d="M62.89,22.1v9.12c0,.56,0,.56-.56.56H59.91c-.53,0-.54,0-.54-.54V15.79c0-1,0-1.93,0-2.9,0-.37.12-.5.49-.49.84,0,1.69,0,2.54,0,.39,0,.5.13.5.51C62.88,16,62.89,19,62.89,22.1Z"/><path class="cls-1" d="M33.45,17.14a3.25,3.25,0,1,1-6.5,0,3.25,3.25,0,1,1,6.5,0Z"/><path class="cls-1" d="M22.94,12.75A2.9,2.9,0,0,1,20,9.83a3,3,0,0,1,2.92-2.91,2.93,2.93,0,0,1,2.92,2.93A2.87,2.87,0,0,1,22.94,12.75Z"/><path class="cls-1" d="M22.93,14.24a2.87,2.87,0,0,1,2.93,2.89,2.92,2.92,0,1,1-2.93-2.89Z"/><path class="cls-1" d="M23,27.28a2.89,2.89,0,1,1,2.91-2.91A2.88,2.88,0,0,1,23,27.28Z"/><path class="cls-1" d="M13.15,17.15a2.56,2.56,0,0,1,2.54-2.58,2.56,2.56,0,1,1,0,5.12A2.52,2.52,0,0,1,13.15,17.15Z"/><path class="cls-1" d="M13.15,9.82A2.51,2.51,0,0,1,15.7,7.3a2.56,2.56,0,0,1,2.56,2.56,2.56,2.56,0,1,1-5.11,0Z"/><path class="cls-1" d="M13.15,31.69a2.5,2.5,0,0,1,2.54-2.52,2.56,2.56,0,0,1,2.57,2.55,2.6,2.6,0,0,1-2.58,2.56A2.57,2.57,0,0,1,13.15,31.69Z"/><path class="cls-1" d="M15.7,27a2.49,2.49,0,0,1-2.55-2.54,2.56,2.56,0,0,1,2.56-2.56,2.6,2.6,0,0,1,2.55,2.55A2.55,2.55,0,0,1,15.7,27Z"/><path class="cls-1" d="M15.69,5.1a2.49,2.49,0,0,1-2.54-2.55A2.55,2.55,0,0,1,15.72,0a2.6,2.6,0,0,1,2.54,2.6A2.55,2.55,0,0,1,15.69,5.1Z"/><path class="cls-1" d="M61.1,9.2A2.17,2.17,0,0,1,58.91,7a2.24,2.24,0,0,1,2.2-2.19A2.18,2.18,0,0,1,63.3,7.06,2.14,2.14,0,0,1,61.1,9.2Z"/><path class="cls-1" d="M106.83,9.2A2.15,2.15,0,0,1,104.64,7a2.19,2.19,0,0,1,2.16-2.2A2.24,2.24,0,0,1,109,7,2.18,2.18,0,0,1,106.83,9.2Z"/><path class="cls-1" d="M8.44,7.7a2.13,2.13,0,0,1,2.18,2.19,2.18,2.18,0,0,1-2.16,2.2,2.25,2.25,0,0,1-2.23-2.2A2.17,2.17,0,0,1,8.44,7.7Z"/><path class="cls-1" d="M10.62,24.4a2.19,2.19,0,0,1-2.17,2.2,2.21,2.21,0,1,1,0-4.41A2.18,2.18,0,0,1,10.62,24.4Z"/><path class="cls-1" d="M10.62,17.15a2.17,2.17,0,0,1-2.16,2.2,2.27,2.27,0,0,1-2.23-2.2A2.18,2.18,0,0,1,8.44,15,2.13,2.13,0,0,1,10.62,17.15Z"/><path class="cls-1" d="M0,17.12A1.79,1.79,0,0,1,1.85,15.3a1.83,1.83,0,1,1,0,3.66A1.76,1.76,0,0,1,0,17.12Z"/><path class="cls-1" d="M130.4,30.1a2.83,2.83,0,0,1-.23.75,2.42,2.42,0,0,1-3.85.65,2.29,2.29,0,0,1-.64-2.43,2.32,2.32,0,0,1,1.81-1.67A2.42,2.42,0,0,1,130.31,29c0,.13.06.27.09.4Zm-.23-.34A2.16,2.16,0,0,0,128,27.57a2.19,2.19,0,1,0,2.16,2.19Z"/><path class="cls-1" d="M128.8,29.8a.61.61,0,0,1,.25.57,1.51,1.51,0,0,0,.09.6c0,.07,0,.11-.07.11h-.18c-.15,0-.19,0-.21-.18s0-.22,0-.32,0-.17,0-.25c0-.26-.12-.34-.38-.35h-.59c-.2,0-.22,0-.22.23s0,.45,0,.68,0,.2-.21.19a.14.14,0,0,1-.16-.15V28.59a.14.14,0,0,1,.15-.14,7,7,0,0,1,1.29,0,.69.69,0,0,1,.52,1C129,29.6,128.87,29.67,128.8,29.8Zm-.84-.18h.32a.42.42,0,0,0,0-.83c-.24,0-.47,0-.71,0a.12.12,0,0,0-.14.14v.56a.13.13,0,0,0,.14.14Z"/></g></g></g></svg>