<svg width="95px" height="32px" xmlns="http://www.w3.org/2000/svg" viewBox="0 0 103.15 63.18"><defs><style>.cls-1{fill:#d8d6d6;}</style></defs><g id="Layer_2" data-name="Layer 2"><g id="Layer_2-2" data-name="Layer 2"><g id="fuhu"><path class="cls-1" d="M23.47,33c-2.45-.33-5.36.5-8.31.59-.91,0-1.17.46-1,1.39,1,6.2,2.21,12.34,3.55,18.46.49,2.24,1.05,4.47,1.64,6.69a2.2,2.2,0,0,1-1.08,2.81c-1,.58-1.85,0-2.59-.71A83.46,83.46,0,0,1,2.87,46.88,17.5,17.5,0,0,1,.06,39.65c-.35-2.91.94-4.93,3.23-6.49A20.32,20.32,0,0,1,8.11,31c.83-.28,1-.79,1.06-1.58.13-2-.5-3.86-.54-5.8-.06-3.22-.16-6.46,0-9.68A21.24,21.24,0,0,1,11,4.36,8.18,8.18,0,0,1,17.85.05c6.66-.6,10,4.33,11.62,9a21,21,0,0,1,1.44,7.5c-.05,1.39-.71,2.25-1.84,2.34a2.14,2.14,0,0,1-2.27-2c-.21-1.44-.37-2.89-.66-4.32a18.24,18.24,0,0,0-2.41-5.86,5.82,5.82,0,0,0-7.3-2.24A5.14,5.14,0,0,0,13.89,8a37.88,37.88,0,0,0-1.12,14.18c.15,1.72.29,3.44.36,5.16.1,2.25.32,2.39,2.51,2.13a75.1,75.1,0,0,1,16-.43c1.68.15,2.33,1.09,2,2.71a25.51,25.51,0,0,0-.22,7.14,2.91,2.91,0,0,0,2.35,2.85,3.12,3.12,0,0,0,3.39-1.77,5.09,5.09,0,0,0,.69-3.3,14.32,14.32,0,0,1,.39-5.25,2,2,0,0,1,2.5-1.81,2.08,2.08,0,0,1,1.74,2.32,34.41,34.41,0,0,1-.15,5.56,2.44,2.44,0,0,0,2.52,3A6.24,6.24,0,0,0,52.49,37a3,3,0,0,0-.24-2.31c-1.11-3.22-1.87-6.54-2.69-9.84A51.45,51.45,0,0,1,47.9,9a7.36,7.36,0,0,1,2.62-5.73c2.93-2.26,6.9-1.71,9.58,1.38a13.15,13.15,0,0,1,2.71,6.37c1,5.11-.16,10-1.17,14.93-.17.84-.18,1.2.9,1.33,5.13.6,7,4.93,6.76,9.2,0,.53-.13,1-.14,1.58A1.82,1.82,0,0,0,70.08,40a2.1,2.1,0,0,0,2.35-.4,6,6,0,0,0,2-4.23c.1-1.59.44-3.15.63-4.73a2.71,2.71,0,0,1,2.36-2.33c1.1.06,1.83,1.08,1.86,2.63a17.37,17.37,0,0,1-.43,4.87,5.46,5.46,0,0,0,.1,3.15c.37,1.11.84,2.23,2.26,2.25a3.46,3.46,0,0,0,3.28-1.86,7,7,0,0,0,.86-3.44c0-1.2,0-2.39,0-3.58a8.75,8.75,0,0,1,.24-1.84,2.21,2.21,0,0,1,2.28-1.82,2.24,2.24,0,0,1,2,2.2,29,29,0,0,1-.11,5.43,10.55,10.55,0,0,0,.15,4,2.83,2.83,0,0,0,2,2.22,2.23,2.23,0,0,0,2.39-1.06,1.63,1.63,0,0,1,.17-.2c1-1.06,1.88-1.26,2.78-.62a2.22,2.22,0,0,1,.53,3,6.59,6.59,0,0,1-5.88,3.17,5.81,5.81,0,0,1-4.49-2.49c-.5-.79-1-.76-1.72-.24a6.61,6.61,0,0,1-9.26-.92c-.55-.6-.92-.6-1.54-.14a6.38,6.38,0,0,1-4,1.5,5.68,5.68,0,0,1-5.72-5.57,33.89,33.89,0,0,0-.2-4.5c-.27-1.67-1.27-2.85-2.6-2.89-1.14,0-2.44,1.34-2.71,2.87a36.32,36.32,0,0,0-.56,7.79c.06,1.2-.32,2.15-1.61,2.35A2.22,2.22,0,0,1,55,42.85c-.62-1.46-.59-1.44-1.8-.5-3.16,2.43-6.53,3.28-10.2,1.14-.7-.41-1.13-.12-1.61.35a7.08,7.08,0,0,1-5.93,2.08c-3.32-.38-5.66-2.92-6.18-6.49a21.2,21.2,0,0,1-.21-5.15c.1-1.05-.28-1.33-1.25-1.29C26.57,33,25.29,33,23.47,33Zm32.15-1.87a9.53,9.53,0,0,0,.47-.85c2.15-6,3.44-12.22,2.64-18.67a6.65,6.65,0,0,0-2.37-4.72c-2-1.53-3.49-1-4.12,1.36a18.91,18.91,0,0,0-.1,7.23A89.82,89.82,0,0,0,55.62,31.13ZM13.47,53.91c-.05-.52-.05-.81-.11-1.09-.86-4.1-1.83-8.18-2.5-12.32-.22-1.39-.32-2.8-.63-4.18C10,35.2,9.54,34.7,8.29,35.23a16.45,16.45,0,0,0-2.58,1.31C4.25,37.5,4,38.22,4.36,39.9c.83,3.85,3.28,6.8,5.52,9.86A27.42,27.42,0,0,0,13.47,53.91Z"/><path class="cls-1" d="M101.61,25.52c-.78.59-.49,1.89-1.56,1.83s-.93-1.44-1.57-2.08c-.27.39-.1.79-.16,1.17s-.2.89-.76.9-.76-.4-.77-.88c0-.93,0-1.86,0-2.78,0-.44.34-1.06-.52-1.06-.64,0-1.12.24-1.12,1s0,1.59,0,2.38c0,.59-.11,1.27-.85,1.28s-.7-.75-.72-1.29,0-1.33,0-2-.13-1.23-.93-1.35c-.41-.07-.82-.21-.76-.74a.78.78,0,0,1,.93-.74c1.25.26,2.56-.4,3.78.24a.39.39,0,0,0,.25.06c1.8-.55,2.47.5,2.84,2,.06.24.17.55.51.5s.31-.38.4-.62c.34-.87.45-2.16,1.75-1.93s.72,1.5.81,2.34a17.66,17.66,0,0,1,0,2.52c0,.49-.08,1-.74,1s-.56-.56-.61-1C101.72,26.1,101.68,25.89,101.61,25.52Z"/></g></g></g></svg>