<?xml version="1.0" encoding="UTF-8"?>
<svg width="105px" height="35px" viewBox="0 0 105 35" version="1.1" xmlns="http://www.w3.org/2000/svg" xmlns:xlink="http://www.w3.org/1999/xlink">
    <title>6D4F9AFB-08A9-4213-B27F-4A72103AF299</title>
    <g id="onboarding-proccess" stroke="none" stroke-width="1" fill="none" fill-rule="evenodd">
        <g id="onboard/welcome/devices" transform="translate(-577.000000, -436.000000)" fill-rule="nonzero">
            <g id="Group-21" transform="translate(263.000000, 104.000000)">
                <g id="google" transform="translate(314.122841, 332.783109)">
                    <path d="M44.8771593,17.7168906 C44.8771593,22.6107139 41.0607548,26.2168906 36.3771593,26.2168906 C31.6935638,26.2168906 27.8771593,22.6107139 27.8771593,17.7168906 C27.8771593,12.7885768 31.6935638,9.2168906 36.3771593,9.2168906 C41.0607548,9.2168906 44.8771593,12.7885768 44.8771593,17.7168906 Z M41.1562604,17.7168906 C41.1562604,14.6587301 38.9443503,12.5663045 36.3771593,12.5663045 C33.8099683,12.5663045 31.5980582,14.6587301 31.5980582,17.7168906 C31.5980582,20.7443928 33.8099683,22.8674767 36.3771593,22.8674767 C38.9443503,22.8674767 41.1562604,20.7405606 41.1562604,17.7168906 Z" id="Shape" fill="#EA4335"></path>
                    <path d="M62.8771593,17.7168906 C62.8771593,22.6107139 59.0607548,26.2168906 54.3771593,26.2168906 C49.6935638,26.2168906 45.8771593,22.6107139 45.8771593,17.7168906 C45.8771593,12.7924091 49.6935638,9.2168906 54.3771593,9.2168906 C59.0607548,9.2168906 62.8771593,12.7885768 62.8771593,17.7168906 Z M59.1562604,17.7168906 C59.1562604,14.6587301 56.9443503,12.5663045 54.3771593,12.5663045 C51.8099683,12.5663045 49.5980582,14.6587301 49.5980582,17.7168906 C49.5980582,20.7443928 51.8099683,22.8674767 54.3771593,22.8674767 C56.9443503,22.8674767 59.1562604,20.7405606 59.1562604,17.7168906 Z" id="Shape" fill="#FBBC05"></path>
                    <path d="M80.8771593,9.73845373 L80.8771593,25.2374417 C80.8771593,31.6129672 77.242164,34.2168906 72.9448921,34.2168906 C68.8997369,34.2168906 66.4651179,31.4183541 65.5469618,29.1297039 L68.7379307,27.7557354 C69.3061339,29.160842 70.6984199,30.8189457 72.9411292,30.8189457 C75.6918348,30.8189457 77.3964444,29.0635355 77.3964444,25.7590049 L77.3964444,24.5173732 L77.2685046,24.5173732 C76.4481847,25.5643918 74.867752,26.4790734 72.8733964,26.4790734 C68.7003014,26.4790734 64.8771593,22.7191481 64.8771593,17.8810662 C64.8771593,13.007954 68.7003014,9.2168906 72.8733964,9.2168906 C74.863989,9.2168906 76.4444218,10.1315722 77.2685046,11.1474526 L77.3964444,11.1474526 L77.3964444,9.74234599 L80.8771593,9.74234599 L80.8771593,9.73845373 Z M77.6560869,17.8810662 C77.6560869,14.8412094 75.6955977,12.6187277 73.2007717,12.6187277 C70.6720793,12.6187277 68.5535469,14.8412094 68.5535469,17.8810662 C68.5535469,20.8897849 70.6720793,23.0811285 73.2007717,23.0811285 C75.6955977,23.0811285 77.6560869,20.8897849 77.6560869,17.8810662 Z" id="Shape" fill="#4285F4"></path>
                    <polygon id="Path" fill="#34A853" points="86.8771593 1.2168906 86.8771593 26.2168906 82.8771593 26.2168906 82.8771593 1.2168906"></polygon>
                    <path d="M101.756162,20.5182883 L104.712896,22.449758 C103.758606,23.8332116 101.458924,26.2168906 97.4853236,26.2168906 C92.5574331,26.2168906 88.8771593,22.4842486 88.8771593,17.7168906 C88.8771593,12.6621115 92.5887213,9.2168906 97.0590219,9.2168906 C101.560611,9.2168906 103.762517,12.7272603 104.482146,14.6242396 L104.877159,15.5899745 L93.2809726,20.2960159 C94.1687751,22.0013811 95.5493666,22.871309 97.4853236,22.871309 C99.4251916,22.871309 100.770584,21.9362323 101.756162,20.5182883 Z M92.6552087,17.4601277 L100.406859,14.3061602 C99.980557,13.2446183 98.6977411,12.504988 97.1880857,12.504988 C95.2521288,12.504988 92.5574331,14.1796949 92.6552087,17.4601277 L92.6552087,17.4601277 Z" id="Shape" fill="#EA4335"></path>
                    <path d="M13.4098668,15.670433 L13.4098668,12.1184585 L25.6950702,12.1184585 C25.8151715,12.7375062 25.8771593,13.4697942 25.8771593,14.2624771 C25.8771593,16.9274016 25.1294317,20.2226978 22.7196567,22.5705491 C20.3757437,24.9485979 17.380959,26.2168906 13.413741,26.2168906 C6.06044049,26.2168906 -0.122840691,20.3812344 -0.122840691,13.2168906 C-0.122840691,6.05254681 6.06044049,0.216890595 13.413741,0.216890595 C17.4816892,0.216890595 20.379618,1.772059 22.5569388,3.79906249 L19.9844459,6.30545041 C18.4231286,4.87862114 16.3077956,3.76886504 13.4098668,3.76886504 C8.04017525,3.76886504 3.84050307,7.98518328 3.84050307,13.2168906 C3.84050307,18.4485979 8.04017525,22.6649161 13.4098668,22.6649161 C16.8928053,22.6649161 18.8764143,21.3022564 20.1471638,20.0641612 C21.1777106,19.0600962 21.855702,17.6257175 22.1230243,15.6666583 L13.4098668,15.670433 Z" id="Path" fill="#4285F4"></path>
                </g>
            </g>
        </g>
    </g>
</svg>