<svg width="95px" height="32px" xmlns="http://www.w3.org/2000/svg" viewBox="0 0 130.53 17.87"><defs><style>.cls-1{fill:#d8d6d6;}</style></defs><g id="Layer_2" data-name="Layer 2"><g id="Layer_2-2" data-name="Layer 2"><g id="gopro"><path class="cls-1" d="M70.89,0h8.53a21.61,21.61,0,0,1,5.32.67,5.78,5.78,0,0,1,3.35,2.05,2.38,2.38,0,0,1,.5,1.52c0,.93,0,1.86,0,2.79A3.46,3.46,0,0,1,87,9.56,8.61,8.61,0,0,1,83.43,11a23.61,23.61,0,0,1-4.82.42H65.13c-.59,0-.59,0-.59.57v4.53a1.13,1.13,0,0,1-1.21,1.29,10.48,10.48,0,0,1-1.94,0,1.14,1.14,0,0,1-1.17-1.17,3.1,3.1,0,0,1,0-.43V1.6a4.07,4.07,0,0,1,0-.5A1.19,1.19,0,0,1,61.51,0Zm1.93,2.65H64.89c-.5,0-.5,0-.5.51V8.21c0,.57,0,.57.55.57H76.41c1.48,0,3,.05,4.45-.07a7.42,7.42,0,0,0,2.51-.54,1.35,1.35,0,0,0,.89-1.35c0-.75,0-1.49,0-2.23a1.4,1.4,0,0,0-1-1.5,4.12,4.12,0,0,0-.78-.23,12.92,12.92,0,0,0-2.32-.21Z"/><path class="cls-1" d="M14.23,17.66c-1.78,0-3.57,0-5.35,0a17.92,17.92,0,0,1-6.27-1.13,4,4,0,0,1-2.34-2A2.61,2.61,0,0,1,0,13.41c0-3,0-6.09,0-9.13A3,3,0,0,1,1.67,1.69,10.79,10.79,0,0,1,5.27.36,16.6,16.6,0,0,1,8.78,0h4.67a1.81,1.81,0,0,1,.73.12,1,1,0,0,1,.65,1c0,1.15-.52,1.69-1.68,1.7-1.57,0-3.14,0-4.71.06a11.05,11.05,0,0,0-3.33.54,1.2,1.2,0,0,0-1,1.41c0,2.67,0,5.35,0,8a1.32,1.32,0,0,0,.7,1.25,5.78,5.78,0,0,0,2.3.64,23.71,23.71,0,0,0,2.79.15c3,0,6,0,9,0a13.07,13.07,0,0,0,3.35-.46,2.5,2.5,0,0,0,.81-.34,1.16,1.16,0,0,0,.63-1.1,7.23,7.23,0,0,1,0-1.14c0-.32-.1-.43-.43-.43-1.67,0-3.35,0-5,0a1.59,1.59,0,0,1-1.29-.54,1.34,1.34,0,0,1,.86-2.24,4.91,4.91,0,0,1,.67-.05h7.46a4.89,4.89,0,0,1,1.27.11,1,1,0,0,1,.81,1c0,1.15,0,2.31,0,3.46a3.13,3.13,0,0,1-1.16,2.34,7.91,7.91,0,0,1-4,1.75,20.15,20.15,0,0,1-3.55.35Z"/><path class="cls-1" d="M44.54,17.66c-2.09,0-3.59,0-5.08,0a16.16,16.16,0,0,1-4.16-.55,5.24,5.24,0,0,1-2.81-1.68,3.12,3.12,0,0,1-.68-1.94c0-1.85,0-3.7,0-5.56a3.43,3.43,0,0,1,2-3,9.85,9.85,0,0,1,4.07-1.1c3.44-.27,6.89-.12,10.33-.11a15.51,15.51,0,0,1,4.34.54,7,7,0,0,1,1.85.79,3.55,3.55,0,0,1,1.7,3.12c0,1.6,0,3.21,0,4.81A3.65,3.65,0,0,1,54,16.49a10.69,10.69,0,0,1-3.8,1C48.1,17.77,46,17.61,44.54,17.66ZM43.92,15c1.52,0,3,0,4.56,0a7.84,7.84,0,0,0,2.71-.46,1.36,1.36,0,0,0,.93-1.4c0-1.65,0-3.3,0-5a1.28,1.28,0,0,0-.94-1.38,6.61,6.61,0,0,0-2.63-.46c-3.28,0-6.56-.12-9.84.06A5.24,5.24,0,0,0,36.43,7a1.15,1.15,0,0,0-.65,1.09c0,1.71,0,3.42,0,5.13a1.25,1.25,0,0,0,.74,1.22,3.35,3.35,0,0,0,.73.26,9.36,9.36,0,0,0,2.17.28Z"/><path class="cls-1" d="M118.93,17.66c-2,0-3.49,0-5,0a14,14,0,0,1-5.23-.91,3.65,3.65,0,0,1-2.45-2.91,4,4,0,0,1,0-.6c0-1.64,0-3.28,0-4.92a3.62,3.62,0,0,1,2.27-3.52,10.35,10.35,0,0,1,3.82-1c3.44-.26,6.89-.13,10.33-.11a15,15,0,0,1,4.57.61A5,5,0,0,1,129.87,6a2.94,2.94,0,0,1,.64,1.81c0,1.92,0,3.84,0,5.76a3.27,3.27,0,0,1-1.72,2.73,9,9,0,0,1-3.6,1.17A46.37,46.37,0,0,1,118.93,17.66ZM119,15c1.19,0,3,.1,4.8-.06a5.56,5.56,0,0,0,2-.5,1.15,1.15,0,0,0,.7-1.09c0-1.79,0-3.59,0-5.38A1.07,1.07,0,0,0,126,7a3.51,3.51,0,0,0-.92-.38,9.08,9.08,0,0,0-2.13-.27c-3,0-5.92,0-8.88,0a6.9,6.9,0,0,0-3,.6,1.21,1.21,0,0,0-.76,1.2c0,1.65,0,3.3,0,4.95a1.37,1.37,0,0,0,1.06,1.5,8.09,8.09,0,0,0,2.58.4C115.38,15,116.88,15,119,15Z"/><path class="cls-1" d="M95.84,12.52c0,1.34,0,2.68,0,4a1.1,1.1,0,0,1-1.15,1.27,7.35,7.35,0,0,1-1.69,0,1.19,1.19,0,0,1-1.11-1.14,5.12,5.12,0,0,1,0-.56c0-2.44.05-4.89,0-7.33,0-2.22,1.08-3.44,3-4.24A11.49,11.49,0,0,1,99,3.75c1,0,2-.06,2.93,0a1.53,1.53,0,0,1,1.42.71,1.29,1.29,0,0,1-1.08,2.07c-.69,0-1.39,0-2.09,0a13,13,0,0,0-2.77.28,5.36,5.36,0,0,0-.57.17,1.36,1.36,0,0,0-1,1.51C95.83,9.8,95.84,11.16,95.84,12.52Z"/></g></g></g></svg>