<svg width="95px" height="32px" xmlns="http://www.w3.org/2000/svg" viewBox="0 0 129.8 23.23"><defs><style>.cls-1{fill:#d8d6d6;}</style></defs><g id="Layer_2" data-name="Layer 2"><g id="Layer_2-2" data-name="Layer 2"><g id="hisense"><path class="cls-1" d="M24.45,0c-.12,1.27-.23,2.53-.36,3.8s-.23,2.38-.34,3.57l-.33,3.52c-.11,1.22-.23,2.43-.35,3.65l-.33,3.57c-.13,1.38-.26,2.76-.4,4.13-.06.56-.07.56-.64.56H15c-.35,0-.36,0-.33-.33.11-1.21.23-2.42.34-3.62.1-1,.19-2,.28-3,.06-.61.1-1.23.17-1.84,0-.24-.06-.27-.26-.27h-4.1c-.77,0-1.54,0-2.32,0-.26,0-.36.07-.38.34-.08,1-.19,2-.28,3-.12,1.24-.24,2.47-.35,3.7-.06.57-.12,1.14-.16,1.71,0,.25-.12.3-.34.29H.91c-.22,0-.43,0-.65,0S0,22.72,0,22.52l.18-1.81c.09-1,.19-2,.29-3C.58,16.45.7,15.22.82,14l.33-3.57.21-2.31c0-.14.07-.22.23-.21h14.1c.39,0,.38,0,.42-.4.15-1.57.31-3.14.45-4.71.08-.83.15-1.66.23-2.48,0-.11,0-.21.05-.31Z"/><path class="cls-1" d="M129.8,15.35c0,.08,0,.15,0,.23,0,.39,0,.39-.43.39H117c-.35,0-.35,0-.33.36a2.78,2.78,0,0,0,2.67,2.77,4.4,4.4,0,0,0,3-.7s.08,0,.1-.08c.28-.4.69-.38,1.12-.38h5.26c.39,0,.41,0,.22.36a9,9,0,0,1-4.92,4.13,13.52,13.52,0,0,1-5.92.73,10.53,10.53,0,0,1-3.74-1,6.86,6.86,0,0,1-4.17-5.6,9.46,9.46,0,0,1,5-9.54,10.73,10.73,0,0,1,4.63-1.27,13,13,0,0,1,5.48.77,6.69,6.69,0,0,1,4.27,5.35c.1.51.13,1,.2,1.55Zm-9.58-2.72h2.94c.21,0,.31-.05.31-.27A2.45,2.45,0,0,0,121.62,10,4.26,4.26,0,0,0,120,9.94a3.32,3.32,0,0,0-2.91,2.4c-.1.28-.09.29.2.29Z"/><path class="cls-1" d="M9.76,0c-.08.84-.15,1.67-.23,2.51-.09,1-.19,2-.29,3,0,.41-.08.82-.11,1.22C9.12,7,9,7,8.83,7h-7c-.35,0-.37,0-.34-.36.09-1,.19-2,.29-3S2,1.59,2.09.57c0-.19,0-.38.05-.57Z"/><path class="cls-1" d="M33.47,0c-.07.84-.15,1.67-.22,2.51,0,.52-.09,1.05-.15,1.58s0,.38-.42.38H26.61c-.4,0-.42,0-.38-.41.11-1.18.23-2.36.34-3.54,0-.17,0-.35,0-.52Z"/><path class="cls-1" d="M79.56,8.27c.31-.3.59-.61.91-.87A7.1,7.1,0,0,1,84,5.91,8.44,8.44,0,0,1,87.59,6a4.63,4.63,0,0,1,3.56,3.61,8.16,8.16,0,0,1,0,2.61l-.3,3.08c-.11,1.23-.23,2.47-.35,3.7s-.22,2.31-.32,3.46c0,.24-.09.32-.33.32H83.62c-.32,0-.31,0-.28-.33.14-1.56.28-3.12.43-4.68.13-1.4.27-2.79.4-4.19a5.07,5.07,0,0,0-.07-1.4,1.45,1.45,0,0,0-1.31-1.28,2.89,2.89,0,0,0-2.74.85,3.21,3.21,0,0,0-.79,1.86c-.15,1.29-.25,2.59-.38,3.88s-.26,2.78-.4,4.16c0,.29,0,.57-.07.86s-.07.27-.28.27H71.77c-.21,0-.26-.09-.24-.28.17-1.81.34-3.62.52-5.44s.37-3.84.55-5.76c.15-1.57.29-3.14.43-4.71,0-.41,0-.42.45-.42h5.84c.32,0,.4-.06.35.36s-.1,1-.15,1.55A.2.2,0,0,0,79.56,8.27Z"/><path class="cls-1" d="M64.52,16H58.34c-.36,0-.38,0-.36.39A2.72,2.72,0,0,0,60.28,19a4,4,0,0,0,3.7-1,.45.45,0,0,1,.33-.12h5.91c.26,0,.28,0,.14.3a8.49,8.49,0,0,1-3.65,3.59,12.38,12.38,0,0,1-5.79,1.38,12.09,12.09,0,0,1-4.84-.84,7.1,7.1,0,0,1-4-3.75,8.08,8.08,0,0,1-.6-3.76A9,9,0,0,1,53.1,10.2,9.87,9.87,0,0,1,59.67,6a13,13,0,0,1,6.44.39A6.75,6.75,0,0,1,71,12.07a14.49,14.49,0,0,1,.15,3.42c0,.48,0,.48-.52.48Zm-2.95-3.34H63c.49,0,1,0,1.48,0,.22,0,.29-.08.29-.29A2.45,2.45,0,0,0,63,10a4.16,4.16,0,0,0-1.65-.07,3.34,3.34,0,0,0-2.93,2.39c-.09.27-.06.3.22.3Z"/><path class="cls-1" d="M94.94,17.33h2.91c.25,0,.36.07.38.33a1.76,1.76,0,0,0,1.38,1.52,4.15,4.15,0,0,0,2.51-.14,1.8,1.8,0,0,0,.63-.39,1,1,0,0,0-.23-1.6,6.64,6.64,0,0,0-1.9-.53c-1.14-.21-2.28-.39-3.4-.68a9.49,9.49,0,0,1-3-1.26A3.57,3.57,0,0,1,92.65,11a4.86,4.86,0,0,1,2.77-3.9,11.09,11.09,0,0,1,3.82-1.17,17.29,17.29,0,0,1,6.41.29,6.74,6.74,0,0,1,2.66,1.26,3.87,3.87,0,0,1,1.48,2.68c0,.19,0,.38,0,.57s-.07.35-.32.34h-5.58c-.23,0-.35,0-.39-.31a1.6,1.6,0,0,0-1.18-1.26,3.15,3.15,0,0,0-2.48.14,1.09,1.09,0,0,0-.61,1,.76.76,0,0,0,.41.68,2.45,2.45,0,0,0,.78.29c1.19.29,2.41.43,3.61.68a14.34,14.34,0,0,1,3.13,1,4,4,0,0,1,2.36,5,5.51,5.51,0,0,1-3,3.66,11.73,11.73,0,0,1-4.41,1.23,20.31,20.31,0,0,1-2.81.1,11.52,11.52,0,0,1-4.7-1,4.92,4.92,0,0,1-2.85-3,4.86,4.86,0,0,1-.21-1.56c0-.23.09-.31.31-.3Z"/><path class="cls-1" d="M36.26,17.33h2.92c.23,0,.33,0,.37.3a1.72,1.72,0,0,0,1.39,1.54,4.14,4.14,0,0,0,2.6-.17,1.26,1.26,0,0,0,.84-.93.9.9,0,0,0-.48-1A6.61,6.61,0,0,0,42,16.51a36.3,36.3,0,0,1-4-.85,7.32,7.32,0,0,1-2.78-1.37,3.49,3.49,0,0,1-1.22-3A4.59,4.59,0,0,1,35.52,8a7.21,7.21,0,0,1,2.54-1.45A14.34,14.34,0,0,1,42,5.81a16.41,16.41,0,0,1,5,.43,6.15,6.15,0,0,1,3.11,1.69,4.09,4.09,0,0,1,1,2.92c0,.16-.08.23-.24.23H45.24c-.23,0-.34-.05-.37-.31a1.52,1.52,0,0,0-1.06-1.21,3,3,0,0,0-2.62.11,1,1,0,0,0-.57,1.06.8.8,0,0,0,.57.65,4.64,4.64,0,0,0,1,.32c1.35.27,2.73.43,4.07.77a9.59,9.59,0,0,1,3,1.17A3.57,3.57,0,0,1,51,16a5.23,5.23,0,0,1-1.24,4.46,6.93,6.93,0,0,1-2.91,1.9,13.78,13.78,0,0,1-4,.78,19.24,19.24,0,0,1-2.94,0,10.43,10.43,0,0,1-4.56-1.33A4.54,4.54,0,0,1,33,18.6a5,5,0,0,1-.08-1c0-.24.08-.33.32-.32Z"/><path class="cls-1" d="M27.87,22.8h-3.1c-.23,0-.31-.06-.29-.31.21-2.12.4-4.25.58-6.37.17-1.83.32-3.67.49-5.51.15-1.65.31-3.29.45-4.94,0-.21.09-.28.3-.28h6.33c.19,0,.26,0,.24.25-.15,1.54-.28,3.07-.42,4.61L32.12,14c-.11,1.26-.23,2.52-.35,3.78s-.21,2.5-.33,3.75c0,.31-.08.62-.08.93s-.13.34-.39.34Z"/></g></g></g></svg>