<svg width="95px" height="32px" xmlns="http://www.w3.org/2000/svg" viewBox="0 0 100 99.97"><defs><style>.cls-1{fill:#d8d6d6;}</style></defs><g id="Layer_2" data-name="Layer 2"><g id="Layer_2-2" data-name="Layer 2"><g id="hp"><path class="cls-1" d="M47.73,0h5a4,4,0,0,0,.48.08,46.76,46.76,0,0,1,9.26,1.46A50.13,50.13,0,0,1,99.94,47.73a48.06,48.06,0,0,1-.9,12,49.18,49.18,0,0,1-17,28.59A49,49,0,0,1,49.14,100c-.63,0-.67-.07-.46-.65q4.86-13.39,9.74-26.78c.27-.74.27-.74,1.09-.74H72.42a5.55,5.55,0,0,0,1.41-.09,6.74,6.74,0,0,0,5-4.36q5-13.68,10-27.38a29.78,29.78,0,0,0,1.39-4.12,5.92,5.92,0,0,0-2.75-6.7,7.55,7.55,0,0,0-3.89-.95c-6.26,0-12.52,0-18.78,0a.92.92,0,0,0-1,.73q-8.15,22.41-16.3,44.8Q43.06,85.82,38.64,98c-.24.67-.25.67-1,.49A50.16,50.16,0,0,1,6,73.84,49.2,49.2,0,0,1,.37,56.26C.22,55.08.12,53.9,0,52.71V47.24c.06-.57.12-1.13.17-1.7A48.46,48.46,0,0,1,3.46,31.6,50.2,50.2,0,0,1,35.85,2c.16,0,.37-.19.5-.05s0,.37-.07.55q-4.85,13.35-9.71,26.69l-15.29,42c-.2.56-.16.61.43.61H21a.75.75,0,0,0,.84-.61Q24.41,64,27.05,56.77l7.77-21.32c.27-.75.27-.75,1.07-.75H42.4c.72,0,.72,0,.48.66l-13,35.74c-.23.65-.2.69.48.69H38.9c1.42,0,1.16.2,1.66-1.18q5.61-15.4,11.21-30.83a19.58,19.58,0,0,0,1.47-5,5.92,5.92,0,0,0-3.06-5.73,7.75,7.75,0,0,0-3.68-.86H38.19c-.72,0-.72,0-.49-.66L43.42,11.8Q45.57,5.9,47.73,0Z"/><path class="cls-1" d="M65.09,65.32c-1.1,0-2.21,0-3.32,0-.65,0-.69-.06-.47-.67q3.08-8.43,6.14-16.85,2.27-6.18,4.5-12.35c.3-.82.3-.82,1.14-.82h6.4c.74,0,.77,0,.52.75L70.36,61.82c-.35,1-.72,1.93-1,2.9a.77.77,0,0,1-.85.61C67.34,65.31,66.22,65.32,65.09,65.32Z"/></g></g></g></svg>