<svg width="95px" height="32px" xmlns="http://www.w3.org/2000/svg" viewBox="0 0 130.52 43.39"><defs><style>.cls-1{fill:#d8d6d6;}</style></defs><g id="Layer_2" data-name="Layer 2"><g id="Layer_2-2" data-name="Layer 2"><g id="htc"><path class="cls-1" d="M0,21.67V.5C0,0,0,0,.49,0h6c.42,0,.43,0,.43.42V11.83c0,.11-.06.25,0,.31s.18-.08.27-.13a10.93,10.93,0,0,1,2.93-1.16,9.63,9.63,0,0,1,1.5-.27,13.94,13.94,0,0,1,1.82-.14c.34,0,.68,0,1,0,2.9-.06,5.79-.07,8.69,0,1,0,2,0,3,.05a10.35,10.35,0,0,1,1.35.16c.38.06.76.14,1.14.22a15.81,15.81,0,0,1,1.78.53,14,14,0,0,1,2.82,1.34,12.12,12.12,0,0,1,2.48,2.09,12.81,12.81,0,0,1,2.89,5.14A13.57,13.57,0,0,1,39.08,22c.06.6.13,1.21.13,1.82v19c0,.49,0,.49-.49.49h-6c-.44,0-.45,0-.45-.43,0-2.35,0-4.7,0-7,.07-3.32,0-6.64,0-10,0-.76,0-1.53-.05-2.29a7.13,7.13,0,0,0-1.08-3.31A6.89,6.89,0,0,0,30,18.87a6.17,6.17,0,0,0-1.83-1.09,7.48,7.48,0,0,0-1.61-.42l-.29,0c-.5,0-1-.06-1.5-.09-.3,0-.6,0-.89,0-.53,0-1.06,0-1.59,0-1.53-.05-3.06-.08-4.59,0-1.18,0-2.35,0-3.52.06a10.47,10.47,0,0,0-1.94.21,7.29,7.29,0,0,0-1.62.58,6.36,6.36,0,0,0-1.65,1.22,6.64,6.64,0,0,0-1.59,2.48,6.53,6.53,0,0,0-.44,2.39c0,.6,0,1.19,0,1.78-.11,3.39-.06,6.78,0,10.17,0,2.26,0,4.53,0,6.79,0,.47,0,.47-.48.47h-6c-.42,0-.42,0-.42-.42Z"/><path class="cls-1" d="M117.25,17.34H104.7a5.8,5.8,0,0,0-3.1.95A6.82,6.82,0,0,0,100,19.71a8.43,8.43,0,0,0-1.6,2.77,10.78,10.78,0,0,0-.47,2.76c-.07,1,0,2,0,3,0,.37,0,.75.06,1.12s.07.92.13,1.37a7.61,7.61,0,0,0,.25,1.15,6,6,0,0,0,1,2,6.79,6.79,0,0,0,1.53,1.45,7,7,0,0,0,2.26,1,8,8,0,0,0,1.76.25h.57c3.51.1,7,.08,10.54,0,4.51-.06,9,0,13.52-.05.24,0,.48,0,.73,0s.33,0,.33.33c0,2.06,0,4.13,0,6.19,0,.28,0,.33-.3.33-.91,0-1.81,0-2.72,0H104.84c-.6,0-1.2-.05-1.8-.06a5,5,0,0,1-.85-.12,13.74,13.74,0,0,1-4.52-1.61,12.77,12.77,0,0,1-2.07-1.44,12.14,12.14,0,0,1-2.08-2.33,13,13,0,0,1-1.22-2.3,17.79,17.79,0,0,1-1-3.58A21.3,21.3,0,0,1,91,28.86c0-.68-.06-1.36,0-2,.06-1,0-1.95.1-2.92a18.84,18.84,0,0,1,.61-3.59,15.22,15.22,0,0,1,1.76-4.08,11.18,11.18,0,0,1,1.61-2,12.93,12.93,0,0,1,3.77-2.57,13.8,13.8,0,0,1,2.71-.87,14.19,14.19,0,0,1,1.85-.25c3.43-.2,6.87-.07,10.3-.09,3.82,0,7.63,0,11.44,0l5.06,0c.31,0,.35.05.35.37,0,2,0,4.09,0,6.13v.16a.17.17,0,0,1-.18.18H117.25Z"/><path class="cls-1" d="M65.62,10.86h19c.5,0,.5,0,.5.51v5.87c0,.47,0,.47-.48.47h-15c-.1,0-.21,0-.31,0s-.21.05-.22.23,0,.22,0,.34V42.73c0,.5,0,.5-.5.5h-6c-.43,0-.44,0-.44-.43V17.93a.2.2,0,0,0-.21-.22H46.58c-.48,0-.48,0-.48-.47V11.29c0-.42,0-.43.42-.43Z"/></g></g></g></svg>