<svg width="95px" height="32px" xmlns="http://www.w3.org/2000/svg" viewBox="0 0 129.85 20.63"><defs><style>.cls-1{fill:#d8d6d6;}</style></defs><g id="Layer_2" data-name="Layer 2"><g id="Layer_2-2" data-name="Layer 2"><g id="jawbone"><path class="cls-1" d="M0,19.9a5.09,5.09,0,0,0,.63-.39c.56-.37,1.11-.74,1.64-1.16a5.31,5.31,0,0,0,1.09-1.08,2.78,2.78,0,0,0,.45-1.33c.09-1.07,0-2.15,0-3.22V1.62c0-.21,0-.21.2-.21H5.87c.18,0,.19,0,.19.19V14.54a4.64,4.64,0,0,1-.46,2.17,5.11,5.11,0,0,1-1.36,1.6,14.15,14.15,0,0,1-2.93,1.78l-1.13.54c-.18,0-.18,0-.18-.19Z"/><path class="cls-1" d="M30.16,1.41h.95c.11,0,.17,0,.2.15Q32,4.13,32.77,6.69c.51,1.82,1,3.63,1.54,5.44.16.57.32,1.14.49,1.71a.84.84,0,0,0,.05.17s0,.11.07.11,0-.06.06-.1c.09-.23.17-.46.25-.7.71-2,1.41-4,2.12-6l1.77-5.06c.08-.21.15-.42.22-.63a.22.22,0,0,1,.26-.19,1.51,1.51,0,0,0,.3,0c.11,0,.16,0,.2.14.32.83.63,1.67.95,2.5l2,5.21L44.83,14s0,0,0,0,0,.08.07.08,0,0,.06-.09c.12-.47.25-.93.37-1.4l1.71-6.4,1.23-4.62c0-.15.1-.19.24-.19h1.06c.15,0,.16,0,.12.15l-2.54,8.69-2.1,7.18c-.09.29,0,.24-.33.24h-.49c-.11,0-.16,0-.19-.13-.37-1-.75-2-1.12-3L41.11,9.7,39.5,5.41c0-.06,0-.17-.11-.17s-.08.11-.1.17L37.85,9.34,36.3,13.57l-1.46,4a.17.17,0,0,1-.18.13h-.58c-.12,0-.16,0-.19-.15-.33-1.1-.66-2.2-1-3.3L30.57,6.51c-.5-1.64-1-3.27-1.48-4.91-.06-.18-.05-.19.14-.19Z"/><path class="cls-1" d="M62,8.83c.31.06.6.12.89.2a6.29,6.29,0,0,1,2.58,1.29,3.5,3.5,0,0,1,1.28,2.41,3.92,3.92,0,0,1-1,3,5.29,5.29,0,0,1-2.66,1.57,9.74,9.74,0,0,1-2.63.34H56c-.19,0-.19,0-.19-.19,0-.85,0-1.69,0-2.53V5.21c0-.83,0-1.65,0-2.47,0-.41,0-.82,0-1.22,0-.08,0-.12.1-.11h.12c1.5,0,3,0,4.52,0a8.8,8.8,0,0,1,1.7.14,5.61,5.61,0,0,1,2.35,1A3.13,3.13,0,0,1,66,4.86a3.07,3.07,0,0,1-1.24,2.8,6,6,0,0,1-2.58,1.11S62.07,8.77,62,8.83Zm-4,4.16h0v3.39c0,.18,0,.19.18.21a17.52,17.52,0,0,0,2.51.13,5.05,5.05,0,0,0,1.76-.34,2.91,2.91,0,0,0,1.81-2.11,4.9,4.9,0,0,0-.11-2.52,3,3,0,0,0-1.89-2,5.9,5.9,0,0,0-2.12-.35h-2c-.18,0-.18,0-.18.19Zm0-7.46V8.35c0,.12,0,.16.16.16.63,0,1.26,0,1.89,0a4.77,4.77,0,0,0,2-.4,2.55,2.55,0,0,0,1.38-1.43,3.93,3.93,0,0,0,0-2.62,2.25,2.25,0,0,0-1-1.22,3.61,3.61,0,0,0-1.73-.46,10.17,10.17,0,0,0-1.1,0c-.48,0-1,.08-1.44.14-.14,0-.17.08-.17.21Z"/><path class="cls-1" d="M105.45,9.55v7.91c0,.22,0,.19-.22.22a.77.77,0,0,1-.8-.39c-.63-.81-1.28-1.6-1.93-2.4l-3-3.66L96.41,7.35,94.35,4.8s0-.1-.11-.08,0,.09,0,.13V17.47c0,.21,0,.21-.21.21H93c-.11,0-.15,0-.14-.15V3.2a.51.51,0,0,0-.11-.33c-.35-.43-.7-.87-1-1.31,0,0-.08-.07-.06-.12s.08,0,.13,0H94a.3.3,0,0,1,.24.12l2.46,3,3.24,3.93c1,1.2,2,2.41,3,3.62L104,13.4s0,.08.08.06,0-.05,0-.09a.56.56,0,0,0,0-.13V1.6c0-.18,0-.18.18-.18h1c.18,0,.18,0,.18.19V9.55Z"/><path class="cls-1" d="M71.5,9.47a8.49,8.49,0,0,1,2.12-5.61,7.39,7.39,0,0,1,8.77-1.92,7.78,7.78,0,0,1,2.53,1.83A8.22,8.22,0,0,1,87,8a8.83,8.83,0,0,1,.15,1.85,8.37,8.37,0,0,1-2.55,5.87,7.35,7.35,0,0,1-4.14,2.07,7.23,7.23,0,0,1-4.25-.62,8,8,0,0,1-4.41-5.26A8.8,8.8,0,0,1,71.5,9.47ZM84.77,10a10.24,10.24,0,0,0,0-1.1,9.81,9.81,0,0,0-.59-2.72A6.86,6.86,0,0,0,82.3,3.42a4.75,4.75,0,0,0-3.38-1.26,4.44,4.44,0,0,0-2.13.6,5.25,5.25,0,0,0-2.15,2.48,9.25,9.25,0,0,0-.73,3.56A12.94,12.94,0,0,0,74,10.67,9.28,9.28,0,0,0,75,14a5.89,5.89,0,0,0,1.77,2,4.69,4.69,0,0,0,3.46.86,4.54,4.54,0,0,0,2.51-1.17,5.66,5.66,0,0,0,1.52-2.42A9.79,9.79,0,0,0,84.77,10Z"/><path class="cls-1" d="M25,17.68H24a.19.19,0,0,1-.21-.14c-.3-.78-.6-1.57-.91-2.36l-1.35-3.5a.18.18,0,0,0-.19-.14c-1.85,0-3.69,0-5.54,0a.18.18,0,0,0-.19.14l-2.09,5.85a.19.19,0,0,1-.22.15h-1c-.13,0-.14,0-.09-.14l1.26-3.3q.88-2.28,1.75-4.57c.69-1.78,1.37-3.57,2.06-5.36.22-.57.43-1.14.66-1.72a.3.3,0,0,0,0-.21c-.11-.27-.21-.55-.32-.82,0-.09,0-.13.09-.13h2c.11,0,.14.06.17.14.42,1.06.84,2.13,1.25,3.2.55,1.39,1.09,2.79,1.64,4.19L25,14.89l1,2.61c.07.17.07.18-.12.18ZM18.5,10.56h2.35c.19,0,.19,0,.12-.19L19.53,6.64c-.33-.87-.66-1.74-1-2.61,0,0,0-.09-.07-.09S18.4,4,18.39,4l-.3.82-2,5.55c-.06.16-.06.16.11.16Z"/><path class="cls-1" d="M117.83,17.68h-5.1c-.19,0-.19,0-.19-.19,0-.85,0-1.7,0-2.55,0-.62,0-1.23,0-1.85s0-1.48,0-2.22,0-1.39,0-2.08V5.2c0-.83,0-1.66,0-2.49,0-.39,0-.78,0-1.18,0-.08,0-.12.11-.11h9.82c.21,0,.21,0,.21.2s0,.46,0,.69,0,.17-.17.16l-3-.09-1,0c-.81,0-1.63,0-2.44-.06l-1.23,0c-.12,0-.16,0-.16.15V8.63c0,.13,0,.16.17.16h6c.22,0,.22,0,.22.21s0,.38,0,.57,0,.17-.17.17h-6c-.18,0-.18,0-.18.17V16.7c0,.11,0,.15.15.14.4,0,.81,0,1.21,0,.63,0,1.26,0,1.89,0l3.52-.08,1.5-.05c.18,0,.19,0,.18.19l-.06.72a.11.11,0,0,1-.12.12h-5.18Z"/><path class="cls-1" d="M129.84,2a2,2,0,0,1-2,2,2,2,0,0,1-2-2,2,2,0,0,1,2-2A2,2,0,0,1,129.84,2ZM126.1,2a1.76,1.76,0,1,0,3.51,0,1.76,1.76,0,1,0-3.51,0Z"/><path class="cls-1" d="M127.1,2c0-.29,0-.58,0-.87,0-.1,0-.15.15-.15.31,0,.62,0,.93,0a.63.63,0,0,1,.57.8.59.59,0,0,1-.35.39c-.08,0-.1.07,0,.15s.28.38.42.57,0,.11-.05.12-.36,0-.46-.21a3.83,3.83,0,0,0-.28-.42.22.22,0,0,0-.22-.11c-.31,0-.31,0-.32.31V2.9c0,.15-.11.1-.19.11s-.16,0-.16-.12C127.1,2.59,127.1,2.29,127.1,2Zm.7,0h0a2.62,2.62,0,0,0,.28,0,.35.35,0,0,0,.32-.32.31.31,0,0,0-.28-.35,3,3,0,0,0-.6,0c-.07,0-.07.05-.07.1s0,.31,0,.47,0,.12.11.11Z"/></g></g></g></svg>