<svg width="95px" height="32px" xmlns="http://www.w3.org/2000/svg" viewBox="0 0 129.78 70.14"><defs><style>.cls-1{fill:#d8d6d6;}</style></defs><g id="Layer_2" data-name="Layer 2"><g id="Layer_2-2" data-name="Layer 2"><g id="kobo"><path class="cls-1" d="M78.51,0V16.6a1.27,1.27,0,0,0,.5-.51c3.64-5,12.4-4.74,15.41,1.35a19.76,19.76,0,0,1,1.89,7A32.13,32.13,0,0,1,96.12,33a15.22,15.22,0,0,1-2.44,6.3,10.14,10.14,0,0,1-6,4,15.73,15.73,0,0,1-8.2-.09,10.28,10.28,0,0,1-7.39-7.44,16.68,16.68,0,0,1-.69-4.77q0-15.27,0-30.54c0-.19,0-.37,0-.55ZM88.84,28.11a31.08,31.08,0,0,0-.24-4.82,9.26,9.26,0,0,0-1.55-4.46,4,4,0,0,0-5.58-.74,5.44,5.44,0,0,0-1.64,2.24,17.36,17.36,0,0,0-1.29,6.36,42.85,42.85,0,0,0,.1,5.55,14.12,14.12,0,0,0,.78,3.8,4.51,4.51,0,0,0,6.4,2.38,5.16,5.16,0,0,0,2.31-3.34A23.07,23.07,0,0,0,88.84,28.11Z"/><path class="cls-1" d="M23.08,0c0,.29,0,.58,0,.88V24.43l.11.06,1.55-1.78,7.54-8.81a1.28,1.28,0,0,1,1.08-.51c2.37,0,4.73,0,7.09,0,.18,0,.42-.08.5.12s-.14.31-.25.45Q35.57,20,30.41,26c-.29.33-.15.53,0,.8Q36,34.75,41.53,42.68c.11.16.34.31.25.51s-.39.12-.59.13c-2.33,0-4.66,0-7,0a1.15,1.15,0,0,1-1.07-.58c-3.21-4.63-6.45-9.26-9.67-13.88-.08-.12-.13-.26-.3-.32a1.28,1.28,0,0,0-.05.58V42.54c0,.78,0,.78-.8.78-1.87,0-3.74,0-5.6,0-.49,0-.69-.13-.69-.65Q16,21.49,16,.27a2.45,2.45,0,0,1,0-.27Z"/><path class="cls-1" d="M0,60.69l4-2.3c2.66-1.52,5.32-3,8-4.57a3,3,0,0,1,1.51-.41c10.81,0,21.62,0,32.43,0a52.17,52.17,0,0,1,10.29.76,21.73,21.73,0,0,1,10,4.44A8.69,8.69,0,0,1,68.94,63c.07.25.16.44.47.44a.5.5,0,0,0,.53-.38c1.38-3.88,4.36-6.08,8-7.5a25.07,25.07,0,0,1,7.85-1.7c3.64-.17,7.28-.31,10.93-.32a61.27,61.27,0,0,0,8-.5c.74-.1.82,0,.82.73V59.6c0,.85,0,.86-.84.86-5.94,0-11.88,0-17.81,0a31.74,31.74,0,0,0-8.08.76c-3,.81-5.53,2.31-7,5.2a13,13,0,0,0-1.25,3.1.7.7,0,0,1-.81.61c-1.5,0-1.5,0-1.87-1.44a8.83,8.83,0,0,0-6.18-6.5,29.66,29.66,0,0,0-7-1.33c-1.87-.14-3.74-.12-5.6-.08L37.59,61c-1.63,0-3.26,0-4.89.08-2.9,0-5.79,0-8.69.13-4.91.16-9.82.08-14.72,0-3,0-6-.22-8.94-.52A2.51,2.51,0,0,1,0,60.69Z"/><path class="cls-1" d="M67.76,28.1a20.45,20.45,0,0,1-1.88,9.23,11.4,11.4,0,0,1-9.58,6.44A15.57,15.57,0,0,1,49.42,43a11,11,0,0,1-7-7.49,23,23,0,0,1,.24-15.15c1.71-4.62,5.17-7.14,10.07-7.68a15.32,15.32,0,0,1,6.35.55,11.2,11.2,0,0,1,7.14,6.53A21.28,21.28,0,0,1,67.76,28.1Zm-18.82.37A29.59,29.59,0,0,0,49.07,32a11.85,11.85,0,0,0,1,4.29,5.11,5.11,0,0,0,7.37,1.78,4.12,4.12,0,0,0,.9-.87,8.88,8.88,0,0,0,1.52-4.53,39,39,0,0,0,.1-7.56,15.37,15.37,0,0,0-.77-4,4.84,4.84,0,0,0-6-3.39,4.19,4.19,0,0,0-2.57,1.65,7,7,0,0,0-1.11,2.49A26.79,26.79,0,0,0,48.94,28.47Z"/><path class="cls-1" d="M99.92,28.37a20.14,20.14,0,0,1,1.54-8.58,11.4,11.4,0,0,1,9.67-7.06,15.66,15.66,0,0,1,5.94.37,11.36,11.36,0,0,1,8,7.47,22.22,22.22,0,0,1,1.19,9.19,19.31,19.31,0,0,1-1.62,7.18,11.3,11.3,0,0,1-8.74,6.69,15.7,15.7,0,0,1-7.24-.37A11.13,11.13,0,0,1,101.13,36,20.7,20.7,0,0,1,99.92,28.37Zm18.81-.05c0-.85-.08-1.68-.1-2.52a16.68,16.68,0,0,0-.67-4.27,6.07,6.07,0,0,0-1.62-2.82,4.76,4.76,0,0,0-3.78-1.12,4.3,4.3,0,0,0-3.47,1.91,8.53,8.53,0,0,0-1.3,3.93,49.87,49.87,0,0,0-.21,8.81,10,10,0,0,0,1,4.07A5.22,5.22,0,0,0,116.23,38a5.58,5.58,0,0,0,1.83-3.06A28,28,0,0,0,118.73,28.32Z"/><path class="cls-1" d="M114.17,61c-1,0-2.09,0-3.13,0-.46,0-.66-.13-.65-.62,0-2.12,0-4.25,0-6.37,0-.45.15-.62.6-.61q3.2,0,6.37,0c.48,0,.64.19.64.66q0,3.15,0,6.31c0,.48-.17.64-.65.63C116.29,61,115.23,61,114.17,61Z"/><path class="cls-1" d="M129.77,57.25c0,1,0,2.09,0,3.13,0,.43-.12.63-.59.63-2.13,0-4.25,0-6.38,0-.39,0-.56-.14-.56-.54q0-3.27,0-6.54c0-.38.17-.52.53-.52q3.23,0,6.43,0c.44,0,.58.19.57.6C129.76,55.09,129.77,56.17,129.77,57.25Z"/></g></g></g></svg>