<svg  width="95px" height="32px" xmlns="http://www.w3.org/2000/svg" viewBox="0 0 128.58 56.49"><defs><style>.cls-1{fill:#d8d6d6;}</style></defs><g id="Layer_2" data-name="Layer 2"><g id="Layer_2-2" data-name="Layer 2"><g id="lg"><path class="cls-1" d="M30.09,0a4.87,4.87,0,0,0,1,.1,28.17,28.17,0,0,1,18,9,27.82,27.82,0,0,1,5.73,9.42,28.19,28.19,0,0,1,1.49,6.12,27.82,27.82,0,0,1,.21,4.74,28.16,28.16,0,0,1-3.36,12.23,27.67,27.67,0,0,1-3.64,5.23,28.18,28.18,0,0,1-16.57,9.23,31.32,31.32,0,0,1-3.2.36.76.76,0,0,0-.33.05H27.1a3.19,3.19,0,0,0-.87-.1,25.31,25.31,0,0,1-2.62-.31,28.91,28.91,0,0,1-5.18-1.39,28.24,28.24,0,0,1-9.2-5.64,28.37,28.37,0,0,1-8.08-13,27.46,27.46,0,0,1-1-6A1.87,1.87,0,0,0,0,29.4V27.09a2,2,0,0,0,.11-.73,24.69,24.69,0,0,1,.45-3.53A28.31,28.31,0,0,1,25.48.1a4.87,4.87,0,0,0,1-.1ZM43.52,27.23H35.74c-.1,0-.2,0-.3,0-.27,0-.31.05-.32.32s0,.77,0,1.15c0,.56,0,.56.56.56H49.3c.34,0,.37,0,.37.37a8.29,8.29,0,0,1-.06.85A21.39,21.39,0,0,1,41.3,45.27a21.07,21.07,0,0,1-11.69,4.36,20.64,20.64,0,0,1-4.23-.17,21.08,21.08,0,0,1-6.22-1.86,21.73,21.73,0,0,1-6.92-5.22,21.1,21.1,0,0,1-4-6.63A20.59,20.59,0,0,1,6.87,29.5a21.36,21.36,0,0,1,2.85-12A22,22,0,0,1,14,12.27a20.64,20.64,0,0,1,4.48-3.11,21.15,21.15,0,0,1,9.9-2.39h.78a.2.2,0,0,0,.23-.23V4.85a.2.2,0,0,0-.21-.22l-.91-.06c-.37,0-.73,0-1.09.06a18.25,18.25,0,0,0-2.86.3A23.71,23.71,0,0,0,5.68,21.52a22.76,22.76,0,0,0-.9,5,21.76,21.76,0,0,0,0,2.68,27.64,27.64,0,0,0,.41,3.53A23.32,23.32,0,0,0,12.84,46a23.71,23.71,0,0,0,6.1,3.82,24,24,0,0,0,8.66,1.93,23.88,23.88,0,0,0,11-2.34,23.78,23.78,0,0,0,8.19-6.57A23,23,0,0,0,51,34.56a24,24,0,0,0,.86-6.84c0-.49,0-.49-.5-.49H43.52Zm-16.33,1V40c0,.5,0,.5.51.5h7.06c.22,0,.27,0,.27-.26,0-.55,0-1.11,0-1.66,0-.15-.06-.24-.22-.24H30c-.59,0-.61.09-.61-.61V16.28c0-.37,0-.39-.41-.39H27.71c-.52,0-.52,0-.52.53Zm-4.57-9a3.34,3.34,0,1,0-3.34,3.3A3.36,3.36,0,0,0,22.62,19.24Z"/><path class="cls-1" d="M128.58,43.25A15.39,15.39,0,0,1,125.07,45a29.71,29.71,0,0,1-6,1.46,33.28,33.28,0,0,1-6.06.31,22.54,22.54,0,0,1-6.5-1.14,14.07,14.07,0,0,1-5.93-3.81,13.8,13.8,0,0,1-2.31-3.5A20.69,20.69,0,0,1,96.5,32a32.54,32.54,0,0,1-.24-5.22,25.2,25.2,0,0,1,1.21-7.3,15.51,15.51,0,0,1,2.66-4.93,13.65,13.65,0,0,1,4.05-3.36,17.91,17.91,0,0,1,5.9-1.95C111,9.07,112,9,113,8.93c.69,0,1.38,0,2.07,0a21.55,21.55,0,0,1,7.85,1.53,13,13,0,0,1,5.48,4.21c.21.29.22.3-.06.56l-2.11,2-2.54,2.35,0,0c-.36.34-.35.33-.66,0a9.21,9.21,0,0,0-3.62-2.73,11.4,11.4,0,0,0-3.5-.74A14.87,14.87,0,0,0,114.2,16a14.07,14.07,0,0,0-3.81.58A7.4,7.4,0,0,0,105.64,21a13.58,13.58,0,0,0-.88,3.55,25.36,25.36,0,0,0-.2,3.69,21.93,21.93,0,0,0,.55,4.91,9.18,9.18,0,0,0,1.39,3.19,7.19,7.19,0,0,0,4.07,2.77,14.22,14.22,0,0,0,3.38.49,20.41,20.41,0,0,0,5.72-.62l.84-.25c.3-.11.31-.13.31-.45v-5.5c0-.5,0-.51-.5-.51h-5.94c-.54,0-.54,0-.54-.54V25.85c0-.5,0-.52.52-.52h14.22Z"/><path class="cls-1" d="M69.22,27.86V10.07c0-.63,0-.63.63-.63h7.27c.69,0,.66,0,.66.64V38.4c0,.7,0,.64.64.64h16.3c.64,0,.59,0,.59.6v6.18c0,.49,0,.49-.49.49H69.72c-.49,0-.5,0-.5-.52Z"/></g></g></g></svg>