<svg width="95px" height="32px" xmlns="http://www.w3.org/2000/svg" viewBox="0 0 129.16 28.08"><defs><style>.cls-1{fill:#d8d6d6;}</style></defs><g id="Layer_2" data-name="Layer 2"><g id="Layer_2-2" data-name="Layer 2"><g id="microsoft"><path class="cls-1" d="M45.53,17.83c.41-1.21.92-2.37,1.39-3.55C48,11.63,49,9,50.07,6.33a.9.9,0,0,1,1-.63h2.63c.79,0,.88.09.88.86V21.47c0,.8-.11.91-.9.91H52.18c-.74,0-.86-.12-.86-.88s0-1.4,0-2.1V13a11.66,11.66,0,0,1,.08-1.77,8,8,0,0,0,0-1,6.44,6.44,0,0,0-.68,1.54q-1.92,4.83-3.8,9.66c-.38.95-.38,1-1.4.95s-1.11.2-1.6-1.05C42.64,18,41.29,14.77,40,11.5c-.16-.41-.32-.82-.48-1.26-.2.18-.13.37-.12.53.21,3.66,0,7.32.09,11,0,.46-.23.65-.67.64h-1.4c-.86,0-.94-.08-.94-.91V6.61c0-.83.08-.91.94-.91s1.83,0,2.74,0a.88.88,0,0,1,.95.68c1,2.71,2.1,5.41,3.15,8.12C44.66,15.59,45.17,16.66,45.53,17.83Z"/><path class="cls-1" d="M.07,6.77C0,4.73.11,2.68,0,.64,0,.22.2,0,.62,0h12c.84,0,.92.08.92.93V12.77c0,.73-.07.79-.81.79H.94c-.78,0-.87-.1-.87-.87C.06,10.72.06,8.75.07,6.77Z"/><path class="cls-1" d="M28.05,21.36v5.91c0,.66-.14.81-.78.81-4,0-8,0-12,0-.6,0-.78-.21-.78-.89,0-3.6.15-7.2.11-10.81,0-.39,0-.79,0-1.18s.24-.53.6-.53c2.6,0,5.2-.1,7.79,0,1.47.06,2.93-.12,4.39,0,.56.06.68.3.68.8C28,17.45,28.05,19.4,28.05,21.36Z"/><path class="cls-1" d="M28,6.87v5.8c0,.86,0,.89-.93.89H16.16a7,7,0,0,0-.8,0c-.58.06-.84-.11-.85-.67,0-1.38-.06-2.76,0-4.14,0-.77,0-1.53,0-2.3,0-1.83,0-3.66,0-5.48,0-.85.19-1,1-1s1.83,0,2.74,0h8.82c.79,0,.86.07.86.86,0,2,0,3.94,0,5.92Z"/><path class="cls-1" d="M6.75,28H.94c-.77,0-.87-.1-.87-.87V15.6c0-.83.15-.92,1-.9,1.77,0,3.55.08,5.33,0a24.69,24.69,0,0,1,2.58,0c1.23.06,2.46,0,3.7,0,.69,0,.84.09.84.76V27.13c0,.74-.11.85-.83.86Z"/><path class="cls-1" d="M119.45,17.61c0,1.35,0,2.7,0,4,0,.65-.07.72-.7.73h-1.61c-.45,0-.69-.19-.68-.63.05-2.46-.11-4.91.05-7.37,0-.39,0-.78,0-1.17s-.19-.29-.38-.3H115c-.35,0-.54-.16-.54-.52V10.83a.44.44,0,0,1,.5-.5,6.26,6.26,0,0,1,.75,0c.51.05.71-.14.7-.67a6.59,6.59,0,0,1,.11-2,4.15,4.15,0,0,1,3.93-3.12,4.5,4.5,0,0,1,1.55.12.55.55,0,0,1,.44.54c0,.57,0,1.14,0,1.72,0,.35-.19.43-.5.33-1.86-.56-2.57.53-2.52,2,0,1.05,0,1.05,1,1.05h2.31c.36,0,.53-.14.52-.51s0-1,0-1.5a.65.65,0,0,1,.49-.73c.69-.2,1.37-.42,2.06-.63.4-.12.47.14.47.44,0,.77,0,1.55,0,2.32,0,.47.16.64.63.62s1,0,1.56,0,.63.18.61.62,0,.93,0,1.4a.48.48,0,0,1-.55.56h-1.78c-.22,0-.44,0-.44.33a52.7,52.7,0,0,0,.06,5.48c.1,1.09.72,1.49,1.78,1.25s.94-.21.93.75v.22c0,1.53.06,1.32-1.32,1.59a3.92,3.92,0,0,1-3.1-.52,3.58,3.58,0,0,1-1.39-3.26c0-1.72,0-3.45,0-5.17,0-.52-.17-.7-.68-.68-.88,0-1.76,0-2.64,0-.41,0-.58.15-.57.57C119.46,14.85,119.45,16.23,119.45,17.61Z"/><path class="cls-1" d="M108.26,10.1c2.59-.09,4.47.84,5.57,3.06a7.16,7.16,0,0,1,.54,4.36,5.83,5.83,0,0,1-5.92,5.09,6.3,6.3,0,0,1-4.1-1.18A5.79,5.79,0,0,1,102.13,17a7.17,7.17,0,0,1,.94-4.24,5.34,5.34,0,0,1,3-2.35A5.27,5.27,0,0,1,108.26,10.1Zm-2.92,6.23v.43c0,2.27,1.31,3.46,3.56,3.25a2.25,2.25,0,0,0,2-1.53,6,6,0,0,0,0-4.15,2.42,2.42,0,0,0-2.23-1.68,2.81,2.81,0,0,0-2.69,1A3.71,3.71,0,0,0,105.34,16.33Z"/><path class="cls-1" d="M86.15,10.11a5.21,5.21,0,0,1,5.34,3.14c1.21,2.65.84,6.47-2,8.38a6.69,6.69,0,0,1-5.17.82,5,5,0,0,1-3.92-3.1,6.84,6.84,0,0,1,1-7.46,5.32,5.32,0,0,1,3.79-1.78C85.5,10.09,85.83,10.11,86.15,10.11ZM86,20a2.51,2.51,0,0,0,2.83-2.22,6.62,6.62,0,0,0,0-3,2.72,2.72,0,0,0-2.36-2.18,2.85,2.85,0,0,0-3,1.35A5.21,5.21,0,0,0,83,17.54,2.75,2.75,0,0,0,86,20Z"/><path class="cls-1" d="M97.8,10.11a5.81,5.81,0,0,1,2.26.31.66.66,0,0,1,.55.7c0,.57,0,1.14,0,1.72s-.17.55-.58.31a4.51,4.51,0,0,0-2.64-.56,1.09,1.09,0,0,0-1.15.78,1.21,1.21,0,0,0,.68,1.29c.73.41,1.55.64,2.29,1.05a3.45,3.45,0,0,1,2,3.44,3.86,3.86,0,0,1-3,3.25,7.9,7.9,0,0,1-4.44-.25.84.84,0,0,1-.67-.91c0-.52,0-1,0-1.56s.15-.72.69-.39a5.16,5.16,0,0,0,3.22.82c.82-.07,1.23-.49,1.14-1.18a1.08,1.08,0,0,0-.67-.84c-.75-.38-1.52-.73-2.27-1.1a3.31,3.31,0,0,1-2.07-3.35,3.72,3.72,0,0,1,2.61-3.25A4.53,4.53,0,0,1,97.8,10.11Z"/><path class="cls-1" d="M68.18,10.1a5.13,5.13,0,0,1,2.2.35.82.82,0,0,1,.62.88c0,.52,0,1,0,1.56,0,.2.06.42-.14.55s-.36-.06-.53-.15a4.23,4.23,0,0,0-3-.59,2.91,2.91,0,0,0-2.1,1.54A4.51,4.51,0,0,0,65,18.15c.78,1.89,2.7,2.2,4.46,1.62a8.53,8.53,0,0,0,1-.49c.39-.2.58-.1.6.34s0,1.15,0,1.72a.68.68,0,0,1-.51.68c-2.45.93-4.84.94-7-.78a5.39,5.39,0,0,1-2-3.72,6.83,6.83,0,0,1,1.24-5.09A6.06,6.06,0,0,1,68.18,10.1Z"/><path class="cls-1" d="M75.94,11.7a3.69,3.69,0,0,1,1.82-1.44,3,3,0,0,1,1.64,0,.54.54,0,0,1,.45.58c0,.66,0,1.33,0,2,0,.4-.19.51-.56.38a4.48,4.48,0,0,0-.71-.22,2.09,2.09,0,0,0-2.38,1.4A4.1,4.1,0,0,0,75.84,16c0,1.84,0,3.69,0,5.54,0,.8-.08.88-.9.88H73.38c-.43,0-.65-.21-.65-.67,0-3.56,0-7.13,0-10.69,0-.48.21-.69.69-.68h1.66c.65,0,.75.12.77.76A.92.92,0,0,0,75.94,11.7Z"/><path class="cls-1" d="M59.91,16.36c0,1.73,0,3.47,0,5.21,0,.7-.11.81-.81.81H57.65c-.75,0-.85-.1-.85-.84V12.19c0-.41,0-.82,0-1.23a.55.55,0,0,1,.59-.62h2c.47,0,.54.32.54.7Z"/><path class="cls-1" d="M58.43,8.82A1.82,1.82,0,0,1,56.59,7.1a1.82,1.82,0,0,1,3.64,0A1.75,1.75,0,0,1,58.43,8.82Z"/></g></g></g></svg>