<svg width="95px" height="32px" xmlns="http://www.w3.org/2000/svg" viewBox="0 0 129.34 50.22"><defs><style>.cls-1{fill:#d8d6d6;}</style></defs><g id="Layer_2" data-name="Layer 2"><g id="Layer_2-2" data-name="Layer 2"><g id="motion"><path class="cls-1" d="M16.54,24l1.55-2.07,5.32-7.09a.42.42,0,0,1,.37-.18H34c.29,0,.3,0,.2.33-1,2.69-1.89,5.37-2.84,8q-1.56,4.44-3.13,8.9c-.15.43-.15.43-.59.43H21.29c-.34,0-.34,0-.23-.31l4.13-11.25a.49.49,0,0,0,0-.25l-.59.8L22,25.1l-5,7a.41.41,0,0,1-.38.2h-5c-.23,0-.29-.07-.29-.29-.05-1.58,0-3.15-.06-4.72s0-2.91-.06-4.36c0-.84,0-1.67-.07-2.52-.18.53-.36,1.06-.53,1.59l-3,8.9c-.13.38-.27.76-.39,1.15a.29.29,0,0,1-.33.25H.21c-.21,0-.25-.06-.18-.26l3.2-9.2C4.14,20.25,5.06,17.62,6,15a.44.44,0,0,1,.49-.36h9.93c.27,0,.33.08.32.32-.05,1.92-.09,3.83-.13,5.74l-.09,3a2.44,2.44,0,0,0,0,.27Z"/><path class="cls-1" d="M47.89,16.75c.33-.35.62-.71,1-1,1-1,2.1-1.9,3.2-2.79,1.36-1.09,2.75-2.12,4.19-3.1A60.25,60.25,0,0,1,67.88,3.7a55.83,55.83,0,0,1,7.57-2.38A48,48,0,0,1,81.62.25,32.5,32.5,0,0,1,86.55,0a14.73,14.73,0,0,1,7.18,2,7.85,7.85,0,0,1,3.55,4.22,7,7,0,0,1,.17,3.86,11.39,11.39,0,0,1-2.13,4.38c-.43.57-.9,1.1-1.38,1.62a.42.42,0,0,1-.31.22l.15-.79a10.34,10.34,0,0,0,0-4.43,6.57,6.57,0,0,0-2.62-3.83A11.66,11.66,0,0,0,86,5.35a27.12,27.12,0,0,0-5.48-.19,43.24,43.24,0,0,0-5.79.74A72.47,72.47,0,0,0,61.93,9.67q-3.74,1.46-7.3,3.26c-2.19,1.1-4.32,2.31-6.39,3.61Z"/><path class="cls-1" d="M83.59,33.71a9.27,9.27,0,0,1-.94.94c-1.08,1-2.21,2-3.37,2.9s-2.54,1.94-3.87,2.84S73,42,71.67,42.73q-2.43,1.41-5,2.58c-1.36.61-2.73,1.19-4.13,1.7a54.6,54.6,0,0,1-9.91,2.62,48.47,48.47,0,0,1-5.65.56,18.32,18.32,0,0,1-6.29-.74,10.58,10.58,0,0,1-4.17-2.31,6.94,6.94,0,0,1-2.41-4.78,8.75,8.75,0,0,1,1.28-5,15.23,15.23,0,0,1,2.37-3.11c.05-.06.09-.18.18-.14s0,.17,0,.25a12.33,12.33,0,0,0-.28,3.32,6.85,6.85,0,0,0,3.95,6,14.49,14.49,0,0,0,5.25,1.38,27.16,27.16,0,0,0,3.61.09c1.26,0,2.51-.17,3.76-.33a56.16,56.16,0,0,0,6.92-1.4,78.51,78.51,0,0,0,9.19-3,85.59,85.59,0,0,0,8.47-3.94c1.35-.72,2.67-1.5,4-2.29A5.27,5.27,0,0,1,83.59,33.71Z"/><path class="cls-1" d="M112.9,20.47a10.79,10.79,0,0,1,9.69-1.25A3.08,3.08,0,0,1,124.48,21a3.14,3.14,0,0,1,.07,1.82,26.79,26.79,0,0,1-1.13,3.49c-.68,1.88-1.37,3.75-2,5.63a.49.49,0,0,1-.55.39c-2,0-4,0-6,0-.39,0-.4,0-.27-.38q1.29-3.54,2.56-7.06a3.61,3.61,0,0,0,.21-.71,1,1,0,0,0-.71-1.27,3.2,3.2,0,0,0-1.47-.19,4.1,4.1,0,0,0-2.56,1,3.84,3.84,0,0,0-1.07,1.64c-.79,2.2-1.58,4.4-2.35,6.61a.5.5,0,0,1-.56.41c-2,0-4,0-6,0-.32,0-.32,0-.21-.31q1.64-4.65,3.29-9.31c.4-1.15.82-2.31,1.22-3.46a.4.4,0,0,1,.45-.33h5.85c.33,0,.34,0,.23.32Z"/><path class="cls-1" d="M90.33,32.68a14.48,14.48,0,0,1-4.44-.56,6.46,6.46,0,0,1-3.54-2.26,4.58,4.58,0,0,1-.91-2.53,6.87,6.87,0,0,1,2.21-5.59,10.11,10.11,0,0,1,3.69-2.19,15.92,15.92,0,0,1,4.42-.88,20.47,20.47,0,0,1,4.82.17,8.52,8.52,0,0,1,3.81,1.49,4.35,4.35,0,0,1,1.77,3.38,7.33,7.33,0,0,1-1.42,4.66A9.34,9.34,0,0,1,96,31.83a15.2,15.2,0,0,1-4,.8C91.43,32.67,90.88,32.67,90.33,32.68Zm2.35-10.4a3.66,3.66,0,0,0-1.82.44,4.89,4.89,0,0,0-2.69,4.13,1.81,1.81,0,0,0,1.41,2,4.47,4.47,0,0,0,2.21,0A4.7,4.7,0,0,0,95.35,24a1.69,1.69,0,0,0-.66-1.23A3.26,3.26,0,0,0,92.68,22.28Z"/><path class="cls-1" d="M44.94,18.61a15.19,15.19,0,0,1,4.79.62,5.71,5.71,0,0,1,3.2,2.17,4.84,4.84,0,0,1,.68,3.68,8.47,8.47,0,0,1-5.54,6.53,14,14,0,0,1-4.61,1A18,18,0,0,1,38,32.28a7.72,7.72,0,0,1-3.47-1.66A4.68,4.68,0,0,1,33,27.14,7,7,0,0,1,36,21a11.52,11.52,0,0,1,4.27-1.91A18.57,18.57,0,0,1,44.94,18.61Zm-.58,3.66c-.24,0-.48,0-.71.06a4.34,4.34,0,0,0-3.13,2.09,4.46,4.46,0,0,0-.81,2.65,1.86,1.86,0,0,0,1.48,1.82,4.44,4.44,0,0,0,2.05,0,4.52,4.52,0,0,0,3.33-2.86,3.67,3.67,0,0,0,.24-2.42,1.56,1.56,0,0,0-1-1.12A4.15,4.15,0,0,0,44.36,22.27Z"/><path class="cls-1" d="M67.46,22.13c-.52,0-1,0-1.55,0a.29.29,0,0,0-.32.23L64,26.94a2.57,2.57,0,0,0-.14.92.59.59,0,0,0,.4.57,2.78,2.78,0,0,0,1,.18c.68,0,1.36,0,2,0,.29,0,.31,0,.22.3-.36,1-.72,2-1.07,3a.35.35,0,0,1-.34.27,36.38,36.38,0,0,1-5,.21,7.62,7.62,0,0,1-3-.64,2.44,2.44,0,0,1-1.46-2.7,15.57,15.57,0,0,1,.9-3.06c.41-1.18.84-2.35,1.26-3.53.11-.32.11-.33-.23-.33H56.16c-.3,0-.32,0-.21-.32.31-.87.62-1.75.92-2.63a.31.31,0,0,1,.34-.24h2.54a.37.37,0,0,0,.42-.3c.38-1.11.78-2.22,1.17-3.33a.37.37,0,0,1,.41-.3h6.13c.3,0,.3,0,.2.29-.39,1.11-.78,2.22-1.18,3.33-.09.23-.05.3.21.3h3c.31,0,.31,0,.21.29-.31.87-.62,1.75-.92,2.63a.35.35,0,0,1-.38.27C68.49,22.12,68,22.13,67.46,22.13Z"/><path class="cls-1" d="M77.59,19h3.17c.23,0,.3,0,.21.27q-2,5.61-4,11.21c-.19.54-.39,1.07-.56,1.62-.08.25-.21.31-.46.31H69.8c-.45,0-.45,0-.3-.43l2.34-6.6q1.08-3,2.15-6.09a.37.37,0,0,1,.42-.29Z"/><path class="cls-1" d="M78.81,16.72a4.58,4.58,0,0,1-2.6-.71,2.65,2.65,0,0,1-.8-3.79,5.06,5.06,0,0,1,6.37-1.56,2.71,2.71,0,0,1,1.52,2.2,2.84,2.84,0,0,1-.8,2.21A5,5,0,0,1,78.81,16.72Z"/><path class="cls-1" d="M128.53,20.32c.12-.34.25-.69.36-1a.25.25,0,0,1,.31-.2c.17,0,.14.17.14.28V20.6c0,.1,0,.25-.13.25s-.16-.15-.16-.26a4.31,4.31,0,0,0-.06-.8c-.09.29-.19.57-.29.85,0,.11-.06.22-.21.22s-.16-.13-.2-.23a6.37,6.37,0,0,0-.34-.88c0,.29,0,.59,0,.89,0,.08,0,.2-.11.21s-.17-.1-.17-.2q0-.69,0-1.38c0-.11,0-.21.16-.21s.24,0,.28.17l.24.74.12.36Z"/><path class="cls-1" d="M126.7,20.11c0-.11,0-.22,0-.33,0-.27,0-.47-.37-.43-.08,0-.17,0-.17-.13s.09-.15.18-.15h1c.09,0,.17,0,.17.15a.14.14,0,0,1-.17.13c-.33,0-.35.17-.34.41s0,.57,0,.85c0,.12,0,.24-.16.24s-.13-.14-.13-.24S126.7,20.28,126.7,20.11Z"/></g></g></g></svg>