<svg width="95px" height="32px" xmlns="http://www.w3.org/2000/svg" viewBox="0 0 127.7 28.82"><defs><style>.cls-1{fill:#d8d6d6;}</style></defs><g id="Layer_2" data-name="Layer 2"><g id="Layer_2-2" data-name="Layer 2"><g id="motorola"><path class="cls-1" d="M14.52,28.81a12.53,12.53,0,0,1-4.13-.52,15.76,15.76,0,0,1-4.28-2.05,15.16,15.16,0,0,1-3.12-3,12.69,12.69,0,0,1-1.84-3.14c-.13-.33-.26-.65-.39-1A13.15,13.15,0,0,1,0,15.52,14.71,14.71,0,0,1,.43,10.8,13.84,13.84,0,0,1,2.62,6.12,14.5,14.5,0,0,1,8.27,1.38,11.72,11.72,0,0,1,12.84.16a5.9,5.9,0,0,0,.72-.09,6.17,6.17,0,0,1,1.82,0,15.14,15.14,0,0,1,2.84.45,19.58,19.58,0,0,1,3.12,1.26,15.37,15.37,0,0,1,4.24,3.5A12.51,12.51,0,0,1,27.7,8.65a13.48,13.48,0,0,1,1,3.26,16.53,16.53,0,0,1,.2,3,14.43,14.43,0,0,1-.59,3.69A14,14,0,0,1,26.07,23a13.15,13.15,0,0,1-2.13,2.28c-.43.38-.9.72-1.35,1.08-.22.18-.48.28-.69.44a12.61,12.61,0,0,1-3.47,1.51,10.46,10.46,0,0,1-1.83.39A10.72,10.72,0,0,1,14.52,28.81ZM10.84,5.86a.54.54,0,0,0-.23.38c-.37,1.1-.68,2.21-1,3.31-.4,1.35-.8,2.7-1.22,4-.59,1.86-1.16,3.74-1.74,5.6-.14.45-.28.89-.41,1.34-.08.28,0,.35.27.36s.49-.09.57-.46a9.2,9.2,0,0,1,.37-1.34,9.92,9.92,0,0,1,1.62-3.19,2.09,2.09,0,0,1,1.06-.7,2.08,2.08,0,0,1,2,.29,5,5,0,0,1,1.22,1.41c.3.53.56,1.08.84,1.62.06.11.09.26.25.25s.15-.15.2-.25l.45-.91a7.1,7.1,0,0,1,1.36-1.9,2.22,2.22,0,0,1,2.19-.55,2,2,0,0,1,1.14.68,6.68,6.68,0,0,1,.88,1.37c.26.56.45,1.14.69,1.69a1.5,1.5,0,0,1,.22.53,4.68,4.68,0,0,0,.35,1.19c.07.25.25.28.45.25s.24-.24.19-.42-.18-.65-.28-1c-.5-1.66-1-3.31-1.51-5-.23-.75-.47-1.49-.7-2.24s-.51-1.79-.82-2.67-.54-1.85-.82-2.77c-.1-.33-.24-.64-.37-1a.46.46,0,0,0-.2.25C17.58,7.07,17.28,8,17,9c-.22.78-.44,1.57-.67,2.35S15.8,13,15.6,13.82c-.27,1.06-.67,2.07-.93,3.13a.78.78,0,0,1-.05.14c0,.08-.1.17-.21.16s-.15-.11-.18-.2-.15-.46-.22-.69c-.29-1-.57-2-.87-2.95-.23-.77-.42-1.55-.66-2.31-.5-1.58-.93-3.17-1.42-4.75C11,6.19,11,6,10.84,5.86Z"/><path class="cls-1" d="M33.88,17.07c0-1.19,0-2.38,0-3.56a4.82,4.82,0,0,1,1.24-3.16A4.65,4.65,0,0,1,37,8.93a5.46,5.46,0,0,1,4.62.23,6.93,6.93,0,0,1,1,.75.32.32,0,0,0,.5,0,5,5,0,0,1,2.46-1.25,5.12,5.12,0,0,1,4.58,1.17,4.89,4.89,0,0,1,1.7,3.3c0,.51.07,1,.07,1.54v6.07c0,.72-.11.83-.84.84H50.1c-.76,0-.88-.13-.88-.91V16.51c0-.93,0-1.86,0-2.79a2.49,2.49,0,0,0-3-2.44,2.51,2.51,0,0,0-1.87,1.93,5.2,5.2,0,0,0-.09,1c0,2.14,0,4.27,0,6.41,0,.14,0,.29,0,.43,0,.36-.14.51-.49.54a11.11,11.11,0,0,1-1.73,0c-.38-.05-.49-.18-.55-.56a5.62,5.62,0,0,1,0-.58c0-2.2,0-4.4,0-6.6a2.46,2.46,0,0,0-1.45-2.36,2.11,2.11,0,0,0-1.91,0,2.32,2.32,0,0,0-1.47,2.19c0,.71,0,1.41,0,2.12,0,1.65,0,3.31,0,5,0,.69-.15.84-.85.85-.38,0-.77,0-1.16,0-.67,0-.79-.11-.79-.78V17.07Z"/><path class="cls-1" d="M127.69,17.66V20.8c0,.58-.09.67-.67.68h-1.3c-.5,0-.58-.09-.64-.58s-.1-.4-.45-.2a6.66,6.66,0,0,1-7.51-.34,6.45,6.45,0,0,1-2.6-4.39,6.29,6.29,0,0,1,.83-4.16,7.07,7.07,0,0,1,2.76-2.61,5.89,5.89,0,0,1,2.26-.63,6.48,6.48,0,0,1,4.57,1.15,7,7,0,0,1,1.75,1.84,6.28,6.28,0,0,1,1,3.7c0,.8,0,1.6,0,2.4Zm-6.59-6.41A3.86,3.86,0,1,0,125,15,3.9,3.9,0,0,0,121.1,11.25Z"/><path class="cls-1" d="M109.16,15.08a6.63,6.63,0,1,1-6.55-6.55A6.53,6.53,0,0,1,109.16,15.08Zm-6.61-3.83a3.86,3.86,0,1,0,3.83,3.83A3.86,3.86,0,0,0,102.55,11.25Z"/><path class="cls-1" d="M80.91,8.54a6.67,6.67,0,0,1,3.39.92,6.92,6.92,0,0,1,2.06,1.9A6.54,6.54,0,0,1,87,17.78,6,6,0,0,1,85.36,20a6.37,6.37,0,0,1-3.51,1.67,6.56,6.56,0,0,1-4.77-1.12,6.46,6.46,0,0,1-2.66-3.94A6.18,6.18,0,0,1,74.61,13a6.76,6.76,0,0,1,2.26-3.16,5.69,5.69,0,0,1,2.47-1.13A5.91,5.91,0,0,1,80.91,8.54Zm3.79,6.54c.2-2-1.94-3.9-3.89-3.86a4,4,0,0,0-3.76,3.9A3.91,3.91,0,0,0,80.91,19,3.83,3.83,0,0,0,84.7,15.08Z"/><path class="cls-1" d="M59.92,8.54a6.55,6.55,0,0,1,6.58,6.55,6.62,6.62,0,0,1-13.24,0A6.54,6.54,0,0,1,59.92,8.54ZM60,11.25a3.86,3.86,0,1,0,3.76,3.85A3.84,3.84,0,0,0,60,11.25Z"/><path class="cls-1" d="M67.82,11.39V6.28c0-.12,0-.25,0-.38,0-.49.12-.6.6-.61h1.49c.48,0,.59.12.59.61,0,.69,0,1.38,0,2.07,0,.54,0,.57.58.57h2.08c.47,0,.52.06.52.53s0,1,0,1.54-.14.61-.61.62c-.65,0-1.31,0-2,0s-.61.06-.61.61c0,1.51,0,3,0,4.53A2.53,2.53,0,0,0,73,19c.57,0,.66.12.66.7s0,.93,0,1.4-.21.68-.68.66a5.32,5.32,0,0,1-4.9-3.43,4.48,4.48,0,0,1-.29-1.7v-5.2Z"/><path class="cls-1" d="M113.23,13.38v7.18c0,.14,0,.29,0,.43,0,.33-.11.46-.42.47-.65,0-1.29,0-1.93,0-.29,0-.4-.14-.43-.42a3.23,3.23,0,0,1,0-.44V6.2c0-.84.07-.91.9-.91h.91c1,0,1,0,1,1Z"/><path class="cls-1" d="M91.54,17.33V20.8c0,.61-.12.74-.72.76s-.94,0-1.4,0-.66-.15-.67-.66c0-.69,0-1.38,0-2.07,0-1.59,0-3.18,0-4.77a5.93,5.93,0,0,1,.57-2.66,5,5,0,0,1,3-2.61,7.38,7.38,0,0,1,2.52-.24c.37,0,.5.13.51.49s0,.48,0,.72,0,.61,0,.92-.11.53-.54.56-.55,0-.82,0a2.42,2.42,0,0,0-2.33,2,7.72,7.72,0,0,0-.07,1.44C91.53,15.6,91.54,16.46,91.54,17.33Z"/></g></g></g></svg>