<svg width="95px" height="32px" xmlns="http://www.w3.org/2000/svg" viewBox="0 0 96.93 44.22"><defs><style>.cls-1{fill:#d8d6d6;}</style></defs><g id="Layer_2" data-name="Layer 2"><g id="Layer_2-2" data-name="Layer 2"><g id="nest"><path class="cls-1" d="M95.68,44.22h-.77l-.13,0a10.34,10.34,0,0,1-4.24-1.27,10.82,10.82,0,0,1-4.42-4.52,11,11,0,0,1-1.25-5.26V14.8c0-.33,0-.33-.32-.33h-13a3.65,3.65,0,0,0-2,.53,2.93,2.93,0,0,0-.8,4.41,6,6,0,0,0,1.86,1.42c1.4.77,2.87,1.39,4.32,2.07a16.76,16.76,0,0,1,4.21,2.61,10.29,10.29,0,0,1,3,4.47,10.79,10.79,0,0,1,.39,4.95A10,10,0,0,1,79,41.36,12.1,12.1,0,0,1,73.18,44c-.48.08-1,.13-1.46.19H69.9l-.9-.11a11.84,11.84,0,0,1-5.75-2.33,12.12,12.12,0,0,1-3.55-4.42c-.12-.24-.12-.24-.28,0A18.2,18.2,0,0,1,54.12,42a16.13,16.13,0,0,1-6.27,2.14l-.82.09H45.32a1.08,1.08,0,0,0-.19,0A11.53,11.53,0,0,1,43.19,44a15.9,15.9,0,0,1-8.48-4.33,17.73,17.73,0,0,1-4.82-8.49,21.56,21.56,0,0,1-.57-3.29v15.6c0,.34,0,.35-.34.35H23c-.44,0-.45.07-.45-.45V22.88a10.9,10.9,0,0,0-.08-1.41A7.94,7.94,0,0,0,14,14.65a7.68,7.68,0,0,0-4.85,2.22,7.83,7.83,0,0,0-2.42,5.72q0,10.43,0,20.85c0,.36,0,.37-.36.37H.27l-.27,0V21.44c0-.27.07-.54.11-.81A14.57,14.57,0,0,1,5.34,11.2a14.24,14.24,0,0,1,8.55-3.36,14.23,14.23,0,0,1,7.27,1.53,14.41,14.41,0,0,1,4.56,3.57,14.63,14.63,0,0,1,3.06,5.77,17,17,0,0,1,.54,4.82c0,.13,0,.26,0,.39a20.26,20.26,0,0,1,1.46-5.8,17,17,0,0,1,5.09-6.81,15.78,15.78,0,0,1,9.28-3.47,16.11,16.11,0,0,1,4.54.4,14.38,14.38,0,0,1,8.09,5.07,16.93,16.93,0,0,1,2.7,4.77c.17.44.32.88.48,1.33a.11.11,0,0,0,0-.11,11.22,11.22,0,0,1,0-3.17,9.32,9.32,0,0,1,3.25-5.8,10.64,10.64,0,0,1,6.91-2.49c4.44,0,8.89,0,13.33,0h.23c.1,0,.16,0,.16-.16a1.48,1.48,0,0,0,0-.21V.37c0-.37,0-.37.37-.37h6c.35,0,.35,0,.35.35V7.53c0,.29,0,.3.29.3h4.79c.31,0,.31,0,.31.31v6c0,.32,0,.32-.33.32H91.87c-.33,0-.33,0-.33.33V33.28q0,.33,0,.66a4.18,4.18,0,0,0,3.86,3.57c.25,0,.26,0,.26.28v2C95.69,41.29,95.69,42.76,95.68,44.22ZM61.5,21.6a.28.28,0,0,1,0,.09A28.55,28.55,0,0,1,62,27.37c0,.43,0,.43-.42.43H36.75c-.14,0-.18.06-.17.19a12.55,12.55,0,0,0,.89,3.62,9.08,9.08,0,0,0,5.07,5.22,8.93,8.93,0,0,0,5.92.39,9.67,9.67,0,0,0,5.45-4.08.73.73,0,0,1,.69-.36H65c.4,0,.35-.05.52.35a9.38,9.38,0,0,0,1.22,2.24,5,5,0,0,0,3.26,2,6.2,6.2,0,0,0,3.27-.4,3.29,3.29,0,0,0,1.42-1,3.53,3.53,0,0,0,.45-3.5,4.49,4.49,0,0,0-2.51-2.58c-1.37-.64-2.75-1.25-4.12-1.9a27.17,27.17,0,0,1-2.79-1.43,10.65,10.65,0,0,1-3.34-3.24A15.78,15.78,0,0,1,61.5,21.6Zm-15.77.06h8.39c.26,0,.26,0,.21-.25a11.11,11.11,0,0,0-1-2.69,7.82,7.82,0,0,0-4-3.7,9,9,0,0,0-3.81-.64,7.86,7.86,0,0,0-3.34.81,9.61,9.61,0,0,0-5,6.12c-.1.34-.09.35.28.35Z"/></g></g></g></svg>