<svg width="95px" height="32px" xmlns="http://www.w3.org/2000/svg" viewBox="0 0 128.37 18.58"><defs><style>.cls-1{fill:#d8d6d6;}</style></defs><g id="Layer_2" data-name="Layer 2"><g id="Layer_2-2" data-name="Layer 2"><g id="netgear"><path class="cls-1" d="M0,.51c1.47,0,2.94,0,4.42,0A.59.59,0,0,1,5,.77q3.78,5.09,7.57,10.16a.47.47,0,0,0,.21.21V.92c0-.41,0-.41.39-.41h4c.38,0,.38,0,.38.37v16.8c0,.36,0,.36-.38.36h-4a.68.68,0,0,1-.63-.32q-3.7-5-7.43-10a3.33,3.33,0,0,0-.24-.32c-.09.1,0,.21,0,.3q0,5,0,9.94c0,.42,0,.43-.42.42H0Z"/><path class="cls-1" d="M64.62,0a13.37,13.37,0,0,1,2,.35,8.29,8.29,0,0,1,5.26,4c.29.52.3.52-.25.74-1.26.49-2.52,1-3.77,1.5-.21.08-.3,0-.41-.16a4.27,4.27,0,0,0-3-2.4,4.13,4.13,0,0,0-4.72,2.3A6.46,6.46,0,0,0,60,12.7a4.47,4.47,0,0,0,5.73,1.69A3,3,0,0,0,67.46,12c.05-.22-.09-.21-.24-.21H64c-.35,0-.36,0-.36-.36,0-.95,0-1.91,0-2.86,0-.25.07-.33.32-.33h8.78c.17,0,.33,0,.33.24A12.54,12.54,0,0,1,72,13.82a7.78,7.78,0,0,1-5.78,4.5,11.47,11.47,0,0,1-6.92-.64,8.14,8.14,0,0,1-5.08-6.45,10.75,10.75,0,0,1,.34-5.16A8.28,8.28,0,0,1,60.73.35a15.52,15.52,0,0,1,2-.35Z"/><path class="cls-1" d="M113,9.28V.92c0-.4,0-.41.42-.41,2.22,0,4.43,0,6.65,0a9.61,9.61,0,0,1,3.79.64,4.77,4.77,0,0,1,3,4.38,5.47,5.47,0,0,1-.49,2.82,4.57,4.57,0,0,1-3.16,2.44c-.28.07-.28.08-.1.31l5,6.49.19.25c.09.12.1.2-.09.2h-5.39a.48.48,0,0,1-.48-.26q-2-3.1-4-6.19l-.09-.13a.28.28,0,0,0-.33-.14c-.16,0-.12.17-.12.28v5.94c0,.54,0,.5-.5.5h-4c-.34,0-.35,0-.35-.34Zm4.8-3.07V8.15c0,.16,0,.25.21.24a11.28,11.28,0,0,0,2.25-.11,2,2,0,0,0,1.59-1,2.06,2.06,0,0,0-1.4-3.07A11.45,11.45,0,0,0,118,4.06c-.18,0-.17.13-.17.25Z"/><path class="cls-1" d="M100.92,14.81H98.07a.35.35,0,0,0-.41.29c-.29.89-.6,1.77-.89,2.67a.35.35,0,0,1-.41.28H92.05c-.32,0-.33,0-.22-.32L96.31,5.52Q97.17,3.21,98,.9c.14-.39.14-.39.55-.39,1.58,0,3.16,0,4.75,0a.45.45,0,0,1,.5.34l5.4,14.6c.29.78.57,1.56.87,2.33.08.21,0,.27-.19.27h-4.47a.29.29,0,0,1-.32-.25c-.3-.9-.61-1.8-.9-2.7a.37.37,0,0,0-.42-.3C102.82,14.82,101.87,14.81,100.92,14.81Zm0-9.59,0,.06L99,11.1c-.07.21,0,.22.19.22h3.52c.29,0,.29,0,.19-.29-.62-1.88-1.25-3.75-1.88-5.63C101,5.34,101,5.26,100.9,5.22Z"/><path class="cls-1" d="M23.11,9.27V.9c0-.39,0-.39.38-.39H34.4c.39,0,.39,0,.39.39,0,1.07,0,2.15,0,3.23,0,.26-.09.33-.34.33H28.26c-.35,0-.35,0-.36.35v2.1c0,.41,0,.41.41.41h5.82c.4,0,.4,0,.4.4,0,1,0,2.1,0,3.15,0,.25-.09.32-.33.32H28.28c-.37,0-.38,0-.38.39,0,.76,0,1.52,0,2.28,0,.22.07.29.3.29h6.21c.37,0,.38,0,.38.37,0,1.07,0,2.15,0,3.22,0,.25-.08.33-.32.33q-5.52,0-11,0c-.28,0-.33-.11-.33-.35Q23.12,13.49,23.11,9.27Z"/><path class="cls-1" d="M77.25,9.25V.9c0-.39,0-.39.38-.39H88.54c.39,0,.39,0,.39.39,0,1.07,0,2.15,0,3.23,0,.26-.08.33-.34.33H82.41c-.36,0-.36,0-.36.35V7c0,.33,0,.33.34.33H88.3c.37,0,.37,0,.37.37,0,1.06,0,2.12,0,3.18,0,.24-.08.32-.33.32H82.4c-.35,0-.35,0-.35.36,0,.76,0,1.52,0,2.28,0,.24.07.32.32.32h6.19c.38,0,.38,0,.38.39,0,1.07,0,2.13,0,3.2,0,.24-.07.33-.32.33q-5.52,0-11,0c-.27,0-.33-.1-.33-.35C77.25,14.88,77.25,12.07,77.25,9.25Z"/><path class="cls-1" d="M45.09.51h6.65c.41,0,.41,0,.41.43V4.12c0,.33,0,.34-.35.34H48c-.42,0-.42,0-.42.41V17.65c0,.39,0,.39-.4.39q-2,0-4.08,0c-.43,0-.43,0-.43-.41V4.85c0-.39,0-.39-.4-.39H38.35c-.35,0-.35,0-.35-.34V.86c0-.34,0-.35.36-.35Z"/></g></g></g></svg>