<svg width="56px" height="70px" xmlns="http://www.w3.org/2000/svg" viewBox="0 0 130.54 130.51"><defs><style>.cls-1{fill:#d8d6d6;}</style></defs><g id="Layer_2" data-name="Layer 2"><g id="Layer_2-2" data-name="Layer 2"><g id="nintendo"><path class="cls-1" d="M27.93.42A33.72,33.72,0,0,0,1.19,25C0,29.58-.09,32.26.05,67.68.11,100.2.14,101,.69,103.49,3.69,117,13.31,126.68,27,129.85c1.78.41,4.05.5,18.68.56,15.12.11,16.69.09,17.1-.32s.43-5.63.43-64.74C63.21,21.51,63.13.88,63,.5S62.22,0,46.37,0C33.5,0,29.62.12,27.93.42ZM52.38,65.27V120l-11-.15c-10.13-.11-11.21-.17-13.25-.67a23,23,0,0,1-17-17.68c-.58-2.74-.58-69.95,0-72.63a23.22,23.22,0,0,1,14-16.72c3.55-1.43,5.21-1.61,16.78-1.63l10.46,0V65.27ZM30.26,27a15,15,0,0,0-5.68,2.83,12,12,0,0,0-4,10.05,8.55,8.55,0,0,0,1.11,4.43,12.29,12.29,0,0,0,5.8,5.83,8.29,8.29,0,0,0,4.63,1.07,9.58,9.58,0,0,0,4.31-.49A12.17,12.17,0,0,0,44.8,37.24,12.37,12.37,0,0,0,30.26,27ZM76.35.15c-.11.09-.17,29.37-.17,65.12,0,58.93,0,64.91.43,65.08.73.26,21.71.18,24.3-.12a33.71,33.71,0,0,0,25.93-17.83,44.22,44.22,0,0,0,2-4.72c1.69-5.07,1.66-3.72,1.66-42.56,0-31-.06-35.63-.44-37.58A33.56,33.56,0,0,0,102.57.42C100.68.1,97.77,0,88.36,0,81.83,0,76.44.07,76.35.15ZM105.22,59a13.22,13.22,0,0,1,9.09,8.42,13.88,13.88,0,0,1,0,8.6,13.1,13.1,0,0,1-25-.64,15.7,15.7,0,0,1,.11-7.64A13.07,13.07,0,0,1,105.22,59Z"/></g></g></g></svg>