<svg width="95px" height="32px" xmlns="http://www.w3.org/2000/svg" viewBox="0 0 128.87 21.76"><defs><style>.cls-1{fill:#d8d6d6;}</style></defs><g id="Layer_2" data-name="Layer 2"><g id="Layer_2-2" data-name="Layer 2"><g id="nokia"><path class="cls-1" d="M0,.35c3.43,0,6.85,0,10.28,0A.85.85,0,0,1,11,.71q4.64,6,9.31,11.9l2.45,3.14L23,16a.81.81,0,0,0,0-.37c0-4.9,0-9.79,0-14.69V.59c0-.15.07-.23.22-.23h5.64c.4,0,.4,0,.4.4V21.07c0,.41,0,.42-.42.42H19.12a.69.69,0,0,1-.61-.29Q15.2,17,11.87,12.73L6.44,5.79s-.06-.12-.15-.11,0,.23,0,.34q0,7.5,0,15c0,.48,0,.48-.47.48H0Z"/><path class="cls-1" d="M38.93,21.76l-1.39-.11A8.41,8.41,0,0,1,34.62,21a4.77,4.77,0,0,1-2.74-3.76,14.73,14.73,0,0,1-.16-2.1c0-2.87,0-5.74,0-8.61A9.65,9.65,0,0,1,32,3.93,4.77,4.77,0,0,1,35.41.51a10.23,10.23,0,0,1,2.8-.44C42.62,0,47,0,51.45,0a12.62,12.62,0,0,1,3.86.48A4.89,4.89,0,0,1,58.89,5c.07.79.1,1.59.1,2.39q0,4,0,8a11.41,11.41,0,0,1-.2,2.18,4.73,4.73,0,0,1-3.16,3.67,10.79,10.79,0,0,1-3.23.55,2.07,2.07,0,0,0-.61.05ZM45.35,5.43H39.46a3.72,3.72,0,0,0-.88.11,1.12,1.12,0,0,0-.86.93,4.11,4.11,0,0,0-.07.86v7.13a4.64,4.64,0,0,0,.06.83,1.15,1.15,0,0,0,.85.94,3.27,3.27,0,0,0,.88.11H51.28a4,4,0,0,0,.69-.07,1.14,1.14,0,0,0,1-1,8.65,8.65,0,0,0,.09-1.61c0-1.81,0-3.62,0-5.43,0-.48,0-1-.05-1.42A1.27,1.27,0,0,0,51.8,5.48a4.6,4.6,0,0,0-.64-.05Z"/><path class="cls-1" d="M125.1,21.49h-3.4a.46.46,0,0,1-.48-.28c-.54-1.05-1.1-2.09-1.64-3.14a.41.41,0,0,0-.43-.26H107.23a.42.42,0,0,0-.44.26c-.53,1.05-1.08,2.09-1.61,3.15a.45.45,0,0,1-.46.27H98.19c-.35,0-.37,0-.2-.34l7-12.72c1.41-2.59,2.82-5.17,4.22-7.76a.53.53,0,0,1,.52-.32q3.7,0,7.4,0a.49.49,0,0,1,.5.31C118.77,2.84,120,5,121.14,7.19L126.48,17l2.31,4.24c.14.25.12.27-.17.27ZM113.22,5.71c-.09,0-.11.1-.14.15l-3.67,7c-.18.35-.17.36.21.36h7.2c.35,0,.36,0,.2-.31l-3.31-6.25C113.55,6.31,113.39,6,113.22,5.71Z"/><path class="cls-1" d="M68,10.61V21.07c0,.41,0,.42-.42.42H61.88c-.4,0-.4,0-.4-.41V.77c0-.41,0-.41.4-.41H67.6c.39,0,.39,0,.39.38v9.67l.66-.58,6.13-5.65,4-3.66a.57.57,0,0,1,.42-.17h8c.08,0,.21,0,.24.07s-.08.14-.14.19C84.69,2.83,82.09,5,79.51,7.24L76.15,10.1c-.16.13-.13.19,0,.31l10,8.64,2.56,2.2c.06.05.17.09.14.18s-.15.05-.23.05H80.05a.59.59,0,0,1-.43-.17L73.8,15.91l-5.6-5.2A.25.25,0,0,0,68,10.61Z"/><path class="cls-1" d="M96.69,10.91V21.06c0,.43,0,.43-.44.43H90.53c-.39,0-.39,0-.39-.4V.75c0-.38,0-.39.39-.39h5.76c.38,0,.4,0,.4.41Z"/></g></g></g></svg>