<svg width="95px" height="32px" xmlns="http://www.w3.org/2000/svg" viewBox="0 0 130.43 60.49"><defs><style>.cls-1{fill:#d8d6d6;}</style></defs><g id="Layer_2" data-name="Layer 2"><g id="Layer_2-2" data-name="Layer 2"><g id="novatel-wireless"><path class="cls-1" d="M0,31.9l1.12,0c.11,0,.31,0,.27-.16s-.08-.35.1-.48.52-.51.88-.49c.73.05,1.41-.29,2.14-.19.43.05.56-.26.64-.6a2.88,2.88,0,0,1-1.62-.06.29.29,0,0,0-.24,0A2.43,2.43,0,0,1,2.22,30c-.12,0-.27,0-.28-.17s.13-.14.22-.19a2.39,2.39,0,0,1,1.41-.22,16.32,16.32,0,0,0,3.13-.24,9.43,9.43,0,0,0,2.41-.27,15.16,15.16,0,0,1,3.15-.46,37.4,37.4,0,0,1,5.39-.31c.91-.39,1.9-.16,2.84-.4a15.89,15.89,0,0,1,2.85-.24c2.73-.14,5.46-.35,8.19-.57s5.57-.49,8.34-.78c2.56-.27,5.12-.57,7.67-.88q4.8-.59,9.59-1.2c2.67-.35,5.32-.72,8-1.09,3.25-.45,6.5-.85,9.74-1.39C79.17,20.88,83.46,20,87.72,19c4-.93,7.92-2,11.8-3.26A49.58,49.58,0,0,0,108.58,12a7.81,7.81,0,0,0,2.26-1.74A1.41,1.41,0,0,0,110.6,8a9.59,9.59,0,0,0-3.09-1.48A42.59,42.59,0,0,0,100.19,5c-2.31-.31-4.65-.49-7-.65q-1.69-.12-3.39-.18c-1.58,0-3.16,0-4.74-.1C83.19,4,81.29,4,79.4,4c-2.85,0-5.7.09-8.55.17-2.08.05-4.15.14-6.22.25-2.94.14-5.89.29-8.83.5-3.44.24-6.89.54-10.33.87q-8.07.8-16.1,2c-2,.29-4,.66-6,.93-.74.11-1.48.25-2.23.33s-1.22.14-1.83.15a.42.42,0,0,0-.28.08,1.32,1.32,0,0,1-1.11.31.87.87,0,0,0-.69.32.71.71,0,0,1-.5.25,51.52,51.52,0,0,1-6,.17c-.22,0-.59.1-.6-.18s.36-.1.56-.15c.9-.26,1.85-.2,2.77-.4a5,5,0,0,1,1,0c.16,0,.33.05.5-.09-.11-.18-.29-.12-.44-.13h-2.2c-.09,0-.23,0-.24-.09s.13-.18.23-.16a3,3,0,0,0,1.55-.31c.47-.17,1-.22,1.49-.39-.27-.21-.51-.11-.73-.14s-.26,0-.27-.12.14-.19.26-.21c.64-.08,1.3-.1,1.93-.24a10.06,10.06,0,0,0,1.94-.5A3.6,3.6,0,0,1,19.75,7c.29,0,.6.12.86,0s.57-.06.85-.2a1,1,0,0,0-.76,0A1.36,1.36,0,0,1,20,6.9c-.12,0-.28,0-.29-.17s.15-.23.29-.23a10.9,10.9,0,0,1,1.8-.2A.54.54,0,0,0,22.46,6,.46.46,0,0,1,23,5.74a6.56,6.56,0,0,0,2.82-.29c4.8-.93,9.62-1.67,14.46-2.32,3.72-.5,7.44-.92,11.17-1.29,2.67-.27,5.35-.5,8-.7C62.26.92,65.1.72,68,.56,70.23.43,72.5.31,74.78.22c2-.07,4-.15,6-.16A1,1,0,0,0,81.25,0H89.8a1.24,1.24,0,0,0,.54.06c2,0,4,.09,6,.2,2.8.16,5.6.38,8.39.71a83.11,83.11,0,0,1,10.86,1.92A35.26,35.26,0,0,1,124,6a13,13,0,0,1,4.83,4.09,4.15,4.15,0,0,1,0,4.79,15.92,15.92,0,0,1-4.72,4.67,53.27,53.27,0,0,1-10.37,5.48,127.62,127.62,0,0,1-14.66,5c-5.88,1.65-11.83,3-17.82,4.18-4.59.9-9.19,1.73-13.83,2.34-3,.4-6,.77-9,1-2.27.21-4.54.44-6.81.63-1.79.14-3.59.25-5.38.36-2.43.14-4.86.29-7.29.38a28.47,28.47,0,0,1-4.52.07c-.83-.09-1.6.1-2.41.07-.45,0-.91,0-1.37,0a3,3,0,0,0-1.06.14,1.51,1.51,0,0,1-1.2-.2.67.67,0,0,0-.63,0A1.62,1.62,0,0,1,27,39s-.13,0-.14-.06c-.18-.55-.59-.26-.87-.19a1.68,1.68,0,0,1-1.13,0,.73.73,0,0,0-.61,0c-.6.29-1.27,0-1.88.23a.1.1,0,0,1-.13-.06.21.21,0,0,1,.09-.25,1.18,1.18,0,0,1,.72-.2c.87,0,1.71-.28,2.59-.19.18,0,.32-.06.49-.28a16,16,0,0,0-2.15.27l-.12,0a15.8,15.8,0,0,0-2.38.19.93.93,0,0,1-.61-.11.39.39,0,0,0-.36,0c-.4.22-.87,0-1.25.17-.85.29-1.76.08-2.6.35a.63.63,0,0,1-.24,0c-.16,0-.38,0-.38-.21s.21-.16.35-.21a5.71,5.71,0,0,1,1.84-.18.87.87,0,0,0,.28-.05.11.11,0,0,0,.08-.13.09.09,0,0,0-.13-.06,7.61,7.61,0,0,0-1.84.24.23.23,0,0,1-.12,0c-1-.1-1.94.24-2.92.19a2.65,2.65,0,0,0-.89-.09c.46-.83.45-.83-.49-.84s-1.77.21-2.68.2c-.38,0-.77.2-1.2.17s-.39-.28-.61-.37c-.43-.17-.92-.19-1.25-.63-.18-.24-.57-.16-.86,0s-.54.19-.71,0-.68-.41-.83-.79.1-.31.29-.32a9.47,9.47,0,0,0,1.4-.13c.36-.07.53-.3.82-.53-.46,0-.87-.18-1.27.07a.88.88,0,0,1-.48.09,3.86,3.86,0,0,0-1.39.15c-.21.08-.62.15-.69-.14S3,35,3.26,34.9a2.94,2.94,0,0,1,1.21-.2c.16,0,.23,0,.33-.23s.55-.29.87-.32a10.44,10.44,0,0,1,1.12,0c.14,0,.28,0,.35-.16,1.17.09,2.31-.24,3.47-.26-.13-.17-.28-.13-.42-.14-.94-.06-1.83.38-2.77.24a.33.33,0,0,0-.27.16c-.09,0-.2,0-.24,0-.47-.51-1-.32-1.59-.22a3.36,3.36,0,0,1-.85-.09c-.67-.07-1.3.24-2,.18-.13,0-.25,0-.37,0s-.22-.07-.21-.21.1-.16.2-.17h.29c.3,0,.48-.07.29-.41s.06-.29.25-.46a3.36,3.36,0,0,0-1.39.06c-.25.1-.48.14-.66-.12s-.23-.14-.37-.14A.81.81,0,0,1,0,32.15Z"/><path class="cls-1" d="M0,59.9c.46-1.7.93-3.39,1.39-5.09.69-2.56,1.38-5.13,2.05-7.7.1-.34.24-.47.6-.46,1.16,0,2.33,0,3.49,0,.37,0,.49.13.46.49Q7.8,50,7.61,52.93c-.07,1-.13,2-.14,3,0-.17.1-.34.14-.5.75-2.77,1.5-5.53,2.22-8.31a.56.56,0,0,1,.68-.51c.5,0,1,0,1.5,0s.5,0,.38.5q-1.14,4.23-2.27,8.46Q9.55,57.71,9,59.79a.5.5,0,0,1-.58.44H5.27c-.35,0-.5-.11-.47-.48.14-2,.26-4.08.39-6.13.07-1.09.13-2.18.19-3.27a6.65,6.65,0,0,0,0-1c-.26,1-.53,2-.8,3C4,54.77,3.28,57.22,2.65,59.67c-.11.42-.29.59-.74.57-.63,0-1.27,0-1.91,0Z"/><path class="cls-1" d="M130.43,60.4c-.29.06-.42,0-.42-.34a2,2,0,0,0-.07-.67l-.27.76c0,.14-.11.26-.28.26s-.23-.13-.28-.26a2.89,2.89,0,0,0-.34-.74c0,.22,0,.44,0,.66s0,.33-.21.33-.2-.17-.2-.31V58.76c0-.16,0-.3.23-.33a.31.31,0,0,1,.38.24l.41,1.15a3.84,3.84,0,0,0,.38-1c.11-.37.31-.5.68-.34Z"/><path class="cls-1" d="M69.61,50.33l-1.44,3.84c-.7,1.86-1.4,3.7-2.07,5.56a.65.65,0,0,1-.73.5c-.89,0-1.77,0-2.66,0-.35,0-.49-.09-.44-.48.31-2.14.59-4.27.88-6.41q.39-2.94.8-5.88a2,2,0,0,0,0-.24c0-.43.19-.6.64-.57.76,0,1.52,0,2.29,0,.36,0,.44.11.37.47q-.86,4.2-1.69,8.42a.18.18,0,0,0,0,.14l1-2.55c.79-2,1.59-4,2.38-6.07a.56.56,0,0,1,.61-.41c.88,0,1.75,0,2.62,0,.37,0,.42.15.36.45q-.63,3.51-1.27,7c-.09.54-.19,1.08-.24,1.63.58-1.56,1.16-3.11,1.73-4.67.5-1.33,1-2.67,1.48-4a.54.54,0,0,1,.61-.42c.63,0,1.27,0,1.91,0s.51,0,.33.48q-1.59,4-3.17,7.94c-.63,1.57-1.26,3.13-1.87,4.71a.58.58,0,0,1-.64.44c-.9,0-1.8,0-2.7,0-.55,0-.58,0-.5-.56.25-1.71.51-3.42.77-5.13l.63-4.18Z"/><path class="cls-1" d="M86.43,52.87c1.46.38,1.79.87,1.48,2.29-.22,1-.52,2-.78,3A3.47,3.47,0,0,0,87,59.89c.07.24,0,.33-.28.33H84.18c-.33,0-.43-.19-.46-.47a4.57,4.57,0,0,1,.17-1.56c.27-1,.55-2,.79-3a.82.82,0,0,0-.85-1.11.46.46,0,0,0-.51.42q-.67,2.57-1.37,5.13c-.16.6-.16.61-.78.61H79c-.34,0-.43-.13-.34-.46L82.09,47c.06-.22.14-.37.41-.36,1.66,0,3.33-.09,5,.09a1.52,1.52,0,0,1,.21,0c1.5.27,2,1,1.79,2.51a4.29,4.29,0,0,1-1.83,3.08A4.34,4.34,0,0,1,86.43,52.87Zm-.28-3.31a1.83,1.83,0,0,0,0-.35c-.1-.4-.41-.49-.76-.51s-.46-.09-.54.22l-.75,2.8c0,.21,0,.28.23.28a1.41,1.41,0,0,0,1.32-.69A4.79,4.79,0,0,0,86.15,49.56Z"/><path class="cls-1" d="M20.71,49a13,13,0,0,1-.62,3c-.39,1.51-.8,3-1.22,4.53a5.09,5.09,0,0,1-2.15,3.24,5.41,5.41,0,0,1-4.4.56,2.28,2.28,0,0,1-1.67-2.84c.19-1.25.61-2.44.91-3.67s.59-2.22.89-3.32a5,5,0,0,1,2.83-3.62,5.63,5.63,0,0,1,3.62-.27A2.2,2.2,0,0,1,20.71,49Zm-3.19.4c0-.62-.31-.86-.82-.71a1.23,1.23,0,0,0-.81,1c-.67,2.48-1.33,5-2,7.45a2.71,2.71,0,0,0-.09.57c0,.34.19.5.51.52a1,1,0,0,0,1-.6,3.43,3.43,0,0,0,.23-.66c.47-1.72.94-3.44,1.39-5.16C17.12,51,17.39,50.12,17.52,49.37Z"/><path class="cls-1" d="M121.6,54.89h1.12c.5,0,.52,0,.38.52s-.29,1.07-.43,1.61a1.28,1.28,0,0,0-.07.28c0,.31-.22.68.2.87a.94.94,0,0,0,1.14-.37,2.19,2.19,0,0,0,0-2.29,4.91,4.91,0,0,0-.88-1l-.53-.52a3.89,3.89,0,0,1-1.17-4.26,4.24,4.24,0,0,1,3.36-3.14,7,7,0,0,1,3.21,0,2,2,0,0,1,1.59,2.63c-.16.67-.35,1.34-.52,2-.06.22-.16.33-.4.33h-2.53c-.29,0-.37-.11-.29-.38.15-.54.3-1.07.42-1.61.07-.32.2-.71-.26-.89a.93.93,0,0,0-1.11.42,1.7,1.7,0,0,0,0,1.85A8.12,8.12,0,0,0,126,52.16a7.08,7.08,0,0,1,1.23,1.5,4.31,4.31,0,0,1,0,4.07,4.37,4.37,0,0,1-3.88,2.69,6,6,0,0,1-2.66-.24,1.91,1.91,0,0,1-1.39-2.39c.19-.88.45-1.74.67-2.61a.33.33,0,0,1,.38-.29Z"/><path class="cls-1" d="M118.43,51.53c-.41,0-.83,0-1.24,0s-.37-.1-.29-.38c.15-.51.31-1,.42-1.56.07-.34.21-.74-.25-.93a.91.91,0,0,0-1.13.45,1.67,1.67,0,0,0,.12,1.91,11.77,11.77,0,0,0,1.28,1.36,4.6,4.6,0,0,1-2.85,8,7.77,7.77,0,0,1-2.31-.1,2.07,2.07,0,0,1-1.78-2.77c.18-.77.4-1.53.6-2.29.06-.25.17-.38.45-.38q1.24,0,2.49,0c.34,0,.36.16.29.42-.19.66-.38,1.33-.54,2-.07.31-.22.68.21.87a.94.94,0,0,0,1.11-.33,2.16,2.16,0,0,0,.12-2.22,4.29,4.29,0,0,0-.81-1,15.64,15.64,0,0,1-1.26-1.32,3.84,3.84,0,0,1-.45-3.9,4.33,4.33,0,0,1,4-2.94,8.33,8.33,0,0,1,2.23.09,2.07,2.07,0,0,1,1.8,2.82c-.15.6-.33,1.2-.48,1.8-.07.29-.2.43-.51.41S118.84,51.53,118.43,51.53Z"/><path class="cls-1" d="M33.77,46.66c.61,0,1.22,0,1.83,0,.29,0,.38.09.34.39q-.59,4.16-1.15,8.3c-.21,1.48-.42,3-.62,4.44,0,.31-.15.44-.46.44H31.34c-.35,0-.43-.14-.37-.46.13-.78.25-1.56.38-2.33.07-.47,0-.52-.42-.53-1.11,0-1.11,0-1.55,1-.28.65-.56,1.3-.82,2a.51.51,0,0,1-.56.38H26.13c-.4,0-.44-.07-.28-.44q1.93-4.44,3.88-8.86c.55-1.26,1.11-2.51,1.64-3.77a.66.66,0,0,1,.74-.5C32.66,46.69,33.21,46.66,33.77,46.66ZM32.7,49.45l-.06,0c-.15.44-.31.88-.47,1.32-.43,1.19-.86,2.38-1.28,3.58-.05.13-.19.29,0,.4a.66.66,0,0,0,1-.46Z"/><path class="cls-1" d="M23.36,56.42l3.53-8.82c.46-1.14.18-.92,1.36-.94h1.54c.46,0,.48,0,.3.43q-1.65,3.81-3.31,7.62c-.71,1.63-1.44,3.26-2.12,4.91a.84.84,0,0,1-.92.62c-1,0-2,0-3.07,0-.34,0-.48-.08-.43-.45.19-1.62.36-3.24.54-4.86l.72-6.31.18-1.6c0-.23.12-.35.37-.35.92,0,1.85,0,2.78,0,.41,0,.3.26.26.48-.36,1.89-.74,3.77-1.1,5.66-.24,1.2-.47,2.41-.71,3.61Z"/><path class="cls-1" d="M48.46,46.66c1,0,1.94,0,2.91,0,.3,0,.39.11.31.4-.13.45-.26.91-.37,1.36a.42.42,0,0,1-.5.37c-.84,0-1.69,0-2.53,0-.32,0-.48.1-.55.42-.17.7-.36,1.39-.56,2.08-.08.28,0,.38.29.38.81,0,1.61,0,2.41,0,.35,0,.45.12.34.45s-.24.88-.35,1.32a.41.41,0,0,1-.47.36c-.83,0-1.66,0-2.49,0a.45.45,0,0,0-.5.38c-.3,1.19-.62,2.38-.95,3.56-.09.32,0,.36.3.36.83,0,1.67,0,2.5,0,.36,0,.46.12.36.47s-.26.91-.37,1.36a.4.4,0,0,1-.44.35H42c-.31,0-.41-.11-.32-.44Q43.37,53.43,45.07,47a.46.46,0,0,1,.52-.39C46.55,46.67,47.5,46.66,48.46,46.66Z"/><path class="cls-1" d="M109.44,46.66c1,0,1.91,0,2.87,0,.33,0,.41.1.31.42a9.67,9.67,0,0,0-.34,1.28c-.07.35-.25.44-.58.44-.83,0-1.66,0-2.49,0a.46.46,0,0,0-.53.4c-.17.7-.35,1.39-.55,2.08-.1.33,0,.41.32.4h2.41c.3,0,.41.09.32.39-.13.45-.26.9-.37,1.36a.42.42,0,0,1-.5.37c-.81,0-1.63,0-2.45,0a.46.46,0,0,0-.52.4c-.28,1.14-.6,2.27-.9,3.41-.12.46-.1.49.39.49.8,0,1.61,0,2.41,0,.32,0,.42.11.33.43s-.27.9-.37,1.36a.45.45,0,0,1-.49.39h-5.77c-.42,0-.39-.21-.31-.51l2.73-10.18c.22-.83.45-1.65.66-2.49a.45.45,0,0,1,.51-.4C107.5,46.67,108.47,46.66,109.44,46.66Z"/><path class="cls-1" d="M94.57,46.66c1,0,1.94,0,2.91,0,.31,0,.39.12.3.4-.12.46-.25.91-.36,1.37a.43.43,0,0,1-.51.36c-.84,0-1.69,0-2.53,0a.48.48,0,0,0-.55.42c-.16.69-.34,1.37-.54,2.05-.1.33,0,.42.33.41H95.9c.51,0,.53,0,.4.53s-.23.79-.32,1.2a.45.45,0,0,1-.53.39c-.82,0-1.63,0-2.45,0a.46.46,0,0,0-.51.42c-.3,1.16-.6,2.33-.93,3.49-.08.31,0,.39.3.39.83,0,1.67,0,2.5,0,.37,0,.46.12.36.47s-.26.91-.37,1.36a.4.4,0,0,1-.44.35H88.09c-.31,0-.41-.11-.32-.44Q89.48,53.43,91.18,47a.45.45,0,0,1,.52-.39C92.66,46.67,93.61,46.66,94.57,46.66Z"/><path class="cls-1" d="M40.68,46.66c1.12,0,2.24,0,3.36,0,.34,0,.45.1.34.44s-.24.88-.35,1.32a.42.42,0,0,1-.5.37c-.44,0-.89,0-1.33,0s-.51.12-.6.46c-.58,2.24-1.19,4.47-1.78,6.7-.34,1.27-.7,2.53-1,3.81a.56.56,0,0,1-.67.49c-.69,0-1.38,0-2.08,0s-.62,0-.46-.6Q37,54.44,38.37,49.25c.13-.47.12-.47-.37-.47H36.71c-.28,0-.38-.11-.3-.39.13-.45.26-.91.36-1.36a.44.44,0,0,1,.5-.38C38.41,46.67,39.54,46.66,40.68,46.66Z"/><path class="cls-1" d="M52.4,60.23H49.54c-.37,0-.46-.12-.36-.47q1.71-6.34,3.4-12.7a.47.47,0,0,1,.55-.41c.77,0,1.55,0,2.32,0,.37,0,.45.1.36.46-.84,3.08-1.66,6.17-2.49,9.25-.11.42-.2.84-.34,1.24s0,.48.34.47c.83,0,1.66,0,2.49,0,.38,0,.45.15.35.48s-.26.85-.35,1.28-.23.42-.55.42Z"/><path class="cls-1" d="M98.53,60.23H95.66c-.45,0-.48,0-.37-.49,1.13-4.22,2.27-8.44,3.39-12.67a.48.48,0,0,1,.55-.42c.78,0,1.55,0,2.33,0,.37,0,.44.11.35.46-.73,2.68-1.44,5.35-2.15,8-.23.83-.43,1.67-.68,2.49-.11.37,0,.45.36.44.83,0,1.66,0,2.49,0,.35,0,.44.13.35.45s-.26.88-.36,1.33a.46.46,0,0,1-.52.4Z"/><path class="cls-1" d="M76,60.23H74.84c-.46,0-.49,0-.38-.49.44-1.63.87-3.26,1.31-4.89.69-2.56,1.38-5.13,2.06-7.69.09-.37.24-.53.64-.51.72,0,1.44,0,2.16,0,.55,0,.56,0,.42.53L79.4,53.36c-.57,2.12-1.15,4.24-1.7,6.37-.1.38-.28.53-.66.5S76.32,60.23,76,60.23Z"/><path class="cls-1" d="M127.54,58.41a1.82,1.82,0,0,1,.33,0c.13,0,.31,0,.34.16s-.14.16-.25.19-.18.19-.18.33c0,.34,0,.69,0,1,0,.13,0,.26-.19.27s-.23-.13-.23-.28,0-.52,0-.78.09-.58-.34-.61c-.08,0-.11-.08-.1-.16a.16.16,0,0,1,.14-.13l.5,0Z"/></g></g></g></svg>