<svg width="95px" height="32px" xmlns="http://www.w3.org/2000/svg" viewBox="0 0 128.12 33.44"><defs><style>.cls-1{fill:#d8d6d6;}</style></defs><g id="Layer_2" data-name="Layer 2"><g id="Layer_2-2" data-name="Layer 2"><g id="pantech"><path class="cls-1" d="M4.33,22.13V32.78c0,.23.12.55-.14.65s-.36-.21-.52-.36C2.58,32,1.5,31,.4,29.91A1.16,1.16,0,0,1,0,29c0-5.66,0-11.31,0-17A12.26,12.26,0,0,1,1.09,6.9,11.54,11.54,0,0,1,5.82,1.62,12.93,12.93,0,0,1,20.05,2.77a11.13,11.13,0,0,1,4.27,7.74,12.34,12.34,0,0,1-1.38,7.35,10.69,10.69,0,0,1-5.37,4.77,13.92,13.92,0,0,1-4.73,1.07c-2,.12-3.95,0-5.93.07-.63,0-.69-.06-.69-.71,0-.9,0-1.81,0-2.71,0-.66,0-.7.68-.7,1.7,0,3.4,0,5.1,0A7.87,7.87,0,0,0,16.92,18a7.74,7.74,0,0,0-3.7-13.88A7.63,7.63,0,0,0,6.48,6.51a7.44,7.44,0,0,0-2.15,5.2V22.13Z"/><path class="cls-1" d="M49.86,13.29a2.35,2.35,0,0,0,0,.69v9.1c0,.65,0,.69-.7.69-.89,0-1.77,0-2.66,0-.6,0-.66-.07-.66-.68q0-8,0-16c0-.62,0-.66.66-.66.83,0,1.66,0,2.5,0a.83.83,0,0,1,.78.41C51.14,8.91,52.55,10.94,54,13l3.22,4.65c.08.12.14.27.31.34a1,1,0,0,0,.09-.63V7.42c0-.19,0-.37,0-.56a.36.36,0,0,1,.41-.4h3.22c.39,0,.44.08.47.46,0,.14,0,.29,0,.44V22.89c0,.88,0,.88-.89.88H59.3a3.45,3.45,0,0,1-3-1.49C55.51,21.21,54.75,20.11,54,19L50.1,13.49A.36.36,0,0,0,49.86,13.29Z"/><path class="cls-1" d="M42.39,23.77c-.46,0-.93,0-1.39,0a.8.8,0,0,1-.86-.53c-.35-.82-.74-1.61-1.11-2.42l-.28-.6a.5.5,0,0,0-.48-.31c-.15,0-.3,0-.45,0H30.06a2.43,2.43,0,0,1-.27,0,.62.62,0,0,0-.69.42c-.38.88-.79,1.75-1.2,2.62-.06.16-.14.3-.21.46a.55.55,0,0,1-.56.36c-1.07,0-2.14,0-3.22,0-.44,0-.5-.1-.33-.5s.46-1.05.7-1.57L29.23,11c.61-1.33,1.23-2.65,1.82-4a.82.82,0,0,1,.89-.56c1.35,0,2.7,0,4.05,0a.84.84,0,0,1,.89.57c.87,1.93,1.77,3.86,2.65,5.79q1.53,3.3,3,6.6l1.71,3.72.09.21c.11.31.06.41-.26.43s-.71,0-1.06,0ZM33.9,16.91h2.49c.81,0,.83,0,.5-.75s-.68-1.48-1-2.22c-.56-1.22-1.13-2.44-1.7-3.66-.05-.11-.08-.28-.25-.25s-.15.16-.19.26c-.93,2-1.87,4.05-2.79,6.08-.22.47-.18.53.36.53Z"/><path class="cls-1" d="M128.12,15.12v7.71c0,.17,0,.34,0,.5,0,.34-.09.43-.44.43-1,0-2,0-3,0-.43,0-.51-.1-.52-.54,0-.68,0-1.37,0-2V17.12c0-.13,0-.26,0-.39s-.14-.36-.39-.36h-.27c-1.69,0-3.37,0-5.05,0-.67,0-.69,0-.69.67,0,1.92,0,3.85,0,5.77,0,.13,0,.26,0,.39,0,.47-.08.56-.55.56q-1.47,0-2.94,0c-.45,0-.5-.07-.53-.51V7.33c0-.88,0-.88.89-.88h2.5c.58,0,.63,0,.63.64,0,1.77,0,3.54,0,5.32,0,.82,0,.82.83.82h4.88c.67,0,.69,0,.7-.68V7.39c0-.15,0-.29,0-.44,0-.41.09-.49.5-.49,1,0,2,0,3.05,0,.38,0,.44.07.46.46,0,.18,0,.37,0,.55Z"/><path class="cls-1" d="M81.31,14.06V7.52c0-.13,0-.25,0-.38,0-.65,0-.69.7-.69H94.48c.39,0,.46.08.47.46,0,.74,0,1.47,0,2.21,0,.38-.08.43-.47.46H85.83c-.34,0-.42.09-.42.45,0,1,0,1.92,0,2.88a.36.36,0,0,0,.4.41h6.1c.29,0,.46.13.47.42V16c0,.26-.16.39-.43.4h-6c-.41,0-.48.09-.5.5s0,1,0,1.44,0,1,0,1.55.06.62.65.63h8.7a.38.38,0,0,1,.41.42v2.33c0,.3-.17.43-.45.43H84.34a5.54,5.54,0,0,1-1.15-.12,2.2,2.2,0,0,1-1.77-1.78,5.46,5.46,0,0,1-.12-1.21Q81.32,17.36,81.31,14.06Z"/><path class="cls-1" d="M104.88,5.9a9.1,9.1,0,0,1,5.68,1.89c.25.19.47.42.7.63a.33.33,0,0,1,0,.53c-.5.59-1,1.2-1.48,1.8-.33.39-.36.39-.75.07a5.87,5.87,0,0,0-3.8-1.33,5.41,5.41,0,0,0-5.35,4.23,5.94,5.94,0,0,0,1,5.06,5.12,5.12,0,0,0,3.77,2.08,5.53,5.53,0,0,0,5-1.89c.2-.22.35-.24.55,0L112,20.67c.2.19.09.35,0,.53a7.89,7.89,0,0,1-2.32,2,9.28,9.28,0,0,1-10.28-.64,8.86,8.86,0,0,1-3.37-6.27,9.53,9.53,0,0,1,.54-4.52,8.55,8.55,0,0,1,7-5.78A7.59,7.59,0,0,1,104.88,5.9Z"/><path class="cls-1" d="M71.48,6.45h7.43c.22,0,.36.11.36.33,0,.79,0,1.58,0,2.38a.3.3,0,0,1-.32.31H74.18c-.74,0-.75,0-.75.74V22.76c0,1,0,1-1,1H70.1c-.65,0-.69,0-.69-.69V10.16c0-.64,0-.66-.65-.66H64a.32.32,0,0,1-.34-.34c0-.78,0-1.56,0-2.33A.32.32,0,0,1,64,6.46h7.49Z"/></g></g></g></svg>