<svg width="126px" height="80px" xmlns="http://www.w3.org/2000/svg" viewBox="0 0 131.3 131.3"><defs><style>.cls-1{fill:#d8d6d6;}</style></defs><g id="Layer_2" data-name="Layer 2"><g id="Layer_2-2" data-name="Layer 2"><path class="cls-1" d="M65.65,0A65.65,65.65,0,1,0,131.3,65.65,65.65,65.65,0,0,0,65.65,0ZM49.24,73.86v-.1l-13.15,4.4c-2.57.91-3,2.18-.88,2.85a15.39,15.39,0,0,0,8.44-.43L49.24,78v8.21c-.45.07-.07-.32-.53-.24A46.52,46.52,0,0,1,27,84.21c-6.8-1.87-8-5.78-4.84-8a33.58,33.58,0,0,1,7.75-3.66l19.32-6.85v8.11l.86-.29Zm22.47-32c-1.86-.56-1.95.88-1.95,3.3V94.38L53.34,90.27V28.72A183,183,0,0,1,73.5,34c12.72,4,17,7.73,17,19,0,11-7.34,16.83-16.68,12.66V49.24C73.86,46.83,74.17,42.46,71.71,41.84ZM106,80.26c-1.59,2-5.47,3.5-5.47,3.5L73.86,94.38V86.17L92.8,79c2.41-.87,2.78-2.12.83-2.78a14,14,0,0,0-7.91.43L73.86,82.07V73.86s3.08-2.22,9.27-2.87a37,37,0,0,1,17.5,2.23C106.86,75.24,107.57,78.21,106,80.26Z"/></g></g></svg>