<?xml version="1.0" encoding="UTF-8"?>
<svg width="142px" height="23px" viewBox="0 0 142 23" version="1.1" xmlns="http://www.w3.org/2000/svg" xmlns:xlink="http://www.w3.org/1999/xlink">
    <title>2FDD2C62-1E46-4244-9C55-A3A43354A585</title>
    <g id="onboarding-proccess" stroke="none" stroke-width="1" fill="none" fill-rule="evenodd">
        <g id="onboard/welcome/devices" transform="translate(-403.000000, -441.000000)" fill="#034EA2">
            <g id="Group-21" transform="translate(263.000000, 104.000000)">
                <g id="samsung" transform="translate(140.656430, 337.174664)">
                    <path d="M9.97877401,15.2267685 C10.1784918,15.7235904 10.115164,16.3602948 10.0177426,16.7461824 C9.84725906,17.4311131 9.37962064,18.1305256 7.99620538,18.1305256 C6.70046152,18.1305256 5.91134036,17.3876986 5.91134036,16.2686541 L5.91134036,14.2765392 L0.343570058,14.2765392 L0.343570058,15.8586456 C0.343570058,20.4409927 3.98234957,21.8253359 7.88415898,21.8253359 C11.6349849,21.8253359 14.7233139,20.5615816 15.2152958,17.1320545 C15.4686072,15.3569964 15.2834987,14.1945375 15.1958116,13.7652354 C14.3190033,9.46266885 6.44716589,8.17960543 5.8577468,5.77271698 C5.77590968,5.41767734 5.76927339,5.04986874 5.83826252,4.69218187 C5.98440247,4.03146556 6.43741589,3.31266602 7.73315975,3.31266602 C8.95095077,3.31266602 9.65727554,4.05544631 9.65727554,5.17459977 L9.65727554,6.44797746 L14.8353445,6.44797746 L14.8353445,5.00097293 C14.8353445,0.524670547 10.7776452,-0.174664107 7.84519043,-0.174664107 C4.15283308,-0.174664107 1.13756622,1.0360522 0.587131407,4.38837383 C0.440991452,5.30478097 0.416632172,6.12479795 0.635834241,7.15702898 C1.53701752,11.3534885 8.90710721,12.5690165 9.97877401,15.2267685" id="Fill-1"></path>
                    <path d="M21.094965,0.830034393 L17.3435701,20.8253359 L22.8093846,20.8253359 L25.5777822,2.67987942 L25.6918418,2.67987942 L28.384353,20.8253359 L33.8216527,20.8253359 L30.0938669,0.825335893 L21.094965,0.830034393 Z M51.6532729,0.830034393 L49.1602127,16.1164383 L49.0415539,16.1164383 L46.5530928,0.830034393 L38.3044699,0.830034393 L37.8581965,20.8253359 L42.9203567,20.8253359 L43.0437679,2.84887386 L43.1578275,2.84887386 L46.5340829,20.8253359 L51.6675303,20.8253359 L55.0486915,2.85357236 L55.1578453,2.85357236 L55.2861624,20.8253359 L60.3435701,20.8253359 L59.8971433,0.825335893 L51.6532729,0.830034393 Z" id="Fill-2"></path>
                    <path d="M74.9787476,15.2267778 C75.1784648,15.7235991 75.11509,16.3603026 75.0177475,16.7461741 C74.8472802,17.4311193 74.3795958,18.1305308 72.9962001,18.1305308 C71.7003969,18.1305308 70.9112779,17.3877049 70.9112779,16.2686464 L70.9112779,14.2765499 L65.3435701,14.2765499 L65.3435701,15.8586541 C65.3435701,20.4409947 68.9823553,21.8253359 72.8840754,21.8253359 C76.6349854,21.8253359 79.7232115,20.5615834 80.2152708,17.1320611 C80.4686129,15.3570056 80.2835206,14.1945483 80.1957708,13.7652468 C79.318902,9.46268635 71.4472121,8.17962475 70.8578103,5.77270856 C70.7758791,5.41782514 70.7692742,5.04986134 70.8383103,4.69217498 C70.9844027,4.03145961 71.4374621,3.31266108 72.733108,3.31266108 C73.9509114,3.31266108 74.6573129,4.05559604 74.6573129,5.17459219 L74.6573129,6.44798365 L79.8353362,6.44798365 L79.8353362,5.0009656 C79.8353362,0.524669557 75.7776165,-0.174664107 72.8452328,-0.174664107 C69.1528226,-0.174664107 66.137564,1.03605049 65.5871622,4.38836737 C65.4410698,5.30477321 65.4166949,6.12478904 65.6359121,7.15704975 C66.5369985,11.3535033 73.9070365,12.5690296 74.9787476,15.2267778" id="Fill-3"></path>
                    <path d="M91.3903109,18.087007 C92.7836222,18.087007 93.2119943,17.0901257 93.3107676,16.5819039 C93.3531642,16.3571126 93.3578749,16.0541357 93.3578749,15.7853611 L93.3578749,0.392165266 L98.4321245,0.392165266 L98.4321245,15.3113573 C98.4329986,15.7678971 98.4173468,16.2243265 98.3849796,16.6796358 C98.031979,20.5645704 95.0759223,21.8253359 91.3903109,21.8253359 C87.6999888,21.8253359 84.744084,20.5645704 84.3909315,16.6796358 C84.3767993,16.4743909 84.3392655,15.6925197 84.3439762,15.3113573 L84.3439762,0.387274726 L89.4180362,0.387274726 L89.4180362,15.7804863 C89.4133255,16.0541357 89.4227469,16.3571126 89.4651435,16.5819039 C89.559358,17.0901257 89.9922889,18.087007 91.3903109,18.087007 L91.3903109,18.087007 Z M115.904626,0.392165266 L116.177544,16.7285097 L116.06935,16.7285097 L111.456485,0.392165266 L104.019312,0.392165266 L104.019312,20.9848256 L108.947643,20.9848256 L108.674573,4.08168338 L108.78292,4.08168338 L113.729942,20.9848256 L120.870492,20.9848256 L120.870492,0.392165266 L115.904626,0.392165266 Z M133.203021,17.8719968 C134.652709,17.8719968 135.161163,16.919083 135.250515,16.3571126 C135.292912,16.1274307 135.297622,15.834235 135.297622,15.5752414 L135.297622,12.5454729 L133.240707,12.5454729 L133.240707,9.51572024 L140.34357,9.51572024 L140.34357,15.0963471 C140.34357,15.4872748 140.334149,15.7707053 140.272909,16.4646256 C139.943462,20.256703 136.775575,21.6103257 133.221864,21.6103257 C129.668001,21.6103257 126.504824,20.256703 126.170666,16.4646256 C126.114138,15.7707053 126.100005,15.4872748 126.100005,15.0963471 L126.100005,6.339346 C126.100005,5.96801202 126.147113,5.31315293 126.184799,4.97113064 C126.632014,1.0763676 129.668001,-0.174664107 133.221864,-0.174664107 C136.775575,-0.174664107 139.891644,1.06658652 140.258777,4.9662401 C140.324727,5.63072251 140.305884,6.33447123 140.305884,6.33447123 L140.305884,7.03326631 L135.250515,7.03326631 L135.250515,5.86531068 C135.250515,5.86531068 135.250515,5.37672995 135.189276,5.07367422 C135.095213,4.61427897 134.718659,3.55886886 133.184178,3.55886886 C131.724917,3.55886886 131.296696,4.56064079 131.18835,5.07367422 C131.12711,5.34738671 131.103708,5.71875224 131.103708,6.05588398 L131.103708,15.5703509 C131.103708,15.834235 131.11313,16.1274307 131.150664,16.3620031 C131.244878,16.919083 131.753181,17.8719968 133.203021,17.8719968 L133.203021,17.8719968 Z" id="Fill-4"></path>
                </g>
            </g>
        </g>
    </g>
</svg>