<svg height="32" viewBox="0 0 128.8 70.76" width="95" xmlns="http://www.w3.org/2000/svg"><g fill="#d8d6d6"><path d="m103.89 0a2.59 2.59 0 0 1 1.61 3.19 2.26 2.26 0 0 1 -2.06 1.68c-.23 0-.47 0-.7.06a1.33 1.33 0 0 0 -1.26 1.43 8.8 8.8 0 0 1 -.08 1.64 2.28 2.28 0 0 1 -2.26 1.86c-1.39 0-1.8.46-1.82 1.84a5.61 5.61 0 0 1 -.07 1.16 2.26 2.26 0 0 1 -2.08 1.95 2.36 2.36 0 0 1 -2.23-1.87 5.57 5.57 0 0 1 -.11-1c-.07-1.35-.61-1.94-2-1.89a2.33 2.33 0 0 1 -2.47-2.22c0-.35-.06-.71-.08-1.06a1.47 1.47 0 0 0 -1.41-1.49c-.23 0-.47-.06-.7-.07a2.34 2.34 0 0 1 -2.31-2 2.47 2.47 0 0 1 .51-2.09 2 2 0 0 1 2.22-.69 2.33 2.33 0 0 1 1.62 2c.06.41.08.83.12 1.25a1.46 1.46 0 0 0 1.56 1.45c2 0 2.85.82 3 2.82v.7a1.32 1.32 0 0 0 1.31 1.24 11.22 11.22 0 0 0 1.42 0 1.41 1.41 0 0 0 1.38-1.77 3.58 3.58 0 0 1 .23-1.83 2.09 2.09 0 0 1 2-1.36h.56a1.29 1.29 0 0 0 1.27-1.31c0-.44 0-.88.06-1.32a2.38 2.38 0 0 1 1.76-2.3z"/><path d="m128.8 14.87a2.44 2.44 0 0 1 -1.8 1.66 2.3 2.3 0 0 1 -2.53-1.63 2.36 2.36 0 0 1 1.25-2.9 2.21 2.21 0 0 1 2.78 1c.11.2.2.42.3.64z"/><path d="m93.32 21.29a7.61 7.61 0 0 1 .07-1 2.36 2.36 0 0 1 2.45-1.92c1.33 0 1.73-.44 1.75-1.77 0-.29 0-.58 0-.86a2.26 2.26 0 0 1 2.09-2.22 3.54 3.54 0 0 1 .46 0c1.19 0 1.62-.5 1.63-1.7a6.23 6.23 0 0 1 0-1.06 2.26 2.26 0 0 1 2.4-2.07c1.39 0 1.85-.73 1.79-1.85a4.14 4.14 0 0 1 .13-1.31 2.19 2.19 0 0 1 2.33-1.62 2.34 2.34 0 0 1 2 2c.05.38.07.77.11 1.16a1.41 1.41 0 0 0 1.46 1.37h.45a2.47 2.47 0 0 1 2.62 2.44v.31c0 1.44.45 1.85 1.88 1.89a2.4 2.4 0 0 1 2.48 1.56 2.27 2.27 0 0 1 -.51 2.53 1.94 1.94 0 0 1 -2.21.55 2.36 2.36 0 0 1 -1.57-2.06c0-.38-.07-.77-.11-1.16a1.4 1.4 0 0 0 -1.39-1.28h-.45a2.46 2.46 0 0 1 -2.7-2.55c-.08-1.81-.34-2-2.15-2h-.71a1.39 1.39 0 0 0 -1.46 1.46v1.16a2.2 2.2 0 0 1 -2.16 2.2 6 6 0 0 0 -.85.07 1.25 1.25 0 0 0 -1.08 1.22v1.22a2.36 2.36 0 0 1 -2.44 2.43c-.17 0-.33 0-.5 0a1.36 1.36 0 0 0 -1.29 1.37v.91a2.38 2.38 0 0 1 -2.38 2.54 2.08 2.08 0 0 1 -.35 0 1.38 1.38 0 0 0 -1.5 1.42v1.06a2.25 2.25 0 0 1 -2.12 2.29 2.36 2.36 0 0 1 -2.36-2.19c0-.37-.06-.74-.11-1.1a1.32 1.32 0 0 0 -1.42-1.28 3.67 3.67 0 0 1 -1.95-.4 2.86 2.86 0 0 1 -1.17-2.5c-.08-1.34-.48-1.71-1.81-1.75a3.15 3.15 0 0 1 -1.51-.34 2.47 2.47 0 0 1 -1.16-2.54 2.25 2.25 0 0 1 1.75-1.82 2.3 2.3 0 0 1 2.62 1.9c0 .37.08.74.1 1.11a1.48 1.48 0 0 0 1.62 1.55 4.57 4.57 0 0 1 1.11 0 2.43 2.43 0 0 1 1.8 2.34 4.13 4.13 0 0 0 .11 1.31 1.28 1.28 0 0 0 1.24.93h1.47a1.36 1.36 0 0 0 1.5-1.51v-.45z"/><path d="m88.68 46.29c1.92.62 2.14 2.15 2.26 3.72 0 .76 0 1.52.1 2.27a4.82 4.82 0 0 0 .37 1.46c.18.38 0 .49-.31.49h-2.79a.56.56 0 0 1 -.61-.48 6.4 6.4 0 0 1 -.23-1.8 9.27 9.27 0 0 0 -.21-2.35 2.07 2.07 0 0 0 -2-1.74c-1.94-.17-3.88 0-5.82-.08-.38 0-.44.2-.44.52q0 2.07 0 4.14a1.82 1.82 0 0 1 -1.08 1.84 1.72 1.72 0 0 1 -2.36-1.15 3.36 3.36 0 0 1 -.1-.9c0-4.52 0-9 0-13.55 0-.75 0-.76.76-.76h9.87a7.76 7.76 0 0 1 2.48.4 3.72 3.72 0 0 1 2.68 3.34 4.89 4.89 0 0 1 -.32 2.53 3.9 3.9 0 0 1 -2.25 2.1zm-6.24-5.71c-1 0-2 0-2.93 0-.39 0-.54.15-.53.54v3.53c0 .46.18.57.6.57h5.21a5.76 5.76 0 0 0 1.48-.22 1.62 1.62 0 0 0 1.19-1.07c.48-1.64.05-3.25-2.19-3.33-.94-.05-1.89-.02-2.83-.02z"/><path d="m66.47 46.3c2 .67 2.06 2.35 2.18 4a18 18 0 0 0 .13 2.32 8.12 8.12 0 0 0 .25 1c.23.64.24.64-.46.64s-1.62 0-2.43 0a.68.68 0 0 1 -.78-.6 14.32 14.32 0 0 1 -.24-2.66 5.36 5.36 0 0 0 -.26-1.74 2 2 0 0 0 -1.81-1.41c-2-.18-4 0-6-.09-.36 0-.4.21-.39.5v4.4a1.67 1.67 0 0 1 -1.16 1.65 1.69 1.69 0 0 1 -1.94-.59 1.75 1.75 0 0 1 -.37-1.14q0-7.05 0-14.11c0-.44.17-.57.6-.57h10.21a7.45 7.45 0 0 1 2.19.37c2.17.69 3 2.46 2.77 4.59-.21 1.69-.7 2.3-2.49 3.44zm-6.31-5.72c-1 0-2 0-2.93 0-.42 0-.61.1-.6.56q0 1.77 0 3.54c0 .42.15.54.56.54h4.7a12.44 12.44 0 0 0 1.61-.11 1.79 1.79 0 0 0 1.6-1.11c.59-1.62.16-3.34-2.11-3.44-.99-.01-1.89.02-2.83.02z"/><path d="m13.62 42.71h-1.42c-.24 0-.42-.05-.49-.32a2.9 2.9 0 0 0 -2.41-2.11 7 7 0 0 0 -3.75.12 2.58 2.58 0 0 0 -1 .54 1.58 1.58 0 0 0 .35 2.68 10.68 10.68 0 0 0 3.44.77 22.25 22.25 0 0 1 4.66.91c1.7.62 2.91 1.68 3 3.6a4.54 4.54 0 0 1 -2.73 4.75 12.84 12.84 0 0 1 -6.39 1 11.19 11.19 0 0 1 -3.64-.78 5 5 0 0 1 -3.24-4.28c0-.59 0-.73.68-.73h2.58c.28 0 .48 0 .53.39a2.84 2.84 0 0 0 2.21 2.43 8.11 8.11 0 0 0 4.68 0 3 3 0 0 0 .94-.49 1.78 1.78 0 0 0 -.27-3 11.37 11.37 0 0 0 -3.35-.82 27.57 27.57 0 0 1 -4.22-.81c-.38-.13-.76-.28-1.12-.44-3.14-1.43-2.73-5.76-.46-7.28a8 8 0 0 1 3.64-1.26 13.49 13.49 0 0 1 6.05.54 5 5 0 0 1 3.59 4c.08.47-.06.61-.51.59s-.91 0-1.35 0z"/><path d="m32.5 46.05c0-2.5 0-5 0-7.49 0-.47.14-.65.63-.64h12.87c.47 0 .68.12.64.62s0 .85 0 1.27c0 .76 0 .76-.74.76h-5.6c-1.25 0-2.5 0-3.75 0-.43 0-.59.13-.58.58v2.78c0 .49.18.6.62.6h7.39a4.11 4.11 0 0 1 .86.08 1.29 1.29 0 0 1 -.11 2.55c-.2 0-.4 0-.61 0-2.49 0-5 0-7.49 0-.5 0-.68.13-.66.65v3.13c0 .53.17.65.67.65h9.46c.71 0 .71 0 .71.7v1.47s-.14.49-.48.48h-13c-.82 0-.82 0-.82-.85z"/><path d="m104.38 50.2c-1.09 0-2.19 0-3.29 0a.6.6 0 0 0 -.65.42c-.35.88-.72 1.75-1.1 2.61a1.81 1.81 0 0 1 -2 1.19 1.69 1.69 0 0 1 -1.2-2.25c.44-1.14 1-2.26 1.47-3.38 1.48-3.33 3-6.65 4.42-10a1.19 1.19 0 0 1 1.35-.88 23.7 23.7 0 0 0 2.53 0 .7.7 0 0 1 .76.5c1.82 4.11 3.66 8.22 5.49 12.33.44 1 .86 2 1.32 3 .2.44 0 .53-.36.52-.89 0-1.79 0-2.68 0a.68.68 0 0 1 -.72-.49c-.41-1-.87-2.05-1.27-3.08a.65.65 0 0 0 -.73-.47c-1.14-.01-2.24-.02-3.34-.02zm.05-9.16c-.08.07-.13.1-.15.14l-2.45 6c-.15.38.12.33.34.33h4.44c.42 0 .49-.11.33-.5-.69-1.62-1.35-3.26-2-4.89z"/><path d="m115.76 29.27a2.28 2.28 0 0 1 -2.09 2.37 2.37 2.37 0 0 1 -2.3-2.25c0-.4-.06-.81-.11-1.21a1.49 1.49 0 0 0 -1.51-1.35 6.83 6.83 0 0 1 -1.11 0 2.48 2.48 0 0 1 -1.92-2.43c0-.28 0-.57 0-.86a1.4 1.4 0 0 0 -1.46-1.41 8 8 0 0 0 -1.47.06 1.36 1.36 0 0 0 -1.27 1.43v1.17a2.27 2.27 0 0 1 -2.14 2.32c-.18 0-.37 0-.55 0a1.35 1.35 0 0 0 -1.46 1.45v1a2.31 2.31 0 0 1 -1.29 2.23 1.89 1.89 0 0 1 -2.14-.23 2.47 2.47 0 0 1 -.94-2.56 2.27 2.27 0 0 1 2.26-1.94c1.46-.08 1.85-.5 1.84-2a3.13 3.13 0 0 1 .43-2 2 2 0 0 1 1.84-1c1.15.06 1.89-.33 1.88-1.95a4.49 4.49 0 0 1 .08-1.21 2.25 2.25 0 0 1 2.15-1.8 2.36 2.36 0 0 1 2.15 2c.07.41.09.84.12 1.26a1.48 1.48 0 0 0 1.64 1.53c1.89 0 2.73.84 2.82 2.72a8.39 8.39 0 0 0 .1.86 1.48 1.48 0 0 0 1.18 1.17 9 9 0 0 0 .91.09 2.36 2.36 0 0 1 2.36 2.54z"/><path d="m79.83 11.49a3.29 3.29 0 0 1 -.09 1.41 2.19 2.19 0 0 1 -2.33 1.68 2.42 2.42 0 0 1 -2-2.19 2.38 2.38 0 0 1 2.31-2.73c1.72 0 1.86-.85 1.84-2a3 3 0 0 1 .67-2.21 2.08 2.08 0 0 1 3.28.21 2.81 2.81 0 0 1 .54 1.65 4.43 4.43 0 0 0 .15 1.15 1.81 1.81 0 0 0 2.08 1.22 2.43 2.43 0 0 1 2.44 2.23c0 .35 0 .7.08 1a1.35 1.35 0 0 0 1.34 1.42 9.06 9.06 0 0 0 .91.07 2.42 2.42 0 0 1 2.2 2.42 2.37 2.37 0 0 1 -2 2.42 2.31 2.31 0 0 1 -2.37-1.8c-.13-.5-.08-1-.16-1.51-.19-1.07-.57-1.4-1.66-1.4a2.49 2.49 0 0 1 -2.7-1.74 4.43 4.43 0 0 1 -.14-1.26 1.73 1.73 0 0 0 -2-1.94h-.75c-1.14.06-1.66.61-1.64 1.9z"/><path d="m119.59 20.47a3.15 3.15 0 0 1 .41-1.87 2 2 0 0 1 2-1.11 2.12 2.12 0 0 1 1.85 1.44 2.46 2.46 0 0 1 -2.29 3.47c-1.13-.06-1.6.47-1.63 1.63a6.28 6.28 0 0 1 -.11 1.5 2.21 2.21 0 0 1 -2 1.75 2.26 2.26 0 0 1 -2.19-1.57 5.73 5.73 0 0 1 -.22-1.54 1.72 1.72 0 0 0 -1.89-1.78 2.54 2.54 0 0 1 -2.74-2.59c-.12-1.91-.29-2.06-2.24-2.18a2.38 2.38 0 0 1 -2.18-2.52 2.25 2.25 0 0 1 2.37-2.28 2.3 2.3 0 0 1 2 1.91 12.09 12.09 0 0 1 .12 1.21 1.46 1.46 0 0 0 1.63 1.56c1.9 0 2.81.91 2.82 2.82a2.27 2.27 0 0 0 .51 1.59 1.45 1.45 0 0 0 1.16.52c.46 0 .91 0 1.36-.07a1.24 1.24 0 0 0 1.31-1.4z"/><path d="m8.7 68.17a.92.92 0 0 0 .24-.51c.77-2.34 1.55-4.67 2.3-7a.7.7 0 0 1 .79-.58c1.56 0 1.2-.23 1.7 1.2.74 2.15 1.46 4.31 2.19 6.47.05.14.11.27.16.42.21-.07.2-.24.24-.37.74-2.38 1.5-4.76 2.22-7.15a.69.69 0 0 1 .79-.57c1.2 0 1.1-.08.74 1-1 2.9-2 5.8-2.94 8.72a.77.77 0 0 1 -.89.65c-1.27 0-1 .16-1.42-1-.77-2.27-1.52-4.54-2.28-6.81a5.62 5.62 0 0 0 -.19-.53c-.16.11-.16.27-.2.41q-1.15 3.58-2.39 7.18c-.24.74-.24.74-1 .74-1.15 0-.94.14-1.31-1l-2.89-8.7c-.21-.65-.2-.67.51-.66 1.17 0 1-.15 1.33 1 .69 2.14 1.35 4.28 2 6.42a2 2 0 0 0 .3.67z"/><path d="m22 45.52c0-2.3 0-4.61 0-6.92 0-.66 0-.67.68-.68s1.56 0 2.33 0c.37 0 .53.14.52.51v7.22c-.06 2.24 0 4.48 0 6.72a3.55 3.55 0 0 1 -.06.8 1.65 1.65 0 0 1 -1.49 1.25 1.7 1.7 0 0 1 -1.66-.86 2.21 2.21 0 0 1 -.32-1.16c0-2.3 0-4.59 0-6.88z"/><path d="m40 65.4a2.28 2.28 0 0 1 1.31 2.12 8.77 8.77 0 0 0 .36 2.69c.06.16 0 .21-.16.22h-.1c-1.42 0-1.45.22-1.59-1.25a11.64 11.64 0 0 0 -.15-1.66 1.61 1.61 0 0 0 -1.78-1.44c-1.13 0-2.26 0-3.39 0-.48 0-.6.19-.59.63v3.14c0 .45-.15.62-.61.61-1.13 0-1 .08-1-1v-8.7c0-.66 0-.67.68-.67h5.72a2.74 2.74 0 0 1 2.71 3.77c-.2.61-.47.92-1.41 1.54zm-3.57-3.88c-.67 0-1.35 0-2 0-.29 0-.5.07-.49.42v2.33c0 .27.14.39.41.39h4.15a1.39 1.39 0 0 0 1.41-1.56 1.35 1.35 0 0 0 -1.43-1.53c-.68-.07-1.35-.05-2.03-.05z"/><path d="m103.31 70.74c-1.43-.12-2.84-.24-3.9-1.38a3 3 0 0 1 -.8-1.93c0-.31.1-.48.43-.46a4.13 4.13 0 0 0 .5 0c.43 0 .66.1.72.56a1.8 1.8 0 0 0 1.19 1.4 5.08 5.08 0 0 0 3.55.07 1.85 1.85 0 0 0 .54-.28 1.3 1.3 0 0 0 -.24-2.37 10.54 10.54 0 0 0 -2.37-.51 13.12 13.12 0 0 1 -2.22-.48 2.44 2.44 0 0 1 -1.79-2.05 2.65 2.65 0 0 1 1.34-2.84 5.76 5.76 0 0 1 5.75 0 2.75 2.75 0 0 1 1.39 2c.09.43 0 .61-.48.58h-.45a.59.59 0 0 1 -.74-.49 1.65 1.65 0 0 0 -1.09-1.12 4.36 4.36 0 0 0 -3.12-.05 1.39 1.39 0 0 0 -1 1.43c0 .59.32 1 1.09 1.13 1 .23 2.09.4 3.13.59a6.27 6.27 0 0 1 1.26.46 2.39 2.39 0 0 1 1.73 2 2.94 2.94 0 0 1 -1 2.76 5.75 5.75 0 0 1 -3.42.98z"/><path d="m77 70.44c-1.21 0-2.43 0-3.64 0-.44 0-.59-.15-.59-.59q0-4.6 0-9.2c0-.45.15-.59.59-.59h7.18c.61 0 .58.33.59.74s0 .72-.62.71c-1.8 0-3.61 0-5.41 0-.66 0-.68 0-.69.69s0 1 0 1.57.15.59.59.59h5.21c.24 0 .58-.1.66.21a1.63 1.63 0 0 1 0 1.09c-.08.19-.33.13-.51.13-1.74 0-3.47 0-5.21 0-.71 0-.71 0-.72.7s0 1.31 0 2c0 .42.15.56.57.56h5.66c.23 0 .53-.08.61.22a1.57 1.57 0 0 1 0 1.09c-.08.17-.3.12-.46.12z"/><path d="m93.51 63.14c-.47.12-.75-.11-.91-.65a1.58 1.58 0 0 0 -1-1 4.57 4.57 0 0 0 -2.83-.14 1.85 1.85 0 0 0 -.8.41 1.22 1.22 0 0 0 .3 2.14 10.64 10.64 0 0 0 2.32.49 16.1 16.1 0 0 1 2.17.46 2.47 2.47 0 0 1 2 2 2.8 2.8 0 0 1 -1.56 3.15 6.44 6.44 0 0 1 -6.2-.1 2.89 2.89 0 0 1 -1.45-2.37c0-.4.06-.62.51-.57a.76.76 0 0 0 .3 0 .66.66 0 0 1 .87.63 1.72 1.72 0 0 0 1.15 1.32 5.1 5.1 0 0 0 3.62.09 2 2 0 0 0 .53-.29 1.3 1.3 0 0 0 -.25-2.34 10 10 0 0 0 -2.36-.51 15.56 15.56 0 0 1 -2-.42 2.48 2.48 0 0 1 -2-2.09 2.74 2.74 0 0 1 1.57-3 6 6 0 0 1 5.46.13 2.78 2.78 0 0 1 1.37 1.75c.19.82.12.91-.81.91z"/><path d="m46.66 65.25c0-1.52 0-3 0-4.55 0-.44.11-.63.59-.63h7.19c.56 0 .57.29.57.7s0 .76-.58.75c-1.85 0-3.71 0-5.56 0-.48 0-.68.14-.64.63a15.5 15.5 0 0 1 0 1.67c0 .43.14.56.56.56h5.31c.24 0 .58-.11.66.2a1.63 1.63 0 0 1 0 1.09c-.08.19-.33.13-.51.13-1.79 0-3.57 0-5.36 0-.5 0-.65.16-.62.64v2.08c0 .4.15.52.54.52q2.81 0 5.61 0c.24 0 .58-.11.68.18a1.69 1.69 0 0 1 0 1.09c-.05.18-.24.15-.39.15h-7.58c-.4 0-.47-.2-.47-.54.01-1.57 0-3.12 0-4.67z"/><path d="m60.27 65.21c0-1.5 0-3 0-4.5 0-.47.16-.65.65-.64 1.1 0 1-.06 1 1v7.29c0 .66 0 .66.69.66h5c.6 0 .6 0 .63.74 0 .46-.07.71-.63.7-2.21 0-4.42 0-6.63 0-.61 0-.65 0-.65-.67-.07-1.54-.06-3.06-.06-4.58z"/><path d="m24.91 65.21c0-1.52 0-3 0-4.55 0-.44.14-.6.58-.59 1.15 0 1.06-.11 1.06 1.07v8.59c0 .69 0 .71-.7.71h-.36c-.44 0-.59-.14-.58-.58.01-1.55 0-3.1 0-4.65z"/><path d="m75.17 17.91a2.23 2.23 0 0 1 -2.17 2.34 2.43 2.43 0 0 1 -2.29-2.43 2.24 2.24 0 1 1 4.48.09z"/><path d="m110.2 60.07a1.48 1.48 0 0 1 1.5 1.45 1.45 1.45 0 0 1 -1.45 1.48 1.44 1.44 0 1 1 0-2.88zm.68 2.25a1.09 1.09 0 0 0 0-1.61 1 1 0 0 0 -1.38 0 1.12 1.12 0 0 0 -.14 1.51 1 1 0 0 0 1.48.12z"/><path d="m110.88 62.32a.44.44 0 0 1 -.46-.31c0-.09-.07-.21-.19-.21s-.15.11-.17.2-.07.28-.25.26-.16-.19-.17-.32v-.5c0-.62.36-.85.94-.62.15.07.32.2.26.33-.2.41.08.78 0 1.17z"/></g></svg>