<svg width="95px" height="32px" xmlns="http://www.w3.org/2000/svg" viewBox="0 0 123.49 20.89"><defs><style>.cls-1{fill:#d8d6d6;}</style></defs><g id="Layer_2" data-name="Layer 2"><g id="Layer_2-2" data-name="Layer 2"><g id="sony"><path class="cls-1" d="M13.09,20.89,12,20.81a23.11,23.11,0,0,1-6.46-1.4,7.87,7.87,0,0,0-1.83-.55.63.63,0,0,0-.82.51,1.71,1.71,0,0,0-.09.55c0,.16,0,.25-.23.25-.66,0-1.32,0-2,0-.21,0-.23-.12-.23-.28V13.45c0-.35,0-.35.36-.35H2.54c.15,0,.26,0,.3.19a5.07,5.07,0,0,0,2.58,3.15A13.11,13.11,0,0,0,9.8,18a17.84,17.84,0,0,0,4.25.26,13.15,13.15,0,0,0,4.12-.79,3.37,3.37,0,0,0,1.17-.72,1.56,1.56,0,0,0-.27-2.52,5.16,5.16,0,0,0-1.87-.62c-1.22-.22-2.46-.31-3.69-.48C11,12.72,8.4,12.57,5.89,12a11.73,11.73,0,0,1-3.56-1.39A4.57,4.57,0,0,1,0,6.21a5.17,5.17,0,0,1,2.2-4A10.92,10.92,0,0,1,6.62.38a20.54,20.54,0,0,1,5-.36,25.25,25.25,0,0,1,8.19,1.69,8.68,8.68,0,0,0,1,.33.63.63,0,0,0,.87-.53c.05-.17,0-.41.12-.52s.41-.06.62-.06c.49,0,1,0,1.47,0,.2,0,.28.07.28.28,0,1.92,0,3.85,0,5.77,0,.21-.07.29-.28.29H21.9a.27.27,0,0,1-.29-.21,5.23,5.23,0,0,0-2.88-2.92A13.43,13.43,0,0,0,14.56,3a24.64,24.64,0,0,0-4.2-.21,9.15,9.15,0,0,0-3.69.74A2.28,2.28,0,0,0,5.5,4.63a1.17,1.17,0,0,0,.4,1.55,3.94,3.94,0,0,0,1.36.59,23.21,23.21,0,0,0,3.2.53l4.39.51c1.19.13,2.37.25,3.55.45a11.88,11.88,0,0,1,4.25,1.39,5,5,0,0,1,2.46,3.9c.3,2.59-.92,4.33-3.07,5.57a13.61,13.61,0,0,1-4.81,1.57c-.56.09-1.12.14-1.69.2Z"/><path class="cls-1" d="M42.7,20.89c-.5,0-1-.08-1.51-.14a16,16,0,0,1-7.9-2.94,9,9,0,0,1-3.58-5.29A8.65,8.65,0,0,1,31.9,4.37,13,13,0,0,1,38.17.76,20.11,20.11,0,0,1,42.66.05a21.07,21.07,0,0,1,8.12,1,12.52,12.52,0,0,1,5,3.07A8.7,8.7,0,0,1,58.39,11a8.65,8.65,0,0,1-2.29,5.4,13,13,0,0,1-6.35,3.73,18.79,18.79,0,0,1-4.46.72,1.08,1.08,0,0,0-.19,0Zm1-18A9.14,9.14,0,0,0,42,3a7.55,7.55,0,0,0-5.19,3.37,7.43,7.43,0,0,0-1,5.26A7,7,0,0,0,40,17.25a9.6,9.6,0,0,0,6.23.56A7.36,7.36,0,0,0,50.71,15,7.49,7.49,0,0,0,52,8.92,7,7,0,0,0,48.5,4,9.15,9.15,0,0,0,43.75,2.85Z"/><path class="cls-1" d="M123.49,3.59c-.75,0-1.5,0-2.24,0a3.08,3.08,0,0,0-2.37,1l-7.25,7.71a.63.63,0,0,0-.19.47c0,1.17,0,2.34,0,3.51,0,.71.29,1,1,1h2.45c.22,0,.33.05.32.29,0,.62,0,1.23,0,1.84,0,.22-.07.29-.29.29h-13c-.21,0-.31-.06-.3-.28,0-.61,0-1.22,0-1.84,0-.23.09-.31.32-.3h2.48c.69,0,1-.28,1-1,0-1.11,0-2.21,0-3.32a.56.56,0,0,0-.15-.41q-3.7-3.94-7.38-7.91a3.3,3.3,0,0,0-2.63-1.12c-.58,0-1.17,0-1.76,0-.22,0-.32-.07-.31-.31q0-.9,0-1.8c0-.25.08-.32.32-.32,1.88,0,3.75,0,5.63,0h7.52c.37,0,.37,0,.37.37,0,.58,0,1.16,0,1.73,0,.24-.07.34-.32.33s-.77,0-1.15,0a.53.53,0,0,0-.56.32.56.56,0,0,0,.16.65l4.3,4.58c.14.15.21.14.33,0,1.25-1.33,2.51-2.66,3.76-4l.57-.6a.55.55,0,0,0-.41-.95c-.39,0-.78,0-1.17,0-.21,0-.31-.07-.3-.29,0-.62,0-1.24,0-1.86,0-.19,0-.28.25-.28h11Z"/><path class="cls-1" d="M68.44,6.76v9.46a1.8,1.8,0,0,0,0,.4.76.76,0,0,0,.83.69h2.53c.39,0,.39,0,.39.38,0,.58,0,1.16,0,1.73,0,.23-.06.32-.3.32H61c-.22,0-.31-.06-.31-.28q0-.93,0-1.86c0-.21.08-.29.29-.28h2.51c.7,0,1-.28,1-1V4.59c0-.71-.28-1-1-1s-1.64,0-2.45,0c-.25,0-.36-.07-.35-.33,0-.59,0-1.19,0-1.78,0-.25.08-.32.33-.32,3,0,6,0,9,0a.68.68,0,0,1,.48.18l4.2,3.59L83.07,12l.34.3c.11.08.16.06.16-.08V4.46a.78.78,0,0,0-.86-.86c-.84,0-1.67,0-2.51,0-.37,0-.38,0-.38-.37,0-.59,0-1.17,0-1.76,0-.24.08-.3.31-.3H91c.22,0,.29.07.29.29q0,.93,0,1.86c0,.22-.08.28-.28.28q-1.25,0-2.49,0c-.72,0-1,.25-1,1,0,4.91,0,9.81,0,14.72,0,.44,0,.44-.43.44H83.9a.65.65,0,0,1-.46-.16L70,8.1Z"/></g></g></g></svg>