<svg width="95px" height="32px" xmlns="http://www.w3.org/2000/svg" viewBox="0 0 129.15 43.47"><defs><style>.cls-1{fill:#d8d6d6;}</style></defs><g id="Layer_2" data-name="Layer 2"><g id="Layer_2-2" data-name="Layer 2"><g id="texas-instruments"><path class="cls-1" d="M7.57,5.81c0-1.72,0-3.44,0-5.16,0-.6,0-.65.62-.65h6.59c.27,0,.38.15.38.41s0,.74,0,1.11c0,.8,0,1.6,0,2.4a1.41,1.41,0,0,0,1,1.48c.35.13.69.27,1,.39a.32.32,0,0,1,.24.41c-.2,1-.39,2.05-.59,3.08-.05.25-.22.33-.46.33H14.55c-.59,0-.59,0-.69.56s-.23,1.18-.33,1.77-.08.6.52.61h1.49c.62,0,.66.06.55.69-.18,1-.37,2-.55,3-.08.43-.18.87-.24,1.31a3.54,3.54,0,0,0,.23,2,2.72,2.72,0,0,0,2.39,1.76,6.79,6.79,0,0,0,3.4-.68.4.4,0,0,0,.26-.31c.07-.36.15-.73.2-1.1s0-.34-.31-.34l-.21,0a.78.78,0,0,1-.88-.84,3.09,3.09,0,0,1,.07-.74c.26-1.41.53-2.82.81-4.22.1-.52.14-.55.65-.56H23a.43.43,0,0,0,.51-.41c.12-.69.27-1.39.39-2.09.07-.42,0-.43-.41-.44H22.3c-.26,0-.36-.13-.31-.37l.54-2.82c0-.28.26-.35.49-.4A8.37,8.37,0,0,1,26.4,6a8.49,8.49,0,0,1,2,.61c.6.28.66.37.58,1A8.25,8.25,0,0,0,29,10a3,3,0,0,0,1.42,2.26.68.68,0,0,1,.32.57,14.8,14.8,0,0,1-.38,5,.7.7,0,0,1-.52.53,23.55,23.55,0,0,0-3.24,1.35,11.47,11.47,0,0,0-2.37,1.6,5.09,5.09,0,0,0-1.9,4,5.91,5.91,0,0,0,.64,2.46,5.21,5.21,0,0,0,.24.47c.14.23,0,.36-.17.45a4.17,4.17,0,0,1-1.39.34,5.68,5.68,0,0,1-3.73-1.14,12.63,12.63,0,0,1-3.33-3.76,24.91,24.91,0,0,1-2.17-4.43.82.82,0,0,0-.83-.65,4.94,4.94,0,0,1-1.15-.19.83.83,0,0,0-.83.23,8.51,8.51,0,0,0-1,1.17.87.87,0,0,1-1,.39,3.64,3.64,0,0,1-2.94-2.08,16.22,16.22,0,0,0-1-2A3.47,3.47,0,0,0,2,15.14a3.27,3.27,0,0,1-2-2.85c-.07-.57.07-.69.64-.69H7.1c.4,0,.46-.07.46-.48,0-.83,0-1.66,0-2.5Z"/><path class="cls-1" d="M70.6,27.18a1.26,1.26,0,0,0,.28-.49q2.1-4.43,4.18-8.85a.74.74,0,0,1,.76-.51c1.42,0,1.15-.17,1.71,1.09l3.84,8.76a1.15,1.15,0,0,0,.43.59.17.17,0,0,0,.2,0,.16.16,0,0,0,.06-.19l-.12-.4c-.25-.8-.51-1.59-.74-2.39-.07-.23-.31-.55,0-.72s.41.21.57.38A8.42,8.42,0,0,0,86.2,27,5.65,5.65,0,0,0,88.88,27a1.39,1.39,0,0,0,.19-2.61,6.85,6.85,0,0,0-1.78-.51c-.94-.16-1.89-.29-2.82-.53a6,6,0,0,1-1.24-.47,2.4,2.4,0,0,1-1.34-2.3,3,3,0,0,1,2-2.84,6.92,6.92,0,0,1,3.34-.36,9,9,0,0,1,2.28.51.82.82,0,0,0,1.11-.32c.19-.29.4-.26.54.07s.25.7.37,1.05l.57,1.72a1.89,1.89,0,0,1,.1.41.21.21,0,0,1-.36.2,7.15,7.15,0,0,1-.7-.56,9.51,9.51,0,0,0-2.59-1.65,5.42,5.42,0,0,0-3.28-.24,3,3,0,0,0-.5.17,1.07,1.07,0,0,0-.77.93,1.27,1.27,0,0,0,.7,1.22,4.21,4.21,0,0,0,1.43.38,31.39,31.39,0,0,1,3.2.53,6.06,6.06,0,0,1,1.49.55,2.48,2.48,0,0,1,1.3,1.73,4.13,4.13,0,0,1,.1,1.31,3,3,0,0,1-1.79,2.29,6.4,6.4,0,0,1-3.87.63c-.86-.11-1.72-.27-2.57-.45-.45-.1-.88-.14-1.18.33a.47.47,0,0,1-.43.16H77.82c-.09,0-.18,0-.21-.13s.06-.16.14-.2c.87-.52.9-.6.51-1.55-.14-.37-.29-.73-.44-1.09a.63.63,0,0,0-.65-.43H73.82a.66.66,0,0,0-.69.46c-.22.52-.46,1-.68,1.56a.65.65,0,0,0,.35,1c.12.07.36.07.3.28s-.26.14-.41.14h-5.9c-.13,0-.28,0-.3-.16s.11-.16.21-.21c.87-.43.91-.61.37-1.39s-.91-1.31-1.36-2c-.22-.3-.26-.31-.5,0-.6.75-1.2,1.5-1.78,2.26-.39.49-.31.79.26,1.09a1.63,1.63,0,0,1,.19.09c.06,0,.11.1.08.17a.18.18,0,0,1-.11.1,1.12,1.12,0,0,1-.32,0H60.29l-.26,0a.17.17,0,0,1-.16-.12A.15.15,0,0,1,60,28c.62-.11.94-.6,1.29-1l2.87-3.63c.36-.46.36-.47,0-1l-2.43-3.55a2.33,2.33,0,0,0-1.61-1.11.59.59,0,0,1-.2-.05c-.12-.08-.11-.17,0-.25a.64.64,0,0,1,.36-.06H65c.14,0,.33,0,.36.16s-.17.18-.29.23c-.49.22-.61.52-.33,1,.39.61.81,1.21,1.23,1.8.17.24.24.24.45,0,.46-.56.92-1.12,1.36-1.7s.28-.83-.3-1.07a.29.29,0,0,0-.1,0c-.09,0-.17-.08-.15-.18a.2.2,0,0,1,.2-.15,1.67,1.67,0,0,1,.32,0c1.17,0,2.34,0,3.5,0,.19,0,.49-.05.51.17s-.28.2-.45.23a2.1,2.1,0,0,0-1.23.78c-.89,1.11-1.78,2.21-2.66,3.32-.28.34-.28.37-.06.69l3.09,4.52A.23.23,0,0,0,70.6,27.18Zm4.9-3.68h0c.37,0,.74,0,1.11,0s.42-.1.3-.47a2.34,2.34,0,0,0-.09-.24l-.95-2.42c0-.11-.07-.25-.21-.27s-.21.11-.26.22c-.42.94-.84,1.87-1.25,2.81-.11.26-.05.36.24.37S75.13,23.5,75.5,23.5Z"/><path class="cls-1" d="M30,34c.2-.49.43-1,.6-1.46a.7.7,0,0,1,.79-.53q4.44,0,8.88,0a.71.71,0,0,1,.79.53c.2.56.45,1.11.68,1.67a3.62,3.62,0,0,1,.13.35.22.22,0,0,1-.06.24.2.2,0,0,1-.25,0c-.09-.1-.19-.2-.28-.31a2.27,2.27,0,0,0-2-1c-.46,0-.93,0-1.39,0-.62,0-.81.2-.82.84s0,1.38,0,2.07V41c0,1,.22,1.29,1.12,1.62.1,0,.23.05.23.19s-.16.17-.28.18H33.29c-.14,0-.32,0-.35-.16s.18-.19.3-.23a1.3,1.3,0,0,0,1-1.44v-6.8a2.42,2.42,0,0,0,0-.38.58.58,0,0,0-.59-.56,8.77,8.77,0,0,0-1.7,0,2.27,2.27,0,0,0-1.56,1,.67.67,0,0,0-.08.61,2.59,2.59,0,0,1,.15.61c0,.23-.14.34-.34.22a4.43,4.43,0,0,1-.54-.43A10.41,10.41,0,0,0,27,33.77a5.35,5.35,0,0,0-3.48-.32,2.55,2.55,0,0,0-.55.19,1.14,1.14,0,0,0-.15,2,3.3,3.3,0,0,0,1.41.45c1.08.15,2.17.28,3.24.53a6,6,0,0,1,1.74.65,2.27,2.27,0,0,1,1.05,1.29A2.9,2.9,0,0,1,29,42.37a6.27,6.27,0,0,1-4.25.81c-.82-.11-1.64-.27-2.46-.43-.47-.09-.89-.16-1.23.31-.15.22-.35.18-.51-.07a1.88,1.88,0,0,1-.16-.39c-.32-1-.64-2-.95-3,0,0,0,0,0-.05,0-.19-.17-.41.06-.53s.34.13.46.27a8.53,8.53,0,0,0,4.33,2.66,5.43,5.43,0,0,0,2.83,0,1.39,1.39,0,0,0,.28-2.62,6.57,6.57,0,0,0-1.89-.53c-.94-.16-1.89-.29-2.81-.54a5.14,5.14,0,0,1-1.32-.56,2.45,2.45,0,0,1-1.12-2.75,3,3,0,0,1,1.93-2.29,6.67,6.67,0,0,1,3.19-.36,9.76,9.76,0,0,1,2.44.53.8.8,0,0,0,1.06-.3c.22-.32.42-.29.56.08s.33.93.49,1.4Z"/><path class="cls-1" d="M69.45,36.24c-.11.12-.06.25-.06.37,0,1.5,0,3,0,4.51a1.32,1.32,0,0,0,1,1.48l.2.07a.3.3,0,0,1,.09.13.14.14,0,0,1-.12.15,1.47,1.47,0,0,1-.36,0H66.66c-.11,0-.22,0-.22-.18s.09-.14.18-.17l.3-.1a1.25,1.25,0,0,0,.83-1.19V34.06c0-1.09-.12-1.28-1.13-1.7-.09,0-.18-.07-.18-.17s.11-.17.22-.18h.42c.75,0,1.49,0,2.24,0a1,1,0,0,1,1,.56c.9,1.49,1.82,3,2.73,4.44l1,1.67a1.2,1.2,0,0,0,.35.46c.2-.1.25-.3.35-.46,1.24-2,2.48-4.09,3.7-6.15a.87.87,0,0,1,.89-.51c.72,0,1.45,0,2.18,0h.26c.12,0,.28,0,.29.17s-.15.17-.26.21a1.31,1.31,0,0,0-1,1.51v7.17a1.33,1.33,0,0,0,1.07,1.55.29.29,0,0,0,.1,0c.09,0,.17.09.14.19s-.11.14-.2.15H77.25c-.17,0-.42,0-.46-.16s.23-.2.38-.26a1.24,1.24,0,0,0,.9-1.19c0-1.59,0-3.19,0-4.78a.39.39,0,0,0,0-.14c-.17,0-.2.2-.27.31Q76,39.58,74.32,42.4c-.44.72-.58.73-1,0-1.18-1.91-2.35-3.83-3.53-5.75A1.12,1.12,0,0,0,69.45,36.24Z"/><path class="cls-1" d="M49.39,38.29a7.85,7.85,0,0,1,3,2.58,2.23,2.23,0,0,0,2.24,1l.16,0a.17.17,0,0,1,.19,0c.06.09,0,.17,0,.24a2.87,2.87,0,0,1-3.76.76,6.64,6.64,0,0,1-2-1.93c-.41-.6-.8-1.21-1.24-1.8a2.2,2.2,0,0,0-1.37-1,4.27,4.27,0,0,0-1,0c-.32,0-.46.15-.47.47,0,.95,0,1.91,0,2.87a1.21,1.21,0,0,0,1,1.12c.14,0,.38,0,.33.25s-.25.15-.41.15H41.56c-.11,0-.22,0-.23-.18s.1-.14.18-.17a3.25,3.25,0,0,0,.4-.15,1.22,1.22,0,0,0,.73-1.09c0-.35,0-.71,0-1.06V34c0-1-.18-1.26-1.1-1.63-.1,0-.23-.07-.22-.2s.13-.15.24-.16L42,32c2.34,0,4.67,0,7,0a6.06,6.06,0,0,1,2,.33,3.1,3.1,0,0,1,1.76,4.27,2.38,2.38,0,0,1-1.06,1.09,3.82,3.82,0,0,1-1.68.44C49.81,38.13,49.59,38.07,49.39,38.29Zm-2.15-1.52h0c.5,0,1,0,1.49,0A1.31,1.31,0,0,0,50,36a1.69,1.69,0,0,0-1.5-2.59c-.89,0-1.77,0-2.66,0-.51,0-.65.14-.66.67s0,1.35,0,2,.13.66.66.67Z"/><path class="cls-1" d="M124.41,43.24a18.26,18.26,0,0,1-3.46-.49l-.42-.07a.73.73,0,0,0-.71.26c-.3.37-.47.33-.68-.1a3.17,3.17,0,0,1-.14-.4c-.31-1-.61-1.93-.91-2.89a.43.43,0,0,0,0,0c0-.19-.17-.41.06-.53s.34.13.46.27A8.5,8.5,0,0,0,123,41.92a5.47,5.47,0,0,0,2.84,0,1.37,1.37,0,0,0,1.06-1.46,1.3,1.3,0,0,0-.86-1.17,8.28,8.28,0,0,0-1.89-.52c-.93-.16-1.86-.29-2.76-.53a5,5,0,0,1-1.37-.57,2.36,2.36,0,0,1-1.15-2.25A3,3,0,0,1,121,32.54a6.9,6.9,0,0,1,3-.3,9.3,9.3,0,0,1,2.38.52.86.86,0,0,0,1.16-.32c.19-.29.41-.25.53.09.35,1,.68,2,1,3,0,.14.07.29-.09.38s-.27,0-.38-.11l-.77-.65a7.49,7.49,0,0,0-3.45-1.79,4.7,4.7,0,0,0-2.57.19c-.45.18-.87.41-.88,1a1.25,1.25,0,0,0,.83,1.29,6.91,6.91,0,0,0,1.86.38,23.49,23.49,0,0,1,2.92.54,4.86,4.86,0,0,1,1.46.63,2.41,2.41,0,0,1,1,1.3,4,4,0,0,1,.16,1.58,2.67,2.67,0,0,1-1.26,1.94A5.71,5.71,0,0,1,124.41,43.24Z"/><path class="cls-1" d="M97.51,35.85a1,1,0,0,0-.08.53c0,1.57,0,3.15,0,4.73,0,.93.17,1.17,1,1.5a1.19,1.19,0,0,1,.2.08.14.14,0,0,1,0,.25.86.86,0,0,1-.42.05H95c-.11,0-.22,0-.22-.18s.09-.14.18-.17l.2-.06a1.25,1.25,0,0,0,.92-1.28c0-1.21,0-2.41,0-3.62,0-1,0-1.91,0-2.87a1,1,0,0,0-.32-.8,6.47,6.47,0,0,0-2-1.66.16.16,0,0,1-.12-.2.19.19,0,0,1,.16-.12l.42,0c.89,0,1.77,0,2.66,0a1.21,1.21,0,0,1,1,.41q3,3.09,6.09,6.16a1.47,1.47,0,0,0,.42.37c.16-.09.12-.22.12-.34,0-1.58,0-3.15,0-4.73a1.35,1.35,0,0,0-1.09-1.49l-.15,0a.14.14,0,0,1-.1-.16.18.18,0,0,1,.14-.14l.21,0h3l.21,0a.17.17,0,0,1,.16.12c0,.11,0,.16-.14.2l-.1,0c-.89.35-1.06.59-1.06,1.54q0,4.4,0,8.77c0,.27.13.65-.18.76s-.43-.25-.61-.43q-3.36-3.36-6.71-6.74A1.49,1.49,0,0,0,97.51,35.85Z"/><path class="cls-1" d="M9.68,35.76a.8.8,0,0,0-.07.43v4.94a1.29,1.29,0,0,0,1,1.47l.11,0c.08,0,.17.06.17.17s-.12.16-.23.18H7.23c-.12,0-.28,0-.29-.17s.14-.18.26-.21a1.38,1.38,0,0,0,1.09-1.55c0-2.07,0-4.15,0-6.22a1,1,0,0,0-.3-.76c-.4-.38-.78-.77-1.17-1.15a2.71,2.71,0,0,0-.89-.57c-.09,0-.18-.07-.17-.18S5.88,32,6,32h.37c.89,0,1.78,0,2.66,0a1.16,1.16,0,0,1,.93.4q3,3.06,6.08,6.1a1.36,1.36,0,0,0,.48.41c.15-.1.09-.26.09-.39,0-1.56,0-3.12,0-4.68a1.32,1.32,0,0,0-1-1.44,1.06,1.06,0,0,1-.25-.09c-.11-.09-.08-.2,0-.25a1.08,1.08,0,0,1,.36,0c.94,0,1.88,0,2.82,0a.34.34,0,0,1,.1,0c.14,0,.33,0,.35.16s-.18.18-.3.23a1.29,1.29,0,0,0-1,1.44v8.93c0,.23.11.56-.14.68s-.42-.2-.59-.36l-6.18-6.21A10.57,10.57,0,0,0,9.68,35.76Z"/><path class="cls-1" d="M53.6,28.33H49.13c-.19,0-.49.11-.53-.17s.26-.18.41-.24a1.32,1.32,0,0,0,.87-1.33V22.23c0-1,0-2,0-3a1.33,1.33,0,0,0-1-1.52,1.19,1.19,0,0,1-.2-.08c-.12-.08-.11-.17,0-.24a.73.73,0,0,1,.41-.07h8.72a.62.62,0,0,1,.68.45c.24.63.51,1.24.77,1.87a1.49,1.49,0,0,1,.09.3.17.17,0,0,1-.3.16,1.6,1.6,0,0,1-.25-.27,2.51,2.51,0,0,0-2.28-1.1c-1,0-2,0-2.93,0-.65,0-.86.2-.87.85s0,1.07,0,1.6.1.6.58.61,1.17,0,1.76,0a.92.92,0,0,0,1-.69c0-.1.07-.23.2-.21s.17.16.17.28V23.9a.78.78,0,0,1,0,.16.17.17,0,0,1-.14.14.16.16,0,0,1-.17-.11c-.2-.81-.85-.85-1.5-.86-.41,0-.82,0-1.23,0s-.64.15-.65.63q0,1.14,0,2.28c0,.56.22.77.78.78,1.19,0,2.38,0,3.56,0a2.38,2.38,0,0,0,2.05-1c.12-.16.24-.45.48-.32s0,.39,0,.57c-.22.58-.48,1.14-.7,1.72a.66.66,0,0,1-.72.48C56.61,28.32,55.1,28.33,53.6,28.33Z"/><path class="cls-1" d="M88,43H83.43c-.15,0-.37,0-.4-.16s.2-.19.34-.25a1.28,1.28,0,0,0,1-1.42c0-2.44,0-4.89,0-7.33a1.29,1.29,0,0,0-1-1.44l-.21-.07a.13.13,0,0,1-.1-.16.16.16,0,0,1,.15-.13,1.63,1.63,0,0,1,.31,0h8.78a.63.63,0,0,1,.67.46c.25.65.53,1.28.79,1.92a.88.88,0,0,1,0,.15c0,.11,0,.22-.08.28a.2.2,0,0,1-.24-.07,2.67,2.67,0,0,1-.31-.36,2.33,2.33,0,0,0-2-1c-1.06,0-2.12,0-3.19,0-.6,0-.8.2-.82.79s0,1.13,0,1.7.12.56.58.57h1.7a1,1,0,0,0,1.07-.71c0-.1.07-.22.2-.2s.15.15.16.26c0,.69,0,1.38,0,2.07,0,.25,0,.49,0,.74,0,.09,0,.19-.13.21a.15.15,0,0,1-.19-.13c-.19-.71-.74-.83-1.37-.82s-1,0-1.49,0-.51.13-.52.52c0,.81,0,1.63,0,2.44,0,.5.23.7.73.71h3.77a2.22,2.22,0,0,0,1.75-.87c.14-.16.28-.32.43-.47a.15.15,0,0,1,.19,0,.18.18,0,0,1,.09.18c0,.12-.07.24-.12.36-.25.6-.51,1.2-.74,1.82a.62.62,0,0,1-.68.45Z"/><path class="cls-1" d="M45.14,21.07v5.26c0,1,.16,1.23,1.11,1.62.1.05.22.08.2.21s-.13.15-.24.15H41.59c-.13,0-.28,0-.3-.17s.15-.16.27-.21a1.35,1.35,0,0,0,1.08-1.54V15.61a2.42,2.42,0,0,0,0-.47A.62.62,0,0,0,42,14.6c-.76,0-1.52,0-2.28,0a2.89,2.89,0,0,0-1.36.58,5.78,5.78,0,0,0-1,.81,2.87,2.87,0,0,1-.31.29.24.24,0,0,1-.29.06c-.14-.09-.1-.21-.06-.33a2.59,2.59,0,0,1,.14-.29c.38-.72.77-1.44,1.13-2.16a.65.65,0,0,1,.66-.42H49.14a.65.65,0,0,1,.66.41c.39.77.81,1.53,1.21,2.3a1.22,1.22,0,0,1,.1.24.21.21,0,0,1-.08.24.2.2,0,0,1-.25,0,2.7,2.7,0,0,1-.31-.28,6.83,6.83,0,0,0-1.11-.9,3.07,3.07,0,0,0-1.9-.57c-.5,0-1,0-1.49,0s-.82.21-.82.84c0,1.88,0,3.76,0,5.64Z"/><path class="cls-1" d="M63.2,36.54V33.88c0-.91-.19-1.18-1-1.5a.67.67,0,0,1-.15-.06.15.15,0,0,1-.11-.16.18.18,0,0,1,.15-.14l.37,0h3c.16,0,.38,0,.41.16s-.2.19-.34.24a1.24,1.24,0,0,0-.94,1.37c0,1.73,0,3.47,0,5.21a3.61,3.61,0,0,1-2.18,3.47,5.54,5.54,0,0,1-1.94.52,7.5,7.5,0,0,1-3.15-.39,3.3,3.3,0,0,1-2.41-3.37c0-1.58,0-3.15,0-4.73v-.74a1.3,1.3,0,0,0-1-1.35l-.2,0c-.07,0-.13-.07-.13-.16a.18.18,0,0,1,.18-.16,2.3,2.3,0,0,1,.37,0h3.77l.32,0c.11,0,.22,0,.23.17s-.09.14-.18.17l-.3.1a1.19,1.19,0,0,0-.82,1.18c0,.27,0,.53,0,.8,0,1.58,0,3.15,0,4.73a2.2,2.2,0,0,0,2.37,2.55,5.9,5.9,0,0,0,1.83-.16,2.42,2.42,0,0,0,1.87-2.46Z"/><path class="cls-1" d="M112.62,32H117c.64,0,.64,0,.89.6l.67,1.62c0,.12.09.23.12.35a.18.18,0,0,1-.09.23.18.18,0,0,1-.2,0,4.4,4.4,0,0,1-.35-.39,2.32,2.32,0,0,0-2-1c-.5,0-1,0-1.49,0s-.71.21-.73.72,0,1.17,0,1.76c0,1.73,0,3.47,0,5.21a1.31,1.31,0,0,0,1,1.51.5.5,0,0,1,.2.08c.11.08.09.18,0,.25a.86.86,0,0,1-.42.05H110c-.13,0-.28,0-.29-.17s.15-.17.26-.21A1.35,1.35,0,0,0,111,41.06c0-2.21,0-4.43,0-6.64a2.58,2.58,0,0,0,0-.48.57.57,0,0,0-.63-.52c-.53,0-1.07,0-1.6,0a2.09,2.09,0,0,0-1.48.84c-.12.15-.24.31-.37.45a.19.19,0,0,1-.24.06.17.17,0,0,1-.09-.22,2.81,2.81,0,0,1,.1-.31c.24-.59.5-1.17.72-1.77a.69.69,0,0,1,.76-.5C109.64,32,111.13,32,112.62,32Z"/><path class="cls-1" d="M3.21,43H1.3L.87,43c-.1,0-.22,0-.22-.18s.09-.14.17-.17a2.37,2.37,0,0,0,.4-.15,1.18,1.18,0,0,0,.72-1.09c0-.14,0-.28,0-.42V29.8A1.22,1.22,0,0,0,1,28.53c-.14-.05-.38,0-.36-.24s.27-.19.43-.19c1.42,0,2.84,0,4.25,0H5.4c.15,0,.37,0,.39.18s-.21.19-.34.25a1.2,1.2,0,0,0-.94,1.31q0,5.72,0,11.43a1.21,1.21,0,0,0,.91,1.28c.14.06.43,0,.38.27s-.29.16-.46.16Z"/><path class="cls-1" d="M17.84,17.7c-.38,0-.77,0-1.16,0-.58,0-.61,0-.5-.62.17-.95.35-1.91.53-2.87.38-2.05.77-4.1,1.15-6.16L18,7.64a.35.35,0,0,1,.38-.3h2.82c.33,0,.4.1.34.44-.17.91-.34,1.81-.52,2.72l-1.26,6.57c0,.1-.05.2-.07.31a.37.37,0,0,1-.41.32Z"/><path class="cls-1" d="M19.93,3.59a1.64,1.64,0,0,1,1.65,1.6,1.64,1.64,0,1,1-3.28,0A1.6,1.6,0,0,1,19.93,3.59Z"/></g></g></g></svg>