<svg width="95px" height="32px" xmlns="http://www.w3.org/2000/svg" viewBox="0 0 129.55 19.74"><defs><style>.cls-1{fill:#d8d6d6;}</style></defs><g id="Layer_2" data-name="Layer 2"><g id="Layer_2-2" data-name="Layer 2"><g id="toshiba"><path class="cls-1" d="M29.52,0l.91.07a10.31,10.31,0,0,1,3.38.75A4.74,4.74,0,0,1,36.53,4.1a12.58,12.58,0,0,1,.38,2.52C37,8.36,37,10.1,37,11.84a15.16,15.16,0,0,1-.39,3.62,5,5,0,0,1-1.74,2.83,6.15,6.15,0,0,1-2.63,1.11,22.72,22.72,0,0,1-4.8.33,18.41,18.41,0,0,1-3.92-.37,6.33,6.33,0,0,1-2.26-.93,4.91,4.91,0,0,1-1.89-2.86,11.42,11.42,0,0,1-.37-2.4c-.1-1.63-.11-3.26-.07-4.9a17,17,0,0,1,.43-4.08A5.38,5.38,0,0,1,20.48,2,5,5,0,0,1,22.4.68,11.15,11.15,0,0,1,25.48.07L26.39,0Zm2,9.87c0-.78,0-1.57-.05-2.35A5.77,5.77,0,0,0,31.19,6a2,2,0,0,0-1.52-1.39,9.4,9.4,0,0,0-3-.08,2.15,2.15,0,0,0-2,1.72,9.16,9.16,0,0,0-.24,2.28c0,1.1,0,2.2,0,3.31a8.48,8.48,0,0,0,.17,1.41,2.18,2.18,0,0,0,1.91,1.86,9.36,9.36,0,0,0,3.08,0,2,2,0,0,0,1.58-1.27,4.45,4.45,0,0,0,.29-1.26A24.36,24.36,0,0,0,31.52,9.87Z"/><path class="cls-1" d="M49.8,0l.91.07a13.88,13.88,0,0,1,2.4.34A3.83,3.83,0,0,1,56,3.46a11.19,11.19,0,0,1,.21,2.71c0,.13-.06.18-.18.18H51.36c-.2,0-.27-.06-.27-.27A3.05,3.05,0,0,0,51,5.56a1.43,1.43,0,0,0-1.22-1.28,7.84,7.84,0,0,0-3.09,0,1.46,1.46,0,0,0-1.25,1.87,1.41,1.41,0,0,0,1.4,1.38c.54.08,1.09.09,1.64.12a27.47,27.47,0,0,1,4.62.53,4.21,4.21,0,0,1,3.44,3.53A10.41,10.41,0,0,1,56.49,16a4.12,4.12,0,0,1-2.19,2.76,7.85,7.85,0,0,1-2.76.77,27.42,27.42,0,0,1-4.25.16,17.19,17.19,0,0,1-4.1-.52,3.87,3.87,0,0,1-3-3.29,17.64,17.64,0,0,1-.16-2.62c0-.14,0-.2.2-.2h4.78c.15,0,.2.06.21.21a5.34,5.34,0,0,0,.05.69,1.5,1.5,0,0,0,1.42,1.39,9.7,9.7,0,0,0,3.18,0,1.72,1.72,0,0,0,1.16-2.65,1.59,1.59,0,0,0-1-.65,5.59,5.59,0,0,0-1.22-.16c-1.22-.06-2.43-.12-3.63-.26a7.8,7.8,0,0,1-2.88-.81,3.81,3.81,0,0,1-1.9-2.45,9.12,9.12,0,0,1-.26-2.94,8.71,8.71,0,0,1,.28-1.83A4.55,4.55,0,0,1,44,.36,14.86,14.86,0,0,1,46.69,0,.61.61,0,0,0,47,0Z"/><path class="cls-1" d="M0,.33H16.94c.12,0,.18,0,.18.18,0,1.48,0,3,0,4.43,0,.2-.12.2-.26.2H11.69c-.27,0-.28,0-.28.28V19.23c0,.12-.05.17-.17.17H6c-.3,0-.3,0-.3-.31V5.45c0-.32,0-.32-.34-.32H0Z"/><path class="cls-1" d="M105.41,9.44c.31.13.61.21.9.34a3.71,3.71,0,0,1,2.27,3,7.88,7.88,0,0,1,0,3.06,4.06,4.06,0,0,1-2.73,3.08,7.71,7.71,0,0,1-2.51.48c-3.62.09-7.25,0-10.87,0-.2,0-.24-.08-.24-.25,0-.64,0-1.28,0-1.92V.67c0-.35,0-.35.34-.35h5.83c1.36,0,2.73,0,4.09,0a10.57,10.57,0,0,1,3,.42,3.87,3.87,0,0,1,2.79,3.39,7.78,7.78,0,0,1,0,2.36,3.43,3.43,0,0,1-2.46,2.79A1.25,1.25,0,0,0,105.41,9.44Zm-5.66,2.15H97.86c-.19,0-.24.06-.24.24,0,1,0,1.93,0,2.89,0,.27,0,.27.27.27h3.4a3.27,3.27,0,0,0,.54,0,1.43,1.43,0,0,0,1.23-1.15,3.07,3.07,0,0,0,0-1.09,1.2,1.2,0,0,0-1-1.05,2.7,2.7,0,0,0-.63-.07Zm-.08-6.86H97.82c-.14,0-.2,0-.2.19,0,.9,0,1.8,0,2.7,0,.12,0,.19.17.18,1.27,0,2.53,0,3.79,0a1.31,1.31,0,0,0,1.24-1,2.15,2.15,0,0,0,0-.91,1.19,1.19,0,0,0-1-1,2.25,2.25,0,0,0-.52-.07Z"/><path class="cls-1" d="M60.26,9.86q0-4.6,0-9.19c0-.35,0-.35.34-.35h4.8c.28,0,.29,0,.29.28V7c0,.28,0,.28.27.28h5.66c.27,0,.28,0,.28-.27V.62c0-.3,0-.3.28-.3h4.87c.26,0,.27,0,.27.28V19.11c0,.28,0,.29-.28.29H72.2c-.29,0-.29,0-.29-.29V12.36c0-.29,0-.29-.28-.29H66c-.27,0-.27,0-.27.28v6.74c0,.31,0,.31-.31.31H60.58c-.31,0-.31,0-.31-.32C60.26,16,60.26,12.93,60.26,9.86Z"/><path class="cls-1" d="M119.81.32h3.71a.29.29,0,0,1,.35.25q2,6.72,4.07,13.42l1.56,5.13c.08.27.08.28-.19.28H124.2c-.2,0-.29-.06-.34-.25-.29-1-.59-2-.88-3.07a.26.26,0,0,0-.3-.22h-5.76a.25.25,0,0,0-.29.21c-.29,1-.6,2.06-.89,3.09a.28.28,0,0,1-.32.24h-5.07c-.33,0-.33,0-.24-.32l2.67-8.76q1.47-4.87,3-9.74c.06-.2.15-.27.35-.26Zm0,4.8a1.2,1.2,0,0,0-.06.17c-.59,2-1.18,4.05-1.76,6.07-.06.21,0,.23.18.23h3.24c.27,0,.27,0,.2-.26-.33-1.12-.65-2.24-1-3.36Z"/><path class="cls-1" d="M87.44,9.86v9.23c0,.31,0,.31-.31.31H82.3c-.29,0-.3,0-.3-.29V.61c0-.29,0-.29.3-.29h4.83c.31,0,.31,0,.31.31Z"/></g></g></g></svg>