<svg width="95px" height="32px" xmlns="http://www.w3.org/2000/svg" viewBox="0 0 128.75 29.96"><defs><style>.cls-1{fill:#d8d6d6;}</style></defs><g id="Layer_2" data-name="Layer 2"><g id="Layer_2-2" data-name="Layer 2"><g id="vaio"><path class="cls-1" d="M77.08,27v2.45c0,.32,0,.34-.33.34A9.69,9.69,0,0,1,75,29.62a11.56,11.56,0,0,1-5.26-2.52,21.82,21.82,0,0,1-3.73-4,55.5,55.5,0,0,1-3.05-4.7c-1.16-2-2.27-4-3.48-5.94A30.53,30.53,0,0,0,57,9a11.82,11.82,0,0,0-2.61-2.43,5.29,5.29,0,0,0-5.68-.25,10,10,0,0,0-2.5,2.07,31.56,31.56,0,0,0-3.51,5c-1.29,2.13-2.48,4.32-3.79,6.44a37,37,0,0,1-3.54,5A17.5,17.5,0,0,1,32,27.89a11.08,11.08,0,0,1-11.62.54,15.5,15.5,0,0,1-4-3.24A37.07,37.07,0,0,1,12,19c-1.12-1.88-2.21-3.78-3.32-5.66A33.28,33.28,0,0,0,5.81,9.14,11.8,11.8,0,0,0,3.15,6.62a5.61,5.61,0,0,0-2.88-1C0,5.61,0,5.57,0,5.35v-5C0,0,0,0,.37,0A10.67,10.67,0,0,1,3,.41,12,12,0,0,1,7.46,2.85a21.88,21.88,0,0,1,3.81,4.23,65.44,65.44,0,0,1,3.52,5.63c1.16,2,2.28,4,3.56,5.92a19.58,19.58,0,0,0,2.88,3.53,7.61,7.61,0,0,0,2.57,1.69,5.33,5.33,0,0,0,4.65-.4,9.78,9.78,0,0,0,2.6-2.19,31.62,31.62,0,0,0,3.51-5c1-1.72,2-3.47,3-5.19a44.17,44.17,0,0,1,3.9-5.7A17.38,17.38,0,0,1,45.14,2,11,11,0,0,1,49.34.19,10.77,10.77,0,0,1,55.91,1a13.29,13.29,0,0,1,3.43,2.32A24.77,24.77,0,0,1,63,7.65c1.17,1.71,2.23,3.5,3.26,5.3s2.23,3.91,3.49,5.78a19.53,19.53,0,0,0,2.84,3.45,8.2,8.2,0,0,0,2,1.44,5.26,5.26,0,0,0,2.17.57c.28,0,.31,0,.31.32Z"/><path class="cls-1" d="M113.83.05A14.93,14.93,0,1,1,98.9,15,14.93,14.93,0,0,1,113.83.05Zm0,5.6a9.32,9.32,0,1,0,9.28,9.81A9.33,9.33,0,0,0,113.86,5.65Z"/><path class="cls-1" d="M84.82,18.19c0-3.74,0-7.49,0-11.23a8.64,8.64,0,0,1,2-5.57A6.87,6.87,0,0,1,88.17.12c.22-.15.25-.15.4.08l2.79,4.23c.12.19.12.2,0,.34a2.74,2.74,0,0,0-.82,1.64,4.9,4.9,0,0,0,0,.77V29.54c0,.41,0,.42-.41.42H85.09c-.22,0-.26,0-.27-.26V18.19Z"/><path class="cls-1" d="M47.24,20.15a4.13,4.13,0,0,1,8.26,0,4.13,4.13,0,1,1-8.26,0Z"/></g></g></g></svg>