<svg width="95px" height="32px" xmlns="http://www.w3.org/2000/svg" viewBox="0 0 128.37 24.12"><defs><style>.cls-1{fill:#d8d6d6;}</style></defs><g id="Layer_2" data-name="Layer 2"><g id="Layer_2-2" data-name="Layer 2"><g id="velocity"><path class="cls-1" d="M0,24.12l2.94-3.9q3-4,5.93-7.91a.34.34,0,0,0,0-.48C6.34,8.36,3.7,5,1.12,1.52L.22.29C.16.21.07.14.09,0S.3,0,.39.08L9.85,3.92l16.67,6.73,3.17,1.28c.09,0,.23.05.23.15s-.15.12-.24.16l-12,4.83L.35,24l-.23.1Z"/><path class="cls-1" d="M128.37,2.29c-1.33,2-2.62,4-4,6a3.94,3.94,0,0,0-.82,2.7c.07,1.12,0,2.24,0,3.36,0,.27-.09.35-.35.35H120c-.25,0-.33-.09-.33-.34,0-1.51,0-3,0-4.54a1,1,0,0,0-.18-.58C118,7,116.55,4.84,115.09,2.66l-.15-.21c-.1-.16-.06-.23.12-.23h1.1c.87,0,1.74,0,2.61,0a.57.57,0,0,1,.56.31c.7,1.19,1.42,2.36,2.13,3.54.16.27.17.27.33,0,.7-1.18,1.41-2.35,2.1-3.53a.59.59,0,0,1,.57-.33c1.3,0,2.61,0,3.91,0Z"/><path class="cls-1" d="M81.12,8.4a7.57,7.57,0,0,1-.53,3.09,5.34,5.34,0,0,1-4.43,3.27,9.57,9.57,0,0,1-3.54-.12,5.3,5.3,0,0,1-4.16-4.11,8.11,8.11,0,0,1,.06-4.37,5.28,5.28,0,0,1,4-3.86,8.4,8.4,0,0,1,4.74.11A5.28,5.28,0,0,1,81,6.89a8.2,8.2,0,0,1,.1.85C81.13,8,81.12,8.18,81.12,8.4Zm-3.89,0c0-.16,0-.31,0-.46a3.55,3.55,0,0,0-.58-2,2.42,2.42,0,0,0-2.6-.88,2.23,2.23,0,0,0-1.78,1.85,7,7,0,0,0-.11,2.57,3.1,3.1,0,0,0,.61,1.62,2.46,2.46,0,0,0,2.16.83,2.16,2.16,0,0,0,2-1.49A6.25,6.25,0,0,0,77.23,8.38Z"/><path class="cls-1" d="M44.88,8.42c0-1.94,0-3.89,0-5.83,0-.28.07-.38.37-.38,3.2,0,6.41,0,9.61,0,.28,0,.37.09.36.36q0,1,0,2c0,.28-.09.37-.37.37H49.21c-.39,0-.39,0-.39.4s0,.77,0,1.15.09.33.34.33h5.18c.41,0,.42,0,.42.42V9c0,.41,0,.41-.43.41H49.2c-.38,0-.38,0-.38.39v1.55c0,.39,0,.39.4.39H55c.41,0,.41,0,.42.41,0,.69,0,1.38,0,2.07,0,.29-.08.38-.37.38H45.27c-.38,0-.38,0-.38-.38C44.88,12.29,44.88,10.35,44.88,8.42Z"/><path class="cls-1" d="M82.76,8.36a7.3,7.3,0,0,1,.5-3,5,5,0,0,1,3.18-3,8.19,8.19,0,0,1,5.11,0,4.91,4.91,0,0,1,3.11,3.31c.06.15,0,.23-.14.27l-3.06.67c-.22.05-.24-.1-.28-.23a2,2,0,0,0-1.49-1.39A2.22,2.22,0,0,0,87,6.27a5.69,5.69,0,0,0-.3,2.62,6.2,6.2,0,0,0,.2,1.36,2,2,0,0,0,1.85,1.55A2.1,2.1,0,0,0,91,10.61a3.74,3.74,0,0,0,.33-.92c0-.21.13-.28.36-.21,1,.3,1.91.59,2.86.86.23.07.28.17.22.4a5,5,0,0,1-4.74,4,10.36,10.36,0,0,1-2.89-.15A5.3,5.3,0,0,1,83,10.5,6.61,6.61,0,0,1,82.76,8.36Z"/><path class="cls-1" d="M36.93,10.84c.1-.3.2-.6.29-.91C38,7.49,38.73,5.05,39.47,2.6A.48.48,0,0,1,40,2.2c1,0,2.09,0,3.14,0,.39,0,.39,0,.26.36q-1.86,5-3.71,10c-.22.59-.45,1.18-.66,1.78a.36.36,0,0,1-.4.27c-1.18,0-2.36,0-3.54,0a.47.47,0,0,1-.5-.35c-1.07-2.86-2.16-5.71-3.24-8.56L30.19,2.58c-.13-.36-.13-.37.25-.37,1.12,0,2.24,0,3.36,0a.39.39,0,0,1,.44.33l2.46,7.81c0,.17.11.33.17.5Z"/><path class="cls-1" d="M108.56,2.22H114c.37,0,.39,0,.39.38V5c0,.38,0,.39-.39.39h-3.1c-.42,0-.42,0-.42.4v8.44c0,.45,0,.45-.44.45h-3c-.42,0-.42,0-.42-.41V5.76c0-.41,0-.41-.41-.41h-3.14c-.26,0-.37-.07-.37-.35,0-.81,0-1.63,0-2.44,0-.27.1-.35.35-.35Z"/><path class="cls-1" d="M57.43,8.46c0-1.94,0-3.89,0-5.83,0-.3.1-.37.38-.37,1,0,2.07,0,3.11,0,.4,0,.4,0,.4.4v8.41c0,.44,0,.44.44.44h5.12c.39,0,.39,0,.39.38,0,.82,0,1.63,0,2.44,0,.24-.07.32-.31.32H57.74c-.27,0-.31-.11-.31-.34Z"/><path class="cls-1" d="M100.76,8.48v5.8c0,.38,0,.38-.38.38H97.21c-.26,0-.35-.07-.35-.34q0-5.85,0-11.72c0-.25.09-.33.34-.33h3.22c.26,0,.35.09.35.35C100.76,4.57,100.76,6.53,100.76,8.48Z"/><path class="cls-1" d="M33.75,18.71a1.58,1.58,0,0,1,1.32-.53,1,1,0,0,1,.81.38c.11.15.2.13.31,0a1.48,1.48,0,0,1,1.34-.37,1.12,1.12,0,0,1,.93,1.15c0,.75,0,1.49,0,2.24,0,.18-.07.26-.25.25s-.6,0-.9,0-.27-.09-.27-.29c0-.5,0-1,0-1.52a1.36,1.36,0,0,0,0-.4.39.39,0,0,0-.33-.32.43.43,0,0,0-.43.23.85.85,0,0,0-.09.44c0,.52,0,1,0,1.55,0,.24-.09.33-.33.31s-.55,0-.83,0-.3-.08-.3-.3V19.85c0-.37-.11-.53-.37-.54s-.46.21-.47.55c0,.54,0,1.09,0,1.63,0,.28-.1.37-.37.36s-.56,0-.84,0-.25-.05-.25-.23V18.49c0-.17.08-.25.25-.24s.44,0,.66,0S33.82,18.27,33.75,18.71Z"/><path class="cls-1" d="M124.88,18.19a1.86,1.86,0,0,1,1.9,2.67,1.75,1.75,0,0,1-1.48,1,2.44,2.44,0,0,1-1.48-.2,1.8,1.8,0,0,1-.95-2.05,1.83,1.83,0,0,1,1.73-1.46A2.62,2.62,0,0,1,124.88,18.19Zm-.63,1.87a1.17,1.17,0,0,0,.09.48.56.56,0,0,0,.54.39.54.54,0,0,0,.55-.38,1.33,1.33,0,0,0,.09-.59c0-.55-.31-.82-.72-.76S124.25,19.58,124.25,20.06Z"/><path class="cls-1" d="M80.4,18.18a1.93,1.93,0,0,1,1.77.69l0,.07c.24.36.22.41-.21.5l-.4.08a.44.44,0,0,1-.58-.19.68.68,0,0,0-.75-.23.67.67,0,0,0-.56.55,2,2,0,0,0,0,.85.65.65,0,0,0,.59.55.7.7,0,0,0,.82-.38c.11-.31.28-.3.53-.22a5.47,5.47,0,0,0,.58.15c.19,0,.22.14.15.32a1.59,1.59,0,0,1-1.29,1,3.63,3.63,0,0,1-1.43,0,1.79,1.79,0,0,1-1.38-1.84,1.71,1.71,0,0,1,1.38-1.8A2.5,2.5,0,0,1,80.4,18.18Z"/><path class="cls-1" d="M102.82,18.77a1,1,0,0,1,1.35-.43c.15.06.19.15.12.29a2.2,2.2,0,0,0-.17.39c-.1.28-.2.48-.57.35-.2-.06-.36.08-.45.27a2,2,0,0,0-.15.79q0,.59,0,1.17c0,.23-.09.31-.31.3h-.89c-.18,0-.26-.07-.26-.25v-3.1c0-.16.07-.25.24-.24s.46,0,.69,0S102.9,18.34,102.82,18.77Z"/><path class="cls-1" d="M59.25,20c0,.51,0,1,0,1.52,0,.21-.08.29-.29.29H58c-.17,0-.24-.08-.24-.24v-3.1c0-.17.08-.25.24-.25.31,0,.62,0,.92,0s.29.08.29.29C59.24,19,59.25,19.49,59.25,20Z"/><path class="cls-1" d="M126.31,11.75a1.45,1.45,0,0,1,0,2.9,1.45,1.45,0,1,1,0-2.9Zm0,2.6a1.13,1.13,0,0,0,1.11-1.16A1.15,1.15,0,0,0,126.31,12a1.16,1.16,0,0,0,0,2.31Z"/><path class="cls-1" d="M58.53,16.86h0c.73,0,.79.08.69.8,0,.15-.09.21-.23.21H58c-.33-.18-.11-.49-.16-.74a.2.2,0,0,1,.22-.26h.51Z"/><path class="cls-1" d="M125.76,13.23c0-.2,0-.4,0-.6s.08-.25.25-.25a4.35,4.35,0,0,1,.51,0,.43.43,0,0,1,.3.71c-.09.11-.1.18,0,.29a1.31,1.31,0,0,1,.12.44c0,.09.08.2-.08.22a.18.18,0,0,1-.24-.13c0-.11-.06-.23-.09-.34a.24.24,0,0,0-.27-.2c-.18,0-.14.15-.16.26s.11.41-.17.4-.12-.27-.14-.42a2.67,2.67,0,0,1,0-.4Z"/></g></g></g></svg>