<svg width="95px" height="32px" xmlns="http://www.w3.org/2000/svg" viewBox="0 0 128.33 22.69"><defs><style>.cls-1{fill:#d8d6d6;}</style></defs><g id="Layer_2" data-name="Layer 2"><g id="Layer_2-2" data-name="Layer 2"><g id="wacom"><path class="cls-1" d="M6.54,22.69c-.39-.07-.79-.11-1.19-.2A6.48,6.48,0,0,1,1,19.68a5.87,5.87,0,0,1-1-3.17c0-5.35,0-10.69,0-16C0,.23.09.17.31.18c.75,0,1.49,0,2.24,0,.36,0,.36,0,.36.36q0,7.56,0,15.12a6,6,0,0,0,.18,1.57,3.12,3.12,0,0,0,2.15,2.25,7.53,7.53,0,0,0,4.67,0,3.2,3.2,0,0,0,2.36-3.22c0-3.59,0-7.18,0-10.78V.55c0-.37,0-.37.37-.37h2.13c.43,0,.43,0,.43.42V8.54c0,2.53,0,5.07,0,7.6a3.23,3.23,0,0,0,2.5,3.39,7.33,7.33,0,0,0,4.74-.13,3.22,3.22,0,0,0,2.07-2.82,9.42,9.42,0,0,0,.05-1.3V.6c0-.42,0-.42.42-.42h2.13c.35,0,.36,0,.36.35V10.91c0,1.8,0,3.6,0,5.4A6,6,0,0,1,25.38,21a7,7,0,0,1-3.51,1.57c-.32.06-.64.1-1,.15H18.86l-.66-.09a6.26,6.26,0,0,1-4.31-2.25c-.1-.13-.17-.15-.28,0a6.1,6.1,0,0,1-3.83,2.18c-.37.07-.76.11-1.13.17Z"/><path class="cls-1" d="M77.83,22.69a10.68,10.68,0,0,1-2-.4,6.55,6.55,0,0,1-4.76-5.54,6.16,6.16,0,0,1-.06-1c0-3.06-.06-6.13,0-9.19a6.29,6.29,0,0,1,3.36-5.54,7.75,7.75,0,0,1,3.75-1c1.64,0,3.29,0,4.93,0a7.62,7.62,0,0,1,4.8,1.75,6.38,6.38,0,0,1,2.21,4,10.22,10.22,0,0,1,.1,1.56c0,2.82,0,5.65,0,8.47a6.54,6.54,0,0,1-1.52,4.28,6.86,6.86,0,0,1-4.07,2.35c-.41.09-.83.13-1.24.2ZM73.94,11.31v4a7.6,7.6,0,0,0,0,1.07,3.58,3.58,0,0,0,1.93,2.82,5.81,5.81,0,0,0,2.68.6h3.92a6.1,6.1,0,0,0,1.28-.12A4.13,4.13,0,0,0,86.53,18a4,4,0,0,0,.68-2.27c0-2.71,0-5.41,0-8.12a8.77,8.77,0,0,0,0-1.25,3.65,3.65,0,0,0-1.47-2.6,5.23,5.23,0,0,0-3-.92c-1.26,0-2.51,0-3.77,0A8.7,8.7,0,0,0,77.27,3a3.85,3.85,0,0,0-3.33,4.06C74,8.5,73.94,9.9,73.94,11.31Z"/><path class="cls-1" d="M36.72,22.69a14.41,14.41,0,0,1-2.06-.4A6.2,6.2,0,0,1,30.18,17a8.27,8.27,0,0,1,.38-3.76,5.71,5.71,0,0,1,3.36-3.42,9.42,9.42,0,0,1,3.23-.63c1.73-.06,3.45,0,5.18,0,.34,0,.35,0,.35.34v2.2c0,.35,0,.35-.34.35H37.93a8.67,8.67,0,0,0-2.21.25,3.29,3.29,0,0,0-2.26,1.66,4.42,4.42,0,0,0-.4,2.4,4.3,4.3,0,0,0,.31,1.41,3.27,3.27,0,0,0,2.33,1.87,5.93,5.93,0,0,0,1.62.23h4.19a5.55,5.55,0,0,0,2.87-.73,3.53,3.53,0,0,0,1.76-3c0-1.69,0-3.38,0-5.07,0-1.35,0-2.7,0-4A3.81,3.81,0,0,0,42.9,3a8.39,8.39,0,0,0-1.58-.17c-1,0-2,0-3,0a8.52,8.52,0,0,0-3.24.53c-.14.06-.22,0-.3-.11-.41-.75-.83-1.49-1.25-2.23-.08-.14-.06-.2.1-.27A10.57,10.57,0,0,1,37,.08a48.2,48.2,0,0,1,5.1,0,7.3,7.3,0,0,1,5.35,2.33,6.49,6.49,0,0,1,1.64,3.76c.06.62,0,1.23,0,1.84,0,2.57,0,5.13,0,7.69a6.71,6.71,0,0,1-5.61,6.82c-.41.09-.83.13-1.24.2Z"/><path class="cls-1" d="M59.1,22.69a12.93,12.93,0,0,1-2.06-.4,6.61,6.61,0,0,1-4.74-5.62,8.83,8.83,0,0,1,0-.89c0-3,0-6.08,0-9.12a6.26,6.26,0,0,1,3.21-5.54A8.06,8.06,0,0,1,59.57,0c1.53,0,3,0,4.57,0a9.81,9.81,0,0,1,4.23.9c.24.12.46.26.69.39s.18.16.08.3c-.48.69-1,1.39-1.42,2.08-.08.12-.16.15-.29.07A7.42,7.42,0,0,0,64,2.91c-1.47-.07-2.94,0-4.41,0a5.63,5.63,0,0,0-2.1.43,3.61,3.61,0,0,0-2.32,3.2,7.53,7.53,0,0,0,0,1c0,2.65,0,5.31,0,8A5.54,5.54,0,0,0,55.36,17,3.59,3.59,0,0,0,57.8,19.5a6.19,6.19,0,0,0,2.05.32c1.41,0,2.82,0,4.23,0A6.65,6.65,0,0,0,67.4,19c.15-.08.24-.07.34.08.45.67.91,1.34,1.37,2,.13.19.09.28-.08.39a7.86,7.86,0,0,1-2.92,1.07c-.52.09-1,.13-1.57.19Z"/><path class="cls-1" d="M128.33,2.81a2.53,2.53,0,0,1-.59,1.12,2.21,2.21,0,0,1-2.43.52,2.29,2.29,0,0,1-1.37-2,2.21,2.21,0,0,1,4.34-.69.88.88,0,0,1,.05.15Zm-2.19,1.43A1.87,1.87,0,0,0,128,2.42a1.86,1.86,0,1,0-3.72,0A1.85,1.85,0,0,0,126.14,4.24Z"/><path class="cls-1" d="M93.47,14.18V6.45A6.08,6.08,0,0,1,97.36.73a10.64,10.64,0,0,1,4.81-.62,9.28,9.28,0,0,1,2.16.42,5.91,5.91,0,0,1,2.75,1.89c.11.14.16.15.28,0A6.25,6.25,0,0,1,111.55.19a12.19,12.19,0,0,1,3.86,0,7.25,7.25,0,0,1,3.44,1.56,5.91,5.91,0,0,1,2.05,3.89A9.11,9.11,0,0,1,121,7.07V22.18c0,.42,0,.42-.42.42h-2.13c-.34,0-.35,0-.35-.36V7.18a6.41,6.41,0,0,0-.17-1.63,3.09,3.09,0,0,0-2-2.23,7.14,7.14,0,0,0-5,.06,3.13,3.13,0,0,0-2.1,3.1c0,4.48,0,9,0,13.43v2.3c0,.39,0,.39-.4.39h-2.16c-.38,0-.38,0-.38-.38V7a4.48,4.48,0,0,0-.31-1.85,3.18,3.18,0,0,0-1.94-1.79,7.36,7.36,0,0,0-4.66-.07A3.29,3.29,0,0,0,96.42,6.4c0,.28,0,.56,0,.84V22c0,.11,0,.22,0,.33s-.07.31-.29.3q-1.17,0-2.34,0c-.25,0-.32-.09-.31-.32v-8.1Z"/><path class="cls-1" d="M126.74,2.48c.44.25.38.65.37,1,0,.13-.12.09-.2.1s-.21,0-.22-.15,0-.22,0-.33a.63.63,0,0,0-.88-.43c-.07,0-.07.11-.07.18s0,.32,0,.48-.06.25-.24.25-.24-.07-.24-.24v-2c0-.12,0-.23.17-.23a6.71,6.71,0,0,1,1.1,0,.65.65,0,0,1,.63.54A.66.66,0,0,1,126.74,2.48Zm-.66-.19h.18c.26,0,.4-.13.42-.35s-.12-.37-.35-.42a1.55,1.55,0,0,0-.43,0c-.06,0-.14,0-.15.06a1.23,1.23,0,0,0,0,.66C125.81,2.36,126,2.27,126.08,2.29Z"/></g></g></g></svg>