<svg width="126px" height="80px" xmlns="http://www.w3.org/2000/svg" viewBox="0 0 130.55 130.6"><defs><style>.cls-1{fill:#d8d6d6;}</style></defs><g id="Layer_2" data-name="Layer 2"><g id="Layer_2-2" data-name="Layer 2"><g id="xbox"><path class="cls-1" d="M65.07,130.59c-17.57-.2-32.69-6.43-45.46-18.5-1.41-1.34-1.47-3-1.37-4.69.3-5,2.65-9.18,5.24-13.25,4.38-6.9,9.79-13,15.39-18.9C47,66.67,55.71,58.69,64.52,50.82a1.45,1.45,0,0,1,2.3,0c12,10.91,24.17,21.67,34.72,34.05,4.15,4.86,8,10,10.48,15.94a17.07,17.07,0,0,1,1.49,7.08,3.45,3.45,0,0,1-1,2.42,64.8,64.8,0,0,1-37.45,19.61A56.4,56.4,0,0,1,65.07,130.59Z"/><path class="cls-1" d="M14.91,106.33c-.81,0-1-.66-1.33-1.07a63.14,63.14,0,0,1-13.25-33C-1.58,51.59,4.77,33.87,19.23,19c2.07-2.13,4.26-2.22,6.77-1.74a9.13,9.13,0,0,1,3.38,1.52A167.23,167.23,0,0,1,49.62,34.92c1.06,1,1,1.58,0,2.59C38,50.16,27.91,63.94,20.43,79.49c-3.1,6.43-5.66,13.06-6.14,20.3A30.08,30.08,0,0,0,14.91,106.33Z"/><path class="cls-1" d="M117.12,104.48c.48-14.36-6.27-26-13.13-37.5a172.46,172.46,0,0,0-22.26-29.4c-1-1-1-1.66,0-2.63a112.43,112.43,0,0,1,24.64-18.39,1.9,1.9,0,0,1,2.56.27c11.43,10.52,18.56,23.38,20.82,38.77,2.5,17-1.21,32.64-10.89,46.85-.39.56-.8,1.09-1.22,1.62A3.06,3.06,0,0,1,117.12,104.48Z"/><path class="cls-1" d="M100.48,10.76c-2.14.31-4,.55-5.9.87a68.89,68.89,0,0,0-25.44,9.82,5.69,5.69,0,0,1-6.52.24C55.53,17.36,47.85,14.4,40,11.86c-1.72-.55-3.4-1.24-5.07-1.92-.6-.25-1.43-.47-1.44-1.25s.81-.86,1.34-1.14A62,62,0,0,1,57,.51,64.62,64.62,0,0,1,98.5,9.13c.49.29,1,.6,1.43.92A4.47,4.47,0,0,1,100.48,10.76Z"/></g></g></g></svg>