<svg width="95px" height="32px" xmlns="http://www.w3.org/2000/svg" viewBox="0 0 131.15 63.27"><defs><style>.cls-1{fill:#d8d6d6;}</style></defs><g id="Layer_2" data-name="Layer 2"><g id="Layer_2-2" data-name="Layer 2"><g id="zte"><path class="cls-1" d="M97.14,63.27a6.09,6.09,0,0,1-2.21-1.44,4.73,4.73,0,0,1-1-3.25c0-1.52,0-3,0-4.55q0-24.95,0-49.89A4.42,4.42,0,0,1,98,0h28.83A4.28,4.28,0,0,1,131,3.06c.06.18.13.35.19.53V5c0,.1-.08.19-.1.29a4.36,4.36,0,0,1-4.39,3.4c-.49,0-1,0-1.49,0-5.82,0-11.64,0-17.46.1a2.78,2.78,0,0,0-.86.1A4.47,4.47,0,0,0,103.79,13c0,3.24.08,6.48,0,9.72a4.42,4.42,0,0,0,4.5,4.49c4.66,0,9.32,0,14,0a9.34,9.34,0,0,1,2.64.22,4.36,4.36,0,0,1,2.25,6.63,3.84,3.84,0,0,1-3,1.83c-2.49.08-5,0-7.47.08-2.85.08-5.71.08-8.56,0a4.41,4.41,0,0,0-4.33,4.28c0,3.36,0,6.72,0,10.08a4.39,4.39,0,0,0,4.23,4.2c6.32,0,12.64-.13,19,.08a4.27,4.27,0,0,1,3.3,1.7,6.62,6.62,0,0,1,.87,1.89v1.43a6.29,6.29,0,0,1-.9,2,5.39,5.39,0,0,1-2.28,1.6Z"/><path class="cls-1" d="M3.29,63.27a5.42,5.42,0,0,1-2.14-1.35,4.23,4.23,0,0,1-.53-5.1q8.91-14,17.83-28.09c3.24-5.11,6.53-10.19,9.72-15.35a3,3,0,0,0-1-4.23,2.11,2.11,0,0,0-1.06-.34c-1.38-.06-2.76-.1-4.15-.1H7.09a8.14,8.14,0,0,1-1.78-.17A4.39,4.39,0,0,1,2.17,4.93,4.39,4.39,0,0,1,4.79.33,5.94,5.94,0,0,1,7.26,0H40.61a4.35,4.35,0,0,1,4.13,4.5,6,6,0,0,1-1.13,3Q37.76,16.63,31.92,25.8C26.79,33.86,21.69,41.94,16.55,50a3,3,0,0,0,1.71,4.5,2.12,2.12,0,0,0,.71.06l16.09,0c1.84,0,3.68.05,5.52.09a4.32,4.32,0,0,1,3.79,6,4.75,4.75,0,0,1-3,2.64Z"/><path class="cls-1" d="M68.14,63.27a6.32,6.32,0,0,1-2.32-1.45,4.77,4.77,0,0,1-1.37-3.31q0-20.44,0-40.89c0-1.72,0-3.45-.11-5.17a4,4,0,0,0-2.47-3.32,4.41,4.41,0,0,0-2-.4l-7.27,0a4.33,4.33,0,0,1-2.78-.85,4.22,4.22,0,0,1-1.72-4A4.29,4.29,0,0,1,50.94.23,2.85,2.85,0,0,1,52.09,0H86.3a4.24,4.24,0,0,1,4.12,3,4.33,4.33,0,0,1-4,5.68c-1.92,0-3.83,0-5.74,0-.89,0-1.77,0-2.66.09-1.87.1-3.76,2.32-3.59,3.8a8.42,8.42,0,0,1,0,1.23c-.15,14.26-.07,28.52-.11,42.78a16.34,16.34,0,0,1-.11,2.71A4.76,4.76,0,0,1,71,63.07l-.53.2Z"/></g></g></g></svg>